<?xml version="1.0" encoding="iso-8859-1"?>
<!-- Generator: Adobe Illustrator 19.0.0, SVG Export Plug-In . SVG Version: 6.00 Build 0)  -->
<svg version="1.1" id="Layer_1" xmlns="http://www.w3.org/2000/svg" xmlns:xlink="http://www.w3.org/1999/xlink" x="0px" y="0px"
	 viewBox="0 0 436.369 436.369" style="enable-background:new 0 0 436.369 436.369;" xml:space="preserve">
<g>
	<g>
		<path style="fill:#E1F4F9;" d="M323.857,183.119c9.141,1.892,18.518,2.297,27.765,1.198c18.586-2.197,36.585-10.43,50.838-24.683
			c33.709-33.709,33.709-88.37,0-122.078c-33.717-33.717-88.37-33.709-122.078,0c-14.215,14.215-22.432,32.152-24.667,50.67
			c-1.114,9.293-0.725,18.731,1.183,27.918"/>
		<path style="fill:#333333;" d="M341.417,189.922c-6.223,0-12.437-0.637-18.573-1.907l2.027-9.792
			c8.629,1.787,17.431,2.167,26.162,1.129c18.282-2.162,34.842-10.202,47.892-23.253c15.359-15.359,23.817-35.781,23.817-57.503
			c0-21.723-8.458-42.145-23.817-57.504c-31.708-31.707-83.3-31.708-115.007,0c-13.003,13.003-21.039,29.509-23.239,47.734
			c-1.056,8.806-0.681,17.657,1.114,26.302l-9.791,2.033c-2.016-9.708-2.437-19.643-1.251-29.53
			c2.471-20.473,11.495-39.01,26.096-53.611c35.607-35.607,93.542-35.606,129.149,0c17.248,17.248,26.746,40.181,26.746,64.575
			s-9.499,47.327-26.746,64.575c-14.655,14.655-33.254,23.685-53.787,26.113C348.618,189.709,345.016,189.922,341.417,189.922z"/>
		<path style="fill:#FFFFFF;" d="M398.667,61.315c-1.554,0-3.084-0.722-4.062-2.078c-2.053-2.851-4.364-5.566-6.868-8.07
			c-4.103-4.103-8.708-7.632-13.688-10.489c-2.395-1.374-3.223-4.43-1.849-6.825c1.375-2.395,4.43-3.222,6.825-1.849
			c5.746,3.297,11.056,7.365,15.783,12.092c2.883,2.884,5.544,6.011,7.911,9.297c1.614,2.241,1.105,5.366-1.135,6.979
			C400.7,61.008,399.678,61.315,398.667,61.315z"/>
		<path style="fill:#FFFFFF;" d="M391.273,151.929c-1.28,0-2.559-0.488-3.536-1.464c-1.953-1.953-1.953-5.119,0-7.071
			c18.9-18.9,24.348-48.025,13.557-72.472c-1.115-2.526,0.029-5.478,2.555-6.593c2.528-1.115,5.479,0.029,6.593,2.555
			c6.06,13.729,7.866,28.824,5.223,43.655c-2.705,15.181-9.917,28.987-20.857,39.927
			C393.832,151.441,392.553,151.929,391.273,151.929z"/>
		<g>
			<circle style="fill:#F9E33D;" cx="287.711" cy="74.901" r="15.183"/>
			<circle style="fill:#F9E33D;" cx="365.116" cy="152.305" r="15.183"/>
		</g>
		<g>
			<path style="fill:#666666;" d="M287.711,95.084c-5.391,0-10.459-2.099-14.272-5.911c-7.869-7.87-7.869-20.674,0-28.543
				c3.813-3.812,8.881-5.912,14.272-5.912s10.459,2.099,14.271,5.912c3.812,3.812,5.912,8.88,5.912,14.272
				c0,5.391-2.1,10.459-5.912,14.272l0,0C298.17,92.984,293.102,95.084,287.711,95.084z M287.711,64.717
				c-2.72,0-5.277,1.059-7.201,2.983c-3.97,3.97-3.97,10.431,0,14.401c1.923,1.923,4.48,2.982,7.201,2.982
				c2.72,0,5.277-1.059,7.2-2.982l0,0c1.924-1.923,2.983-4.48,2.983-7.2c0-2.72-1.059-5.277-2.983-7.201
				C292.988,65.776,290.43,64.717,287.711,64.717z"/>
			<path style="fill:#666666;" d="M365.115,172.479c-5.169,0-10.336-1.967-14.271-5.902c-3.812-3.813-5.912-8.881-5.912-14.272
				s2.1-10.459,5.912-14.271c3.812-3.812,8.88-5.912,14.271-5.912s10.459,2.1,14.272,5.912c7.869,7.869,7.869,20.673,0,28.543l0,0
				C375.453,170.511,370.283,172.479,365.115,172.479z M365.115,142.122c-2.72,0-5.277,1.059-7.2,2.982
				c-1.924,1.924-2.983,4.481-2.983,7.201s1.059,5.277,2.983,7.201c3.971,3.97,10.431,3.971,14.401,0
				c3.97-3.97,3.97-10.431,0-14.401C370.393,143.181,367.836,142.122,365.115,142.122z"/>
		</g>
		<path style="fill:#8FCDF7;" d="M279.625,153.586c-20.727-20.727-20.727-54.452,0-75.178l13.014-13.014
			c20.727-20.727,54.451-20.726,75.178,0l6.801,6.801c20.727,20.727,20.727,54.452,0,75.178l-13.014,13.014
			c-20.727,20.727-54.451,20.726-75.178,0L279.625,153.586z"/>
		<path style="fill:#F9763D;" d="M58.473,155.701l-5.982,5.982c-3.281,3.281-3.281,8.591-0.008,11.865l19.746-6.226L58.473,155.701z
			"/>
		<polygon style="fill:#F9763D;" points="136.374,431.369 99.568,394.562 113.714,388.733 129.332,404.351 		"/>
		<path style="fill:#158ACC;" d="M198.337,357.214c-2.396,2.518-6.104,6.272-10.85,10.621l-23.538-23.538l-0.008-0.008
			c2.236-2.876,4.38-5.86,6.379-8.942C179.4,342.946,188.739,350.24,198.337,357.214z"/>
		<path style="fill:#53AEF9;" d="M163.949,344.296l23.538,23.538c-3.8,3.495-8.263,7.363-13.238,11.285l-21.738-21.738
			c3.937-4.059,7.813-8.439,11.43-13.093L163.949,344.296z"/>
		<path style="fill:#53AEF9;" d="M152.512,357.382l21.738,21.738c-4.387,3.456-9.179,6.951-14.26,10.262l-20.097-20.097
			C143.997,365.714,148.285,361.731,152.512,357.382z"/>
		<path style="fill:#53AEF9;" d="M139.892,369.284l20.097,20.097c-4.952,3.212-10.194,6.257-15.618,8.904l-18.113-18.113
			C130.263,377.22,134.948,373.557,139.892,369.284z"/>
		<path style="fill:#53AEF9;" d="M126.257,380.172l18.113,18.113c-4.876,2.388-9.911,4.463-15.039,6.066l-15.618-15.618
			C113.714,388.733,118.81,385.681,126.257,380.172z"/>
		<path style="fill:#D8B86F;" d="M360.488,138.739l-12.307,12.307c-14.573,14.573-38.211,14.573-52.784,0l-6.432-6.432
			c-14.573-14.573-14.573-38.211,0-52.784l12.307-12.307c14.573-14.573,38.211-14.573,52.784,0l6.432,6.432
			C375.061,100.529,375.061,124.166,360.488,138.739z"/>
		<path style="fill:#F7D789;" d="M351.08,129.332l-12.307,12.307c-14.573,14.573-34.455,18.328-44.398,8.386l-4.388-4.388
			c-9.943-9.943-6.187-29.825,8.386-44.398l12.307-12.307c14.573-14.573,34.455-18.328,44.398-8.386l4.388,4.388
			C369.408,94.876,365.653,114.759,351.08,129.332z"/>
		<polygon style="fill:#F9763D;" points="51.263,326.282 45.434,340.428 8.627,303.621 35.645,310.664 		"/>
		<path style="fill:#53AEF9;" d="M51.263,326.282l-15.618-15.618c1.602-5.127,3.678-10.163,6.066-15.039l18.113,18.113
			C54.315,321.186,51.263,326.282,51.263,326.282z"/>
		<path style="fill:#158ACC;" d="M82.79,241.651c6.974,9.598,14.26,18.945,21.86,28.025c-3.082,1.999-6.066,4.143-8.942,6.379
			l-0.008-0.008l-23.538-23.538C76.51,247.763,80.272,244.047,82.79,241.651z"/>
		<path style="fill:#53AEF9;" d="M59.824,313.739L41.71,295.625c2.648-5.425,5.692-10.667,8.904-15.618l20.097,20.097
			C66.439,305.048,62.776,309.733,59.824,313.739z"/>
		<path style="fill:#53AEF9;" d="M95.699,276.047l0.008,0.008c-4.654,3.617-9.034,7.493-13.093,11.43l-21.738-21.738
			c3.922-4.975,7.79-9.438,11.285-13.238L95.699,276.047z"/>
		<path style="fill:#53AEF9;" d="M70.712,300.104l-20.097-20.097c3.311-5.082,6.806-9.873,10.262-14.26l21.738,21.738
			C78.265,291.711,74.282,295.999,70.712,300.104z"/>
		<path style="fill:#44A1E0;" d="M331.25,298.906c-2.152-0.824-4.196-2.106-5.936-3.845c-6.615-6.615-6.608-17.35,0.008-23.966
			c4.677-4.677,11.422-6.051,17.312-4.097c2.938-9.56,5.127-18.129,6.768-25.354c3.502-15.512,4.418-24.896,4.418-24.896
			c0.465-3.09,0.717-6.226,0.74-9.362l-4.09-24.736c-1.404-3.937-3.151-7.775-5.272-11.483l-0.008-0.008
			c-21.203,19.357-54.096,18.785-74.613-1.732c-20.509-20.509-21.081-53.402-1.724-74.605c-3.701-2.113-7.554-3.876-11.514-5.288
			l-24.736-4.09c-3.128,0.031-6.234,0.282-9.354,0.732c0,0-9.392,0.923-24.889,4.425c-8.133,1.831-17.93,4.38-28.94,7.882
			l-21.249,7.454l-0.008-0.008c-27.101,10.422-58.674,26.171-89.689,49.77l7.332,6.188l0.832,0.71l5.593,4.723
			c0,0,43.529-24.301,74.575-24.751l-0.069,0.069l-15.954,15.954l-62.336,62.336c4.616,7.027,9.392,13.94,14.344,20.723
			c6.974,9.598,14.26,18.945,21.86,28.025c9.949,11.903,20.425,23.34,31.382,34.296c10.957,10.957,22.394,21.432,34.289,31.374
			c9.08,7.599,18.419,14.894,28.017,21.867c6.783,4.937,13.696,9.713,20.73,14.337c0.008,0.008,0.008,0.008,0.015,0.015
			l62.336-62.336l15.954-15.954l0.046-0.046c-0.458,31.038-24.744,74.536-24.744,74.536l5.432,6.424l6.188,7.332
			C305.873,353.185,320.873,324.36,331.25,298.906z M232.343,259.437l-51.784-51.784l47.077-47.076l51.784,51.784L232.343,259.437z"
			/>
		<path style="fill:#53AEF9;" d="M326.627,284.391l-0.008-0.008l7.454-21.249c3.502-11.01,6.05-20.807,7.882-28.94
			c0.015-0.076,0.038-0.145,0.053-0.221c2.297-10.155,3.296-20.555,3.044-30.97l-0.641-26.415c-0.366-1.251-0.771-2.48-1.228-3.685
			c-35.09,12.414-93.84-9.713-76.078-76.078c-1.213-0.45-2.449-0.862-3.701-1.228l-26.407-0.649
			c-10.415-0.252-20.822,0.74-30.977,3.037c-0.069,0.023-0.145,0.038-0.221,0.053c-8.133,1.831-17.93,4.38-28.94,7.882
			l-21.249,7.454l-0.008-0.008c-26.895,10.339-58.186,25.926-88.965,49.228l5.593,4.723c0,0,43.529-24.301,74.575-24.751
			l-6.493,21.371c1.373,0.336-62.062,66.792-62.062,66.792c3.861,6.272,7.874,12.421,12.063,18.441
			c5.898,8.523,12.101,16.786,18.617,24.782c7.454,9.164,15.321,17.976,23.553,26.422c1.175,1.206,2.358,2.403,3.548,3.594
			c1.19,1.19,2.388,2.373,3.594,3.548c8.446,8.233,17.259,16.099,26.422,23.554c7.996,6.516,16.252,12.727,24.774,18.625
			c6.02,4.174,12.17,8.187,18.441,12.048c0.008,0.008,0.008,0.008,0.015,0.015l66.22-66.22c0.038,1.396,21.928-2.35,21.928-2.35
			v0.015c0,0.015,0,0.015-0.008,0.023c-0.084,5.547-0.923,11.483-2.251,17.511c-0.168,0.748-0.336,1.495-0.519,2.243
			c-0.412,1.724-0.862,3.441-1.343,5.158c-0.275,0.992-0.557,1.976-0.847,2.953c-3.342,11.185-7.828,22.005-11.681,30.405
			c-0.313,0.694-0.626,1.358-0.923,2.007c-0.748,1.602-1.465,3.098-2.144,4.463c-0.267,0.572-0.534,1.114-0.793,1.633
			c-0.443,0.9-0.862,1.732-1.259,2.495c-0.13,0.267-0.252,0.511-0.382,0.748c-0.244,0.488-0.473,0.931-0.694,1.35
			c-1.19,2.289-1.908,3.571-1.908,3.571l4.723,5.593C300.7,342.576,316.288,311.286,326.627,284.391z M228.979,256.069
			l-45.047-45.047l47.076-47.076l45.047,45.047L228.979,256.069z"/>
		<path style="fill:#F9E33D;" d="M180.155,109.219l-14.352,14.352l-17.633-17.633l-0.008-0.008
			c6.47-2.487,12.689-4.677,18.571-6.592c0.908-0.298,1.801-0.58,2.686-0.855L180.155,109.219z"/>
		<path style="fill:#F9E33D;" d="M331.25,298.906c-2.152-0.824-4.196-2.106-5.936-3.845c-6.615-6.615-6.608-17.35,0.008-23.966
			c4.677-4.677,11.422-6.051,17.312-4.097c-0.618,2.037-1.274,4.128-1.976,6.264C338.048,281.273,334.95,289.88,331.25,298.906z"/>
		<path style="fill:#666666;" d="M324.015,180.929c-14.895,0-29.785-5.668-41.125-17.007l-6.801-6.801
			c-22.676-22.676-22.676-59.573,0-82.25l13.014-13.014c10.968-10.968,25.574-17.009,41.125-17.009c0.001,0,0,0,0,0
			c15.551,0,30.156,6.041,41.125,17.01l6.801,6.801c22.676,22.677,22.676,59.573,0,82.25l-13.014,13.014
			C353.802,175.259,338.906,180.929,324.015,180.929z M330.227,54.849c-12.88,0-24.974,5-34.053,14.08L283.16,81.943
			c-18.777,18.777-18.777,49.33,0,68.107l6.801,6.801c18.778,18.778,49.332,18.778,68.107,0l13.014-13.014
			c18.777-18.777,18.777-49.33,0-68.107l-6.801-6.801C355.201,59.85,343.107,54.849,330.227,54.849z"/>
		<path style="fill:#666666;" d="M321.789,166.976c-11.307,0-21.935-4.401-29.928-12.394l-6.432-6.432
			c-16.502-16.502-16.502-43.353,0-59.855l12.307-12.307c7.993-7.993,18.621-12.395,29.928-12.395s21.935,4.402,29.927,12.395
			l6.432,6.432c16.502,16.502,16.502,43.353,0,59.855l-12.307,12.307C343.723,162.574,333.095,166.976,321.789,166.976z
			 M327.664,73.594c-8.635,0-16.752,3.362-22.856,9.466l-12.307,12.307c-12.603,12.603-12.603,33.11,0,45.713l6.432,6.432
			c6.104,6.104,14.221,9.465,22.856,9.465s16.752-3.361,22.856-9.465l12.307-12.307c12.603-12.603,12.603-33.11,0-45.713
			l-6.432-6.432C344.416,76.955,336.299,73.594,327.664,73.594z"/>
		<path style="fill:#333333;" d="M51.262,331.281c-1.317,0-2.592-0.521-3.535-1.463l-15.618-15.619
			c-1.315-1.315-1.792-3.251-1.237-5.027c1.596-5.109,3.732-10.407,6.348-15.747c2.562-5.248,5.658-10.68,9.2-16.14
			c3.177-4.874,6.717-9.794,10.53-14.633c3.624-4.597,7.503-9.148,11.532-13.529c4.498-4.908,8.39-8.743,10.862-11.095l6.893,7.245
			c-2.359,2.244-6.076,5.907-10.389,10.613c-3.863,4.201-7.577,8.558-11.044,12.955c-3.627,4.604-6.992,9.279-10,13.895
			c-3.317,5.113-6.212,10.19-8.6,15.082c-1.908,3.896-3.531,7.747-4.842,11.49l9.061,9.062c1.397-2.071,3.201-4.657,5.382-7.606
			c3.52-4.775,7.265-9.464,11.125-13.93c4.027-4.63,8.129-8.979,12.2-12.936c4.456-4.322,9-8.288,13.51-11.792
			c3.099-2.409,6.225-4.638,9.289-6.625l2.707,4.173l3.558,3.55c-0.248,0.248-0.529,0.477-0.823,0.667
			c-2.827,1.833-5.718,3.896-8.595,6.132c-4.223,3.281-8.489,7.006-12.68,11.071c-3.868,3.76-7.776,7.904-11.611,12.313
			c-3.681,4.259-7.263,8.744-10.635,13.319c-5.279,7.137-8.268,12.098-8.297,12.147c-0.792,1.32-2.149,2.203-3.677,2.391
			C51.67,331.269,51.466,331.281,51.262,331.281z"/>
		<path style="fill:#666666;" d="M314.426,114.967c-1.28,0-2.559-0.488-3.536-1.464c-1.953-1.953-1.953-5.119,0-7.071l14.817-14.817
			c1.953-1.953,5.118-1.953,7.071,0s1.953,5.119,0,7.071l-14.817,14.817C316.985,114.479,315.706,114.967,314.426,114.967z"/>
		<path style="fill:#666666;" d="M330.044,130.585c-1.28,0-2.559-0.488-3.536-1.464c-1.953-1.953-1.953-5.119,0-7.071l14.817-14.817
			c1.954-1.952,5.119-1.952,7.071,0c1.953,1.953,1.953,5.118,0,7.071l-14.817,14.817
			C332.603,130.097,331.323,130.585,330.044,130.585z"/>
		<path style="fill:#333333;" d="M52.484,178.547c-1.28,0-2.56-0.488-3.536-1.465c-5.218-5.219-5.214-13.713,0.008-18.936
			l5.982-5.982c1.838-1.837,4.777-1.96,6.762-0.284l13.756,11.621c2.109,1.782,2.375,4.937,0.593,7.046
			c-1.782,2.11-4.937,2.375-7.046,0.593l-10.245-8.654l-2.731,2.731c-1.324,1.324-1.327,3.474-0.008,4.794
			c1.953,1.953,1.952,5.119,0,7.071C55.043,178.059,53.763,178.547,52.484,178.547z"/>
		<path style="fill:#F9763D;" d="M284.295,381.523l-5.982,5.982c-3.281,3.281-8.591,3.281-11.865,0.008l6.226-19.746
			L284.295,381.523z"/>
		<path style="fill:#333333;" d="M272.374,394.959c-3.427,0-6.853-1.303-9.46-3.911c-1.953-1.952-1.953-5.118,0-7.071
			c1.952-1.953,5.119-1.954,7.071,0c1.321,1.319,3.471,1.315,4.794-0.008l2.731-2.731l-8.654-10.245
			c-1.782-2.109-1.516-5.264,0.593-7.046c2.108-1.781,5.264-1.517,7.046,0.593l11.621,13.757c1.677,1.985,1.553,4.924-0.284,6.762
			l-5.982,5.982C279.237,393.653,275.805,394.959,272.374,394.959z"/>
		<path style="fill:#333333;" d="M284.296,386.519c-1.471,0-2.87-0.648-3.821-1.775l-11.619-13.755
			c-1.344-1.591-1.56-3.849-0.544-5.667c0.021-0.037,0.707-1.267,1.835-3.437c0.219-0.415,0.432-0.826,0.658-1.279
			c0.028-0.057,0.058-0.113,0.088-0.168c0.082-0.15,0.164-0.31,0.241-0.474c0.028-0.06,0.058-0.12,0.089-0.179
			c0.381-0.732,0.783-1.53,1.208-2.394c0.254-0.508,0.502-1.011,0.75-1.541c0.017-0.036,0.035-0.072,0.052-0.108
			c0.662-1.333,1.362-2.791,2.091-4.354l0.329-0.712c0.186-0.401,0.376-0.811,0.565-1.232c4.863-10.603,8.71-20.612,11.451-29.784
			c0.279-0.939,0.552-1.894,0.818-2.855c0.494-1.764,0.917-3.39,1.298-4.985c0.182-0.745,0.343-1.461,0.504-2.178
			c0.208-0.944,0.401-1.875,0.579-2.793l-68.25,68.25c-1.763,1.762-4.513,1.934-6.469,0.515
			c-7.076-4.655-14.057-9.485-20.754-14.359c-9.599-6.975-19.116-14.403-28.284-22.077c-10.682-8.928-21.109-18.381-30.991-28.094
			c-1.206-1.175-2.42-2.373-3.625-3.579c-1.205-1.205-2.403-2.418-3.593-3.639c-9.695-9.863-19.151-20.293-28.089-30.985
			c-7.607-9.088-15.033-18.608-22.069-28.292c-4.888-6.696-9.762-13.737-14.479-20.917c-1.301-1.981-1.033-4.604,0.644-6.281
			l68.28-68.28c-27.312,5.298-58.162,22.372-58.523,22.574c-1.817,1.013-4.073,0.796-5.663-0.546L55.248,159.52
			c-1.16-0.979-1.812-2.431-1.774-3.948c0.039-1.517,0.763-2.934,1.971-3.853c27.316-20.784,57.907-37.76,90.922-50.458
			c6.238-2.398,12.569-4.645,18.818-6.68c0.924-0.303,1.842-0.593,2.751-0.875c9.858-3.136,19.735-5.826,29.325-7.984
			c3.682-0.832,36.675-7.982,59.497-2.389c2.461,0.603,4.082,2.952,3.772,5.467c-3.084,25.057,5.373,49.654,23.203,67.483
			c17.79,17.791,42.337,26.259,67.332,23.224c2.533-0.302,4.884,1.337,5.469,3.816c4.516,19.149,0.499,47.242-2.256,59.421
			c-1.95,8.589-4.26,17.241-6.866,25.72c-0.667,2.202-1.325,4.287-2.005,6.356c-2.87,8.813-6.079,17.558-9.531,25.98
			c-12.361,30.32-28.378,58.501-47.603,83.749c-0.919,1.207-2.336,1.931-3.853,1.969
			C284.38,386.519,284.338,386.519,284.296,386.519z M278.688,367.133l5.37,6.352c17.038-23.25,31.342-48.944,42.563-76.469
			c3.363-8.203,6.485-16.713,9.283-25.305c0.66-2.008,1.295-4.021,1.945-6.167c2.539-8.26,4.783-16.668,6.677-25.01
			c2.744-12.128,5.557-34.583,3.094-50.654c-26.447,1.874-52.083-7.654-70.957-26.527c-18.925-18.924-28.447-44.636-26.509-71.156
			c-16.571-2.66-39.179,0.676-50.69,3.279c-9.314,2.097-18.911,4.71-28.528,7.77c-0.894,0.277-1.762,0.552-2.645,0.841
			c-6.093,1.984-12.259,4.172-18.334,6.508c-30.127,11.587-58.17,26.826-83.447,45.343l6.345,5.364
			c10.65-5.611,46.416-23.336,73.877-23.734c1.995-0.038,3.885,1.178,4.678,3.053s0.369,4.043-1.07,5.482l-75.47,75.469
			c3.92,5.868,7.932,11.615,11.958,17.129c6.909,9.51,14.193,18.848,21.655,27.764c8.769,10.489,18.042,20.719,27.566,30.407
			c1.175,1.206,2.342,2.388,3.518,3.563c1.175,1.176,2.358,2.343,3.548,3.502c9.706,9.541,19.933,18.812,30.412,27.571
			c8.996,7.53,18.332,14.816,27.75,21.659c5.56,4.046,11.319,8.061,17.165,11.967l75.443-75.442c1.44-1.44,3.608-1.863,5.484-1.069
			c1.875,0.793,3.082,2.645,3.051,4.681c-0.084,5.531-0.88,11.758-2.368,18.51c-0.179,0.799-0.354,1.578-0.545,2.357
			c-0.404,1.694-0.859,3.443-1.385,5.317c-0.278,1.007-0.569,2.021-0.868,3.027c-2.875,9.625-6.888,20.074-11.93,31.066
			c-0.19,0.423-0.396,0.866-0.597,1.3l-0.326,0.706c-0.771,1.651-1.497,3.166-2.185,4.551c-0.278,0.593-0.555,1.156-0.825,1.696
			c-0.432,0.878-0.854,1.715-1.254,2.485c-0.138,0.289-0.283,0.571-0.428,0.839c-0.246,0.491-0.479,0.94-0.703,1.366
			C278.896,366.735,278.79,366.938,278.688,367.133z"/>
		<path style="fill:#333333;" d="M129.333,409.351c-1.306,0-2.584-0.512-3.536-1.464l-15.619-15.618
			c-1.089-1.089-1.615-2.62-1.427-4.148c0.189-1.529,1.072-2.885,2.394-3.677c0.047-0.029,5.009-3.017,12.139-8.291
			c4.578-3.375,9.063-6.957,13.339-10.651c4.397-3.825,8.541-7.733,12.304-11.604c4.061-4.187,7.785-8.453,11.066-12.676
			c2.235-2.876,4.298-5.768,6.132-8.595l8.391,5.441c-1.988,3.065-4.218,6.191-6.626,9.29c-3.504,4.51-7.47,9.054-11.788,13.505
			c-3.96,4.075-8.309,8.176-12.927,12.194c-4.482,3.874-9.172,7.618-13.95,11.14c-2.945,2.179-5.529,3.981-7.599,5.377l9.062,9.061
			c3.742-1.311,7.592-2.934,11.484-4.839c4.897-2.391,9.975-5.286,15.096-8.609c4.607-3.002,9.282-6.367,13.887-9.995
			c4.401-3.47,8.757-7.184,12.947-11.038c4.7-4.307,8.365-8.025,10.613-10.387l7.277,6.859l-0.007,0.008
			c-2.381,2.502-6.218,6.395-11.12,10.887c-4.369,4.018-8.92,7.898-13.52,11.525c-4.84,3.813-9.761,7.354-14.626,10.524
			c-5.469,3.548-10.901,6.644-16.155,9.208c-5.336,2.613-10.634,4.749-15.741,6.345
			C130.333,409.277,129.831,409.351,129.333,409.351z"/>
		<path style="fill:#333333;" d="M45.434,345.428c-1.313,0-2.588-0.518-3.536-1.464L5.092,307.157
			c-1.596-1.596-1.925-4.063-0.803-6.021c1.121-1.958,3.416-2.922,5.6-2.353l27.018,7.042l-2.522,9.677l-9.204-2.399l18.488,18.487
			l2.972-7.213l9.246,3.81l-5.829,14.146c-0.637,1.546-2.004,2.671-3.643,2.998C46.088,345.396,45.759,345.428,45.434,345.428z"/>
		<path style="fill:#333333;" d="M136.376,436.369c-1.294,0-2.574-0.501-3.537-1.464l-36.807-36.807
			c-1.182-1.182-1.695-2.876-1.367-4.516c0.327-1.639,1.452-3.006,2.998-3.643l14.146-5.829l3.81,9.246l-7.213,2.972l18.487,18.488
			l-2.399-9.204l9.677-2.522l7.042,27.018c0.569,2.184-0.395,4.478-2.353,5.6C138.083,436.152,137.227,436.369,136.376,436.369z"/>
		<path style="fill:#333333;" d="M92.164,279.583l-23.538-23.539l3.422-3.422l3.526-3.769c0.039,0.037,0.085,0.081,0.124,0.119
			l23.538,23.539L92.164,279.583z"/>
		<polygon style="fill:#333333;" points="183.959,371.378 160.413,347.832 167.485,340.761 191.023,364.299 		"/>
		<polygon style="fill:#333333;" points="79.086,291.028 57.341,269.282 64.405,262.203 86.15,283.948 		"/>
		<path style="fill:#333333;" d="M162.2,372.071c-1.28,0-2.559-0.488-3.536-1.464l-9.675-9.676
			c-1.915-1.899-1.985-4.993-0.129-6.972c1.889-2.015,5.049-2.121,7.063-0.231c0.039,0.037,0.085,0.082,0.124,0.119l9.688,9.689
			c1.953,1.953,1.953,5.119,0,7.071C164.759,371.582,163.48,372.071,162.2,372.071z"/>
		<path style="fill:#333333;" d="M70.714,305.11c-1.278,0-2.555-0.487-3.53-1.462L55.99,292.453c-1.953-1.953-1.953-5.119,0-7.071
			c1.954-1.952,5.119-1.952,7.071,0l11.187,11.188c1.953,1.953,1.956,5.122,0.003,7.075C73.274,304.621,71.993,305.11,70.714,305.11
			z"/>
		<path style="fill:#333333;" d="M156.453,392.917l-20.097-20.097c-0.038-0.038-0.075-0.077-0.112-0.116l3.769-3.542l3.414-3.414
			l20.097,20.097L156.453,392.917z"/>
		
			<rect x="37.957" y="299.677" transform="matrix(-0.7071 -0.7071 0.7071 -0.7071 -128.7776 556.0127)" style="fill:#333333;" width="25.616" height="10"/>
		
			<rect x="122.507" y="384.226" transform="matrix(-0.7071 -0.7071 0.7071 -0.7071 -44.2258 760.1327)" style="fill:#333333;" width="25.617" height="10"/>
		<path style="fill:#333333;" d="M165.803,128.571c-1.28,0-2.559-0.488-3.536-1.464l-17.633-17.633l7.071-7.071l14.097,14.097
			l7.281-7.281l-7.2-7.2l7.071-7.071l10.735,10.735c0.938,0.938,1.464,2.209,1.464,3.536s-0.527,2.598-1.464,3.536l-14.352,14.352
			C168.362,128.083,167.083,128.571,165.803,128.571z"/>
		<path style="fill:#333333;" d="M329.462,303.575c-2.908-1.113-5.493-2.789-7.684-4.979c-8.555-8.555-8.551-22.478,0.008-31.037
			c5.903-5.902,14.494-7.936,22.421-5.308l-3.147,9.492c-4.314-1.43-8.991-0.324-12.203,2.887c-4.66,4.66-4.663,12.239-0.007,16.895
			c1.191,1.191,2.6,2.104,4.188,2.711L329.462,303.575z"/>
		<path style="fill:#FFFFFF;" d="M232.343,231.081c-0.64,0-1.28-0.244-1.768-0.732c-0.977-0.976-0.977-2.559,0-3.535l16.221-16.221
			c0.976-0.977,2.56-0.977,3.535,0c0.977,0.976,0.977,2.559,0,3.535l-16.221,16.221
			C233.623,230.837,232.983,231.081,232.343,231.081z"/>
		<path style="fill:#333333;" d="M297.442,298.203c-1.28,0-2.559-0.488-3.536-1.464l-9.324-9.324c-1.953-1.953-1.953-5.119,0-7.071
			c1.954-1.952,5.119-1.952,7.071,0l9.324,9.324c1.953,1.953,1.953,5.119,0,7.071C300.001,297.715,298.721,298.203,297.442,298.203z
			"/>
		<path style="fill:#333333;" d="M277.646,278.407c-1.28,0-2.559-0.488-3.536-1.464l-17.758-17.758
			c-1.953-1.953-1.953-5.119,0-7.071s5.118-1.952,7.071,0l17.758,17.758c1.953,1.953,1.953,5.119,0,7.071
			C280.205,277.919,278.926,278.407,277.646,278.407z"/>
		<path style="fill:#333333;" d="M182.826,183.587c-1.28,0-2.559-0.488-3.536-1.464l-36.021-36.021
			c-1.953-1.953-1.953-5.119,0-7.071s5.118-1.952,7.071,0l36.021,36.021c1.953,1.953,1.953,5.119,0,7.071
			C185.385,183.098,184.106,183.587,182.826,183.587z"/>
		<path style="fill:#158ACC;" d="M279.42,212.36l-47.077,47.076l-51.784-51.784l47.076-47.076L279.42,212.36z"/>
		<path style="fill:#DD582A;" d="M256.21,218.449l-17.778,17.778c-3.365,3.365-8.813,3.365-12.177,0l-22.485-22.485
			c-3.365-3.365-3.365-8.813,0-12.177l17.778-17.778c3.365-3.365,8.813-3.365,12.177,0l22.485,22.485
			C259.575,209.636,259.575,215.084,256.21,218.449z"/>
		<path style="fill:#F73E3E;" d="M249.688,216.349l-13.356,13.356c-2.528,2.528-6.621,2.528-9.149,0l-16.893-16.893
			c-2.528-2.528-2.528-6.621,0-9.149l13.356-13.356c2.528-2.528,6.621-2.528,9.149,0l16.893,16.893
			C252.216,209.728,252.216,213.821,249.688,216.349z"/>
		<path style="fill:#333333;" d="M232.343,264.437c-1.28,0-2.559-0.488-3.536-1.464l-51.784-51.784
			c-1.953-1.953-1.953-5.119,0-7.071l25.341-25.341c1.953-1.952,5.118-1.952,7.071,0c1.953,1.953,1.953,5.119,0,7.071
			l-21.806,21.806l44.713,44.713l40.005-40.005l-44.713-44.713l-6.374,6.374c-1.953,1.952-5.118,1.952-7.071,0
			c-1.953-1.953-1.953-5.119,0-7.071l9.909-9.909c1.953-1.952,5.118-1.952,7.071,0l51.784,51.784c1.953,1.953,1.953,5.119,0,7.071
			l-47.077,47.077C234.903,263.948,233.623,264.437,232.343,264.437z"/>
		<path style="fill:#333333;" d="M231.898,238.304c-3.068,0-6.136-1.168-8.472-3.503l-18.23-18.23
			c-2.264-2.264-3.511-5.272-3.511-8.472s1.247-6.208,3.511-8.472l14.413-14.414c4.672-4.671,12.272-4.671,16.944,0l18.23,18.23
			c4.671,4.671,4.671,12.273,0,16.944l-14.414,14.414C238.034,237.136,234.967,238.304,231.898,238.304z M228.081,191.704
			c-0.507,0-1.015,0.193-1.401,0.58l-14.414,14.414l0,0c-0.506,0.506-0.582,1.095-0.582,1.401s0.076,0.895,0.582,1.401l18.231,18.23
			c0.772,0.772,2.029,0.772,2.802,0l14.414-14.414c0.772-0.772,0.772-2.029,0-2.802l-18.23-18.23
			C229.096,191.897,228.589,191.704,228.081,191.704z"/>
		<path style="fill:#333333;" d="M229.386,139.198c-0.111,0-0.223-0.003-0.335-0.011c-2.755-0.183-4.841-2.564-4.659-5.319
			l3.169-47.91c0.182-2.755,2.557-4.843,5.319-4.659c2.755,0.182,4.841,2.564,4.659,5.319l-3.169,47.91
			C234.196,137.171,231.997,139.198,229.386,139.198z"/>
		<path style="fill:#333333;" d="M227.641,165.573c-0.111,0-0.223-0.003-0.335-0.011c-2.755-0.183-4.841-2.564-4.659-5.319
			l0.458-6.933c0.182-2.755,2.564-4.842,5.319-4.659s4.841,2.564,4.659,5.319l-0.458,6.933
			C232.451,163.546,230.252,165.573,227.641,165.573z"/>
		<path style="fill:#333333;" d="M68.439,225.929c-2.499,0-4.658-1.87-4.959-4.413c-0.325-2.742,1.635-5.229,4.377-5.553
			l71.414-8.457c2.734-0.324,5.228,1.635,5.553,4.377s-1.635,5.229-4.377,5.553l-71.414,8.457
			C68.834,225.917,68.635,225.929,68.439,225.929z"/>
		<path style="fill:#333333;" d="M160.019,215.085c-2.499,0-4.658-1.87-4.959-4.413c-0.325-2.742,1.635-5.229,4.377-5.553
			l20.534-2.432c2.739-0.321,5.228,1.635,5.553,4.377s-1.635,5.229-4.377,5.553l-20.534,2.432
			C160.413,215.073,160.215,215.085,160.019,215.085z"/>
		<path style="fill:#333333;" d="M279.416,217.357c-2.611,0-4.809-2.027-4.984-4.67c-0.182-2.755,1.904-5.137,4.659-5.319
			l43.509-2.88c2.759-0.18,5.137,1.904,5.319,4.659c0.182,2.755-1.904,5.137-4.659,5.319l-43.509,2.88
			C279.638,217.353,279.527,217.357,279.416,217.357z"/>
		<path style="fill:#333333;" d="M339.282,213.394c-2.611,0-4.809-2.027-4.984-4.67c-0.182-2.755,1.904-5.137,4.659-5.319
			l14.243-0.943c2.756-0.175,5.137,1.904,5.319,4.659c0.182,2.755-1.904,5.137-4.659,5.319l-14.243,0.943
			C339.505,213.39,339.393,213.394,339.282,213.394z"/>
		<path style="fill:#333333;" d="M219.074,376.551c-0.196,0-0.395-0.012-0.594-0.035c-2.742-0.325-4.702-2.811-4.377-5.553
			l4.323-36.508c0.325-2.742,2.811-4.701,5.553-4.377c2.742,0.325,4.702,2.811,4.377,5.553l-4.323,36.508
			C223.732,374.681,221.572,376.551,219.074,376.551z"/>
		<path style="fill:#333333;" d="M225.55,321.865c-0.196,0-0.395-0.012-0.594-0.035c-2.742-0.325-4.702-2.811-4.377-5.553
			l6.8-57.428c0.325-2.742,2.807-4.701,5.553-4.377c2.742,0.325,4.702,2.811,4.377,5.553l-6.8,57.428
			C230.207,319.995,228.048,321.865,225.55,321.865z"/>
	</g>
	<g>
		<path style="fill:#FCBC1D;" d="M404.696,307.594c-2.761,0-5-2.239-5-5V281.16c0-2.761,2.239-5,5-5s5,2.239,5,5v21.433
			C409.696,305.355,407.457,307.594,404.696,307.594z"/>
		<path style="fill:#FCBC1D;" d="M415.412,296.877h-21.434c-2.761,0-5-2.239-5-5s2.239-5,5-5h21.434c2.761,0,5,2.239,5,5
			S418.174,296.877,415.412,296.877z"/>
	</g>
	<g>
		<path style="fill:#FCBC1D;" d="M128.696,31.433c-2.761,0-5-2.239-5-5V5c0-2.761,2.239-5,5-5s5,2.239,5,5v21.433
			C133.696,29.195,131.457,31.433,128.696,31.433z"/>
		<path style="fill:#FCBC1D;" d="M139.412,20.717h-21.434c-2.761,0-5-2.239-5-5s2.239-5,5-5h21.434c2.761,0,5,2.239,5,5
			S142.174,20.717,139.412,20.717z"/>
	</g>
</g>
<g>
</g>
<g>
</g>
<g>
</g>
<g>
</g>
<g>
</g>
<g>
</g>
<g>
</g>
<g>
</g>
<g>
</g>
<g>
</g>
<g>
</g>
<g>
</g>
<g>
</g>
<g>
</g>
<g>
</g>
</svg>
