<?xml version="1.0" encoding="iso-8859-1"?>
<!-- Generator: Adobe Illustrator 19.0.0, SVG Export Plug-In . SVG Version: 6.00 Build 0)  -->
<svg version="1.1" id="Layer_1" xmlns="http://www.w3.org/2000/svg" xmlns:xlink="http://www.w3.org/1999/xlink" x="0px" y="0px"
	 viewBox="0 0 468.622 468.622" style="enable-background:new 0 0 468.622 468.622;" xml:space="preserve">
<g>
	<path style="fill:#F9763D;" d="M77.078,325.924v8.33c0,4.569,3.697,8.266,8.256,8.266l9.414-18.083L77.078,325.924z"/>
	<path style="fill:#7FC8E5;" d="M339.48,88.395c9.573,6.067,15.937,16.755,15.937,28.9v12.176v81.833h-0.011
		c-0.999-1.976-1.997-3.889-2.986-5.737c-4.611-8.702-9.052-16.192-12.941-22.365v-65.906c0-10.072-8.192-18.264-18.264-18.264
		h-11.06V83.093h11.06C327.931,83.093,334.189,85.037,339.48,88.395z"/>
	<path style="fill:#6CBBD3;" d="M355.417,74.263v43.031c0-12.144-6.364-22.833-15.937-28.9V74.263
		c0-10.072-8.192-18.264-18.264-18.264h-11.06V40.062h11.06C340.075,40.062,355.417,55.404,355.417,74.263z"/>
	<polygon style="fill:#F9763D;" points="323.256,463.622 272.001,463.622 277.792,449.714 299.541,449.714 	"/>
	<path style="fill:#158ACC;" d="M314.766,368.848c0.085,3.421,0.117,8.617-0.159,14.949h-32.778h-0.011
		c-0.446-3.559-1.031-7.129-1.785-10.667C291.647,372.099,303.228,370.675,314.766,368.848z"/>
	<path style="fill:#53AEF9;" d="M281.829,383.797h32.778c-0.212,5.079-0.627,10.88-1.36,17.074h-30.27
		c-0.085-5.567-0.436-11.315-1.158-17.074H281.829z"/>
	<path style="fill:#53AEF9;" d="M282.977,400.871h30.27c-0.648,5.461-1.551,11.23-2.784,17.074h-27.986
		C282.849,412.601,283.062,406.842,282.977,400.871z"/>
	<path style="fill:#53AEF9;" d="M282.478,417.945h27.986c-1.211,5.684-2.741,11.454-4.675,17.074h-25.223
		C281.298,430.175,282.01,424.363,282.478,417.945z"/>
	<path style="fill:#44A1E0;" d="M299.148,141.381c-3.719-1.764-7.607-3.219-11.666-4.324h-0.011
		c-1.286,28.241-24.586,50.744-53.156,50.744c-28.56,0-51.86-22.503-53.146-50.744c-4.048,1.105-7.958,2.561-11.698,4.335
		l-40.034,113.983v109.022c8.107,1.679,16.245,3.166,24.416,4.441c11.539,1.827,23.12,3.262,34.733,4.292
		c15.215,1.36,30.472,2.029,45.729,2.029s30.515-0.669,45.719-2.029c11.613-1.031,23.194-2.454,34.733-4.282
		c8.16-1.286,16.299-2.773,24.416-4.452c0.011,0,0.011,0,0.021,0V255.375L299.148,141.381z M198.254,277.092v-65.555h72.111v65.555
		H198.254z"/>
	<path style="fill:#53AEF9;" d="M290.709,141.381c-3.235-1.764-6.617-3.219-10.147-4.324h-0.009
		c-1.118,28.241-21.385,50.744-46.236,50.744c-24.842,0-45.109-22.503-46.227-50.744c-3.521,1.105-6.922,2.561-10.175,4.335
		l-34.823,113.983v109.022c7.051,1.679,14.131,3.166,21.238,4.441c10.036,1.827,20.11,3.262,30.211,4.292
		c13.234,1.36,26.505,2.029,39.776,2.029s26.542-0.669,39.767-2.029c10.101-1.031,20.175-2.454,30.211-4.282
		c7.098-1.286,14.177-2.773,21.238-4.452c0.009,0,0.009,0,0.018,0V255.375L290.709,141.381z M202.949,277.092v-65.555h62.724v65.555
		H202.949z"/>
	<path style="fill:#44A1E0;" d="M391.542,325.924l-9.414-0.797l-8.255-0.691c0,0-13.377-47.196-34.669-69.125v22.28h-0.021
		c-11.007,0-19.964-8.957-19.964-19.964V155.756c2.167,2.199,4.176,4.558,6.003,7.034c0,0,5.897,7.172,14.259,20.41
		c3.889,6.173,8.33,13.664,12.941,22.365c-5.461,2.741-9.201,8.394-9.201,14.907c0,9.212,7.469,16.692,16.681,16.692
		c2.422,0,4.739-0.531,6.811-1.456C377.209,260.655,386.835,291.17,391.542,325.924z"/>
	<path style="fill:#0B7FB2;" d="M310.155,131.128v0.011c-0.319-0.042-0.648-0.053-0.977-0.053c-5.536,0-10.03,4.494-10.03,10.04
		v0.255c-3.719-1.764-7.607-3.219-11.666-4.324H181.17c-4.048,1.105-7.958,2.561-11.698,4.335v-0.266
		c0-5.546-4.494-10.04-10.03-10.04c-0.329,0-0.648,0.011-0.967,0.042V99.03V83.093V55.999V40.062V25.485
		C158.475,14.222,167.687,5,178.949,5h110.743c11.294,0,20.463,9.169,20.463,20.474v14.588v15.937v27.093V99.03V131.128z"/>
	<path style="fill:#158ACC;" d="M297.325,131.759v0.011c-0.267-0.045-0.543-0.059-0.819-0.061c-4.641-0.046-8.454,4.41-8.51,9.956
		l-0.003,0.255c-3.1-1.795-6.346-3.283-9.738-4.422l-89.137-0.889c-3.405,1.071-6.698,2.494-9.851,4.237l0.003-0.266
		c0.055-5.546-3.668-10.078-8.309-10.124c-0.276-0.003-0.544,0.005-0.811,0.034l0.32-32.096l0.159-15.936l0.27-27.092l0.159-15.936
		l0.145-14.577c0.112-11.262,7.928-20.407,17.371-20.312l92.852,0.926c9.47,0.094,17.066,9.34,16.953,20.644l-0.146,14.587
		l-0.159,15.936l-0.27,27.092l-0.159,15.936L297.325,131.759z"/>
	<path style="fill:#53AEF9;" d="M280.565,435.02h25.223c-1.732,5.057-3.793,10.009-6.247,14.694h-21.749
		C277.792,449.714,279.216,444.04,280.565,435.02z"/>
	<path style="fill:#44A1E0;" d="M287.482,81.318v55.738h-0.011c-1.286,28.241-24.586,50.744-53.156,50.744
		c-28.56,0-51.86-22.503-53.145-50.744V81.318c0-14.684,5.95-27.965,15.565-37.591c9.615-9.615,22.907-15.565,37.591-15.565
		C263.682,28.162,287.482,51.962,287.482,81.318z"/>
	<path style="fill:#53AEF9;" d="M276.733,84.909v48.232h-0.008c-1.026,24.438-19.614,43.911-42.407,43.911
		c-22.785,0-41.373-19.473-42.399-43.911V84.909c0-12.706,4.747-24.199,12.418-32.528c7.671-8.321,18.275-13.469,29.99-13.469
		C257.746,38.911,276.733,59.506,276.733,84.909z"/>
	<path style="fill:#D8B86F;" d="M275.55,103.832v17.138c0,20.293-16.458,36.751-36.751,36.751h-8.957
		c-20.293,0-36.751-16.458-36.751-36.751v-17.138c0-20.293,16.458-36.751,36.751-36.751h8.957
		C259.092,67.081,275.55,83.539,275.55,103.832z M263.682,140.669c0-4.452-3.612-8.064-8.064-8.064
		c-4.462,0-8.075,3.612-8.075,8.064c0,4.462,3.612,8.075,8.075,8.075C260.07,148.744,263.682,145.131,263.682,140.669z"/>
	<path style="fill:#44A1E0;" d="M339.182,289.183v20.07c-22.078,0-40.034-17.956-40.034-40.034v-92.372v-23.874v-0.255
		c0-5.546,4.494-10.04,10.03-10.04c0.329,0,0.659,0.011,0.977,0.053c5.089,0.478,9.063,4.771,9.063,9.987v14.63v101.871
		C319.218,280.226,328.175,289.183,339.182,289.183z"/>
	<path style="fill:#44A1E0;" d="M169.472,176.846v92.372c0,22.078-17.956,40.034-40.034,40.034v-20.07
		c11.007,0,19.964-8.957,19.964-19.964v-101.86v-14.641c0-5.217,3.984-9.509,9.074-9.998c0.319-0.032,0.637-0.042,0.967-0.042
		c5.536,0,10.03,4.494,10.03,10.04v0.266v23.863H169.472z"/>
	<path style="fill:#F7D789;" d="M262.45,103.832v17.138c0,20.293-11.229,36.751-25.074,36.751h-6.111
		c-13.845,0-25.074-16.458-25.074-36.751v-17.138c0-20.293,11.229-36.751,25.074-36.751h6.111
		C251.221,67.081,262.45,83.539,262.45,103.832z"/>
	<path style="fill:#158ACC;" d="M270.365,211.536v65.555h-72.111v-65.555L270.365,211.536L270.365,211.536z"/>
	<path style="fill:#158ACC;" d="M339.182,277.591v20.07c-22.078,0-40.034-17.956-40.034-40.034v-92.372v-23.874v-0.255
		c0-5.546,4.494-10.04,10.03-10.04c0.329,0,0.659,0.011,0.977,0.053c5.089,0.478,9.063,4.771,9.063,9.987v14.63v101.871
		C319.218,268.634,328.175,277.591,339.182,277.591z"/>
	<path style="fill:#F9763D;" d="M255.618,132.605c4.452,0,8.064,3.612,8.064,8.064c0,4.462-3.612,8.075-8.064,8.075
		c-4.462,0-8.075-3.612-8.075-8.075C247.543,136.217,251.156,132.605,255.618,132.605z"/>
	<path style="fill:#F73E3E;" d="M252.442,237.85v12.929c0,5.084-4.121,9.205-9.205,9.205h-17.854c-5.084,0-9.205-4.121-9.205-9.205
		V237.85c0-5.084,4.121-9.205,9.205-9.205h17.854C248.321,228.645,252.442,232.766,252.442,237.85z"/>
	<polygon style="fill:#F9763D;" points="190.828,449.714 196.618,463.622 145.364,463.622 169.079,449.714 	"/>
	<path style="fill:#53AEF9;" d="M190.828,449.714h-21.749c-2.454-4.686-4.516-9.637-6.247-14.694h25.223
		C189.404,444.04,190.828,449.714,190.828,449.714z"/>
	<path style="fill:#158ACC;" d="M153.853,368.837c11.539,1.827,23.12,3.262,34.733,4.292c-0.754,3.538-1.339,7.108-1.785,10.667
		h-0.011h-32.778C153.736,377.465,153.768,372.259,153.853,368.837z"/>
	<path style="fill:#53AEF9;" d="M188.055,435.02h-25.223c-1.934-5.621-3.464-11.39-4.675-17.074h27.986
		C186.61,424.363,187.321,430.175,188.055,435.02z"/>
	<path style="fill:#53AEF9;" d="M186.79,383.797h0.011c-0.722,5.759-1.073,11.507-1.158,17.074h-30.27
		c-0.733-6.194-1.147-11.995-1.36-17.074H186.79z"/>
	<path style="fill:#53AEF9;" d="M186.142,417.945h-27.986c-1.232-5.844-2.136-11.613-2.784-17.074h30.27
		C185.558,406.842,185.77,412.601,186.142,417.945z"/>
	<path style="fill:#158ACC;" d="M169.472,165.255v92.372c0,22.078-17.956,40.034-40.034,40.034v-20.07
		c11.007,0,19.964-8.957,19.964-19.964v-101.86v-14.641c0-5.217,3.984-9.509,9.074-9.998c0.319-0.032,0.637-0.042,0.967-0.042
		c5.536,0,10.03,4.494,10.03,10.04v0.266v23.863H169.472z"/>
	<path style="fill:#7FC8E5;" d="M129.15,88.395c5.291-3.357,11.549-5.302,18.264-5.302h11.06V99.03h-11.06
		c-10.072,0-18.264,8.192-18.264,18.264V183.2c-4.388,6.938-9.435,15.534-14.662,25.638c-0.425,0.807-0.85,1.626-1.275,2.465V129.47
		v-12.176C113.213,105.15,119.577,94.461,129.15,88.395z"/>
	<path style="fill:#6CBBD3;" d="M158.475,40.062v15.937h-11.06c-10.072,0-18.264,8.192-18.264,18.264v14.131
		c-9.573,6.067-15.937,16.755-15.937,28.9V74.263c0-18.859,15.342-34.201,34.201-34.201H158.475z"/>
	<path style="fill:#53AEF9;" d="M319.218,168.538v89.089c0,7.214,3.857,13.557,9.605,17.053l10.359-19.401c3.708,3.814,0,0,0,0
		c21.303,21.93,34.69,69.157,34.69,69.157l7.182,0.606c-5.206-37.654-16.139-70.294-27.667-96.219h-0.011l-9.605-19.985
		c-5.227-10.104-10.274-18.7-14.662-25.638C325.136,176.889,321.715,171.97,319.218,168.538z"/>
	<path style="fill:#44A1E0;" d="M149.401,155.767v101.86c0,7.214-3.857,13.557-9.605,17.053c-3.028,1.849-6.566,2.911-10.359,2.911
		v-22.312c-21.303,21.93-34.69,69.157-34.69,69.157l-7.182,0.606l-1.073,0.085l-9.414,0.797c5.164-38.026,16.182-70.974,27.795-97.1
		h0.011l9.605-19.985c5.227-10.104,10.274-18.7,14.662-25.638c8.351-13.228,14.248-20.41,14.248-20.41
		C145.258,160.303,147.244,157.966,149.401,155.767z"/>
	<path style="fill:#53AEF9;" d="M149.401,168.538v89.089c0,7.214-3.857,13.557-9.605,17.053l-10.359-19.401c-3.708,3.814,0,0,0,0
		c-21.303,21.93-34.69,69.157-34.69,69.157l-7.182,0.606c5.206-37.654,16.139-70.294,27.667-96.219h0.011l9.605-19.985
		c5.227-10.104,10.274-18.7,14.662-25.638C143.483,176.889,146.905,171.97,149.401,168.538z"/>
	<path style="fill:#F9E33D;" d="M129.437,208.838v19.985h-24.554h-0.011c2.773-6.237,5.578-12.091,8.341-17.52
		c0.425-0.839,0.85-1.657,1.275-2.465H129.437z"/>
	<path style="fill:#333333;" d="M234.315,192.801c-29.005,0-53.125-21.095-57.496-49.093c-1.766,0.659-3.504,1.394-5.204,2.201
		l-4.287-9.034c4.025-1.91,8.239-3.472,12.524-4.642c1.466-0.399,3.032-0.113,4.26,0.782c1.228,0.894,1.982,2.297,2.051,3.814
		c1.174,25.779,22.324,45.972,48.151,45.972c25.833,0,46.988-20.193,48.162-45.972c0.122-2.67,2.322-4.772,4.995-4.772
		c0.444,0,0.896,0.059,1.324,0.176c4.255,1.158,8.459,2.717,12.496,4.631l-4.286,9.035c-1.698-0.806-3.43-1.539-5.183-2.194
		C287.451,171.703,263.326,192.801,234.315,192.801z"/>
	<path style="fill:#F9E33D;" d="M366.711,235.708c-2.072,0.924-4.388,1.456-6.811,1.456c-9.212,0-16.681-7.48-16.681-16.692
		c0-6.513,3.74-12.165,9.201-14.907c0.988,1.849,1.987,3.761,2.986,5.737C359.168,218.698,363.003,226.847,366.711,235.708z"/>
	<path style="fill:#333333;" d="M292.482,137.056h-10V81.318c0-26.553-21.603-48.156-48.156-48.156
		c-12.868,0-24.962,5.008-34.055,14.101c-9.093,9.103-14.101,21.198-14.101,34.055v55.738h-10V81.318
		c0-15.526,6.047-30.131,17.028-41.124c10.984-10.984,25.59-17.032,41.128-17.032c32.067,0,58.156,26.089,58.156,58.156V137.056z"/>
	<path style="fill:#333333;" d="M238.799,162.722h-8.957c-23.022,0-41.751-18.729-41.751-41.751v-17.138
		c0-23.022,18.729-41.751,41.751-41.751h8.957c23.022,0,41.751,18.73,41.751,41.751v17.138
		C280.55,143.992,261.821,162.722,238.799,162.722z M229.842,72.081c-17.508,0-31.751,14.244-31.751,31.751v17.138
		c0,17.508,14.244,31.751,31.751,31.751h8.957c17.508,0,31.751-14.244,31.751-31.751v-17.138c0-17.508-14.244-31.751-31.751-31.751
		C238.799,72.081,229.842,72.081,229.842,72.081z"/>
	<path style="fill:#333333;" d="M190.828,454.714h-21.749c-1.86,0-3.566-1.032-4.429-2.68c-2.447-4.671-4.65-9.851-6.549-15.395
		c-1.87-5.436-3.498-11.377-4.834-17.652c-1.183-5.608-2.144-11.501-2.859-17.527c-0.677-5.722-1.145-11.594-1.39-17.454
		c-0.286-6.543-0.246-11.929-0.163-15.293l9.997,0.248c-0.08,3.208-0.117,8.348,0.156,14.618c0.235,5.617,0.683,11.233,1.33,16.704
		c0.68,5.729,1.592,11.324,2.711,16.63c1.251,5.87,2.769,11.418,4.51,16.479c1.377,4.022,2.921,7.817,4.604,11.321h12.477
		c-0.465-2.401-1.003-5.427-1.531-8.955c-0.874-5.772-1.532-11.646-1.955-17.451c-0.42-6.03-0.592-11.916-0.512-17.509
		c0.093-6.113,0.496-12.042,1.197-17.625c0.481-3.836,1.105-7.567,1.856-11.087l4.865,1.037l5.025-0.005
		c0,0.351-0.037,0.71-0.11,1.053c-0.691,3.244-1.268,6.691-1.714,10.247c-0.655,5.223-1.032,10.784-1.12,16.528
		c-0.076,5.31,0.088,10.914,0.488,16.651c0.403,5.532,1.032,11.147,1.869,16.673c1.292,8.641,2.666,14.173,2.679,14.228
		c0.374,1.494,0.038,3.077-0.909,4.291C193.821,454.003,192.367,454.714,190.828,454.714z"/>
	<path style="fill:#333333;" d="M223.446,120.87c-2.761,0-5-2.239-5-5V95.237c0-2.761,2.239-5,5-5s5,2.239,5,5v20.634
		C228.446,118.632,226.207,120.87,223.446,120.87z"/>
	<path style="fill:#333333;" d="M245.195,120.87c-2.761,0-5-2.239-5-5V95.237c0-2.761,2.239-5,5-5s5,2.239,5,5v20.634
		C250.195,118.632,247.956,120.87,245.195,120.87z"/>
	<rect x="305.155" y="99.03" style="fill:#333333;" width="10" height="32.097"/>
	<rect x="305.155" y="55.999" style="fill:#333333;" width="10" height="27.094"/>
	<path style="fill:#333333;" d="M315.155,40.062h-10V25.474c0-8.532-6.937-15.474-15.463-15.474H178.949
		c-8.532,0-15.474,6.947-15.474,15.485v14.577h-10V25.485C153.475,11.432,164.903,0,178.949,0h110.743
		c14.041,0,25.463,11.428,25.463,25.474V40.062z"/>
	<rect x="153.475" y="55.999" style="fill:#333333;" width="10" height="27.094"/>
	<rect x="153.475" y="99.03" style="fill:#333333;" width="10" height="32.097"/>
	<path style="fill:#333333;" d="M129.437,302.662v-10c19.318,0,35.035-15.716,35.035-35.035V141.125c0-2.779-2.256-5.041-5.03-5.041
		c-0.161,0-0.316,0.002-0.472,0.018c-2.569,0.247-4.569,2.452-4.569,5.022v116.501c0,13.766-11.199,24.964-24.964,24.964v-10
		c8.251,0,14.964-6.713,14.964-14.964v-116.5c0-7.793,5.845-14.231,13.596-14.975c0.436-0.043,0.915-0.065,1.445-0.065
		c8.288,0,15.03,6.747,15.03,15.041v116.501C174.472,282.459,154.269,302.662,129.437,302.662z"/>
	<path style="fill:#333333;" d="M255.618,153.744c-7.209,0-13.075-5.865-13.075-13.075c0-7.204,5.866-13.064,13.075-13.064
		c7.204,0,13.064,5.861,13.064,13.064C268.682,147.878,262.822,153.744,255.618,153.744z M255.618,137.604
		c-1.696,0-3.075,1.375-3.075,3.064c0,1.695,1.379,3.075,3.075,3.075c1.689,0,3.064-1.379,3.064-3.075
		C258.682,138.979,257.308,137.604,255.618,137.604z"/>
	<path style="fill:#333333;" d="M85.334,347.52c-7.309,0-13.255-5.951-13.255-13.266v-8.33c0-2.599,1.991-4.764,4.581-4.982
		l17.669-1.487c2.744-0.228,5.17,1.811,5.402,4.563c0.231,2.752-1.812,5.17-4.563,5.402l-13.088,1.102v3.733
		c0,1.801,1.46,3.266,3.255,3.266c2.761,0,5,2.239,5,5S88.095,347.52,85.334,347.52z"/>
	<path style="fill:#F9763D;" d="M391.542,325.924v8.33c0,4.569-3.697,8.266-8.255,8.266l-9.414-18.083L391.542,325.924z"/>
	<path style="fill:#333333;" d="M383.286,347.52c-2.761,0-5-2.239-5-5s2.239-5,5-5c1.795,0,3.255-1.465,3.255-3.266v-3.733
		l-13.088-1.102c-2.752-0.232-4.794-2.65-4.563-5.402c0.232-2.752,2.666-4.797,5.402-4.563l17.669,1.488
		c2.59,0.218,4.581,2.384,4.581,4.982v8.33C396.542,341.568,390.595,347.52,383.286,347.52z"/>
	<path style="fill:#333333;" d="M234.315,380.159c-15.426,0-30.961-0.689-46.174-2.049c-11.63-1.032-23.431-2.49-35.07-4.334
		c-8.059-1.257-16.355-2.767-24.647-4.484c-2.322-0.48-3.986-2.525-3.986-4.896v-94.831c-15.238,22.688-24.769,55.844-24.88,56.235
		c-0.568,2.003-2.318,3.445-4.393,3.618l-17.664,1.488c-1.506,0.127-3-0.437-4.045-1.537c-1.045-1.1-1.535-2.615-1.331-4.118
		c4.548-33.497,14.03-66.623,28.18-98.458c2.673-6.012,5.517-11.986,8.453-17.757c0.434-0.856,0.871-1.697,1.308-2.527
		c4.678-9.044,9.684-17.796,14.861-25.981c8.011-12.689,13.78-19.89,14.534-20.818c2.001-2.667,4.145-5.171,6.373-7.444l7.14,7.002
		c-1.969,2.008-3.791,4.14-5.569,6.517c-0.045,0.061-0.092,0.12-0.14,0.178c-0.056,0.068-5.831,7.15-13.884,19.907
		c-5.025,7.946-9.886,16.445-14.449,25.266c-0.43,0.817-0.843,1.612-1.256,2.427c-2.861,5.624-5.629,11.439-8.231,17.292
		c-12.894,29.008-21.8,59.104-26.51,89.556l8.004-0.673c3.532-11.387,16.089-48.562,34.915-67.942
		c1.418-1.46,3.581-1.914,5.466-1.149c1.886,0.766,3.12,2.598,3.12,4.633v105.03c6.798,1.352,13.571,2.556,20.187,3.588
		c11.426,1.81,22.997,3.24,34.404,4.252c14.921,1.333,30.157,2.01,45.287,2.01c15.133,0,30.366-0.676,45.273-2.009
		c11.506-1.021,23.077-2.448,34.396-4.24c6.668-1.051,13.451-2.26,20.219-3.606V255.311c0-2.036,1.234-3.868,3.121-4.633
		c1.888-0.765,4.049-0.31,5.467,1.15c18.815,19.379,31.362,56.527,34.893,67.91l8.006,0.673
		c-4.327-28.009-12.251-55.822-23.587-82.764c-3.367-8.045-7.118-16.143-11.153-24.078c-0.928-1.835-1.915-3.731-2.939-5.646
		c-3.987-7.524-8.278-14.94-12.762-22.058c-8.06-12.761-13.834-19.832-13.892-19.902c-0.054-0.066-0.108-0.136-0.159-0.205
		c-1.697-2.299-3.562-4.484-5.542-6.494l7.123-7.019c2.283,2.317,4.433,4.831,6.39,7.474c0.797,0.981,6.551,8.166,14.538,20.81
		c4.619,7.333,9.036,14.966,13.131,22.694c1.051,1.966,2.074,3.931,3.03,5.823c4.141,8.144,7.997,16.468,11.455,24.731
		c12.508,29.726,20.979,60.506,25.172,91.475c0.204,1.503-0.286,3.018-1.332,4.117s-2.54,1.662-4.045,1.537l-17.664-1.488
		c-2.075-0.173-3.825-1.615-4.393-3.618c-0.111-0.391-9.633-33.517-24.859-56.198v94.793c0,2.492-1.823,4.558-4.208,4.938
		c-8.167,1.686-16.392,3.184-24.451,4.454c-11.54,1.828-23.34,3.282-35.069,4.323C265.276,379.47,249.745,380.159,234.315,380.159z"
		/>
	<path style="fill:#333333;" d="M299.541,454.714h-21.749c-1.541,0-2.995-0.71-3.942-1.925c-0.947-1.214-1.282-2.798-0.907-4.292
		c0.013-0.053,1.387-5.585,2.678-14.217c0.838-5.535,1.467-11.149,1.871-16.698c0.398-5.721,0.563-11.325,0.487-16.64
		c-0.087-5.739-0.464-11.3-1.12-16.522c-0.446-3.557-1.023-7.004-1.714-10.248l9.78-2.085c0.75,3.52,1.375,7.251,1.856,11.088
		c0.701,5.583,1.104,11.511,1.197,17.62c0.08,5.598-0.092,11.483-0.511,17.498c-0.424,5.821-1.082,11.695-1.957,17.476
		c-0.527,3.523-1.064,6.547-1.53,8.946h12.477c1.683-3.504,3.227-7.297,4.602-11.314c1.744-5.068,3.262-10.616,4.515-16.497
		c1.117-5.296,2.029-10.892,2.708-16.621c0.648-5.469,1.095-11.086,1.33-16.694c0.274-6.276,0.236-11.412,0.157-14.616
		c-0.001-0.041-0.001-0.083-0.001-0.124l5.226-0.005l4.773-0.119c0.083,3.361,0.123,8.742-0.163,15.291
		c-0.245,5.851-0.712,11.723-1.39,17.444c-0.715,6.027-1.676,11.92-2.856,17.518c-1.34,6.285-2.967,12.227-4.839,17.669
		c-1.896,5.538-4.1,10.717-6.546,15.388C303.107,453.682,301.401,454.714,299.541,454.714z"/>
	<path style="fill:#333333;" d="M196.618,468.622h-51.254c-2.257,0-4.234-1.512-4.825-3.689s0.349-4.482,2.296-5.624l23.715-13.908
		l5.059,8.626l-7.834,4.595h25.347l-2.908-6.986l9.231-3.844l5.791,13.908c0.643,1.543,0.472,3.305-0.456,4.696
		C199.851,467.786,198.29,468.622,196.618,468.622z"/>
	<path style="fill:#333333;" d="M323.256,468.622h-51.254c-1.671,0-3.232-0.835-4.16-2.226c-0.928-1.391-1.099-3.153-0.456-4.696
		l5.791-13.908l9.231,3.844l-2.908,6.986h25.347l-7.834-4.595l5.059-8.626l23.715,13.908c1.947,1.142,2.887,3.446,2.296,5.624
		S325.513,468.622,323.256,468.622z"/>
	<path style="fill:#333333;" d="M173.084,388.797h-19.071c-2.761,0-5.005-2.239-5.005-5s2.233-5,4.995-5h19.082c2.761,0,5,2.239,5,5
		S175.845,388.797,173.084,388.797z"/>
	<path style="fill:#333333;" d="M314.618,388.797H281.83c-2.761,0-5-2.239-5-5s2.239-5,5-5h32.777c2.761,0,5.005,2.239,5.005,5
		S317.379,388.797,314.618,388.797z"/>
	<path style="fill:#333333;" d="M185.653,405.871h-30.281c-2.761,0-5.005-2.239-5.005-5s2.233-5,4.995-5h30.281
		c2.761,0,5.005,2.239,5.005,5S188.415,405.871,185.653,405.871z"/>
	<path style="fill:#333333;" d="M290.935,405.871h-7.958c-2.761,0-5.005-2.239-5.005-5s2.233-5,4.995-5h7.969c2.761,0,5,2.239,5,5
		S293.696,405.871,290.935,405.871z"/>
	<path style="fill:#333333;" d="M313.258,405.871h-5.769c-2.761,0-5-2.239-5-5s2.239-5,5-5h5.758c2.761,0,5.005,2.239,5.005,5
		S316.019,405.871,313.258,405.871z"/>
	<path style="fill:#333333;" d="M186.153,422.945h-27.997c-2.761,0-5-2.239-5-5s2.239-5,5-5h27.986c2.761,0,5.005,2.239,5.005,5
		S188.914,422.945,186.153,422.945z"/>
	<path style="fill:#333333;" d="M310.463,422.945h-27.986c-2.761,0-5.005-2.239-5.005-5s2.233-5,4.995-5h27.997c2.761,0,5,2.239,5,5
		S313.225,422.945,310.463,422.945z"/>
	<path style="fill:#333333;" d="M176.271,440.02h-13.44c-2.761,0-5-2.239-5-5s2.239-5,5-5h13.44c2.761,0,5,2.239,5,5
		S179.033,440.02,176.271,440.02z"/>
	<path style="fill:#333333;" d="M305.789,440.02h-25.224c-2.761,0-5-2.239-5-5s2.239-5,5-5h25.224c2.761,0,5,2.239,5,5
		S308.55,440.02,305.789,440.02z"/>
	<path style="fill:#333333;" d="M339.183,302.662c-24.832,0-45.035-20.203-45.035-45.035V141.125c0-8.293,6.742-15.041,15.03-15.041
		c0.37,0,0.921,0.009,1.533,0.083c7.707,0.768,13.508,7.183,13.508,14.957v116.501c0,8.251,6.713,14.964,14.964,14.964
		c2.761,0,5,2.239,5,5v20.07C344.183,300.423,341.944,302.662,339.183,302.662z M309.277,136.084c-0.033,0-0.066,0-0.1,0
		c-2.773,0-5.03,2.261-5.03,5.041v116.501c0,17.622,13.076,32.246,30.035,34.679v-10.217c-11.377-2.323-19.964-12.408-19.964-24.461
		V141.125c0-2.613-1.948-4.767-4.531-5.009c-0.064-0.006-0.128-0.013-0.192-0.022C309.424,136.086,309.351,136.084,309.277,136.084z
		"/>
	<path style="fill:#333333;" d="M129.437,233.823h-24.554v-10h19.554v-9.985h-9.949v-10h14.949c2.761,0,5,2.239,5,5v19.985
		C134.437,231.584,132.198,233.823,129.437,233.823z"/>
	<path style="fill:#333333;" d="M359.901,242.164c-11.955,0-21.681-9.731-21.681-21.691c0-8.249,4.582-15.673,11.958-19.375
		l4.486,8.938c-3.975,1.995-6.444,5.995-6.444,10.438c0,6.447,5.24,11.691,11.681,11.691c1.648,0,3.254-0.344,4.773-1.022
		l4.074,9.133C365.938,241.528,362.962,242.164,359.901,242.164z"/>
	<path style="fill:#333333;" d="M270.365,282.092h-72.111c-2.761,0-5-2.239-5-5V243.63c0-2.761,2.239-5,5-5s5,2.239,5,5v28.461
		h62.111v-55.555h-62.111v8.557c0,2.761-2.239,5-5,5s-5-2.239-5-5v-13.557c0-2.761,2.239-5,5-5h72.111c2.761,0,5,2.239,5,5v65.555
		C275.365,279.853,273.126,282.092,270.365,282.092z"/>
	<path style="fill:#333333;" d="M246.789,265.938h-24.958c-6.483,0-11.758-5.274-11.758-11.758v-19.732
		c0-6.483,5.274-11.758,11.758-11.758h24.958c6.483,0,11.758,5.275,11.758,11.758v19.732
		C258.546,260.664,253.272,265.938,246.789,265.938z M221.831,232.69c-0.969,0-1.758,0.789-1.758,1.758v19.732
		c0,0.969,0.789,1.758,1.758,1.758h24.958c0.969,0,1.758-0.789,1.758-1.758v-19.732c0-0.97-0.789-1.758-1.758-1.758H221.831z"/>
	
		<rect x="156.607" y="183.398" transform="matrix(-0.5281 -0.8492 0.8492 -0.5281 120.967 444.0195)" style="fill:#333333;" width="54.503" height="10"/>
	<path style="fill:#333333;" d="M129.434,369.396c-1.083,0-2.175-0.351-3.092-1.073c-2.169-1.709-2.541-4.854-0.832-7.022
		l46.614-59.136c1.709-2.168,4.853-2.541,7.022-0.832s2.541,4.854,0.832,7.022l-46.614,59.136
		C132.377,368.743,130.913,369.396,129.434,369.396z"/>
	<path style="fill:#333333;" d="M187.043,296.311c-1.083,0-2.175-0.351-3.092-1.073c-2.169-1.709-2.541-4.854-0.832-7.022
		l11.208-14.219c1.71-2.168,4.854-2.541,7.022-0.832c2.169,1.709,2.541,4.854,0.832,7.022l-11.208,14.219
		C189.986,295.657,188.522,296.311,187.043,296.311z"/>
	<path style="fill:#333333;" d="M286.814,190.08c-0.901,0-1.813-0.244-2.636-0.754c-2.345-1.458-3.063-4.542-1.605-6.887
		l12.329-19.825c1.459-2.345,4.54-3.063,6.887-1.605c2.345,1.458,3.063,4.542,1.605,6.887l-12.329,19.825
		C290.118,189.243,288.485,190.08,286.814,190.08z"/>
	<path style="fill:#333333;" d="M270.36,216.537c-0.901,0-1.813-0.244-2.636-0.754c-2.345-1.458-3.063-4.542-1.605-6.887
		l6.996-11.249c1.458-2.345,4.541-3.063,6.887-1.605c2.345,1.458,3.063,4.542,1.605,6.887l-6.996,11.249
		C273.664,215.7,272.031,216.537,270.36,216.537z"/>
	<path style="fill:#333333;" d="M339.186,369.396c-1.479,0-2.943-0.653-3.93-1.905l-27.313-34.65
		c-1.709-2.168-1.337-5.313,0.832-7.022c2.168-1.709,5.312-1.338,7.022,0.832l27.313,34.65c1.709,2.168,1.337,5.313-0.832,7.022
		C341.361,369.045,340.27,369.396,339.186,369.396z"/>
	<path style="fill:#333333;" d="M299.761,319.38c-1.479,0-2.943-0.653-3.93-1.905l-29.393-37.289
		c-1.709-2.168-1.337-5.313,0.832-7.022c2.168-1.709,5.312-1.338,7.022,0.832l29.393,37.289c1.709,2.168,1.337,5.313-0.832,7.022
		C301.936,319.03,300.845,319.38,299.761,319.38z"/>
	<path style="fill:#333333;" d="M118.213,117.294h-10V74.263c0-21.616,17.586-39.201,39.202-39.201h11.061c2.761,0,5,2.239,5,5
		v15.937c0,2.761-2.239,5-5,5h-11.061c-7.314,0-13.264,5.95-13.264,13.264v14.131l-10,0.01V74.263
		c0-12.828,10.436-23.264,23.264-23.264h6.061v-5.937h-6.061c-16.102,0-29.202,13.1-29.202,29.201L118.213,117.294L118.213,117.294z
		"/>
	<path style="fill:#333333;" d="M118.213,211.303h-10v-94.009c0-13.494,6.827-25.876,18.261-33.123
		c6.266-3.976,13.508-6.078,20.94-6.078h11.061c2.761,0,5,2.239,5,5V99.03c0,2.761-2.239,5-5,5h-11.061
		c-7.314,0-13.264,5.95-13.264,13.264V183.2h-10v-65.906c0-12.828,10.436-23.264,23.264-23.264h6.061v-5.937h-6.061
		c-5.532,0-10.921,1.564-15.585,4.523c-8.527,5.404-13.616,14.629-13.616,24.678C118.213,117.294,118.213,211.303,118.213,211.303z"
		/>
	<path style="fill:#333333;" d="M360.417,117.294h-10V74.263c0-16.102-13.1-29.201-29.201-29.201h-6.061v5.937h6.061
		c12.828,0,23.264,10.436,23.264,23.264v14.131l-10,0.01V74.263c0-7.314-5.95-13.264-13.264-13.264h-11.061c-2.761,0-5-2.239-5-5
		V40.062c0-2.761,2.239-5,5-5h11.061c21.616,0,39.201,17.586,39.201,39.201V117.294z"/>
	<path style="fill:#333333;" d="M360.417,211.303h-10v-94.009c0-10.049-5.089-19.274-13.613-24.676
		c-4.667-2.961-10.056-4.525-15.588-4.525h-6.061v5.937h6.061c12.828,0,23.264,10.436,23.264,23.264V183.2h-10v-65.906
		c0-7.314-5.95-13.264-13.264-13.264h-11.061c-2.761,0-5-2.239-5-5V83.093c0-2.761,2.239-5,5-5h11.061
		c7.432,0,14.674,2.102,20.943,6.08c11.432,7.245,18.258,19.627,18.258,33.122L360.417,211.303L360.417,211.303z"/>
	<path style="fill:#FFFFFF;" d="M292.245,45.698c-2.761,0-5-2.239-5-5V19.37c0-2.761,2.239-5,5-5s5,2.239,5,5v21.328
		C297.245,43.459,295.006,45.698,292.245,45.698z"/>
</g>
<g>
</g>
<g>
</g>
<g>
</g>
<g>
</g>
<g>
</g>
<g>
</g>
<g>
</g>
<g>
</g>
<g>
</g>
<g>
</g>
<g>
</g>
<g>
</g>
<g>
</g>
<g>
</g>
<g>
</g>
</svg>
