<?xml version="1.0" encoding="iso-8859-1"?>
<!-- Generator: Adobe Illustrator 19.0.0, SVG Export Plug-In . SVG Version: 6.00 Build 0)  -->
<svg version="1.1" id="Layer_1" xmlns="http://www.w3.org/2000/svg" xmlns:xlink="http://www.w3.org/1999/xlink" x="0px" y="0px"
	 viewBox="0 0 407.428 407.428" style="enable-background:new 0 0 407.428 407.428;" xml:space="preserve">
<g>
	<path style="fill:#CAF5FF;" d="M282.555,298.231c12.987-8.532,24.501-19.094,34.093-31.273
		c19.292-24.465,30.788-55.342,30.788-88.896c0-79.358-64.341-143.699-143.699-143.699c-79.376,0-143.699,64.341-143.699,143.699
		c0,33.464,11.442,64.252,30.608,88.68c9.628,12.25,21.196,22.902,34.254,31.47"/>
	<path style="fill:#333333;" d="M124.895,303.213c-0.941,0-1.893-0.265-2.738-0.82c-13.498-8.856-25.422-19.812-35.443-32.562
		c-20.724-26.414-31.677-58.146-31.677-91.77c0-81.993,66.706-148.699,148.699-148.699c45.461,0,87.829,20.396,116.239,55.959
		c1.724,2.157,1.372,5.304-0.786,7.027c-2.157,1.725-5.304,1.372-7.027-0.786c-26.502-33.174-66.022-52.2-108.426-52.2
		c-76.479,0-138.699,62.22-138.699,138.699c0,31.363,10.215,60.961,29.542,85.594c9.348,11.894,20.473,22.115,33.063,30.376
		c2.309,1.515,2.953,4.615,1.438,6.924C128.12,302.419,126.523,303.213,124.895,303.213z"/>
	<path style="fill:#333333;" d="M282.559,303.231c-1.627,0-3.223-0.793-4.183-2.255c-1.517-2.308-0.875-5.408,1.433-6.924
		c12.561-8.252,23.633-18.409,32.91-30.188c19.441-24.654,29.716-54.323,29.716-85.802c0-23.674-6.068-47.042-17.548-67.576
		c-1.348-2.41-0.486-5.457,1.924-6.804c2.409-1.347,5.456-0.486,6.804,1.924c12.312,22.022,18.82,47.077,18.82,72.456
		c0,33.748-11.018,65.559-31.861,91.992c-9.943,12.624-21.811,23.511-35.273,32.355
		C284.454,302.966,283.501,303.231,282.559,303.231z"/>
	<path style="fill:#FFFFFF;" d="M171.789,63.627c-2.203,0-4.22-1.467-4.823-3.694c-0.722-2.666,0.854-5.411,3.519-6.133
		c10.786-2.921,21.973-4.402,33.251-4.402c6.881,0,13.789,0.556,20.53,1.653c2.726,0.443,4.575,3.013,4.132,5.738
		s-3.01,4.579-5.738,4.132c-6.212-1.011-12.579-1.523-18.924-1.523c-10.396,0-20.704,1.364-30.637,4.055
		C172.661,63.57,172.221,63.627,171.789,63.627z"/>
	<path style="fill:#FFFFFF;" d="M325.614,181.275c-2.761,0-5-2.239-5-5c0-24.042-7.243-47.135-20.946-66.781
		c-13.398-19.208-31.973-33.814-53.716-42.241c-2.575-0.998-3.854-3.894-2.855-6.469c0.998-2.575,3.894-3.853,6.469-2.855
		c23.604,9.147,43.766,25,58.305,45.845c14.88,21.332,22.745,46.403,22.745,72.501C330.614,179.036,328.376,181.275,325.614,181.275
		z"/>
	<g>
		<circle style="fill:#F9E33D;" cx="112.622" cy="213.394" r="25.275"/>
		<circle style="fill:#F9E33D;" cx="294.85" cy="213.394" r="25.275"/>
	</g>
	<g>
		<path style="fill:#666666;" d="M112.622,243.669c-16.694,0-30.275-13.582-30.275-30.275s13.582-30.275,30.275-30.275
			s30.275,13.581,30.275,30.275S129.316,243.669,112.622,243.669z M112.622,193.119c-11.18,0-20.275,9.095-20.275,20.275
			s9.096,20.275,20.275,20.275s20.275-9.096,20.275-20.275S123.802,193.119,112.622,193.119z"/>
		<path style="fill:#666666;" d="M294.85,243.669c-16.694,0-30.275-13.582-30.275-30.275s13.581-30.275,30.275-30.275
			s30.275,13.581,30.275,30.275S311.544,243.669,294.85,243.669z M294.85,193.119c-11.18,0-20.275,9.095-20.275,20.275
			s9.095,20.275,20.275,20.275s20.275-9.096,20.275-20.275S306.029,193.119,294.85,193.119z"/>
	</g>
	<path style="fill:#8FCDF7;" d="M195.725,315.533c-48.795,0-88.493-39.698-88.493-88.492v-30.637
		c0-48.795,39.698-88.492,88.493-88.492h16.011c48.795,0,88.493,39.698,88.493,88.492v30.637c0,48.795-39.698,88.492-88.493,88.492
		H195.725z"/>
	<path style="fill:#D8B86F;" d="M273.433,202.873v28.973c0,34.308-27.824,62.132-62.132,62.132h-15.142
		c-34.308,0-62.132-27.824-62.132-62.132v-28.973c0-34.308,27.824-62.132,62.132-62.132h15.142
		C245.61,140.741,273.433,168.565,273.433,202.873z"/>
	<path style="fill:#F7D789;" d="M251.286,202.873v28.973c0,34.308-18.983,62.132-42.39,62.132h-10.331
		c-23.407,0-42.39-27.824-42.39-62.132v-28.973c0-34.308,18.983-62.132,42.39-62.132h10.331
		C232.303,140.741,251.286,168.565,251.286,202.873z"/>
	<path style="fill:#44A1E0;" d="M381.514,337.051c-14.142-22.375-24.104-34.509-24.104-34.509
		c-3.095-4.181-6.493-8.163-10.148-11.888l-33.936-24.302c-6.283-2.978-12.858-5.442-19.724-7.31h-0.012
		c-2.172,47.74-41.562,85.787-89.863,85.787c-48.289,0-87.679-38.047-89.851-85.787c-6.843,1.869-13.453,4.333-19.783,7.334
		l-33.925,24.302c-3.644,3.714-7.007,7.661-10.148,11.865c0,0-9.973,12.145-24.092,34.509c-6.329,10.018-13.476,22.07-20.927,36.014
		h397.428C394.979,359.11,387.82,347.059,381.514,337.051z"/>
	<path style="fill:#53AEF9;" d="M363.974,337.051c-0.07-0.117-0.117-0.222-0.187-0.327c-9.261-14.656-20.32-28.074-32.874-40.033
		l-31.846-30.34c-1.904-1.051-3.83-2.02-5.792-2.896c-26.684,55.915-121.884,99.03-179.095,0c-1.962,0.899-3.901,1.869-5.804,2.908
		L76.53,296.691c-12.554,11.958-23.636,25.376-32.897,40.033c-0.047,0.105-0.117,0.21-0.199,0.327
		c-6.33,10.008-13.476,22.072-20.915,36.015h362.394C377.462,359.122,370.315,347.059,363.974,337.051z"/>
	<path style="fill:#666666;" d="M211.736,320.533h-16.011c-51.552,0-93.493-41.94-93.493-93.492v-30.638
		c0-51.552,41.941-93.492,93.493-93.492h16.011c51.552,0,93.493,41.94,93.493,93.492v30.638
		C305.229,278.593,263.288,320.533,211.736,320.533z M195.725,112.911c-46.038,0-83.493,37.455-83.493,83.492v30.638
		c0,46.038,37.455,83.492,83.493,83.492h16.011c46.038,0,83.493-37.455,83.493-83.492v-30.638c0-46.038-37.455-83.492-83.493-83.492
		L195.725,112.911L195.725,112.911z"/>
	<path style="fill:#666666;" d="M211.301,298.978h-15.143c-37.017,0-67.132-30.115-67.132-67.132v-28.973
		c0-37.017,30.115-67.132,67.132-67.132h15.143c37.017,0,67.132,30.115,67.132,67.132v28.973
		C278.433,268.863,248.318,298.978,211.301,298.978z M196.159,145.741c-31.502,0-57.132,25.629-57.132,57.132v28.973
		c0,31.503,25.629,57.132,57.132,57.132h15.142c31.502,0,57.132-25.629,57.132-57.132v-28.973c0-31.502-25.629-57.132-57.132-57.132
		L196.159,145.741L196.159,145.741z"/>
	<path style="fill:#666666;" d="M185.346,228.224c-2.761,0-5-2.239-5-5v-34.883c0-2.761,2.239-5,5-5s5,2.239,5,5v34.883
		C190.346,225.986,188.107,228.224,185.346,228.224z"/>
	<path style="fill:#666666;" d="M222.115,228.224c-2.761,0-5-2.239-5-5v-34.883c0-2.761,2.239-5,5-5s5,2.239,5,5v34.883
		C227.115,225.986,224.876,228.224,222.115,228.224z"/>
	<path style="fill:#333333;" d="M402.429,378.066H5.001c-1.756,0-3.384-0.921-4.288-2.428c-0.904-1.506-0.951-3.376-0.124-4.926
		c6.678-12.518,13.782-24.742,21.113-36.334c12.032-19.066,39.505-55.647,66.131-71.789c2.166-1.313,4.973-0.798,6.533,1.199
		c26.504,33.941,66.369,53.408,109.372,53.408c42.914,0,82.716-19.388,109.201-53.192c1.572-2.005,4.399-2.508,6.565-1.17
		c27.364,16.913,55.293,54.197,66.238,71.549c7.429,11.79,14.527,24.012,21.098,36.329c0.827,1.55,0.78,3.419-0.124,4.926
		C405.814,377.144,404.186,378.066,402.429,378.066z M13.404,368.066h380.62c-5.309-9.608-10.922-19.115-16.741-28.35
		c-11.601-18.392-36.4-50.137-59.361-65.97c-28.355,34.027-69.712,53.45-114.184,53.45c-44.582,0-86.013-19.51-114.39-53.697
		c-23.892,16.2-48.188,48.784-59.192,66.22C24.396,348.828,18.78,358.332,13.404,368.066z"/>
	<path style="fill:#333333;" d="M113.763,356.853c-1.391,0-2.774-0.577-3.763-1.706l-52.665-60.125
		c-1.819-2.077-1.61-5.236,0.467-7.056c2.077-1.819,5.235-1.61,7.056,0.467l52.665,60.125c1.819,2.077,1.61,5.236-0.467,7.056
		C116.107,356.446,114.932,356.853,113.763,356.853z"/>
	<path style="fill:#333333;" d="M275.078,378.066c-1.169,0-2.343-0.408-3.292-1.238c-2.078-1.819-2.287-4.978-0.468-7.056
		l37.405-42.718c1.819-2.078,4.978-2.287,7.056-0.468s2.287,4.978,0.468,7.056l-37.405,42.718
		C277.854,377.489,276.469,378.066,275.078,378.066z"/>
	<path style="fill:#333333;" d="M330.467,314.819c-1.169,0-2.344-0.408-3.292-1.239c-2.077-1.819-2.286-4.978-0.467-7.056
		l15.655-17.875c1.819-2.078,4.978-2.287,7.056-0.467c2.077,1.819,2.286,4.978,0.467,7.056l-15.655,17.875
		C333.242,314.242,331.858,314.819,330.467,314.819z"/>
	<circle style="fill:#ED6B5D;" cx="229.882" cy="276.399" r="11.333"/>
	<path style="fill:#666666;" d="M229.882,292.733c-9.006,0-16.333-7.327-16.333-16.333s7.327-16.333,16.333-16.333
		s16.333,7.327,16.333,16.333S238.888,292.733,229.882,292.733z M229.882,270.066c-3.492,0-6.333,2.841-6.333,6.333
		s2.841,6.333,6.333,6.333s6.333-2.841,6.333-6.333S233.374,270.066,229.882,270.066z"/>
</g>
<g>
</g>
<g>
</g>
<g>
</g>
<g>
</g>
<g>
</g>
<g>
</g>
<g>
</g>
<g>
</g>
<g>
</g>
<g>
</g>
<g>
</g>
<g>
</g>
<g>
</g>
<g>
</g>
<g>
</g>
</svg>
