<?xml version="1.0" encoding="iso-8859-1"?>
<!-- Generator: Adobe Illustrator 19.0.0, SVG Export Plug-In . SVG Version: 6.00 Build 0)  -->
<svg version="1.1" id="Layer_1" xmlns="http://www.w3.org/2000/svg" xmlns:xlink="http://www.w3.org/1999/xlink" x="0px" y="0px"
	 viewBox="0 0 434.793 434.793" style="enable-background:new 0 0 434.793 434.793;" xml:space="preserve">
<g>
	<path style="fill:#1AA5E2;" d="M293.424,5l-22.855,333.884h-21.821h-62.703h-21.821L141.369,5H293.424z"/>
	<g>
		<path style="fill:#FFFFFF;" d="M187.937,217.854c-2.762,0-5-2.239-5-5v-22.399c0-2.761,2.238-5,5-5s5,2.239,5,5v22.399
			C192.937,215.615,190.699,217.854,187.937,217.854z"/>
		<path style="fill:#FFFFFF;" d="M199.136,206.655h-22.399c-2.762,0-5-2.239-5-5s2.238-5,5-5h22.399c2.762,0,5,2.239,5,5
			S201.898,206.655,199.136,206.655z"/>
	</g>
	<path style="opacity:0.25;enable-background:new    ;" d="M190.052,299.915L169.869,4.997h-28.5l22.85,333.89h11.988h16.512h79.099
		V320.64h-59.574C200.549,320.64,190.851,311.583,190.052,299.915z"/>
	<polygon style="fill:#F24125;" points="248.749,338.884 240.305,429.793 194.489,429.793 186.045,338.884 	"/>
	<polygon style="opacity:0.25;enable-background:new    ;" points="212.065,429.796 194.495,429.796 186.045,338.886 
		213.207,338.886 	"/>
	<path style="fill:#FCBC1D;" d="M245.587,90.357c14.3,14.31,14.3,37.5,0,51.81c-14.31,14.3-37.5,14.3-51.81,0
		c-14.3-14.31-14.3-37.5,0-51.81C208.087,76.057,231.277,76.057,245.587,90.357z"/>
	<path style="fill:#FFFFFF;" d="M275.161,47.353c-0.114,0-0.23-0.004-0.347-0.012c-2.755-0.188-4.835-2.575-4.646-5.33l1.484-21.677
		c0.188-2.753,2.563-4.825,5.33-4.646c2.755,0.188,4.835,2.575,4.646,5.33l-1.484,21.677
		C279.964,45.333,277.766,47.353,275.161,47.353z"/>
	<path style="fill:#FFFFFF;" d="M257.404,306.748c-0.114,0-0.229-0.004-0.347-0.012c-2.755-0.188-4.835-2.575-4.646-5.33
		l16.608-242.625c0.188-2.755,2.589-4.832,5.33-4.647c2.755,0.188,4.835,2.575,4.646,5.33l-16.608,242.625
		C262.207,304.728,260.01,306.748,257.404,306.748z"/>
	<path style="fill:#FFFFFF;" d="M255.93,328.206c-0.33,0-0.65-0.03-0.98-0.1c-0.32-0.06-0.63-0.16-0.93-0.28
		c-0.311-0.13-0.601-0.28-0.87-0.46c-0.271-0.18-0.53-0.39-0.76-0.62c-0.23-0.23-0.44-0.49-0.62-0.76
		c-0.181-0.27-0.33-0.56-0.46-0.86c-0.12-0.31-0.221-0.62-0.28-0.94c-0.07-0.32-0.1-0.65-0.1-0.98c0-0.32,0.029-0.65,0.1-0.97
		c0.06-0.32,0.16-0.64,0.28-0.94c0.13-0.3,0.279-0.59,0.46-0.86c0.18-0.28,0.39-0.53,0.62-0.76c0.229-0.23,0.489-0.44,0.76-0.62
		c0.27-0.18,0.56-0.34,0.87-0.46c0.3-0.13,0.609-0.22,0.93-0.29c0.65-0.13,1.31-0.13,1.96,0c0.32,0.07,0.63,0.16,0.93,0.29
		c0.301,0.12,0.591,0.28,0.86,0.46c0.28,0.18,0.53,0.39,0.76,0.62c0.23,0.23,0.44,0.48,0.63,0.76c0.181,0.27,0.33,0.56,0.46,0.86
		c0.12,0.3,0.221,0.62,0.28,0.94c0.07,0.32,0.101,0.65,0.101,0.97c0,0.33-0.03,0.66-0.101,0.98c-0.06,0.32-0.16,0.63-0.28,0.94
		c-0.13,0.3-0.279,0.59-0.46,0.86c-0.189,0.27-0.399,0.53-0.63,0.76C258.53,327.675,257.25,328.206,255.93,328.206z"/>
	<path style="fill:#333333;" d="M240.304,434.793h-45.815c-2.582,0-4.74-1.966-4.979-4.538l-8.443-90.909
		c-0.13-1.4,0.336-2.791,1.283-3.831s2.289-1.632,3.695-1.632h62.703c1.406,0,2.748,0.592,3.695,1.632s1.413,2.43,1.283,3.831
		l-8.444,90.909C245.044,432.827,242.886,434.793,240.304,434.793z M199.047,424.793h36.701l7.515-80.909h-51.73L199.047,424.793z"
		/>
	<path style="fill:#FFFFFF;" d="M226.024,419.118c-0.155,0-0.311-0.007-0.468-0.022c-2.75-0.255-4.772-2.691-4.517-5.441
		l2.761-29.731c0.255-2.75,2.688-4.772,5.44-4.516c2.75,0.255,4.772,2.691,4.517,5.441l-2.761,29.731
		C230.757,417.172,228.577,419.118,226.024,419.118z"/>
	<path style="fill:#FFFFFF;" d="M230.515,370.757c-0.155,0-0.311-0.007-0.469-0.022c-2.749-0.255-4.771-2.691-4.516-5.441
		l1.04-11.196c0.256-2.75,2.676-4.777,5.441-4.516c2.749,0.255,4.771,2.691,4.516,5.441l-1.04,11.196
		C235.247,368.811,233.068,370.757,230.515,370.757z"/>
	<path style="fill:#333333;" d="M219.681,157.87c-10.662,0-21.322-4.055-29.438-12.167c-16.224-16.235-16.224-42.648-0.003-58.881
		c16.237-16.225,42.649-16.223,58.881-0.002c0.001,0,0.002,0.001,0.003,0.002c16.222,16.233,16.222,42.646,0,58.878
		C241.006,153.813,230.343,157.87,219.681,157.87z M219.681,84.648c-8.101,0-16.202,3.082-22.37,9.245
		c-12.324,12.333-12.324,32.404,0.003,44.739c12.33,12.324,32.4,12.325,44.738-0.002c12.324-12.332,12.323-32.402-0.001-44.738
		C235.884,87.73,227.782,84.648,219.681,84.648z"/>
	<path style="fill:#333333;" d="M184.298,160.408c-4.021,0-7.304-1.197-9.719-3.612c-6.154-6.154-4.396-17.958,4.949-33.235
		c1.442-2.356,4.519-3.099,6.875-1.656c2.355,1.441,3.097,4.519,1.656,6.874c-7.563,12.365-7.945,19.41-6.409,20.947
		c1.535,1.537,8.581,1.158,20.936-6.399c7.98-4.862,16.436-11.671,24.462-19.696c8.016-8.016,14.825-16.473,19.692-24.455
		c7.559-12.364,7.938-19.407,6.402-20.942c-1.537-1.536-8.582-1.154-20.946,6.409c-2.356,1.44-5.433,0.699-6.875-1.656
		c-1.44-2.356-0.699-5.434,1.656-6.875c15.28-9.347,27.085-11.102,33.235-4.95c6.153,6.152,4.399,17.952-4.938,33.225
		c-5.271,8.645-12.587,17.746-21.156,26.315c-8.579,8.579-17.681,15.896-26.321,21.16
		C198.522,157.534,190.525,160.407,184.298,160.408z"/>
	<path style="fill:#333333;" d="M270.569,343.884h-21.82c-2.762,0-5-2.239-5-5s2.238-5,5-5h17.15L288.071,10H146.722l22.172,323.884
		h17.151c2.762,0,5,2.239,5,5s-2.238,5-5,5h-21.821c-2.629,0-4.809-2.036-4.988-4.659L136.381,5.341
		c-0.095-1.382,0.389-2.742,1.334-3.754C138.66,0.575,139.983,0,141.369,0h152.056c1.386,0,2.709,0.575,3.654,1.587
		c0.945,1.012,1.429,2.372,1.334,3.754l-22.855,333.884C275.378,341.849,273.198,343.884,270.569,343.884z"/>
</g>
<g>
</g>
<g>
</g>
<g>
</g>
<g>
</g>
<g>
</g>
<g>
</g>
<g>
</g>
<g>
</g>
<g>
</g>
<g>
</g>
<g>
</g>
<g>
</g>
<g>
</g>
<g>
</g>
<g>
</g>
</svg>
