<?xml version="1.0" encoding="iso-8859-1"?>
<!-- Generator: Adobe Illustrator 19.0.0, SVG Export Plug-In . SVG Version: 6.00 Build 0)  -->
<svg version="1.1" id="Layer_1" xmlns="http://www.w3.org/2000/svg" xmlns:xlink="http://www.w3.org/1999/xlink" x="0px" y="0px"
	 viewBox="0 0 369.96 369.96" style="enable-background:new 0 0 369.96 369.96;" xml:space="preserve">
<g>
	<g>
		<circle style="fill:#F9DAC5;" cx="51.207" cy="47.326" r="35.18"/>
		<path style="opacity:0.25;enable-background:new    ;" d="M16.027,47.324c0,19.431,15.745,35.183,35.176,35.183
			c3.015,0,5.95-0.379,8.739-1.092C44.743,77.526,33.505,63.74,33.505,47.324c0-16.415,11.237-30.195,26.437-34.084
			c-2.789-0.714-5.724-1.092-8.739-1.092C31.772,12.148,16.027,27.893,16.027,47.324z"/>
		<path style="fill:#333333;" d="M51.206,87.506c-22.155,0-40.179-18.025-40.179-40.18s18.024-40.18,40.179-40.18
			s40.18,18.025,40.18,40.18S73.362,87.506,51.206,87.506z M51.206,17.146c-16.641,0-30.179,13.539-30.179,30.18
			s13.539,30.18,30.179,30.18c16.641,0,30.18-13.539,30.18-30.18S67.847,17.146,51.206,17.146z"/>
	</g>
	<path style="fill:#F9DAC5;" d="M355.621,175.64c0,4.9-0.21,9.76-0.62,14.56H14.961c-0.41-4.8-0.62-9.66-0.62-14.56
		c0-12.62,1.37-24.93,3.98-36.77h333.32C354.251,150.71,355.621,163.02,355.621,175.64z"/>
	<path style="fill:#F9A064;" d="M14.961,190.2h340.04c-0.55,6.56-1.47,13.01-2.75,19.33H17.711
		C16.431,203.21,15.511,196.76,14.961,190.2z"/>
	<path style="fill:#F9911E;" d="M17.711,209.53h334.54c-3.9,19.39-11.1,37.6-20.98,54H38.691
		C28.811,247.13,21.611,228.92,17.711,209.53z"/>
	<path style="fill:#F9700B;" d="M351.641,138.87H18.321c3.19-14.56,8.25-28.43,14.91-41.34h303.5
		C343.391,110.44,348.451,124.31,351.641,138.87z"/>
	<path style="fill:#F9DAC5;" d="M336.731,97.53h-303.5c2.96-5.75,6.25-11.31,9.82-16.66h283.86
		C330.481,86.22,333.771,91.78,336.731,97.53z"/>
	<path style="fill:#F9700B;" d="M38.691,263.53h292.58c-6.05,10.06-13.11,19.44-21.05,28H59.741
		C51.801,282.97,44.741,273.59,38.691,263.53z"/>
	<path style="fill:#E0AA86;" d="M326.911,80.87H43.051c6.98-10.43,15.08-20.04,24.12-28.67h235.62
		C311.831,60.83,319.931,70.44,326.911,80.87z"/>
	<path style="fill:#E0AA86;" d="M59.741,291.53h250.48c-9.89,10.7-21.14,20.12-33.48,28H93.221
		C80.881,311.65,69.631,302.23,59.741,291.53z"/>
	<path style="fill:#F9A064;" d="M302.791,52.2H67.171C97.801,22.96,139.291,5,184.981,5S272.161,22.96,302.791,52.2z"/>
	<path style="fill:#F9DAC5;" d="M93.221,319.53h183.52c-26.49,16.93-57.98,26.75-91.76,26.75S119.711,336.46,93.221,319.53z"/>
	<path style="fill:#333333;" d="M302.791,57.2H67.171c-2.761,0-5-2.239-5-5s2.239-5,5-5h235.62c2.761,0,5,2.239,5,5
		S305.553,57.2,302.791,57.2z"/>
	<path style="fill:#333333;" d="M244.081,85.87H43.051c-2.761,0-5-2.239-5-5s2.239-5,5-5h201.03c2.761,0,5,2.239,5,5
		S246.843,85.87,244.081,85.87z"/>
	<path style="fill:#333333;" d="M326.911,85.87h-62.83c-2.761,0-5-2.239-5-5s2.239-5,5-5h62.83c2.761,0,5,2.239,5,5
		S329.672,85.87,326.911,85.87z"/>
	<path style="fill:#333333;" d="M130.581,102.53h-97.35c-2.761,0-5-2.239-5-5s2.239-5,5-5h97.35c2.761,0,5,2.239,5,5
		S133.343,102.53,130.581,102.53z"/>
	<path style="fill:#333333;" d="M336.731,102.53h-190.15c-2.761,0-5-2.239-5-5s2.239-5,5-5h190.15c2.761,0,5,2.239,5,5
		S339.492,102.53,336.731,102.53z"/>
	<path style="fill:#333333;" d="M264.081,214.53H17.711c-2.761,0-5-2.239-5-5s2.239-5,5-5h246.37c2.761,0,5,2.239,5,5
		S266.843,214.53,264.081,214.53z"/>
	<path style="fill:#333333;" d="M352.251,214.53h-69.67c-2.761,0-5-2.239-5-5s2.239-5,5-5h69.67c2.761,0,5,2.239,5,5
		S355.012,214.53,352.251,214.53z"/>
	<path style="fill:#333333;" d="M73.581,268.53h-34.89c-2.761,0-5-2.239-5-5s2.239-5,5-5h34.89c2.761,0,5,2.239,5,5
		S76.343,268.53,73.581,268.53z"/>
	<path style="fill:#333333;" d="M331.271,268.53h-129.69c-2.761,0-5-2.239-5-5s2.239-5,5-5h129.69c2.761,0,5,2.239,5,5
		S334.032,268.53,331.271,268.53z"/>
	<path style="fill:#333333;" d="M310.221,296.53H59.741c-2.761,0-5-2.239-5-5s2.239-5,5-5h250.48c2.761,0,5,2.239,5,5
		S312.982,296.53,310.221,296.53z"/>
	<path style="fill:#333333;" d="M221.581,324.53H93.221c-2.761,0-5-2.239-5-5s2.239-5,5-5h128.36c2.761,0,5,2.239,5,5
		S224.342,324.53,221.581,324.53z"/>
	<path style="fill:#333333;" d="M276.741,324.53h-32.66c-2.761,0-5-2.239-5-5s2.239-5,5-5h32.66c2.761,0,5,2.239,5,5
		S279.502,324.53,276.741,324.53z"/>
	<path style="fill:#333333;" d="M224.581,143.87H18.321c-2.761,0-5-2.239-5-5s2.239-5,5-5h206.26c2.761,0,5,2.239,5,5
		S227.343,143.87,224.581,143.87z"/>
	<path style="fill:#333333;" d="M351.641,143.87h-108.56c-2.761,0-5-2.239-5-5s2.239-5,5-5h108.56c2.761,0,5,2.239,5,5
		S354.402,143.87,351.641,143.87z"/>
	<path style="fill:#333333;" d="M112.581,195.2h-97.62c-2.761,0-5-2.239-5-5s2.239-5,5-5h97.62c2.761,0,5,2.239,5,5
		S115.342,195.2,112.581,195.2z"/>
	<path style="fill:#333333;" d="M130.784,195.2c-0.32,0-0.65-0.03-0.97-0.1c-0.32-0.06-0.64-0.16-0.94-0.28
		c-0.3-0.13-0.59-0.28-0.86-0.46c-0.28-0.18-0.53-0.39-0.76-0.62c-0.93-0.93-1.47-2.22-1.47-3.54s0.54-2.6,1.47-3.54
		c0.23-0.23,0.48-0.43,0.76-0.62c0.27-0.18,0.56-0.33,0.86-0.46c0.3-0.12,0.62-0.22,0.94-0.28c1.62-0.33,3.35,0.2,4.51,1.36
		c0.23,0.24,0.44,0.49,0.62,0.76c0.18,0.28,0.33,0.57,0.46,0.87c0.12,0.3,0.22,0.61,0.29,0.93c0.06,0.33,0.09,0.65,0.09,0.98
		s-0.03,0.65-0.09,0.98c-0.07,0.32-0.17,0.63-0.29,0.93c-0.13,0.3-0.28,0.6-0.46,0.87c-0.18,0.27-0.39,0.53-0.62,0.76
		C133.394,194.67,132.104,195.2,130.784,195.2z"/>
	<path style="fill:#333333;" d="M355.001,195.2h-208.42c-2.761,0-5-2.239-5-5s2.239-5,5-5h208.42c2.761,0,5,2.239,5,5
		S357.762,195.2,355.001,195.2z"/>
	<g>
		<path style="fill:#FFFFFF;" d="M259.677,52.598c-0.907,0-1.824-0.247-2.649-0.763c-5.902-3.697-12.117-6.994-18.472-9.799
			c-2.526-1.115-3.67-4.067-2.555-6.594c1.116-2.526,4.067-3.67,6.594-2.555c6.792,2.999,13.434,6.522,19.741,10.473
			c2.34,1.466,3.049,4.551,1.583,6.892C262.97,51.767,261.342,52.598,259.677,52.598z"/>
		<path style="fill:#FFFFFF;" d="M282.775,290.341c-1.335,0-2.667-0.532-3.652-1.584c-1.886-2.017-1.781-5.181,0.235-7.067
			c29.375-27.483,46.223-66.24,46.223-106.334c0-40.324-16.17-77.856-45.532-105.684c-2.004-1.9-2.089-5.064-0.189-7.069
			c1.899-2.004,5.065-2.089,7.068-0.19c31.375,29.735,48.653,69.845,48.653,112.942c0,42.851-18.002,84.27-49.391,113.636
			C285.226,289.894,283.999,290.341,282.775,290.341z"/>
		<path style="fill:#FFFFFF;" d="M261.744,306.803c-1.637,0-3.241-0.803-4.199-2.278c-1.503-2.316-0.845-5.413,1.472-6.916
			c2.549-1.655,5.081-3.413,7.524-5.227c2.217-1.645,5.35-1.182,6.995,1.036c1.646,2.218,1.182,5.349-1.036,6.995
			c-2.611,1.937-5.315,3.816-8.039,5.583C263.62,306.542,262.677,306.803,261.744,306.803z"/>
	</g>
	<g>
		<path style="fill:#EDC3A6;" d="M171.012,233.419c8.336,5.181,13.437,12.135,13.437,19.781c0,16.016-22.386,29-50,29
			s-50-12.984-50-29s22.386-29,50-29c7.216,0,14.075,0.887,20.271,2.482"/>
		<path style="fill:#333333;" d="M134.449,287.2c-30.841,0-55-14.935-55-34s24.159-34,55-34c7.476,0,14.716,0.888,21.519,2.64
			c2.674,0.689,4.284,3.415,3.595,6.089c-0.688,2.674-3.412,4.284-6.089,3.595c-5.989-1.542-12.39-2.324-19.024-2.324
			c-24.393,0-45,10.991-45,24s20.607,24,45,24s45-10.991,45-24c0-5.578-3.934-11.095-11.076-15.534
			c-2.345-1.458-3.064-4.541-1.607-6.886c1.458-2.344,4.539-3.065,6.886-1.607c10.187,6.332,15.797,14.865,15.797,24.028
			C189.449,272.265,165.29,287.2,134.449,287.2z"/>
	</g>
	<path style="fill:#F9700B;" d="M134.449,264.2c-19.856,0-30.84-8.14-31.961-11c1.122-2.86,12.105-11,31.961-11
		s30.84,8.14,31.961,11C165.289,256.06,154.305,264.2,134.449,264.2z"/>
	<path style="fill:#333333;" d="M134.449,269.2c-20.265,0-34.286-8.232-36.616-14.175l-0.716-1.825l0.716-1.825
		c2.33-5.943,16.351-14.175,36.616-14.175s34.286,8.232,36.616,14.175l0.716,1.825l-0.716,1.825
		C168.736,260.968,154.715,269.2,134.449,269.2z M109.731,253.2c3.959,2.486,12.089,6,24.719,6s20.76-3.514,24.719-6
		c-3.959-2.486-12.089-6-24.719-6S113.69,250.714,109.731,253.2z M161.948,255.412L161.948,255.412L161.948,255.412z
		 M106.951,255.412L106.951,255.412L106.951,255.412z M161.948,250.988L161.948,250.988L161.948,250.988z"/>
	<path style="opacity:0.25;enable-background:new    ;" d="M199.588,336.99c-19.96-7.05-38.22-17.72-53.98-31.21
		c-36.59-31.3-59.78-77.8-59.78-129.72c0-46.04,18.24-87.83,47.88-118.52c16.33-16.91,36.12-30.46,58.23-39.5
		c9.22-3.765,18.846-6.738,28.788-8.857c-11.529-2.459-23.483-3.763-35.745-3.763c-22.84,0-44.62,4.49-64.53,12.62
		c-22.11,9.04-41.9,22.59-58.23,39.5c-29.64,30.69-47.88,72.48-47.88,118.52c0,51.92,23.19,98.42,59.78,129.72
		c15.76,13.49,34.02,24.16,53.98,31.21c17.79,6.29,36.94,9.71,56.88,9.71c12.255,0,24.208-1.3,35.734-3.756
		C213.493,341.404,206.439,339.412,199.588,336.99z"/>
	<path style="fill:#333333;" d="M184.981,351.28c-33.604,0-66.265-9.522-94.453-27.537c-12.666-8.088-24.26-17.784-34.459-28.819
		c-8.174-8.812-15.464-18.51-21.663-28.817c-10.375-17.222-17.642-35.927-21.597-55.591c-1.316-6.496-2.269-13.193-2.831-19.898
		c-0.423-4.948-0.638-9.99-0.638-14.978c0-12.779,1.378-25.512,4.097-37.846c3.235-14.764,8.399-29.084,15.35-42.556
		c2.988-5.806,6.389-11.575,10.104-17.143c7.147-10.679,15.499-20.606,24.827-29.511C96.537,17.254,139.602,0,184.981,0
		c45.378,0,88.443,17.254,121.263,48.583c9.327,8.904,17.679,18.832,24.822,29.506c3.719,5.573,7.119,11.342,10.11,17.153
		c6.948,13.468,12.113,27.788,15.349,42.558c2.718,12.33,4.096,25.061,4.096,37.84c0,4.985-0.214,10.027-0.638,14.985
		c-0.562,6.698-1.515,13.395-2.832,19.897c-3.954,19.658-11.221,38.363-21.598,55.588c-6.197,10.304-13.488,20.002-21.667,28.82
		c-10.193,11.028-21.788,20.725-34.455,28.814C251.246,341.758,218.585,351.28,184.981,351.28z M184.981,10
		c-42.795,0-83.408,16.271-114.357,45.817c-8.801,8.402-16.68,17.766-23.417,27.834c-3.503,5.25-6.71,10.692-9.53,16.168
		c-6.553,12.703-11.421,26.2-14.471,40.122c-2.564,11.634-3.864,23.644-3.864,35.7c0,4.704,0.203,9.46,0.602,14.134
		c0.53,6.329,1.428,12.639,2.668,18.763c3.729,18.542,10.58,36.174,20.362,52.413c5.847,9.721,12.72,18.865,20.433,27.18
		c9.625,10.413,20.559,19.558,32.505,27.186c26.578,16.986,57.377,25.964,89.069,25.964s62.491-8.978,89.067-25.963
		c11.948-7.63,22.882-16.774,32.5-27.181c7.718-8.321,14.592-17.464,20.438-27.183c9.784-16.242,16.635-33.874,20.363-52.409
		c1.241-6.131,2.139-12.441,2.669-18.762c0.4-4.684,0.602-9.439,0.602-14.142c0-12.059-1.3-24.068-3.863-35.694l-0.001-0.006
		c-3.05-13.92-7.918-27.418-14.469-40.118c-2.821-5.481-6.029-10.922-9.536-16.177c-6.734-10.063-14.613-19.428-23.413-27.829
		C268.388,26.271,227.776,10,184.981,10z"/>
	<g>
		<circle style="fill:#F9911E;" cx="302.081" cy="316.655" r="48.305"/>
		<path style="opacity:0.25;enable-background:new    ;" d="M253.776,316.652c0,26.68,21.62,48.31,48.3,48.31
			c4.14,0,8.17-0.52,12-1.5c-20.87-5.34-36.3-24.27-36.3-46.81s15.43-41.46,36.3-46.8c-3.83-0.98-7.86-1.5-12-1.5
			C275.396,268.352,253.776,289.972,253.776,316.652z"/>
		<path style="fill:#FFFFFF;" d="M326.339,345.912c-1.28,0-2.559-0.488-3.536-1.464c-1.953-1.953-1.953-5.118,0-7.071
			c6.884-6.884,9.886-16.727,8.031-26.329c-0.524-2.711,1.249-5.334,3.96-5.858c2.712-0.525,5.334,1.25,5.858,3.96
			c2.486,12.867-1.543,26.062-10.778,35.297C328.898,345.424,327.618,345.912,326.339,345.912z"/>
		<path style="fill:#333333;" d="M302.081,369.96c-29.393,0-53.305-23.913-53.305-53.305c0-29.393,23.913-53.305,53.305-53.305
			s53.305,23.913,53.305,53.305C355.386,346.047,331.473,369.96,302.081,369.96z M302.081,273.35
			c-23.878,0-43.305,19.427-43.305,43.305s19.427,43.305,43.305,43.305s43.305-19.427,43.305-43.305
			C345.386,292.776,325.96,273.35,302.081,273.35z"/>
		<path style="fill:#FFFFFF;" d="M327.444,299.377c-0.33,0-0.66-0.03-0.98-0.1c-0.32-0.06-0.63-0.16-0.93-0.28
			c-0.3-0.13-0.59-0.28-0.87-0.46c-0.27-0.19-0.53-0.39-0.76-0.62c-0.93-0.93-1.46-2.22-1.46-3.54s0.53-2.6,1.46-3.53
			c0.23-0.24,0.49-0.45,0.76-0.63c0.28-0.18,0.57-0.33,0.87-0.46c0.3-0.12,0.61-0.22,0.93-0.28c1.63-0.33,3.36,0.2,4.52,1.37
			c0.93,0.93,1.46,2.21,1.46,3.53s-0.53,2.6-1.46,3.54C330.054,298.847,328.764,299.377,327.444,299.377z"/>
	</g>
	<path style="fill:#333333;" d="M284.744,301.2c-0.32,0-0.65-0.03-0.97-0.1c-0.32-0.06-0.64-0.16-0.94-0.28
		c-0.3-0.13-0.59-0.28-0.86-0.46c-0.28-0.18-0.53-0.39-0.76-0.62c-0.93-0.93-1.47-2.22-1.47-3.54s0.54-2.61,1.47-3.54
		c0.23-0.23,0.48-0.44,0.76-0.62c0.27-0.18,0.56-0.33,0.86-0.46c0.3-0.12,0.62-0.22,0.94-0.28c0.64-0.13,1.31-0.13,1.95,0
		c0.32,0.06,0.63,0.16,0.94,0.28c0.3,0.13,0.59,0.28,0.86,0.46s0.53,0.39,0.76,0.62c0.93,0.93,1.46,2.22,1.46,3.54
		s-0.53,2.61-1.46,3.54c-0.23,0.23-0.49,0.44-0.76,0.62s-0.56,0.33-0.86,0.46c-0.31,0.12-0.62,0.22-0.94,0.28
		C285.404,301.17,285.074,301.2,284.744,301.2z"/>
	<path style="fill:#333333;" d="M302.744,333.87c-0.32,0-0.65-0.04-0.97-0.1s-0.64-0.16-0.94-0.29c-0.3-0.12-0.59-0.28-0.86-0.46
		c-0.28-0.18-0.53-0.39-0.76-0.62c-0.93-0.93-1.47-2.22-1.47-3.53c0-1.32,0.54-2.61,1.47-3.54c0.23-0.23,0.48-0.44,0.76-0.62
		c0.27-0.18,0.56-0.34,0.86-0.46c0.3-0.13,0.62-0.22,0.94-0.29c1.62-0.32,3.35,0.21,4.51,1.37c0.93,0.93,1.46,2.22,1.46,3.54
		c0,1.31-0.53,2.6-1.46,3.53S304.064,333.87,302.744,333.87z"/>
	<path style="fill:#333333;" d="M283.414,336.53c-0.33,0-0.65-0.03-0.98-0.09c-0.32-0.07-0.63-0.16-0.93-0.29
		c-0.3-0.12-0.59-0.28-0.86-0.46c-0.28-0.18-0.53-0.39-0.76-0.62c-0.94-0.93-1.47-2.22-1.47-3.54c0-0.32,0.03-0.65,0.1-0.97
		c0.06-0.32,0.16-0.64,0.28-0.94c0.13-0.3,0.28-0.59,0.46-0.86c0.19-0.28,0.39-0.53,0.63-0.76c0.23-0.23,0.48-0.44,0.76-0.62
		c0.27-0.18,0.56-0.34,0.86-0.46c0.3-0.13,0.61-0.22,0.93-0.29c1.63-0.33,3.35,0.21,4.52,1.37c0.23,0.23,0.44,0.48,0.62,0.76
		c0.18,0.27,0.33,0.56,0.46,0.86c0.12,0.3,0.22,0.62,0.28,0.94c0.07,0.32,0.1,0.65,0.1,0.97c0,1.32-0.53,2.61-1.46,3.54
		C286.024,336,284.734,336.53,283.414,336.53z"/>
</g>
<g>
</g>
<g>
</g>
<g>
</g>
<g>
</g>
<g>
</g>
<g>
</g>
<g>
</g>
<g>
</g>
<g>
</g>
<g>
</g>
<g>
</g>
<g>
</g>
<g>
</g>
<g>
</g>
<g>
</g>
</svg>
