<?xml version="1.0" encoding="iso-8859-1"?>
<!-- Generator: Adobe Illustrator 19.0.0, SVG Export Plug-In . SVG Version: 6.00 Build 0)  -->
<svg version="1.1" id="Layer_1" xmlns="http://www.w3.org/2000/svg" xmlns:xlink="http://www.w3.org/1999/xlink" x="0px" y="0px"
	 viewBox="0 0 415.69 415.69" style="enable-background:new 0 0 415.69 415.69;" xml:space="preserve">
<g>
	<rect x="184.948" y="230.333" style="fill:#967E4A;" width="47.333" height="48.667"/>
	<path style="fill:#333333;" d="M141.807,112.5c-1.38,0-2.753-0.568-3.742-1.681l-37.72-42.5c-1.833-2.065-1.645-5.226,0.421-7.059
		c2.065-1.832,5.225-1.645,7.059,0.421l37.72,42.5c1.833,2.065,1.645,5.226-0.421,7.059
		C144.172,112.084,142.987,112.5,141.807,112.5z"/>
	<path style="fill:#333333;" d="M273.893,112.5c-1.18,0-2.365-0.416-3.317-1.26c-2.065-1.833-2.254-4.993-0.421-7.059l37.709-42.5
		c1.833-2.065,4.993-2.255,7.059-0.422c2.065,1.833,2.254,4.993,0.422,7.059l-37.71,42.5
		C276.647,111.932,275.273,112.5,273.893,112.5z"/>
	<path style="fill:#FCBC1D;" d="M187.345,19.66h41c0,11.32-9.17,20.5-20.5,20.5C196.525,40.16,187.345,30.98,187.345,19.66z"/>
	<path style="fill:#FCBC1D;" d="M296.255,167.93c14.35,4.96,24.66,18.58,24.66,34.62c0,20.23-16.4,36.63-36.63,36.63
		c-9.37,0-17.93-3.52-24.4-9.32C279.665,215.59,293.335,193.4,296.255,167.93z"/>
	<path style="fill:#D89E1D;" d="M119.435,167.93c2.92,25.47,16.6,47.66,36.37,61.93c-6.48,5.8-15.03,9.32-24.4,9.32
		c-20.23,0-36.62-16.4-36.62-36.63C94.785,186.51,105.085,172.89,119.435,167.93z"/>
	<path style="fill:#E4C882;" d="M13.845,390.6h42.27c0,5.55-2.25,10.57-5.89,14.21c-3.63,3.63-8.66,5.88-14.21,5.88h-2.07
		C22.845,410.69,13.845,401.7,13.845,390.6z"/>
	<path style="fill:#E4C882;" d="M207.845,390.6h20.79c0,5.55-2.25,10.57-5.89,14.21c-3.63,3.63-8.65,5.88-14.2,5.88h-2.08
		c-11.1,0-20.1-8.99-20.1-20.09H207.845z"/>
	<path style="fill:#E4C882;" d="M359.585,390.6h42.26c0,11.1-8.99,20.09-20.09,20.09h-2.08c-5.55,0-10.57-2.25-14.21-5.88
		C361.835,401.17,359.585,396.15,359.585,390.6z"/>
	<polygon style="fill:#FCD275;" points="241.275,129.99 246.845,170 168.845,170 174.395,130.11 182.435,72.35 184.845,55 
		207.845,55 230.845,55 233.255,72.35 	"/>
	<path style="fill:#E5A71C;" d="M246.845,170v67.69c-4.93,2.4-10.11,4.36-15.5,5.83c-7.48,2.05-15.36,3.14-23.5,3.14
		c-8.13,0-16.02-1.09-23.5-3.14c-5.39-1.47-10.58-3.43-15.5-5.84V170H246.845z"/>
	<path style="fill:#20505B;" d="M174.395,130.11l-5.55,39.89l-49.45-22.19h-0.01c1.02-9.31,3.49-18.18,7.16-26.4L174.395,130.11z"/>
	<path style="fill:#20505B;" d="M296.305,147.81L246.845,170l-5.57-40.01l47.2-8.58l0.57-0.25
		C292.775,129.45,295.275,138.41,296.305,147.81z"/>
	<path style="fill:#CC8C0D;" d="M137.705,102.88c11.24-14.37,26.8-25.2,44.73-30.53l-8.04,57.76l-47.85-8.7
		C129.505,114.76,133.265,108.55,137.705,102.88z"/>
	<path style="fill:#CC8C0D;" d="M168.845,170v67.68c-4.59-2.23-8.95-4.85-13.04-7.82c-19.77-14.27-33.45-36.46-36.37-61.93
		c-0.39-3.37-0.59-6.8-0.59-10.27c0-3.33,0.18-6.62,0.54-9.85h0.01L168.845,170z"/>
	<path style="fill:#FCBC1D;" d="M277.995,102.88c4.38,5.6,8.1,11.73,11.05,18.28l-0.57,0.25l-47.2,8.58l-8.02-57.64
		C251.195,77.68,266.755,88.51,277.995,102.88z"/>
	<path style="fill:#FCBC1D;" d="M296.845,157.66c0,3.47-0.2,6.9-0.59,10.27c-2.92,25.47-16.59,47.66-36.37,61.93
		c-4.1,2.97-8.46,5.59-13.04,7.83V170l49.46-22.19C296.665,151.04,296.845,154.33,296.845,157.66z"/>
	<polygon style="fill:#CC8C0D;" points="207.845,266.81 207.845,350.65 113.615,350.65 113.615,329.17 113.615,270.28 
		113.615,266.81 184.345,266.81 	"/>
	<polygon style="fill:#FCBC1D;" points="302.075,329.17 302.075,350.65 207.845,350.65 207.845,266.81 231.345,266.81 
		302.075,266.81 302.075,270.28 	"/>
	<path style="fill:#333333;" d="M302.075,355.65h-188.46c-2.761,0-5-2.239-5-5v-83.84c0-2.761,2.239-5,5-5h188.46
		c2.761,0,5,2.239,5,5v83.84C307.075,353.411,304.836,355.65,302.075,355.65z M118.615,345.65h178.46v-73.84h-178.46
		C118.615,271.81,118.615,345.65,118.615,345.65z"/>
	<path style="fill:#333333;" d="M207.845,395.6c-2.761,0-5-2.239-5-5v-82.267c0-2.761,2.239-5,5-5s5,2.239,5,5V390.6
		C212.845,393.361,210.606,395.6,207.845,395.6z"/>
	<path style="fill:#333333;" d="M207.845,295.333c-2.761,0-5-2.239-5-5V266.81c0-2.761,2.239-5,5-5s5,2.239,5,5v23.523
		C212.845,293.094,210.606,295.333,207.845,295.333z"/>
	<path style="fill:#333333;" d="M36.013,393.521c-0.632,0-1.275-0.121-1.896-0.375c-2.555-1.048-3.776-3.969-2.728-6.524l42.271-103
		c0.444-1.082,1.252-1.973,2.286-2.52l35.33-18.71c2.439-1.293,5.466-0.363,6.758,2.079c1.292,2.44,0.362,5.466-2.079,6.758
		l-33.731,17.864L40.641,390.418C39.847,392.352,37.981,393.521,36.013,393.521z"/>
	<path style="fill:#333333;" d="M113.068,334.17c-1.47,0-2.926-0.645-3.914-1.884l-34.78-43.65c-1.721-2.16-1.365-5.305,0.795-7.026
		s5.305-1.365,7.026,0.795l34.78,43.65c1.721,2.16,1.365,5.305-0.795,7.026C115.26,333.814,114.16,334.17,113.068,334.17z"/>
	<path style="fill:#333333;" d="M47.099,366.491c-2.404,0-4.524-1.738-4.928-4.188c-0.449-2.725,1.396-5.298,4.12-5.747l65.75-10.84
		c2.726-0.451,5.298,1.396,5.747,4.12c0.449,2.725-1.396,5.298-4.12,5.747l-65.75,10.84
		C47.643,366.469,47.369,366.491,47.099,366.491z"/>
	<path style="fill:#333333;" d="M36.015,415.69h-2.07c-13.84,0-25.1-11.255-25.1-25.09c0-2.761,2.239-5,5-5h42.27
		c2.761,0,5,2.239,5,5c0,6.701-2.612,13.003-7.354,17.746C49.025,413.082,42.722,415.69,36.015,415.69z M19.697,395.6
		c2.069,5.871,7.674,10.09,14.248,10.09h2.07c4.036,0,7.827-1.568,10.674-4.416c1.629-1.629,2.841-3.564,3.58-5.675L19.697,395.6
		L19.697,395.6z"/>
	<path style="fill:#333333;" d="M379.677,393.521c-1.968,0-3.834-1.17-4.628-3.104l-41.573-101.326l-33.74-17.864
		c-2.44-1.292-3.372-4.318-2.08-6.758c1.293-2.44,4.319-3.372,6.758-2.08l35.34,18.71c1.034,0.547,1.843,1.439,2.287,2.521
		l42.26,103c1.048,2.555-0.173,5.476-2.728,6.524C380.951,393.401,380.308,393.521,379.677,393.521z"/>
	<path style="fill:#333333;" d="M302.631,334.17c-1.092,0-2.192-0.356-3.112-1.089c-2.16-1.721-2.516-4.867-0.795-7.026l34.78-43.65
		c1.721-2.16,4.868-2.515,7.026-0.795c2.16,1.721,2.516,4.867,0.795,7.026l-34.78,43.65
		C305.558,333.525,304.101,334.17,302.631,334.17z"/>
	<polyline style="fill:#FFFFFF;" points="262.587,162.937 274.282,124.17 291.059,126.02 295.514,142.247 	"/>
	<path style="fill:#333333;" d="M368.591,366.491c-0.27,0-0.544-0.022-0.819-0.067l-65.75-10.84
		c-2.725-0.449-4.569-3.022-4.12-5.747s3.017-4.572,5.747-4.12l65.75,10.84c2.725,0.449,4.569,3.022,4.12,5.747
		C373.115,364.752,370.994,366.491,368.591,366.491z"/>
	<path style="fill:#333333;" d="M381.755,415.69h-2.08c-6.694,0-12.995-2.607-17.741-7.34c-4.743-4.755-7.349-11.056-7.349-17.75
		c0-2.761,2.239-5,5-5h42.26c2.761,0,5,2.239,5,5C406.845,404.435,395.59,415.69,381.755,415.69z M365.429,395.6
		c0.739,2.111,1.949,4.047,3.576,5.679c2.849,2.841,6.641,4.411,10.669,4.411h2.08c6.569,0,12.171-4.219,14.239-10.09H365.429z"/>
	<path style="fill:#333333;" d="M208.545,415.69h-2.08c-13.84,0-25.1-11.255-25.1-25.09c0-2.761,2.239-5,5-5h42.27
		c2.761,0,5,2.239,5,5c0,6.701-2.612,13.003-7.354,17.746C221.544,413.082,215.245,415.69,208.545,415.69z M192.217,395.6
		c2.069,5.871,7.675,10.09,14.248,10.09h2.08c4.03,0,7.817-1.568,10.665-4.416c1.629-1.629,2.841-3.564,3.58-5.674H192.217z"/>
	<path style="fill:#333333;" d="M207.845,251.66c-8.438,0-16.789-1.116-24.821-3.317c-5.655-1.542-11.167-3.62-16.378-6.172
		c-4.801-2.333-9.441-5.115-13.778-8.264c-21.406-15.451-35.406-39.293-38.399-65.407c-0.413-3.565-0.623-7.214-0.623-10.839
		c0-3.506,0.192-7.007,0.57-10.404c1.054-9.62,3.599-19.004,7.564-27.885c3.092-6.946,7.059-13.534,11.789-19.574
		c12.131-15.51,28.468-26.66,47.242-32.24c2.651-0.787,5.431,0.721,6.218,3.368c0.787,2.647-0.721,5.431-3.368,6.217
		c-16.772,4.986-31.37,14.951-42.216,28.818c-4.227,5.398-7.77,11.279-10.531,17.482c-3.543,7.937-5.816,16.316-6.758,24.911
		c-0.338,3.04-0.51,6.168-0.51,9.306c0,3.242,0.188,6.504,0.557,9.695c2.675,23.332,15.187,44.634,34.33,58.451
		c3.875,2.813,8.009,5.293,12.299,7.376c4.66,2.283,9.578,4.136,14.631,5.514c14.354,3.934,30.018,3.933,44.363,0.001
		c5.023-1.37,9.945-3.222,14.633-5.503c4.292-2.1,8.432-4.585,12.295-7.384c19.149-13.814,31.661-35.117,34.336-58.45
		c0.37-3.199,0.558-6.461,0.558-9.701c0-3.135-0.171-6.263-0.509-9.296c-0.955-8.71-3.259-17.17-6.851-25.152
		c-2.759-6.127-6.269-11.932-10.429-17.251c-10.848-13.868-25.449-23.833-42.226-28.818c-2.647-0.787-4.156-3.57-3.369-6.217
		s3.569-4.156,6.217-3.369c18.779,5.58,35.12,16.729,47.255,32.243c4.654,5.952,8.581,12.447,11.67,19.307
		c4.022,8.94,6.604,18.414,7.671,28.158c0.378,3.391,0.57,6.892,0.57,10.395c0,3.623-0.21,7.271-0.624,10.845
		c-2.994,26.116-16.995,49.959-38.412,65.41c-4.318,3.128-8.953,5.912-13.768,8.267c-5.255,2.558-10.764,4.63-16.381,6.163
		C224.633,250.543,216.282,251.66,207.845,251.66z"/>
	<path style="fill:#333333;" d="M184.345,271.81c-2.761,0-5-2.239-5-5v-23.29c0-2.761,2.239-5,5-5s5,2.239,5,5v23.29
		C189.345,269.571,187.106,271.81,184.345,271.81z"/>
	<path style="fill:#333333;" d="M231.345,271.81c-2.761,0-5-2.239-5-5v-23.29c0-2.761,2.239-5,5-5s5,2.239,5,5v23.29
		C236.345,269.571,234.106,271.81,231.345,271.81z"/>
	<path style="fill:#333333;" d="M131.405,244.18c-22.949,0-41.62-18.675-41.62-41.63c0-17.742,11.259-33.554,28.017-39.346
		c2.608-0.902,5.457,0.482,6.359,3.092s-0.482,5.457-3.092,6.359c-12.73,4.4-21.283,16.414-21.283,29.895
		c0,17.441,14.185,31.63,31.62,31.63c7.788,0,15.269-2.857,21.066-8.045c2.057-1.841,5.219-1.667,7.06,0.391
		c1.842,2.058,1.667,5.218-0.391,7.06C151.507,240.417,141.657,244.18,131.405,244.18z"/>
	<path style="fill:#333333;" d="M284.285,244.18c-10.264,0-20.115-3.763-27.738-10.597c-2.056-1.843-2.229-5.004-0.386-7.061
		c1.843-2.057,5.005-2.229,7.061-0.386c5.786,5.187,13.267,8.043,21.063,8.043c17.441,0,31.63-14.189,31.63-31.63
		c0-13.479-8.557-25.492-21.293-29.895c-2.61-0.902-3.995-3.749-3.092-6.359s3.75-3.995,6.359-3.092
		c16.764,5.794,28.027,21.606,28.027,39.346C325.915,225.504,307.24,244.18,284.285,244.18z"/>
	<path style="fill:#FFFFFF;" d="M293.476,229.321c-1.948,0-3.799-1.145-4.606-3.051c-1.077-2.543,0.111-5.478,2.653-6.555
		c6.92-2.932,11.391-9.669,11.391-17.166c0-2.508-0.495-4.948-1.47-7.253c-1.076-2.543,0.113-5.477,2.656-6.553
		c2.545-1.079,5.478,0.113,6.553,2.656c1.5,3.545,2.261,7.296,2.261,11.15c0,11.52-6.865,21.873-17.49,26.374
		C294.788,229.193,294.127,229.321,293.476,229.321z"/>
	<path style="fill:#333333;" d="M246.839,175c-2.456,0-4.598-1.81-4.946-4.311L226.491,60h-37.293l-15.401,110.689
		c-0.38,2.735-2.903,4.645-5.641,4.263c-2.735-0.38-4.644-2.906-4.263-5.641l16-114.999C180.237,51.84,182.35,50,184.846,50h46
		c2.496,0,4.609,1.84,4.953,4.312l16,114.999c0.381,2.735-1.528,5.261-4.263,5.642C247.301,174.985,247.068,175,246.839,175z"/>
	<path style="fill:#333333;" d="M246.845,242.69c-2.761,0-5-2.239-5-5v-34.023c0-2.761,2.239-5,5-5s5,2.239,5,5v34.023
		C251.845,240.451,249.606,242.69,246.845,242.69z"/>
	<path style="fill:#333333;" d="M246.845,195.333c-2.761,0-5-2.239-5-5V175h-38.23c-2.761,0-5-2.239-5-5s2.239-5,5-5h43.23
		c2.761,0,5,2.239,5,5v20.333C251.845,193.094,249.606,195.333,246.845,195.333z"/>
	<path style="fill:#333333;" d="M168.845,242.68c-2.761,0-5-2.239-5-5V170c0-2.761,2.239-5,5-5h16.103c2.761,0,5,2.239,5,5
		s-2.239,5-5,5h-11.103v62.68C173.845,240.441,171.606,242.68,168.845,242.68z"/>
	<path style="fill:#333333;" d="M246.848,175.001c-1.91,0-3.732-1.1-4.565-2.955c-1.13-2.52-0.004-5.479,2.515-6.609l49.46-22.19
		c2.519-1.131,5.478-0.004,6.609,2.515c1.13,2.52,0.004,5.479-2.515,6.609l-49.46,22.19
		C248.227,174.86,247.532,175.001,246.848,175.001z"/>
	<path style="fill:#333333;" d="M168.842,175.001c-0.684,0-1.379-0.142-2.044-0.44l-49.45-22.19c-2.52-1.13-3.646-4.089-2.515-6.608
		c1.13-2.519,4.089-3.646,6.608-2.515l49.45,22.19c2.52,1.13,3.646,4.089,2.515,6.608
		C172.574,173.902,170.751,175.001,168.842,175.001z"/>
	<path style="fill:#333333;" d="M174.401,135.111c-0.297,0-0.598-0.027-0.9-0.082l-47.85-8.7c-2.717-0.494-4.519-3.097-4.025-5.814
		c0.494-2.717,3.094-4.517,5.814-4.025l47.85,8.7c2.717,0.494,4.519,3.097,4.025,5.814
		C178.875,133.419,176.77,135.111,174.401,135.111z"/>
	
		<rect x="260.29" y="101.425" transform="matrix(-0.179 -0.9838 0.9838 -0.179 189.063 409.2608)" style="fill:#333333;" width="10" height="48.643"/>
	<path style="fill:#333333;" d="M207.845,45.16c-14.061,0-25.5-11.439-25.5-25.5c0-2.761,2.239-5,5-5h41c2.761,0,5,2.239,5,5
		C233.345,33.72,221.906,45.16,207.845,45.16z M193.172,24.66c2.085,6.101,7.875,10.5,14.673,10.5s12.588-4.399,14.673-10.5H193.172
		z"/>
	<path style="fill:#333333;" d="M207.845,60c-2.761,0-5-2.239-5-5V40.16c0-2.761,2.239-5,5-5s5,2.239,5,5V55
		C212.845,57.761,210.606,60,207.845,60z"/>
	<path style="fill:#FFFFFF;" d="M224.281,339.333c-2.761,0-5-2.239-5-5v-32.284c0-2.761,2.239-5,5-5s5,2.239,5,5v32.284
		C229.281,337.094,227.043,339.333,224.281,339.333z"/>
	<path style="fill:#FFFFFF;" d="M224.281,292.667c-2.761,0-5-2.239-5-5V281c0-2.761,2.239-5,5-5s5,2.239,5,5v6.667
		C229.281,290.428,227.043,292.667,224.281,292.667z"/>
	<path style="fill:#FFFFFF;" d="M228.245,152.578c-2.456,0-4.598-1.81-4.946-4.312l-7.587-54.539
		c-0.381-2.735,1.528-5.261,4.263-5.641c2.73-0.382,5.261,1.528,5.641,4.263l7.587,54.539c0.381,2.735-1.528,5.261-4.263,5.641
		C228.707,152.563,228.475,152.578,228.245,152.578z"/>
	<path style="fill:#FFFFFF;" d="M218.242,80.671c-2.456,0-4.598-1.81-4.946-4.312l-1.027-7.378
		c-0.381-2.735,1.528-5.261,4.263-5.642c2.732-0.381,5.261,1.528,5.641,4.263l1.027,7.379c0.381,2.735-1.528,5.261-4.263,5.641
		C218.704,80.656,218.471,80.671,218.242,80.671z"/>
	<path style="fill:#333333;" d="M207.845,24.66c-2.761,0-5-2.239-5-5V5c0-2.761,2.239-5,5-5s5,2.239,5,5v14.66
		C212.845,22.421,210.606,24.66,207.845,24.66z"/>
</g>
<g>
</g>
<g>
</g>
<g>
</g>
<g>
</g>
<g>
</g>
<g>
</g>
<g>
</g>
<g>
</g>
<g>
</g>
<g>
</g>
<g>
</g>
<g>
</g>
<g>
</g>
<g>
</g>
<g>
</g>
</svg>
