<?xml version="1.0" encoding="iso-8859-1"?>
<!-- Generator: Adobe Illustrator 19.0.0, SVG Export Plug-In . SVG Version: 6.00 Build 0)  -->
<svg version="1.1" id="Layer_1" xmlns="http://www.w3.org/2000/svg" xmlns:xlink="http://www.w3.org/1999/xlink" x="0px" y="0px"
	 viewBox="0 0 381.604 381.604" style="enable-background:new 0 0 381.604 381.604;" xml:space="preserve">
<g>
	<path style="fill:#F9911E;" d="M352.364,205.964c0,12.3-1.3,24.3-3.78,35.86c-68.98,29.7-110.37,21.47-201.86-43.47
		c-54.32-38.56-105.15-17.44-135.55,2.02c1.23-38.28,15.08-73.38,37.51-101.27c29.85-11.91,76.21-20.97,116.94,11.3
		c51.58,40.88,113.68,62.66,174.23,31.29C347.924,161.534,352.364,183.234,352.364,205.964z"/>
	<path style="fill:#E27F1B;" d="M348.584,241.824c-7.12,33.32-23.97,63.03-47.44,86.02c-11.33,11.11-24.22,20.66-38.3,28.27
		c-48.26-25.62-85.19-68.97-131.12-76.32c-40.07-6.41-69.44,9.87-88.09,26.43c-20.47-28.15-32.55-62.8-32.55-100.26
		c0-1.87,0.03-3.73,0.09-5.59c30.4-19.46,81.23-40.58,135.55-2.02C238.214,263.294,279.604,271.524,348.584,241.824z"/>
	<path style="fill:#F9A24B;" d="M284.094,69.424c24.57,18.46,44.01,43.39,55.76,72.27c-60.55,31.37-122.65,9.59-174.23-31.29
		c-40.73-32.27-87.09-23.21-116.94-11.3c28.71-35.7,71.5-59.6,119.93-63.28c4.33-0.33,8.7-0.5,13.11-0.5
		C220.134,35.324,255.574,48.014,284.094,69.424z"/>
	<path style="fill:#F9A24B;" d="M262.844,356.114c-24.13,13.07-51.76,20.49-81.12,20.49c-2.86,0-5.7-0.07-8.52-0.21
		c-53.27-2.62-100.11-29.67-129.57-70.17c18.65-16.56,48.02-32.84,88.09-26.43C177.654,287.144,214.584,330.494,262.844,356.114z"/>
	<path style="fill:#E27F1B;" d="M302.294,85.214c-49.92,13.9-120.57-49.89-120.57-49.89c38.41,0,73.85,12.69,102.37,34.1
		C290.534,74.254,296.614,79.534,302.294,85.214z"/>
	<g>
		<path style="fill:#333333;" d="M294.333,160.789c-2.508,0-4.67-1.882-4.962-4.433c-0.313-2.744,1.656-5.222,4.4-5.536
			c14.981-1.712,29.712-6.276,43.782-13.566c2.448-1.27,5.469-0.313,6.739,2.139s0.313,5.469-2.14,6.74
			c-15.154,7.852-31.051,12.771-47.247,14.622C294.714,160.778,294.523,160.789,294.333,160.789z"/>
		<path style="fill:#333333;" d="M276.17,161.559c-0.048,0-0.096-0.001-0.144-0.002c-4.256-0.12-8.595-0.444-12.897-0.965
			c-2.741-0.332-4.695-2.823-4.363-5.565c0.332-2.741,2.826-4.693,5.564-4.363c3.999,0.484,8.028,0.786,11.978,0.897
			c2.76,0.078,4.935,2.378,4.857,5.138C281.089,159.411,278.866,161.559,276.17,161.559z"/>
		<path style="fill:#333333;" d="M245.15,157.131c-0.408,0-0.823-0.05-1.236-0.156c-26.951-6.857-54.336-21.207-81.395-42.653
			C124.183,83.95,80.463,91.808,50.536,103.748c-2.563,1.025-5.474-0.227-6.496-2.791c-1.023-2.565,0.226-5.474,2.791-6.497
			c32.379-12.919,79.812-21.319,121.898,12.025c25.947,20.565,52.072,34.292,77.648,40.799c2.677,0.681,4.294,3.402,3.613,6.079
			C249.416,155.625,247.381,157.131,245.15,157.131z"/>
		<path style="fill:#333333;" d="M281.427,263.324c-8.814,0-17.492-0.967-26.371-2.854c-29.867-6.348-62.092-23.163-111.227-58.039
			c-23.035-16.353-47.674-23.037-73.234-19.863c-2.74,0.34-5.238-1.606-5.578-4.346s1.605-5.238,4.346-5.578
			c28.118-3.489,55.118,3.787,80.256,21.632c47.306,33.578,79.46,50.448,107.517,56.412c27.683,5.884,53.607,1.985,89.472-13.457
			c2.535-1.091,5.479,0.079,6.57,2.615c1.092,2.536-0.079,5.478-2.615,6.57C323.889,257.901,302.288,263.324,281.427,263.324z"/>
		<path style="fill:#333333;" d="M11.179,205.375c-1.648,0-3.262-0.814-4.216-2.305c-1.489-2.326-0.811-5.418,1.516-6.907
			c13.432-8.598,26.926-15.003,40.106-19.036c2.641-0.808,5.436,0.677,6.244,3.318c0.808,2.641-0.678,5.436-3.318,6.244
			c-12.311,3.767-24.976,9.788-37.642,17.896C13.036,205.12,12.102,205.375,11.179,205.375z"/>
		<path style="fill:#333333;" d="M262.84,361.115c-0.791,0-1.594-0.188-2.341-0.585c-18.64-9.896-35.489-22.294-51.783-34.285
			c-1.801-1.325-3.595-2.645-5.384-3.956c-2.227-1.632-2.709-4.761-1.077-6.989c1.633-2.228,4.761-2.709,6.989-1.077
			c1.794,1.315,3.593,2.639,5.398,3.967c16.004,11.777,32.553,23.955,50.546,33.507c2.438,1.295,3.366,4.322,2.071,6.761
			C266.363,360.151,264.63,361.115,262.84,361.115z"/>
		<path style="fill:#333333;" d="M43.636,311.224c-1.38,0-2.753-0.567-3.741-1.68c-1.833-2.065-1.646-5.225,0.419-7.059
			c18.448-16.381,49.417-34.471,92.2-27.628c22.613,3.619,42.184,15.318,58.344,26.285c2.285,1.551,2.88,4.66,1.33,6.945
			c-1.551,2.285-4.657,2.882-6.945,1.33c-15.251-10.35-33.63-21.376-54.309-24.685c-38.921-6.226-67.148,10.285-83.979,25.231
			C46.002,310.809,44.817,311.224,43.636,311.224z"/>
		<path style="fill:#333333;" d="M286.935,92.219c-18.903,0-41.083-7.507-66.201-22.44C196.681,55.48,179.11,39.7,178.373,39.035
			c-2.05-1.85-2.211-5.011-0.361-7.061c1.85-2.049,5.011-2.212,7.062-0.362c0.687,0.619,69.193,61.782,115.88,48.785
			c2.653-0.741,5.417,0.814,6.157,3.475c0.741,2.66-0.815,5.417-3.476,6.158C298.394,91.49,292.823,92.219,286.935,92.219z"/>
	</g>
	<circle style="fill:#FCBC1D;" cx="337.214" cy="38.306" r="33.306"/>
	<path style="opacity:0.25;enable-background:new    ;" d="M303.908,38.304c0,18.396,14.907,33.31,33.303,33.31
		c2.855,0,5.633-0.359,8.274-1.034c-14.39-3.682-25.029-16.734-25.029-32.275s10.639-28.587,25.029-32.268
		c-2.641-0.676-5.419-1.034-8.274-1.034C318.815,5.002,303.908,19.909,303.908,38.304z"/>
	<path style="fill:#333333;" d="M337.214,76.612c-21.122,0-38.307-17.184-38.307-38.306S316.092,0,337.214,0
		s38.306,17.184,38.306,38.306S358.336,76.612,337.214,76.612z M337.214,10c-15.608,0-28.307,12.698-28.307,28.306
		s12.698,28.306,28.307,28.306c15.607,0,28.306-12.698,28.306-28.306S352.822,10,337.214,10z"/>
	<path style="opacity:0.25;enable-background:new    ;" d="M196.332,367.318c-19.96-7.05-38.22-17.72-53.98-31.21
		c-36.59-31.3-59.78-77.8-59.78-129.72c0-46.04,18.24-87.83,47.88-118.52c16.33-16.91,36.12-30.46,58.23-39.5
		c9.22-3.765,18.846-6.738,28.788-8.857c-11.529-2.458-23.483-3.763-35.745-3.763c-22.84,0-44.62,4.49-64.53,12.62
		c-22.11,9.04-41.9,22.59-58.23,39.5c-29.64,30.69-47.88,72.48-47.88,118.52c0,51.92,23.19,98.42,59.78,129.72
		c15.76,13.49,34.02,24.16,53.98,31.21c17.79,6.29,36.94,9.71,56.88,9.71c12.255,0,24.208-1.3,35.734-3.756
		C210.238,371.732,203.183,369.74,196.332,367.318z"/>
	<g>
		<path style="fill:#FFFFFF;" d="M256.421,82.927c-0.906,0-1.824-0.247-2.649-0.763c-5.901-3.697-12.115-6.993-18.472-9.799
			c-2.526-1.115-3.67-4.067-2.555-6.594c1.115-2.525,4.063-3.671,6.594-2.555c6.793,2.999,13.435,6.523,19.741,10.473
			c2.34,1.466,3.049,4.551,1.583,6.892C259.714,82.095,258.086,82.927,256.421,82.927z"/>
		<path style="fill:#FFFFFF;" d="M279.52,320.669c-1.336,0-2.668-0.532-3.652-1.584c-1.887-2.017-1.781-5.181,0.235-7.067
			c29.375-27.483,46.223-66.24,46.223-106.334c0-40.323-16.17-77.855-45.532-105.683c-2.004-1.9-2.089-5.064-0.189-7.069
			c1.9-2.004,5.064-2.089,7.068-0.19c31.375,29.736,48.653,69.846,48.653,112.942c0,42.851-18.002,84.27-49.391,113.636
			C281.971,320.223,280.744,320.669,279.52,320.669z"/>
		<path style="fill:#FFFFFF;" d="M258.489,337.131c-1.637,0-3.241-0.803-4.199-2.278c-1.503-2.316-0.845-5.413,1.472-6.916
			c2.55-1.655,5.081-3.413,7.524-5.226c2.219-1.646,5.35-1.181,6.995,1.035c1.646,2.218,1.182,5.349-1.036,6.995
			c-2.61,1.937-5.314,3.816-8.038,5.584C260.366,336.871,259.421,337.131,258.489,337.131z"/>
	</g>
	<path style="fill:#333333;" d="M344.185,37.953c-0.33,0-0.66-0.03-0.98-0.1c-0.319-0.06-0.63-0.16-0.93-0.28
		c-0.31-0.13-0.6-0.28-0.87-0.46s-0.53-0.39-0.76-0.62c-0.93-0.94-1.46-2.22-1.46-3.54c0-1.31,0.53-2.6,1.46-3.53
		c0.229-0.23,0.49-0.44,0.76-0.63c0.271-0.18,0.561-0.33,0.87-0.46c0.3-0.12,0.61-0.22,0.93-0.28c0.65-0.13,1.311-0.13,1.96,0
		c0.32,0.06,0.631,0.16,0.931,0.28c0.3,0.13,0.59,0.28,0.859,0.46c0.28,0.19,0.53,0.4,0.761,0.63c0.239,0.23,0.439,0.48,0.63,0.76
		c0.18,0.27,0.33,0.56,0.45,0.86c0.13,0.3,0.229,0.62,0.29,0.93c0.06,0.33,0.1,0.66,0.1,0.98c0,0.33-0.04,0.66-0.1,0.98
		c-0.061,0.32-0.16,0.63-0.29,0.93c-0.12,0.3-0.271,0.6-0.45,0.87c-0.19,0.27-0.391,0.53-0.63,0.76c-0.23,0.23-0.48,0.44-0.761,0.62
		c-0.27,0.18-0.56,0.33-0.859,0.46c-0.3,0.12-0.61,0.22-0.931,0.28C344.835,37.923,344.515,37.953,344.185,37.953z"/>
	<path style="fill:#333333;" d="M334.185,51.953c-0.33,0-0.66-0.03-0.98-0.1c-0.319-0.06-0.63-0.16-0.93-0.28
		c-0.31-0.13-0.6-0.28-0.87-0.46s-0.53-0.39-0.76-0.62c-0.93-0.93-1.46-2.22-1.46-3.54c0-0.32,0.03-0.65,0.1-0.98
		c0.061-0.31,0.16-0.63,0.28-0.93c0.13-0.3,0.28-0.59,0.46-0.86c0.18-0.28,0.39-0.53,0.62-0.76c0.229-0.23,0.49-0.44,0.76-0.63
		c0.271-0.18,0.561-0.33,0.87-0.46c0.3-0.12,0.61-0.22,0.93-0.28c1.631-0.33,3.351,0.2,4.511,1.37c0.229,0.23,0.439,0.48,0.63,0.76
		c0.18,0.27,0.33,0.56,0.46,0.86c0.12,0.3,0.22,0.62,0.28,0.93c0.069,0.33,0.1,0.66,0.1,0.98c0,1.32-0.54,2.61-1.47,3.54
		C336.785,51.423,335.495,51.953,334.185,51.953z"/>
	<path style="fill:#FFFFFF;" d="M355.265,51.935c-0.699,0-1.408-0.147-2.085-0.458c-2.509-1.153-3.608-4.122-2.455-6.631
		c2.259-4.916,1.923-10.626-0.899-15.274c-1.433-2.361-0.681-5.436,1.68-6.869c2.36-1.433,5.436-0.681,6.869,1.679
		c4.547,7.491,5.085,16.702,1.437,24.64C358.969,50.854,357.158,51.935,355.265,51.935z"/>
	<path style="fill:#333333;" d="M181.724,381.604c-2.933,0-5.883-0.073-8.768-0.216c-53.273-2.62-101.885-28.944-133.365-72.223
		C17.67,279.021,6.084,243.334,6.084,205.964c0-1.932,0.031-3.867,0.093-5.753c1.23-38.316,14.582-74.363,38.61-104.241
		c30.349-37.737,75.343-61.477,123.447-65.132c4.48-0.341,9.02-0.514,13.489-0.514c38.345,0,74.781,12.138,105.372,35.101
		c6.582,4.937,12.885,10.405,18.731,16.251l0,0c16.78,16.76,29.787,36.319,38.658,58.134c8.545,21.008,12.878,43.265,12.878,66.154
		c0,12.455-1.309,24.873-3.891,36.908c-7.197,33.683-24.083,64.302-48.83,88.543c-11.745,11.517-25.01,21.308-39.422,29.097
		C239.749,374.31,210.874,381.604,181.724,381.604z M181.724,40.324c-4.218,0-8.501,0.163-12.73,0.486
		c-45.36,3.447-87.791,25.836-116.413,61.428c-22.658,28.174-35.248,62.165-36.409,98.297c-0.058,1.78-0.087,3.606-0.087,5.43
		c0,35.243,10.925,68.896,31.594,97.319c29.691,40.818,75.533,65.646,125.771,68.117c2.724,0.135,5.507,0.204,8.274,0.204
		c27.492,0,54.72-6.877,78.738-19.886c13.594-7.347,26.102-16.579,37.181-27.444c23.342-22.864,39.266-51.735,46.052-83.495
		c2.435-11.351,3.669-23.063,3.669-34.815c0-21.591-4.085-42.58-12.142-62.386c-8.365-20.571-20.632-39.017-36.461-54.826
		l-0.002-0.002c-5.515-5.513-11.458-10.67-17.665-15.326C252.247,51.77,217.886,40.324,181.724,40.324z"/>
</g>
<g>
</g>
<g>
</g>
<g>
</g>
<g>
</g>
<g>
</g>
<g>
</g>
<g>
</g>
<g>
</g>
<g>
</g>
<g>
</g>
<g>
</g>
<g>
</g>
<g>
</g>
<g>
</g>
<g>
</g>
</svg>
