<?xml version="1.0" encoding="iso-8859-1"?>
<!-- Generator: Adobe Illustrator 19.0.0, SVG Export Plug-In . SVG Version: 6.00 Build 0)  -->
<svg version="1.1" id="Layer_1" xmlns="http://www.w3.org/2000/svg" xmlns:xlink="http://www.w3.org/1999/xlink" x="0px" y="0px"
	 viewBox="0 0 400.611 400.611" style="enable-background:new 0 0 400.611 400.611;" xml:space="preserve">
<g>
	<circle style="fill:#FCBC1D;" cx="64.216" cy="209.766" r="33.677"/>
	<path style="opacity:0.25;enable-background:new    ;" d="M76.402,241.158c-3.779,1.479-7.892,2.284-12.191,2.284
		c-18.595,0-33.672-15.076-33.672-33.68c0-18.595,15.076-33.672,33.672-33.672c4.299,0,8.412,0.805,12.191,2.276
		c-12.573,4.884-21.489,17.1-21.489,31.396C54.913,224.067,63.829,236.282,76.402,241.158z"/>
	<path style="fill:#333333;" d="M64.215,248.443c-21.326,0-38.677-17.35-38.677-38.677s17.351-38.677,38.677-38.677
		c21.327,0,38.678,17.35,38.678,38.677S85.543,248.443,64.215,248.443z M64.215,181.09c-15.813,0-28.677,12.864-28.677,28.677
		s12.864,28.677,28.677,28.677s28.678-12.864,28.678-28.677S80.028,181.09,64.215,181.09z"/>
	<path style="fill:#FFFFFF;" d="M79.44,225.57c-1.003,0-2.016-0.301-2.895-0.926c-2.25-1.601-2.776-4.722-1.176-6.973
		c1.65-2.32,2.522-5.053,2.522-7.905c0-5.503-3.283-10.45-8.363-12.603c-2.543-1.078-3.73-4.012-2.653-6.555
		c1.077-2.542,4.011-3.729,6.554-2.653c8.786,3.723,14.463,12.284,14.463,21.811c0,4.941-1.513,9.679-4.374,13.702
		C82.543,224.838,81.003,225.57,79.44,225.57z"/>
	<circle style="fill:#FCBC1D;" cx="233.411" cy="375.453" r="20.158"/>
	<path style="opacity:0.25;enable-background:new    ;" d="M240.705,394.243c-2.262,0.886-4.724,1.367-7.297,1.367
		c-11.131,0-20.155-9.024-20.155-20.159c0-11.13,9.024-20.155,20.155-20.155c2.573,0,5.035,0.482,7.297,1.362
		c-7.526,2.924-12.862,10.235-12.862,18.792C227.842,384.012,233.179,391.324,240.705,394.243z"/>
	<path style="fill:#333333;" d="M233.411,400.611c-13.872,0-25.157-11.286-25.157-25.158s11.285-25.158,25.157-25.158
		s25.158,11.286,25.158,25.158S247.283,400.611,233.411,400.611z M233.411,360.295c-8.357,0-15.157,6.8-15.157,15.158
		s6.8,15.158,15.157,15.158c8.358,0,15.158-6.8,15.158-15.158C248.569,367.094,241.769,360.295,233.411,360.295z"/>
	<path style="fill:#FFFFFF;" d="M238.569,380.452c-2.762,0-5-2.239-5-5v-1.264c0-2.762,2.238-5,5-5s5,2.238,5,5v1.264
		C243.569,378.214,241.331,380.452,238.569,380.452z"/>
	<path style="fill:#333333;" d="M71.451,159.905c-1.279,0-2.56-0.488-3.535-1.464c-1.953-1.953-1.953-5.119,0-7.071l66.468-66.468
		c1.951-1.952,5.119-1.952,7.07,0c1.953,1.953,1.953,5.119,0,7.071l-66.468,66.468C74.01,159.417,72.73,159.905,71.451,159.905z"/>
	<path style="fill:#333333;" d="M154.889,76.467c-1.279,0-2.56-0.488-3.535-1.464c-1.953-1.953-1.953-5.119,0-7.071l66.468-66.468
		c1.951-1.952,5.119-1.952,7.07,0c1.953,1.953,1.953,5.119,0,7.071l-66.468,66.468C157.449,75.978,156.169,76.467,154.889,76.467z"
		/>
	<path style="fill:#333333;" d="M115.542,211.067c-1.279,0-2.56-0.488-3.535-1.464c-1.953-1.953-1.953-5.119,0-7.071l70.003-70.004
		c1.951-1.952,5.119-1.952,7.07,0c1.953,1.953,1.953,5.119,0,7.071l-70.003,70.004C118.101,210.579,116.821,211.067,115.542,211.067
		z"/>
	<path style="fill:#333333;" d="M200.394,126.214c-1.279,0-2.56-0.488-3.535-1.464c-1.953-1.953-1.953-5.119,0-7.071l8.485-8.485
		c1.951-1.952,5.119-1.952,7.07,0c1.953,1.953,1.953,5.119,0,7.071l-8.485,8.485C202.954,125.726,201.673,126.214,200.394,126.214z"
		/>
	<path style="fill:#333333;" d="M111.045,183.813c-1.279,0-2.56-0.488-3.535-1.464c-1.953-1.953-1.953-5.119,0-7.071l97.516-97.516
		c1.951-1.952,5.119-1.952,7.07,0c1.953,1.953,1.953,5.119,0,7.071l-97.516,97.516C113.604,183.325,112.324,183.813,111.045,183.813
		z"/>
	<path style="fill:#333333;" d="M117.089,146.017c-1.279,0-2.56-0.488-3.535-1.464c-1.953-1.953-1.953-5.119,0-7.071l97.516-97.516
		c1.951-1.952,5.119-1.952,7.07,0c1.953,1.953,1.953,5.119,0,7.071l-97.516,97.516C119.649,145.529,118.369,146.017,117.089,146.017
		z"/>
	<path style="fill:#333333;" d="M94.462,168.645c-1.279,0-2.56-0.488-3.535-1.464c-1.953-1.953-1.953-5.119,0-7.071l11.249-11.249
		c1.951-1.952,5.119-1.952,7.07,0c1.953,1.953,1.953,5.119,0,7.071l-11.249,11.249C97.021,168.156,95.741,168.645,94.462,168.645z"
		/>
	<circle style="fill:#FCBC1D;" cx="91.566" cy="350.248" r="41.437"/>
	<path style="opacity:0.25;enable-background:new    ;" d="M106.56,388.873c-4.65,1.82-9.71,2.81-15,2.81
		c-22.88,0-41.43-18.55-41.43-41.44c0-22.88,18.55-41.43,41.43-41.43c5.29,0,10.35,0.99,15,2.8c-15.47,6.01-26.44,21.04-26.44,38.63
		C80.119,367.843,91.089,382.873,106.56,388.873z"/>
	<path style="fill:#333333;" d="M91.566,396.685c-25.605,0-46.437-20.832-46.437-46.437s20.831-46.437,46.437-46.437
		s46.437,20.832,46.437,46.437S117.172,396.685,91.566,396.685z M91.566,313.811c-20.091,0-36.437,16.346-36.437,36.437
		s16.346,36.437,36.437,36.437s36.437-16.345,36.437-36.437S111.657,313.811,91.566,313.811z"/>
	<path style="fill:#FFFFFF;" d="M111.673,372.392c-1.149,0-2.303-0.394-3.245-1.198c-2.1-1.793-2.349-4.949-0.555-7.049
		c3.308-3.874,5.13-8.809,5.13-13.896c0-8.626-5.145-16.379-13.107-19.752c-2.543-1.077-3.73-4.012-2.653-6.554
		c1.076-2.543,4.01-3.73,6.554-2.654c11.668,4.943,19.207,16.31,19.207,28.96c0,7.466-2.673,14.708-7.526,20.391
		C114.489,371.797,113.086,372.392,111.673,372.392z"/>
	<path style="fill:#333333;" d="M114.525,273.689c-1.279,0-2.56-0.488-3.535-1.464c-1.953-1.953-1.953-5.119,0-7.071l86.267-86.267
		c1.951-1.952,5.119-1.952,7.07,0c1.953,1.953,1.953,5.119,0,7.071l-86.267,86.267C117.085,273.201,115.804,273.689,114.525,273.689
		z"/>
	<path style="fill:#333333;" d="M89.189,299.025c-1.279,0-2.559-0.488-3.535-1.464c-1.953-1.953-1.953-5.118-0.001-7.071
		l5.536-5.537c1.953-1.953,5.118-1.953,7.071,0c1.953,1.953,1.953,5.118,0.001,7.071l-5.536,5.537
		C91.749,298.537,90.468,299.025,89.189,299.025z"/>
	<path style="fill:#333333;" d="M121.397,305.884c-1.279,0-2.56-0.488-3.535-1.464c-1.953-1.953-1.953-5.119,0-7.071
		l138.525-138.525c1.951-1.952,5.119-1.952,7.07,0c1.953,1.953,1.953,5.119,0,7.071L124.932,304.419
		C123.957,305.395,122.676,305.884,121.397,305.884z"/>
	<path style="fill:#333333;" d="M171.976,294.372c-1.279,0-2.56-0.488-3.535-1.464c-1.953-1.953-1.953-5.119,0-7.071l107.48-107.48
		c1.951-1.952,5.119-1.952,7.07,0c1.953,1.953,1.953,5.119,0,7.071l-107.48,107.48C174.536,293.884,173.255,294.372,171.976,294.372
		z"/>
	<path style="fill:#333333;" d="M140.93,325.417c-1.279,0-2.56-0.488-3.535-1.464c-1.953-1.953-1.953-5.119,0-7.071l15.489-15.489
		c1.951-1.952,5.119-1.952,7.07,0c1.953,1.953,1.953,5.119,0,7.071l-15.489,15.489C143.49,324.928,142.21,325.417,140.93,325.417z"
		/>
	<path style="fill:#333333;" d="M226.158,279.257c-1.279,0-2.56-0.488-3.535-1.464c-1.953-1.953-1.953-5.119,0-7.071l33.233-33.234
		c1.951-1.952,5.119-1.952,7.07,0c1.953,1.953,1.953,5.119,0,7.071l-33.233,33.234C228.717,278.768,227.437,279.257,226.158,279.257
		z"/>
	<path style="fill:#333333;" d="M152.619,352.796c-1.279,0-2.56-0.488-3.535-1.464c-1.953-1.953-1.953-5.119,0-7.071l59.396-59.397
		c1.951-1.952,5.119-1.952,7.07,0c1.953,1.953,1.953,5.119,0,7.071l-59.396,59.397C155.178,352.308,153.898,352.796,152.619,352.796
		z"/>
	<path style="fill:#333333;" d="M238.426,346.929c-1.279,0-2.56-0.488-3.535-1.464c-1.953-1.953-1.953-5.119,0-7.071l48.208-48.208
		c1.951-1.952,5.119-1.952,7.07,0c1.953,1.953,1.953,5.119,0,7.071l-48.208,48.208C240.986,346.441,239.706,346.929,238.426,346.929
		z"/>
	<path style="fill:#333333;" d="M302.596,282.76c-1.279,0-2.56-0.488-3.535-1.464c-1.953-1.953-1.953-5.119,0-7.071l67.477-67.478
		c1.951-1.952,5.119-1.952,7.07,0c1.953,1.953,1.953,5.119,0,7.071l-67.477,67.478C305.156,282.272,303.876,282.76,302.596,282.76z"
		/>
	<path style="fill:#333333;" d="M260.988,352.876c-1.279,0-2.56-0.488-3.535-1.464c-1.953-1.953-1.953-5.119,0-7.071l54.043-54.042
		c1.951-1.952,5.119-1.952,7.07,0c1.953,1.953,1.953,5.119,0,7.071l-54.043,54.042C263.547,352.387,262.267,352.876,260.988,352.876
		z"/>
	<path style="fill:#333333;" d="M331.699,282.165c-1.279,0-2.56-0.488-3.535-1.464c-1.953-1.953-1.953-5.119,0-7.071l27.879-27.879
		c1.951-1.952,5.119-1.952,7.07,0c1.953,1.953,1.953,5.119,0,7.071l-27.879,27.879C334.258,281.676,332.978,282.165,331.699,282.165
		z"/>
	<path style="fill:#333333;" d="M271,371.372c-1.279,0-2.56-0.488-3.535-1.464c-1.953-1.953-1.953-5.119,0-7.071l26.465-26.465
		c1.951-1.952,5.119-1.952,7.07,0c1.953,1.953,1.953,5.119,0,7.071l-26.465,26.465C273.559,370.884,272.279,371.372,271,371.372z"/>
	<path style="fill:#333333;" d="M312.011,330.36c-1.279,0-2.56-0.488-3.535-1.464c-1.953-1.953-1.953-5.119,0-7.071l6.666-6.666
		c1.951-1.952,5.119-1.952,7.07,0c1.953,1.953,1.953,5.119,0,7.071l-6.666,6.666C314.571,329.871,313.291,330.36,312.011,330.36z"/>
</g>
<g>
</g>
<g>
</g>
<g>
</g>
<g>
</g>
<g>
</g>
<g>
</g>
<g>
</g>
<g>
</g>
<g>
</g>
<g>
</g>
<g>
</g>
<g>
</g>
<g>
</g>
<g>
</g>
<g>
</g>
</svg>
