<?xml version="1.0" encoding="iso-8859-1"?>
<!-- Generator: Adobe Illustrator 19.0.0, SVG Export Plug-In . SVG Version: 6.00 Build 0)  -->
<svg version="1.1" id="Layer_1" xmlns="http://www.w3.org/2000/svg" xmlns:xlink="http://www.w3.org/1999/xlink" x="0px" y="0px"
	 viewBox="0 0 400.541 400.541" style="enable-background:new 0 0 400.541 400.541;" xml:space="preserve">
<g>
	<path style="fill:#FCBC1D;" d="M366.54,224.544c8.28,0,15,6.72,15,15s-6.72,15-15,15s-15-6.72-15-15c0-1.94,0.37-3.79,1.04-5.49
		C354.77,228.484,360.2,224.544,366.54,224.544z"/>
	<path style="fill:#F24125;" d="M287.79,289.104c6.43,2.63,9.51,9.97,6.89,16.4c-2.63,6.42-9.97,9.51-16.4,6.88
		c-6.42-2.62-9.51-9.96-6.88-16.39C274.02,289.564,281.36,286.484,287.79,289.104z"/>
	<path style="fill:#F24125;" d="M179.64,289.104c6.43,2.63,9.52,9.97,6.89,16.4c-2.62,6.42-9.96,9.51-16.39,6.88
		c-6.43-2.62-9.51-9.96-6.89-16.39C165.88,289.564,173.22,286.484,179.64,289.104z"/>
	<circle style="fill:#61CCF2;" cx="253.45" cy="203.734" r="16.1"/>
	<circle style="fill:#61CCF2;" cx="174.89" cy="203.734" r="16.1"/>
	<path style="fill:#FCBC1D;" d="M300.09,258.964c5.53,2.26,10.37,5.49,14.41,9.41v0.01c4.39,4.26,7.82,9.34,10.14,14.88
		c4.48,10.65,4.89,23,0.18,34.54c-4.71,11.54-13.65,20.08-24.3,24.55c-10.65,4.48-23,4.89-34.54,0.18
		c-11.54-4.71-20.07-13.65-24.55-24.3c-2.31-5.49-3.54-11.44-3.54-17.49c0-5.69,1.08-11.46,3.36-17.05
		c4.71-11.54,13.66-20.08,24.31-24.55C276.2,254.664,288.56,254.254,300.09,258.964z M294.68,305.504
		c2.62-6.43-0.46-13.77-6.89-16.4c-6.43-2.62-13.77,0.46-16.39,6.89c-2.63,6.43,0.46,13.77,6.88,16.39
		C284.71,315.014,292.05,311.924,294.68,305.504z"/>
	<path style="fill:#FCBC1D;" d="M157.41,259.144c10.65-4.48,23-4.89,34.54-0.18c11.54,4.71,20.08,13.65,24.55,24.3
		c2.31,5.49,3.54,11.43,3.54,17.48c0,5.69-1.08,11.47-3.36,17.06c-4.71,11.54-13.65,20.07-24.3,24.55
		c-10.65,4.48-23,4.89-34.54,0.18c-11.54-4.71-20.08-13.66-24.55-24.31c-2.31-5.49-3.54-11.43-3.54-17.48
		c0-5.69,1.08-11.46,3.36-17.05C137.82,272.154,146.76,263.614,157.41,259.144z M186.53,305.504c2.63-6.43-0.46-13.77-6.89-16.4
		c-6.42-2.62-13.76,0.46-16.39,6.89c-2.62,6.43,0.46,13.77,6.89,16.39C176.57,315.014,183.91,311.924,186.53,305.504z"/>
	<polygon style="fill:#1AA5E2;" points="329.54,149.064 327.49,165.354 22.29,165.354 22.09,163.734 22.09,163.724 20.24,149.064 
		75.08,149.064 141.62,149.064 208.16,149.064 274.69,149.064 	"/>
	<path style="fill:#1AA5E2;" d="M49.27,259.144c-5.15,2.16-9.91,5.28-13.98,9.24l-0.01-0.01l-8.15-64.63l0.12-0.01h52.99
		c0,8.89,7.2,16.1,16.09,16.1s16.1-7.21,16.1-16.1h46.36c0,8.89,7.21,16.1,16.1,16.1s16.1-7.21,16.1-16.1h46.36
		c0,8.89,7.21,16.1,16.1,16.1c8.89,0,16.1-7.21,16.1-16.1h52.61l0.48,0.06l-2.22,17.61l-5.92,46.97c-4.04-3.92-8.88-7.15-14.41-9.41
		c-11.53-4.71-23.89-4.3-34.53,0.18c-10.65,4.47-19.6,13.01-24.31,24.55c-2.28,5.59-3.36,11.36-3.36,17.05h-17.85
		c0-6.05-1.23-11.99-3.54-17.48c-4.47-10.65-13.01-19.59-24.55-24.3c-11.54-4.71-23.89-4.3-34.54,0.18
		c-10.65,4.47-19.59,13.01-24.3,24.55c-2.28,5.59-3.36,11.36-3.36,17.05h-17.86c0-6.05-1.23-11.99-3.53-17.48
		c-4.48-10.65-13.01-19.59-24.55-24.3C72.27,254.254,59.92,254.664,49.27,259.144z"/>
	<path style="fill:#F24125;" d="M327.25,167.194l-4.61,36.6l-0.48-0.06h-52.61c0-8.89-7.21-16.1-16.1-16.1
		c-8.89,0-16.1,7.21-16.1,16.1h-46.36c0-8.89-7.21-16.1-16.1-16.1s-16.1,7.21-16.1,16.1h-46.36c0-8.89-7.21-16.1-16.1-16.1
		s-16.09,7.21-16.09,16.1H27.25l-0.12,0.01l-4.84-38.39h305.2L327.25,167.194z"/>
	<polygon style="opacity:0.25;enable-background:new    ;" points="20.24,149.064 89.54,149.064 101.54,296.544 40.54,294.544 	"/>
	<path style="fill:#FCBC1D;" d="M344.78,149.064h-15.24h-54.85v-2.64v-30.46C301.94,124.074,325.81,135.404,344.78,149.064z"/>
	<path style="fill:#61CCF2;" d="M96.33,187.634c8.89,0,16.1,7.21,16.1,16.1s-7.21,16.1-16.1,16.1s-16.09-7.21-16.09-16.1
		S87.44,187.634,96.33,187.634z"/>
	<path style="fill:#FCBC1D;" d="M274.69,146.424v2.64h-66.53v-2.64v-42.91c23.65,2.08,46.05,6.36,66.53,12.45V146.424z"/>
	<path style="fill:#FCBC1D;" d="M208.16,146.424v2.64h-66.54v-2.64v-42.91c10.85-0.96,21.96-1.46,33.27-1.46s22.42,0.5,33.27,1.46
		V146.424z"/>
	<path style="fill:#FCBC1D;" d="M141.62,146.424v2.64H75.08v-2.64v-30.46c20.49-6.09,42.88-10.37,66.54-12.45V146.424z"/>
	<path style="fill:#FCBC1D;" d="M75.08,146.424v2.64H20.24H5c7.15-5.15,15-9.97,23.47-14.41c6.82-3.58,14.04-6.91,21.61-9.96v-0.01
		c7.96-3.22,16.31-6.13,25-8.72V146.424z"/>
	<path style="fill:#1AA5E2;" d="M50.08,124.684v0.01c-7.57,3.05-14.79,6.38-21.61,9.96l-0.28-0.54v-38.57h21.7v28.68L50.08,124.684z
		"/>
	<path style="fill:#333333;" d="M174.899,350.909c-6.414,0-12.829-1.248-18.948-3.745c-12.401-5.062-22.086-14.652-27.271-27.004
		c-2.607-6.196-3.929-12.73-3.929-19.415c0-6.499,1.255-12.871,3.73-18.938c5.063-12.405,14.65-22.09,26.995-27.272
		c12.335-5.189,25.961-5.262,38.365-0.199c12.404,5.063,22.09,14.65,27.271,26.995c2.606,6.194,3.93,12.728,3.93,19.415
		c0,6.503-1.255,12.878-3.729,18.948l-0.001,0.001c-5.057,12.391-14.643,22.075-26.99,27.27
		C188.068,349.593,181.485,350.909,174.899,350.909z M174.891,260.595c-5.271,0-10.539,1.053-15.542,3.158
		c-9.884,4.148-17.557,11.901-21.609,21.83c-1.983,4.862-2.989,9.964-2.989,15.161c0,5.346,1.059,10.575,3.148,15.541
		c4.152,9.892,11.904,17.568,21.831,21.62c9.927,4.052,20.836,3.995,30.712-0.16c9.887-4.159,17.561-11.911,21.609-21.829l0,0
		c1.983-4.865,2.989-9.97,2.989-15.172c0-5.348-1.06-10.577-3.148-15.541c-4.148-9.884-11.901-17.558-21.831-21.61
		C185.163,261.595,180.025,260.595,174.891,260.595z M216.68,317.805h0.01H216.68z"/>
	<path style="fill:#333333;" d="M156.018,351.996c-0.629,0-1.269-0.12-1.888-0.372c-2.557-1.043-3.783-3.962-2.74-6.519l2.758-6.765
		c1.041-2.558,3.957-3.789,6.516-2.747c2.558,1.041,3.788,3.958,2.747,6.516l-2.762,6.775
		C159.858,350.822,157.99,351.996,156.018,351.996z"/>
	<path style="fill:#333333;" d="M191.008,266.276c-0.627,0-1.265-0.119-1.882-0.37c-2.558-1.041-3.788-3.958-2.747-6.516
		l2.762-6.775c1.043-2.556,3.961-3.784,6.519-2.74c2.557,1.043,3.784,3.961,2.74,6.519l-2.758,6.765
		C194.852,265.099,192.982,266.276,191.008,266.276z"/>
	<path style="fill:#333333;" d="M128.852,325.096c-1.951,0-3.805-1.149-4.61-3.061c-1.072-2.545,0.122-5.477,2.667-6.549
		l6.755-2.836c2.551-1.064,5.477,0.141,6.54,2.688c1.063,2.548-0.14,5.477-2.688,6.54l-6.725,2.824
		C130.157,324.97,129.499,325.096,128.852,325.096z"/>
	<path style="fill:#333333;" d="M214.202,289.236c-1.95,0-3.804-1.148-4.609-3.059c-1.072-2.545,0.12-5.477,2.665-6.55l6.737-2.833
		c2.542-1.068,5.477,0.128,6.546,2.675c1.068,2.546-0.129,5.477-2.675,6.545l-6.724,2.828
		C215.509,289.109,214.849,289.236,214.202,289.236z"/>
	<path style="fill:#333333;" d="M135.418,289.636c-0.627,0-1.265-0.119-1.882-0.37l-6.775-2.762
		c-2.557-1.043-3.784-3.961-2.74-6.519c1.043-2.556,3.961-3.783,6.519-2.74l6.765,2.758c2.558,1.041,3.788,3.958,2.747,6.516
		C139.262,288.459,137.392,289.636,135.418,289.636z"/>
	<path style="fill:#333333;" d="M221.128,324.626c-0.63,0-1.271-0.12-1.891-0.374l-6.751-2.756
		c-2.559-1.041-3.788-3.958-2.748-6.516c1.041-2.557,3.955-3.788,6.516-2.747l6.769,2.763c2.557,1.045,3.78,3.965,2.735,6.521
		C224.966,323.453,223.098,324.626,221.128,324.626z"/>
	<path style="fill:#333333;" d="M158.382,266.446c-1.95,0-3.803-1.148-4.609-3.058l-2.835-6.751
		c-1.067-2.547,0.133-5.477,2.68-6.543c2.545-1.067,5.476,0.133,6.543,2.68l2.825,6.728c1.073,2.544-0.119,5.477-2.664,6.55
		C159.689,266.319,159.031,266.446,158.382,266.446z"/>
	<path style="fill:#333333;" d="M194.242,351.786c-1.953,0-3.809-1.152-4.612-3.066l-2.827-6.722
		c-1.073-2.544,0.119-5.477,2.664-6.55c2.545-1.072,5.477,0.12,6.55,2.664l2.833,6.738c1.069,2.546-0.129,5.477-2.675,6.546
		C195.543,351.66,194.888,351.786,194.242,351.786z"/>
	<path style="fill:#333333;" d="M283.04,350.909c-6.413,0-12.83-1.248-18.949-3.745c-12.391-5.058-22.075-14.643-27.27-26.991
		c-2.607-6.197-3.931-12.734-3.931-19.428c0-6.497,1.255-12.869,3.729-18.938c5.062-12.403,14.652-22.088,27.005-27.272
		c12.334-5.192,25.957-5.264,38.355-0.198c5.997,2.451,11.381,5.967,16.001,10.45c0.068,0.065,0.134,0.133,0.196,0.201
		c4.763,4.671,8.487,10.169,11.075,16.346c5.188,12.333,5.258,25.959,0.196,38.361c-5.063,12.404-14.648,22.089-26.993,27.271
		C296.206,349.594,289.625,350.909,283.04,350.909z M283.036,260.593c-5.269,0-10.533,1.053-15.535,3.159
		c-9.894,4.153-17.57,11.905-21.622,21.831c-1.982,4.864-2.988,9.965-2.988,15.161c0,5.354,1.06,10.586,3.148,15.55
		c4.159,9.888,11.912,17.562,21.831,21.61c9.926,4.051,20.832,3.995,30.712-0.16c9.884-4.149,17.557-11.901,21.609-21.83
		c4.052-9.928,3.995-20.835-0.16-30.712c-2.101-5.015-5.132-9.464-9.013-13.23c-0.062-0.059-0.12-0.119-0.177-0.18
		c-3.66-3.508-7.912-6.266-12.644-8.2C293.303,261.593,288.167,260.593,283.036,260.593z"/>
	<path style="fill:#333333;" d="M264.158,351.996c-0.629,0-1.269-0.12-1.888-0.372c-2.557-1.043-3.783-3.962-2.739-6.519
		l2.757-6.764c1.041-2.558,3.955-3.788,6.516-2.748c2.558,1.041,3.788,3.958,2.748,6.516l-2.763,6.776
		C267.998,350.822,266.13,351.996,264.158,351.996z"/>
	<path style="fill:#333333;" d="M299.148,266.276c-0.627,0-1.265-0.119-1.882-0.37c-2.558-1.041-3.788-3.958-2.748-6.516
		l2.763-6.776c1.044-2.556,3.959-3.783,6.519-2.74c2.557,1.043,3.783,3.962,2.739,6.519l-2.757,6.764
		C302.992,265.099,301.122,266.276,299.148,266.276z"/>
	<path style="fill:#333333;" d="M237.002,325.096c-1.953,0-3.809-1.152-4.612-3.066c-1.068-2.546,0.129-5.477,2.675-6.545
		l6.724-2.828c2.545-1.07,5.478,0.121,6.55,2.665c1.072,2.545-0.12,5.477-2.665,6.55l-6.737,2.833
		C238.304,324.97,237.647,325.096,237.002,325.096z"/>
	<path style="fill:#333333;" d="M322.342,289.236c-1.951,0-3.804-1.149-4.609-3.06c-1.072-2.544,0.121-5.477,2.665-6.549l6.75-2.834
		c2.549-1.066,5.477,0.132,6.544,2.679s-0.132,5.477-2.679,6.544l-6.73,2.826C323.647,289.109,322.989,289.236,322.342,289.236z"/>
	<path style="fill:#333333;" d="M243.558,289.636c-0.627,0-1.265-0.119-1.882-0.37l-6.775-2.762
		c-2.557-1.043-3.784-3.961-2.741-6.519c1.043-2.556,3.962-3.783,6.519-2.74l6.766,2.758c2.559,1.041,3.788,3.958,2.748,6.516
		C247.402,288.459,245.532,289.636,243.558,289.636z"/>
	<path style="fill:#333333;" d="M329.278,324.626c-0.629,0-1.269-0.12-1.887-0.372l-6.766-2.758
		c-2.558-1.041-3.787-3.958-2.746-6.516c1.04-2.558,3.959-3.787,6.516-2.747l6.773,2.762c2.557,1.043,3.784,3.961,2.741,6.519
		C333.119,323.451,331.25,324.626,329.278,324.626z"/>
	<path style="fill:#333333;" d="M266.522,266.446c-1.957,0-3.815-1.156-4.616-3.076l-2.824-6.725
		c-1.071-2.545,0.123-5.477,2.668-6.549c2.54-1.072,5.476,0.122,6.549,2.667l2.836,6.755c1.063,2.548-0.14,5.476-2.688,6.54
		C267.817,266.321,267.164,266.446,266.522,266.446z"/>
	<path style="fill:#333333;" d="M302.382,351.786c-1.953,0-3.809-1.152-4.612-3.066l-2.826-6.721
		c-1.074-2.544,0.118-5.477,2.662-6.551c2.543-1.074,5.478,0.118,6.551,2.662l2.834,6.739c1.068,2.546-0.129,5.477-2.676,6.545
		C303.682,351.66,303.027,351.786,302.382,351.786z"/>
	<rect x="111.89" y="295.744" style="fill:#333333;" width="17.86" height="10"/>
	<path style="fill:#333333;" d="M314.5,273.379c-2.762,0-5-2.234-5-4.995l0.039-0.635l15.04-119.309
		c0.345-2.739,2.844-4.682,5.585-4.337c2.74,0.345,4.682,2.845,4.337,5.585l-15.032,119.244
		C319.191,271.432,317.073,273.379,314.5,273.379z"/>
	<path style="fill:#333333;" d="M22.084,168.725c-2.482,0-4.635-1.847-4.954-4.375l-1.85-14.66c-0.346-2.74,1.595-5.241,4.334-5.586
		c2.742-0.349,5.241,1.595,5.586,4.334l1.85,14.66c0.346,2.74-1.595,5.241-4.334,5.586
		C22.504,168.712,22.292,168.725,22.084,168.725z"/>
	<path style="fill:#333333;" d="M35.274,273.375c-2.483,0-4.636-1.847-4.955-4.375L17.128,164.346
		c-0.338-2.741,1.61-5.236,4.351-5.574c2.738-0.341,5.236,1.609,5.574,4.351l0.2,1.62l12.989,103.006
		c0.345,2.74-1.596,5.241-4.335,5.586C35.694,273.362,35.482,273.375,35.274,273.375z"/>
	<rect x="220.04" y="295.744" style="fill:#333333;" width="17.851" height="10"/>
	<path style="fill:#333333;" d="M174.897,318.329c-2.251,0-4.504-0.439-6.65-1.317c-4.341-1.769-7.736-5.128-9.555-9.458
		c-1.817-4.325-1.843-9.101-0.072-13.447c3.67-8.972,13.947-13.291,22.909-9.633c4.349,1.779,7.744,5.14,9.563,9.467
		c1.821,4.331,1.844,9.109,0.066,13.456c-1.773,4.341-5.131,7.733-9.458,9.55C179.51,317.868,177.203,318.329,174.897,318.329z
		 M174.904,293.173c-2.986,0-5.825,1.78-7.025,4.714c-0.762,1.869-0.751,3.929,0.033,5.794c0.783,1.864,2.245,3.31,4.116,4.072
		c1.877,0.767,3.935,0.758,5.8-0.025c1.864-0.783,3.311-2.244,4.074-4.113l0.001-0.004c0.766-1.871,0.755-3.929-0.029-5.794
		c-0.785-1.867-2.25-3.318-4.126-4.085C176.817,293.352,175.853,293.173,174.904,293.173z"/>
	<path style="fill:#333333;" d="M283.014,318.319c-2.211,0-4.457-0.42-6.627-1.307c-4.339-1.771-7.731-5.13-9.55-9.458
		c-1.819-4.33-1.842-9.107-0.064-13.453c1.769-4.341,5.129-7.737,9.457-9.556c4.326-1.817,9.102-1.843,13.447-0.072
		c8.969,3.668,13.288,13.947,9.635,22.917l-0.004,0.01C296.521,314.197,289.94,318.319,283.014,318.319z M283.041,293.169
		c-0.996,0-1.992,0.199-2.938,0.596c-1.864,0.783-3.311,2.245-4.073,4.116c-0.768,1.877-0.758,3.935,0.026,5.8
		c0.783,1.864,2.243,3.311,4.112,4.073c3.866,1.583,8.296-0.278,9.883-4.141c1.573-3.869-0.29-8.301-4.154-9.881
		C284.976,293.357,284.009,293.169,283.041,293.169z M294.681,305.504h0.01H294.681z"/>
	<path style="fill:#333333;" d="M344.78,154.064H5c-2.17,0-4.092-1.399-4.758-3.465c-0.667-2.065,0.075-4.324,1.836-5.592
		c7.319-5.272,15.417-10.245,24.07-14.781c6.876-3.609,14.205-6.993,21.785-10.057c0.089-0.042,0.179-0.082,0.271-0.12
		c8.049-3.256,16.611-6.243,25.447-8.876c21.249-6.315,43.968-10.567,67.53-12.639c22.186-1.963,45.228-1.963,67.418,0
		c23.568,2.073,46.285,6.325,67.515,12.638c27.823,8.281,51.908,19.665,71.587,33.835c1.761,1.268,2.503,3.527,1.837,5.593
		C348.873,152.664,346.95,154.064,344.78,154.064z M21.834,144.064h306.093c-15.91-9.361-34.513-17.311-54.663-23.308
		c-20.586-6.122-42.638-10.247-65.542-12.261c-21.611-1.912-44.054-1.912-65.661,0c-22.898,2.013-44.953,6.139-65.557,12.262
		c-8.431,2.513-16.598,5.356-24.276,8.452c-0.091,0.043-0.185,0.084-0.279,0.123c-7.37,2.97-14.488,6.25-21.155,9.75
		C27.728,140.689,24.738,142.352,21.834,144.064z"/>
	<path style="fill:#333333;" d="M22.09,168.729c-2.761,0-5-2.234-5-4.995v-0.01c0-2.761,2.239-5,5-5s5,2.239,5,5
		S24.851,168.729,22.09,168.729z"/>
	<path style="fill:#333333;" d="M327.25,172.189c-2.762,0-5-2.234-5-4.995v-0.01c0-2.761,2.238-5,5-5s5,2.239,5,5
		S330.012,172.189,327.25,172.189z"/>
	<path style="fill:#333333;" d="M28.19,139.115c-2.761,0-5-2.239-5-5v-38.57c0-2.761,2.239-5,5-5h21.7c2.761,0,5,2.239,5,5v28.68
		c0,2.761-2.239,5-5,5s-5-2.239-5-5v-23.68h-11.7v33.57C33.19,136.876,30.951,139.115,28.19,139.115z"/>
	<path style="fill:#333333;" d="M39.04,99.814c-2.761,0-5-2.239-5-5v-23.87c0-2.761,2.239-5,5-5h170.721c2.762,0,5,2.239,5,5
		s-2.238,5-5,5H44.04v18.87C44.04,97.576,41.801,99.814,39.04,99.814z"/>
	<path style="fill:#333333;" d="M209.761,90.414c-2.762,0-5-2.239-5-5v-30.38c0-2.761,2.238-5,5-5s5,2.239,5,5v30.38
		C214.761,88.176,212.522,90.414,209.761,90.414z"/>
	<path style="fill:#333333;" d="M193.84,90.414c-2.761,0-5-2.239-5-5v-30.38c0-2.761,2.239-5,5-5s5,2.239,5,5v30.38
		C198.84,88.176,196.601,90.414,193.84,90.414z"/>
	<path style="fill:#333333;" d="M177.93,90.414c-2.761,0-5-2.239-5-5v-30.38c0-2.761,2.239-5,5-5s5,2.239,5,5v30.38
		C182.93,88.176,180.691,90.414,177.93,90.414z"/>
	<path style="fill:#333333;" d="M162.02,90.414c-2.761,0-5-2.239-5-5v-30.38c0-2.761,2.239-5,5-5s5,2.239,5,5v30.38
		C167.02,88.176,164.781,90.414,162.02,90.414z"/>
	<path style="fill:#333333;" d="M146.1,90.414c-2.761,0-5-2.239-5-5v-30.38c0-2.761,2.239-5,5-5s5,2.239,5,5v30.38
		C151.1,88.176,148.861,90.414,146.1,90.414z"/>
	<path style="fill:#333333;" d="M130.19,90.414c-2.761,0-5-2.239-5-5v-30.38c0-2.761,2.239-5,5-5c2.761,0,5,2.239,5,5v30.38
		C135.19,88.176,132.951,90.414,130.19,90.414z"/>
	<path style="fill:#333333;" d="M114.27,90.414c-2.761,0-5-2.239-5-5v-30.38c0-2.761,2.239-5,5-5s5,2.239,5,5v30.38
		C119.27,88.176,117.031,90.414,114.27,90.414z"/>
	<path style="fill:#333333;" d="M98.36,90.414c-2.761,0-5-2.239-5-5v-30.38c0-2.761,2.239-5,5-5s5,2.239,5,5v30.38
		C103.36,88.176,101.121,90.414,98.36,90.414z"/>
	<path style="fill:#333333;" d="M82.45,90.414c-2.761,0-5-2.239-5-5v-30.38c0-2.761,2.239-5,5-5s5,2.239,5,5v30.38
		C87.45,88.176,85.211,90.414,82.45,90.414z"/>
	<path style="fill:#333333;" d="M66.53,90.414c-2.761,0-5-2.239-5-5v-30.38c0-2.761,2.239-5,5-5c2.761,0,5,2.239,5,5v30.38
		C71.53,88.176,69.291,90.414,66.53,90.414z"/>
	<path style="fill:#333333;" d="M131.873,170.354H22.29c-2.761,0-5-2.239-5-5s2.239-5,5-5h109.583c2.761,0,5,2.239,5,5
		S134.634,170.354,131.873,170.354z"/>
	<path style="fill:#333333;" d="M327.49,170.354H151.873c-2.761,0-5-2.239-5-5s2.239-5,5-5H327.49c2.762,0,5,2.239,5,5
		S330.252,170.354,327.49,170.354z"/>
	<path style="fill:#333333;" d="M75.08,151.424c-2.761,0-5-2.239-5-5v-30.46c0-2.761,2.239-5,5-5s5,2.239,5,5v30.46
		C80.08,149.185,77.841,151.424,75.08,151.424z"/>
	<path style="fill:#333333;" d="M141.62,151.424c-2.761,0-5-2.239-5-5v-42.91c0-2.761,2.239-5.005,5-5.005s5,2.234,5,4.995v42.92
		C146.62,149.185,144.381,151.424,141.62,151.424z"/>
	<path style="fill:#333333;" d="M208.16,151.424c-2.762,0-5-2.239-5-5v-25.213c0-2.761,2.238-5,5-5s5,2.239,5,5v25.213
		C213.16,149.185,210.922,151.424,208.16,151.424z"/>
	<path style="fill:#333333;" d="M274.69,141.544c-2.762,0-5-2.239-5-5v-20.58c0-2.761,2.238-5,5-5s5,2.239,5,5v20.58
		C279.69,139.305,277.452,141.544,274.69,141.544z"/>
	<path style="fill:#333333;" d="M174.89,224.834c-11.635,0-21.1-9.465-21.1-21.1s9.465-21.1,21.1-21.1s21.1,9.465,21.1,21.1
		S186.525,224.834,174.89,224.834z M174.89,192.634c-6.121,0-11.1,4.979-11.1,11.1s4.979,11.1,11.1,11.1s11.1-4.979,11.1-11.1
		S181.011,192.634,174.89,192.634z"/>
	<path style="fill:#333333;" d="M96.33,224.834c-11.629,0-21.09-9.465-21.09-21.1s9.461-21.1,21.09-21.1
		c11.635,0,21.1,9.465,21.1,21.1S107.965,224.834,96.33,224.834z M96.33,192.634c-6.115,0-11.09,4.979-11.09,11.1
		s4.975,11.1,11.09,11.1c6.121,0,11.1-4.979,11.1-11.1S102.451,192.634,96.33,192.634z"/>
	<path style="fill:#333333;" d="M253.45,224.834c-11.635,0-21.1-9.465-21.1-21.1s9.465-21.1,21.1-21.1
		c11.635,0,21.1,9.465,21.1,21.1S265.085,224.834,253.45,224.834z M253.45,192.634c-6.12,0-11.1,4.979-11.1,11.1
		s4.979,11.1,11.1,11.1c6.12,0,11.1-4.979,11.1-11.1S259.57,192.634,253.45,192.634z"/>
	<rect x="112.43" y="198.734" style="fill:#333333;" width="46.36" height="10"/>
	<rect x="269.55" y="198.734" style="fill:#333333;" width="52.61" height="10"/>
	<path style="fill:#333333;" d="M218.54,208.734h-27.55c-2.761,0-5-2.239-5-5s2.239-5,5-5h27.55c2.762,0,5,2.239,5,5
		S221.302,208.734,218.54,208.734z"/>
	<rect x="27.25" y="198.734" style="fill:#333333;" width="52.99" height="10"/>
	<path style="fill:#333333;" d="M366.54,229.544c-2.762,0-5-2.239-5-5v-157c0-1.631,0.796-3.161,2.133-4.096l20-14
		c2.209-1.546,5.248-1.062,6.867,1.096l9,12c1.657,2.209,1.209,5.343-1,7c-2.21,1.656-5.343,1.208-7-1l-6.097-8.129l-13.903,9.732
		v154.396C371.54,227.305,369.302,229.544,366.54,229.544z"/>
	<path style="fill:#333333;" d="M352.579,239.056c-0.609,0-1.229-0.112-1.829-0.349l-32.16-12.65
		c-2.57-1.011-3.834-3.914-2.823-6.483c1.011-2.571,3.917-3.834,6.483-2.823l32.16,12.65c2.57,1.011,3.834,3.914,2.823,6.483
		C356.459,237.853,354.573,239.056,352.579,239.056z"/>
	<path style="fill:#333333;" d="M386.537,104.545c-0.879,0-1.768-0.231-2.569-0.713l-20-12c-2.368-1.421-3.136-4.492-1.715-6.86
		c1.421-2.367,4.49-3.135,6.859-1.715l16.134,9.68l6.294-8.393c1.657-2.209,4.791-2.657,7-1s2.657,4.791,1,7l-9,12
		C389.564,103.846,388.064,104.545,386.537,104.545z"/>
	<path style="fill:#333333;" d="M366.54,259.544c-11.028,0-20-8.972-20-20c0-2.522,0.467-4.986,1.389-7.323
		c3.029-7.701,10.335-12.677,18.611-12.677c11.028,0,20,8.972,20,20S377.568,259.544,366.54,259.544z M366.54,229.544
		c-4.139,0-7.792,2.489-9.307,6.34c-0.001,0.001-0.001,0.002-0.002,0.004c-0.459,1.165-0.691,2.395-0.691,3.656
		c0,5.514,4.486,10,10,10s10-4.486,10-10S372.054,229.544,366.54,229.544z M352.58,234.055h0.01H352.58z"/>
	<path style="fill:#F24125;" d="M71.5,289.104c6.43,2.63,9.51,9.97,6.89,16.4c-2.62,6.42-9.96,9.51-16.39,6.88
		c-6.43-2.62-9.51-9.96-6.89-16.39C57.73,289.564,65.07,286.484,71.5,289.104z"/>
	<path style="fill:#FCBC1D;" d="M49.27,259.144c10.65-4.48,23-4.89,34.54-0.18c11.54,4.71,20.07,13.65,24.55,24.3
		c2.3,5.49,3.53,11.43,3.53,17.48c0,5.68-1.08,11.47-3.36,17.06c-4.71,11.53-13.65,20.07-24.29,24.55
		c-10.65,4.48-23.01,4.89-34.55,0.18s-20.07-13.65-24.55-24.3c-4.47-10.65-4.88-23-0.17-34.54c2.43-5.95,5.99-11.11,10.32-15.31
		C39.36,264.424,44.12,261.304,49.27,259.144z M78.39,305.504c2.62-6.43-0.46-13.77-6.89-16.4c-6.43-2.62-13.77,0.46-16.39,6.89
		c-2.62,6.43,0.46,13.77,6.89,16.39C68.43,315.014,75.77,311.924,78.39,305.504z"/>
	<path style="fill:#333333;" d="M66.754,350.91c-6.416,0-12.833-1.248-18.953-3.746c-12.391-5.057-22.076-14.643-27.27-26.991
		c-5.182-12.348-5.25-25.973-0.19-38.368c2.642-6.468,6.5-12.19,11.468-17.01c4.493-4.371,9.719-7.825,15.527-10.262
		c12.334-5.189,25.961-5.261,38.363-0.199c12.391,5.057,22.076,14.643,27.27,26.991c2.603,6.213,3.921,12.744,3.921,19.419
		c0,6.504-1.255,12.879-3.73,18.948l-0.001,0.002c-5.062,12.39-14.643,22.073-26.979,27.268
		C79.927,349.593,73.341,350.91,66.754,350.91z M66.752,260.596c-5.272,0-10.539,1.053-15.543,3.158
		c-4.654,1.952-8.835,4.715-12.432,8.215c-3.976,3.856-7.062,8.437-9.178,13.617c-4.05,9.923-3.997,20.832,0.151,30.714
		c4.158,9.883,11.911,17.558,21.829,21.606c9.931,4.053,20.842,3.996,30.722-0.16c9.876-4.158,17.548-11.912,21.6-21.832
		c1.983-4.864,2.989-9.968,2.989-15.169c0-5.341-1.057-10.572-3.142-15.548c-4.156-9.88-11.909-17.555-21.828-21.603
		C77.023,261.595,71.885,260.596,66.752,260.596z M108.53,317.805h0.01H108.53z"/>
	<path style="fill:#333333;" d="M66.757,318.329c-2.251,0-4.503-0.439-6.65-1.317c-4.341-1.769-7.737-5.128-9.556-9.457
		c-1.817-4.326-1.843-9.102-0.072-13.447c1.771-4.347,5.131-7.743,9.46-9.562c4.326-1.817,9.101-1.843,13.447-0.072
		c8.969,3.668,13.288,13.948,9.633,22.917l-0.001,0.002c-1.772,4.343-5.132,7.736-9.459,9.554
		C71.37,317.868,69.063,318.329,66.757,318.329z M66.76,293.172c-2.987,0-5.825,1.778-7.019,4.709
		c-0.764,1.875-0.753,3.935,0.03,5.8c0.783,1.864,2.245,3.31,4.116,4.072c1.879,0.768,3.936,0.758,5.8-0.025
		s3.311-2.244,4.074-4.113c1.575-3.869-0.288-8.302-4.153-9.883C68.675,293.352,67.71,293.172,66.76,293.172z M78.39,305.504h0.01
		H78.39z"/>
	<path style="fill:#333333;" d="M47.868,351.996c-0.629,0-1.269-0.12-1.888-0.372c-2.557-1.043-3.783-3.962-2.74-6.519l2.775-6.782
		c1.05-2.554,3.971-3.773,6.526-2.723c2.554,1.05,3.773,3.972,2.723,6.526l-2.765,6.758
		C51.708,350.822,49.84,351.996,47.868,351.996z"/>
	<path style="fill:#333333;" d="M20.712,325.096c-1.953,0-3.808-1.152-4.612-3.065c-1.069-2.546,0.128-5.477,2.674-6.546l6.74-2.831
		c2.547-1.068,5.477,0.129,6.546,2.675c1.069,2.546-0.129,5.477-2.675,6.546l-6.739,2.83
		C22.014,324.97,21.358,325.096,20.712,325.096z"/>
	<path style="fill:#333333;" d="M112.988,324.626c-0.629,0-1.269-0.12-1.887-0.372l-6.765-2.758
		c-2.558-1.041-3.788-3.958-2.747-6.516s3.957-3.788,6.516-2.747l6.775,2.762c2.557,1.043,3.784,3.961,2.74,6.519
		C116.828,323.451,114.96,324.626,112.988,324.626z"/>
	<path style="fill:#333333;" d="M86.102,351.786c-1.953,0-3.809-1.152-4.612-3.066l-2.827-6.722
		c-1.073-2.544,0.119-5.477,2.664-6.55c2.544-1.072,5.478,0.12,6.55,2.664l2.833,6.738c1.069,2.546-0.129,5.477-2.675,6.546
		C87.403,351.66,86.747,351.786,86.102,351.786z"/>
	<path style="fill:#333333;" d="M82.858,266.276c-0.633,0-1.277-0.121-1.899-0.377c-2.554-1.05-3.773-3.972-2.723-6.526l2.765-6.758
		c1.043-2.556,3.959-3.784,6.519-2.74c2.557,1.043,3.783,3.962,2.74,6.519l-2.775,6.782
		C86.69,265.107,84.825,266.276,82.858,266.276z"/>
	<path style="fill:#333333;" d="M27.278,289.636c-0.627,0-1.265-0.119-1.882-0.37l-6.775-2.762c-2.557-1.043-3.784-3.961-2.74-6.519
		c1.043-2.556,3.961-3.783,6.519-2.74l6.765,2.758c2.558,1.041,3.788,3.958,2.747,6.516
		C31.122,288.459,29.252,289.636,27.278,289.636z"/>
	<path style="fill:#333333;" d="M50.232,266.446c-1.957,0-3.814-1.156-4.616-3.075l-2.824-6.726
		c-1.072-2.545,0.123-5.477,2.667-6.548c2.545-1.072,5.477,0.123,6.548,2.667l2.836,6.753c1.064,2.548-0.139,5.477-2.687,6.541
		C51.528,266.321,50.874,266.446,50.232,266.446z"/>
	<path style="fill:#333333;" d="M106.052,289.236c-1.954,0-3.809-1.152-4.612-3.066c-1.069-2.546,0.129-5.477,2.675-6.546
		l6.739-2.83c2.545-1.071,5.477,0.127,6.546,2.674c1.069,2.546-0.128,5.477-2.674,6.546l-6.74,2.831
		C107.353,289.11,106.697,289.236,106.052,289.236z"/>
	<path style="fill:#FFFFFF;" d="M299.896,246.752c-0.208,0-0.419-0.013-0.631-0.04c-2.74-0.346-4.681-2.847-4.336-5.586l8.04-63.783
		c0.345-2.739,2.846-4.674,5.586-4.335c2.74,0.346,4.681,2.847,4.336,5.586l-8.04,63.783
		C304.533,244.905,302.38,246.752,299.896,246.752z"/>
	<path style="fill:#FFFFFF;" d="M259.674,132.37c-0.412,0-0.829-0.051-1.246-0.158c-11.712-3.004-23.994-5.378-36.506-7.056
		c-2.736-0.367-4.657-2.883-4.291-5.62c0.367-2.736,2.875-4.661,5.621-4.291c12.898,1.73,25.569,4.18,37.66,7.281
		c2.675,0.686,4.287,3.411,3.601,6.085C263.933,130.87,261.901,132.37,259.674,132.37z"/>
	<path style="fill:#FFFFFF;" d="M153.936,122.655c-2.63,0-4.834-2.054-4.987-4.713c-0.158-2.757,1.948-5.12,4.705-5.278
		c13.655-0.784,27.534-0.809,41.204-0.071c2.757,0.149,4.872,2.505,4.723,5.262c-0.148,2.757-2.505,4.866-5.262,4.723
		c-13.299-0.717-26.803-0.694-40.091,0.069C154.13,122.653,154.033,122.655,153.936,122.655z"/>
	<path style="fill:#FFFFFF;" d="M87.889,132.947c-2.214,0-4.237-1.481-4.83-3.723c-0.707-2.669,0.885-5.406,3.555-6.112
		c13.509-3.574,27.715-6.322,42.226-8.169c2.735-0.354,5.243,1.589,5.591,4.329c0.349,2.74-1.589,5.243-4.329,5.591
		c-14.075,1.791-27.846,4.455-40.931,7.916C88.743,132.893,88.312,132.947,87.889,132.947z"/>
</g>
<g>
</g>
<g>
</g>
<g>
</g>
<g>
</g>
<g>
</g>
<g>
</g>
<g>
</g>
<g>
</g>
<g>
</g>
<g>
</g>
<g>
</g>
<g>
</g>
<g>
</g>
<g>
</g>
<g>
</g>
</svg>
