<?xml version="1.0" encoding="iso-8859-1"?>
<!-- Generator: Adobe Illustrator 19.0.0, SVG Export Plug-In . SVG Version: 6.00 Build 0)  -->
<svg version="1.1" id="Layer_1" xmlns="http://www.w3.org/2000/svg" xmlns:xlink="http://www.w3.org/1999/xlink" x="0px" y="0px"
	 viewBox="0 0 396.063 396.063" style="enable-background:new 0 0 396.063 396.063;" xml:space="preserve">
<g>
	<rect x="198.03" y="143.419" style="fill:#F24125;" width="109.003" height="78.734"/>
	<path style="fill:#FCBC1D;" d="M5,360.386c106.695-106.695,279.366-106.695,386.061,0H5z"/>
	<path style="fill:#FCBC1D;" d="M237.033,291.486l30-17l0,0c12.43,13.673,31.06,19.926,49.223,16.521l2.777-0.521l2,30"/>
	<circle style="fill:#1AA5E2;" cx="74.603" cy="79.176" r="43.498"/>
	<path style="fill:#61CCF2;" d="M118.103,79.176c0,24.02-19.48,43.5-43.5,43.5s-43.5-19.48-43.5-43.5c0-5.15,0.89-10.09,2.54-14.67
		c6.01,16.81,22.09,28.83,40.96,28.83s34.95-12.02,40.96-28.83C117.213,69.086,118.103,74.026,118.103,79.176z"/>
	<g>
		<path style="fill:#FCBC1D;" d="M293.267,79.203c-2.762,0-5-2.239-5-5V52.769c0-2.761,2.238-5,5-5s5,2.239,5,5v21.434
			C298.267,76.964,296.028,79.203,293.267,79.203z"/>
		<path style="fill:#FCBC1D;" d="M303.983,68.486h-21.434c-2.762,0-5-2.239-5-5c0-2.761,2.238-5,5-5h21.434c2.762,0,5,2.239,5,5
			C308.983,66.247,306.745,68.486,303.983,68.486z"/>
	</g>
	<g>
		<path style="fill:#FCBC1D;" d="M124.022,182.873c-2.762,0-5-2.239-5-5V155.1c0-2.761,2.238-5,5-5s5,2.239,5,5v22.773
			C129.022,180.634,126.784,182.873,124.022,182.873z"/>
		<path style="fill:#FCBC1D;" d="M135.409,171.486h-22.773c-2.762,0-5-2.239-5-5s2.238-5,5-5h22.773c2.762,0,5,2.239,5,5
			S138.171,171.486,135.409,171.486z"/>
	</g>
	<path style="fill:#333333;" d="M198.03,324.486c-2.762,0-5-2.239-5-5V143.418c0-2.761,2.238-5,5-5s5,2.239,5,5v176.067
		C203.03,322.247,200.792,324.486,198.03,324.486z"/>
	<rect x="198.03" y="143.416" style="fill:#1AA5E2;" width="48.003" height="38.363"/>
	<path style="fill:#333333;" d="M326.033,346.491c-0.33,0-0.65-0.04-0.98-0.1c-0.319-0.07-0.63-0.16-0.93-0.29
		c-0.3-0.12-0.59-0.28-0.87-0.46c-0.27-0.18-0.53-0.39-0.76-0.62c-0.23-0.23-0.44-0.48-0.62-0.76c-0.18-0.27-0.33-0.56-0.46-0.86
		c-0.12-0.3-0.22-0.62-0.28-0.94c-0.069-0.32-0.1-0.65-0.1-0.98c0-0.32,0.03-0.65,0.1-0.97c0.061-0.32,0.16-0.64,0.28-0.94
		c0.13-0.3,0.28-0.59,0.46-0.86s0.39-0.53,0.62-0.76c0.229-0.23,0.49-0.44,0.76-0.62c0.28-0.18,0.57-0.34,0.87-0.46
		c0.3-0.13,0.61-0.22,0.93-0.29c0.65-0.13,1.311-0.13,1.96,0c0.32,0.07,0.63,0.16,0.931,0.29c0.3,0.12,0.59,0.28,0.859,0.46
		c0.28,0.18,0.54,0.39,0.761,0.62c0.239,0.23,0.449,0.49,0.63,0.76c0.18,0.27,0.33,0.56,0.46,0.86c0.12,0.3,0.22,0.62,0.279,0.94
		c0.07,0.32,0.101,0.65,0.101,0.97c0,0.33-0.03,0.66-0.101,0.98c-0.06,0.32-0.159,0.64-0.279,0.94c-0.13,0.3-0.28,0.59-0.46,0.86
		c-0.181,0.28-0.391,0.53-0.63,0.76C328.633,345.951,327.343,346.491,326.033,346.491z"/>
	<path style="fill:#333333;" d="M44.033,350.491c-0.33,0-0.65-0.04-0.98-0.1c-0.319-0.07-0.63-0.16-0.93-0.29
		c-0.31-0.12-0.6-0.28-0.87-0.46s-0.53-0.39-0.76-0.62c-0.23-0.23-0.44-0.49-0.62-0.76s-0.33-0.56-0.46-0.86
		c-0.12-0.3-0.22-0.62-0.28-0.94c-0.069-0.32-0.1-0.65-0.1-0.97c0-1.32,0.53-2.61,1.46-3.54c0.229-0.23,0.49-0.44,0.76-0.62
		c0.271-0.18,0.561-0.34,0.87-0.46c0.3-0.13,0.61-0.22,0.93-0.29c0.65-0.13,1.311-0.13,1.96,0c0.32,0.07,0.63,0.16,0.931,0.29
		c0.3,0.12,0.59,0.28,0.859,0.46c0.28,0.18,0.53,0.39,0.761,0.62c0.939,0.93,1.47,2.22,1.47,3.54c0,0.32-0.03,0.65-0.101,0.97
		c-0.06,0.32-0.159,0.64-0.279,0.94c-0.13,0.3-0.28,0.59-0.46,0.86c-0.181,0.27-0.391,0.53-0.63,0.76
		c-0.23,0.23-0.48,0.44-0.761,0.62c-0.27,0.18-0.56,0.34-0.859,0.46c-0.301,0.13-0.61,0.22-0.931,0.29
		C44.683,350.451,44.363,350.491,44.033,350.491z"/>
	<path style="fill:#333333;" d="M73.033,337.491c-0.33,0-0.66-0.04-0.98-0.1c-0.319-0.07-0.63-0.16-0.93-0.29
		c-0.31-0.12-0.6-0.28-0.87-0.46c-0.27-0.18-0.53-0.39-0.76-0.62c-0.23-0.23-0.44-0.49-0.62-0.76s-0.33-0.56-0.46-0.86
		c-0.12-0.3-0.22-0.62-0.28-0.94c-0.069-0.32-0.1-0.65-0.1-0.97c0-1.32,0.53-2.61,1.46-3.54c0.229-0.23,0.49-0.44,0.76-0.62
		c0.271-0.18,0.561-0.34,0.87-0.46c0.3-0.13,0.61-0.22,0.93-0.29c0.65-0.13,1.311-0.13,1.96,0c0.32,0.07,0.63,0.16,0.931,0.29
		c0.3,0.12,0.59,0.28,0.859,0.46c0.28,0.18,0.53,0.39,0.761,0.62c0.939,0.93,1.47,2.22,1.47,3.54c0,0.32-0.03,0.65-0.101,0.97
		c-0.06,0.32-0.159,0.64-0.279,0.94c-0.13,0.3-0.28,0.59-0.46,0.86c-0.19,0.27-0.391,0.53-0.63,0.76
		c-0.23,0.23-0.48,0.44-0.761,0.62c-0.27,0.18-0.56,0.34-0.859,0.46c-0.301,0.13-0.61,0.22-0.931,0.29
		C73.683,337.451,73.363,337.491,73.033,337.491z"/>
	<g>
		<path style="fill:#FFFFFF;" d="M214.783,162.851c-0.33,0-0.66-0.04-0.98-0.1c-0.319-0.07-0.63-0.16-0.93-0.29
			c-0.31-0.12-0.6-0.28-0.87-0.46c-0.27-0.18-0.53-0.39-0.76-0.62c-0.93-0.93-1.46-2.22-1.46-3.53c0-0.33,0.03-0.66,0.1-0.98
			c0.061-0.32,0.16-0.63,0.28-0.94c0.13-0.3,0.28-0.59,0.46-0.86s0.39-0.53,0.62-0.76c0.229-0.23,0.49-0.44,0.76-0.62
			c0.271-0.18,0.561-0.34,0.87-0.46c0.3-0.13,0.61-0.22,0.93-0.29c0.65-0.13,1.311-0.13,1.96,0c0.311,0.07,0.63,0.16,0.931,0.29
			c0.3,0.12,0.59,0.28,0.859,0.46c0.28,0.18,0.53,0.39,0.761,0.62c0.229,0.23,0.439,0.49,0.63,0.76c0.18,0.27,0.33,0.56,0.46,0.86
			c0.12,0.31,0.22,0.62,0.279,0.94c0.07,0.32,0.101,0.65,0.101,0.98c0,1.31-0.53,2.6-1.47,3.53c-0.23,0.23-0.48,0.44-0.761,0.62
			c-0.27,0.18-0.56,0.34-0.859,0.46c-0.301,0.13-0.62,0.22-0.931,0.29C215.433,162.811,215.103,162.851,214.783,162.851z"/>
		<path style="fill:#FFFFFF;" d="M229.283,162.851c-1.32,0-2.61-0.54-3.54-1.47c-0.23-0.23-0.44-0.48-0.62-0.76
			c-0.18-0.27-0.33-0.56-0.46-0.86c-0.12-0.3-0.22-0.62-0.28-0.94c-0.069-0.32-0.1-0.65-0.1-0.97c0-0.33,0.03-0.66,0.1-0.98
			c0.061-0.32,0.16-0.63,0.28-0.94c0.13-0.3,0.28-0.59,0.46-0.86s0.39-0.53,0.62-0.76c0.229-0.23,0.49-0.44,0.76-0.62
			c0.271-0.18,0.561-0.34,0.87-0.46c0.3-0.13,0.61-0.22,0.93-0.29c0.65-0.13,1.311-0.13,1.96,0c0.311,0.07,0.63,0.16,0.931,0.29
			c0.3,0.12,0.59,0.28,0.859,0.46c0.28,0.18,0.53,0.39,0.761,0.62c0.93,0.93,1.47,2.22,1.47,3.54c0,0.32-0.03,0.65-0.101,0.97
			c-0.06,0.32-0.159,0.64-0.29,0.94c-0.119,0.3-0.27,0.59-0.46,0.86c-0.18,0.28-0.39,0.53-0.619,0.76
			c-0.23,0.23-0.48,0.44-0.761,0.62c-0.27,0.18-0.56,0.34-0.859,0.46c-0.301,0.13-0.62,0.22-0.931,0.29
			C229.933,162.811,229.603,162.851,229.283,162.851z"/>
		<path style="fill:#FFFFFF;" d="M221.783,172.351c-0.32,0-0.65-0.04-0.98-0.1c-0.319-0.07-0.63-0.16-0.93-0.29
			c-0.3-0.12-0.59-0.28-0.87-0.46c-0.27-0.18-0.53-0.39-0.76-0.62c-0.93-0.93-1.46-2.21-1.46-3.53s0.53-2.61,1.46-3.54
			c0.229-0.23,0.49-0.44,0.76-0.62c0.28-0.18,0.57-0.34,0.87-0.46c0.3-0.13,0.61-0.22,0.93-0.29c0.65-0.13,1.311-0.13,1.96,0
			c0.32,0.07,0.63,0.16,0.931,0.29c0.3,0.12,0.59,0.28,0.87,0.46c0.27,0.18,0.529,0.39,0.76,0.62c0.229,0.23,0.439,0.49,0.62,0.76
			c0.18,0.27,0.33,0.56,0.46,0.86c0.12,0.31,0.22,0.62,0.279,0.94c0.07,0.32,0.101,0.65,0.101,0.98c0,1.31-0.53,2.6-1.46,3.53
			c-0.23,0.23-0.49,0.44-0.76,0.62c-0.28,0.18-0.57,0.34-0.87,0.46c-0.301,0.13-0.61,0.22-0.931,0.29
			C222.443,172.311,222.113,172.351,221.783,172.351z"/>
	</g>
	<path style="fill:#333333;" d="M254.033,315.491c-0.33,0-0.65-0.04-0.98-0.1c-0.319-0.07-0.63-0.16-0.93-0.29
		c-0.3-0.12-0.59-0.28-0.87-0.46c-0.27-0.18-0.53-0.39-0.76-0.62c-0.93-0.93-1.46-2.22-1.46-3.53c0-0.33,0.03-0.66,0.1-0.98
		c0.061-0.32,0.16-0.63,0.28-0.94c0.13-0.3,0.28-0.59,0.46-0.86s0.39-0.53,0.62-0.76c0.229-0.23,0.49-0.44,0.76-0.62
		c0.28-0.18,0.57-0.34,0.87-0.46c0.3-0.13,0.61-0.22,0.93-0.29c0.65-0.13,1.311-0.13,1.96,0c0.32,0.07,0.63,0.16,0.931,0.29
		c0.3,0.12,0.59,0.28,0.859,0.46c0.28,0.18,0.54,0.39,0.771,0.62c0.229,0.23,0.439,0.49,0.62,0.76c0.18,0.27,0.33,0.56,0.46,0.86
		c0.12,0.31,0.22,0.62,0.279,0.94c0.07,0.32,0.101,0.65,0.101,0.98c0,1.31-0.53,2.6-1.46,3.53c-0.23,0.23-0.49,0.44-0.771,0.62
		c-0.27,0.18-0.56,0.34-0.859,0.46c-0.301,0.13-0.61,0.22-0.931,0.29C254.683,315.451,254.353,315.491,254.033,315.491z"/>
	<path style="fill:#333333;" d="M129.033,334.48c-0.33,0-0.66-0.03-0.98-0.09c-0.319-0.07-0.63-0.16-0.93-0.29
		c-0.3-0.12-0.6-0.28-0.87-0.46c-0.27-0.18-0.53-0.39-0.76-0.62c-0.23-0.23-0.44-0.48-0.62-0.76c-0.18-0.27-0.33-0.56-0.46-0.86
		c-0.12-0.3-0.22-0.62-0.28-0.94c-0.069-0.32-0.1-0.65-0.1-0.97c0-0.33,0.03-0.66,0.1-0.98c0.061-0.32,0.16-0.64,0.28-0.94
		c0.13-0.3,0.28-0.59,0.46-0.86s0.39-0.53,0.62-0.76c0.229-0.23,0.49-0.44,0.76-0.62c0.271-0.18,0.57-0.34,0.87-0.46
		c0.3-0.13,0.61-0.22,0.93-0.29c0.65-0.13,1.311-0.13,1.96,0c0.32,0.07,0.63,0.16,0.931,0.29c0.3,0.12,0.59,0.28,0.859,0.46
		c0.28,0.18,0.54,0.39,0.771,0.62c0.229,0.23,0.439,0.49,0.62,0.76c0.18,0.27,0.33,0.56,0.46,0.86c0.12,0.3,0.22,0.62,0.279,0.94
		c0.07,0.32,0.101,0.65,0.101,0.98c0,0.32-0.03,0.65-0.101,0.97c-0.06,0.32-0.159,0.64-0.279,0.94c-0.13,0.3-0.28,0.59-0.46,0.86
		c-0.181,0.28-0.391,0.53-0.62,0.76c-0.23,0.23-0.49,0.44-0.771,0.62c-0.27,0.18-0.56,0.34-0.859,0.46
		c-0.301,0.13-0.61,0.22-0.931,0.29C129.683,334.451,129.363,334.48,129.033,334.48z"/>
	<path style="fill:#333333;" d="M232.033,346.491c-1.32,0-2.601-0.54-3.54-1.47c-0.23-0.23-0.44-0.49-0.62-0.76
		s-0.33-0.56-0.46-0.86c-0.12-0.3-0.22-0.62-0.28-0.94c-0.069-0.32-0.1-0.65-0.1-0.98c0-0.32,0.03-0.65,0.1-0.97
		c0.061-0.32,0.16-0.64,0.28-0.94c0.13-0.3,0.28-0.59,0.46-0.86s0.39-0.53,0.62-0.76c1.16-1.16,2.89-1.7,4.52-1.37
		c0.32,0.07,0.63,0.16,0.931,0.29c0.3,0.12,0.59,0.28,0.859,0.46c0.28,0.18,0.53,0.39,0.761,0.62c0.239,0.23,0.439,0.49,0.63,0.76
		c0.18,0.27,0.33,0.56,0.46,0.86c0.12,0.3,0.22,0.62,0.279,0.94c0.07,0.32,0.101,0.65,0.101,0.97c0,0.33-0.03,0.66-0.101,0.98
		c-0.06,0.32-0.159,0.64-0.279,0.94c-0.13,0.3-0.28,0.59-0.46,0.86c-0.19,0.27-0.391,0.53-0.63,0.76
		C234.633,345.951,233.343,346.491,232.033,346.491z"/>
	<path style="fill:#FFFFFF;" d="M307.033,186.912h-61c-2.762,0-5-2.239-5-5s2.238-5,5-5h61c2.762,0,5,2.239,5,5
		S309.795,186.912,307.033,186.912z"/>
	<path style="fill:#FFFFFF;" d="M307.033,167.247h-61c-2.762,0-5-2.239-5-5s2.238-5,5-5h61c2.762,0,5,2.239,5,5
		S309.795,167.247,307.033,167.247z"/>
	<path style="fill:#FFFFFF;" d="M307.033,206.576H198.03c-2.762,0-5-2.239-5-5s2.238-5,5-5h109.003c2.762,0,5,2.239,5,5
		S309.795,206.576,307.033,206.576z"/>
	<path style="fill:#333333;" d="M74.603,127.673c-26.742,0-48.498-21.756-48.498-48.498s21.756-48.498,48.498-48.498
		c26.741,0,48.497,21.756,48.497,48.498S101.345,127.673,74.603,127.673z M74.603,40.678c-21.228,0-38.498,17.27-38.498,38.498
		s17.271,38.498,38.498,38.498s38.497-17.27,38.497-38.498C113.101,57.948,95.831,40.678,74.603,40.678z"/>
	<path style="fill:#333333;" d="M307.033,227.153H198.03c-2.762,0-5-2.239-5-5v-78.734c0-2.761,2.238-5,5-5h109.003
		c2.762,0,5,2.239,5,5v78.734C312.033,224.914,309.795,227.153,307.033,227.153z M203.03,217.153h99.003v-68.734H203.03V217.153z"/>
	<path style="fill:#333333;" d="M246.033,186.779h-48c-2.762,0-5-2.238-5-5l-0.003-38.363c0-1.326,0.526-2.598,1.464-3.536
		c0.938-0.938,2.21-1.465,3.536-1.465h48.003c2.762,0,5,2.239,5,5v38.363C251.033,184.54,248.795,186.779,246.033,186.779z
		 M203.033,176.779h38v-28.363H203.03L203.033,176.779z"/>
	<path style="fill:#333333;" d="M391.061,365.386c-1.279,0-2.56-0.488-3.535-1.464c-20.271-20.27-43.422-37.048-68.813-49.871
		c-1.672-0.845-2.72-2.545-2.746-4.392l-1.379-13.496c-17.683,1.815-35.423-3.953-48.648-15.828l-20.501,8.388
		c-0.874,0.387-1.861,0.524-2.851,0.359c-41.275-6.932-84.178-4.059-124.073,8.312c-41.202,12.776-79.232,35.781-109.98,66.528
		c-1.951,1.952-5.119,1.952-7.07,0c-1.953-1.953-1.953-5.119,0-7.071c31.891-31.891,71.343-55.753,114.089-69.008
		c40.925-12.69,84.899-15.747,127.276-8.856l22.311-9.128c1.868-0.762,4.006-0.331,5.429,1.092
		c12.019,12.018,29.211,17.576,45.988,14.871l1.681-0.271c1.358-0.22,2.748,0.132,3.84,0.969c1.092,0.838,1.79,2.089,1.93,3.458
		l1.678,16.406c25.375,13.134,48.547,30.102,68.911,50.466c1.953,1.953,1.953,5.119,0,7.071
		C393.62,364.897,392.34,365.386,391.061,365.386z"/>
	<path style="fill:#333333;" d="M307.238,316.729c-4.753,0-10.386-0.613-16.616-2.446c-2.648-0.779-4.165-3.559-3.386-6.208
		c0.779-2.648,3.551-4.168,6.208-3.386c14.922,4.39,25.565,0.297,25.672,0.255c2.553-1.012,5.463,0.224,6.492,2.774
		c1.027,2.55-0.182,5.445-2.725,6.489C322.516,314.358,316.577,316.729,307.238,316.729z"/>
	<path style="fill:#333333;" d="M255.03,298.486c-1.1,0-2.205-0.36-3.129-1.103l-11.619-9.337c-2.152-1.729-2.495-4.877-0.766-7.029
		c1.729-2.153,4.877-2.495,7.029-0.766l11.619,9.337c2.152,1.729,2.495,4.877,0.766,7.029
		C257.943,297.847,256.493,298.486,255.03,298.486z"/>
</g>
<g>
</g>
<g>
</g>
<g>
</g>
<g>
</g>
<g>
</g>
<g>
</g>
<g>
</g>
<g>
</g>
<g>
</g>
<g>
</g>
<g>
</g>
<g>
</g>
<g>
</g>
<g>
</g>
<g>
</g>
</svg>
