<?xml version="1.0" encoding="iso-8859-1"?>
<!-- Generator: Adobe Illustrator 19.0.0, SVG Export Plug-In . SVG Version: 6.00 Build 0)  -->
<svg version="1.1" id="Layer_1" xmlns="http://www.w3.org/2000/svg" xmlns:xlink="http://www.w3.org/1999/xlink" x="0px" y="0px"
	 viewBox="0 0 430.01 430.01" style="enable-background:new 0 0 430.01 430.01;" xml:space="preserve">
<g>
	<path style="fill:#CCCCCC;" d="M49.56,376.01c-0.06,12.17,4.82,23.22,12.76,31.23s18.94,13,31.11,13.06s23.22-4.82,31.23-12.76
		s13-18.93,13.06-31.1v-0.01c0-0.15,0-0.3,0-0.44c-0.06-11.99-4.92-22.86-12.76-30.78c-7.93-8.02-18.93-13.01-31.11-13.07
		c-11.33-0.05-21.67,4.17-29.51,11.16c-0.59,0.52-1.17,1.06-1.72,1.61C54.6,352.85,49.62,363.84,49.56,376.01z M93.58,388.5
		c-6.78-0.03-12.25-5.55-12.22-12.34c0.03-6.78,5.56-12.25,12.34-12.22c6.78,0.04,12.25,5.56,12.22,12.34S100.36,388.54,93.58,388.5
		z"/>
	<rect x="68.34" y="177" style="fill:#F73E3E;" width="166.67" height="51.34"/>
	<path style="fill:#F9911E;" d="M81.36,376.16c-0.03,6.79,5.44,12.31,12.22,12.34c6.78,0.04,12.31-5.44,12.34-12.22
		s-5.44-12.3-12.22-12.34C86.92,363.91,81.39,369.38,81.36,376.16z"/>
	<rect x="87.01" y="280.34" style="fill:#F73E3E;" width="55.92" height="33.33"/>
	<rect x="87.01" y="265.67" style="fill:#F73E3E;" width="55.92" height="14.67"/>
	<rect x="87.01" y="249" style="fill:#F73E3E;" width="55.92" height="16.67"/>
	<path style="fill:#E6E6E6;" d="M115.53,86.086l-35.94,35.94c19.85,19.85,52.04,19.85,71.89,0s19.85-52.04,0-71.89l-35.94,35.95
		H115.53z"/>
	<rect x="142.93" y="265.67" style="fill:#23464F;" width="18.74" height="14.67"/>
	<rect x="142.93" y="280.34" style="fill:#23464F;" width="18.74" height="33.33"/>
	<rect x="161.67" y="280.34" style="fill:#F73E3E;" width="55.93" height="33.33"/>
	<rect x="161.67" y="265.67" style="fill:#F73E3E;" width="55.93" height="14.67"/>
	<rect x="161.67" y="249" style="fill:#F73E3E;" width="55.93" height="16.67"/>
	<path style="fill:#CCCCCC;" d="M168.68,376.02c-0.06,12.17,4.82,23.21,12.76,31.22s18.94,13,31.11,13.06s23.22-4.82,31.23-12.76
		s13-18.93,13.06-31.1v-0.01c0-0.15,0-0.3,0-0.44c-0.06-11.99-4.92-22.86-12.76-30.78c-7.93-8.02-18.93-13.01-31.11-13.07
		c-12.17-0.06-23.22,4.83-31.23,12.77c-8.02,7.94-13,18.93-13.06,31.1L168.68,376.02L168.68,376.02z M212.7,388.5
		c-6.78-0.03-12.25-5.55-12.22-12.34c0.03-6.78,5.56-12.25,12.34-12.22c6.78,0.04,12.25,5.56,12.22,12.34S219.48,388.54,212.7,388.5
		z"/>
	<path style="fill:#F9911E;" d="M200.48,376.16c-0.03,6.79,5.44,12.31,12.22,12.34c6.78,0.04,12.31-5.44,12.34-12.22
		s-5.44-12.3-12.22-12.34C206.04,363.91,200.51,369.38,200.48,376.16z"/>
	<polygon style="fill:#23464F;" points="217.6,313.67 361.47,313.67 378.76,313.67 378.76,228.34 341.34,228.34 270.67,228.34 
		235.01,228.34 68.34,228.34 46.76,228.34 46.76,313.67 64.34,313.67 87.01,313.67 87.01,280.34 87.01,265.67 87.01,249 142.93,249 
		142.93,265.67 161.67,265.67 161.67,249 217.6,249 217.6,265.67 217.6,280.34 	"/>
	<polygon style="fill:#F73E3E;" points="270.67,207.67 270.67,228.34 341.34,228.34 341.34,207.67 321.67,207.67 290.34,207.67 	"/>
	<path style="fill:#CCCCCC;" d="M331.67,420.3c12.17,0.06,23.22-4.82,31.23-12.76s13-18.93,13.06-31.1v-0.01
		c0.06-12.17-4.82-23.22-12.76-31.23c-0.56-0.57-1.14-1.12-1.73-1.65c-7.77-7.04-18.06-11.35-29.37-11.41h-0.01
		c-12.17-0.05-23.22,4.83-31.23,12.77c-8.02,7.94-13,18.93-13.06,31.1v0.01c-0.06,12.17,4.82,23.21,12.76,31.22
		S319.5,420.24,331.67,420.3z M331.82,388.5c-6.78-0.03-12.25-5.55-12.22-12.34c0.03-6.78,5.56-12.25,12.34-12.22
		c6.78,0.04,12.25,5.56,12.22,12.34S338.6,388.54,331.82,388.5z"/>
	<rect x="290.34" y="42.34" style="fill:#E6E6E6;" width="31.33" height="165.33"/>
	<polygon style="fill:#F73E3E;" points="290.34,5 290.34,42.34 321.67,42.34 353.67,42.34 353.67,35.67 353.67,11.67 353.67,5 	"/>
	<path style="fill:#F9911E;" d="M319.6,376.16c-0.03,6.79,5.44,12.31,12.22,12.34c6.78,0.04,12.31-5.44,12.34-12.22
		s-5.44-12.3-12.22-12.34C325.16,363.91,319.63,369.38,319.6,376.16z"/>
	<rect x="353.67" y="11.67" style="fill:#F73E3E;" width="19.34" height="24"/>
	<path style="fill:#999999;" d="M361.47,313.67H217.6h-55.93h-18.74H87.01H64.34v29.63c7.84-6.99,18.18-11.21,29.51-11.16
		c12.18,0.06,23.18,5.05,31.11,13.07c7.84,7.92,12.7,18.79,12.76,30.78l30.96,0.03v-0.01c0.06-12.17,5.04-23.16,13.06-31.1
		c8.01-7.94,19.06-12.83,31.23-12.77c12.18,0.06,23.18,5.05,31.11,13.07c7.84,7.92,12.7,18.79,12.76,30.78l30.96,0.03v-0.01
		c0.06-12.17,5.04-23.16,13.06-31.1c8.01-7.94,19.06-12.82,31.23-12.77h0.01c11.31,0.06,21.6,4.37,29.37,11.41V313.67z"/>
	<path style="fill:#333333;" d="M331.895,425.3c-0.083,0-0.166,0-0.249,0c-13.105-0.065-25.406-5.229-34.637-14.54
		c-9.229-9.31-14.274-21.656-14.209-34.765c0.064-13.12,5.229-25.417,14.542-34.638c9.253-9.172,21.521-14.217,34.56-14.217
		c0.07,0,0.139,0,0.209,0c12.133,0.064,23.746,4.576,32.717,12.705c0.68,0.61,1.337,1.238,1.939,1.851
		c1.936,1.969,1.908,5.135-0.062,7.071c-1.969,1.936-5.134,1.91-7.071-0.061c-0.458-0.467-0.966-0.95-1.507-1.437
		c-7.156-6.484-16.404-10.077-26.054-10.128c-0.056,0-0.111,0-0.167,0c-10.389,0-20.157,4.017-27.527,11.322
		c-7.416,7.343-11.528,17.135-11.579,27.573c-0.052,10.446,3.965,20.275,11.311,27.686c7.352,7.416,17.147,11.529,27.584,11.58
		c10.427,0.073,20.274-3.966,27.686-11.311c7.416-7.351,11.528-17.143,11.58-27.574c0.013-2.664-0.241-5.316-0.756-7.894
		c-0.54-2.708,1.217-5.341,3.925-5.882c2.705-0.543,5.342,1.217,5.882,3.925c0.646,3.236,0.965,6.564,0.949,9.89
		c-0.065,13.111-5.229,25.408-14.541,34.637C357.17,420.26,344.917,425.3,331.895,425.3z"/>
	<path style="fill:#333333;" d="M331.895,393.5c-0.035,0-0.069,0-0.104,0c-9.519-0.042-17.232-7.831-17.19-17.362l0,0
		c0.042-9.499,7.79-17.198,17.284-17.198c0.026,0,0.052,0,0.077,0c9.528,0.056,17.24,7.845,17.199,17.361
		c-0.021,4.619-1.841,8.953-5.125,12.203C340.777,391.729,336.47,393.5,331.895,393.5z M324.6,376.183
		c-0.018,4.017,3.23,7.299,7.242,7.317c0.015,0,0.029,0,0.044,0c1.931,0,3.743-0.746,5.115-2.103c1.384-1.37,2.15-3.195,2.159-5.14
		c0.018-4.011-3.235-7.294-7.25-7.317c-0.011,0-0.021,0-0.032,0C327.883,368.94,324.617,372.182,324.6,376.183L324.6,376.183z"/>
	<path style="fill:#333333;" d="M331.649,430.01c-0.007,0-0.015,0-0.021,0c-2.762-0.012-4.99-2.26-4.979-5.022l0.03-7.138
		c0.011-2.754,2.248-4.98,5-4.98c0.007,0,0.014,0,0.021,0c2.761,0.011,4.99,2.259,4.979,5.02l-0.03,7.142
		C336.638,427.785,334.4,430.01,331.649,430.01z"/>
	<path style="fill:#333333;" d="M332.08,339.58c-0.007,0-0.013,0-0.02,0c-2.762-0.011-4.991-2.259-4.98-5.02l0.04-7.152
		c0.018-2.75,2.253-4.968,4.999-4.968c0.012,0,0.022,0,0.033,0c2.762,0.018,4.985,2.271,4.968,5.032l-0.04,7.128
		C337.069,337.354,334.832,339.58,332.08,339.58z"/>
	<path style="fill:#333333;" d="M366.2,415.88c-1.289,0-2.578-0.496-3.557-1.485l-5.01-5.06c-1.947-1.958-1.938-5.124,0.021-7.071
		c1.958-1.947,5.123-1.938,7.071,0.021l5.031,5.08c1.94,1.964,1.922,5.13-0.042,7.071C368.74,415.399,367.47,415.88,366.2,415.88z"
		/>
	<path style="fill:#333333;" d="M302.58,351.64c-1.284,0-2.568-0.492-3.545-1.474l-5.032-5.083c-1.941-1.964-1.922-5.13,0.043-7.071
		c1.964-1.94,5.132-1.921,7.07,0.043l5.009,5.058c1.947,1.958,1.938,5.124-0.019,7.071
		C305.131,351.155,303.855,351.64,302.58,351.64z"/>
	<path style="fill:#333333;" d="M290.239,381.02l-33.404-0.03c-2.762-0.003-4.998-2.244-4.995-5.005c0.003-2.76,2.241-4.995,5-4.995
		c0.002,0,0.003,0,0.005,0l33.395,0.03c2.762,0,5,2.239,5,5S293.001,381.02,290.239,381.02z"/>
	<path style="fill:#333333;" d="M380.661,381.46c-0.012,0-0.021,0-0.032,0l-7.131-0.04c-2.761-0.012-4.99-2.26-4.979-5.021
		c0.012-2.754,2.248-4.979,5-4.979c0.007,0,0.014,0,0.021,0l7.15,0.04c2.762,0.018,4.986,2.271,4.969,5.032
		C385.643,379.242,383.407,381.46,380.661,381.46z"/>
	<path style="fill:#333333;" d="M361.47,351.92c-1.285,0-2.569-0.492-3.547-1.476c-1.946-1.958-1.937-5.125,0.022-7.071l5.08-5.03
		c1.964-1.94,5.129-1.922,7.071,0.042c1.94,1.964,1.922,5.13-0.042,7.071l-5.061,5.01C364.019,351.436,362.744,351.92,361.47,351.92
		z"/>
	<path style="fill:#333333;" d="M297.22,415.55c-1.287,0-2.573-0.494-3.552-1.48c-1.943-1.961-1.93-5.127,0.032-7.071l5.085-5.035
		c1.964-1.941,5.129-1.923,7.071,0.042c1.94,1.964,1.922,5.13-0.042,7.071l-5.075,5.024
		C299.765,415.067,298.492,415.55,297.22,415.55z"/>
	<path style="fill:#333333;" d="M212.774,425.3c-0.083,0-0.166,0-0.249,0c-13.105-0.065-25.406-5.229-34.637-14.54
		c-9.227-9.309-14.273-21.655-14.209-34.764c0.064-13.119,5.228-25.416,14.54-34.637l0,0c9.256-9.175,21.51-14.219,34.526-14.219
		c0.083,0,0.165,0,0.248,0c13.122,0.065,25.425,5.233,34.642,14.554c9.094,9.187,14.139,21.358,14.204,34.27v0.466
		c-0.065,13.135-5.229,25.432-14.541,34.661C238.05,420.26,225.797,425.3,212.774,425.3z M212.747,337.14
		c-10.363,0-20.117,4.016-27.488,11.322l-0.002,0.002c-7.414,7.341-11.526,17.133-11.577,27.571
		c-0.051,10.447,3.966,20.275,11.311,27.686c7.352,7.416,17.147,11.529,27.584,11.58c0.065,0,0.133,0,0.198,0
		c10.37,0,20.123-4.012,27.486-11.311c7.417-7.351,11.529-17.143,11.581-27.574v-0.425c-0.052-10.254-4.069-19.945-11.313-27.262
		c-7.339-7.421-17.133-11.536-27.581-11.587C212.88,337.14,212.813,337.14,212.747,337.14z"/>
	<path style="fill:#333333;" d="M212.775,393.5c-0.035,0-0.069,0-0.104,0c-9.518-0.042-17.232-7.831-17.191-17.361v-0.001
		c0.042-9.499,7.79-17.198,17.284-17.198c0.026,0,0.052,0,0.077,0c9.528,0.056,17.24,7.845,17.199,17.361
		c-0.021,4.619-1.841,8.953-5.125,12.204C221.657,391.729,217.35,393.5,212.775,393.5z M205.479,376.183
		c-0.017,4.017,3.232,7.299,7.243,7.317c1.953-0.005,3.775-0.736,5.157-2.103c1.385-1.37,2.151-3.195,2.16-5.14
		c0.018-4.011-3.235-7.294-7.25-7.317c-0.011,0-0.021,0-0.032,0C208.763,368.94,205.497,372.182,205.479,376.183L205.479,376.183z"
		/>
	<path style="fill:#333333;" d="M212.529,430.01c-0.007,0-0.015,0-0.021,0c-2.762-0.012-4.99-2.26-4.979-5.022l0.03-7.138
		c0.011-2.754,2.248-4.98,5-4.98c0.007,0,0.014,0,0.021,0c2.761,0.011,4.99,2.259,4.979,5.02l-0.03,7.142
		C217.518,427.785,215.28,430.01,212.529,430.01z"/>
	<path style="fill:#333333;" d="M212.96,339.58c-0.007,0-0.013,0-0.02,0c-2.762-0.011-4.991-2.259-4.98-5.02l0.04-7.152
		c0.018-2.75,2.253-4.968,4.999-4.968c0.012,0,0.022,0,0.033,0c2.762,0.018,4.985,2.271,4.968,5.032l-0.04,7.128
		C217.949,337.354,215.712,339.58,212.96,339.58z"/>
	<path style="fill:#333333;" d="M247.08,415.88c-1.289,0-2.578-0.496-3.557-1.485l-5.01-5.06c-1.947-1.958-1.938-5.124,0.021-7.071
		c1.958-1.947,5.123-1.938,7.071,0.021l5.031,5.08c1.94,1.964,1.922,5.13-0.042,7.071C249.62,415.399,248.35,415.88,247.08,415.88z"
		/>
	<path style="fill:#333333;" d="M183.46,351.64c-1.284,0-2.568-0.492-3.545-1.474l-5.032-5.083c-1.941-1.964-1.922-5.13,0.043-7.071
		c1.965-1.94,5.131-1.921,7.07,0.043l5.009,5.058c1.947,1.958,1.938,5.124-0.019,7.071
		C186.011,351.155,184.735,351.64,183.46,351.64z"/>
	<path style="fill:#333333;" d="M171.12,381.02l-33.405-0.03c-2.762-0.003-4.998-2.244-4.995-5.005c0.003-2.76,2.241-4.995,5-4.995
		c0.002,0,0.003,0,0.005,0l33.396,0.03c2.762,0,5,2.239,5,5S173.882,381.02,171.12,381.02z"/>
	<path style="fill:#333333;" d="M261.541,381.46c-0.012,0-0.021,0-0.032,0l-7.131-0.04c-2.761-0.012-4.99-2.26-4.979-5.021
		c0.012-2.754,2.248-4.979,5-4.979c0.007,0,0.014,0,0.021,0l7.15,0.04c2.762,0.018,4.986,2.271,4.969,5.032
		C266.522,379.242,264.287,381.46,261.541,381.46z"/>
	<path style="fill:#333333;" d="M242.35,351.92c-1.289,0-2.578-0.496-3.557-1.486c-1.94-1.964-1.922-5.13,0.042-7.071l5.065-5.015
		c1.96-1.943,5.125-1.931,7.071,0.032c1.943,1.961,1.93,5.127-0.032,7.071l-5.075,5.025
		C244.89,351.439,243.619,351.92,242.35,351.92z"/>
	<path style="fill:#333333;" d="M178.1,415.55c-1.287,0-2.573-0.494-3.552-1.48c-1.943-1.961-1.93-5.127,0.032-7.071l5.085-5.035
		c1.964-1.941,5.129-1.923,7.071,0.042c1.94,1.964,1.922,5.13-0.042,7.071l-5.075,5.024
		C180.645,415.067,179.372,415.55,178.1,415.55z"/>
	<path style="fill:#333333;" d="M93.654,425.3c-0.083,0-0.166,0-0.249,0c-13.105-0.065-25.406-5.229-34.637-14.54
		c-9.228-9.309-14.273-21.658-14.209-34.774l0,0c0.065-13.111,5.23-25.409,14.543-34.628c0.579-0.58,1.235-1.194,1.931-1.808
		c8.974-8.001,20.558-12.41,32.619-12.41c0.073,0,0.146,0,0.22,0c13.124,0.065,25.427,5.233,34.644,14.554
		c9.095,9.188,14.14,21.359,14.204,34.271v0.465c-0.064,13.133-5.228,25.43-14.54,34.661C118.93,420.26,106.677,425.3,93.654,425.3z
		 M54.56,376.034c-0.051,10.443,3.966,20.275,11.311,27.686c7.352,7.416,17.147,11.529,27.584,11.58c0.065,0,0.133,0,0.198,0
		c10.369,0,20.123-4.012,27.488-11.312c7.416-7.351,11.528-17.144,11.579-27.573v-0.426c-0.051-10.253-4.068-19.944-11.313-27.262
		c-7.339-7.421-17.133-11.536-27.581-11.587c-0.058,0-0.117,0-0.175,0c-9.603,0-18.823,3.509-25.983,9.892
		c-0.559,0.493-1.06,0.962-1.51,1.413C58.724,355.803,54.611,365.595,54.56,376.034L54.56,376.034z"/>
	<path style="fill:#333333;" d="M93.655,393.5c-0.035,0-0.069,0-0.104,0c-9.518-0.042-17.232-7.831-17.191-17.361v-0.001
		c0.042-9.499,7.79-17.198,17.285-17.198c0.026,0,0.052,0,0.077,0c9.529,0.056,17.24,7.845,17.198,17.362
		c-0.021,4.618-1.841,8.952-5.125,12.203C102.537,391.729,98.229,393.5,93.655,393.5z M86.359,376.183
		c-0.017,4.017,3.232,7.299,7.243,7.317c0.015,0,0.029,0,0.044,0c1.931,0,3.742-0.746,5.113-2.103c1.385-1.37,2.151-3.195,2.16-5.14
		c0.018-4.011-3.234-7.294-7.249-7.317c-0.011,0-0.021,0-0.032,0C89.643,368.94,86.377,372.182,86.359,376.183L86.359,376.183z"/>
	<path style="fill:#333333;" d="M93.4,430.01c-0.012,0-0.022,0-0.033,0c-2.762-0.018-4.985-2.271-4.968-5.032l0.04-7.127
		c0.011-2.754,2.248-4.98,5-4.98c0.007,0,0.014,0,0.021,0c2.761,0.011,4.99,2.259,4.979,5.02l-0.04,7.152
		C98.382,427.792,96.146,430.01,93.4,430.01z"/>
	<path style="fill:#333333;" d="M93.84,339.58c-0.007,0-0.013,0-0.02,0c-2.762-0.011-4.991-2.259-4.98-5.02l0.04-7.152
		c0.018-2.75,2.253-4.968,4.999-4.968c0.012,0,0.022,0,0.033,0c2.762,0.018,4.985,2.271,4.968,5.032l-0.04,7.128
		C98.829,337.354,96.592,339.58,93.84,339.58z"/>
	<path style="fill:#333333;" d="M127.96,415.88c-1.29,0-2.579-0.496-3.557-1.486l-5.009-5.058c-1.947-1.958-1.938-5.124,0.019-7.071
		c1.958-1.947,5.125-1.939,7.071,0.019l5.032,5.082c1.941,1.964,1.922,5.13-0.043,7.071C130.5,415.399,129.229,415.88,127.96,415.88
		z"/>
	<path style="fill:#333333;" d="M64.34,351.64c-1.284,0-2.568-0.492-3.546-1.475l-5.031-5.081c-1.94-1.964-1.922-5.13,0.042-7.071
		s5.129-1.923,7.071,0.042l5.01,5.06c1.947,1.958,1.938,5.124-0.021,7.071C66.89,351.156,65.614,351.64,64.34,351.64z"/>
	<path style="fill:#333333;" d="M52,381.02c-0.007,0-0.014,0-0.021,0l-7.141-0.03c-2.761-0.012-4.99-2.26-4.979-5.021
		c0.012-2.754,2.248-4.979,5-4.979c0.007,0,0.014,0,0.021,0l7.141,0.03c2.761,0.012,4.99,2.26,4.979,5.021
		C56.988,378.795,54.752,381.02,52,381.02z"/>
	<path style="fill:#333333;" d="M142.421,381.46c-0.012,0-0.021,0-0.032,0l-7.131-0.04c-2.761-0.012-4.99-2.26-4.979-5.021
		c0.012-2.754,2.248-4.979,5-4.979c0.007,0,0.014,0,0.021,0l7.15,0.04c2.762,0.018,4.986,2.271,4.969,5.032
		C147.402,379.242,145.167,381.46,142.421,381.46z"/>
	<path style="fill:#333333;" d="M123.229,351.92c-1.289,0-2.578-0.496-3.557-1.486c-1.94-1.964-1.922-5.13,0.042-7.071l5.065-5.015
		c1.96-1.943,5.125-1.931,7.071,0.032c1.943,1.961,1.93,5.127-0.032,7.071l-5.075,5.025
		C125.77,351.439,124.499,351.92,123.229,351.92z"/>
	<path style="fill:#333333;" d="M58.979,415.55c-1.287,0-2.573-0.494-3.552-1.48c-1.943-1.961-1.93-5.127,0.032-7.071l5.065-5.025
		c1.959-1.947,5.124-1.937,7.071,0.022c1.946,1.958,1.937,5.125-0.022,7.071l-5.075,5.035
		C61.524,415.067,60.252,415.55,58.979,415.55z"/>
	<path style="fill:#333333;" d="M383.76,313.67h-10v-80.33h-32.42v-10h37.42c2.762,0,5,2.239,5,5V313.67z"/>
	<rect x="235.01" y="223.34" style="fill:#333333;" width="35.66" height="10"/>
	<path style="fill:#333333;" d="M51.76,313.67h-10v-85.33c0-2.761,2.238-5,5-5h21.58v10H51.76V313.67z"/>
	<rect x="285.34" y="42.34" style="fill:#333333;" width="10" height="165.33"/>
	<path style="fill:#333333;" d="M321.67,212.67c-2.762,0-5-2.239-5-5V92.337c0-2.761,2.238-5,5-5s5,2.239,5,5V207.67
		C326.67,210.431,324.432,212.67,321.67,212.67z"/>
	<path style="fill:#333333;" d="M321.67,78.67c-2.762,0-5-2.239-5-5V42.34c0-2.761,2.238-5,5-5s5,2.239,5,5v31.33
		C326.67,76.431,324.432,78.67,321.67,78.67z"/>
	<path style="fill:#333333;" d="M341.34,233.34h-70.67c-2.762,0-5-2.239-5-5v-20.67c0-2.761,2.238-5,5-5h70.67c2.762,0,5,2.239,5,5
		v20.67C346.34,231.101,344.102,233.34,341.34,233.34z M275.67,223.34h60.67v-10.67h-60.67L275.67,223.34L275.67,223.34z"/>
	<path style="fill:#333333;" d="M353.67,16.67c-2.762,0-5-2.239-5-5V10h-24.997c-2.762,0-5-2.239-5-5s2.238-5,5-5h29.997
		c2.762,0,5,2.239,5,5v6.67C358.67,14.431,356.432,16.67,353.67,16.67z"/>
	<path style="fill:#333333;" d="M353.67,47.34h-63.33c-2.762,0-5-2.239-5-5V5c0-2.761,2.238-5,5-5h16c2.762,0,5,2.239,5,5
		s-2.238,5-5,5h-11v27.34h53.33v-1.67c0-2.761,2.238-5,5-5s5,2.239,5,5v6.67C358.67,45.101,356.432,47.34,353.67,47.34z"/>
	<path style="fill:#333333;" d="M235.01,233.34H68.34c-2.762,0-5-2.239-5-5V177c0-2.761,2.238-5,5-5h127.333c2.762,0,5,2.239,5,5
		s-2.238,5-5,5H73.34v41.34h156.67V182h-17.67c-2.762,0-5-2.239-5-5s2.238-5,5-5h22.67c2.762,0,5,2.239,5,5v51.34
		C240.01,231.101,237.771,233.34,235.01,233.34z"/>
	<path style="fill:#333333;" d="M115.535,141.914c-14.915,0-28.937-5.808-39.48-16.352c-1.953-1.953-1.953-5.119,0-7.071
		l35.939-35.94c1.951-1.952,5.119-1.952,7.07,0c1.953,1.953,1.953,5.119,0,7.071L86.85,121.837
		c8.107,6.53,18.123,10.077,28.685,10.077c12.243,0,23.753-4.767,32.409-13.423c8.656-8.656,13.423-20.166,13.423-32.409
		s-4.767-23.753-13.423-32.409c-1.953-1.953-1.953-5.119,0-7.071c1.951-1.952,5.119-1.952,7.07,0
		c10.545,10.545,16.353,24.566,16.353,39.48c0,14.915-5.808,28.936-16.353,39.48C144.471,136.106,130.449,141.914,115.535,141.914z"
		/>
	<path style="fill:#333333;" d="M115.54,91.086c-1.279,0-2.559-0.488-3.535-1.464c-1.953-1.952-1.953-5.118-0.001-7.071
		l22.271-22.278c1.953-1.953,5.118-1.953,7.071-0.001s1.953,5.118,0.001,7.071l-22.271,22.278
		C118.1,90.598,116.819,91.086,115.54,91.086z"/>
	<path style="fill:#FFFFFF;" d="M142.287,116.833c-1.023,0-2.047-0.391-2.828-1.171c-1.563-1.562-1.563-4.095,0-5.657
		c9.991-9.992,12.71-25.333,6.765-38.174c-0.928-2.005-0.056-4.382,1.949-5.311c2.006-0.928,4.382-0.055,5.311,1.949
		c7.349,15.873,3.986,34.838-8.368,47.192C144.335,116.443,143.311,116.833,142.287,116.833z"/>
	<path style="fill:#333333;" d="M115.54,91.086h-0.011c-1.327,0-2.599-0.527-3.537-1.466l-14.05-14.06
		c-1.951-1.953-1.95-5.119,0.003-7.071c1.953-1.952,5.118-1.952,7.071,0.002l13.956,13.966c0.962,0.911,1.562,2.2,1.562,3.628
		C120.534,88.847,118.302,91.086,115.54,91.086z"/>
	<path style="fill:#333333;" d="M407.67,318.67h-46.2c-2.762,0-5-2.239-5-5s2.238-5,5-5h46.2c2.762,0,5,2.239,5,5
		S410.432,318.67,407.67,318.67z"/>
	<path style="fill:#333333;" d="M64.34,318.67h-42c-2.762,0-5-2.239-5-5s2.238-5,5-5h42c2.762,0,5,2.239,5,5
		S67.102,318.67,64.34,318.67z"/>
	<path style="fill:#333333;" d="M361.47,348.55c-2.762,0-5-2.239-5-5v-24.88h-62.796c-2.762,0-5-2.239-5-5s2.238-5,5-5h67.796
		c2.762,0,5,2.239,5,5v29.88C366.47,346.311,364.231,348.55,361.47,348.55z"/>
	<path style="fill:#333333;" d="M280.34,318.67h-7.334c-2.762,0-5-2.239-5-5s2.238-5,5-5h7.334c2.762,0,5,2.239,5,5
		S283.102,318.67,280.34,318.67z"/>
	<path style="fill:#333333;" d="M258.34,318.67H217.6c-2.762,0-5-2.239-5-5s2.238-5,5-5h40.74c2.762,0,5,2.239,5,5
		S261.102,318.67,258.34,318.67z"/>
	<path style="fill:#333333;" d="M161.67,318.67h-18.74c-2.762,0-5-2.239-5-5s2.238-5,5-5h18.74c2.762,0,5,2.239,5,5
		S164.432,318.67,161.67,318.67z"/>
	<path style="fill:#333333;" d="M64.34,348.3c-2.762,0-5-2.239-5-5v-29.63c0-2.761,2.238-5,5-5h22.67c2.762,0,5,2.239,5,5
		s-2.238,5-5,5H69.34v24.63C69.34,346.061,67.102,348.3,64.34,348.3z"/>
	<path style="fill:#333333;" d="M142.93,318.67H87.01c-2.762,0-5-2.239-5-5V249c0-2.761,2.238-5,5-5h55.92c2.762,0,5,2.239,5,5
		v64.67C147.93,316.431,145.691,318.67,142.93,318.67z M92.01,308.67h45.92V254H92.01V308.67z"/>
	<path style="fill:#333333;" d="M217.6,318.67h-55.93c-2.762,0-5-2.239-5-5V249c0-2.761,2.238-5,5-5h55.93c2.762,0,5,2.239,5,5
		v64.67C222.6,316.431,220.361,318.67,217.6,318.67z M166.67,308.67h45.93V254h-45.93L166.67,308.67L166.67,308.67z"/>
	<path style="fill:#333333;" d="M373.01,40.67h-19.34c-2.762,0-5-2.239-5-5v-24c0-2.761,2.238-5,5-5h19.34c2.762,0,5,2.239,5,5v24
		C378.01,38.431,375.771,40.67,373.01,40.67z M358.67,30.67h9.34v-14h-9.34V30.67z"/>
	<path style="fill:#FFFFFF;" d="M362.673,299.67c-2.209,0-4-1.791-4-4v-8.667c0-2.209,1.791-4,4-4s4,1.791,4,4v8.667
		C366.673,297.879,364.882,299.67,362.673,299.67z"/>
	<path style="fill:#FFFFFF;" d="M362.673,273.003c-2.209,0-4-1.791-4-4V243.67c0-2.209,1.791-4,4-4s4,1.791,4,4v25.333
		C366.673,271.212,364.882,273.003,362.673,273.003z"/>
	<path style="fill:#FFFFFF;" d="M310.34,191.67c-2.209,0-4-1.791-4-4v-132c0-2.209,1.791-4,4-4s4,1.791,4,4v132
		C314.34,189.879,312.549,191.67,310.34,191.67z"/>
	<path style="fill:#FFFFFF;" d="M219.673,212.34c-2.209,0-4-1.791-4-4v-18.67c0-2.209,1.791-4,4-4s4,1.791,4,4v18.67
		C223.673,210.549,221.882,212.34,219.673,212.34z"/>
	<path style="fill:#FFFFFF;" d="M340.34,32.005c-2.209,0-4-1.791-4-4v-8.67c0-2.209,1.791-4,4-4s4,1.791,4,4v8.67
		C344.34,30.214,342.549,32.005,340.34,32.005z"/>
	<path style="fill:#FFFFFF;" d="M205.673,306.67c-2.209,0-4-1.791-4-4v-42.34c0-2.209,1.791-4,4-4s4,1.791,4,4v42.34
		C209.673,304.879,207.882,306.67,205.673,306.67z"/>
	<path style="fill:#FFFFFF;" d="M130.673,306.67c-2.209,0-4-1.791-4-4v-42.34c0-2.209,1.791-4,4-4s4,1.791,4,4v42.34
		C134.673,304.879,132.882,306.67,130.673,306.67z"/>
	<path style="fill:#333333;" d="M226.64,270.67H77.97c-2.762,0-5-2.239-5-5s2.238-5,5-5h148.67c2.762,0,5,2.239,5,5
		S229.401,270.67,226.64,270.67z"/>
	<path style="fill:#333333;" d="M226.64,285.34H77.97c-2.762,0-5-2.239-5-5s2.238-5,5-5h148.67c2.762,0,5,2.239,5,5
		S229.401,285.34,226.64,285.34z"/>
	<path style="fill:#333333;" d="M176.673,182h-47c-1.656,0-3.206-0.82-4.137-2.191s-1.122-3.113-0.511-4.653l21.807-54.974
		c0.738-1.861,2.516-3.103,4.518-3.155c0.043-0.001,0.087-0.001,0.131-0.001c1.95,0,3.729,1.136,4.545,2.917l25.193,54.974
		c0.709,1.548,0.582,3.351-0.338,4.784C179.961,181.133,178.376,182,176.673,182z M137.035,172h31.847l-17.071-37.25L137.035,172z"
		/>
</g>
<g>
</g>
<g>
</g>
<g>
</g>
<g>
</g>
<g>
</g>
<g>
</g>
<g>
</g>
<g>
</g>
<g>
</g>
<g>
</g>
<g>
</g>
<g>
</g>
<g>
</g>
<g>
</g>
<g>
</g>
</svg>
