<?xml version="1.0" encoding="iso-8859-1"?>
<!-- Generator: Adobe Illustrator 19.0.0, SVG Export Plug-In . SVG Version: 6.00 Build 0)  -->
<svg version="1.1" id="Layer_1" xmlns="http://www.w3.org/2000/svg" xmlns:xlink="http://www.w3.org/1999/xlink" x="0px" y="0px"
	 viewBox="0 0 386.83 386.83" style="enable-background:new 0 0 386.83 386.83;" xml:space="preserve">
<g>
	<path style="fill:#1AA5E2;" d="M364.058,211.19c0,12.3-1.3,24.3-3.78,35.86c-7.12,33.32-23.97,63.03-47.44,86.02
		c-11.33,11.11-24.22,20.66-38.3,28.27c-14.34,7.77-29.91,13.54-46.35,16.95c-11.23,2.32-22.86,3.54-34.77,3.54
		c-2.86,0-5.7-0.07-8.52-0.21c-53.27-2.62-100.11-29.67-129.57-70.17c-20.39-28.04-32.46-62.54-32.55-99.84
		c0-0.79,0.01-1.57,0.01-2.36c0.01-0.65,0.03-1.3,0.04-1.94c0.01-0.57,0.02-1.14,0.04-1.71c1.23-38.28,15.08-73.38,37.51-101.27
		c4.32-5.37,8.95-10.47,13.88-15.27c21.72-21.2,49.08-36.66,79.62-43.9c8.58-2.04,17.41-3.42,26.43-4.11
		c4.33-0.33,8.7-0.5,13.11-0.5c38.41,0,73.85,12.69,102.37,34.1c6.44,4.83,12.52,10.11,18.2,15.79c16.02,16,28.89,35.16,37.56,56.48
		C359.618,166.76,364.058,188.46,364.058,211.19z"/>
	<g>
		<path style="fill:#FFFFFF;" d="M268.112,88.153c-0.906,0-1.824-0.247-2.649-0.763c-5.902-3.697-12.116-6.994-18.472-9.799
			c-2.526-1.115-3.67-4.067-2.555-6.594c1.114-2.525,4.064-3.67,6.594-2.555c6.792,2.999,13.434,6.522,19.741,10.473
			c2.34,1.466,3.049,4.551,1.583,6.892C271.405,87.321,269.777,88.153,268.112,88.153z"/>
		<path style="fill:#FFFFFF;" d="M291.211,325.895c-1.336,0-2.668-0.532-3.652-1.584c-1.887-2.017-1.781-5.181,0.235-7.067
			c29.375-27.483,46.223-66.24,46.223-106.334c0-40.324-16.17-77.856-45.532-105.684c-2.004-1.9-2.089-5.064-0.189-7.069
			c1.898-2.004,5.064-2.089,7.068-0.19c31.375,29.735,48.653,69.845,48.653,112.942c0,42.851-18.002,84.27-49.391,113.636
			C293.662,325.448,292.435,325.895,291.211,325.895z"/>
		<path style="fill:#FFFFFF;" d="M270.18,342.357c-1.637,0-3.241-0.803-4.199-2.278c-1.503-2.316-0.845-5.413,1.472-6.916
			c2.547-1.653,5.078-3.412,7.524-5.227c2.219-1.646,5.35-1.181,6.995,1.036c1.646,2.218,1.182,5.349-1.036,6.995
			c-2.613,1.939-5.317,3.817-8.038,5.583C272.057,342.097,271.112,342.357,270.18,342.357z"/>
	</g>
	<path style="fill:#FFFFFF;" d="M166.419,152.85H34.789c-2.761,0-5-2.239-5-5s2.239-5,5-5h131.629c2.761,0,5,2.239,5,5
		S169.18,152.85,166.419,152.85z"/>
	<path style="fill:#FFFFFF;" d="M212.418,176.85h-112c-2.761,0-5-2.239-5-5s2.239-5,5-5h112c2.762,0,5,2.239,5,5
		S215.18,176.85,212.418,176.85z"/>
	<path style="fill:#FFFFFF;" d="M248.418,127.85h-112c-2.761,0-5-2.239-5-5s2.239-5,5-5h112c2.762,0,5,2.239,5,5
		S251.18,127.85,248.418,127.85z"/>
	<path style="fill:#FFFFFF;" d="M295.933,152.85h-55.515c-2.762,0-5-2.239-5-5s2.238-5,5-5h55.515c2.762,0,5,2.239,5,5
		S298.694,152.85,295.933,152.85z"/>
	<path style="fill:#FFFFFF;" d="M364.055,217.85h-54.137c-2.762,0-5-2.239-5-5s2.238-5,5-5h54.137c2.762,0,5,2.239,5,5
		S366.817,217.85,364.055,217.85z"/>
	<path style="fill:#FFFFFF;" d="M289.918,217.85h-117.5c-2.761,0-5-2.239-5-5s2.239-5,5-5h117.5c2.762,0,5,2.239,5,5
		S292.68,217.85,289.918,217.85z"/>
	<path style="fill:#FFFFFF;" d="M222.418,237.85h-78c-2.761,0-5-2.239-5-5s2.239-5,5-5h78c2.762,0,5,2.239,5,5
		S225.18,237.85,222.418,237.85z"/>
	<path style="fill:#FFFFFF;" d="M314.418,237.85h-25c-2.762,0-5-2.239-5-5s2.238-5,5-5h25c2.762,0,5,2.239,5,5
		S317.18,237.85,314.418,237.85z"/>
	<path style="fill:#FFFFFF;" d="M108.419,217.85h-67c-2.761,0-5-2.239-5-5s2.239-5,5-5h67c2.761,0,5,2.239,5,5
		S111.18,217.85,108.419,217.85z"/>
	<path style="fill:#FFFFFF;" d="M149.573,217.85h-15.155c-2.761,0-5-2.239-5-5s2.239-5,5-5h15.155c2.761,0,5,2.239,5,5
		S152.335,217.85,149.573,217.85z"/>
	<path style="fill:#FFFFFF;" d="M213.418,152.85h-22c-2.761,0-5-2.239-5-5s2.239-5,5-5h22c2.762,0,5,2.239,5,5
		S216.18,152.85,213.418,152.85z"/>
	<path style="fill:#FFFFFF;" d="M292.418,290.85h-81c-2.762,0-5-2.239-5-5s2.238-5,5-5h81c2.762,0,5,2.239,5,5
		S295.18,290.85,292.418,290.85z"/>
	<path style="fill:#FFFFFF;" d="M145.419,316.85h-68c-2.761,0-5-2.239-5-5s2.239-5,5-5h68c2.761,0,5,2.239,5,5
		S148.18,316.85,145.419,316.85z"/>
	<path style="fill:#FFFFFF;" d="M235.418,316.85h-68c-2.761,0-5-2.239-5-5s2.239-5,5-5h68c2.762,0,5,2.239,5,5
		S238.18,316.85,235.418,316.85z"/>
	<path style="fill:#FFFFFF;" d="M189.419,290.85h-17c-2.761,0-5-2.239-5-5s2.239-5,5-5h17c2.761,0,5,2.239,5,5
		S192.18,290.85,189.419,290.85z"/>
	<path style="fill:#FFFFFF;" d="M162.419,84.85h-17c-2.761,0-5-2.239-5-5s2.239-5,5-5h17c2.761,0,5,2.239,5,5
		S165.18,84.85,162.419,84.85z"/>
	<path style="fill:#FFFFFF;" d="M111.273,284.116c-21.378,0-37.5-9.458-37.5-22s16.122-22,37.5-22s37.5,9.458,37.5,22
		S132.651,284.116,111.273,284.116z M111.273,250.116c-15.739,0-27.5,6.335-27.5,12s11.761,12,27.5,12s27.5-6.335,27.5-12
		S127.012,250.116,111.273,250.116z"/>
	<path style="fill:#FFFFFF;" d="M269.418,267.116H143.773c-2.761,0-5-2.239-5-5s2.239-5,5-5h125.645c2.762,0,5,2.239,5,5
		S272.18,267.116,269.418,267.116z"/>
	<path style="opacity:0.25;enable-background:new    ;" d="M228.188,378.29c0.32,0.07,0.64,0.14,0.96,0.21
		c-11.52,2.45-23.48,3.75-35.73,3.75c-19.94,0-39.09-3.42-56.88-9.71c-19.96-7.05-38.22-17.72-53.98-31.21
		c-35.702-30.54-58.634-75.553-59.727-125.95c-0.03-1.254-0.05-2.51-0.053-3.77c0-0.79,0.01-1.57,0.01-2.36
		c0.01-0.65,0.03-1.3,0.04-1.94c1.1-44.34,19.12-84.49,47.83-114.22c1.2-1.24,2.42-2.46,3.66-3.66c-0.02-0.12-0.04-0.24-0.06-0.37
		c21.72-21.2,49.08-36.66,79.62-43.9c0.13,0.11,0.26,0.22,0.39,0.34c12.57-2.95,25.67-4.53,39.15-4.53
		c12.26,0,24.21,1.31,35.74,3.77c-9.94,2.12-19.56,5.09-28.78,8.85c-11.1,4.54-21.61,10.21-31.39,16.87
		c0.82,3.51,1.26,7.17,1.26,10.92c0,26.68-21.63,48.31-48.31,48.31c-2.2,0-4.37-0.16-6.5-0.45c-13.49,24.42-21.18,52.5-21.18,82.37
		c0,51.92,23.19,98.42,59.78,129.72c15.77,13.49,34.03,24.16,53.98,31.21C214.578,374.86,221.298,376.78,228.188,378.29z"/>
	<path style="fill:#333333;" d="M193.415,386.83c-96.848,0-175.64-78.792-175.64-175.64S96.567,35.55,193.415,35.55
		s175.64,78.792,175.64,175.64C369.055,308.039,290.263,386.83,193.415,386.83z M193.415,45.55
		c-91.334,0-165.64,74.306-165.64,165.64s74.306,165.64,165.64,165.64s165.64-74.306,165.64-165.64S284.749,45.55,193.415,45.55z"/>
	<g>
		<circle style="fill:#F24125;" cx="83.418" cy="53.305" r="48.305"/>
		<path style="opacity:0.25;enable-background:new    ;" d="M35.113,53.302c0,26.68,21.62,48.31,48.3,48.31c4.14,0,8.17-0.52,12-1.5
			c-20.87-5.34-36.3-24.27-36.3-46.81s15.43-41.46,36.3-46.8c-3.83-0.98-7.86-1.5-12-1.5C56.733,5.002,35.113,26.622,35.113,53.302z
			"/>
		<path style="fill:#FFFFFF;" d="M107.676,82.563c-1.28,0-2.559-0.488-3.536-1.465c-1.953-1.953-1.953-5.118,0-7.071
			c6.884-6.884,9.886-16.726,8.031-26.329c-0.524-2.711,1.25-5.334,3.961-5.858c2.708-0.526,5.333,1.249,5.857,3.961
			c2.486,12.867-1.543,26.062-10.778,35.297C110.235,82.074,108.955,82.563,107.676,82.563z"/>
		<path style="fill:#333333;" d="M83.419,106.61c-29.393,0-53.305-23.913-53.305-53.305S54.026,0,83.419,0
			c29.392,0,53.305,23.913,53.305,53.305S112.811,106.61,83.419,106.61z M83.419,10C59.54,10,40.113,29.427,40.113,53.305
			S59.54,96.61,83.419,96.61s43.305-19.427,43.305-43.305S107.297,10,83.419,10z"/>
		<path style="fill:#FFFFFF;" d="M107.42,34.894c-0.33,0-0.66-0.03-0.98-0.1c-0.32-0.06-0.63-0.16-0.93-0.28
			c-0.3-0.13-0.59-0.28-0.87-0.46c-0.27-0.19-0.53-0.39-0.76-0.62c-0.93-0.93-1.46-2.22-1.46-3.54c0-1.32,0.53-2.6,1.46-3.53
			c0.23-0.24,0.49-0.45,0.76-0.63c0.28-0.18,0.57-0.33,0.87-0.46c0.3-0.12,0.61-0.22,0.93-0.28c1.63-0.33,3.36,0.2,4.52,1.37
			c0.93,0.93,1.46,2.21,1.46,3.53c0,1.32-0.53,2.6-1.46,3.54C110.03,34.364,108.74,34.894,107.42,34.894z"/>
	</g>
</g>
<g>
</g>
<g>
</g>
<g>
</g>
<g>
</g>
<g>
</g>
<g>
</g>
<g>
</g>
<g>
</g>
<g>
</g>
<g>
</g>
<g>
</g>
<g>
</g>
<g>
</g>
<g>
</g>
<g>
</g>
</svg>
