<?xml version="1.0" encoding="iso-8859-1"?>
<!-- Generator: Adobe Illustrator 19.0.0, SVG Export Plug-In . SVG Version: 6.00 Build 0)  -->
<svg version="1.1" id="Layer_1" xmlns="http://www.w3.org/2000/svg" xmlns:xlink="http://www.w3.org/1999/xlink" x="0px" y="0px"
	 viewBox="0 0 461.274 461.274" style="enable-background:new 0 0 461.274 461.274;" xml:space="preserve">
<g>
	<path style="fill:#20CE55;" d="M255.58,273.983c28.284,59.397,113.717-87.497,145.247-55.77
		c-2.864-39.435-19.375-78.065-49.526-108.216c-36.112-36.112-84.393-52.658-131.649-49.625l-0.007,0.007
		c0,0-75.081,79.96-41.139,113.901s110.309-96.167,135.765-53.74S227.296,214.586,255.58,273.983z"/>
	<path style="fill:#20CE55;" d="M232.246,352.472c-46.669-80.61-107.48-8.485-129.401-33.234s50.205-48.79,26.87-82.024
		s-69.671-3.557-69.671-3.557H60.03c0.742,42.66,17.395,85.107,49.95,117.663c36.713,36.713,85.991,53.196,133.997,49.455
		C244.592,384.533,241.318,368.149,232.246,352.472z"/>
	<path style="fill:#1AA5E2;" d="M73.274,164.552c-9.242,22.026-13.654,45.601-13.244,69.106h0.014c0,0,46.337-29.677,69.671,3.557
		s-48.79,57.276-26.87,82.024s82.731-47.376,129.401,33.234c9.072,15.677,12.346,32.06,11.731,48.302
		c20.683-1.605,41.139-6.972,60.238-16.101l-0.007-0.007c12.565-72.471,81.77-83.297,81.77-83.297l0.007,0.007
		c11.95-26.248,16.9-54.914,14.842-83.163c-31.53-31.728-116.963,115.167-145.247,55.77s84.146-111.016,58.69-153.442
		s-101.823,87.681-135.765,53.74s41.14-113.901,41.14-113.901c-18.505,1.181-36.861,5.367-54.256,12.565l0.007,0.007
		c0,0-11.349,65.612-92.101,91.606L73.274,164.552z"/>
	<path style="fill:#333333;" d="M325.25,262.998c-1.393,0-2.779-0.579-3.767-1.71c-1.817-2.08-1.604-5.238,0.475-7.055
		c3.063-2.677,6.135-5.404,9.197-8.123c13.629-12.101,26.502-23.53,38.416-30.576c14.896-8.809,26.605-9.093,34.802-0.845
		c1.946,1.959,1.936,5.125-0.022,7.071c-1.959,1.945-5.124,1.937-7.071-0.022c-11.065-11.136-35.681,10.715-59.485,31.85
		c-3.082,2.736-6.173,5.481-9.256,8.175C327.59,262.591,326.418,262.998,325.25,262.998z"/>
	<path style="fill:#333333;" d="M307.045,278.035c-1.513,0-3.008-0.684-3.991-1.984c-1.666-2.202-1.231-5.338,0.971-7.004
		c2.071-1.567,4.293-3.317,6.604-5.201c2.14-1.744,5.289-1.424,7.035,0.716c1.745,2.14,1.424,5.29-0.716,7.035
		c-2.438,1.988-4.692,3.763-6.89,5.425C309.155,277.705,308.096,278.035,307.045,278.035z"/>
	<path style="fill:#333333;" d="M274.606,293.293c-2.713,0-5.278-0.424-7.717-1.271c-6.564-2.279-11.887-7.625-15.822-15.888
		c-16.395-34.429,9.802-65.63,32.915-93.159c4.071-4.849,7.917-9.429,11.524-13.998c1.711-2.167,4.855-2.538,7.022-0.826
		c2.167,1.711,2.538,4.855,0.826,7.022c-3.701,4.688-7.593,9.324-11.714,14.232c-22.209,26.453-45.175,53.806-31.545,82.429
		c2.781,5.839,6.076,9.353,10.074,10.741c4.489,1.56,10.211,0.571,17.495-3.02c2.478-1.221,5.475-0.203,6.696,2.274
		s0.203,5.475-2.274,6.696C285.625,291.709,279.842,293.293,274.606,293.293z"/>
	<path style="fill:#333333;" d="M191.996,184.964c-6.571,0-12.262-2.382-17.026-7.146C138.028,140.876,212.799,60.368,216,56.959
		l0.109-0.113c1.953-1.953,5.123-1.956,7.075-0.003c1.926,1.927,1.956,5.031,0.081,6.989c-0.798,0.856-18.87,20.356-32.7,43.462
		c-12.295,20.541-23.754,48.223-8.524,63.453c13.601,13.603,39.173-8.558,63.902-29.99c21.443-18.585,41.688-36.141,57.884-33.559
		c6.066,0.967,11.022,4.591,14.73,10.771c5.179,8.632,5.862,18.418,2.031,29.087c-0.933,2.599-3.795,3.949-6.396,3.016
		c-2.599-0.933-3.949-3.796-3.016-6.396c2.846-7.926,2.467-14.46-1.195-20.563c-2.859-4.766-5.781-5.73-7.73-6.041
		c-11.59-1.85-30.991,14.974-49.76,31.24c-13.307,11.533-27.066,23.458-39.805,30.404
		C205.05,182.881,198.139,184.963,191.996,184.964z"/>
	<path style="fill:#333333;" d="M243.98,405.775c-0.064,0-0.128-0.001-0.193-0.003c-2.759-0.104-4.912-2.426-4.807-5.186
		c0.625-16.5-3.097-31.845-11.062-45.608c-16.399-28.325-35.257-39.555-61.146-36.41c-2.739,0.336-5.233-1.619-5.566-4.36
		s1.619-5.233,4.36-5.566c30.01-3.647,52.572,9.486,71.007,41.327c8.926,15.424,13.098,32.582,12.4,50.997
		C248.871,403.659,246.654,405.775,243.98,405.775z"/>
	<path style="fill:#333333;" d="M116.145,329.686c-6.546,0-12.374-1.861-17.043-7.132c-6.103-6.891-7.103-14.696-2.971-23.201
		c3.221-6.631,9.08-12.88,15.283-19.497c14.989-15.988,23.425-26.643,14.208-39.769c-8.401-11.965-21.32-16.082-38.395-12.236
		c-13.487,3.037-24.378,9.948-24.487,10.017c-2.327,1.489-5.418,0.811-6.907-1.514c-1.489-2.325-0.812-5.418,1.514-6.907
		c0.503-0.322,12.499-7.933,27.684-11.352c21.108-4.753,37.977,0.864,48.776,16.246c14.553,20.727-1.888,38.264-15.098,52.354
		c-13.589,14.495-18.842,21.64-12.122,29.228c5.613,6.337,15.751,3.761,31.827-0.966c2.222-0.653,4.495-1.321,6.812-1.971
		c2.657-0.748,5.418,0.804,6.165,3.463c0.746,2.659-0.805,5.419-3.463,6.165c-2.276,0.639-4.509,1.295-6.692,1.938
		C132.373,327.157,123.773,329.685,116.145,329.686z"/>
	<path style="fill:#333333;" d="M304.214,389.668c-0.284,0-0.571-0.024-0.86-0.075c-2.721-0.472-4.544-3.06-4.072-5.78
		c6.842-39.46,30.02-61.179,48.259-72.451c2.35-1.451,5.43-0.724,6.882,1.625s0.724,5.43-1.625,6.882
		c-23.99,14.825-38.681,36.914-43.664,65.652C308.713,387.953,306.6,389.668,304.214,389.668z"/>
	<path style="fill:#333333;" d="M363.669,313.508c-1.917,0-3.747-1.109-4.574-2.975c-1.119-2.524,0.02-5.478,2.544-6.598
		c13.157-5.834,23.147-7.44,23.566-7.506c2.73-0.427,5.286,1.439,5.713,4.167c0.426,2.726-1.436,5.281-4.16,5.712l0,0
		c-0.091,0.014-9.197,1.506-21.065,6.769C365.034,313.369,364.346,313.508,363.669,313.508z"/>
	<path style="fill:#333333;" d="M74.827,169.318l-3.064-9.519c76.982-24.78,88.598-87.073,88.706-87.699l9.854,1.704
		c-0.123,0.712-3.168,17.663-16.519,37.952C141.564,130.359,117.927,155.445,74.827,169.318z"/>
	<path style="fill:#FFFFFF;" d="M310.374,107.902c-0.907,0-1.824-0.247-2.649-0.763c-5.901-3.697-12.116-6.994-18.471-9.799
		c-2.526-1.115-3.67-4.067-2.555-6.593s4.067-3.671,6.593-2.555c6.793,2.999,13.435,6.522,19.742,10.473
		c2.34,1.466,3.049,4.552,1.583,6.892C313.667,107.071,312.039,107.902,310.374,107.902z"/>
	<path style="fill:#FFFFFF;" d="M386.28,230.656c0,18.707-3.432,37.137-9.898,54.407c-1.091,2.913-4.577,4.107-7.247,2.511l0,0
		c-2.068-1.237-2.961-3.772-2.116-6.028c6.054-16.15,9.26-33.391,9.26-50.889c0-40.32-16.17-77.85-45.53-105.68
		c-2.01-1.9-2.09-5.06-0.19-7.07c1.9-2,5.06-2.09,7.06-0.19C369,147.456,386.28,187.566,386.28,230.656z"/>
	<path style="opacity:0.25;enable-background:new    ;" d="M245.245,391.591c-19.96-7.05-38.22-17.72-53.98-31.21
		c-36.59-31.3-59.78-77.8-59.78-129.72c0-46.04,18.24-87.83,47.88-118.52c16.33-16.91,36.12-30.46,58.23-39.5
		c9.22-3.765,18.846-6.738,28.788-8.857c-11.529-2.458-23.483-3.763-35.745-3.763c-22.84,0-44.62,4.49-64.53,12.62
		c-22.11,9.04-41.9,22.59-58.23,39.5c-29.64,30.69-47.88,72.48-47.88,118.52c0,51.92,23.19,98.42,59.78,129.72
		c15.76,13.49,34.02,24.16,53.98,31.21c17.79,6.29,36.94,9.71,56.88,9.71c12.255,0,24.208-1.3,35.734-3.756
		C259.15,396.005,252.096,394.013,245.245,391.591z"/>
	<g>
		<circle style="fill:#FCBC1D;" cx="58.308" cy="90.145" r="26.999"/>
		<path style="opacity:0.25;enable-background:new    ;" d="M60.222,109.238c2.54,2.54,5.47,4.47,8.59,5.78
			c-9.82,4.15-21.59,2.22-29.59-5.78c-10.55-10.55-10.55-27.64,0-38.18c8-8.01,19.77-9.94,29.59-5.78
			c-3.12,1.31-6.05,3.24-8.59,5.78C49.672,81.598,49.672,98.688,60.222,109.238z"/>
		<path style="fill:#333333;" d="M39.217,76.054c-1.28,0-2.559-0.488-3.536-1.464c-1.953-1.953-1.953-5.119,0-7.071l50.91-50.91
			c1.953-1.952,5.118-1.952,7.071,0c1.953,1.953,1.953,5.119,0,7.071L42.753,74.59C41.776,75.566,40.497,76.054,39.217,76.054z"/>
		<path style="fill:#333333;" d="M77.399,114.236c-1.28,0-2.559-0.488-3.536-1.464c-1.953-1.953-1.953-5.119,0-7.071l50.909-50.909
			c1.953-1.952,5.118-1.952,7.071,0c1.953,1.953,1.953,5.119,0,7.071l-50.908,50.908C79.958,113.747,78.679,114.236,77.399,114.236z
			"/>
		<path style="fill:#333333;" d="M77.399,76.054c-1.28,0-2.559-0.488-3.536-1.464c-1.953-1.953-1.953-5.119,0-7.071l31.818-31.818
			c1.953-1.952,5.118-1.952,7.071,0c1.953,1.953,1.953,5.119,0,7.071L80.935,74.59C79.958,75.566,78.679,76.054,77.399,76.054z"/>
		<path style="fill:#333333;" d="M58.308,122.128c-8.195,0-16.388-3.118-22.626-9.357c-12.476-12.477-12.476-32.777,0-45.253
			c6.044-6.044,14.079-9.373,22.626-9.373s16.583,3.329,22.627,9.373c12.476,12.476,12.476,32.776,0,45.253
			C74.697,119.008,66.501,122.128,58.308,122.128z M58.308,68.146c-5.876,0-11.4,2.289-15.555,6.444
			c-8.577,8.577-8.577,22.533,0,31.11s22.533,8.577,31.111,0c8.577-8.577,8.577-22.533,0-31.11
			C69.708,70.434,64.184,68.146,58.308,68.146z"/>
	</g>
	<path style="fill:#808080;" d="M225.399,461.236c-0.04,0-0.079,0-0.118-0.001c-59.57-1.378-115.586-25.346-157.728-67.488
		c-41.381-41.381-65.32-96.364-67.406-154.82c-1.389-38.898,7.097-77.7,24.538-112.211c1.246-2.464,4.255-3.453,6.718-2.207
		c2.464,1.246,3.453,4.253,2.207,6.718c-16.682,33.009-24.798,70.127-23.47,107.344c1.996,55.92,24.896,108.518,64.484,148.105
		c40.314,40.315,93.9,63.244,150.888,64.563c2.761,0.064,4.947,2.354,4.883,5.114C230.332,459.073,228.107,461.236,225.399,461.236z
		"/>
	<path style="fill:#808080;" d="M252.812,460.226c-2.543,0-4.719-1.932-4.971-4.516c-0.268-2.749,1.743-5.193,4.492-5.461
		c47.333-4.611,91.027-23.973,126.358-55.992c2.697-2.442,5.376-4.992,7.965-7.582c18.22-18.22,32.952-39.141,43.787-62.183
		c1.175-2.5,4.154-3.572,6.652-2.397c2.499,1.175,3.572,4.154,2.397,6.652c-11.328,24.091-26.726,45.959-45.765,64.999
		c-2.705,2.706-5.506,5.371-8.323,7.922c-36.934,33.471-82.614,53.712-132.102,58.533
		C253.138,460.218,252.974,460.226,252.812,460.226z"/>
	<path style="fill:#808080;" d="M443.996,309.391c-0.541,0-1.09-0.088-1.63-0.274c-2.611-0.9-3.998-3.746-3.098-6.356
		c1.948-5.65,3.685-11.457,5.164-17.259c0.683-2.675,3.402-4.292,6.08-3.61c2.676,0.682,4.292,3.404,3.61,6.08
		c-1.546,6.067-3.363,12.139-5.4,18.048C448.009,308.09,446.071,309.391,443.996,309.391z"/>
	<path style="fill:#808080;" d="M453.063,273.913c-0.278,0-0.56-0.023-0.844-0.072c-2.722-0.463-4.554-3.045-4.091-5.768
		c1.962-11.539,3.017-23.369,3.135-35.162c0.611-59.788-22.333-115.995-64.606-158.268c-20.641-20.641-45.842-37.377-72.878-48.398
		c-2.557-1.042-3.785-3.96-2.743-6.517c1.042-2.558,3.961-3.786,6.517-2.743c28.26,11.52,54.601,29.012,76.175,50.587
		c44.189,44.189,68.174,102.944,67.534,165.44c-0.123,12.319-1.225,24.68-3.275,36.738
		C457.572,272.189,455.456,273.913,453.063,273.913z"/>
	<path style="fill:#808080;" d="M129.721,33.729c-1.834,0-3.6-1.013-4.476-2.765c-1.235-2.47-0.234-5.473,2.235-6.708
		c22.052-11.029,45.785-18.408,70.54-21.933c34.663-4.928,70.551-1.847,103.785,8.911c2.627,0.85,4.068,3.669,3.217,6.296
		c-0.85,2.627-3.671,4.069-6.296,3.217c-31.797-10.292-66.133-13.24-99.297-8.524c-23.686,3.373-46.389,10.43-67.476,20.976
		C131.236,33.559,130.472,33.729,129.721,33.729z"/>
	<path style="fill:#333333;" d="M230.638,406.3c-2.931,0-5.88-0.073-8.766-0.216l0,0c-93.574-4.602-166.874-81.658-166.874-175.424
		c0-44.566,16.714-87.062,47.064-119.658c30.191-32.426,71.063-52.125,115.087-55.467c4.477-0.341,9.015-0.514,13.488-0.514
		c38.346,0,74.783,12.138,105.372,35.102c21.339,16.026,39.019,37.025,51.129,60.727c12.7,24.855,19.139,51.708,19.139,79.811
		c0,47.589-18.723,92.143-52.721,125.452C320.538,388.476,276.884,406.3,230.638,406.3z M230.638,65.021
		c-4.22,0-8.503,0.164-12.73,0.485c-41.512,3.152-80.053,21.729-108.526,52.311c-28.621,30.739-44.383,70.815-44.383,112.844
		c0,88.428,69.123,161.097,157.365,165.436h0.002c2.722,0.135,5.505,0.204,8.272,0.204c43.613,0,84.781-16.809,115.92-47.331
		c32.063-31.414,49.72-73.43,49.72-118.31c0-26.506-6.071-51.828-18.044-75.261c-11.422-22.355-28.099-42.163-48.229-57.28
		C301.162,76.466,266.801,65.021,230.638,65.021z"/>
</g>
<g>
</g>
<g>
</g>
<g>
</g>
<g>
</g>
<g>
</g>
<g>
</g>
<g>
</g>
<g>
</g>
<g>
</g>
<g>
</g>
<g>
</g>
<g>
</g>
<g>
</g>
<g>
</g>
<g>
</g>
</svg>
