<?xml version="1.0" encoding="iso-8859-1"?>
<!-- Generator: Adobe Illustrator 19.0.0, SVG Export Plug-In . SVG Version: 6.00 Build 0)  -->
<svg version="1.1" id="Layer_1" xmlns="http://www.w3.org/2000/svg" xmlns:xlink="http://www.w3.org/1999/xlink" x="0px" y="0px"
	 viewBox="0 0 453.88 453.88" style="enable-background:new 0 0 453.88 453.88;" xml:space="preserve">
<g>
	<path style="fill:#F24125;" d="M341.039,155.31v15.96h-46.73v-15.96c0-22.16,8.34-43.52,23.36-59.82
		C332.689,111.79,341.039,133.15,341.039,155.31z"/>
	<path style="fill:#E6E6E6;" d="M341.039,171.27v277.61h-7.99l-8.58-49.56c-3.15-18.14-12.94-32.76-25.88-38.64
		c-1.47-0.67-2.9-1.45-4.28-2.33v-140.3v-40.58v-6.2H341.039z"/>
	<path style="opacity:0.25;enable-background:new    ;" d="M308.139,107.88v333.05l-13.83,7.95V155.31
		C294.309,138.4,299.169,121.96,308.139,107.88z"/>
	<path style="fill:#F24125;" d="M159.579,155.31v15.96h-46.73v-15.96c0-16.91,4.86-33.35,13.83-47.43
		c2.79-4.38,5.97-8.53,9.53-12.39C151.229,111.79,159.579,133.15,159.579,155.31z"/>
	<path style="fill:#E6E6E6;" d="M159.579,218.05v140.29c-1.38,0.89-2.81,1.67-4.29,2.34c-12.94,5.88-22.73,20.5-25.87,38.64
		l-8.59,49.56h-7.98V171.27h46.73v6.2L159.579,218.05L159.579,218.05z"/>
	<path style="opacity:0.25;enable-background:new    ;" d="M126.679,107.88v333.05l-13.83,7.95V155.31
		C112.849,138.4,117.709,121.96,126.679,107.88z"/>
	<path style="fill:#B3B3B3;" d="M324.469,399.32l8.58,49.56h-15.47h-45.92V309.66c0,21.04,8.95,39.93,22.65,48.69
		c1.38,0.88,2.81,1.66,4.28,2.33C311.529,366.56,321.319,381.18,324.469,399.32z"/>
	<path style="fill:#F24125;" d="M278.059,87.98h-102.23c11.44-30.44,28.7-58.66,51.12-82.98
		C249.369,29.32,266.619,57.54,278.059,87.98z"/>
	<path style="fill:#E6E6E6;" d="M294.309,218.05v140.3c-13.7-8.76-22.65-27.65-22.65-48.69v-41.44v-28.4
		c0-32.42-12.2-63.66-34.18-87.49c-5.68-6.16-15.4-6.16-21.08,0c-10.98,11.91-19.53,25.68-25.32,40.52
		c-5.8,14.85-8.85,30.76-8.85,46.97v28.4v41.44c0,21.03-8.96,39.92-22.65,48.68V218.05v-40.58c0-30.83,5.6-61.12,16.25-89.49h102.23
		c10.65,28.37,16.25,58.66,16.25,89.49L294.309,218.05L294.309,218.05z"/>
	<path style="opacity:0.25;enable-background:new    ;" d="M226.949,5l-22.29,82.98v324.31l-45.08-53.95V177.47
		c0-30.83,5.6-61.12,16.25-89.49C183.129,68.56,215.079,22.17,226.949,5z"/>
	<path style="fill:#999999;" d="M159.579,358.34c13.69-8.76,22.65-27.65,22.65-48.68v139.22h-17.61h-43.79l8.59-49.56
		c3.14-18.14,12.93-32.76,25.87-38.64C156.769,360.01,158.199,359.23,159.579,358.34z"/>
	<path style="fill:#CCCCCC;" d="M226.939,448.88h-44.71V309.66v-41.44v-28.4c0-16.21,3.05-32.12,8.85-46.97
		c5.79-14.84,14.34-28.61,25.32-40.52c5.68-6.16,15.4-6.16,21.08,0c21.98,23.83,34.18,55.07,34.18,87.49v28.4v41.44v139.22H226.939z
		"/>
	<path d="M271.659,453.88h-89.43c-2.761,0-5-2.239-5-5s2.239-5,5-5h89.43c2.761,0,5,2.239,5,5S274.421,453.88,271.659,453.88z"/>
	<rect x="289.309" y="218.05" style="fill:#333333;" width="10" height="140.3"/>
	<path style="fill:#333333;" d="M299.309,177.47h-10c0-30.055-5.36-59.572-15.931-87.732
		c-10.721-28.526-26.329-54.498-46.429-77.273c-20.111,22.786-35.722,48.756-46.439,77.274c-10.57,28.157-15.93,57.675-15.93,87.731
		h-10c0-31.261,5.575-61.96,16.569-91.247c11.818-31.446,29.355-59.913,52.125-84.612C224.219,0.584,225.552,0,226.949,0
		s2.729,0.584,3.676,1.611c22.759,24.687,40.292,53.154,52.114,84.61C293.735,115.51,299.309,146.21,299.309,177.47z"/>
	<polygon style="fill:#333333;" points="154.579,358.36 154.579,218.05 164.579,218.05 164.579,358.34 	"/>
	<path style="fill:#333333;" d="M120.829,453.88h-7.98c-2.761,0-5-2.239-5-5V155.31c0-23.487,8.766-45.935,24.683-63.208
		c0.946-1.027,2.28-1.612,3.677-1.612s2.73,0.584,3.677,1.612c15.924,17.281,24.693,39.729,24.693,63.208v62.74h-10v-62.74
		c0-19.079-6.485-37.394-18.37-52.164c-11.877,14.764-18.36,33.08-18.36,52.164v288.57h2.98L120.829,453.88L120.829,453.88z"/>
	<path style="fill:#FFFFFF;" d="M145.579,160.31c-2.761,0-5-2.239-5-5c0-9.947-2.072-19.561-6.158-28.574
		c-1.14-2.515-0.026-5.478,2.489-6.618c2.514-1.141,5.478-0.027,6.618,2.489c4.679,10.32,7.051,21.323,7.051,32.703
		C150.579,158.071,148.34,160.31,145.579,160.31z"/>
	<path style="fill:#333333;" d="M341.039,453.88h-7.99v-10h2.99V155.31c0-19.079-6.485-37.394-18.37-52.164
		c-11.877,14.764-18.36,33.08-18.36,52.164v62.74h-10v-62.74c0-23.487,8.766-45.935,24.683-63.208
		c0.946-1.027,2.28-1.612,3.677-1.612s2.73,0.584,3.677,1.612c15.924,17.281,24.693,39.729,24.693,63.208v293.57
		C346.039,451.641,343.801,453.88,341.039,453.88z"/>
	<path style="fill:#333333;" d="M333.049,453.88h-61.39c-2.761,0-5-2.239-5-5v-35.287c0-2.761,2.239-5,5-5s5,2.239,5,5v30.287h50.45
		l-7.567-43.707c-2.846-16.392-11.668-29.782-23.021-34.94c-1.676-0.765-3.323-1.661-4.899-2.667
		c-15.166-9.697-24.962-30.463-24.962-52.906c0-2.761,2.239-5,5-5s5,2.239,5,5c0,19.117,7.985,36.575,20.343,44.478
		c1.181,0.752,2.414,1.424,3.662,1.993c14.532,6.604,25.275,22.43,28.731,42.333l8.581,49.563c0.251,1.454-0.151,2.944-1.102,4.073
		S334.524,453.88,333.049,453.88z"/>
	<path style="fill:#333333;" d="M271.659,395.927c-2.761,0-5-2.239-5-5V309.66c0-2.761,2.239-5,5-5s5,2.239,5,5v81.267
		C276.659,393.688,274.421,395.927,271.659,395.927z"/>
	<path style="fill:#333333;" d="M278.059,92.98h-49.447c-2.761,0-5-2.239-5-5s2.239-5,5-5h49.447c2.761,0,5,2.239,5,5
		S280.821,92.98,278.059,92.98z"/>
	<path style="fill:#333333;" d="M211.947,92.98H175.83c-2.761,0-5-2.239-5-5s2.239-5,5-5h36.117c2.761,0,5,2.239,5,5
		S214.708,92.98,211.947,92.98z"/>
	<path style="fill:#333333;" d="M159.579,176.27h-18.3c-2.761,0-5-2.239-5-5s2.239-5,5-5h18.3c2.761,0,5,2.239,5,5
		S162.341,176.27,159.579,176.27z"/>
	<path style="fill:#333333;" d="M123.947,176.27H112.85c-2.761,0-5-2.239-5-5s2.239-5,5-5h11.097c2.761,0,5,2.239,5,5
		S126.708,176.27,123.947,176.27z"/>
	<rect x="294.309" y="166.27" style="fill:#333333;" width="46.73" height="10"/>
	<path style="fill:#333333;" d="M245.289,225.26c-1.28,0-2.559-0.488-3.536-1.464c-8.168-8.169-21.461-8.169-29.629,0
		c-1.953,1.953-5.118,1.952-7.071,0c-1.953-1.953-1.953-5.119,0-7.071c12.068-12.067,31.703-12.067,43.771,0
		c1.953,1.953,1.953,5.119,0,7.071C247.849,224.771,246.569,225.26,245.289,225.26z"/>
	<path style="fill:#333333;" d="M226.939,453.88c-2.761,0-5-2.239-5-5v-79.95c0-2.761,2.239-5,5-5s5,2.239,5,5v79.95
		C231.939,451.641,229.7,453.88,226.939,453.88z"/>
	<polygon style="fill:#999999;" points="81.403,422.46 112.845,422.46 112.845,347.464 112.845,347.464 	"/>
	<path style="fill:#333333;" d="M112.845,427.46H81.403c-1.674,0-3.236-0.837-4.163-2.231c-0.927-1.394-1.095-3.159-0.448-4.702
		l31.442-74.996c0.92-2.197,3.263-3.438,5.597-2.969c2.334,0.47,4.014,2.521,4.014,4.902v74.996
		C117.845,425.221,115.606,427.46,112.845,427.46z M88.921,417.46h18.924v-45.139L88.921,417.46z"/>
	<g>
		<polygon style="fill:#FFFFFF;" points="372.477,422.46 341.035,422.46 341.035,347.464 341.035,347.464 		"/>
		<path style="fill:#333333;" d="M372.477,427.46h-31.442c-2.761,0-5-2.239-5-5v-74.996c0-2.381,1.68-4.432,4.014-4.902
			c2.333-0.467,4.676,0.772,5.597,2.969l31.442,74.996c0.647,1.543,0.479,3.309-0.448,4.702
			C375.714,426.623,374.151,427.46,372.477,427.46z M346.035,417.46h18.924l-18.924-45.139V417.46z"/>
	</g>
	<path style="fill:#999999;" d="M260.329,186.96l-0.72,0.33h-66.21c5.67-12.72,13.41-24.55,23-34.96c5.68-6.16,15.4-6.16,21.08,0
		C246.999,162.65,254.689,174.36,260.329,186.96z"/>
	<path style="opacity:0.25;enable-background:new    ;" d="M227.979,147.75c0,0-12.7,18.51-12.7,39.84c0,21.34,0,261.29,0,261.29
		h-33.05V239.82c0-16.21,3.05-32.12,8.85-46.97c0.73-1.87,1.51-3.73,2.32-5.56c5.67-12.72,13.41-24.55,23-34.96
		C219.499,148.97,223.789,147.44,227.979,147.75z"/>
	<path style="fill:#333333;" d="M182.229,453.88h-61.4c-1.476,0-2.875-0.652-3.826-1.78c-0.95-1.129-1.353-2.62-1.101-4.074
		l8.59-49.56c3.445-19.901,14.185-35.729,28.729-42.338c1.256-0.569,2.481-1.238,3.648-1.99c12.374-7.917,20.36-25.373,20.36-44.478
		c0-2.761,2.239-5,5-5s5,2.239,5,5v139.22C187.229,451.641,184.99,453.88,182.229,453.88z M126.771,443.88h50.458v-97.051
		c-4.006,6.539-9.078,11.962-14.955,15.723c-1.564,1.009-3.225,1.915-4.922,2.684c-11.351,5.158-20.169,18.546-23.006,34.938
		L126.771,443.88z"/>
	<path style="fill:#333333;" d="M276.659,309.66h-10v-69.84c0-17.643-3.664-34.737-10.89-50.81
		c-5.471-12.222-12.86-23.42-21.965-33.29c-1.617-1.755-3.812-2.813-6.181-2.983c-2.861-0.214-5.605,0.876-7.549,2.983
		c-9.164,9.948-16.603,21.255-22.108,33.605c-0.805,1.817-1.556,3.619-2.229,5.342c-5.646,14.454-8.508,29.645-8.508,45.152v69.84
		h-10v-69.84c0-16.757,3.093-33.172,9.193-48.789c0.726-1.86,1.535-3.8,2.405-5.765c5.954-13.356,13.991-25.574,23.895-36.324
		c4.027-4.365,9.726-6.611,15.626-6.179c4.907,0.351,9.46,2.545,12.808,6.178c9.839,10.666,17.826,22.77,23.736,35.975
		c7.807,17.363,11.767,35.837,11.767,54.903V309.66z"/>
	<path style="fill:#333333;" d="M221.729,192.29h-28.33c-2.761,0-5-2.239-5-5s2.239-5,5-5h28.33c2.761,0,5,2.239,5,5
		S224.49,192.29,221.729,192.29z"/>
	<path style="fill:#333333;" d="M259.609,192.29h-17.88c-2.761,0-5-2.239-5-5s2.239-5,5-5h17.88c2.761,0,5,2.239,5,5
		S262.37,192.29,259.609,192.29z"/>
	<path style="fill:#FFFFFF;" d="M237.363,179.544c-1.589,0-3.152-0.756-4.122-2.164c-1.354-1.967-2.794-3.915-4.277-5.792
		c-1.713-2.166-1.345-5.31,0.821-7.023s5.311-1.345,7.023,0.821c1.619,2.047,3.19,4.174,4.669,6.321
		c1.566,2.274,0.993,5.387-1.281,6.954C239.328,179.258,238.341,179.544,237.363,179.544z"/>
	<path style="fill:#FFFFFF;" d="M257.659,277.927c-2.761,0-5-2.239-5-5V239.82c0-11.705-1.832-23.215-5.443-34.209
		c-0.862-2.624,0.566-5.449,3.189-6.311c2.622-0.862,5.449,0.565,6.311,3.189c3.944,12.004,5.943,24.563,5.943,37.331v33.107
		C262.659,275.688,260.42,277.927,257.659,277.927z"/>
	<path style="fill:#FFFFFF;" d="M257.659,359.614c-2.761,0-5-2.239-5-5v-60c0-2.761,2.239-5,5-5s5,2.239,5,5v60
		C262.659,357.375,260.42,359.614,257.659,359.614z"/>
	<path style="fill:#FFFFFF;" d="M257.659,402.593c-2.761,0-5-2.239-5-5v-20c0-2.761,2.239-5,5-5s5,2.239,5,5v20
		C262.659,400.354,260.42,402.593,257.659,402.593z"/>
	<path style="fill:#FFFFFF;" d="M327.039,160.31c-2.761,0-5-2.239-5-5c0-11.786-3.021-23.434-8.735-33.684
		c-1.345-2.412-0.479-5.457,1.933-6.802c2.411-1.345,5.457-0.48,6.802,1.933c6.542,11.735,10.001,25.067,10.001,38.553
		C332.039,158.071,329.8,160.31,327.039,160.31z"/>
	<path style="fill:#FFFFFF;" d="M231.205,36.823c-1.507,0-2.997-0.679-3.981-1.97c-1.35-1.772-2.751-3.557-4.164-5.304
		c-1.736-2.147-1.403-5.296,0.745-7.032c2.147-1.736,5.296-1.403,7.032,0.745c1.472,1.821,2.933,3.682,4.341,5.529
		c1.673,2.197,1.25,5.334-0.946,7.008C233.326,36.489,232.261,36.823,231.205,36.823z"/>
	<path style="fill:#FFFFFF;" d="M257.592,80.41c-1.881,0-3.682-1.066-4.532-2.882c-5.002-10.689-10.852-21.068-17.389-30.848
		c-1.534-2.296-0.917-5.401,1.379-6.936c2.295-1.534,5.4-0.917,6.936,1.379c6.816,10.198,12.917,21.021,18.132,32.166
		c1.17,2.501,0.091,5.478-2.41,6.648C259.023,80.258,258.302,80.41,257.592,80.41z"/>
</g>
<g>
</g>
<g>
</g>
<g>
</g>
<g>
</g>
<g>
</g>
<g>
</g>
<g>
</g>
<g>
</g>
<g>
</g>
<g>
</g>
<g>
</g>
<g>
</g>
<g>
</g>
<g>
</g>
<g>
</g>
</svg>
