<?xml version="1.0" encoding="iso-8859-1"?>
<!-- Generator: Adobe Illustrator 19.0.0, SVG Export Plug-In . SVG Version: 6.00 Build 0)  -->
<svg version="1.1" id="Layer_1" xmlns="http://www.w3.org/2000/svg" xmlns:xlink="http://www.w3.org/1999/xlink" x="0px" y="0px"
	 viewBox="0 0 416.194 416.194" style="enable-background:new 0 0 416.194 416.194;" xml:space="preserve">
<g>
	<path style="fill:#333333;" d="M178.466,330.162c-1.019,0-2.046-0.31-2.934-0.954c-2.234-1.623-2.731-4.749-1.108-6.984
		l138.354-190.59c1.621-2.234,4.748-2.731,6.983-1.109c2.234,1.622,2.731,4.749,1.108,6.984l-138.354,190.59
		C181.538,329.446,180.013,330.162,178.466,330.162z"/>
	<path style="fill:#333333;" d="M91.055,242.743c-1.547,0-3.072-0.716-4.05-2.063c-1.623-2.235-1.126-5.362,1.108-6.984
		L278.704,95.342c2.236-1.622,5.362-1.125,6.983,1.109c1.623,2.235,1.126,5.362-1.108,6.984L93.989,241.789
		C93.101,242.433,92.074,242.743,91.055,242.743z"/>
	<circle style="fill:#F73E3E;" cx="319.719" cy="96.494" r="74.493"/>
	<path style="opacity:0.25;enable-background:new    ;" d="M383.193,135.495c-2.99,4.86-6.59,9.46-10.8,13.67
		c-29.09,29.09-76.26,29.09-105.35,0s-29.09-76.25,0-105.35c4.22-4.21,8.81-7.82,13.68-10.8
		c-17.66,28.7,22.127,46.613,46.997,71.483S354.493,153.145,383.193,135.495z"/>
	<path style="fill:#333333;" d="M407.161,128.384c-0.484,0-0.977-0.071-1.463-0.22c-2.642-0.807-4.128-3.602-3.32-6.243
		c3.313-10.844,4.467-22.088,3.425-33.418c-0.252-2.75,1.772-5.184,4.522-5.437c2.747-0.25,5.183,1.771,5.437,4.521
		c1.16,12.629-0.125,25.165-3.821,37.256C411.282,126.998,409.301,128.384,407.161,128.384z"/>
	<path style="fill:#333333;" d="M402.777,63.104c-1.891,0-3.7-1.078-4.544-2.908c-4.261-9.243-10.1-17.608-17.354-24.864
		C364.543,18.997,342.823,10,319.719,10c-7.346,0-14.634,0.914-21.661,2.717c-2.668,0.685-5.398-0.925-6.085-3.601
		c-0.687-2.675,0.926-5.399,3.601-6.086C303.412,1.02,311.536,0,319.719,0c25.775,0,50.007,10.037,68.23,28.262
		c8.093,8.094,14.608,17.43,19.365,27.749c1.156,2.508,0.06,5.478-2.448,6.634C404.189,62.957,403.477,63.104,402.777,63.104z"/>
	<path style="fill:#333333;" d="M319.719,175.987c-21.234,0-41.196-8.269-56.21-23.283l0,0l0,0
		c-15.015-15.015-23.283-34.977-23.283-56.21s8.269-41.196,23.283-56.21C278.523,25.269,298.485,17,319.719,17
		c21.233,0,41.196,8.269,56.21,23.283c30.994,30.994,30.994,81.426,0,112.421C360.915,167.718,340.953,175.987,319.719,175.987z
		 M319.719,27c-18.563,0-36.014,7.229-49.14,20.354c-13.125,13.125-20.354,30.577-20.354,49.139s7.229,36.014,20.354,49.139l0,0
		c13.126,13.125,30.577,20.354,49.14,20.354s36.014-7.229,49.14-20.354c27.095-27.096,27.095-71.183,0-98.278
		C355.733,34.229,338.282,27,319.719,27z"/>
	<path style="fill:#FFFFFF;" d="M376.14,112.481c-0.315,0-0.634-0.03-0.954-0.092c-2.712-0.524-4.484-3.146-3.961-5.858
		c3.322-17.196-2.056-34.825-14.388-47.157c-3.595-3.595-7.65-6.635-12.053-9.035c-2.425-1.321-3.319-4.358-1.998-6.783
		c1.323-2.425,4.358-3.318,6.783-1.997c5.243,2.857,10.067,6.473,14.339,10.744c14.683,14.684,21.088,35.665,17.135,56.125
		C380.581,110.82,378.488,112.481,376.14,112.481z"/>
	<path style="fill:#FFFFFF;" d="M329.431,44.812c-0.277,0-0.558-0.023-0.84-0.071C325.684,44.25,322.699,44,319.719,44
		c-2.762,0-5-2.239-5-5s2.238-5,5-5c3.537,0,7.083,0.296,10.54,0.881c2.723,0.46,4.557,3.041,4.096,5.764
		C333.943,43.085,331.827,44.812,329.431,44.812z"/>
	<path style="fill:#333333;" d="M198.854,416.194c-0.794,0-1.599-0.189-2.348-0.588c-2.437-1.298-3.359-4.327-2.062-6.764
		l155.531-291.908c1.299-2.438,4.328-3.36,6.765-2.062c2.437,1.298,3.359,4.327,2.062,6.764L203.271,413.544
		C202.371,415.232,200.641,416.194,198.854,416.194z"/>
	<path style="fill:#333333;" d="M5.023,222.355c-1.788,0-3.518-0.961-4.417-2.65c-1.298-2.437-0.375-5.465,2.062-6.764
		l291.907-155.53c2.436-1.298,5.465-0.377,6.765,2.062c1.298,2.437,0.375,5.465-2.062,6.764L7.37,221.767
		C6.621,222.166,5.817,222.355,5.023,222.355z"/>
	<path style="fill:#FCBC1D;" d="M364.537,164.296l-112.62-112.62c-6.347-6.347-6.347-16.637,0-22.984l0,0
		c6.347-6.347,16.637-6.347,22.984,0l112.62,112.62c6.347,6.347,6.347,16.637,0,22.984l0,0
		C381.174,170.642,370.884,170.642,364.537,164.296z"/>
	<path style="opacity:0.25;enable-background:new    ;" d="M387.517,164.295c-3.17,3.18-7.33,4.76-11.49,4.76
		c-4.15,0-8.31-1.58-11.49-4.76l-112.62-112.62c-6.35-6.35-6.35-16.64,0-22.98L387.517,164.295z"/>
	<path style="fill:#333333;" d="M376.027,174.055c-5.675,0-11.011-2.21-15.025-6.224L248.382,55.21
		c-4.017-4.016-6.228-9.353-6.228-15.029c0-5.678,2.213-11.014,6.23-15.025c4.01-4.011,9.346-6.221,15.021-6.221
		c5.688,0,11.027,2.212,15.031,6.23l67.31,67.31c1.953,1.953,1.953,5.119,0,7.071c-1.951,1.952-5.119,1.952-7.07,0L271.362,32.23
		c-2.12-2.127-4.943-3.295-7.955-3.295c-3.004,0-5.829,1.17-7.953,3.295c-2.129,2.125-3.299,4.947-3.299,7.951
		c0,3.005,1.171,5.831,3.298,7.958l112.619,112.62c2.126,2.125,4.951,3.295,7.955,3.295c3.011,0,5.834-1.168,7.949-3.29
		c2.132-2.132,3.304-4.958,3.304-7.963c0-3.004-1.171-5.827-3.296-7.948l-27.583-27.584c-1.953-1.953-1.953-5.119,0-7.071
		c1.951-1.952,5.119-1.952,7.07,0l27.581,27.582c4.015,4.008,6.228,9.344,6.228,15.022c0,5.676-2.212,11.014-6.227,15.029
		C387.053,171.842,381.715,174.055,376.027,174.055z"/>
</g>
<g>
</g>
<g>
</g>
<g>
</g>
<g>
</g>
<g>
</g>
<g>
</g>
<g>
</g>
<g>
</g>
<g>
</g>
<g>
</g>
<g>
</g>
<g>
</g>
<g>
</g>
<g>
</g>
<g>
</g>
</svg>
