<?xml version="1.0" encoding="iso-8859-1"?>
<!-- Generator: Adobe Illustrator 19.0.0, SVG Export Plug-In . SVG Version: 6.00 Build 0)  -->
<svg version="1.1" id="Layer_1" xmlns="http://www.w3.org/2000/svg" xmlns:xlink="http://www.w3.org/1999/xlink" x="0px" y="0px"
	 viewBox="0 0 375.292 375.292" style="enable-background:new 0 0 375.292 375.292;" xml:space="preserve">
<g>
	<polygon style="fill:#FCBC1D;" points="322.532,306.49 312.166,327.493 288.989,330.86 305.76,347.208 301.801,370.292 
		322.532,359.394 343.262,370.292 339.303,347.208 356.074,330.86 332.897,327.493 	"/>
	<path style="fill:#333333;" d="M343.261,375.292c-0.795,0-1.594-0.19-2.326-0.574l-18.403-9.675l-18.403,9.675
		c-1.687,0.885-3.727,0.738-5.266-0.381c-1.54-1.119-2.312-3.014-1.989-4.89l3.515-20.493L285.5,334.441
		c-1.362-1.329-1.854-3.315-1.265-5.125c0.588-1.81,2.152-3.129,4.036-3.403l20.575-2.99l9.202-18.645
		c0.842-1.707,2.58-2.787,4.483-2.787s3.642,1.081,4.483,2.787l9.202,18.645l20.576,2.99c1.884,0.274,3.448,1.593,4.036,3.403
		c0.589,1.81,0.098,3.797-1.265,5.125l-14.89,14.513l3.515,20.493c0.322,1.876-0.449,3.771-1.989,4.89
		C345.329,374.97,344.298,375.292,343.261,375.292z M322.531,354.394c0.799,0,1.599,0.191,2.327,0.574l11.763,6.184l-2.246-13.098
		c-0.278-1.622,0.259-3.277,1.438-4.426l9.517-9.276l-13.151-1.911c-1.629-0.237-3.036-1.26-3.765-2.735l-5.882-11.917
		l-5.882,11.917c-0.729,1.476-2.136,2.499-3.765,2.735l-13.151,1.911l9.517,9.276c1.179,1.149,1.716,2.804,1.438,4.426
		l-2.246,13.098l11.763-6.184C320.933,354.585,321.732,354.394,322.531,354.394z"/>
	<path style="fill:#333333;" d="M36.461,20.439c-0.903,0-1.818-0.245-2.641-0.758c-5.611-3.5-11.375-6.988-17.132-10.368
		c-2.381-1.398-3.178-4.462-1.779-6.843c1.399-2.382,4.462-3.179,6.844-1.78c5.832,3.425,11.673,6.96,17.358,10.506
		c2.344,1.461,3.059,4.545,1.597,6.889C39.761,19.604,38.13,20.439,36.461,20.439z"/>
	<path style="fill:#333333;" d="M294.791,291.639c-1.756,0-3.459-0.926-4.374-2.569c-21.972-39.476-47.735-77.165-76.575-112.02
		c-28.772-34.774-60.928-67.119-95.575-96.138C98.618,64.454,77.89,48.84,56.656,34.504c-2.289-1.545-2.892-4.653-1.346-6.942
		c1.545-2.288,4.652-2.892,6.941-1.346c21.518,14.529,42.524,30.352,62.437,47.03c35.111,29.408,67.699,62.188,96.858,97.429
		c29.229,35.326,55.34,73.523,77.608,113.532c1.343,2.413,0.476,5.458-1.938,6.8C296.448,291.435,295.613,291.639,294.791,291.639z"
		/>
	<path style="fill:#333333;" d="M277.908,304.051c-1.643,0-3.25-0.808-4.206-2.29c-27.006-41.855-58.298-81.117-93.008-116.694
		c-9.889-10.137-20.189-20.107-30.614-29.634c-2.038-1.863-2.181-5.025-0.318-7.064s5.027-2.18,7.064-0.318
		c10.565,9.654,21.004,19.759,31.026,30.032c35.175,36.054,66.886,75.841,94.252,118.255c1.497,2.32,0.83,5.415-1.49,6.912
		C279.776,303.793,278.836,304.051,277.908,304.051z"/>
	<path style="fill:#333333;" d="M208.646,119.921c-1.424,0-2.838-0.605-3.827-1.779c-31.895-37.869-66.352-71.89-102.413-101.119
		c-2.146-1.739-2.475-4.887-0.736-7.033c1.739-2.145,4.888-2.475,7.033-0.736c36.552,29.626,71.463,64.094,103.765,102.445
		c1.779,2.112,1.509,5.267-0.604,7.045C210.928,119.535,209.784,119.921,208.646,119.921z"/>
	<path style="fill:#333333;" d="M301.71,258.993c-1.82,0-3.575-0.997-4.458-2.73c-20.934-41.062-46.361-80.549-75.577-117.366
		c-1.716-2.163-1.354-5.308,0.809-7.024c2.165-1.717,5.309-1.354,7.025,0.809c29.628,37.336,55.418,77.387,76.651,119.04
		c1.255,2.46,0.277,5.471-2.184,6.726C303.25,258.817,302.474,258.993,301.71,258.993z"/>
	<path style="fill:#333333;" d="M315.902,288.333c-1.898,0-3.714-1.087-4.553-2.928c-1.424-3.125-2.896-6.294-4.375-9.418
		c-1.182-2.496-0.115-5.477,2.38-6.659c2.497-1.18,5.478-0.116,6.659,2.38c1.499,3.167,2.991,6.38,4.436,9.55
		c1.146,2.513,0.036,5.478-2.477,6.623C317.301,288.187,316.596,288.333,315.902,288.333z"/>
</g>
<g>
</g>
<g>
</g>
<g>
</g>
<g>
</g>
<g>
</g>
<g>
</g>
<g>
</g>
<g>
</g>
<g>
</g>
<g>
</g>
<g>
</g>
<g>
</g>
<g>
</g>
<g>
</g>
<g>
</g>
</svg>
