<?xml version="1.0" encoding="iso-8859-1"?>
<!-- Generator: Adobe Illustrator 19.0.0, SVG Export Plug-In . SVG Version: 6.00 Build 0)  -->
<svg version="1.1" id="Layer_1" xmlns="http://www.w3.org/2000/svg" xmlns:xlink="http://www.w3.org/1999/xlink" x="0px" y="0px"
	 viewBox="0 0 420.32 420.32" style="enable-background:new 0 0 420.32 420.32;" xml:space="preserve">
<g>
	<polygon style="fill:#EAC16E;" points="312.38,197.82 312.38,353.08 265.57,353.08 154.76,353.08 107.94,353.08 107.94,197.82 
		107.97,197.82 155.51,197.82 311.35,197.82 	"/>
	<polygon style="fill:#1AA5E2;" points="312.38,150.24 312.38,197.82 311.35,197.82 155.51,197.82 155.51,150.24 311.35,150.24 	"/>
	<polygon style="fill:#EAC16E;" points="312.38,107.22 312.38,150.24 311.35,150.24 155.51,150.24 107.97,150.24 107.94,150.24 
		107.94,107.22 	"/>
	<polygon style="fill:#FCB20D;" points="252.45,37.55 312.38,107.22 107.94,107.22 167.88,37.55 252.44,37.55 	"/>
	<polygon style="fill:#F24125;" points="256.94,372.33 272.13,415.32 148.19,415.32 163.39,372.33 	"/>
	<polygon style="fill:#FCB20D;" points="265.57,353.08 265.57,372.33 256.94,372.33 163.39,372.33 154.76,372.33 154.76,353.08 	"/>
	<path style="fill:#20505B;" d="M233.75,15.82l18.69,21.73h-84.56l18.7-21.73C192.49,8.95,201.1,5,210.16,5
		c4.53,0,8.95,0.99,12.98,2.83C227.16,9.68,230.79,12.38,233.75,15.82z"/>
	<polygon style="fill:#1AA5E2;" points="155.51,150.24 155.51,197.82 107.97,197.82 107.94,197.82 107.94,150.24 107.97,150.24 	"/>
	<path style="fill:#333333;" d="M154.76,358.08h-46.82c-2.761,0-5-2.239-5-5V107.22c0-1.197,0.429-2.354,1.21-3.261l78.64-91.4
		C189.656,4.578,199.632,0,210.16,0c5.221,0,10.287,1.104,15.057,3.282c4.774,2.197,8.916,5.316,12.324,9.277l18.69,21.731
		c1.801,2.093,1.563,5.25-0.53,7.051c-2.094,1.801-5.251,1.563-7.051-0.53l-18.69-21.73c-2.465-2.865-5.463-5.122-8.91-6.708
		C217.607,10.8,213.938,10,210.16,10c-7.612,0-14.825,3.31-19.789,9.081l-77.431,89.994V348.08h41.82c2.761,0,5,2.239,5,5
		S157.521,358.08,154.76,358.08z"/>
	<path style="fill:#333333;" d="M312.38,358.08h-46.81c-2.761,0-5-2.239-5-5s2.239-5,5-5h41.81V109.075l-58.721-68.264
		c-1.801-2.094-1.563-5.25,0.53-7.051c2.093-1.802,5.25-1.563,7.051,0.53l59.93,69.67c0.78,0.907,1.209,2.064,1.209,3.261v245.86
		C317.38,355.841,315.141,358.08,312.38,358.08z"/>
	<path style="fill:#333333;" d="M174.97,112.22h-67.03c-2.761,0-5-2.239-5-5s2.239-5,5-5h67.03c2.761,0,5,2.239,5,5
		S177.731,112.22,174.97,112.22z"/>
	<path style="fill:#333333;" d="M312.38,112.22H195.637c-2.761,0-5-2.239-5-5s2.239-5,5-5H312.38c2.761,0,5,2.239,5,5
		S315.141,112.22,312.38,112.22z"/>
	<path style="fill:#333333;" d="M272.13,420.32H148.19c-1.623,0-3.146-0.788-4.083-2.113s-1.172-3.023-0.631-4.554l15.2-42.99
		c0.921-2.603,3.78-3.967,6.38-3.047c2.604,0.92,3.968,3.777,3.047,6.381L155.26,410.32h109.8l-12.834-36.325
		c-0.92-2.604,0.445-5.46,3.049-6.38c2.603-0.922,5.46,0.445,6.38,3.049l15.19,42.99c0.541,1.53,0.305,3.228-0.632,4.553
		C275.275,419.533,273.753,420.32,272.13,420.32z"/>
	<path style="fill:#333333;" d="M212.303,42.55H167.88c-2.761,0-5-2.239-5-5s2.239-5,5-5h44.423c2.761,0,5,2.239,5,5
		S215.064,42.55,212.303,42.55z"/>
	<path style="fill:#333333;" d="M252.45,42.55h-24.147c-2.761,0-5-2.239-5-5s2.239-5,5-5h24.137c2.761,0,5.005,2.239,5.005,5
		S255.211,42.55,252.45,42.55z"/>
	<path style="fill:#333333;" d="M208.302,155.24H107.97c-2.761,0-5-2.239-5-5s2.239-5,5-5h100.333c2.761,0,5,2.239,5,5
		S211.064,155.24,208.302,155.24z"/>
	<path style="fill:#333333;" d="M311.35,155.24h-83.047c-2.761,0-5-2.239-5-5s2.239-5,5-5h83.047c2.761,0,5,2.239,5,5
		S314.112,155.24,311.35,155.24z"/>
	<path style="fill:#333333;" d="M235.637,202.82H107.97c-2.761,0-5-2.239-5-5s2.239-5,5-5h127.667c2.761,0,5,2.239,5,5
		S238.398,202.82,235.637,202.82z"/>
	<path style="fill:#333333;" d="M311.35,202.82h-59.047c-2.761,0-5-2.239-5-5s2.239-5,5-5h59.047c2.761,0,5,2.239,5,5
		S314.112,202.82,311.35,202.82z"/>
	<path style="fill:#333333;" d="M280.47,180.1h-9.66c-2.761,0-5-2.239-5-5s2.239-5,5-5h9.66c2.761,0,5,2.239,5,5
		S283.231,180.1,280.47,180.1z"/>
	<path style="fill:#333333;" d="M254.16,180.1H187.1c-2.761,0-5-2.239-5-5s2.239-5,5-5h67.06c2.761,0,5,2.239,5,5
		S256.921,180.1,254.16,180.1z"/>
	<path style="fill:#333333;" d="M188.6,235.62h-54.45c-2.761,0-5-2.239-5-5s2.239-5,5-5h54.45c2.761,0,5,2.239,5,5
		S191.362,235.62,188.6,235.62z"/>
	<path style="fill:#333333;" d="M162.98,255.19h-28.83c-2.761,0-5-2.239-5-5s2.239-5,5-5h28.83c2.761,0,5,2.239,5,5
		S165.741,255.19,162.98,255.19z"/>
	<path style="fill:#333333;" d="M188.6,255.19h-10.2c-2.761,0-5-2.239-5-5s2.239-5,5-5h10.2c2.761,0,5,2.239,5,5
		S191.362,255.19,188.6,255.19z"/>
	<path style="fill:#333333;" d="M188.6,274.76h-54.45c-2.761,0-5-2.239-5-5s2.239-5,5-5h54.45c2.761,0,5,2.239,5,5
		S191.362,274.76,188.6,274.76z"/>
	<path style="fill:#333333;" d="M188.6,294.34h-54.45c-2.761,0-5-2.239-5-5s2.239-5,5-5h54.45c2.761,0,5,2.239,5,5
		S191.362,294.34,188.6,294.34z"/>
	<path style="fill:#333333;" d="M155.51,189.32c-2.761,0-5-2.239-5-5v-34.08c0-2.761,2.239-5,5-5s5,2.239,5,5v34.08
		C160.51,187.081,158.271,189.32,155.51,189.32z"/>
	<path style="fill:#333333;" d="M265.57,377.33H154.76c-2.761,0-5-2.239-5-5v-19.25c0-2.761,2.239-5,5-5h110.81c2.761,0,5,2.239,5,5
		v19.25C270.57,375.091,268.331,377.33,265.57,377.33z M159.76,367.33h100.81v-9.25H159.76V367.33z"/>
	<path style="fill:#FFFFFF;" d="M280.228,98.751c-1.406,0-2.804-0.59-3.793-1.739l-20.729-24.095
		c-1.801-2.093-1.563-5.25,0.53-7.051c2.093-1.802,5.249-1.563,7.051,0.53l20.729,24.095c1.801,2.093,1.563,5.25-0.53,7.051
		C282.542,98.354,281.382,98.751,280.228,98.751z"/>
	<path style="fill:#FFFFFF;" d="M247.153,60.309c-0.33,0-0.66-0.04-0.98-0.1c-0.32-0.07-0.63-0.16-0.93-0.29
		c-0.31-0.12-0.6-0.28-0.87-0.46s-0.53-0.39-0.76-0.62s-0.44-0.48-0.62-0.76c-0.18-0.27-0.33-0.56-0.46-0.86
		c-0.12-0.3-0.22-0.62-0.28-0.94c-0.07-0.32-0.1-0.65-0.1-0.97c0-1.32,0.53-2.61,1.46-3.54c0.23-0.23,0.49-0.44,0.76-0.62
		c0.27-0.18,0.56-0.33,0.87-0.46c0.3-0.12,0.61-0.22,0.93-0.28c0.65-0.14,1.31-0.14,1.96,0c0.31,0.06,0.63,0.16,0.93,0.28
		c0.3,0.13,0.59,0.28,0.86,0.46c0.28,0.18,0.53,0.39,0.76,0.62c0.93,0.93,1.47,2.22,1.47,3.54c0,0.32-0.03,0.65-0.1,0.97
		c-0.06,0.32-0.16,0.64-0.29,0.94c-0.12,0.3-0.27,0.59-0.45,0.86c-0.19,0.28-0.4,0.53-0.63,0.76s-0.48,0.44-0.76,0.62
		c-0.27,0.18-0.56,0.34-0.86,0.46c-0.3,0.13-0.62,0.22-0.93,0.29C247.803,60.269,247.473,60.309,247.153,60.309z"/>
	<path style="fill:#FFFFFF;" d="M295.47,140.82c-2.761,0-5-2.239-5-5v-14.5c0-2.761,2.239-5,5-5s5,2.239,5,5v14.5
		C300.47,138.582,298.231,140.82,295.47,140.82z"/>
	<path style="fill:#FFFFFF;" d="M295.47,186.32c-2.761,0-5-2.239-5-5v-14.5c0-2.761,2.239-5,5-5s5,2.239,5,5v14.5
		C300.47,184.082,298.231,186.32,295.47,186.32z"/>
	<path style="fill:#FFFFFF;" d="M295.47,231.82c-2.761,0-5-2.239-5-5v-14.5c0-2.761,2.239-5,5-5s5,2.239,5,5v14.5
		C300.47,229.582,298.231,231.82,295.47,231.82z"/>
	<path style="fill:#FFFFFF;" d="M295.47,342.82c-2.761,0-5-2.239-5-5v-91.5c0-2.761,2.239-5,5-5s5,2.239,5,5v91.5
		C300.47,340.582,298.231,342.82,295.47,342.82z"/>
	<path style="fill:#FFFFFF;" d="M252.97,406.028c-2.06,0-3.989-1.283-4.714-3.336l-5.089-14.403c-0.92-2.604,0.445-5.46,3.049-6.38
		c2.603-0.921,5.46,0.445,6.38,3.049l5.089,14.403c0.92,2.604-0.445,5.46-3.049,6.38
		C254.085,405.936,253.523,406.028,252.97,406.028z"/>
</g>
<g>
</g>
<g>
</g>
<g>
</g>
<g>
</g>
<g>
</g>
<g>
</g>
<g>
</g>
<g>
</g>
<g>
</g>
<g>
</g>
<g>
</g>
<g>
</g>
<g>
</g>
<g>
</g>
<g>
</g>
</svg>
