<?xml version="1.0" encoding="iso-8859-1"?>
<!-- Generator: Adobe Illustrator 19.0.0, SVG Export Plug-In . SVG Version: 6.00 Build 0)  -->
<svg version="1.1" id="Layer_1" xmlns="http://www.w3.org/2000/svg" xmlns:xlink="http://www.w3.org/1999/xlink" x="0px" y="0px"
	 viewBox="0 0 434 434" style="enable-background:new 0 0 434 434;" xml:space="preserve">
<g>
	<polygon style="fill:#FCBC1D;" points="325.919,335.015 337.669,367.025 96.099,366.755 107.919,334.765 	"/>
	<path style="fill:#FCBC1D;" d="M86.749,301.195c4.69,0,8.5,3.8,8.5,8.5c0,4.69-3.81,8.5-8.5,8.5c-4.7,0-8.5-3.81-8.5-8.5
		C78.249,304.995,82.049,301.195,86.749,301.195z"/>
	<path style="fill:#FCBC1D;" d="M151.869,301.195c4.7,0,8.5,3.8,8.5,8.5c0,4.69-3.8,8.5-8.5,8.5c-4.69,0-8.5-3.81-8.5-8.5
		C143.369,304.995,147.179,301.195,151.869,301.195z"/>
	<path style="fill:#FCBC1D;" d="M216.999,301.195c4.69,0,8.5,3.8,8.5,8.5c0,4.69-3.81,8.5-8.5,8.5c-4.7,0-8.5-3.81-8.5-8.5
		C208.499,304.995,212.299,301.195,216.999,301.195z"/>
	<path style="fill:#FCBC1D;" d="M282.119,301.195c4.7,0,8.5,3.8,8.5,8.5c0,4.69-3.8,8.5-8.5,8.5c-4.69,0-8.5-3.81-8.5-8.5
		C273.619,304.995,277.429,301.195,282.119,301.195z"/>
	<path style="fill:#FCBC1D;" d="M347.249,301.195c4.69,0,8.5,3.8,8.5,8.5c0,4.69-3.81,8.5-8.5,8.5c-4.7,0-8.5-3.81-8.5-8.5
		C338.749,304.995,342.549,301.195,347.249,301.195z"/>
	<path style="fill:#FCBC1D;" d="M28.429,257.175l377.09,0.43l9.99,0.01c7.46,0.01,13.5,6.06,13.49,13.52
		c-0.01,7.44-6.05,13.48-13.5,13.48c-0.01,0-0.01,0-0.02,0l-9.93-0.01l-377.14-0.43l-9.93-0.01c-7.45-0.01-13.49-6.06-13.48-13.51
		s6.05-13.49,13.49-13.49c0.01,0,0.01,0,0.02,0L28.429,257.175z"/>
	<path style="opacity:0.25;enable-background:new    ;" d="M28.409,284.395l-9.93-0.01c-7.45-0.01-13.49-6.06-13.48-13.51
		s6.05-13.49,13.49-13.49c0.01,0,0.01,0,0.02,0l9.92,0.01l68.85,0.03c-7.01,0.47-12.56,6.31-12.57,13.45
		c-0.01,7.45,6.03,13.5,13.48,13.51l9.93,0.01"/>
	<path style="fill:#F73E3E;" d="M28.409,284.175l377.14,0.43c-6.22,28.86-31.91,50.46-62.63,50.43l-17-0.02l-218-0.25l-17-0.02
		c-17.68-0.02-33.67-7.2-45.23-18.79C37.149,307.395,31.029,296.435,28.409,284.175z M355.749,309.695c0-4.7-3.81-8.5-8.5-8.5
		c-4.7,0-8.5,3.8-8.5,8.5c0,4.69,3.8,8.5,8.5,8.5C351.939,318.195,355.749,314.385,355.749,309.695z M290.619,309.695
		c0-4.7-3.8-8.5-8.5-8.5c-4.69,0-8.5,3.8-8.5,8.5c0,4.69,3.81,8.5,8.5,8.5C286.819,318.195,290.619,314.385,290.619,309.695z
		 M225.499,309.695c0-4.7-3.81-8.5-8.5-8.5c-4.7,0-8.5,3.8-8.5,8.5c0,4.69,3.8,8.5,8.5,8.5
		C221.689,318.195,225.499,314.385,225.499,309.695z M160.369,309.695c0-4.7-3.8-8.5-8.5-8.5c-4.69,0-8.5,3.8-8.5,8.5
		c0,4.69,3.81,8.5,8.5,8.5C156.569,318.195,160.369,314.385,160.369,309.695z M95.249,309.695c0-4.7-3.81-8.5-8.5-8.5
		c-4.7,0-8.5,3.8-8.5,8.5c0,4.69,3.8,8.5,8.5,8.5C91.439,318.195,95.249,314.385,95.249,309.695z"/>
	<path style="fill:#F73E3E;" d="M405.519,257.395v0.21l-377.09-0.43c6.27-28.76,31.88-50.28,62.52-50.28h252
		c17.68,0,33.68,7.16,45.26,18.74C396.759,234.185,402.889,245.135,405.519,257.395z"/>
	<path style="fill:#FFFFFF;" d="M378.876,245.575c-1.422,0-2.832-0.602-3.821-1.772c-0.76-0.898-1.568-1.777-2.401-2.611
		c-7.93-7.93-18.479-12.296-29.704-12.296c-2.762,0-5-2.239-5-5s2.238-5,5-5c13.896,0,26.957,5.407,36.774,15.225
		c1.03,1.03,2.029,2.116,2.968,3.227c1.783,2.109,1.519,5.264-0.591,7.046C381.163,245.187,380.016,245.575,378.876,245.575z"/>
	<g style="opacity:0.25;">
		<polyline points="96.119,366.755 107.939,334.765 150.319,334.815 138.519,366.755 		"/>
		<path d="M150.339,334.765l-17-0.02c-17.68-0.02-33.67-7.2-45.23-18.79c-8.53-8.55-14.64-19.49-17.27-31.73l-42.41-0.05
			c2.62,12.26,8.74,23.22,17.28,31.78c11.56,11.59,27.55,18.77,45.23,18.79l17,0.02l42.38,0.05"/>
		<path d="M28.449,257.175c6.27-28.76,31.88-50.28,62.52-50.28h42.4c-30.64,0-56.25,21.52-62.52,50.28"/>
	</g>
	<path style="fill:#61CCF2;" d="M345.949,195.975v10.92h-3h-252h-3v-10.92c0-71.25,57.76-129,129-129
		S345.949,124.725,345.949,195.975z"/>
	<path style="opacity:0.25;enable-background:new    ;" d="M242.449,69.495c-59.03,11.83-103.5,63.96-103.5,126.48v10.92h-51v-10.92
		c0-71.25,57.76-129,129-129C225.679,66.975,234.209,67.845,242.449,69.495z"/>
	<path style="fill:#333333;" d="M342.981,340.035c-0.023,0-0.043,0-0.066,0l-17.001-0.02c-2.762-0.003-4.997-2.245-4.994-5.006
		c0.003-2.759,2.241-4.994,5-4.994c0.002,0,0.004,0,0.006,0l17,0.02c0.019,0,0.038,0,0.057,0c27.621,0,51.873-19.541,57.68-46.483
		c0.581-2.7,3.235-4.417,5.941-3.834c2.699,0.582,4.416,3.242,3.834,5.941C403.645,317.175,375.28,340.035,342.981,340.035z"/>
	<path style="fill:#333333;" d="M107.919,339.765c-0.002,0-0.004,0-0.006,0l-17-0.02c-18.437-0.021-35.755-7.216-48.764-20.259
		c-9.413-9.435-15.855-21.284-18.63-34.266c-0.577-2.7,1.144-5.357,3.845-5.935c2.697-0.578,5.357,1.145,5.935,3.845
		c2.371,11.094,7.879,21.224,15.93,29.293c11.123,11.152,25.931,17.303,41.696,17.321l17,0.02c2.761,0.003,4.998,2.245,4.994,5.006
		C112.916,337.531,110.678,339.765,107.919,339.765z"/>
	<path style="fill:#333333;" d="M405.514,262.396c-2.307,0-4.381-1.605-4.884-3.952c-2.379-11.091-7.896-21.213-15.956-29.273
		c-11.141-11.141-25.959-17.276-41.725-17.276c-2.762,0-5-2.239-5-5s2.238-5,5-5c18.437,0,35.766,7.175,48.795,20.205
		c9.426,9.425,15.879,21.268,18.663,34.247c0.579,2.7-1.14,5.358-3.84,5.938C406.214,262.36,405.862,262.396,405.514,262.396z"/>
	<path style="fill:#333333;" d="M28.382,262.397c-0.456,0-0.92-0.063-1.38-0.195c-2.581-0.74-4.104-3.378-3.486-5.964
		c0.014-0.067,0.029-0.133,0.044-0.198c6.875-31.378,35.205-54.145,67.39-54.145c2.761,0,5,2.239,5,5s-2.239,5-5,5
		c-27.542,0-51.78,19.491-57.635,46.345c-0.006,0.03-0.013,0.06-0.021,0.089c-0.032,0.155-0.068,0.303-0.108,0.443
		C32.557,260.968,30.556,262.397,28.382,262.397z"/>
	<path style="fill:#333333;" d="M347.668,262.52c-0.001,0-0.001,0-0.002,0l-38-0.013c-2.761-0.001-4.999-2.24-4.998-5.001
		c0.001-2.761,2.239-4.999,5-4.999c0.001,0,0.001,0,0.002,0l38,0.013c2.761,0.001,4.999,2.24,4.998,5.001
		C352.667,260.283,350.429,262.52,347.668,262.52z"/>
	<path style="fill:#333333;" d="M415.5,289.616l-397.025-0.45c-4.94-0.006-9.582-1.936-13.071-5.433
		c-3.491-3.498-5.41-8.145-5.404-13.083c0.014-10.192,8.309-18.484,18.49-18.484l270.466,0.307c2.762,0.003,4.997,2.244,4.994,5.006
		c-0.003,2.759-2.241,4.994-5,4.994c-0.002,0-0.004,0-0.006,0l-270.44-0.307c-4.69,0-8.499,3.812-8.505,8.497
		c-0.003,2.266,0.878,4.399,2.482,6.006c1.604,1.607,3.736,2.494,6.005,2.497l396.998,0.45c4.696,0,8.51-3.807,8.516-8.486
		c0.003-2.272-0.879-4.408-2.483-6.016s-3.74-2.495-6.014-2.498l-45.559-0.051c-2.762-0.003-4.997-2.244-4.994-5.006
		c0.003-2.759,2.241-4.994,5-4.994c0.002,0,0.004,0,0.006,0l45.559,0.051c4.945,0.006,9.59,1.937,13.08,5.434
		c3.492,3.499,5.412,8.149,5.405,13.092C433.986,281.328,425.687,289.616,415.5,289.616z"/>
	<path style="fill:#333333;" d="M345.95,211.895h-258c-2.761,0-5-2.239-5-5v-10.92c0-73.888,60.112-134,134-134
		c19.958,0,39.164,4.284,57.083,12.733c2.497,1.178,3.567,4.157,2.39,6.655c-1.178,2.498-4.157,3.566-6.655,2.39
		c-16.574-7.815-34.344-11.778-52.817-11.778c-68.374,0-124,55.626-124,124v5.92h248.001v-5.92
		c0-34.306-14.409-67.396-39.533-90.783c-2.021-1.881-2.134-5.045-0.253-7.066c1.883-2.021,5.045-2.135,7.067-0.253
		c27.148,25.272,42.719,61.029,42.719,98.102v10.92C350.95,209.657,348.711,211.895,345.95,211.895z"/>
	<path style="fill:#FFFFFF;" d="M328.949,196.434c-2.518,0-4.684-1.896-4.964-4.456l-0.169-1.539
		c-0.02-0.185-0.029-0.369-0.029-0.55c0-2.518,1.896-4.684,4.456-4.964c2.742-0.309,5.214,1.681,5.515,4.426l0.168,1.539
		c0.021,0.185,0.03,0.369,0.03,0.551c0,2.517-1.896,4.684-4.456,4.964C329.314,196.425,329.13,196.434,328.949,196.434z"/>
	<path style="fill:#333333;" d="M337.669,372.025c-0.002,0-0.004,0-0.006,0l-18.721-0.021c-2.761-0.003-4.997-2.244-4.994-5.005
		c0.003-2.76,2.241-4.995,5-4.995c0.002,0,0.004,0,0.006,0l11.551,0.013l-8.078-22.006l-211.026-0.242l-8.126,21.993l194.68,0.203
		c2.762,0.003,4.998,2.244,4.995,5.005c-0.003,2.759-2.241,4.995-5,4.995c-0.002,0-0.003,0-0.005,0l-201.851-0.21
		c-1.635-0.001-3.165-0.802-4.099-2.144s-1.153-3.056-0.586-4.589l11.82-31.99c0.726-1.965,2.601-3.247,4.696-3.267l218,0.25
		c2.095,0.002,3.966,1.311,4.688,3.277l11.75,32.01c0.563,1.535,0.341,3.248-0.596,4.588
		C340.833,371.228,339.302,372.025,337.669,372.025z"/>
	<path style="fill:#333333;" d="M86.749,323.196c-7.444,0-13.5-6.056-13.5-13.5s6.056-13.5,13.5-13.5s13.5,6.056,13.5,13.5
		S94.193,323.196,86.749,323.196z M86.749,306.196c-1.93,0-3.5,1.57-3.5,3.5s1.57,3.5,3.5,3.5s3.5-1.57,3.5-3.5
		S88.679,306.196,86.749,306.196z"/>
	<path style="fill:#333333;" d="M282.12,323.196c-7.444,0-13.5-6.056-13.5-13.5s6.056-13.5,13.5-13.5s13.5,6.056,13.5,13.5
		S289.564,323.196,282.12,323.196z M282.12,306.196c-1.93,0-3.5,1.57-3.5,3.5s1.57,3.5,3.5,3.5s3.5-1.57,3.5-3.5
		S284.049,306.196,282.12,306.196z"/>
	<path style="fill:#333333;" d="M151.869,323.196c-7.444,0-13.5-6.056-13.5-13.5s6.056-13.5,13.5-13.5s13.5,6.056,13.5,13.5
		S159.313,323.196,151.869,323.196z M151.869,306.196c-1.93,0-3.5,1.57-3.5,3.5s1.57,3.5,3.5,3.5s3.5-1.57,3.5-3.5
		S153.799,306.196,151.869,306.196z"/>
	<path style="fill:#333333;" d="M347.25,323.196c-7.444,0-13.5-6.056-13.5-13.5s6.056-13.5,13.5-13.5s13.5,6.056,13.5,13.5
		S354.694,323.196,347.25,323.196z M347.25,306.196c-1.93,0-3.5,1.57-3.5,3.5s1.57,3.5,3.5,3.5s3.5-1.57,3.5-3.5
		S349.179,306.196,347.25,306.196z"/>
	<path style="fill:#333333;" d="M216.999,323.196c-7.444,0-13.5-6.056-13.5-13.5s6.056-13.5,13.5-13.5s13.5,6.056,13.5,13.5
		S224.443,323.196,216.999,323.196z M216.999,306.196c-1.93,0-3.5,1.57-3.5,3.5s1.57,3.5,3.5,3.5s3.5-1.57,3.5-3.5
		S218.929,306.196,216.999,306.196z"/>
	<path style="fill:#FFFFFF;" d="M326.353,176.963c-2.298,0-4.366-1.593-4.879-3.93c-8.1-36.934-35.508-67.149-71.528-78.854
		c-2.627-0.854-4.063-3.674-3.21-6.301c0.854-2.626,3.676-4.062,6.3-3.21c39.383,12.797,69.35,45.836,78.206,86.223
		c0.592,2.697-1.115,5.363-3.813,5.955C327.068,176.925,326.708,176.963,326.353,176.963z"/>
	<path style="fill:#FFFFFF;" d="M233.498,90.195c-0.244,0-0.492-0.018-0.741-0.055c-5.197-0.773-10.516-1.165-15.807-1.165
		c-2.761,0-5-2.239-5-5s2.239-5,5-5c5.783,0,11.595,0.428,17.278,1.273c2.731,0.406,4.616,2.95,4.21,5.681
		C238.068,88.411,235.934,90.195,233.498,90.195z"/>
</g>
<g>
</g>
<g>
</g>
<g>
</g>
<g>
</g>
<g>
</g>
<g>
</g>
<g>
</g>
<g>
</g>
<g>
</g>
<g>
</g>
<g>
</g>
<g>
</g>
<g>
</g>
<g>
</g>
<g>
</g>
</svg>
