<?xml version="1.0" encoding="iso-8859-1"?>
<!-- Generator: Adobe Illustrator 19.0.0, SVG Export Plug-In . SVG Version: 6.00 Build 0)  -->
<svg version="1.1" id="Layer_1" xmlns="http://www.w3.org/2000/svg" xmlns:xlink="http://www.w3.org/1999/xlink" x="0px" y="0px"
	 viewBox="0 0 395.123 395.123" style="enable-background:new 0 0 395.123 395.123;" xml:space="preserve">
<g>
	<path style="fill:#1AA5E2;" d="M368.203,219.483c0,47.75-19.61,90.91-51.22,121.88c-22.89,22.44-52.08,38.47-84.67,45.21
		c-11.22,2.33-22.84,3.55-34.75,3.55c-2.86,0-5.7-0.07-8.52-0.21c-88.87-4.37-159.87-76.74-162.07-166.16
		c-0.04-1.28-0.05-2.56-0.05-3.85c0-0.72,0-1.44,0.01-2.15c0.47-47.74,20.55-90.78,52.56-121.47c22.7-21.76,51.41-37.31,83.39-43.9
		c7.04-1.46,14.24-2.48,21.57-3.04c4.33-0.33,8.7-0.5,13.11-0.5c38.41,0,73.85,12.69,102.37,34.1
		C341.383,114.073,368.203,163.643,368.203,219.483z"/>
	<g>
		<path style="fill:#FFFFFF;" d="M272.256,96.446c-0.906,0-1.824-0.247-2.649-0.763c-5.902-3.697-12.116-6.994-18.472-9.799
			c-2.526-1.115-3.67-4.067-2.555-6.594c1.115-2.525,4.064-3.67,6.594-2.555c6.792,2.999,13.434,6.522,19.741,10.473
			c2.34,1.466,3.049,4.551,1.583,6.892C275.549,95.614,273.921,96.446,272.256,96.446z"/>
		<path style="fill:#FFFFFF;" d="M295.354,334.188c-1.336,0-2.668-0.532-3.652-1.584c-1.887-2.017-1.781-5.181,0.235-7.067
			c29.375-27.483,46.223-66.24,46.223-106.334c0-40.324-16.17-77.856-45.532-105.684c-2.004-1.9-2.089-5.064-0.189-7.069
			c1.899-2.004,5.063-2.09,7.068-0.19c31.375,29.735,48.653,69.845,48.653,112.942c0,42.851-18.002,84.27-49.391,113.636
			C297.805,333.741,296.578,334.188,295.354,334.188z"/>
		<path style="fill:#FFFFFF;" d="M274.323,350.65c-1.637,0-3.241-0.802-4.198-2.278c-1.504-2.316-0.846-5.413,1.471-6.917
			c2.555-1.658,5.087-3.417,7.525-5.227c2.218-1.646,5.349-1.181,6.995,1.036c1.646,2.218,1.182,5.349-1.036,6.995
			c-2.605,1.933-5.311,3.812-8.039,5.583C276.2,350.389,275.255,350.65,274.323,350.65z"/>
	</g>
	<g>
		<path style="fill:#B4CBF9;" d="M104.565,132.988H83.566c-2.762,0-5-2.239-5-5s2.238-5,5-5h20.999c2.762,0,5,2.239,5,5
			S107.327,132.988,104.565,132.988z"/>
		<path style="fill:#B4CBF9;" d="M188.561,176.486h-20.999c-2.762,0-5-2.239-5-5s2.238-5,5-5h20.999c2.762,0,5,2.239,5,5
			S191.323,176.486,188.561,176.486z"/>
		<path style="fill:#B4CBF9;" d="M311.554,176.486h-20.998c-2.762,0-5-2.239-5-5s2.238-5,5-5h20.998c2.762,0,5,2.239,5,5
			S314.316,176.486,311.554,176.486z"/>
		<path style="fill:#B4CBF9;" d="M239.665,313.641h-14.666c-2.762,0-5-2.239-5-5s2.238-5,5-5h14.666c2.762,0,5,2.239,5,5
			S242.426,313.641,239.665,313.641z"/>
		<path style="fill:#B4CBF9;" d="M221.255,251.815h-14.666c-2.762,0-5-2.239-5-5s2.238-5,5-5h14.666c2.762,0,5,2.239,5,5
			S224.017,251.815,221.255,251.815z"/>
		<path style="fill:#B4CBF9;" d="M156.73,315.979h-14.667c-2.762,0-5-2.239-5-5s2.238-5,5-5h14.667c2.762,0,5,2.239,5,5
			S159.492,315.979,156.73,315.979z"/>
		<path style="fill:#B4CBF9;" d="M142.23,299.479h-33c-2.762,0-5-2.239-5-5s2.238-5,5-5h33c2.762,0,5,2.239,5,5
			S144.992,299.479,142.23,299.479z"/>
		<path style="fill:#B4CBF9;" d="M86.264,299.479h-9.001c-2.762,0-5-2.239-5-5s2.238-5,5-5h9.001c2.762,0,5,2.239,5,5
			S89.026,299.479,86.264,299.479z"/>
		<path style="fill:#B4CBF9;" d="M166.062,194.485h-10.397c-2.762,0-5-2.239-5-5s2.238-5,5-5h10.397c2.762,0,5,2.239,5,5
			S168.824,194.485,166.062,194.485z"/>
	</g>
	<path style="opacity:0.25;enable-background:new    ;" d="M232.313,386.573c0.33,0.08,0.65,0.15,0.98,0.22
		c-11.52,2.45-23.48,3.75-35.73,3.75c-19.94,0-39.09-3.42-56.88-9.71c-19.96-7.05-38.22-17.72-53.98-31.21
		c-35.68-30.52-58.62-75.5-59.73-125.87c-0.04-1.28-0.05-2.56-0.05-3.85c0-0.72,0-1.44,0.01-2.15
		c0.56-45.19,18.69-86.16,47.87-116.37c1.56-1.61,3.16-3.19,4.78-4.74c-0.03-0.12-0.07-0.24-0.09-0.36
		c22.7-21.76,51.41-37.31,83.39-43.9c0.11,0.12,0.21,0.24,0.31,0.36c11.1-2.27,22.59-3.48,34.37-3.48c12.26,0,24.21,1.31,35.74,3.77
		c-9.94,2.12-19.57,5.09-28.79,8.85c-10.73,4.39-20.91,9.85-30.42,16.23c0.21,1.83,0.34,3.69,0.34,5.58
		c0,26.68-21.63,48.31-48.31,48.31c-1.1,0-2.19-0.05-3.27-0.12c-15.51,25.7-24.45,55.82-24.45,88.02
		c0,51.92,23.19,98.42,59.78,129.72c15.76,13.49,34.02,24.16,53.98,31.21C218.713,383.153,225.433,385.073,232.313,386.573z"/>
	<path style="fill:#333333;" d="M197.56,395.123c-2.929,0-5.878-0.073-8.765-0.216l0,0C95.22,390.305,21.921,313.25,21.921,219.483
		c0-44.566,16.715-87.062,47.064-119.658C99.176,67.399,140.048,47.7,184.072,44.358c4.478-0.341,9.016-0.514,13.488-0.514
		c38.346,0,74.783,12.138,105.372,35.101c21.339,16.027,39.02,37.025,51.13,60.728c12.699,24.856,19.139,51.708,19.139,79.811
		c0,47.589-18.724,92.142-52.722,125.452C287.461,377.299,243.807,395.123,197.56,395.123z M197.56,53.843
		c-4.22,0-8.503,0.163-12.729,0.486c-41.512,3.152-80.054,21.729-108.527,52.31c-28.62,30.74-44.383,70.815-44.383,112.844
		c0,88.428,69.123,161.096,157.366,165.436h0.002c2.724,0.135,5.507,0.204,8.271,0.204c43.613,0,84.781-16.809,115.92-47.331
		c32.063-31.414,49.721-73.43,49.721-118.309c0-26.506-6.071-51.828-18.044-75.261c-11.422-22.356-28.1-42.163-48.229-57.281
		C268.085,65.289,233.724,53.843,197.56,53.843z"/>
	<circle style="fill:#F7DB9C;" cx="81.172" cy="53.305" r="48.305"/>
	<path style="opacity:0.25;enable-background:new    ;" d="M32.867,53.302c0,26.68,21.62,48.31,48.3,48.31c4.14,0,8.17-0.52,12-1.5
		c-20.87-5.34-36.3-24.27-36.3-46.81s15.43-41.46,36.3-46.8c-3.83-0.98-7.86-1.5-12-1.5C54.487,5.002,32.867,26.622,32.867,53.302z"
		/>
	<path style="fill:#333333;" d="M81.172,106.61c-29.393,0-53.306-23.913-53.306-53.305C27.867,23.913,51.78,0,81.172,0
		s53.305,23.913,53.305,53.305C134.477,82.698,110.565,106.61,81.172,106.61z M81.172,10c-23.879,0-43.306,19.427-43.306,43.305
		c0,23.879,19.427,43.305,43.306,43.305c23.878,0,43.305-19.427,43.305-43.305S105.05,10,81.172,10z"/>
	<path style="fill:#333333;" d="M69.195,48.47c-0.33,0-0.66-0.03-0.98-0.1c-0.319-0.06-0.63-0.16-0.93-0.28
		c-0.31-0.13-0.6-0.28-0.87-0.46c-0.27-0.18-0.53-0.39-0.76-0.62s-0.44-0.49-0.62-0.76s-0.33-0.56-0.46-0.87
		c-0.12-0.3-0.22-0.61-0.28-0.93c-0.069-0.32-0.1-0.65-0.1-0.98c0-1.31,0.53-2.6,1.46-3.53c0.229-0.23,0.49-0.44,0.76-0.62
		c0.271-0.18,0.561-0.34,0.87-0.46c0.3-0.13,0.61-0.22,0.93-0.29c1.62-0.33,3.351,0.21,4.511,1.37c0.93,0.93,1.47,2.22,1.47,3.53
		c0,0.33-0.04,0.66-0.1,0.98c-0.061,0.32-0.16,0.63-0.29,0.93c-0.12,0.31-0.28,0.6-0.46,0.87c-0.181,0.27-0.391,0.53-0.62,0.76
		C71.795,47.94,70.504,48.47,69.195,48.47z"/>
	<path style="fill:#333333;" d="M76.195,79.47c-0.33,0-0.66-0.03-0.98-0.1c-0.319-0.06-0.63-0.16-0.93-0.28
		c-0.31-0.13-0.6-0.28-0.87-0.46c-0.27-0.18-0.53-0.39-0.76-0.62c-0.93-0.93-1.46-2.22-1.46-3.54c0-1.31,0.53-2.6,1.46-3.53
		c0.229-0.23,0.49-0.44,0.76-0.62c0.271-0.18,0.561-0.34,0.87-0.46c0.3-0.13,0.61-0.22,0.93-0.29c1.62-0.32,3.351,0.21,4.511,1.37
		c0.93,0.93,1.47,2.22,1.47,3.53c0,1.32-0.54,2.61-1.47,3.54c-0.23,0.23-0.48,0.44-0.761,0.62c-0.27,0.18-0.56,0.33-0.859,0.46
		c-0.3,0.12-0.62,0.22-0.931,0.28C76.845,79.44,76.515,79.47,76.195,79.47z"/>
	<path style="fill:#333333;" d="M87.695,44.97c-1.32,0-2.61-0.53-3.54-1.46c-0.23-0.23-0.44-0.49-0.62-0.76s-0.33-0.56-0.46-0.86
		c-0.12-0.31-0.22-0.62-0.28-0.94c-0.069-0.32-0.1-0.65-0.1-0.98c0-0.32,0.03-0.65,0.1-0.97c0.061-0.32,0.16-0.64,0.28-0.94
		c0.13-0.3,0.28-0.59,0.46-0.86c0.18-0.28,0.39-0.53,0.62-0.76c1.16-1.16,2.89-1.7,4.51-1.37c0.32,0.06,0.641,0.16,0.94,0.29
		c0.3,0.12,0.59,0.27,0.859,0.46c0.28,0.18,0.53,0.39,0.761,0.62c0.229,0.23,0.439,0.48,0.62,0.76c0.189,0.27,0.34,0.56,0.46,0.86
		c0.13,0.3,0.229,0.62,0.29,0.94c0.069,0.32,0.1,0.65,0.1,0.97c0,0.33-0.03,0.66-0.1,0.98c-0.061,0.32-0.16,0.63-0.29,0.94
		c-0.12,0.3-0.271,0.59-0.46,0.86c-0.181,0.27-0.391,0.53-0.62,0.76c-0.23,0.23-0.48,0.44-0.761,0.62
		c-0.27,0.18-0.56,0.33-0.859,0.46c-0.3,0.12-0.62,0.22-0.94,0.28C88.345,44.94,88.015,44.97,87.695,44.97z"/>
	<g>
		<path style="fill:#FFFFFF;" d="M103.981,81.641c-1.279,0-2.56-0.488-3.535-1.464c-1.953-1.953-1.953-5.118,0-7.071
			c6.883-6.884,9.886-16.727,8.03-26.329c-0.523-2.711,1.249-5.334,3.961-5.858c2.711-0.525,5.334,1.249,5.857,3.961
			c2.486,12.867-1.543,26.062-10.778,35.297C106.541,81.153,105.26,81.641,103.981,81.641z"/>
		<path style="fill:#FFFFFF;" d="M103.985,33.13c-0.33,0-0.66-0.04-0.98-0.1c-0.319-0.07-0.64-0.16-0.939-0.29
			c-0.3-0.12-0.59-0.28-0.86-0.46c-0.27-0.18-0.53-0.39-0.76-0.62c-0.23-0.23-0.44-0.49-0.62-0.76s-0.34-0.56-0.46-0.86
			c-0.13-0.3-0.22-0.62-0.29-0.94c-0.06-0.32-0.09-0.65-0.09-0.97c0-0.33,0.03-0.66,0.09-0.98c0.07-0.32,0.16-0.63,0.29-0.94
			c0.12-0.3,0.28-0.59,0.46-0.86s0.39-0.53,0.62-0.76c0.229-0.23,0.49-0.44,0.76-0.62c0.271-0.18,0.561-0.34,0.86-0.46
			c0.3-0.13,0.62-0.22,0.939-0.29c0.641-0.13,1.311-0.13,1.95,0c0.32,0.07,0.641,0.16,0.94,0.29c0.3,0.12,0.59,0.28,0.859,0.46
			c0.271,0.18,0.53,0.39,0.761,0.62c0.229,0.23,0.439,0.49,0.619,0.76c0.181,0.27,0.341,0.56,0.461,0.86
			c0.13,0.31,0.22,0.62,0.289,0.94c0.061,0.32,0.101,0.65,0.101,0.98c0,0.32-0.04,0.65-0.101,0.97
			c-0.069,0.32-0.159,0.64-0.289,0.94c-0.12,0.3-0.28,0.59-0.461,0.86c-0.18,0.27-0.39,0.53-0.619,0.76
			c-0.23,0.23-0.49,0.44-0.761,0.62c-0.27,0.18-0.56,0.34-0.859,0.46c-0.3,0.13-0.62,0.22-0.94,0.29
			C104.634,33.091,104.305,33.13,103.985,33.13z"/>
	</g>
</g>
<g>
</g>
<g>
</g>
<g>
</g>
<g>
</g>
<g>
</g>
<g>
</g>
<g>
</g>
<g>
</g>
<g>
</g>
<g>
</g>
<g>
</g>
<g>
</g>
<g>
</g>
<g>
</g>
<g>
</g>
</svg>
