<?xml version="1.0" encoding="utf-8"?>
<!-- Generator: Adobe Illustrator 16.0.0, SVG Export Plug-In . SVG Version: 6.00 Build 0)  -->
<!DOCTYPE svg PUBLIC "-//W3C//DTD SVG 1.1//EN" "http://www.w3.org/Graphics/SVG/1.1/DTD/svg11.dtd">
<svg version="1.1" id="Layer_1" xmlns="http://www.w3.org/2000/svg" xmlns:xlink="http://www.w3.org/1999/xlink" x="0px" y="0px"
	 width="551.365px" height="109.708px" viewBox="0 0 551.365 109.708" enable-background="new 0 0 551.365 109.708"
	 xml:space="preserve">
<g>
	<g>
		<g>
			<g>
				<g>
					<path fill="#EC6617" d="M99.611,78.594c-1.362-2.192-5.073-4.508-11.896-5.219c-8.055-0.846-16.421,1.594-20.43,3.412
						c2.815,2.235,5.506,3.998,8.067,5.377c4.266-3.57,10.93-6.457,18.781-4.862c3.442,0.701,5.026,1.996,5.569,3.456
						C100.927,84.05,101.096,81.006,99.611,78.594z"/>
				</g>
			</g>
			<g>
				<path fill="#EC6617" d="M76.045,71.456c7.819-0.792,20.617,0.087,23.525,7.321c0.598,1.477,0.517,3.079,0.091,5.096
					c-0.098,0.478-0.346,0.964-0.478,1.48c0,0,0.439-0.69,0.98-1.958c0.388-0.9,0.988-1.975,1.114-3.241
					c0.159-1.71-0.291-3.774-2.375-6.239c-5.349-6.331-25.219-11.517-32.148-6.577l1.358,6.699
					C68.112,74.037,70.904,71.981,76.045,71.456z"/>
			</g>
			<g>
				<g>
					<path fill="#EC6617" d="M78.198,83.562c1.949-5.65,5.111-13.517,6.152-16.948c-5.325-4.651-6.112-5.54-6.112-5.54
						c-4.865,5.596-6.38,13.94-6.241,19.102C74.145,81.564,76.221,82.679,78.198,83.562z"/>
				</g>
			</g>
			<g>
				<path fill="#EC6617" d="M88.625,0c0,0,10.309,15.425,11.751,25.342c-2.92,8.385-3.249,8.103-5.299,13.49
					c0,0-0.421-3.628-9.837-10.872C85.24,27.96,81.106,9.694,88.625,0z"/>
			</g>
			<g>
				<path fill="#EC6617" d="M84.153,35.073c0,0,3.674,4.243,8.361,9.299c-1.328,4.017-5.296,13.671-6.277,16.462
					c0,0-3.036-3.491-6.719-5.186C79.518,55.648,77.091,42.011,84.153,35.073z"/>
			</g>
			<g>
				<g>
					<path fill="#EC6617" d="M98.745,85.613c-0.587,0.74-1.241,1.609-1.832,2.688C96.913,88.302,97.978,87.014,98.745,85.613z"/>
				</g>
				<g>
					<g>
						<path fill="#EC6617" d="M74.773,87.876c-0.279,0.84-0.382,1.699-0.267,2.581c0.43,3.209,8.505,0.128,8.505,0.128
							c0.105-0.267,0.23-0.533,0.367-0.79C80.61,89.557,77.706,88.894,74.773,87.876z"/>
					</g>
					<g>
						<path fill="#EC6617" d="M64.504,82.954c0.958,1.073,6.808,3.83,6.808,3.83c0.042-0.07,0.084-0.139,0.127-0.207
							C69.104,85.563,66.778,84.344,64.504,82.954z"/>
					</g>
				</g>
				<g>
					<path fill="#EC6617" d="M95.077,38.832c2.05-5.387,2.379-5.105,5.299-13.49C98.934,15.425,88.625,0,88.625,0
						c-7.519,9.694-3.385,27.96-3.385,27.96C94.656,35.203,95.077,38.832,95.077,38.832z"/>
				</g>
				<g>
					<path fill="#EC6617" d="M86.237,60.834c0.981-2.792,4.95-12.445,6.277-16.462c-4.687-5.056-8.361-9.299-8.361-9.299
						c-7.062,6.938-4.636,20.576-4.636,20.576C83.201,57.343,86.237,60.834,86.237,60.834z"/>
				</g>
			</g>
			<g>
				<g>
					<path fill="#EC6617" d="M73.259,80.964l5.037-19.882c-5.365,0.901-15.864,3.896-21.308,5.861
						C62.826,73.47,68.281,77.953,73.259,80.964z"/>
				</g>
			</g>
			<g>
				<path fill="#EC6617" d="M100.279,83.271c0.541-1.198,0.952-2.107,1.027-3.601c0,0-0.048,1.431-1.206,3.479
					c-1.537,2.74-4.49,5.908-9.906,5.821c-9.469-0.163-23.096-5.399-39.28-26.378C37.478,45.176,9.255,50.055,0,52.818
					c4.346,8.094,8.558,13.903,8.558,13.903s22.702-10.048,46.084,11.554C69.78,92.28,93.108,99.089,100.279,83.271z"/>
			</g>
			<g>
				<path fill="#EC6617" d="M100.41,82.693c0.403-0.815,0.64-1.57,0.88-2.755c0,0-0.034,1.225-0.721,2.856
					c-1.137,2.715-3.535,6.876-8.212,9.757c-7.998,4.916-14.909,5.888-27.166-0.037c-12.449-6.022-28.902-15.343-45.794-10.62
					c-2.006-1.754-6.706-7.321-7.997-9.736c0,0,18.53-7.263,37.757,5.096C70.277,90.833,92.949,97.573,100.41,82.693z"/>
			</g>
			<g>
				<g>
					<path fill="#EC6617" d="M99.631,80.303c-5.056-3.288-15.396-1.369-19.887,1.725c-0.634,0.438-1.243,0.91-1.809,1.413
						c3.005,1.363,5.798,2.19,8.358,2.628c3.925-3.528,9.68-5.079,12.561-3.776c1.085,0.486,0.632,1.958-0.109,3.321
						c0.734-0.935,1.366-1.679,1.642-2.403C100.807,82.106,100.872,81.101,99.631,80.303z"/>
				</g>
				<g>
					<path fill="#EC6617" d="M98.745,85.613c-0.587,0.74-1.241,1.609-1.832,2.688C96.913,88.302,97.978,87.014,98.745,85.613z"/>
				</g>
			</g>
			<g>
				<path fill="#EC6617" d="M51.322,60.108c0.908,1.168,1.801,2.285,2.686,3.362c10.903-5.856,25.51-7.822,25.51-7.822
					c1.778-5.946,2.706-10.936,4.636-20.582C67.361,37.97,50.424,47.097,42.242,52.304C45.59,54.159,48.691,56.69,51.322,60.108z"/>
			</g>
			<g>
				<path fill="#EC6617" d="M33.308,48.957c1.279,0.289,2.552,0.646,3.81,1.082C57.5,33.703,85.24,27.96,85.24,27.96L88.625,0
					C63.545,5.005,27.064,35.085,28.96,38.969C31.128,43.409,32.488,46.731,33.308,48.957z"/>
			</g>
			<path fill="#EC6617" d="M98.423,86.692c0,0-5.817,12.073-27.813,14.518c-21.992,2.445-39.251-6.778-45.372-13.744
				c0,0,13.098-3.375,30.642,3.443c21.834,8.489,34.645,6.316,42.75-4.506"/>
		</g>
	</g>
	<g>
		<path fill="#010102" d="M163.768,35.659h10.185l-6.152,34.332c-1.216,6.775-3.493,11.763-6.83,14.958
			c-4.498,4.324-10.484,6.478-17.962,6.478c-3.987,0-7.26-0.484-9.805-1.471c-2.546-0.986-4.578-2.426-6.105-4.33
			c-1.529-1.898-2.507-4.211-2.91-6.937h11.257c0.799,1.125,1.935,1.973,3.396,2.561c1.471,0.57,3.271,0.866,5.423,0.866
			c2.74,0,5.022-0.428,6.843-1.259c1.822-0.832,3.196-1.915,4.119-3.243c0.929-1.319,1.675-3.604,2.259-6.854
			c-2.111,1.768-4.225,3.046-6.333,3.822c-2.108,0.765-4.408,1.154-6.906,1.154c-5.466,0-9.728-1.944-12.803-5.823
			c-3.071-3.876-4.081-8.79-3.006-14.735c1.133-6.361,4.043-11.47,8.728-15.327c4.238-3.486,8.867-5.229,13.883-5.229
			c2.341,0,4.483,0.42,6.412,1.268c1.927,0.853,3.772,2.247,5.521,4.185L163.768,35.659z M151.684,44.019
			c-3.21,0-6.059,1.061-8.54,3.181c-2.472,2.131-4.005,4.806-4.576,8.013c-0.6,3.343-0.019,6.081,1.745,8.215
			c1.765,2.142,4.272,3.209,7.506,3.209c3.169,0,5.964-1.048,8.405-3.131c2.428-2.088,3.94-4.827,4.546-8.212
			c0.603-3.342,0.054-6.057-1.639-8.142C157.428,45.063,154.95,44.019,151.684,44.019z"/>
		<path fill="#010102" d="M216.165,56.694c1.183-6.636,0.134-11.973-3.164-16.014c-3.284-4.034-8.141-6.058-14.547-6.058
			c-6.045,0-11.418,2.024-16.142,6.058c-4.733,4.041-7.646,9.122-8.746,15.233c-1.061,5.972,0.055,10.941,3.364,14.906
			c3.304,3.966,8.148,5.947,14.536,5.947c4.112,0,7.794-0.715,11.049-2.155c3.249-1.431,6.214-3.652,8.899-6.646l-7.898-3.979
			c-3.212,2.63-6.729,3.946-10.535,3.946c-3.206,0-5.674-0.844-7.429-2.527c-1.76-1.679-2.619-3.95-2.583-6.799
			c0,0-0.036-4.564,1.864-7.918c1.447-2.545,3.158-4.21,4.685-5.198c2.432-1.568,5.069-2.355,7.913-2.355
			c2.622,0,4.8,0.704,6.539,2.1c1.739,1.399,2.744,3.22,3.018,5.454h-15.25c-0.432,2.428-0.884,4.65-1.465,7.918
			c0,0,19.752,0,25.546,0C215.819,58.605,215.864,58.344,216.165,56.694z"/>
		<path fill="#010102" d="M223.83,35.659h8.748l-0.904,5.04c1.307-1.991,2.838-3.499,4.594-4.529
			c1.757-1.028,3.571-1.548,5.444-1.548c1.321,0,2.634,0.345,3.968,1.037l-4.731,8.65c-1.096-0.586-2.028-0.883-2.795-0.883
			c-1.58,0-3.073,0.96-4.503,2.875c-1.429,1.916-2.643,5.671-3.646,11.274l-0.315,1.952l-2.899,16.209h-10.14L223.83,35.659z"/>
		<path fill="#010102" d="M291.384,35.659H301.6l-0.744,4.106c2.669-1.921,5.009-3.264,7.021-4.015
			c2.012-0.75,4.014-1.128,5.975-1.128c4.033,0,7.207,1.387,9.532,4.169c1.938,2.352,2.496,5.846,1.669,10.459l-4.74,26.486h-10.104
			l3.143-17.553c0.86-4.781,1.208-7.959,1.057-9.531c-0.159-1.571-0.706-2.763-1.638-3.584c-0.939-0.823-2.198-1.231-3.791-1.231
			c-2.064,0-3.958,0.677-5.687,2.038c-1.717,1.363-3.085,3.251-4.086,5.649c-0.529,1.251-1.16,3.963-1.9,8.127l-2.887,16.085h-10.21
			L291.384,35.659z"/>
		<path fill="#010102" d="M371.884,43.761l-9.321,4.601c-1.307-1.641-2.682-2.785-4.125-3.422c-1.452-0.646-3.222-0.958-5.319-0.958
			c-3.824,0-7.11,1.122-9.873,3.364c-2.769,2.247-4.463,5.124-5.085,8.625c-0.618,3.412,0.031,6.188,1.915,8.355
			c1.886,2.15,4.68,3.236,8.367,3.236c4.571,0,8.413-1.537,11.5-4.604l7.085,5.424c-5.362,5.594-12.03,8.384-19.981,8.384
			c-7.16,0-12.396-2.084-15.699-6.258c-3.309-4.177-4.457-9.07-3.456-14.666c0.699-3.88,2.32-7.456,4.876-10.72
			c2.554-3.267,5.766-5.829,9.623-7.698c3.869-1.871,7.993-2.802,12.348-2.802c4.049,0,7.528,0.791,10.464,2.376
			C368.139,38.583,370.36,40.838,371.884,43.761z"/>
		<path fill="#010102" d="M385.604,19.147c1.799,0,3.216,0.636,4.272,1.919c1.051,1.278,1.419,2.828,1.079,4.644
			c-0.314,1.79-1.224,3.321-2.717,4.581c-1.493,1.267-3.123,1.899-4.896,1.899c-1.809,0-3.241-0.642-4.294-1.928
			c-1.055-1.29-1.402-2.856-1.075-4.702c0.314-1.763,1.218-3.278,2.709-4.534C382.179,19.771,383.811,19.147,385.604,19.147z
			 M377.551,35.659h10.216l-7.182,40.077h-10.214L377.551,35.659z"/>
		<path fill="#010102" d="M428.258,38.374c2.229-0.355,4.041-0.748,7.09-0.877c-1.166,7.585-1.375,9.703-1.375,9.703l-5.145,28.537
			h-10.207l0.762-4.235c-2.337,1.859-4.574,3.21-6.729,4.037c-2.151,0.816-4.401,1.228-6.733,1.228
			c-5.262,0-9.455-2.006-12.572-6.024c-3.115-4.01-4.146-9.004-3.068-14.972c1.1-6.192,3.869-11.265,8.293-15.214
			c4.415-3.953,11.541-5.753,16.819-5.204C421.504,35.99,424.764,37.792,428.258,38.374z M413.58,43.91
			c-3.168,0-5.98,1.099-8.459,3.29c-2.48,2.2-4.032,5.023-4.645,8.463c-0.622,3.457-0.072,6.309,1.663,8.54
			c1.725,2.235,4.128,3.358,7.235,3.358c3.213,0,6.068-1.103,8.58-3.303c2.499-2.198,4.074-5.077,4.711-8.639
			c0.625-3.481,0.068-6.31-1.654-8.467C419.296,44.991,416.807,43.91,413.58,43.91z"/>
		<path fill="#010102" d="M437.916,40.074"/>
		<g>
			<path fill="#010102" d="M279.739,40.68c-3.29-4.034-8.148-6.058-14.561-6.058c-6.03,0-11.415,2.024-16.138,6.058
				c-4.727,4.041-7.641,9.122-8.734,15.233c-1.072,5.972,0.047,10.941,3.355,14.906c3.303,3.966,8.151,5.947,14.535,5.947
				c4.119,0,7.8-0.715,11.054-2.155c3.249-1.431,6.216-3.652,8.899-6.646l-7.89-3.979c-3.226,2.63-6.728,3.946-10.555,3.946
				c-3.186,0-5.666-0.844-7.421-2.527c-1.755-1.679-2.617-3.95-2.577-6.799c0,0-0.04-4.564,1.858-7.918
				c1.449-2.545,3.156-4.21,4.687-5.198c2.426-1.568,5.066-2.355,7.912-2.355c2.625,0,4.809,0.704,6.533,2.1
				c1.748,1.399,2.756,3.22,3.024,5.454h-15.248c-0.437,2.428-0.88,4.65-1.467,7.918c0,0,19.748,0,25.549,0
				c0,0,0.048-0.261,0.341-1.911C284.088,50.058,283.034,44.721,279.739,40.68z"/>
		</g>
	</g>
	<g>
		<path fill="#010102" d="M447.355,35.731h10.07l-0.719,4.109c2.631-1.931,4.93-3.265,6.924-4.018
			c1.98-0.753,3.951-1.131,5.889-1.131c3.984,0,7.111,1.389,9.402,4.165c1.91,2.371,2.461,5.861,1.65,10.493l-4.68,26.535h-9.961
			l3.096-17.586c0.844-4.787,1.195-7.976,1.033-9.547c-0.15-1.576-0.686-2.768-1.611-3.594c-0.918-0.823-2.164-1.238-3.734-1.238
			c-2.037,0-3.91,0.684-5.607,2.047c-1.705,1.364-3.049,3.251-4.039,5.656c-0.508,1.252-1.141,3.975-1.871,8.152l-2.848,16.11
			h-10.068L447.355,35.731z"/>
		<path fill="#010102" d="M537.926,20.925h10.076l-2.613,14.806h5.977l-1.527,8.672h-5.98l-5.549,31.481h-10.072l5.549-31.481
			h-5.164l1.521-8.672h5.166L537.926,20.925z"/>
		<path fill="#010102" d="M525.447,56.806c1.164-6.652,0.129-11.996-3.123-16.038c-3.246-4.052-8.035-6.076-14.352-6.076
			c-5.957,0-11.262,2.023-15.928,6.076c-4.67,4.042-7.537,9.13-8.613,15.258c-1.061,5.979,0.051,10.958,3.312,14.931
			c3.26,3.973,8.035,5.958,14.334,5.958c4.066,0,7.695-0.722,10.902-2.159c3.205-1.436,6.133-3.659,8.773-6.655l-7.787-3.991
			c-3.162,2.635-6.637,3.946-10.396,3.946c-3.146,0-5.592-0.844-7.324-2.527c-1.736-1.682-2.582-3.952-2.547-6.808
			c0,0-0.035-4.579,1.842-7.931c1.426-2.554,3.113-4.222,4.627-5.209c2.383-1.573,4.988-2.355,7.801-2.355
			c2.588,0,4.744,0.695,6.445,2.1c1.717,1.401,2.713,3.225,2.975,5.465h-15.033c-0.43,2.427-0.869,4.657-1.447,7.931
			c0,0,19.48,0,25.201,0C525.109,58.721,525.154,58.456,525.447,56.806z"/>
	</g>
	<text transform="matrix(0.9848 0 0 1 269.8794 103.21)" fill="#010102" font-family="'OpenSans'" font-size="23.9786">conceito em pagamentos</text>
</g>
</svg>
