<?xml version="1.0" encoding="utf-8"?>
<!-- Generator: Adobe Illustrator 16.0.0, SVG Export Plug-In . SVG Version: 6.00 Build 0)  -->
<!DOCTYPE svg PUBLIC "-//W3C//DTD SVG 1.1//EN" "http://www.w3.org/Graphics/SVG/1.1/DTD/svg11.dtd">
<svg version="1.1" id="Layer_1" xmlns="http://www.w3.org/2000/svg" xmlns:xlink="http://www.w3.org/1999/xlink" x="0px" y="0px"
	 width="460.845px" height="223.915px" viewBox="0 0 460.845 223.915" enable-background="new 0 0 460.845 223.915"
	 xml:space="preserve">
<g>
	<path fill="none" stroke="#000000" stroke-width="4.0832" d="M32.188,211.45"/>
	<g>
		<g>
			<path fill="#636466" d="M0,183.501c0-2.246,1.734-4.083,3.854-4.083s3.854,1.837,3.854,4.083v35.844
				c0,2.245-1.734,4.083-3.854,4.083S0,221.591,0,219.346V183.501z"/>
		</g>
		<g>
			<path fill="#636466" d="M62.227,183.501c0-2.246,1.646-4.083,3.659-4.083s3.659,1.837,3.659,4.083v35.844
				c0,2.245-1.491,4.083-3.313,4.083c-1.822,0-4.648-1.262-6.282-2.803l-29.933-28.257c-1.633-1.541-2.969-0.965-2.969,1.28v25.696
				c0,2.245-1.625,4.083-3.61,4.083c-1.985,0-3.609-1.838-3.609-4.083v-35.844c0-2.246,1.399-4.083,3.11-4.083
				c1.71,0,4.446,1.261,6.079,2.803l30.24,28.547c1.633,1.541,2.969,0.965,2.969-1.28V183.501z"/>
		</g>
		<g>
			<path fill="#636466" d="M123.687,183.501c0-2.246,1.647-4.083,3.66-4.083c2.012,0,3.659,1.837,3.659,4.083v35.844
				c0,2.245-1.491,4.083-3.313,4.083s-4.649-1.262-6.283-2.803l-29.932-28.257c-1.633-1.541-2.969-0.965-2.969,1.28v25.696
				c0,2.245-1.625,4.083-3.61,4.083c-1.986,0-3.611-1.838-3.611-4.083v-35.844c0-2.246,1.4-4.083,3.112-4.083
				s4.448,1.261,6.082,2.803l30.236,28.547c1.633,1.541,2.969,0.965,2.969-1.28V183.501z"/>
		</g>
		<path fill="#636466" d="M142.508,179.418h30.447v5.61h-22.737v13.417h21.956v5.663h-21.956v13.661h23.467v5.61h-31.177V179.418z"
			/>
		<path fill="#636466" d="M182.11,223.429v-44.01h13.454c5.435,0,9.746,1.104,12.936,3.306c3.194,2.201,4.789,5.184,4.789,8.936
			c0,2.56-0.782,4.777-2.341,6.643c-1.567,1.871-3.808,3.263-6.727,4.188c1.723,0.921,3.405,2.185,5.048,3.784
			c1.647,1.595,3.952,4.382,6.926,8.354c1.866,2.5,3.37,4.387,4.498,5.646l2.839,3.154h-9.139l-2.345-2.903
			c-0.076-0.104-0.227-0.287-0.458-0.538l-1.5-1.734l-2.376-3.222l-2.572-3.441c-1.587-1.811-3.042-3.25-4.367-4.318
			c-1.32-1.065-2.516-1.839-3.581-2.31c-1.064-0.47-2.855-0.709-5.371-0.709h-2.006v19.176H182.11z M192.127,184.786h-2.309v13.857
			h2.919c3.892,0,6.56-0.275,8.011-0.818c1.444-0.542,2.572-1.363,3.377-2.464c0.81-1.101,1.208-2.353,1.208-3.756
			c0-1.384-0.447-2.632-1.344-3.756c-0.897-1.117-2.153-1.91-3.78-2.373C198.583,185.017,195.887,184.786,192.127,184.786z"/>
		<g>
			<path fill="#636466" d="M255.239,183.043c1.034-1.993,3.603-3.625,5.708-3.625s2.989,1.635,1.963,3.633l-18.959,36.94
				c-1.026,1.998-2.264,3.633-2.752,3.633s-1.738-1.629-2.778-3.619l-19.322-36.968c-1.04-1.99-0.153-3.619,1.971-3.619
				c2.124,0,4.713,1.628,5.753,3.619l12.371,23.677c1.04,1.99,2.737,1.988,3.771-0.006L255.239,183.043z"/>
		</g>
		<g>
			<path fill="#636466" d="M270.757,183.501c0-2.246,1.734-4.083,3.854-4.083c2.12,0,3.854,1.837,3.854,4.083v35.844
				c0,2.245-1.734,4.083-3.854,4.083c-2.119,0-3.854-1.838-3.854-4.083V183.501z"/>
		</g>
		<g>
			<path fill="#636466" d="M303.662,204.967l-2.19-1.084c-2.013-0.996-5.25-2.731-7.194-3.855c0,0-2.742-1.585-4.289-3.359
				c-1.555-1.771-2.333-3.812-2.333-6.117c0-3.461,1.471-6.272,4.406-8.429c2.939-2.162,6.751-3.238,11.444-3.238
				c4.49,0,8.609,1.029,12.354,3.086v3.086c0,2.246-1.595,3.171-3.545,2.058c0,0-4.501-2.572-8.963-2.572
				c-2.512,0-4.582,0.474-6.192,1.427c-1.623,0.953-2.425,2.173-2.425,3.661c0,1.316,0.59,2.548,1.774,3.701
				c1.181,1.152,3.099,2.353,5.73,3.624l2.204,1.064c2.022,0.977,5.155,2.867,6.961,4.202c0,0,6.553,4.842,6.553,9.795
				c0,3.524-1.439,6.392-4.327,8.593c-2.883,2.205-6.627,3.306-11.237,3.306c-5.308,0-10.136-1.336-14.491-4.012v-3.92
				c0-2.245,1.491-3.009,3.312-1.695c0,0,5.644,4.068,11.103,4.068c2.409,0,4.41-0.55,6.013-1.646
				c1.607-1.101,2.404-2.477,2.404-4.132C310.735,209.903,308.375,207.363,303.662,204.967z"/>
		</g>
		<g>
			<path fill="#636466" d="M326.494,183.501c0-2.246,1.734-4.083,3.854-4.083s3.854,1.837,3.854,4.083v35.844
				c0,2.245-1.734,4.083-3.854,4.083s-3.854-1.838-3.854-4.083V183.501z"/>
		</g>
		<path fill="#636466" d="M372.431,178.784c8.301,0,15.211,2.153,20.735,6.46c5.523,4.298,8.281,9.697,8.281,16.186
			c0,6.491-2.787,11.858-8.361,16.109c-5.566,4.251-12.596,6.376-21.074,6.376c-8.103,0-14.846-2.125-20.245-6.376
			c-5.391-4.251-8.087-9.578-8.087-15.982c0-6.571,2.716-12.014,8.151-16.312C357.262,180.938,364.132,178.784,372.431,178.784z
			 M372.741,184.786c-6.152,0-11.208,1.575-15.168,4.721c-3.956,3.146-5.937,7.165-5.937,12.05c0,4.741,1.985,8.686,5.957,11.835
			c3.976,3.146,8.948,4.718,14.917,4.718c6.001,0,11.009-1.604,15.017-4.81c4.012-3.214,6.018-7.209,6.018-11.99
			c0-4.661-2.006-8.577-6.018-11.755C383.519,186.376,378.591,184.786,372.741,184.786z"/>
		<g>
			<path fill="#636466" d="M453.529,183.501c0-2.246,1.646-4.083,3.658-4.083s3.658,1.837,3.658,4.083v35.844
				c0,2.245-1.492,4.083-3.314,4.083c-1.824,0-4.652-1.262-6.285-2.803l-29.926-28.257c-1.633-1.541-2.969-0.965-2.969,1.28v25.696
				c0,2.245-1.625,4.083-3.611,4.083s-3.611-1.838-3.611-4.083v-35.844c0-2.246,1.4-4.083,3.111-4.083s4.445,1.261,6.078,2.803
				l30.242,28.547c1.633,1.541,2.969,0.965,2.969-1.28V183.501z"/>
		</g>
	</g>
	<g>
		<g>
			<g>
				<g>
					<linearGradient id="SVGID_1_" gradientUnits="userSpaceOnUse" x1="79.0869" y1="84.0156" x2="389.7134" y2="84.0156">
						<stop  offset="0" style="stop-color:#10A2DC"/>
						<stop  offset="0.1675" style="stop-color:#2081B0"/>
						<stop  offset="0.5701" style="stop-color:#19476B"/>
						<stop  offset="0.8575" style="stop-color:#0D2849"/>
						<stop  offset="1" style="stop-color:#091B3E"/>
					</linearGradient>
					<path fill="url(#SVGID_1_)" d="M157.108,33.587c5.375-7.197,17.124-13.085,26.107-13.085h197.207
						c8.982,0,11.979,5.921,6.654,13.157l-74.079,100.714c-5.323,7.236-17.027,13.157-26.011,13.157H88.332
						c-8.983,0-11.935-5.889-6.559-13.085L157.108,33.587z"/>
					<path fill="none" stroke="#FFFFFF" stroke-width="4.0832" d="M157.108,33.587c5.375-7.197,17.124-13.085,26.107-13.085h197.207
						c8.982,0,11.979,5.921,6.654,13.157l-74.079,100.714c-5.323,7.236-17.027,13.157-26.011,13.157H88.332
						c-8.983,0-11.935-5.889-6.559-13.085L157.108,33.587z"/>
				</g>
			</g>
		</g>
		<g>
			<g>
				<g>
					<linearGradient id="SVGID_2_" gradientUnits="userSpaceOnUse" x1="86.1821" y1="57.5654" x2="394.5249" y2="57.5654">
						<stop  offset="0" style="stop-color:#10A2DC"/>
						<stop  offset="0.2961" style="stop-color:#2175A1"/>
						<stop  offset="0.9684" style="stop-color:#0A1F41"/>
						<stop  offset="1" style="stop-color:#091B3E"/>
					</linearGradient>
					<path fill="url(#SVGID_2_)" d="M161.319,22.407c6.402-6.302,18.989-11.458,27.973-11.458h196.8
						c8.984,0,11.135,5.196,4.781,11.547l-70.165,70.138c-6.353,6.351-18.901,11.547-27.884,11.547H94.578
						c-8.983,0-11.095-5.156-4.693-11.458L161.319,22.407z"/>
					<path fill="none" stroke="#FFFFFF" stroke-width="4.0832" d="M161.319,22.407c6.402-6.302,18.989-11.458,27.973-11.458h196.8
						c8.984,0,11.135,5.196,4.781,11.547l-70.165,70.138c-6.353,6.351-18.901,11.547-27.884,11.547H94.578
						c-8.983,0-11.095-5.156-4.693-11.458L161.319,22.407z"/>
				</g>
			</g>
		</g>
		<g>
			<g>
				<g>
					<linearGradient id="SVGID_3_" gradientUnits="userSpaceOnUse" x1="96.3838" y1="31.8032" x2="399.9194" y2="31.8032">
						<stop  offset="0.0048" style="stop-color:#10A2DC"/>
						<stop  offset="0.2815" style="stop-color:#21729D"/>
						<stop  offset="0.4258" style="stop-color:#206188"/>
						<stop  offset="1" style="stop-color:#091B3E"/>
					</linearGradient>
					<path fill="url(#SVGID_3_)" d="M167.625,10.792c7.584-4.813,21.14-8.751,30.124-8.751h194.586
						c8.984,0,10.156,3.981,2.604,8.847l-64.912,41.829c-7.551,4.866-21.079,8.847-30.062,8.847h-196.02
						c-8.983,0-10.127-3.938-2.542-8.751L167.625,10.792z"/>
					<path fill="none" stroke="#FFFFFF" stroke-width="4.0832" d="M167.625,10.792c7.584-4.813,21.14-8.751,30.124-8.751h194.586
						c8.984,0,10.156,3.981,2.604,8.847l-64.912,41.829c-7.551,4.866-21.079,8.847-30.062,8.847h-196.02
						c-8.983,0-10.127-3.938-2.542-8.751L167.625,10.792z"/>
				</g>
			</g>
		</g>
	</g>
</g>
</svg>
