<?xml version="1.0" encoding="utf-8"?>
<!-- Generator: Adobe Illustrator 16.0.0, SVG Export Plug-In . SVG Version: 6.00 Build 0)  -->
<!DOCTYPE svg PUBLIC "-//W3C//DTD SVG 1.1//EN" "http://www.w3.org/Graphics/SVG/1.1/DTD/svg11.dtd">
<svg version="1.1" id="Layer_1" xmlns="http://www.w3.org/2000/svg" xmlns:xlink="http://www.w3.org/1999/xlink" x="0px" y="0px"
	 width="165.54px" height="80.2px" viewBox="0 0 165.54 80.2" enable-background="new 0 0 165.54 80.2" xml:space="preserve">
<g>
	<g>
		<g>
			<path fill="#646363" d="M0,65.216c0-0.55,0.45-1,1-1h0.769c0.55,0,1,0.45,1,1v13.809c0,0.55-0.45,1-1,1H1c-0.55,0-1-0.45-1-1
				V65.216z"/>
		</g>
		<g>
			<path fill="#646363" d="M22.353,65.216c0-0.55,0.45-1,1-1h0.629c0.55,0,1,0.45,1,1v13.809c0,0.55-0.45,1-1,1h-0.382
				c-0.55,0-1.327-0.309-1.727-0.687L10.443,68.549c-0.4-0.377-0.727-0.236-0.727,0.313v10.162c0,0.55-0.45,1-1,1H8.123
				c-0.55,0-1-0.45-1-1V65.216c0-0.55,0.45-1,1-1h0.234c0.55,0,1.327,0.309,1.727,0.687l11.542,10.896
				c0.4,0.377,0.727,0.236,0.727-0.313V65.216z"/>
		</g>
		<g>
			<path fill="#646363" d="M44.428,65.216c0-0.55,0.45-1,1-1h0.63c0.55,0,1,0.45,1,1v13.809c0,0.55-0.45,1-1,1h-0.38
				c-0.55,0-1.327-0.309-1.727-0.687L32.519,68.549c-0.4-0.377-0.727-0.236-0.727,0.313v10.162c0,0.55-0.45,1-1,1h-0.595
				c-0.55,0-1-0.45-1-1V65.216c0-0.55,0.45-1,1-1h0.237c0.55,0,1.327,0.309,1.727,0.687l11.54,10.896
				c0.4,0.377,0.727,0.236,0.727-0.313V65.216z"/>
		</g>
		<path fill="#646363" d="M51.188,64.216h10.937v2.017h-8.167v4.819h7.887v2.033h-7.887v4.907h8.431v2.017H51.188V64.216z"/>
		<path fill="#646363" d="M65.417,80.024V64.216h4.832c1.951,0,3.5,0.397,4.646,1.187c1.146,0.792,1.721,1.863,1.721,3.209
			c0,0.921-0.28,1.716-0.841,2.387c-0.562,0.672-1.369,1.172-2.415,1.505c0.616,0.331,1.222,0.784,1.811,1.359
			c0.593,0.573,1.42,1.574,2.487,3c0.673,0.898,1.213,1.576,1.618,2.03l1.02,1.131h-3.283l-0.84-1.042
			c-0.031-0.038-0.082-0.104-0.165-0.194l-0.541-0.624l-0.853-1.157l-0.924-1.234c-0.57-0.652-1.091-1.169-1.568-1.552
			c-0.475-0.382-0.904-0.661-1.287-0.831c-0.383-0.168-1.025-0.253-1.929-0.253h-0.721v6.887H65.417z M69.013,66.144h-0.829v4.978
			h1.049c1.397,0,2.356-0.099,2.877-0.295c0.517-0.194,0.924-0.489,1.214-0.885c0.289-0.396,0.435-0.844,0.435-1.348
			c0-0.498-0.164-0.946-0.482-1.35c-0.324-0.401-0.777-0.685-1.359-0.853C71.333,66.227,70.365,66.144,69.013,66.144z"/>
		<g>
			<path fill="#646363" d="M91.899,65.104c0.253-0.488,0.91-0.888,1.46-0.888h0.751c0.55,0,0.795,0.4,0.543,0.89l-7.236,14.101
				c-0.252,0.489-0.601,0.89-0.776,0.89s-0.527-0.399-0.782-0.886l-7.375-14.108c-0.255-0.487-0.013-0.886,0.537-0.886h0.778
				c0.55,0,1.208,0.399,1.463,0.886l4.877,9.333c0.255,0.487,0.67,0.487,0.923-0.001L91.899,65.104z"/>
		</g>
		<g>
			<path fill="#646363" d="M97.259,65.216c0-0.55,0.45-1,1-1h0.77c0.55,0,1,0.45,1,1v13.809c0,0.55-0.45,1-1,1h-0.77
				c-0.55,0-1-0.45-1-1V65.216z"/>
		</g>
		<g>
			<path fill="#646363" d="M109.079,73.393l-1.207-0.597c-0.493-0.244-1.286-0.669-1.762-0.944c0,0-1.387-0.802-1.943-1.438
				c-0.561-0.637-0.839-1.371-0.839-2.198c0-1.244,0.528-2.254,1.583-3.029c1.057-0.774,2.425-1.163,4.11-1.163
				c1.613,0,3.092,0.369,4.438,1.108v1.577c0,0.55-0.391,0.777-0.868,0.504c0,0-2.021-1.156-3.625-1.156
				c-0.904,0-1.645,0.169-2.224,0.513c-0.583,0.339-0.872,0.778-0.872,1.314c0,0.473,0.213,0.916,0.639,1.33
				c0.425,0.413,1.113,0.846,2.059,1.301l1.213,0.585c0.495,0.239,1.262,0.702,1.704,1.029c0,0,2.728,2.018,2.728,3.796
				c0,1.267-0.516,2.295-1.554,3.087c-1.034,0.791-2.379,1.187-4.036,1.187c-1.906,0-3.641-0.479-5.205-1.441v-1.876
				c0-0.55,0.365-0.737,0.812-0.416c0,0,2.407,1.735,4.367,1.735c0.866,0,1.585-0.198,2.158-0.592
				c0.58-0.394,0.864-0.889,0.864-1.482C111.618,75.167,110.771,74.255,109.079,73.393z"/>
		</g>
		<g>
			<path fill="#646363" d="M117.28,65.216c0-0.55,0.45-1,1-1h0.77c0.55,0,1,0.45,1,1v13.809c0,0.55-0.45,1-1,1h-0.77
				c-0.55,0-1-0.45-1-1V65.216z"/>
		</g>
		<path fill="#646363" d="M133.78,63.988c2.982,0,5.465,0.775,7.449,2.321c1.982,1.544,2.975,3.482,2.975,5.814
			c0,2.33-1.001,4.259-3.005,5.787c-1.997,1.525-4.524,2.291-7.568,2.291c-2.909,0-5.333-0.766-7.272-2.291
			c-1.938-1.527-2.903-3.441-2.903-5.741c0-2.361,0.975-4.315,2.925-5.859C128.331,64.763,130.8,63.988,133.78,63.988z
			 M133.892,66.144c-2.211,0-4.025,0.564-5.447,1.696c-1.422,1.129-2.133,2.574-2.133,4.328c0,1.703,0.713,3.12,2.139,4.251
			c1.43,1.129,3.215,1.696,5.359,1.696c2.154,0,3.955-0.577,5.393-1.729c1.441-1.154,2.161-2.59,2.161-4.308
			c0-1.673-0.72-3.079-2.161-4.222C137.765,66.716,135.994,66.144,133.892,66.144z"/>
		<g>
			<path fill="#646363" d="M162.91,65.216c0-0.55,0.45-1,1-1h0.63c0.55,0,1,0.45,1,1v13.809c0,0.55-0.45,1-1,1h-0.381
				c-0.55,0-1.327-0.309-1.728-0.687L151,68.549c-0.4-0.377-0.728-0.236-0.728,0.313v10.162c0,0.55-0.45,1-1,1h-0.59
				c-0.55,0-1-0.45-1-1V65.216c0-0.55,0.45-1,1-1h0.232c0.55,0,1.327,0.309,1.728,0.687l11.54,10.896
				c0.4,0.377,0.728,0.236,0.728-0.313V65.216z"/>
		</g>
	</g>
	<g>
		<g>
			<g>
				<linearGradient id="SVGID_1_" gradientUnits="userSpaceOnUse" x1="27.6006" y1="29.9468" x2="140.7925" y2="29.9468">
					<stop  offset="0" style="stop-color:#22A1DC"/>
					<stop  offset="0.1675" style="stop-color:#2082B4"/>
					<stop  offset="0.5701" style="stop-color:#1F466B"/>
					<stop  offset="0.8575" style="stop-color:#1B2948"/>
					<stop  offset="1" style="stop-color:#18203D"/>
				</linearGradient>
				<path fill="url(#SVGID_1_)" d="M57.553,10.336c1.316-1.763,4.193-3.205,6.394-3.205h74.57c2.201,0,2.934,1.45,1.631,3.222
					l-28.822,39.185c-1.305,1.772-4.17,3.222-6.371,3.222H29.865c-2.2,0-2.923-1.442-1.606-3.205L57.553,10.336z"/>
				<path fill="none" stroke="#FFFFFF" d="M57.553,10.336c1.316-1.763,4.193-3.205,6.394-3.205h74.57
					c2.201,0,2.934,1.45,1.631,3.222l-28.822,39.185c-1.305,1.772-4.17,3.222-6.371,3.222H29.865c-2.2,0-2.923-1.442-1.606-3.205
					L57.553,10.336z"/>
			</g>
		</g>
	</g>
	<g>
		<g>
			<g>
				<linearGradient id="SVGID_2_" gradientUnits="userSpaceOnUse" x1="30.0513" y1="20.4448" x2="142.6201" y2="20.4448">
					<stop  offset="0" style="stop-color:#22A1DC"/>
					<stop  offset="0.2961" style="stop-color:#2075A4"/>
					<stop  offset="0.9684" style="stop-color:#192340"/>
					<stop  offset="1" style="stop-color:#18203D"/>
				</linearGradient>
				<path fill="url(#SVGID_2_)" d="M59.28,6.507c1.568-1.543,4.65-2.806,6.851-2.806h74.423c2.201,0,2.728,1.272,1.172,2.828
					L113.88,34.362c-1.557,1.555-4.629,2.828-6.829,2.828H32.107c-2.2,0-2.717-1.263-1.149-2.806L59.28,6.507z"/>
				<path fill="none" stroke="#FFFFFF" d="M59.28,6.507c1.568-1.543,4.65-2.806,6.851-2.806h74.423c2.201,0,2.728,1.272,1.172,2.828
					L113.88,34.362c-1.557,1.555-4.629,2.828-6.829,2.828H32.107c-2.2,0-2.717-1.263-1.149-2.806L59.28,6.507z"/>
			</g>
		</g>
	</g>
	<g>
		<g>
			<g>
				<linearGradient id="SVGID_3_" gradientUnits="userSpaceOnUse" x1="33.6201" y1="11.1914" x2="144.6543" y2="11.1914">
					<stop  offset="0.0048" style="stop-color:#22A1DC"/>
					<stop  offset="0.2815" style="stop-color:#2071A0"/>
					<stop  offset="0.4258" style="stop-color:#205F8A"/>
					<stop  offset="1" style="stop-color:#18203D"/>
				</linearGradient>
				<path fill="url(#SVGID_3_)" d="M61.789,2.643C63.646,1.464,66.966,0.5,69.167,0.5h73.631c2.199,0,2.486,0.975,0.637,2.167
					l-26.455,17.049c-1.85,1.192-5.162,2.167-7.363,2.167H35.472c-2.2,0-2.48-0.964-0.623-2.143L61.789,2.643z"/>
				<path fill="none" stroke="#FFFFFF" d="M61.789,2.643C63.646,1.464,66.966,0.5,69.167,0.5h73.631
					c2.199,0,2.486,0.975,0.637,2.167l-26.455,17.049c-1.85,1.192-5.162,2.167-7.363,2.167H35.472c-2.2,0-2.48-0.964-0.623-2.143
					L61.789,2.643z"/>
			</g>
		</g>
	</g>
</g>
</svg>
