<?xml version="1.0" encoding="utf-8"?>
<!-- Generator: Adobe Illustrator 16.0.0, SVG Export Plug-In . SVG Version: 6.00 Build 0)  -->
<!DOCTYPE svg PUBLIC "-//W3C//DTD SVG 1.1//EN" "http://www.w3.org/Graphics/SVG/1.1/DTD/svg11.dtd">
<svg version="1.1" id="Layer_1" xmlns="http://www.w3.org/2000/svg" xmlns:xlink="http://www.w3.org/1999/xlink" x="0px" y="0px"
	 width="219.895px" height="122.86px" viewBox="0 0 219.895 122.86" enable-background="new 0 0 219.895 122.86"
	 xml:space="preserve">
<g id="MLlIUp.tif">
	<g>
		<path fill-rule="evenodd" clip-rule="evenodd" fill="#DB1B39" d="M46.066,100.449c-8.134,0.484-15.962-0.455-23.301-4.393
			C7.64,87.94,0.005,70.816,4.144,53.974C8.126,37.773,23.295,25.94,40.128,25.909c4.597-0.008,9.194-0.026,13.791,0.004
			c7.114,0.047,12.473,5.218,12.663,12.173c0.188,6.862-5.054,12.424-12.137,12.675c-4.507,0.16-9.024,0.061-13.536,0.087
			c-7,0.041-12.519,5.191-12.73,11.871c-0.215,6.79,4.811,12.324,11.808,12.693c4.667,0.246,9.354,0.124,14.032,0.177
			c7.169,0.082,12.608,5.512,12.563,12.529c-0.046,7.008-5.529,12.315-12.743,12.329C51.248,100.453,48.657,100.449,46.066,100.449z
			"/>
		<path fill-rule="evenodd" clip-rule="evenodd" fill="#DB1B39" d="M186.622,25.908c5.85,0,11.7-0.028,17.55,0.007
			c7.045,0.042,12.573,5.22,12.692,11.832c0.134,7.402-4.861,12.729-12.244,13.055c-5.405,0.239-5.405,0.239-5.405,5.792
			c0,10.279,0.003,20.559-0.001,30.838c-0.003,7.576-5.248,13.013-12.548,13.019c-7.308,0.006-12.531-5.394-12.537-12.985
			c-0.008-11.282-0.082-22.565,0.062-33.846c0.031-2.413-0.744-2.964-2.945-2.805c-4.717,0.343-8.999-0.708-12.089-4.641
			c-3.117-3.968-3.697-8.391-1.646-12.943c2.102-4.667,5.907-7.195,11.06-7.295C174.585,25.82,180.604,25.909,186.622,25.908z"/>
		<path fill-rule="evenodd" clip-rule="evenodd" fill="#DB1B3A" d="M144.343,57.97c7.08,7.077,14.18,14.133,21.23,21.239
			c3.476,3.502,4.498,7.748,3.107,12.436c-1.37,4.617-4.577,7.522-9.262,8.543c-4.349,0.947-8.266-0.137-11.559-3.213
			c-1.275-1.191-2.536-2.396-3.804-3.594c-7.354-7.377-14.688-14.775-22.072-22.122c-4.43-4.406-8.942-8.73-13.417-13.092
			c-6.399-7.195-8.913-15.432-6.106-24.806c2.681-8.955,8.872-14.49,17.797-17.048c0.733-0.21,1.473-0.302,2.224-0.084
			c-0.668,0.476-1.341,0.944-2.003,1.428c-4.862,3.549-6.009,10.601-1.947,14.756C126.995,41.069,135.724,49.466,144.343,57.97z"/>
		<path fill-rule="evenodd" clip-rule="evenodd" fill="#DB1B3A" d="M71.417,63.326c0-8.19-0.009-16.38,0.003-24.57
			c0.011-7.35,5.355-12.833,12.495-12.847c7.256-0.015,12.573,5.318,12.583,12.707c0.023,16.38,0.021,32.76,0.002,49.14
			c-0.008,7.383-5.31,12.706-12.573,12.695c-7.182-0.011-12.497-5.44-12.508-12.806C71.407,79.539,71.416,71.432,71.417,63.326z"/>
		<path fill-rule="evenodd" clip-rule="evenodd" fill="#05BDC7" d="M108.567,58.167c4.475,4.361,8.986,8.686,13.417,13.092
			c7.385,7.346,14.718,14.745,22.072,22.122c-7.486,6.854-16.167,8.939-25.747,5.704c-9.307-3.144-14.964-9.872-16.577-19.585
			C100.375,71.332,102.787,64.157,108.567,58.167z"/>
		<path fill-rule="evenodd" clip-rule="evenodd" fill="#05BDC7" d="M144.343,57.97c-8.62-8.504-17.349-16.901-25.811-25.558
			c-4.062-4.156-2.916-11.207,1.947-14.756c0.662-0.484,1.335-0.952,2.003-1.428c11.097-2.658,21.756,4.326,26.092,12.4
			C153.731,38.231,152.161,49.444,144.343,57.97z"/>
	</g>
</g>
</svg>
