<?xml version="1.0" encoding="utf-8"?>
<!-- Generator: Adobe Illustrator 16.0.0, SVG Export Plug-In . SVG Version: 6.00 Build 0)  -->
<!DOCTYPE svg PUBLIC "-//W3C//DTD SVG 1.1//EN" "http://www.w3.org/Graphics/SVG/1.1/DTD/svg11.dtd">
<svg version="1.1" id="Layer_1" xmlns="http://www.w3.org/2000/svg" xmlns:xlink="http://www.w3.org/1999/xlink" x="0px" y="0px"
	 width="219.895px" height="122.86px" viewBox="0 0 219.895 122.86" enable-background="new 0 0 219.895 122.86"
	 xml:space="preserve">
<g>
	<path fill-rule="evenodd" clip-rule="evenodd" fill="#017AC2" d="M149.769,9.177c-0.777,3.638-1.561,7.275-2.32,10.917
		c-0.079,0.379-0.218,0.479-0.595,0.478c-21.562-0.009-43.124-0.009-64.686,0c-0.432,0-0.533-0.071-0.432-0.53
		c0.774-3.529,1.517-7.064,2.268-10.599c0.019-0.086,0.019-0.177,0.027-0.266C105.943,9.177,127.855,9.177,149.769,9.177z"/>
	<path fill-rule="evenodd" clip-rule="evenodd" fill="#017AC2" d="M2.799,68.998c0.188-0.428,0.168-0.896,0.25-1.345
		c0.048-0.266,0.134-0.386,0.44-0.384c3.03,0.013,6.061,0.014,9.09,0c0.343-0.001,0.387,0.131,0.326,0.408
		c-0.097,0.439-0.124,0.886-0.12,1.335c0.018,1.744,0.885,2.949,2.556,3.413c1.804,0.5,3.624,0.457,5.397-0.142
		c1.941-0.656,3.102-2.289,3.183-4.347c0.042-1.034-0.493-1.816-1.611-2.295c-1.007-0.432-2.084-0.636-3.133-0.935
		c-2.202-0.625-4.416-1.209-6.614-1.851c-1.296-0.377-2.506-0.955-3.583-1.79c-1.931-1.498-2.76-3.504-2.559-5.895
		c0.492-5.827,3.921-9.377,9.125-11.442c3.081-1.223,6.327-1.461,9.613-1.335c2.05,0.077,4.071,0.307,6.012,1.006
		c2.387,0.86,4.188,2.32,4.85,4.892c0.346,1.343,0.294,2.701,0.078,4.056c-0.203,1.269-0.216,1.266-1.514,1.266
		c-2.726,0-5.451-0.006-8.176,0.007c-0.365,0.002-0.516-0.037-0.388-0.455c0.147-0.48,0.159-0.988,0.141-1.492
		c-0.053-1.421-0.763-2.399-2.146-2.723c-2.075-0.484-4.027-0.208-5.71,1.213c-0.979,0.827-1.416,1.913-1.42,3.178
		c-0.003,0.752,0.355,1.334,0.931,1.794c0.527,0.42,1.139,0.666,1.78,0.851c2.886,0.834,5.813,1.524,8.668,2.468
		c1.207,0.4,2.392,0.859,3.444,1.598c1.725,1.209,2.628,2.882,2.62,4.972c-0.021,5.426-2.473,9.405-7.27,11.935
		c-2.509,1.324-5.215,1.971-8.019,2.219c-3.029,0.268-6.05,0.206-9.027-0.5c-1.799-0.426-3.474-1.118-4.851-2.408
		c-1.264-1.184-1.987-2.647-2.258-4.346c-0.02-0.119,0.017-0.257-0.106-0.344C2.799,70.72,2.799,69.859,2.799,68.998z"/>
	<path fill-rule="evenodd" clip-rule="evenodd" fill="#007AC2" d="M215.077,43.499c-0.396,1.244-0.561,2.539-0.855,3.806
		c-0.178,0.767-0.355,1.536-0.477,2.313c-0.065,0.416-0.249,0.502-0.635,0.501c-3.496-0.014-6.992-0.008-10.487-0.008
		c-1.775,0-3.55,0.003-5.325-0.004c-0.29-0.001-0.478,0.014-0.554,0.391c-0.443,2.192-0.912,4.379-1.401,6.561
		c-0.099,0.44,0.168,0.334,0.376,0.334c1.756,0.004,3.514,0.003,5.27,0.003c3.156,0,6.311,0,9.466,0c0.195,0,0.391,0,0.641,0
		c-0.38,1.753-0.749,3.463-1.119,5.172c-0.08,0.368-0.204,0.73-0.234,1.102c-0.035,0.435-0.25,0.495-0.631,0.494
		c-4.913-0.011-9.824-0.001-14.736-0.018c-0.439-0.002-0.611,0.104-0.698,0.549c-0.418,2.161-0.856,4.317-1.334,6.465
		c-0.109,0.492,0.046,0.518,0.446,0.517c5.324-0.009,10.649-0.007,15.974-0.007c0.666,0,0.666,0,0.526,0.659
		c-0.403,1.89-0.815,3.778-1.2,5.671c-0.077,0.376-0.198,0.526-0.618,0.525c-8.624-0.013-17.247-0.014-25.871,0
		c-0.467,0-0.508-0.135-0.421-0.544c1.645-7.68,3.277-15.362,4.911-23.045c0.773-3.641,1.551-7.28,2.303-10.925
		c0.104-0.499,0.268-0.685,0.818-0.683c8.391,0.021,16.781,0.014,25.171,0.017c0.231,0,0.463,0.03,0.695,0.046
		C215.077,43.427,215.077,43.463,215.077,43.499z"/>
	<path fill-rule="evenodd" clip-rule="evenodd" fill="#017AC2" d="M94.815,60.242c0.957,0.24,1.761,0.413,2.531,0.704
		c2.598,0.986,4.292,2.696,4.408,5.614c0.059,1.5-0.178,2.973-0.794,4.35c-1.707,3.823-4.664,6.118-8.728,7.013
		c-2.02,0.445-4.079,0.583-6.138,0.594c-5.343,0.026-10.687,0.004-16.03,0.016c-0.423,0.001-0.585-0.019-0.473-0.539
		c1.402-6.525,2.777-13.057,4.158-19.587c1.026-4.848,2.059-9.696,3.068-14.548c0.101-0.482,0.259-0.653,0.788-0.65
		c4.572,0.027,9.145-0.015,13.716,0.028c2.307,0.021,4.629-0.041,6.902,0.481c1.798,0.412,3.44,1.142,4.661,2.586
		c1.638,1.938,1.75,4.167,1.111,6.492c-0.841,3.06-2.927,5.012-5.73,6.294C97.205,59.575,96.096,59.924,94.815,60.242z
		 M83.854,72.07c0-0.021,0-0.041,0-0.061c0.985,0,1.972,0.045,2.955-0.009c2.63-0.146,4.325-1.562,4.896-4.031
		c0.529-2.289-0.337-3.637-2.633-4.096c-0.105-0.021-0.213-0.033-0.32-0.044c-2.092-0.217-4.191-0.049-6.286-0.107
		c-0.261-0.007-0.324,0.117-0.371,0.342c-0.525,2.522-1.055,5.043-1.599,7.562c-0.083,0.385,0.055,0.455,0.401,0.449
		C81.881,72.058,82.867,72.07,83.854,72.07z M88.401,49.648c-1.053,0-1.931,0.01-2.808-0.005c-0.31-0.006-0.46,0.049-0.533,0.406
		c-0.476,2.347-0.978,4.688-1.49,7.028c-0.065,0.302-0.043,0.404,0.297,0.398c1.932-0.04,3.865,0.004,5.798-0.069
		c2.631-0.1,4.015-1.835,4.44-3.773c0.502-2.281-0.457-3.646-2.77-3.917C90.3,49.594,89.262,49.686,88.401,49.648z"/>
	<path fill-rule="evenodd" clip-rule="evenodd" fill="#017AC3" d="M129.664,61.114c0.724,0.083,1.417,0.145,2.105,0.243
		c2.85,0.406,4.146,1.873,4.21,4.761c0.042,1.884-0.165,3.756-0.262,5.632c-0.11,2.13-0.234,4.259-0.1,6.39
		c0.021,0.34-0.087,0.391-0.375,0.39c-3.281-0.007-6.562-0.012-9.842,0.005c-0.438,0.002-0.395-0.247-0.394-0.514
		c0.004-1.973,0.208-3.934,0.386-5.895c0.124-1.374,0.247-2.747,0.364-4.121c0.039-0.45-0.018-0.897-0.105-1.336
		c-0.197-0.994-0.817-1.548-1.919-1.757c-0.762-0.144-1.531-0.155-2.301-0.157c-1.093-0.003-2.188,0.016-3.28-0.011
		c-0.346-0.008-0.467,0.128-0.53,0.431c-0.685,3.256-1.376,6.511-2.065,9.767c-0.222,1.05-0.453,2.098-0.661,3.151
		c-0.067,0.341-0.218,0.443-0.571,0.441c-2.94-0.016-5.88-0.02-8.82,0.001c-0.502,0.004-0.54-0.152-0.447-0.588
		c2.078-9.765,4.142-19.532,6.21-29.298c0.351-1.663,0.721-3.322,1.052-4.988c0.074-0.37,0.234-0.444,0.576-0.444
		c5.485,0.009,10.971-0.023,16.457,0.022c1.928,0.017,3.869-0.066,5.78,0.345c3.477,0.747,5.326,3,5.253,6.539
		c-0.044,2.104-0.515,4.115-1.622,5.939c-1.363,2.244-3.475,3.445-5.89,4.216c-0.922,0.294-1.862,0.517-2.821,0.657
		C129.929,60.953,129.802,60.954,129.664,61.114z M122.708,58.364c1.003-0.013,2.217,0.05,3.42-0.136
		c1.72-0.265,2.97-1.166,3.693-2.767c0.366-0.809,0.55-1.673,0.556-2.543c0.007-1.278-0.426-2.139-1.778-2.708
		c-0.602-0.254-1.249-0.289-1.88-0.355c-1.822-0.188-3.652-0.067-5.479-0.103c-0.264-0.005-0.378,0.081-0.423,0.351
		c-0.097,0.578-0.232,1.15-0.353,1.725c-0.427,2.052-0.845,4.105-1.292,6.153c-0.074,0.338,0.01,0.392,0.317,0.387
		C120.492,58.355,121.496,58.364,122.708,58.364z"/>
	<path fill-rule="evenodd" clip-rule="evenodd" fill="#017AC2" d="M146.215,26.194c-0.454,2.155-0.897,4.254-1.339,6.354
		c-0.318,1.506-0.647,3.01-0.944,4.52c-0.078,0.403-0.228,0.528-0.658,0.527c-9.091-0.017-18.181-0.013-27.271-0.013
		c-12.409,0-24.817,0-37.224,0c-0.213,0-0.426,0-0.678,0c0.455-2.164,0.901-4.281,1.347-6.397c0.313-1.488,0.64-2.975,0.93-4.467
		c0.079-0.408,0.235-0.534,0.664-0.533c21.534,0.012,43.069,0.011,64.604,0.011C145.82,26.194,145.996,26.194,146.215,26.194z"/>
	<path fill-rule="evenodd" clip-rule="evenodd" fill="#017AC2" d="M98.773,95.556c-10.74,0-21.479,0-32.22,0
		c-0.654,0-0.652,0-0.519-0.628c0.728-3.431,1.461-6.861,2.174-10.293c0.077-0.37,0.213-0.477,0.594-0.477
		c21.569,0.012,43.138,0.012,64.708-0.002c0.495,0,0.497,0.181,0.417,0.552c-0.741,3.429-1.485,6.855-2.195,10.29
		c-0.092,0.446-0.235,0.57-0.685,0.569c-5.594-0.017-11.189-0.011-16.783-0.011C109.101,95.556,103.937,95.556,98.773,95.556z"/>
	<path fill-rule="evenodd" clip-rule="evenodd" fill="#017AC2" d="M95.222,112.572c-10.74,0-21.48,0-32.219,0
		c-0.635,0-0.635,0-0.504-0.623c0.722-3.432,1.451-6.863,2.16-10.298c0.076-0.369,0.219-0.477,0.599-0.476
		c21.551,0.01,43.102,0.01,64.653,0.002c0.401,0,0.577,0.048,0.475,0.52c-0.752,3.462-1.494,6.927-2.202,10.399
		c-0.089,0.436-0.269,0.481-0.636,0.48C116.772,112.571,105.998,112.572,95.222,112.572z"/>
	<path fill-rule="evenodd" clip-rule="evenodd" fill="#017AC2" d="M137.46,78.452c0.918-1.514,1.818-2.996,2.717-4.479
		c6.12-10.088,12.242-20.175,18.35-30.271c0.228-0.377,0.473-0.49,0.893-0.487c3.567,0.016,7.137,0.018,10.705-0.002
		c0.478-0.002,0.665,0.098,0.756,0.61c1.11,6.184,2.253,12.36,3.382,18.54c0.959,5.247,1.907,10.497,2.876,15.742
		c0.065,0.352,0.007,0.429-0.339,0.427c-3.407-0.009-6.813-0.009-10.22,0c-0.33,0.001-0.453-0.086-0.496-0.436
		c-0.255-2.079-0.552-4.154-0.808-6.233c-0.04-0.326-0.137-0.414-0.454-0.413c-4.447,0.01-8.895,0.012-13.341-0.004
		c-0.353-0.001-0.459,0.188-0.59,0.427c-1.148,2.084-2.301,4.167-3.445,6.255c-0.127,0.23-0.23,0.407-0.55,0.406
		c-3.084-0.013-6.168-0.01-9.253-0.013C137.61,78.52,137.578,78.496,137.46,78.452z M154.806,64.927c0.268,0,0.445,0,0.622,0
		c2.743,0,5.485,0,8.228,0c0.676,0,0.676,0,0.624-0.656c-0.004-0.054-0.007-0.107-0.013-0.161
		c-0.391-4.082-0.775-8.164-1.181-12.245c-0.055-0.555-0.035-1.128-0.243-1.787C160.147,55.058,157.503,59.942,154.806,64.927z"/>
	<path fill-rule="evenodd" clip-rule="evenodd" fill="#007AC2" d="M50.751,78.515c-4.286,0-8.571-0.009-12.856,0.011
		c-0.506,0.002-0.577-0.104-0.471-0.595c1.762-8.205,3.504-16.415,5.248-24.624c0.666-3.133,1.332-6.266,1.98-9.403
		c0.086-0.414,0.218-0.575,0.688-0.574c8.445,0.019,16.89,0.019,25.336,0.002c0.56-0.001,0.592,0.153,0.48,0.645
		c-0.426,1.866-0.821,3.74-1.179,5.62c-0.086,0.45-0.273,0.523-0.672,0.522c-5.183-0.012-10.364,0.003-15.546-0.023
		c-0.563-0.002-0.747,0.156-0.853,0.701c-0.394,2.038-0.829,4.068-1.297,6.09c-0.115,0.495,0.044,0.516,0.443,0.516
		c4.823-0.009,9.646-0.006,14.47-0.006c0.108,0,0.217,0.013,0.323-0.003c0.421-0.064,0.47,0.133,0.39,0.488
		c-0.346,1.536-0.676,3.076-1.013,4.613c-0.081,0.368-0.2,0.729-0.236,1.102c-0.043,0.442-0.213,0.576-0.676,0.573
		c-4.5-0.021-9.001-0.013-13.501-0.013c-0.484,0-0.97,0.018-1.452-0.007c-0.257-0.013-0.346,0.094-0.392,0.318
		c-0.47,2.278-0.938,4.556-1.422,6.832c-0.091,0.429,0.169,0.373,0.424,0.373c2.779-0.001,5.559-0.001,8.338-0.001
		c2.618,0,5.236,0.008,7.854-0.008c0.407-0.002,0.51,0.059,0.409,0.501c-0.442,1.936-0.845,3.881-1.242,5.828
		c-0.081,0.396-0.233,0.537-0.664,0.535C59.357,78.506,55.054,78.515,50.751,78.515z"/>
</g>
</svg>
