<?xml version="1.0" encoding="utf-8"?>
<!-- Generator: Adobe Illustrator 16.0.0, SVG Export Plug-In . SVG Version: 6.00 Build 0)  -->
<!DOCTYPE svg PUBLIC "-//W3C//DTD SVG 1.1//EN" "http://www.w3.org/Graphics/SVG/1.1/DTD/svg11.dtd">
<svg version="1.1" id="Layer_1" xmlns="http://www.w3.org/2000/svg" xmlns:xlink="http://www.w3.org/1999/xlink" x="0px" y="0px"
	 width="219.895px" height="122.86px" viewBox="0 0 219.895 122.86" enable-background="new 0 0 219.895 122.86"
	 xml:space="preserve">
<g id="y3HK87.tif">
	<g>
		<path fill-rule="evenodd" clip-rule="evenodd" d="M30.377,55.902c1.158-0.777,2.115-1.438,3.219-1.859
			c4.295-1.635,7.785,0.524,7.94,5.101c0.142,4.169,0.05,8.348,0.058,12.523c0.004,2.275,0.001,2.275-2.275,2.275
			c-0.741,0-1.486-0.051-2.221,0.015c-0.737,0.066-0.882-0.225-0.876-0.906c0.03-3.939,0.017-7.879,0.014-11.818
			c0-0.706-0.02-1.412-0.27-2.087c-0.373-1.003-1.152-1.467-2.207-1.314c-1.349,0.196-2.305,1.029-3.194,1.968
			c-0.294,0.31-0.182,0.702-0.182,1.061c-0.007,4.041-0.03,8.082,0.016,12.121c0.01,0.824-0.246,1.021-1.014,0.977
			c-1.107-0.062-2.227-0.081-3.331,0.004c-0.886,0.068-1.023-0.267-1.02-1.071c0.031-8.25,0.018-16.499,0.019-24.748
			c0-0.404,0.029-0.811-0.008-1.211c-0.048-0.538,0.084-0.788,0.701-0.767c1.312,0.045,2.627,0.048,3.938,0
			c0.625-0.023,0.707,0.243,0.703,0.77c-0.021,2.559-0.009,5.118-0.009,7.677C30.377,54.978,30.377,55.343,30.377,55.902z"/>
		<path fill-rule="evenodd" clip-rule="evenodd" d="M108.271,55.92c1.471-1.073,2.853-1.936,4.505-2.254
			c3.658-0.708,6.516,1.394,6.615,5.119c0.129,4.846,0.046,9.699,0.075,14.548c0.003,0.491-0.146,0.63-0.626,0.619
			c-1.313-0.029-2.629-0.045-3.94,0.005c-0.623,0.023-0.787-0.146-0.783-0.776c0.031-3.974,0.021-7.949,0.009-11.924
			c-0.001-0.535-0.05-1.077-0.148-1.603c-0.281-1.506-1.227-2.104-2.706-1.747c-1.166,0.282-2.007,1.05-2.815,1.871
			c-0.282,0.287-0.179,0.634-0.179,0.957c-0.007,4.109-0.022,8.219,0.011,12.328c0.005,0.702-0.17,0.93-0.887,0.895
			c-1.21-0.06-2.427-0.06-3.636,0c-0.69,0.034-0.835-0.205-0.833-0.849c0.024-5.39,0.014-10.779,0.014-16.168
			c0-3.267,0.031-6.535-0.021-9.802c-0.013-0.828,0.251-1.02,1.017-0.975c1.074,0.062,2.158,0.071,3.231-0.002
			c0.848-0.057,1.15,0.132,1.125,1.074C108.223,50.062,108.271,52.891,108.271,55.92z"/>
		<path fill-rule="evenodd" clip-rule="evenodd" d="M147.388,51.696c-1.576,7.191-3.152,14.344-4.693,21.504
			c-0.126,0.589-0.333,0.753-0.914,0.756c-2.119,0.01-2.137,0.036-2.616-2.232c-1.776-8.417-3.54-16.837-5.305-25.257
			c-0.013-0.062-0.002-0.13-0.002-0.287c0.772,0,1.543,0.024,2.311-0.009c0.481-0.021,0.544,0.287,0.612,0.625
			c1.443,7.114,2.885,14.23,4.35,21.456c0.503-0.84,0.532-1.72,0.718-2.541c1.411-6.227,2.806-12.457,4.166-18.695
			c0.143-0.655,0.356-0.864,1.032-0.854c1.938,0.03,1.943-0.004,2.336,1.841c1.428,6.706,2.852,13.411,4.293,20.188
			c0.522-0.681,0.487-1.479,0.646-2.198c1.389-6.264,2.76-12.532,4.086-18.81c0.175-0.827,0.488-1.06,1.313-1.024
			c1.715,0.073,1.729,0.024,1.343,1.72c-1.902,8.353-3.826,16.701-5.697,25.062c-0.186,0.825-0.498,1.054-1.321,1.025
			c-1.896-0.067-1.874-0.024-2.266-1.941c-1.348-6.584-2.714-13.166-4.077-19.747C147.666,52.084,147.67,51.868,147.388,51.696z"/>
		<path fill-rule="evenodd" clip-rule="evenodd" d="M74.747,71.962c-1.778,1.308-3.466,2.324-5.545,2.382
			c-3.217,0.089-5.469-1.841-5.551-5.074c-0.125-4.912-0.041-9.828-0.064-14.743c-0.003-0.509,0.194-0.616,0.653-0.607
			c1.279,0.025,2.561,0.05,3.836-0.007c0.685-0.032,0.828,0.201,0.824,0.845c-0.029,3.972-0.014,7.944-0.014,11.917
			c0,0.573,0.014,1.14,0.168,1.701c0.389,1.419,1.321,1.989,2.733,1.614c1.149-0.305,1.998-1.068,2.795-1.903
			c0.278-0.292,0.158-0.638,0.159-0.957c0.01-4.107,0.023-8.214-0.009-12.321c-0.005-0.689,0.145-0.935,0.875-0.898
			c1.242,0.064,2.491,0.039,3.735,0.008c0.503-0.012,0.708,0.099,0.707,0.658c-0.018,6.261-0.018,12.523,0,18.784
			c0.001,0.53-0.213,0.597-0.655,0.588c-1.211-0.022-2.427-0.068-3.634,0.014c-0.849,0.057-1.163-0.198-1.019-1.036
			C74.784,72.673,74.747,72.405,74.747,71.962z"/>
		<path fill-rule="evenodd" clip-rule="evenodd" d="M10.228,62.451c0-3.57-0.015-7.142,0.015-10.711
			c0.005-0.643-0.14-0.876-0.829-0.859c-1.919,0.047-3.84-0.001-5.759,0.028c-0.517,0.008-0.703-0.115-0.683-0.663
			c0.042-1.144,0.046-2.291-0.001-3.435c-0.023-0.576,0.215-0.642,0.703-0.641c6.198,0.014,12.396,0.016,18.593-0.002
			c0.544-0.002,0.772,0.097,0.745,0.703c-0.051,1.109-0.05,2.224,0,3.333c0.026,0.603-0.196,0.715-0.744,0.705
			c-1.819-0.032-3.639,0.028-5.456-0.031c-0.792-0.026-1.012,0.194-1.009,0.997c0.033,7.006,0.005,14.013,0.039,21.019
			c0.004,0.812-0.146,1.126-1.027,1.069c-1.275-0.083-2.561-0.062-3.838-0.005c-0.656,0.03-0.767-0.2-0.762-0.796
			C10.242,69.592,10.228,66.021,10.228,62.451z"/>
		<path fill-rule="evenodd" clip-rule="evenodd" d="M133.168,69.761c0,1.222-0.011,2.39,0.006,3.557
			c0.005,0.381-0.171,0.503-0.514,0.603c-1.444,0.418-2.915,0.597-4.392,0.327c-2.901-0.529-4.537-2.698-4.563-6.001
			c-0.022-2.964-0.033-5.928,0.015-8.891c0.013-0.789-0.186-1.034-0.992-0.999c-1.484,0.065-1.486,0.015-1.486-1.428
			c0-0.775,0.028-1.551-0.01-2.324c-0.026-0.516,0.123-0.683,0.667-0.692c1.802-0.032,1.801-0.059,1.801-1.832
			c0-0.809,0.023-1.618-0.008-2.424c-0.02-0.492,0.081-0.739,0.649-0.725c1.346,0.033,2.694,0.036,4.041-0.002
			c0.578-0.016,0.661,0.246,0.65,0.728c-0.023,1.145,0.026,2.292-0.021,3.435c-0.026,0.634,0.119,0.902,0.816,0.854
			c0.905-0.064,1.819,0.01,2.727-0.026c0.495-0.02,0.636,0.151,0.623,0.63c-0.03,1.077-0.036,2.156,0.002,3.232
			c0.018,0.508-0.168,0.62-0.635,0.605c-0.976-0.032-1.954,0.006-2.93-0.017c-0.432-0.009-0.596,0.139-0.594,0.577
			c0.016,3.2-0.028,6.399,0.04,9.597c0.033,1.535,1.036,2.202,2.544,1.829C132.113,70.247,132.591,69.991,133.168,69.761z"/>
		<path fill-rule="evenodd" clip-rule="evenodd" d="M192.567,63.274c2.266-2.823,4.392-5.413,6.438-8.062
			c0.552-0.715,1.114-1.06,2.008-0.958c0.586,0.066,1.187,0.013,1.963,0.013c-1.705,2.122-3.279,4.116-4.898,6.072
			c-0.401,0.485-0.436,0.855-0.16,1.418c1.759,3.583,3.478,7.184,5.209,10.78c0.201,0.417,0.399,0.838,0.668,1.406
			c-0.972,0-1.827-0.015-2.681,0.005c-0.573,0.012-0.599-0.481-0.753-0.807c-1.468-3.092-2.911-6.195-4.362-9.294
			c-0.069-0.147-0.155-0.286-0.28-0.513c-1.01,1.246-1.973,2.451-2.959,3.636c-0.252,0.304-0.188,0.631-0.189,0.957
			c-0.009,1.751-0.034,3.502,0.012,5.252c0.017,0.641-0.191,0.778-0.796,0.78c-2.051,0.007-2.05,0.032-2.05-2.018
			c0-8.249,0.014-16.497-0.022-24.746c-0.004-0.844,0.201-1.067,1.041-1.036c1.81,0.067,1.811,0.018,1.811,1.876
			C192.567,53.015,192.567,57.997,192.567,63.274z"/>
		<path fill-rule="evenodd" clip-rule="evenodd" d="M211.25,53.657c2.6,0.046,4.627,0.981,6.195,2.909
			c0.338,0.415,0.321,0.656-0.118,0.947c-0.475,0.315-0.882,0.892-1.38,0.971c-0.573,0.092-0.777-0.704-1.18-1.074
			c-1.392-1.274-2.991-1.605-4.771-1.145c-1.217,0.314-2.003,1.093-2.16,2.372c-0.147,1.197,0.425,2.068,1.393,2.711
			c0.991,0.658,2.128,0.978,3.226,1.392c0.909,0.343,1.844,0.637,2.711,1.066c3.645,1.805,4.084,6.862,0.836,9.36
			c-3.361,2.585-9.397,1.323-11.432-2.383c-0.17-0.31-0.205-0.533,0.165-0.696c0.122-0.053,0.23-0.139,0.343-0.212
			c1.356-0.871,1.356-0.871,2.383,0.347c1.502,1.782,4.218,2.421,6.233,1.467c1.137-0.537,1.745-1.439,1.831-2.687
			c0.082-1.196-0.473-2.069-1.45-2.692c-0.912-0.583-1.943-0.904-2.95-1.276c-0.912-0.337-1.844-0.637-2.719-1.053
			c-2.5-1.188-3.618-3.229-3.188-5.691c0.443-2.532,2.403-4.313,5.058-4.585C210.645,53.67,211.017,53.668,211.25,53.657z"/>
		<path fill-rule="evenodd" clip-rule="evenodd" d="M180.91,58.367c0.542-0.868,0.933-1.553,1.381-2.197
			c1.128-1.623,2.703-2.338,4.672-2.253c0.415,0.018,0.649,0.094,0.585,0.556c-0.01,0.066-0.001,0.134-0.002,0.202
			c-0.002,0.538,0.16,1.154-0.049,1.594c-0.248,0.522-0.949,0.135-1.435,0.282c-0.682,0.207-1.354,0.446-1.863,0.951
			c-1.905,1.893-3.301,4.036-3.292,6.857c0.01,2.926-0.021,5.853,0.02,8.779c0.009,0.678-0.2,0.825-0.841,0.819
			c-2.007-0.018-2.007,0.009-2.007-1.974c0-5.583,0.018-11.167-0.02-16.75c-0.006-0.805,0.216-1.009,1-0.988
			c1.85,0.051,1.852,0.011,1.852,1.913C180.91,56.816,180.91,57.475,180.91,58.367z"/>
		<path fill-rule="evenodd" clip-rule="evenodd" d="M100.943,73.492c-0.329-1.975-1.728-2.935-3.534-3.438
			c-1.739-0.485-3.521-0.496-5.307-0.454c-1.275-0.064-2.554-0.092-3.824-0.21c-0.47-0.044-1.071-0.157-1.042-0.858
			c0.029-0.687,0.501-0.999,1.122-1.086c0.329-0.047,0.673-0.035,1.005-0.001c1.28,0.133,2.545,0.093,3.801-0.209
			c4.367-1.051,6.603-5.179,4.93-9.114c-0.445-1.047-0.176-1.443,0.986-1.386c0.363,0.019,0.745,0.096,1.074,0.244
			c0.467,0.209,0.587,0.09,0.575-0.387c-0.021-0.841-0.038-1.685,0.005-2.524c0.029-0.585-0.221-0.748-0.76-0.784
			c-1.466-0.1-2.821,0.131-3.933,1.177c-0.324,0.305-0.594,0.387-1.039,0.15c-1.966-1.047-4.062-1.358-6.251-0.925
			c-2.615,0.519-4.754,1.729-5.732,4.358c-0.969,2.605-0.509,5.043,1.292,7.15c0.581,0.68,0.542,0.938-0.168,1.479
			c-2.061,1.571-2.25,3.657-0.561,5.505c0.403,0.44,0.101,0.51-0.168,0.714c-1.49,1.134-1.901,2.231-1.402,3.834
			c0.586,1.882,2.111,2.702,3.83,3.233c2.451,0.758,4.981,0.772,7.502,0.566c2.052-0.167,4.075-0.565,5.754-1.899
			C100.766,77.304,101.281,75.52,100.943,73.492z M88.23,58.451c0.468-1.031,1.355-1.485,2.435-1.473
			c1.077,0.012,1.942,0.487,2.422,1.509c0.292,0.62,0.367,1.285,0.357,1.962c-0.017,1.965-0.72,3.114-2.122,3.469
			c-1.441,0.365-2.821-0.337-3.296-1.745C87.604,60.92,87.683,59.658,88.23,58.451z M95.751,76.464
			c-1.457,0.572-2.998,0.66-4.543,0.683c-1.147,0.021-2.278-0.08-3.382-0.405c-0.484-0.143-0.942-0.345-1.296-0.731
			c-0.363-0.395-0.392-0.87-0.207-1.315c0.191-0.459,0.578-0.714,1.123-0.677c2.675,0.177,5.352,0.333,8.025,0.522
			c0.488,0.034,1.058,0.081,1.16,0.74C96.734,75.95,96.25,76.269,95.751,76.464z"/>
		<path fill-rule="evenodd" clip-rule="evenodd" d="M61.266,63.333c-0.045-1.992-0.55-3.857-1.507-5.595
			c-2.923-5.311-10.528-5.741-14.03-0.798c-2.758,3.892-2.695,10.32,0.14,14.165c3.29,4.462,10.145,4.394,13.347-0.137
			C60.837,68.674,61.343,66.08,61.266,63.333z M55.106,68.373c-0.476,1.151-1.207,2.045-2.587,2.058
			c-1.38,0.013-2.195-0.837-2.606-2.014c-1.054-3.019-1.058-6.072,0.049-9.079c0.408-1.108,1.242-1.873,2.501-1.882
			c1.256-0.011,2.035,0.735,2.536,1.83c0.675,1.475,0.813,3.037,0.776,4.695C55.825,65.442,55.695,66.948,55.106,68.373z"/>
		<path fill-rule="evenodd" clip-rule="evenodd" d="M174.767,57.82c-1.2-2.799-3.539-4.125-6.577-4.156
			c-3.072-0.032-5.374,1.264-6.754,4.055c-0.993,2.006-1.267,4.158-1.21,6.438c-0.071,2.038,0.189,4.098,1.075,6.03
			c1.283,2.803,3.485,4.267,6.583,4.325c3.206,0.061,5.669-1.255,6.918-4.243C176.521,66.153,176.526,61.924,174.767,57.82z
			 M172.298,69.126c-0.732,2.005-2.294,3.014-4.236,2.99c-2.107-0.026-3.44-1.152-4.209-3.039c-0.646-1.583-0.851-3.241-0.795-4.894
			c-0.05-1.811,0.123-3.542,0.836-5.18c0.792-1.817,2.085-2.916,4.169-2.924c2.083-0.008,3.469,1.036,4.186,2.89
			C173.545,62.331,173.529,65.758,172.298,69.126z"/>
	</g>
</g>
</svg>
