<?xml version="1.0" encoding="iso-8859-1"?>
<!-- Generator: Adobe Illustrator 19.0.0, SVG Export Plug-In . SVG Version: 6.00 Build 0)  -->
<svg version="1.1" id="Layer_1" xmlns="http://www.w3.org/2000/svg" xmlns:xlink="http://www.w3.org/1999/xlink" x="0px" y="0px"
	 viewBox="0 0 398.828 398.828" style="enable-background:new 0 0 398.828 398.828;" xml:space="preserve">
<g>
	<path style="fill:#3CA523;" d="M240.806,308.642c-13.162,3.688-27.048,5.664-41.393,5.664s-28.231-1.976-41.393-5.664
		c-64.454-18.05-111.74-77.228-111.74-147.469C46.28,76.605,114.845,8.04,199.413,8.04c84.586,0,153.133,68.565,153.133,153.133
		C352.546,231.414,305.278,290.592,240.806,308.642z"/>
	<path style="fill:#44CC27;" d="M252.974,300.09c-11.729,3.474-24.103,5.335-36.886,5.335s-25.156-1.862-36.886-5.335
		c-57.435-17.003-99.572-72.75-99.572-138.918c0-79.664,61.099-144.253,136.458-144.253c75.375,0,136.458,64.589,136.458,144.253
		C352.546,227.341,310.425,283.087,252.974,300.09z"/>
	<path style="fill:#F24125;" d="M162.872,217.828c12.951,12.968,16.374,31.865,10.269,47.957
		c-16.091,6.105-34.988,2.682-47.957-10.269c-12.968-12.968-16.374-31.865-10.269-47.957
		C131.007,201.454,149.904,204.859,162.872,217.828z"/>
	<path style="fill:#F24125;" d="M283.928,207.559c6.105,16.091,2.682,34.988-10.286,47.957
		c-12.968,12.951-31.848,16.374-47.957,10.269c-6.105-16.091-2.682-34.988,10.287-47.957
		C248.94,204.859,267.837,201.454,283.928,207.559z"/>
	<path style="fill:#3CA523;" d="M297.717,393.828h-196.62c7.16-10.46,13.88-18.98,19.23-25.6c4.4-6.06,37.27-42.32,41.94-59.72
		c11.81,3.31,24.27,5.08,37.15,5.08c12.87,0,25.33-1.77,37.14-5.08c4.67,17.4,37.61,53.72,42.03,59.83
		C283.917,374.938,290.597,383.428,297.717,393.828z"/>
	<path style="fill:#44CC27;" d="M265.767,393.828h-132.69c0.71-1.6,1.46-3.01,2.24-4.21c3.56-6.06,30.21-42.32,34-59.72
		c9.56,3.31,19.66,5.08,30.1,5.08c10.43,0,20.53-1.77,30.1-5.08c3.78,17.4,30.48,53.72,34.06,59.83
		C264.347,390.898,265.077,392.268,265.767,393.828z"/>
	<path style="fill:#333333;" d="M346.906,124.861c-2.187,0-4.195-1.446-4.813-3.656c-1.516-5.423-3.364-10.816-5.494-16.029
		c-1.044-2.556,0.181-5.475,2.737-6.52c2.558-1.044,5.475,0.181,6.52,2.737c2.275,5.568,4.25,11.328,5.868,17.12
		c0.743,2.659-0.81,5.418-3.47,6.161C347.805,124.801,347.352,124.861,346.906,124.861z"/>
	<path style="fill:#333333;" d="M199.413,319.306c-14.508,0-28.888-1.968-42.742-5.849c-32.563-9.119-61.917-28.981-82.654-55.928
		C52.6,229.698,41.28,196.379,41.28,161.173C41.28,73.978,112.218,3.04,199.413,3.04c52.618,0,101.637,26.063,131.127,69.718
		c1.546,2.288,0.944,5.396-1.344,6.942c-2.289,1.545-5.397,0.943-6.942-1.344c-27.628-40.899-73.55-65.316-122.841-65.316
		c-81.681,0-148.133,66.452-148.133,148.133c0,32.98,10.603,64.191,30.662,90.257c19.43,25.248,46.927,43.856,77.426,52.397
		c12.976,3.635,26.448,5.479,40.044,5.479c13.597,0,27.069-1.843,40.044-5.478c30.506-8.541,58.005-27.149,77.434-52.398
		c20.055-26.064,30.656-57.274,30.656-90.257c0-6.832-0.469-13.7-1.394-20.413c-0.377-2.736,1.535-5.259,4.271-5.636
		c2.734-0.377,5.259,1.535,5.636,4.271c0.987,7.165,1.488,14.492,1.488,21.778c0,35.208-11.318,68.528-32.73,96.355
		c-20.735,26.948-50.092,46.811-82.662,55.929C228.302,317.338,213.921,319.306,199.413,319.306z"/>
	<path style="fill:#FFFFFF;" d="M284.486,67.053c-1.153,0-2.312-0.397-3.256-1.208c-3.829-3.289-7.892-6.375-12.076-9.173
		c-2.295-1.535-2.912-4.64-1.377-6.936c1.536-2.295,4.641-2.911,6.936-1.377c4.517,3.02,8.902,6.351,13.034,9.901
		c2.094,1.799,2.334,4.956,0.534,7.051C287.292,66.462,285.893,67.053,284.486,67.053z"/>
	<path style="fill:#FFFFFF;" d="M330.032,166.172c-2.761,0-5-2.239-5-5c0-28.477-9.289-55.327-26.862-77.646
		c-1.708-2.17-1.334-5.313,0.835-7.021c2.17-1.708,5.313-1.334,7.022,0.835c18.975,24.101,29.005,53.089,29.005,83.833
		C335.032,163.934,332.794,166.172,330.032,166.172z"/>
	<path style="fill:#333333;" d="M157.152,273.713c-13.079,0-25.932-5.104-35.5-14.66c-13.926-13.926-18.404-34.834-11.411-53.268
		c0.507-1.338,1.563-2.394,2.901-2.901c18.432-6.994,39.341-2.516,53.266,11.408c0,0.001,0.001,0.002,0.002,0.002
		c13.917,13.937,18.394,34.844,11.405,53.263c-0.507,1.338-1.563,2.394-2.901,2.901
		C169.141,272.649,163.122,273.713,157.152,273.713z M118.843,211.486c-4.488,14.213-0.73,29.887,9.877,40.494
		c10.616,10.603,26.29,14.361,40.494,9.877c4.485-14.203,0.726-29.877-9.879-40.496
		C148.727,210.755,133.054,206.999,118.843,211.486z"/>
	<path style="fill:#FFFFFF;" d="M159.469,245.045c-2.084,0-4.029-1.313-4.735-3.396c-1.231-3.631-3.308-6.979-6.007-9.681
		c-4.736-4.737-11.043-7.347-17.755-7.347c-2.761,0-5-2.239-5-5s2.239-5,5-5c9.383,0,18.201,3.65,24.829,10.278
		c3.778,3.784,6.684,8.465,8.404,13.54c0.886,2.615-0.515,5.454-3.13,6.34C160.543,244.959,160.002,245.045,159.469,245.045z"/>
	<path style="fill:#333333;" d="M241.672,273.71c-5.97,0-11.985-1.063-17.759-3.251c-1.338-0.507-2.395-1.563-2.903-2.902
		c-6.991-18.426-2.506-39.334,11.425-53.266l0,0c13.925-13.924,34.832-18.402,53.266-11.408c1.338,0.507,2.394,1.563,2.901,2.901
		c6.99,18.426,2.505,39.334-11.426,53.266C267.611,268.605,254.754,273.71,241.672,273.71z M229.612,261.856
		c14.207,4.48,29.882,0.722,40.497-9.878c10.612-10.612,14.377-26.285,9.893-40.492c-14.212-4.487-29.887-0.73-40.494,9.877
		C228.893,231.978,225.129,247.651,229.612,261.856z"/>
	<path style="fill:#FFFFFF;" d="M246.578,233.434c-1.28,0-2.559-0.488-3.536-1.465c-1.953-1.953-1.953-5.118,0-7.071
		c6.628-6.627,15.445-10.277,24.828-10.277c1.46,0,2.933,0.091,4.376,0.27c2.74,0.339,4.687,2.836,4.347,5.577
		c-0.339,2.741-2.833,4.685-5.577,4.347c-1.037-0.128-2.095-0.193-3.146-0.193c-6.712,0-13.019,2.61-17.758,7.349
		C249.137,232.946,247.857,233.434,246.578,233.434z"/>
	<path style="fill:#333333;" d="M293.59,396.65c-6.936-10.145-13.442-18.412-18.893-25.16c-0.057-0.07-0.111-0.142-0.164-0.216
		c-0.825-1.143-3.024-3.777-5.809-7.112c-11.106-13.302-31.779-38.061-36.586-52.969l9.518-3.069
		c4.211,13.06,24.833,37.759,34.745,49.63c2.943,3.525,5.092,6.098,6.156,7.551c5.558,6.884,12.188,15.316,19.288,25.702
		L293.59,396.65z"/>
	<path style="fill:#333333;" d="M105.244,396.65l-8.255-5.644c7.1-10.385,13.73-18.816,19.287-25.7
		c1.068-1.462,3.232-4.054,6.196-7.604c9.899-11.859,30.498-36.537,34.695-49.576l9.519,3.064
		c-4.793,14.891-25.443,39.629-36.537,52.92c-2.804,3.359-5.018,6.012-5.844,7.159c-0.054,0.075-0.11,0.148-0.167,0.22
		C118.687,378.238,112.181,386.505,105.244,396.65z"/>
	<path style="fill:#333333;" d="M297.717,398.828h-196.6c-2.761,0-5-2.239-5-5s2.239-5,5-5h196.6c2.761,0,5,2.239,5,5
		S300.478,398.828,297.717,398.828z"/>
	<g>
		<path style="fill:#333333;" d="M110.906,41.295c-1.753,0-3.455-0.924-4.37-2.563L89.066,7.438
			c-1.346-2.411-0.483-5.457,1.928-6.803c2.412-1.346,5.457-0.482,6.803,1.928l17.47,31.293c1.346,2.411,0.483,5.457-1.928,6.803
			C112.568,41.09,111.731,41.295,110.906,41.295z"/>
		<path style="fill:#333333;" d="M287.92,41.295c-0.825,0-1.662-0.205-2.433-0.635c-2.411-1.346-3.274-4.392-1.928-6.803
			l17.47-31.293c1.346-2.411,4.393-3.274,6.803-1.928c2.411,1.346,3.274,4.392,1.928,6.803l-17.47,31.293
			C291.374,40.371,289.673,41.295,287.92,41.295z"/>
	</g>
	<path style="fill:#333333;" d="M207.587,89.828c-2.761,0-5-2.239-5-5c0-4.962-4.038-9-9-9s-9,4.038-9,9c0,2.761-2.239,5-5,5
		s-5-2.239-5-5c0-10.477,8.523-19,19-19s19,8.523,19,19C212.587,87.589,210.348,89.828,207.587,89.828z"/>
	<path style="fill:#333333;" d="M270.455,130.894c-2.761,0-5-2.239-5-5c0-2.721-2.213-4.934-4.934-4.934s-4.934,2.213-4.934,4.934
		c0,2.761-2.239,5-5,5s-5-2.239-5-5c0-8.235,6.699-14.934,14.934-14.934c8.235,0,14.934,6.699,14.934,14.934
		C275.455,128.655,273.217,130.894,270.455,130.894z"/>
	<path style="fill:#333333;" d="M323.455,198.828c-2.761,0-5-2.239-5-5c0-2.721-2.213-4.934-4.934-4.934s-4.934,2.213-4.934,4.934
		c0,2.761-2.239,5-5,5s-5-2.239-5-5c0-8.235,6.699-14.934,14.934-14.934s14.934,6.699,14.934,14.934
		C328.455,196.589,326.217,198.828,323.455,198.828z"/>
	<path style="fill:#333333;" d="M242.521,384.762c-2.761,0-5-2.239-5-5c0-2.721-2.213-4.934-4.934-4.934s-4.934,2.213-4.934,4.934
		c0,2.761-2.239,5-5,5s-5-2.239-5-5c0-8.235,6.699-14.934,14.934-14.934s14.934,6.699,14.934,14.934
		C247.521,382.523,245.282,384.762,242.521,384.762z"/>
	<path style="fill:#333333;" d="M139.521,138.701c-2.761,0-5-2.239-5-5c0-4.638-3.773-8.411-8.411-8.411s-8.412,3.773-8.412,8.411
		c0,2.761-2.239,5-5,5s-5-2.239-5-5c0-10.152,8.259-18.411,18.412-18.411c10.152,0,18.411,8.259,18.411,18.411
		C144.521,136.462,142.282,138.701,139.521,138.701z"/>
</g>
<g>
</g>
<g>
</g>
<g>
</g>
<g>
</g>
<g>
</g>
<g>
</g>
<g>
</g>
<g>
</g>
<g>
</g>
<g>
</g>
<g>
</g>
<g>
</g>
<g>
</g>
<g>
</g>
<g>
</g>
</svg>
