<?xml version="1.0" encoding="iso-8859-1"?>
<!-- Generator: Adobe Illustrator 19.0.0, SVG Export Plug-In . SVG Version: 6.00 Build 0)  -->
<svg version="1.1" id="Layer_1" xmlns="http://www.w3.org/2000/svg" xmlns:xlink="http://www.w3.org/1999/xlink" x="0px" y="0px"
	 viewBox="0 0 468.082 468.082" style="enable-background:new 0 0 468.082 468.082;" xml:space="preserve">
<g>
	<g>
		<path style="fill:#3CA523;" d="M259.594,192.437c-8.125,2.276-16.697,3.496-25.552,3.496s-17.427-1.22-25.552-3.496
			c-39.787-11.142-68.976-47.672-68.976-91.032c0-52.203,42.325-94.528,94.528-94.528c52.214,0,94.528,42.325,94.528,94.528
			C328.57,144.764,299.392,181.295,259.594,192.437z"/>
		<path style="fill:#44CC27;" d="M254.029,187.158c-6.356,2.144-13.06,3.293-19.987,3.293c-6.926,0-13.631-1.149-19.987-3.293
			c-31.122-10.496-53.954-44.908-53.954-85.753c0-49.176,33.107-89.046,73.941-89.046c40.843,0,73.941,39.87,73.941,89.046
			C307.983,142.25,285.16,176.662,254.029,187.158z"/>
		<path style="fill:#F24125;" d="M211.486,136.378c7.994,8.005,10.107,19.67,6.339,29.603c-9.933,3.768-21.598,1.656-29.603-6.339
			c-8.005-8.005-10.107-19.67-6.339-29.603C191.816,126.27,203.48,128.372,211.486,136.378z"/>
		<path style="fill:#F24125;" d="M286.213,130.039c3.768,9.933,1.656,21.598-6.35,29.603c-8.005,7.994-19.659,10.107-29.603,6.339
			c-3.768-9.933-1.656-21.598,6.35-29.603C264.615,128.372,276.28,126.27,286.213,130.039z"/>
		<path style="fill:#3CA523;" d="M325.043,370.259c-0.147,1.29-7.891,2.434-8.81,3.245c-0.909,0.821-2.111,1.31-3.411,1.31
			c-3.069,0-5.454-2.688-5.083-5.737c1.593-13.469,3.607-47.267-13.42-64.499v66.718h-0.02c0,0,0.86,41.022-11.983,74.361
			c-1.652,4.271-0.01,9.119,3.861,11.563l9.334,5.864h-21.835c-6.001,0-10.595-5.337-9.715-11.269l1.173-7.839
			c1.32-10.038,2.776-22.91,3.538-35.812c0.039-0.713,0.059-1.417,0.059-2.121c0-18.795-15.003-34.346-33.955-34.737
			c-0.244-0.01-0.489-0.01-0.733-0.01s-0.489,0-0.733,0.01c-19.665,0.41-35.089,17.124-33.906,36.858
			c0.762,12.902,2.219,25.774,3.538,35.812l1.173,7.839c0.068,0.489,0.108,0.977,0.108,1.456c0,5.327-4.32,9.813-9.823,9.813
			h-21.835l9.334-5.864c3.88-2.444,5.513-7.291,3.861-11.563c-12.843-33.339-11.983-74.361-11.983-74.361v-66.718
			c-17.036,17.232-15.023,51.03-13.42,64.499c0.029,0.205,0.039,0.41,0.039,0.616c0,2.786-5.469,1.598-8.342,1.598
			c-2.61,0-8.717,1.562-9.011-1.028c-8.758-75.182,26.423-121.524,42.179-141.042c2.717-3.743,23.008-26.126,25.891-36.868
			c7.291,2.043,14.984,3.137,22.93,3.137s15.638-1.095,22.93-3.137c2.883,10.742,23.213,33.163,25.94,36.936
			C298.688,248.836,333.791,295.155,325.043,370.259z"/>
		<path style="fill:#44CC27;" d="M283.861,463.083h-10.185c-6.001,0-10.595-5.337-9.715-11.269l1.173-7.839
			c1.32-10.038,2.776-22.91,3.538-35.812c0.039-0.713,0.059-1.417,0.059-2.121c0-18.795-15.003-34.346-33.955-34.737
			c-0.244-0.01-0.489-0.01-0.733-0.01s-0.489,0-0.733,0.01c-19.665,0.41-35.089,17.124-33.906,36.858
			c0.762,12.902,2.219,25.774,3.538,35.812l1.173,7.839c0.068,0.489,0.108,0.977,0.108,1.456c0,5.327-4.32,9.813-9.823,9.813
			h-10.175l7.555-5.864c3.147-2.444,4.477-7.291,3.137-11.563c-10.409-33.339-9.715-74.361-9.715-74.361
			s-3.489-109.352,9.276-128.871c2.199-3.743,18.649-26.126,20.985-36.868c5.904,2.043,12.139,3.137,18.58,3.137
			s12.677-1.095,18.58-3.137c2.336,10.742,18.815,33.163,21.024,36.936c12.784,19.548,9.246,128.802,9.246,128.802h-0.02
			c0,0,0.704,41.022-9.706,74.361c-1.339,4.271-0.01,9.119,3.128,11.563L283.861,463.083z"/>
		<path style="fill:#333333;" d="M234.042,200.933c-9.131,0-18.182-1.239-26.9-3.682c-42.762-11.975-72.628-51.389-72.628-95.846
			c0-54.88,44.648-99.528,99.528-99.528s99.527,44.648,99.527,99.528c0,44.461-29.865,83.875-72.628,95.847h0.001
			c-0.001,0-0.001,0-0.001,0C252.223,199.694,243.172,200.933,234.042,200.933z M234.042,11.877
			c-49.366,0-89.528,40.162-89.528,89.528c0,39.992,26.862,75.446,65.325,86.217c15.684,4.395,32.723,4.394,48.406,0
			c0,0,0,0,0.001,0c38.461-10.768,65.323-46.222,65.323-86.217C323.57,52.039,283.408,11.877,234.042,11.877z"/>
		<path style="fill:#FFFFFF;" d="M254.976,28.518c-0.429,0-0.863-0.055-1.298-0.172c-6.368-1.707-12.975-2.573-19.636-2.573
			c-2.762,0-5-2.239-5-5s2.238-5,5-5c7.535,0,15.013,0.98,22.226,2.913c2.667,0.715,4.25,3.457,3.534,6.124
			C259.204,27.045,257.184,28.518,254.976,28.518z"/>
		<path style="fill:#FFFFFF;" d="M314.672,106.405c-2.762,0-5-2.239-5-5c0-25.309-12.577-48.829-33.644-62.917
			c-2.296-1.535-2.912-4.64-1.377-6.936c1.535-2.295,4.641-2.912,6.936-1.377c23.848,15.948,38.085,42.576,38.085,71.229
			C319.672,104.166,317.434,106.405,314.672,106.405z"/>
		<path style="fill:#333333;" d="M207.957,172.789c-8.572,0-16.997-3.346-23.269-9.608c-9.129-9.129-12.064-22.833-7.48-34.915
			c0.508-1.338,1.563-2.394,2.901-2.901c12.082-4.584,25.787-1.648,34.913,7.479c0,0,0.001,0.001,0.002,0.002
			c9.121,9.134,12.056,22.837,7.476,34.91c-0.508,1.338-1.563,2.394-2.901,2.901C215.814,172.091,211.87,172.789,207.957,172.789z
			 M185.849,134.006c-2.099,7.833,0.105,16.298,5.908,22.101c5.807,5.799,14.273,8.003,22.101,5.908
			c2.097-7.829-0.108-16.294-5.91-22.103C202.146,134.11,193.682,131.907,185.849,134.006z"/>
		<path style="fill:#333333;" d="M260.126,172.787c-3.912,0-7.854-0.697-11.639-2.131c-1.338-0.507-2.395-1.563-2.902-2.902
			c-4.582-12.078-1.643-25.782,7.489-34.912h-0.001c0.001,0,0.001,0,0.001,0c9.126-9.127,22.829-12.062,34.911-7.478
			c1.338,0.508,2.394,1.564,2.901,2.901c4.582,12.078,1.643,25.782-7.489,34.913C277.127,169.44,268.701,172.787,260.126,172.787z
			 M254.227,162.013c7.833,2.093,16.295-0.11,22.103-5.909c5.805-5.804,8.012-14.269,5.916-22.099
			c-7.833-2.099-16.298,0.105-22.1,5.908c-0.001,0-0.001,0-0.001,0C254.338,145.72,252.13,154.183,254.227,162.013z M256.61,136.378
			h0.01H256.61z"/>
		<path style="fill:#333333;" d="M295.513,468.082h-21.841c-4.311,0-8.398-1.873-11.215-5.139c-2.82-3.27-4.074-7.594-3.441-11.865
			l1.171-7.844c1.692-12.873,2.872-24.801,3.494-35.366c0.034-0.603,0.052-1.219,0.052-1.826c0-16.404-13.319-29.75-29.69-29.75
			s-29.689,13.346-29.689,29.75c0,0.607,0.017,1.223,0.052,1.838c0.621,10.553,1.801,22.481,3.505,35.44l1.158,7.754
			c0.634,4.275-0.62,8.6-3.44,11.869c-2.816,3.266-6.904,5.139-11.215,5.139h-21.84c-2.229,0-4.188-1.476-4.805-3.617
			c-0.617-2.142,0.259-4.434,2.147-5.618l9.34-5.86c1.85-1.171,2.636-3.503,1.853-5.537c-12.465-32.337-12.395-70.882-12.332-75.795
			c-0.009-0.12-0.013-0.24-0.013-0.362v-49.117c-5.961,16.167-4.605,36.57-3.455,46.31c0.258,2.063-0.644,4.111-2.414,5.443
			c-4.55,3.424-18.639,2.436-21.471,1.223c-1.875-0.804-3.126-2.415-3.348-4.311c-9.265-79.535,30.069-128.422,43.13-144.595
			c0.697-0.947,1.965-2.465,3.844-4.716c6.041-7.236,18.611-22.292,21.095-30.001l9.518,3.066
			c-2.841,8.821-13.328,21.836-22.936,33.343c-1.626,1.948-3.03,3.629-3.499,4.279c-0.053,0.073-0.107,0.145-0.165,0.215
			c-47.066,58.285-43.792,112.209-41.448,133.77c2.222,0.146,5.245,0.125,7.39-0.084c-1.505-16.063-1.901-47.736,15.203-65.05
			c1.425-1.443,3.581-1.881,5.456-1.111c1.876,0.77,3.101,2.597,3.101,4.625v66.275c0.016,0.178,0.022,0.358,0.019,0.539
			c-0.008,0.401-0.676,40.462,11.656,72.458c1.878,4.871,0.946,10.269-2.14,14.229h6.114c1.42,0,2.714-0.593,3.643-1.67
			c0.933-1.082,1.331-2.455,1.121-3.866l-1.169-7.836c-1.747-13.282-2.95-25.45-3.586-36.254c-0.046-0.807-0.068-1.615-0.068-2.414
			c0-21.918,17.805-39.75,39.689-39.75c21.886,0,39.69,17.832,39.69,39.75c0,0.788-0.023,1.595-0.068,2.401
			c-0.637,10.816-1.84,22.984-3.575,36.18l-1.182,7.926c-0.209,1.408,0.189,2.781,1.122,3.862c0.929,1.077,2.223,1.67,3.643,1.67
			h6.118c-3.091-3.964-4.021-9.36-2.143-14.229c12.353-32.05,11.665-72.056,11.656-72.456c-0.004-0.184,0.003-0.366,0.019-0.547
			v-66.268c0-2.028,1.225-3.855,3.101-4.625c1.875-0.77,4.03-0.331,5.457,1.112c17.111,17.324,16.705,49.022,15.202,65.05
			c2.138,0.209,5.147,0.231,7.368,0.086c7.271-73.474-29.288-118.739-41.428-133.771c-0.057-0.071-0.112-0.143-0.165-0.216
			c-0.469-0.65-1.873-2.332-3.498-4.279c-9.607-11.507-20.095-24.523-22.936-33.344l9.518-3.066
			c2.483,7.709,15.054,22.766,21.094,30.001c1.879,2.25,3.146,3.769,3.844,4.715c9.516,11.791,21.609,28.208,30.92,50.787
			c11.971,29.032,16.079,60.593,12.21,93.808c-0.22,1.893-1.47,3.505-3.344,4.309c-2.831,1.215-16.918,2.205-21.472-1.219
			c-1.772-1.332-2.674-3.379-2.413-5.477c1.147-9.716,2.503-30.113-3.458-46.277v49.116c0,0.123-0.005,0.244-0.013,0.364
			c0.063,4.917,0.131,43.459-12.332,75.794c-0.783,2.033,0.003,4.365,1.869,5.547l9.323,5.85c1.888,1.185,2.765,3.476,2.147,5.618
			C299.702,466.606,297.742,468.082,295.513,468.082z M155.374,369.632c0.003,0.02,0.005,0.04,0.007,0.06
			C155.378,369.672,155.376,369.651,155.374,369.632z M312.714,369.603c-0.002,0.019-0.004,0.036-0.006,0.055
			C312.71,369.64,312.712,369.622,312.714,369.603z"/>
		<g>
			<path style="fill:#333333;" d="M179.41,29.319c-1.754,0-3.455-0.924-4.371-2.564L164.254,7.438
				c-1.346-2.411-0.482-5.457,1.929-6.803c2.413-1.347,5.457-0.482,6.804,1.928l10.784,19.317c1.346,2.411,0.482,5.457-1.929,6.803
				C181.071,29.114,180.234,29.319,179.41,29.319z"/>
			<path style="fill:#333333;" d="M288.674,29.319c-0.824,0-1.661-0.205-2.433-0.635c-2.411-1.346-3.274-4.392-1.929-6.803
				l10.784-19.317c1.346-2.41,4.391-3.275,6.804-1.928c2.411,1.346,3.274,4.392,1.929,6.803l-10.784,19.317
				C292.129,28.395,290.428,29.319,288.674,29.319z"/>
		</g>
	</g>
	<path style="fill:#FFFFFF;" d="M277.045,144.881c-1.32,0-2.61-0.53-3.54-1.46s-1.46-2.22-1.46-3.54c0-1.31,0.53-2.6,1.46-3.53
		c0.229-0.24,0.49-0.44,0.76-0.63c0.271-0.18,0.561-0.33,0.87-0.46c0.3-0.12,0.61-0.22,0.93-0.28c1.63-0.33,3.351,0.21,4.511,1.37
		c0.93,0.93,1.47,2.22,1.47,3.53c0,0.33-0.04,0.66-0.101,0.98c-0.069,0.32-0.159,0.63-0.29,0.93c-0.119,0.31-0.279,0.6-0.46,0.87
		c-0.18,0.27-0.39,0.53-0.619,0.76C279.645,144.351,278.355,144.881,277.045,144.881z"/>
	<path style="fill:#FFFFFF;" d="M203.545,149.881c-0.33,0-0.66-0.03-0.98-0.1c-0.319-0.06-0.63-0.16-0.939-0.28
		c-0.3-0.13-0.59-0.28-0.86-0.46c-0.27-0.18-0.53-0.39-0.76-0.62c-0.93-0.94-1.46-2.22-1.46-3.54c0-0.33,0.03-0.65,0.09-0.98
		c0.07-0.32,0.16-0.63,0.29-0.93c0.13-0.3,0.28-0.59,0.46-0.87c0.18-0.27,0.39-0.53,0.62-0.76c0.229-0.23,0.49-0.44,0.76-0.62
		c0.271-0.18,0.561-0.33,0.86-0.46c0.31-0.12,0.62-0.22,0.939-0.28c0.641-0.13,1.311-0.13,1.95,0c0.32,0.06,0.64,0.16,0.94,0.28
		c0.3,0.13,0.59,0.28,0.859,0.46c0.28,0.18,0.53,0.39,0.761,0.62c0.229,0.23,0.439,0.49,0.619,0.76c0.181,0.28,0.341,0.57,0.46,0.87
		c0.131,0.3,0.221,0.61,0.29,0.93c0.061,0.33,0.101,0.65,0.101,0.98c0,1.32-0.54,2.61-1.47,3.54c-0.23,0.23-0.48,0.44-0.761,0.62
		c-0.27,0.18-0.56,0.33-0.859,0.46c-0.301,0.12-0.62,0.22-0.94,0.28C204.195,149.851,203.865,149.881,203.545,149.881z"/>
</g>
<g>
</g>
<g>
</g>
<g>
</g>
<g>
</g>
<g>
</g>
<g>
</g>
<g>
</g>
<g>
</g>
<g>
</g>
<g>
</g>
<g>
</g>
<g>
</g>
<g>
</g>
<g>
</g>
<g>
</g>
</svg>
