<?xml version="1.0" encoding="iso-8859-1"?>
<!-- Generator: Adobe Illustrator 19.0.0, SVG Export Plug-In . SVG Version: 6.00 Build 0)  -->
<svg version="1.1" id="Layer_1" xmlns="http://www.w3.org/2000/svg" xmlns:xlink="http://www.w3.org/1999/xlink" x="0px" y="0px"
	 viewBox="0 0 407.427 407.427" style="enable-background:new 0 0 407.427 407.427;" xml:space="preserve">
<g>
	<path style="fill:#CAF5FF;" d="M282.554,298.229c12.987-8.532,24.501-19.094,34.093-31.273
		c19.292-24.465,30.788-55.342,30.788-88.896c0-79.358-64.341-143.699-143.699-143.699c-79.376,0-143.699,64.341-143.699,143.699
		c0,33.464,11.442,64.252,30.608,88.68c9.628,12.25,21.196,22.902,34.254,31.47"/>
	<path style="fill:#333333;" d="M124.893,303.212c-0.94,0-1.893-0.265-2.738-0.82c-13.499-8.857-25.424-19.813-35.443-32.562
		c-20.724-26.415-31.676-58.147-31.676-91.77c0-81.993,66.706-148.699,148.699-148.699c45.462,0,87.829,20.396,116.239,55.959
		c1.724,2.157,1.372,5.304-0.785,7.027c-2.159,1.723-5.305,1.373-7.027-0.786c-26.502-33.174-66.022-52.2-108.427-52.2
		c-76.479,0-138.699,62.22-138.699,138.699c0,31.362,10.215,60.96,29.541,85.594c9.347,11.893,20.473,22.114,33.064,30.376
		c2.309,1.515,2.952,4.615,1.437,6.924C128.118,302.418,126.522,303.212,124.893,303.212z"/>
	<path style="fill:#333333;" d="M282.559,303.23c-1.628,0-3.224-0.793-4.184-2.255c-1.517-2.308-0.875-5.408,1.434-6.924
		c12.561-8.253,23.634-18.41,32.91-30.188c19.44-24.654,29.715-54.323,29.715-85.802c0-23.674-6.068-47.042-17.548-67.576
		c-1.348-2.411-0.486-5.457,1.925-6.804c2.41-1.349,5.456-0.485,6.804,1.924c12.312,22.022,18.819,47.078,18.819,72.456
		c0,33.748-11.018,65.558-31.861,91.992c-9.941,12.624-21.81,23.511-35.273,32.356C284.453,302.964,283.5,303.23,282.559,303.23z"/>
	<path style="fill:#F78181;" d="M195.723,315.532c-48.795,0-88.493-39.698-88.493-88.492v-30.637
		c0-48.795,39.698-88.492,88.493-88.492h16.011c48.795,0,88.493,39.698,88.493,88.492v30.637c0,48.795-39.698,88.492-88.493,88.492
		H195.723z"/>
	<path style="fill:#CE3030;" d="M381.513,337.049c-14.142-22.375-24.104-34.509-24.104-34.509
		c-3.095-4.181-6.493-8.163-10.148-11.888l-33.936-24.302c-6.283-2.978-12.858-5.442-19.724-7.311h-0.012
		c-2.172,47.74-41.562,85.787-89.863,85.787c-48.289,0-87.679-38.047-89.851-85.787c-6.843,1.869-13.453,4.333-19.783,7.334
		l-33.925,24.302c-3.644,3.714-7.007,7.661-10.148,11.865c0,0-9.973,12.145-24.092,34.509C19.597,347.069,12.45,359.121,5,373.065
		h397.428C394.977,359.109,387.819,347.058,381.513,337.049z"/>
	<path style="fill:#F73E3E;" d="M363.972,337.049c-0.07-0.117-0.117-0.222-0.187-0.327c-9.261-14.656-20.32-28.074-32.874-40.032
		l-31.846-30.34c-1.904-1.051-3.83-2.02-5.792-2.896c-26.684,55.915-121.884,99.03-179.095,0c-1.962,0.899-3.901,1.869-5.804,2.908
		L76.528,296.69c-12.554,11.958-23.636,25.376-32.897,40.032c-0.047,0.105-0.117,0.21-0.199,0.327
		c-6.329,10.008-13.476,22.072-20.915,36.015h362.394C377.46,359.121,370.313,347.058,363.972,337.049z"/>
	<path style="fill:#666666;" d="M211.734,320.532h-16.012c-51.553,0-93.493-41.94-93.493-93.492v-30.638
		c0-51.552,41.94-93.492,93.493-93.492h16.012c51.553,0,93.493,41.94,93.493,93.492v30.638
		C305.228,278.591,263.287,320.532,211.734,320.532z M195.723,112.91c-46.038,0-83.493,37.455-83.493,83.492v30.638
		c0,46.038,37.455,83.492,83.493,83.492h16.012c46.038,0,83.493-37.455,83.493-83.492v-30.638c0-46.038-37.455-83.492-83.493-83.492
		L195.723,112.91L195.723,112.91z"/>
	<path style="fill:#F9911E;" d="M211.3,293.977h-15.142c-34.308,0-62.132-21.591-62.132-48.215v-22.483
		c0-26.623,27.824-48.215,62.132-48.215H211.3c34.308,0,62.132,21.591,62.132,48.215v22.483
		C273.432,272.386,245.608,293.977,211.3,293.977z"/>
	<path style="fill:#666666;" d="M211.3,298.977h-15.143c-37.017,0-67.132-23.872-67.132-53.215v-22.483
		c0-29.343,30.115-53.215,67.132-53.215H211.3c37.017,0,67.132,23.872,67.132,53.215v22.483
		C278.432,275.105,248.316,298.977,211.3,298.977z M196.157,180.065c-31.503,0-57.132,19.386-57.132,43.215v22.483
		c0,23.829,25.629,43.215,57.132,43.215H211.3c31.503,0,57.132-19.386,57.132-43.215v-22.484c0-23.829-25.629-43.215-57.132-43.215
		L196.157,180.065L196.157,180.065z"/>
	<path style="fill:#333333;" d="M402.428,378.065H5c-1.757,0-3.384-0.921-4.288-2.428c-0.903-1.506-0.95-3.376-0.123-4.926
		c6.68-12.522,13.783-24.747,21.112-36.334c12.032-19.065,39.505-55.646,66.132-71.788c2.166-1.313,4.973-0.798,6.532,1.199
		c26.504,33.941,66.368,53.408,109.372,53.408c42.913,0,82.715-19.388,109.201-53.192c1.571-2.006,4.397-2.507,6.564-1.17
		c27.36,16.91,55.292,54.196,66.238,71.549c7.434,11.797,14.531,24.019,21.098,36.329c0.827,1.55,0.78,3.419-0.123,4.926
		C405.812,377.143,404.185,378.065,402.428,378.065z M13.403,368.065h380.62c-5.307-9.604-10.92-19.11-16.741-28.35
		c-11.603-18.393-36.403-50.139-59.361-65.97c-28.355,34.027-69.712,53.45-114.184,53.45c-44.582,0-86.013-19.51-114.39-53.697
		c-23.893,16.2-48.188,48.784-59.192,66.22C24.397,348.823,18.78,358.328,13.403,368.065z"/>
	<path style="fill:#333333;" d="M113.761,356.852c-1.391,0-2.774-0.577-3.763-1.706l-52.664-60.125
		c-1.82-2.077-1.611-5.236,0.466-7.056c2.078-1.82,5.237-1.61,7.056,0.467l52.664,60.125c1.82,2.077,1.611,5.236-0.466,7.056
		C116.105,356.444,114.93,356.852,113.761,356.852z"/>
	<path style="fill:#333333;" d="M275.076,378.065c-1.169,0-2.343-0.408-3.292-1.238c-2.077-1.819-2.287-4.978-0.468-7.056
		l37.405-42.718c1.818-2.078,4.978-2.286,7.056-0.468c2.077,1.819,2.287,4.978,0.468,7.056l-37.405,42.718
		C277.852,377.487,276.467,378.065,275.076,378.065z"/>
	<path style="fill:#333333;" d="M330.466,314.817c-1.169,0-2.344-0.408-3.292-1.239c-2.077-1.819-2.287-4.978-0.468-7.055
		l15.654-17.875c1.819-2.078,4.979-2.287,7.056-0.467c2.077,1.819,2.287,4.978,0.468,7.055l-15.654,17.875
		C333.241,314.24,331.857,314.817,330.466,314.817z"/>
	<g>
		<path style="fill:#F9911E;" d="M119.747,177.565c0,0-12.322-43.136-5.426-83.834c0,0,29.975,7.07,59.801,33.175L119.747,177.565z"
			/>
		<path style="fill:#F9911E;" d="M287.711,177.565c0,0,12.322-43.136,5.426-83.834c0,0-29.975,7.07-59.801,33.175L287.711,177.565z"
			/>
	</g>
	<g>
		<path style="fill:#666666;" d="M119.746,182.565c-0.447,0-0.897-0.06-1.34-0.183c-1.677-0.466-2.99-1.771-3.468-3.444
			c-0.516-1.806-12.553-44.702-5.548-86.042c0.23-1.362,1.015-2.568,2.166-3.331c1.151-0.764,2.571-1.017,3.911-0.7
			c1.273,0.3,31.535,7.661,61.946,34.279c1.064,0.932,1.685,2.271,1.706,3.685c0.022,1.415-0.556,2.772-1.591,3.736l-54.375,50.659
			C122.217,182.097,120.994,182.565,119.746,182.565z M118.425,100.178c-3.41,27.131,1.283,54.654,4.168,67.902l43.997-40.991
			C146.779,110.949,127.436,103.192,118.425,100.178z"/>
		<path style="fill:#666666;" d="M287.711,182.565c-1.248,0-2.471-0.468-3.408-1.342l-54.375-50.659
			c-1.035-0.964-1.613-2.321-1.591-3.736c0.021-1.414,0.642-2.753,1.706-3.685c30.411-26.618,60.673-33.979,61.946-34.279
			c1.343-0.317,2.76-0.063,3.911,0.7s1.936,1.969,2.166,3.331c7.006,41.34-5.032,84.237-5.548,86.043
			c-0.478,1.673-1.791,2.978-3.468,3.444C288.608,182.505,288.158,182.565,287.711,182.565z M240.867,127.089l43.994,40.987
			c2.882-13.26,7.573-40.806,4.171-67.899C280.024,103.191,260.678,110.949,240.867,127.089z"/>
	</g>
	<path style="fill:#666666;" d="M208.699,252.967h-9.941c-5.378,0-9.952-3.922-10.773-9.236l-2.59-16.764h36.667l-2.59,16.764
		C218.651,249.046,214.077,252.967,208.699,252.967z"/>
	<path style="fill:#666666;" d="M208.699,259.67h-9.94c-7.899,0-14.509-5.666-15.715-13.472l-2.59-16.765
		c-0.223-1.442,0.195-2.91,1.146-4.018s2.337-1.746,3.796-1.746h36.667c1.459,0,2.846,0.638,3.796,1.746s1.368,2.576,1.146,4.018
		l-2.591,16.764C223.207,254.004,216.598,259.67,208.699,259.67z M191.228,233.67l1.699,11.001c0.447,2.896,2.9,4.999,5.832,4.999
		h9.94c2.931,0,5.384-2.103,5.831-5l1.7-11H191.228z"/>
	<path style="fill:#666666;" d="M185.119,296.224l-6.986-7.154l9.154-8.939c7.271-7.1,11.441-17,11.441-27.164h10
		c0,12.84-5.269,25.349-14.455,34.318L185.119,296.224z"/>
	<path style="fill:#666666;" d="M222.338,296.224l-9.154-8.939c-9.187-8.971-14.455-21.479-14.455-34.318h10
		c0,10.162,4.17,20.063,11.441,27.164l9.154,8.939L222.338,296.224z"/>
	<g>
		<path style="fill:#666666;" d="M222.059,231.968c-0.751,0-1.515-0.17-2.232-0.529c-2.47-1.235-3.471-4.238-2.235-6.708
			l8.333-16.667c0.847-1.694,2.578-2.764,4.472-2.764h21.333c2.762,0,5,2.239,5,5s-2.238,5-5,5h-18.243l-6.951,13.902
			C225.658,230.956,223.893,231.968,222.059,231.968z"/>
		<path style="fill:#666666;" d="M185.4,231.968c-1.834,0-3.6-1.013-4.476-2.765l-6.951-13.902h-18.244c-2.762,0-5-2.239-5-5
			s2.238-5,5-5h21.334c1.894,0,3.625,1.07,4.472,2.764l8.333,16.667c1.235,2.47,0.234,5.473-2.235,6.708
			C186.914,231.798,186.15,231.968,185.4,231.968z"/>
	</g>
	<g>
		<path style="fill:#666666;" d="M165.396,220.656c-2.762,0-5-2.239-5-5v-5.355c0-2.761,2.238-5,5-5s5,2.239,5,5v5.355
			C170.396,218.418,168.157,220.656,165.396,220.656z"/>
		<path style="fill:#666666;" d="M242.063,220.656c-2.762,0-5-2.239-5-5v-5.355c0-2.761,2.238-5,5-5s5,2.239,5,5v5.355
			C247.063,218.418,244.824,220.656,242.063,220.656z"/>
	</g>
	<path style="fill:#FFFFFF;" d="M211.917,242.992c-0.33,0-0.65-0.03-0.98-0.1c-0.32-0.06-0.63-0.16-0.93-0.29
		c-0.3-0.12-0.59-0.27-0.86-0.45c-0.28-0.19-0.53-0.4-0.76-0.63c-0.23-0.23-0.44-0.48-0.63-0.76c-0.181-0.27-0.33-0.56-0.46-0.86
		c-0.12-0.3-0.221-0.62-0.28-0.94c-0.07-0.32-0.1-0.65-0.1-0.97c0-1.32,0.529-2.61,1.47-3.54c0.229-0.23,0.479-0.44,0.76-0.62
		c0.271-0.18,0.561-0.33,0.86-0.46c0.3-0.12,0.609-0.22,0.93-0.28c0.65-0.13,1.311-0.13,1.96,0c0.32,0.06,0.63,0.16,0.93,0.28
		c0.311,0.13,0.601,0.28,0.87,0.46c0.271,0.18,0.53,0.39,0.761,0.62c0.93,0.93,1.46,2.22,1.46,3.54c0,0.32-0.03,0.65-0.101,0.97
		c-0.06,0.32-0.16,0.64-0.28,0.94c-0.13,0.3-0.279,0.59-0.46,0.86c-0.18,0.28-0.39,0.53-0.619,0.76c-0.23,0.23-0.49,0.44-0.761,0.63
		c-0.27,0.18-0.56,0.33-0.87,0.45c-0.3,0.13-0.609,0.23-0.93,0.29C212.576,242.962,212.247,242.992,211.917,242.992z"/>
	<path style="fill:#666666;" d="M261.404,149.286l-9.863-1.649c5.497-32.873,37.256-56.905,38.605-57.913l5.98,8.015l-2.99-4.007
		l2.994,4.004C295.832,97.96,266.231,120.421,261.404,149.286z"/>
	<path style="fill:#FFFFFF;" d="M171.787,63.626c-2.202,0-4.22-1.467-4.823-3.694c-0.722-2.666,0.854-5.411,3.52-6.133
		c10.785-2.921,21.973-4.402,33.251-4.402c6.881,0,13.788,0.556,20.529,1.653c2.726,0.443,4.576,3.013,4.133,5.738
		c-0.443,2.725-3.017,4.576-5.738,4.132c-6.212-1.011-12.579-1.523-18.924-1.523c-10.396,0-20.703,1.364-30.638,4.055
		C172.659,63.569,172.22,63.626,171.787,63.626z"/>
	<path style="fill:#FFFFFF;" d="M325.613,181.274c-2.762,0-5-2.239-5-5c0-24.042-7.243-47.135-20.946-66.781
		c-13.398-19.208-31.973-33.814-53.717-42.241c-2.575-0.998-3.854-3.894-2.855-6.469c0.998-2.574,3.894-3.853,6.469-2.855
		c23.604,9.147,43.766,25,58.305,45.845c14.88,21.332,22.745,46.403,22.745,72.501C330.613,179.035,328.375,181.274,325.613,181.274
		z"/>
	<path style="fill:#666666;" d="M146.054,149.286c-4.841-28.954-34.426-51.325-34.724-51.547l5.98-8.015
		c1.35,1.007,33.109,25.04,38.606,57.913L146.054,149.286z"/>
</g>
<g>
</g>
<g>
</g>
<g>
</g>
<g>
</g>
<g>
</g>
<g>
</g>
<g>
</g>
<g>
</g>
<g>
</g>
<g>
</g>
<g>
</g>
<g>
</g>
<g>
</g>
<g>
</g>
<g>
</g>
</svg>
