<?xml version="1.0" encoding="iso-8859-1"?>
<!-- Generator: Adobe Illustrator 19.0.0, SVG Export Plug-In . SVG Version: 6.00 Build 0)  -->
<svg version="1.1" id="Layer_1" xmlns="http://www.w3.org/2000/svg" xmlns:xlink="http://www.w3.org/1999/xlink" x="0px" y="0px"
	 viewBox="0 0 420.99 420.99" style="enable-background:new 0 0 420.99 420.99;" xml:space="preserve">
<g>
	<circle style="fill:#F24125;" cx="26.89" cy="115.989" r="19.499"/>
	<path style="fill:#333333;" d="M26.89,140.488c-13.509,0-24.499-10.99-24.499-24.499S13.381,91.49,26.89,91.49
		s24.499,10.99,24.499,24.499S40.398,140.488,26.89,140.488z M26.89,101.49c-7.995,0-14.499,6.504-14.499,14.499
		s6.504,14.499,14.499,14.499s14.499-6.504,14.499-14.499S34.884,101.49,26.89,101.49z"/>
	<path style="fill:#20505B;" d="M183.94,225.165l-0.57,27.07l-22.46-18.16C167.44,229.055,175.38,225.875,183.94,225.165z"/>
	<path style="fill:#20505B;" d="M392.72,127.125c12.86,0,23.27,10.42,23.27,23.27s-10.41,23.27-23.27,23.27V127.125z"/>
	<path style="fill:#CCCCCC;" d="M363.76,126.555c4.71-11.36,15.9-19.34,28.96-19.34v19.91v46.54v21.33
		c-13.41,0-24.85-8.42-29.33-20.26c-1.3-3.45-2.01-7.18-2.01-11.09v-25.08C361.38,134.315,362.23,130.255,363.76,126.555z"/>
	<path style="fill:#20505B;" d="M363.76,126.555c-1.53,3.7-2.38,7.76-2.38,12.01v25.08c0,3.91,0.71,7.64,2.01,11.09
		c-5.66,7.75-13.96,13.46-23.58,15.8v-80.29C349.65,112.635,358.09,118.545,363.76,126.555z"/>
	<path style="fill:#CCCCCC;" d="M339.81,190.535v26.25c-17.31,0-31.34-14.03-31.34-31.34v-68.68c0-17.31,14.03-31.34,31.34-31.34
		v24.82V190.535z"/>
	<path style="fill:#CCCCCC;" d="M278.11,217.345c-0.65-2.5-0.99-5.13-0.99-7.83v-44.16v-29.92v-42.74
		c0-17.31,14.03-31.35,31.35-31.35v55.42v68.68v55.42C293.86,240.865,281.58,230.865,278.11,217.345z"/>
	<path style="fill:#44CC27;" d="M278.11,217.345l-42.45,3.53l-51.72,4.29c-8.56,0.71-16.5,3.89-23.03,8.91
		c-6.87,5.27-12.17,12.57-14.97,21.16l-3.58,10.97l-23.11,70.85c-2.39,7.36-7.03,13.52-12.98,17.84
		c-5.97,4.32-13.25,6.81-20.98,6.81c-24.28,0-41.48-23.7-33.95-46.79l14.03-43.07c6.08-18.6,3.82-38.82-5.99-55.24
		c-2.09-3.5-4.52-6.83-7.29-9.93c-0.01-0.01-0.01-0.02-0.02-0.02c-0.31-0.36-0.64-0.72-0.99-1.07c-0.02-0.03-0.04-0.05-0.05-0.06
		c0-0.01,0-0.01-0.01-0.02c-6.74-7.19-12.2-15.6-15.95-24.91c-1.96-4.86-3.47-9.95-4.45-15.24h246.5v44.16
		C277.12,212.215,277.46,214.845,278.11,217.345z"/>
	<path style="fill:#F24125;" d="M97.6,231.755l-38.22-15.15c-2.09-3.5-4.52-6.83-7.29-9.93c-0.01-0.01-0.01-0.02-0.02-0.02
		c-0.31-0.36-0.64-0.72-0.99-1.07c-0.02-0.03-0.04-0.05-0.05-0.06c0-0.01,0-0.01-0.01-0.02c-6.74-7.19-12.2-15.6-15.95-24.91
		c-1.96-4.86-3.47-9.95-4.45-15.24h70.05c0,0-1,20.93,23,28.93C123.67,194.285,95.54,208.225,97.6,231.755z"/>
	<path style="opacity:0.25;enable-background:new    ;" d="M98.2,359.285c-4.03,1.57-8.39,2.42-12.91,2.42
		c-24.28,0-41.48-23.7-33.95-46.79l14.03-43.07c7.37-22.57,2.48-47.51-13.28-65.17c-0.01-0.01-0.01-0.02-0.02-0.02
		c-0.31-0.36-0.64-0.72-0.99-1.07c-0.02-0.03-0.04-0.05-0.05-0.06c0-0.01,0-0.01-0.01-0.02c-6.74-7.19-12.2-15.6-15.95-24.91
		c-1.96-4.86-3.47-9.95-4.45-15.24h25.91c0.98,5.29,2.49,10.38,4.45,15.24c3.75,9.31,9.21,17.72,15.95,24.91
		c0.01,0.01,0.01,0.01,0.01,0.02c0.01,0.01,0.03,0.03,0.05,0.06c0.35,0.35,0.68,0.71,0.99,1.07c0.01,0,0.01,0.01,0.02,0.02
		c15.76,17.66,20.65,42.6,13.27,65.17l-14.02,43.07C71.16,333.605,81.26,352.685,98.2,359.285z"/>
	<path style="fill:#20505B;" d="M277.12,135.435v29.92H30.62H19.96c-8.26,0-14.96-6.7-14.96-14.96c0-4.13,1.67-7.87,4.38-10.58
		s6.45-4.38,10.58-4.38L277.12,135.435L277.12,135.435z"/>
	<path style="fill:#44CC27;" d="M277.12,92.695v42.74H19.96C132.67,15.285,277.12,92.695,277.12,92.695z"/>
	<path style="fill:#333333;" d="M277.12,140.435c-2.761,0-5-2.239-5-5v-42.74c0-20.043,16.307-36.35,36.35-36.35
		c2.761,0,5,2.239,5,5v55.42c0,2.761-2.239,5-5,5s-5-2.239-5-5V66.821c-12.147,2.342-21.35,13.053-21.35,25.874v42.74
		C282.12,138.196,279.881,140.435,277.12,140.435z"/>
	<path style="fill:#333333;" d="M308.47,245.865c-16.604,0-31.081-11.217-35.203-27.277c-0.76-2.923-1.147-5.981-1.147-9.073v-44.16
		c0-2.761,2.239-5,5-5s5,2.239,5,5v44.16c0,2.244,0.279,4.455,0.83,6.572c2.567,10.002,10.664,17.408,20.521,19.303v-49.945
		c0-2.761,2.239-5,5-5s5,2.239,5,5v55.42C313.47,243.626,311.231,245.865,308.47,245.865z"/>
	<path style="fill:#333333;" d="M339.81,221.785c-20.038,0-36.34-16.302-36.34-36.34v-68.68c0-20.038,16.302-36.34,36.34-36.34
		c2.761,0,5,2.239,5,5v131.36C344.81,219.546,342.571,221.785,339.81,221.785z M334.81,90.901
		c-12.142,2.342-21.34,13.049-21.34,25.864v68.68c0,12.815,9.199,23.521,21.34,25.864V90.901z"/>
	<path style="fill:#333333;" d="M392.72,199.995c-15.024,0-28.69-9.44-34.006-23.49c-1.549-4.112-2.333-8.437-2.333-12.86v-25.08
		c0-4.809,0.928-9.492,2.759-13.92c5.65-13.627,18.831-22.43,33.581-22.43c2.761,0,5,2.239,5,5v87.78
		C397.72,197.756,395.481,199.995,392.72,199.995z M387.72,112.688c-8.595,1.646-15.898,7.479-19.341,15.782
		c-1.326,3.206-1.999,6.604-1.999,10.095v25.08c0,3.215,0.568,6.353,1.689,9.328c3.251,8.593,10.819,14.809,19.651,16.538V112.688z"
		/>
	<path style="fill:#333333;" d="M188.002,170.355H19.96c-11.006,0-19.96-8.954-19.96-19.96c0-5.333,2.076-10.346,5.844-14.115
		s8.782-5.845,14.116-5.845h132.043c2.761,0,5,2.239,5,5s-2.239,5-5,5H19.96c-2.663,0-5.165,1.036-7.044,2.916
		c-1.88,1.88-2.916,4.382-2.916,7.044c0,5.492,4.468,9.96,9.96,9.96h168.042c2.761,0,5,2.239,5,5S190.764,170.355,188.002,170.355z"
		/>
	<path style="fill:#333333;" d="M277.12,170.355h-71.782c-2.761,0-5-2.239-5-5s2.239-5,5-5h66.782v-19.92h-98.116
		c-2.761,0-5-2.239-5-5s2.239-5,5-5H277.12c2.761,0,5,2.239,5,5v29.92C282.12,168.116,279.881,170.355,277.12,170.355z"/>
	<path style="fill:#333333;" d="M363.77,131.565c-1.374,0-2.619-0.554-3.522-1.452c-0.207-0.204-0.398-0.428-0.569-0.67
		c-5.087-7.186-12.562-12.278-21.049-14.34c-2.684-0.652-4.331-3.355-3.679-6.039c0.652-2.683,3.357-4.328,6.039-3.679
		c10.79,2.621,20.293,9.072,26.773,18.171c0.632,0.838,1.007,1.881,1.007,3.008C368.77,129.326,366.531,131.565,363.77,131.565z"/>
	<path style="fill:#333333;" d="M339.806,195.536c-2.253,0-4.298-1.533-4.854-3.819c-0.653-2.683,0.994-5.387,3.677-6.04
		c8.296-2.018,15.656-6.951,20.723-13.89c0.159-0.218,0.334-0.42,0.522-0.606c0.904-0.899,2.15-1.455,3.526-1.455
		c2.761,0,5,2.239,5,5c0,1.151-0.391,2.213-1.046,3.06c-6.457,8.791-15.814,15.043-26.362,17.608
		C340.595,195.49,340.197,195.536,339.806,195.536z"/>
	<path style="fill:#333333;" d="M392.72,178.665c-2.761,0-5-2.239-5-5s2.239-5,5-5c10.074,0,18.27-8.196,18.27-18.27
		s-8.196-18.27-18.27-18.27c-2.761,0-5-2.239-5-5s2.239-5,5-5c15.588,0,28.27,12.682,28.27,28.27S408.308,178.665,392.72,178.665z"
		/>
	<path style="fill:#333333;" d="M52.072,211.655c-1.405,0-2.801-0.588-3.791-1.736c-0.232-0.269-0.478-0.539-0.74-0.801
		c-1.951-1.954-1.949-5.12,0.005-7.071c1.954-1.951,5.12-1.95,7.071,0.005c0.413,0.414,0.83,0.864,1.24,1.34
		c1.802,2.092,1.567,5.249-0.524,7.052C54.389,211.257,53.228,211.655,52.072,211.655z"/>
	<path style="fill:#333333;" d="M85.29,366.705c-13.192,0-25.202-6.123-32.949-16.798c-7.749-10.677-9.846-23.996-5.754-36.542
		l14.029-43.068c6.866-21.026,2.169-44.128-12.256-60.292l-1.006-1.09c-0.05-0.055-0.099-0.11-0.146-0.166
		c-7.229-7.754-12.873-16.597-16.775-26.285c-2.12-5.256-3.711-10.706-4.729-16.197c-0.503-2.715,1.29-5.324,4.005-5.828
		c2.716-0.5,5.324,1.29,5.828,4.005c0.896,4.836,2.299,9.641,4.171,14.281c3.469,8.612,8.502,16.471,14.961,23.361
		c0.066,0.071,0.13,0.143,0.192,0.217l0.906,0.983C72.609,222.158,78.089,249,70.123,273.397l-14.029,43.066
		c-3.087,9.467-1.505,19.516,4.34,27.57c5.844,8.053,14.904,12.671,24.856,12.671c6.509,0,12.75-2.026,18.049-5.861
		c5.285-3.837,9.145-9.141,11.156-15.333l26.692-81.827c3.065-9.403,8.833-17.556,16.68-23.576
		c7.438-5.717,16.312-9.15,25.661-9.926l94.168-7.82c2.897-0.232,5.419,2.083,5.419,4.983c0,2.655-2.065,4.827-4.679,4.99
		l-94.083,7.813c-7.429,0.616-14.482,3.345-20.396,7.891c-6.242,4.789-10.827,11.27-13.263,18.746l-26.69,81.821
		c-2.666,8.21-7.783,15.244-14.796,20.335C102.187,364.022,93.918,366.705,85.29,366.705z"/>
	<path style="fill:#333333;" d="M181.24,271.205h-38.88c-2.761,0-5.005-2.239-5.005-5s2.234-5,4.995-5h38.89
		c24.261,0,45.06-17.301,49.487-41.15c0.392-2.372,2.451-4.185,4.933-4.185c2.761,0,5,2.234,5,4.995
		c0,0.303-0.028,0.616-0.083,0.914C235.31,250.418,210.355,271.205,181.24,271.205z"/>
	<path style="fill:#333333;" d="M183.371,257.235c-1.125,0-2.238-0.378-3.145-1.112l-22.46-18.16
		c-2.147-1.736-2.481-4.885-0.745-7.032c1.737-2.148,4.885-2.48,7.032-0.745l14.532,11.75l0.355-16.877
		c0.058-2.76,2.304-4.944,5.104-4.894c2.761,0.058,4.952,2.344,4.894,5.104l-0.57,27.07c-0.041,1.907-1.162,3.625-2.893,4.429
		C184.804,257.082,184.085,257.235,183.371,257.235z"/>
	<path style="fill:#333333;" d="M19.959,140.435c-1.226,0-2.455-0.448-3.42-1.354c-2.014-1.889-2.115-5.053-0.226-7.067
		c26.259-27.994,56.451-47.733,89.736-58.669c46.665-15.326,91.298-10.463,120.524-3.685c31.634,7.337,52.054,18.17,52.908,18.627
		c2.434,1.305,3.35,4.335,2.045,6.769c-1.305,2.433-4.333,3.35-6.767,2.046c-0.241-0.128-20.359-10.763-50.752-17.772
		c-27.909-6.437-70.487-11.052-114.838,3.514c-31.675,10.407-60.463,29.252-85.563,56.01
		C22.623,139.905,21.292,140.435,19.959,140.435z"/>
	<path style="fill:#FFFFFF;" d="M130.156,92.494c-2.303,0-4.374-1.6-4.882-3.942c-0.585-2.699,1.129-5.36,3.828-5.946
		c13.417-2.909,27.486-4.383,41.817-4.383c13.612,0,27.644,1.327,41.704,3.944c2.715,0.505,4.506,3.116,4,5.831
		c-0.505,2.714-3.114,4.504-5.831,4c-13.458-2.505-26.874-3.775-39.874-3.775c-13.619,0-26.976,1.398-39.699,4.157
		C130.863,92.457,130.506,92.494,130.156,92.494z"/>
	<path style="fill:#333333;" d="M254.895,140.435c-2.761,0-5-2.239-5-5v-70.15c0-2.761,2.239-5,5-5s5,2.239,5,5v70.15
		C259.895,138.196,257.656,140.435,254.895,140.435z"/>
	<path style="fill:#333333;" d="M226.895,140.435c-2.761,0-5-2.239-5-5v-18.817c0-2.761,2.239-5,5-5s5,2.239,5,5v18.817
		C231.895,138.196,229.656,140.435,226.895,140.435z"/>
	<path style="fill:#333333;" d="M226.895,105.618c-2.761,0-5-2.239-5-5V59.285c0-2.761,2.239-5,5-5s5,2.239,5,5v41.333
		C231.895,103.379,229.656,105.618,226.895,105.618z"/>
	<path style="fill:#333333;" d="M254.89,239.435c-2.761,0-5-2.239-5-5v-69.08c0-2.761,2.239-5,5-5s5,2.239,5,5v69.08
		C259.89,237.196,257.651,239.435,254.89,239.435z"/>
	<path style="fill:#333333;" d="M226.89,222.285c-2.761,0-5-2.239-5-5v-51.93c0-2.761,2.239-5,5-5s5,2.239,5,5v51.93
		C231.89,220.046,229.651,222.285,226.89,222.285z"/>
	<path style="fill:#F24125;" d="M105.67,135.435H19.96c28.15-30.01,58.28-47.69,87.65-57.34c0,0,7.06,19.19,27.06,24.19
		C134.67,102.285,101.67,114.585,105.67,135.435z"/>
	<path style="opacity:0.25;enable-background:new    ;" d="M75.08,92.194c0,0-17.41,25.391-15.41,43.241H19.96L75.08,92.194z"/>
	<path style="fill:#333333;" d="M105.67,140.435H19.96c-1.993,0-3.796-1.184-4.588-3.013s-0.422-3.954,0.941-5.408
		c26.259-27.994,56.451-47.733,89.736-58.669c2.559-0.844,5.323,0.496,6.253,3.023c0.057,0.151,6.501,16.796,23.581,21.066
		c2.125,0.531,3.657,2.384,3.779,4.571s-1.193,4.199-3.246,4.964c-0.042,0.016-4.833,1.828-10.309,5.131
		c-2.367,1.425-5.439,0.665-6.864-1.699c-1.426-2.365-0.665-5.438,1.699-6.864c0.507-0.305,1.008-0.6,1.501-0.882
		c-9.303-5.44-14.755-13.436-17.439-18.386c-26.632,9.45-51.163,24.945-73.107,46.166h68.483c0.224-3.407,1.215-6.761,2.966-10.023
		c1.307-2.433,4.337-3.347,6.771-2.04c2.433,1.306,3.346,4.337,2.04,6.771c-1.671,3.112-2.187,6.17-1.576,9.351
		c0.281,1.464-0.106,2.978-1.057,4.127C108.574,139.769,107.161,140.435,105.67,140.435z"/>
	<path style="fill:#FFFFFF;" d="M326.67,194.285c-2.761,0-5-2.239-5-5v-48c0-2.761,2.239-5,5-5s5,2.239,5,5v48
		C331.67,192.046,329.431,194.285,326.67,194.285z"/>
	<path style="fill:#FFFFFF;" d="M326.67,125.284c-2.761,0-5-2.239-5-5v-9c0-2.761,2.239-5,5-5s5,2.239,5,5v9
		C331.67,123.046,329.431,125.284,326.67,125.284z"/>
	<path style="fill:#FFFFFF;" d="M379.16,177.285c-2.761,0-5-2.239-5-5v-42c0-2.761,2.239-5,5-5s5,2.239,5,5v42
		C384.16,175.046,381.921,177.285,379.16,177.285z"/>
	<path style="fill:#FFFFFF;" d="M294.67,218.285c-2.761,0-5-2.239-5-5v-95c0-2.761,2.239-5,5-5s5,2.239,5,5v95
		C299.67,216.046,297.431,218.285,294.67,218.285z"/>
	<path style="fill:#FFFFFF;" d="M294.67,102.285c-2.761,0-5-2.239-5-5v-10c0-2.761,2.239-5,5-5s5,2.239,5,5v10
		C299.67,100.047,297.431,102.285,294.67,102.285z"/>
	<path style="fill:#333333;" d="M97.6,236.755c-0.622,0-1.247-0.116-1.842-0.352l-38.22-15.15c-2.567-1.018-3.823-3.923-2.806-6.49
		c1.018-2.567,3.926-3.823,6.49-2.806l31.632,12.538c1.268-8.469,5.869-16.624,13.567-23.927c2.299-2.18,4.621-4.045,6.73-5.581
		c-8.097-4.814-12.343-11.132-14.557-16.149c-3.135-7.106-2.951-13.066-2.919-13.722c0.132-2.758,2.461-4.898,5.233-4.755
		c2.748,0.131,4.871,2.457,4.757,5.201c-0.024,0.75-0.314,17.347,19.585,23.979c1.922,0.641,3.267,2.377,3.407,4.398
		s-0.953,3.926-2.768,4.826c-0.243,0.122-25.042,12.754-23.309,32.554c0.151,1.727-0.603,3.41-1.994,4.445
		C99.711,236.418,98.66,236.755,97.6,236.755z"/>
</g>
<g>
</g>
<g>
</g>
<g>
</g>
<g>
</g>
<g>
</g>
<g>
</g>
<g>
</g>
<g>
</g>
<g>
</g>
<g>
</g>
<g>
</g>
<g>
</g>
<g>
</g>
<g>
</g>
<g>
</g>
</svg>
