<?xml version="1.0" encoding="iso-8859-1"?>
<!-- Generator: Adobe Illustrator 19.0.0, SVG Export Plug-In . SVG Version: 6.00 Build 0)  -->
<svg version="1.1" id="Layer_1" xmlns="http://www.w3.org/2000/svg" xmlns:xlink="http://www.w3.org/1999/xlink" x="0px" y="0px"
	 viewBox="0 0 351.28 351.28" style="enable-background:new 0 0 351.28 351.28;" xml:space="preserve">
<g>
	<path style="fill:#DB2B19;" d="M167.12,346.07C76.84,341.63,5,267.02,5,175.64C5,85.8,74.42,12.19,162.53,5.5
		c2.92,4.1,4.6,8.71,4.6,14.01c0,40.9-100,40.9-100,81.8s100,40.9,100,81.8s-100,40.9-100,81.8
		C67.13,305.6,166.1,305.81,167.12,346.07z"/>
	<path style="fill:#F24125;" d="M167.12,346.07c-1.02-40.26-99.99-40.47-99.99-81.16c0-40.9,100-40.9,100-81.8s-100-40.9-100-81.8
		s100-40.9,100-81.8c0-5.3-1.68-9.91-4.6-14.01c4.33-0.33,8.7-0.5,13.11-0.5c38.41,0,73.85,12.69,102.37,34.1
		c-26.97,11.2-56.51,21.35-56.51,43.58c0,40.9,100,40.9,100,81.8s-100,40.9-100,81.8c0,27.11,43.93,36.25,73.56,51.24
		c-30.77,30.16-72.93,48.76-119.42,48.76C172.78,346.28,169.94,346.21,167.12,346.07z"/>
	<path style="fill:#FC7365;" d="M221.5,82.68c0-22.23,29.54-32.38,56.51-43.58c41.45,31.13,68.27,80.7,68.27,136.54
		c0,47.75-19.61,90.91-51.22,121.88c-29.63-14.99-73.56-24.13-73.56-51.24c0-40.9,100-40.9,100-81.8S221.5,123.58,221.5,82.68z"/>
	<path style="fill:#333333;" d="M271.502,210.382c-1.971,0-3.838-1.172-4.63-3.108c-1.045-2.556,0.18-5.475,2.735-6.521
		c22.762-9.31,46.298-18.936,46.298-36.272c0-17.101-22.638-26.415-46.604-36.276c-25.958-10.68-52.8-21.724-52.8-45.524
		c0-23.808,27-34.853,53.111-45.533c2.165-0.886,4.331-1.772,6.48-2.665c2.551-1.06,5.478,0.15,6.535,2.7
		c1.06,2.55-0.149,5.476-2.699,6.535c-2.166,0.899-4.349,1.792-6.53,2.685c-24.118,9.865-46.897,19.183-46.897,36.278
		c0,17.101,22.638,26.415,46.604,36.276c25.958,10.68,52.8,21.725,52.8,45.524c0,24.051-27.898,35.461-52.513,45.528
		C272.773,210.262,272.131,210.382,271.502,210.382z"/>
	<path style="fill:#333333;" d="M249.688,219.855c-1.849,0-3.626-1.03-4.494-2.802c-1.215-2.48-0.189-5.475,2.291-6.689
		c2.445-1.198,5.098-2.422,8.108-3.743c2.527-1.11,5.479,0.041,6.587,2.569c1.11,2.529-0.04,5.478-2.569,6.588
		c-2.881,1.264-5.408,2.431-7.728,3.567C251.175,219.691,250.426,219.855,249.688,219.855z"/>
	<path style="fill:#333333;" d="M295.056,302.521c-0.759,0-1.529-0.173-2.253-0.54c-7.098-3.591-15.279-6.936-23.19-10.172
		c-26.111-10.678-53.112-21.72-53.112-45.53c0-10.976,5.852-20.288,17.889-28.47c2.283-1.552,5.394-0.959,6.945,1.324
		c1.553,2.284,0.96,5.394-1.324,6.946c-9.217,6.265-13.51,12.684-13.51,20.2c0,17.095,22.78,26.411,46.897,36.274
		c8.094,3.31,16.464,6.733,23.919,10.505c2.464,1.247,3.451,4.255,2.205,6.719C298.641,301.518,296.881,302.521,295.056,302.521z"/>
	<path style="fill:#333333;" d="M167.118,351.07c-2.703,0-4.927-2.156-4.996-4.873c-0.424-16.759-24.041-26.417-46.879-35.757
		c-20.848-8.526-42.405-17.342-50.132-32.84c-1.232-2.471-0.228-5.473,2.244-6.706c2.472-1.232,5.474-0.228,6.706,2.244
		c6.048,12.129,25.833,20.221,44.968,28.046c25.811,10.556,52.5,21.47,53.091,44.76c0.07,2.76-2.111,5.055-4.872,5.125
		C167.204,351.07,167.161,351.07,167.118,351.07z"/>
	<path style="fill:#333333;" d="M68.254,262.702c-0.511,0-1.032-0.079-1.544-0.246c-2.626-0.853-4.065-3.673-3.212-6.299
		c5.843-18.003,29.176-27.546,51.74-36.775c24.115-9.863,46.893-19.179,46.893-36.272c0-9.376-6.647-17.082-21.553-24.987
		c-2.44-1.293-3.369-4.32-2.075-6.76c1.295-2.439,4.321-3.368,6.76-2.075c11.534,6.116,26.869,16.277,26.869,33.821
		c0,23.807-26.998,34.849-53.107,45.528c-20.453,8.365-41.603,17.016-46.014,30.606C72.323,261.358,70.362,262.702,68.254,262.702z"
		/>
	<path style="fill:#333333;" d="M126.917,151.261c-0.65,0-1.311-0.127-1.947-0.397c-3.207-1.358-6.47-2.692-9.733-4.027
		c-26.109-10.678-53.107-21.72-53.107-45.527s26.998-34.849,53.107-45.528c24.115-9.863,46.893-19.179,46.893-36.272
		c0-4.006-1.201-7.64-3.672-11.11c-1.602-2.249-1.077-5.371,1.172-6.973c2.248-1.602,5.37-1.077,6.973,1.172
		c3.667,5.15,5.527,10.839,5.527,16.91c0,23.807-26.998,34.849-53.107,45.528C94.908,74.901,72.13,84.217,72.13,101.31
		s22.778,26.409,46.893,36.272c3.301,1.35,6.602,2.7,9.846,4.073c2.543,1.077,3.732,4.011,2.655,6.554
		C130.717,150.116,128.865,151.261,126.917,151.261z"/>
	<path style="opacity:0.25;enable-background:new    ;" d="M190.247,336.994c-19.96-7.05-38.22-17.72-53.98-31.21
		c-36.59-31.3-59.78-77.8-59.78-129.72c0-46.04,18.24-87.83,47.88-118.52c16.33-16.91,36.12-30.46,58.23-39.5
		c9.22-3.765,18.846-6.738,28.788-8.857c-11.529-2.458-23.483-3.763-35.745-3.763c-22.84,0-44.62,4.49-64.53,12.62
		c-22.11,9.04-41.9,22.59-58.23,39.5C23.24,88.234,5,130.024,5,176.064c0,51.92,23.19,98.42,59.78,129.72
		c15.76,13.49,34.02,24.16,53.98,31.21c17.79,6.29,36.94,9.71,56.88,9.71c12.255,0,24.208-1.3,35.734-3.756
		C204.152,341.408,197.098,339.416,190.247,336.994z"/>
	<g>
		<path style="fill:#FFFFFF;" d="M250.337,52.602c-0.906,0-1.824-0.247-2.649-0.763c-5.903-3.698-12.118-6.995-18.472-9.799
			c-2.526-1.115-3.671-4.067-2.556-6.593c1.114-2.525,4.065-3.671,6.593-2.555c6.792,2.998,13.435,6.521,19.743,10.473
			c2.34,1.466,3.049,4.551,1.583,6.892C253.63,51.771,252.002,52.602,250.337,52.602z"/>
		<path style="fill:#FFFFFF;" d="M273.434,290.345c-1.336,0-2.668-0.532-3.652-1.584c-1.887-2.017-1.781-5.181,0.235-7.067
			c29.935-28.007,46.421-65.771,46.421-106.334c0-39.62-16.668-78.14-45.73-105.684c-2.004-1.9-2.089-5.064-0.189-7.069
			c1.898-2.004,5.064-2.089,7.068-0.19c31.046,29.423,48.852,70.589,48.852,112.942c0,43.361-17.611,83.718-49.589,113.636
			C275.885,289.898,274.658,290.345,273.434,290.345z"/>
		<path style="fill:#FFFFFF;" d="M252.403,306.807c-1.637,0-3.241-0.803-4.199-2.278c-1.503-2.316-0.845-5.413,1.472-6.916
			c2.55-1.655,5.081-3.413,7.524-5.226c2.219-1.646,5.35-1.181,6.995,1.035c1.646,2.218,1.182,5.349-1.036,6.995
			c-2.61,1.937-5.314,3.816-8.038,5.584C254.28,306.546,253.336,306.807,252.403,306.807z"/>
	</g>
	<path style="fill:#333333;" d="M175.64,351.28c-2.927,0-5.876-0.073-8.766-0.216l0,0C73.3,346.462,0,269.407,0,175.64
		c0-44.566,16.714-87.062,47.064-119.658C77.255,23.556,118.128,3.857,162.152,0.514C166.631,0.173,171.17,0,175.64,0
		c38.345,0,74.781,12.138,105.372,35.101c21.339,16.026,39.019,37.025,51.129,60.728c12.699,24.855,19.139,51.708,19.139,79.811
		c0,47.59-18.724,92.143-52.721,125.451C265.542,333.456,221.887,351.28,175.64,351.28z M175.64,10
		c-4.218,0-8.501,0.163-12.73,0.486c-41.512,3.152-80.054,21.729-108.527,52.311C25.762,93.536,10,133.611,10,175.64
		c0,88.428,69.123,161.096,157.366,165.436h0.002c2.727,0.135,5.509,0.204,8.272,0.204c43.613,0,84.781-16.809,115.92-47.331
		c32.063-31.413,49.72-73.429,49.72-118.309c0-26.506-6.07-51.828-18.043-75.261c-11.423-22.356-28.1-42.163-48.229-57.281
		C246.164,21.445,211.802,10,175.64,10z"/>
</g>
<g>
</g>
<g>
</g>
<g>
</g>
<g>
</g>
<g>
</g>
<g>
</g>
<g>
</g>
<g>
</g>
<g>
</g>
<g>
</g>
<g>
</g>
<g>
</g>
<g>
</g>
<g>
</g>
<g>
</g>
</svg>
