<?xml version="1.0" encoding="iso-8859-1"?>
<!-- Generator: Adobe Illustrator 19.0.0, SVG Export Plug-In . SVG Version: 6.00 Build 0)  -->
<svg version="1.1" id="Layer_1" xmlns="http://www.w3.org/2000/svg" xmlns:xlink="http://www.w3.org/1999/xlink" x="0px" y="0px"
	 viewBox="0 0 443.649 443.649" style="enable-background:new 0 0 443.649 443.649;" xml:space="preserve">
<g>
	<path style="fill:#7C5C29;" d="M210.144,97.369c12.619,0.469,80.003,45.63,131.974,62.462L210.144,229.73L210.144,97.369z"/>
	<path style="fill:#333333;" d="M338.252,163.003c-6.271-7.643-24.706-8.457-40.97-9.175c-15.04-0.665-29.246-1.292-38.561-6.456
		c-11.626-6.446-17.517-16.489-22.714-25.35c-6.691-11.41-11.526-19.653-25.864-19.653v-10c20.065,0,27.398,12.503,34.49,24.594
		c4.771,8.134,9.703,16.544,18.938,21.663c7.256,4.023,20.93,4.627,34.152,5.211c19.25,0.85,39.156,1.729,48.259,12.822
		L338.252,163.003z"/>
	<circle style="fill:#F24125;" cx="286.332" cy="116.662" r="49.498"/>
	<path style="opacity:0.25;enable-background:new    ;" d="M299.664,164.339c-4.24,1.19-8.71,1.82-13.33,1.82
		c-27.34,0-49.5-22.16-49.5-49.5c0-27.33,22.16-49.49,49.5-49.49c4.62,0,9.09,0.63,13.33,1.82c-20.86,5.82-36.16,24.96-36.16,47.67
		C263.504,139.379,278.804,158.519,299.664,164.339z"/>
	<polygon style="fill:#A37E3D;" points="230.147,79.999 212.147,29.999 240.147,27.999 	"/>
	<polygon style="fill:#A37E3D;" points="350.147,138.999 387.147,107.999 404.147,131.999 	"/>
	<path style="fill:#B2511B;" d="M339.309,156.518c-12.099,16.057-31.324,26.441-52.977,26.441
		c-36.615,0-66.297-29.682-66.297-66.297c0-6.541,0.963-12.855,2.728-18.824c-4.167-0.305-8.374-0.469-12.619-0.469
		c-4.41,0-8.78,0.17-13.11,0.5c-7.33,0.56-14.53,1.58-21.57,3.04c-31.98,6.59-60.69,22.14-83.39,43.9
		c-32.01,30.69-52.09,73.73-52.56,121.47c-0.01,0.71-0.01,1.43-0.01,2.15c0,1.29,0.01,2.57,0.05,3.85
		c2.2,89.42,73.2,161.79,162.07,166.16c2.82,0.14,5.66,0.21,8.52,0.21c11.91,0,23.53-1.22,34.75-3.55
		c32.59-6.74,61.78-22.77,84.67-45.21c31.61-30.97,51.22-74.13,51.22-121.88C380.784,225.383,365.143,186.423,339.309,156.518z"/>
	<g>
		<path style="fill:#FFFFFF;" d="M307.935,382.714c-1.336,0-2.668-0.532-3.652-1.584c-1.887-2.017-1.781-5.181,0.235-7.067
			c29.375-27.482,46.223-66.239,46.223-106.333c0-24.717-6.333-49.148-18.313-70.651c-1.344-2.412-0.478-5.458,1.935-6.801
			c2.415-1.343,5.458-0.477,6.802,1.934c12.808,22.988,19.577,49.102,19.577,75.518c0,42.851-18.002,84.27-49.391,113.636
			C310.386,382.267,309.158,382.714,307.935,382.714z"/>
		<path style="fill:#FFFFFF;" d="M286.904,399.176c-1.637,0-3.241-0.803-4.199-2.278c-1.503-2.316-0.845-5.413,1.472-6.916
			c2.549-1.654,5.08-3.413,7.524-5.226c2.219-1.646,5.35-1.182,6.995,1.036c1.646,2.218,1.182,5.35-1.036,6.995
			c-2.611,1.938-5.315,3.816-8.038,5.583C288.781,398.915,287.836,399.176,286.904,399.176z"/>
	</g>
	<path style="opacity:0.25;enable-background:new    ;" d="M224.75,428.939c-19.96-7.05-38.22-17.72-53.98-31.21
		c-36.59-31.3-59.78-77.8-59.78-129.72c0-46.04,18.24-87.83,47.88-118.52c16.33-16.91,36.12-30.46,58.23-39.5
		c0.092-0.038,0.184-0.075,0.277-0.113c6.493-2.638,4.803-12.23-2.203-12.434c-1.671-0.049-3.348-0.073-5.031-0.073
		c-22.84,0-44.62,4.49-64.53,12.62c-22.11,9.04-41.9,22.59-58.23,39.5c-29.64,30.69-47.88,72.48-47.88,118.52
		c0,51.92,23.19,98.42,59.78,129.72c15.76,13.49,34.02,24.16,53.98,31.21c17.79,6.29,36.94,9.71,56.88,9.71
		c12.255,0,24.208-1.3,35.734-3.756C238.656,433.353,231.602,431.361,224.75,428.939z"/>
	<path style="fill:#333333;" d="M210.144,443.649c-2.933,0-5.883-0.073-8.769-0.216c-44.291-2.178-85.795-20.888-116.864-52.685
		c-31.121-31.85-48.862-73.879-49.955-118.345c-0.041-1.299-0.053-2.631-0.053-3.973c0-0.746,0-1.491,0.012-2.226
		c0.468-47.602,19.681-92.005,54.099-125.004c23.906-22.917,53.59-38.542,85.841-45.188c7.254-1.504,14.725-2.558,22.198-3.128
		c8.725-0.666,17.482-0.69,26.475-0.033c1.51,0.11,2.888,0.898,3.748,2.143s1.111,2.812,0.683,4.263
		c-1.674,5.657-2.522,11.514-2.522,17.405c0,33.799,27.497,61.297,61.296,61.297c19.422,0,37.276-8.912,48.984-24.45
		c0.909-1.207,2.316-1.938,3.826-1.988c1.488-0.063,2.963,0.584,3.951,1.729c27.529,31.868,42.69,72.624,42.69,114.76
		c0,47.59-18.724,92.143-52.721,125.451c-24.111,23.638-54.25,39.73-87.156,46.535C234.235,442.419,222.201,443.649,210.144,443.649
		z M210.144,102.369c-4.221,0-8.504,0.164-12.73,0.485c-7.048,0.539-14.092,1.531-20.935,2.951
		c-30.411,6.267-58.399,21.001-80.945,42.613c-32.459,31.121-50.578,72.995-51.02,117.91c-0.011,0.711-0.011,1.406-0.011,2.101
		c0,1.238,0.01,2.465,0.048,3.694c1.032,41.965,17.764,81.6,47.112,111.636c29.301,29.987,68.439,47.633,110.205,49.686
		c2.725,0.136,5.508,0.204,8.275,0.204c11.376,0,22.725-1.159,33.733-3.445c31.028-6.417,59.446-21.592,82.187-43.885
		c32.063-31.414,49.72-73.43,49.72-118.31c0-37.75-12.903-74.324-36.452-103.654c-13.514,15.075-32.505,23.603-53,23.603
		c-39.313,0-71.296-31.984-71.296-71.297c0-4.765,0.477-9.509,1.422-14.169C214.329,102.41,212.22,102.369,210.144,102.369z"/>
	<path style="fill:#333333;" d="M230.145,84.999c-2.094,0-3.984-1.311-4.702-3.307l-18-50c-0.53-1.473-0.341-3.109,0.514-4.421
		c0.854-1.312,2.272-2.148,3.834-2.26l28-2c1.555-0.111,3.063,0.506,4.096,1.667c1.031,1.162,1.464,2.738,1.171,4.264l-1.384,7.195
		c-0.521,2.712-3.146,4.482-5.854,3.966c-2.712-0.521-4.487-3.143-3.966-5.854l0.154-0.8l-14.92,1.066l9.591,26.643l1.399-7.275
		c0.521-2.712,3.139-4.484,5.854-3.966c2.712,0.521,4.487,3.143,3.966,5.854l-4.841,25.171c-0.426,2.211-2.276,3.866-4.521,4.041
		C230.405,84.994,230.274,84.999,230.145,84.999z"/>
	<path style="fill:#333333;" d="M350.145,143.999c-1.964,0-3.772-1.158-4.577-2.993c-0.892-2.034-0.335-4.413,1.368-5.84l37-31
		c1.069-0.897,2.463-1.307,3.852-1.126c1.386,0.179,2.632,0.929,3.439,2.068l17,24c1.014,1.431,1.203,3.289,0.5,4.896
		c-0.704,1.606-2.198,2.727-3.938,2.953l-54,7C350.573,143.985,350.358,143.999,350.145,143.999z M386.201,115.314l-19.725,16.526
		l28.787-3.731L386.201,115.314z"/>
	<path style="opacity:0.25;enable-background:new    ;" d="M291.811,213.851l-2.043,43.914c-0.05,1.076,0.995,1.867,2.017,1.526
		l21.447-7.149c0.898-0.299,1.313-1.333,0.871-2.171l-19.404-36.766C293.97,211.825,291.883,212.291,291.811,213.851z"/>
	<path style="fill:#333333;" d="M212.147,84.999c-1.279,0-2.56-0.488-3.535-1.464l-13-13c-1.953-1.953-1.953-5.119,0-7.071
		c1.951-1.952,5.119-1.952,7.07,0l13,13c1.953,1.953,1.953,5.119,0,7.071C214.706,84.51,213.426,84.999,212.147,84.999z"/>
	<path style="fill:#333333;" d="M369.143,168c-0.801,0-1.612-0.192-2.366-0.599l-13-7c-2.432-1.309-3.342-4.341-2.032-6.773
		c1.31-2.432,4.344-3.34,6.772-2.032l13,7c2.432,1.309,3.342,4.341,2.032,6.773C372.646,167.047,370.922,168,369.143,168z"/>
	<polygon style="fill:#A37E3D;" points="307.147,199.999 305.147,242.999 326.147,235.999 	"/>
	<path style="fill:#333333;" d="M305.147,247.999c-1.075,0-2.137-0.347-3.017-1.013c-1.314-0.995-2.055-2.573-1.978-4.22l2-43
		c0.104-2.252,1.704-4.156,3.905-4.647c2.201-0.492,4.458,0.552,5.511,2.546l19,36c0.686,1.299,0.766,2.833,0.219,4.196
		c-0.548,1.363-1.666,2.417-3.06,2.881l-21,7C306.211,247.914,305.678,247.999,305.147,247.999z M311.289,218.559l-0.81,17.391
		l8.494-2.831L311.289,218.559z"/>
	<path style="fill:#333333;" d="M348.147,101.999c-1.279,0-2.56-0.488-3.535-1.464c-1.953-1.953-1.953-5.119,0-7.071l55-55
		c1.951-1.952,5.119-1.952,7.07,0c1.953,1.953,1.953,5.119,0,7.071l-55,55C350.706,101.51,349.426,101.999,348.147,101.999z"/>
	<path style="fill:#333333;" d="M341.147,82.999c-1.279,0-2.56-0.488-3.535-1.464c-1.953-1.953-1.953-5.119,0-7.071l37-37
		c1.951-1.952,5.119-1.952,7.07,0c1.953,1.953,1.953,5.119,0,7.071l-37,37C343.706,82.51,342.426,82.999,341.147,82.999z"/>
	<path style="fill:#333333;" d="M269.647,58.065c-1.279,0-2.56-0.488-3.535-1.464c-1.953-1.953-1.953-5.119,0-7.071l37-37
		c1.951-1.952,5.119-1.952,7.07,0c1.953,1.953,1.953,5.119,0,7.071l-37,37C272.206,57.576,270.926,58.065,269.647,58.065z"/>
	<path style="fill:#333333;" d="M331.147,37.999c-1.279,0-2.56-0.488-3.535-1.464c-1.953-1.953-1.953-5.119,0-7.071l28-28
		c1.951-1.952,5.119-1.952,7.07,0c1.953,1.953,1.953,5.119,0,7.071l-28,28C333.706,37.511,332.426,37.999,331.147,37.999z"/>
	<path style="fill:#333333;" d="M308.365,60.782c-1.279,0-2.559-0.488-3.535-1.464c-1.953-1.953-1.953-5.118-0.001-7.071
		l8.782-8.783c1.953-1.953,5.118-1.954,7.071,0c1.953,1.953,1.953,5.118,0.001,7.071l-8.782,8.783
		C310.924,60.294,309.644,60.782,308.365,60.782z"/>
	<path style="fill:#333333;" d="M286.331,171.159c-30.05,0-54.497-24.447-54.497-54.498s24.447-54.498,54.497-54.498
		c12.659,0,24.992,4.438,34.729,12.496c2.128,1.761,2.425,4.913,0.664,7.04c-1.76,2.127-4.91,2.426-7.04,0.664
		c-7.947-6.578-18.016-10.2-28.353-10.2c-24.536,0-44.497,19.961-44.497,44.498s19.961,44.498,44.497,44.498
		s44.498-19.961,44.498-44.498c0-7.115-1.628-13.913-4.838-20.203c-1.256-2.459-0.279-5.471,2.18-6.727
		c2.461-1.254,5.471-0.279,6.727,2.181c3.937,7.711,5.932,16.038,5.932,24.749C340.829,146.712,316.382,171.159,286.331,171.159z"/>
	<path style="fill:#FFFFFF;" d="M310.714,146.044c-1.279,0-2.559-0.488-3.535-1.464c-1.953-1.953-1.953-5.118-0.001-7.071
		c5.579-5.579,8.651-12.982,8.651-20.847c0-4.569-1.021-8.951-3.034-13.022c-1.224-2.475-0.209-5.474,2.267-6.698
		c2.476-1.225,5.474-0.209,6.698,2.266c2.7,5.461,4.069,11.334,4.069,17.454c0,10.535-4.112,20.45-11.579,27.917
		C313.274,145.555,311.993,146.044,310.714,146.044z"/>
	<path style="fill:#FFFFFF;" d="M302.56,91.228c-0.797,0-1.604-0.191-2.356-0.593c-1.23-0.659-2.52-1.235-3.83-1.711
		c-2.596-0.943-3.935-3.812-2.991-6.407s3.816-3.934,6.407-2.991c1.757,0.639,3.484,1.41,5.134,2.293
		c2.435,1.303,3.352,4.333,2.049,6.768C306.071,90.27,304.344,91.228,302.56,91.228z"/>
	<path style="fill:#333333;" d="M250.153,267c-0.284,0-0.572-0.024-0.862-0.075c-2.721-0.473-4.543-3.063-4.069-5.783l8-46
		c0.474-2.72,3.058-4.542,5.782-4.069c2.721,0.473,4.543,3.063,4.069,5.783l-8,46C254.65,265.286,252.538,267,250.153,267z"/>
	<path style="fill:#333333;" d="M188.152,185c-1.771,0-3.486-0.943-4.395-2.607c-1.322-2.424-0.429-5.461,1.995-6.784l22-12
		c2.429-1.323,5.462-0.428,6.784,1.996c1.322,2.424,0.429,5.461-1.995,6.784l-22,12C189.781,184.803,188.96,185,188.152,185z"/>
</g>
<g>
</g>
<g>
</g>
<g>
</g>
<g>
</g>
<g>
</g>
<g>
</g>
<g>
</g>
<g>
</g>
<g>
</g>
<g>
</g>
<g>
</g>
<g>
</g>
<g>
</g>
<g>
</g>
<g>
</g>
</svg>
