<?xml version="1.0" encoding="iso-8859-1"?>
<!-- Generator: Adobe Illustrator 19.0.0, SVG Export Plug-In . SVG Version: 6.00 Build 0)  -->
<svg version="1.1" id="Layer_1" xmlns="http://www.w3.org/2000/svg" xmlns:xlink="http://www.w3.org/1999/xlink" x="0px" y="0px"
	 viewBox="0 0 468.467 468.467" style="enable-background:new 0 0 468.467 468.467;" xml:space="preserve">
<g>
	<rect x="182.228" y="382.667" style="fill:#23464F;" width="104" height="80.8"/>
	<circle style="fill:#53AEF9;" cx="234.231" cy="30.333" r="25.333"/>
	<path style="fill:#333333;" d="M234.231,60.667c-16.726,0-30.333-13.607-30.333-30.333S217.505,0,234.231,0
		s30.333,13.607,30.333,30.333S250.957,60.667,234.231,60.667z M234.231,10c-11.212,0-20.333,9.122-20.333,20.333
		s9.122,20.333,20.333,20.333s20.333-9.122,20.333-20.333S245.443,10,234.231,10z"/>
	<path style="fill:none;stroke:#000000;stroke-width:8;stroke-linecap:round;stroke-linejoin:round;stroke-miterlimit:10;" d="
		M313.387,100.379c-5.424-4.705-11.271-8.934-17.476-12.623"/>
	<path style="fill:none;stroke:#000000;stroke-width:8;stroke-linecap:round;stroke-linejoin:round;stroke-miterlimit:10;" d="
		M355.076,191.682c0-29.79-10.781-57.062-28.655-78.126"/>
	<path style="fill:#53AEF9;" d="M357.038,368.257h-245.61v-84.71h245.61V368.257z M336.728,352.667v-54h-35v54H336.728z
		 M280.068,352.667v-54h-35v54H280.068z M223.398,352.667v-54h-35v54H223.398z M166.728,352.667v-54h-35v54H166.728z"/>
	<rect x="131.728" y="298.667" style="fill:#23464F;" width="35" height="54"/>
	<rect x="188.398" y="298.667" style="fill:#23464F;" width="35" height="54"/>
	<rect x="245.068" y="298.667" style="fill:#23464F;" width="35" height="54"/>
	<rect x="301.728" y="298.667" style="fill:#23464F;" width="35" height="54"/>
	<polygon style="fill:#FCBC1D;" points="357.038,368.257 357.038,463.467 286.228,463.467 286.228,382.667 182.228,382.667 
		182.228,463.467 111.428,463.467 111.428,368.257 	"/>
	<polygon style="fill:#FCBC1D;" points="357.038,257.217 357.038,283.547 111.428,283.547 111.428,257.217 192.868,257.217 
		275.598,257.217 356.368,257.217 	"/>
	<polygon style="fill:#3590B7;" points="275.598,144.667 275.598,257.217 192.868,257.217 192.868,144.667 210.588,144.667 
		257.868,144.667 	"/>
	<polygon style="fill:#FCBC1D;" points="257.868,68.177 257.868,144.667 210.588,144.667 210.588,68.177 210.588,46.667 
		257.868,46.667 	"/>
	<path style="opacity:0.25;enable-background:new    ;" d="M210.588,46.667c3.423,69.667,47.28,98,47.28,98h-47.28
		C210.588,144.667,210.588,81,210.588,46.667z"/>
	<polygon style="fill:#0573AF;" points="275.598,68.177 275.598,144.667 257.868,144.667 257.868,68.177 274.938,68.177 	"/>
	<rect x="192.868" y="68.177" style="fill:#0573AF;" width="17.72" height="76.49"/>
	<path style="fill:#53AEF9;" d="M373.438,191.617c0,23.72-5.94,46.05-16.4,65.6h-0.67h-80.77v-112.55v-76.49v-9.53
		C332.278,76.277,373.438,129.147,373.438,191.617z"/>
	<path style="fill:#53AEF9;" d="M192.868,144.667v112.55h-81.44c-10.47-19.55-16.4-41.88-16.4-65.6
		c0-62.47,41.15-115.34,97.84-132.97v9.53L192.868,144.667L192.868,144.667z"/>
	<path style="opacity:0.25;enable-background:new    ;" d="M192.868,58.647v2.88c-38.04,26.7-63.17,72.82-63.17,125.24
		c0,25.48,5.93,49.46,16.4,70.45h-34.67c-10.47-19.55-16.4-41.88-16.4-65.6C95.028,129.147,136.178,76.277,192.868,58.647z"/>
	<path style="fill:#333333;" d="M356.368,262.217h-80.77c-2.762,0-5-2.239-5-5s2.238-5,5-5h80.77c2.762,0,5,2.239,5,5
		C361.368,259.978,359.13,262.217,356.368,262.217z"/>
	
		<line style="fill:none;stroke:#333333;stroke-width:10;stroke-linecap:round;stroke-linejoin:round;stroke-miterlimit:10;" x1="111.428" y1="257.217" x2="192.868" y2="257.217"/>
	<path style="fill:#333333;" d="M182.228,468.467h-70.8c-2.761,0-5-2.239-5-5V258.459c-10.733-20.481-16.4-43.563-16.4-66.843
		c0-31.387,9.91-61.228,28.657-86.294c18.126-24.236,43.944-42.508,72.698-51.45c1.517-0.472,3.169-0.194,4.449,0.748
		s2.036,2.437,2.036,4.026v193.57h72.73V58.647c0-1.589,0.756-3.084,2.036-4.026s2.933-1.22,4.449-0.748
		c24.082,7.491,45.904,21.298,63.109,39.93c1.873,2.029,1.747,5.192-0.282,7.065c-2.028,1.873-5.19,1.747-7.065-0.281
		c-14.455-15.654-32.41-27.649-52.247-34.963v191.593c0,2.761-2.238,5-5,5h-82.73c-2.761,0-5-2.239-5-5v-191.6
		c-52.819,19.361-87.84,69.164-87.84,126c0,22.063,5.466,43.93,15.808,63.239c0.389,0.726,0.592,1.537,0.592,2.361v201.25h65.8
		c2.761,0,5,2.239,5,5S184.989,468.467,182.228,468.467z"/>
	<path style="fill:#333333;" d="M357.038,468.467h-70.81c-2.762,0-5-2.239-5-5s2.238-5,5-5h65.81v-201.25
		c0-0.823,0.203-1.633,0.592-2.359c10.342-19.33,15.809-41.198,15.809-63.241c0-27.486-8.251-53.908-23.862-76.409
		c-1.574-2.269-1.011-5.384,1.258-6.958c2.271-1.575,5.384-1.011,6.959,1.258c16.777,24.183,25.646,52.576,25.646,82.109
		c0,23.259-5.667,46.342-16.4,66.842v205.008C362.038,466.228,359.799,468.467,357.038,468.467z"/>
	<path style="fill:#FFFFFF;" d="M303.12,93.296c-0.955,0-1.921-0.273-2.775-0.845c-3.862-2.583-7.908-4.964-12.027-7.075
		c-2.458-1.26-3.429-4.273-2.169-6.73c1.258-2.457,4.273-3.428,6.729-2.169c4.462,2.287,8.845,4.865,13.027,7.663
		c2.295,1.535,2.911,4.641,1.376,6.936C306.316,92.517,304.733,93.296,303.12,93.296z"/>
	<path style="fill:#FFFFFF;" d="M350.134,241.322c-0.597,0-1.203-0.108-1.794-0.334c-2.577-0.991-3.863-3.884-2.872-6.462
		c5.288-13.75,7.97-28.187,7.97-42.909c0-25.946-8.188-50.608-23.681-71.321c-5.078-6.789-10.94-13.081-17.427-18.7
		c-2.087-1.808-2.313-4.966-0.505-7.053c1.811-2.088,4.967-2.313,7.054-0.505c7.025,6.087,13.38,12.907,18.886,20.269
		c16.795,22.455,25.673,49.189,25.673,77.311c0,15.954-2.905,31.598-8.636,46.499C354.036,240.103,352.143,241.322,350.134,241.322z
		"/>
	<path style="fill:#333333;" d="M274.938,73.177h-17.07c-2.762,0-5-2.239-5-5s2.238-5,5-5h17.07c2.762,0,5,2.239,5,5
		S277.7,73.177,274.938,73.177z"/>
	<path style="fill:#333333;" d="M210.588,73.177h-17.72c-2.761,0-5-2.239-5-5s2.239-5,5-5h17.72c2.761,0,5,2.239,5,5
		S213.35,73.177,210.588,73.177z"/>
	<path style="fill:#333333;" d="M257.868,149.667c-2.762,0-5-2.239-5-5v-93h-37.28v93c0,2.761-2.239,5-5,5s-5-2.239-5-5v-98
		c0-2.761,2.239-5,5-5h47.28c2.762,0,5,2.239,5,5v98C262.868,147.428,260.63,149.667,257.868,149.667z"/>
	<path style="fill:#333333;" d="M357.038,288.547h-39.026c-2.762,0-5-2.239-5-5s2.238-5,5-5h39.026c2.762,0,5,2.239,5,5
		S359.799,288.547,357.038,288.547z"/>
	<path style="fill:#333333;" d="M304.01,288.547h-5.333c-2.762,0-5-2.239-5-5s2.238-5,5-5h5.333c2.762,0,5,2.239,5,5
		S306.772,288.547,304.01,288.547z"/>
	<path style="fill:#333333;" d="M284.01,288.547H111.428c-2.761,0-5-2.239-5-5s2.239-5,5-5H284.01c2.762,0,5,2.239,5,5
		S286.772,288.547,284.01,288.547z"/>
	<path style="fill:#333333;" d="M357.038,373.257h-245.61c-2.761,0-5-2.239-5-5s2.239-5,5-5h245.61c2.762,0,5,2.239,5,5
		S359.799,373.257,357.038,373.257z"/>
	<path style="fill:#333333;" d="M286.229,468.467h-104c-2.761,0-5-2.239-5-5v-80.8c0-2.761,2.239-5,5-5h104c2.762,0,5,2.239,5,5
		s-2.238,5-5,5h-99v70.8h94V403c0-2.761,2.238-5,5-5s5,2.239,5,5v60.467C291.229,466.228,288.99,468.467,286.229,468.467z"/>
	<path style="fill:#333333;" d="M275.599,149.667h-82.73c-2.761,0-5-2.239-5-5s2.239-5,5-5h82.73c2.762,0,5,2.239,5,5
		S278.359,149.667,275.599,149.667z"/>
	<path style="fill:#333333;" d="M275.6,168.836h-82.736c-2.761,0-5-2.239-5-5s2.239-5,5-5H275.6c2.762,0,5,2.239,5,5
		S278.361,168.836,275.6,168.836z"/>
	<path style="fill:#333333;" d="M275.6,189.502h-35.589c-2.762,0-5-2.239-5-5s2.238-5,5-5H275.6c2.762,0,5,2.239,5,5
		S278.361,189.502,275.6,189.502z"/>
	<path style="fill:#333333;" d="M226.011,189.502h-33.147c-2.761,0-5-2.239-5-5s2.239-5,5-5h33.147c2.761,0,5,2.239,5,5
		S228.772,189.502,226.011,189.502z"/>
	<path style="fill:#333333;" d="M275.6,213.667h-82.736c-2.761,0-5-2.239-5-5s2.239-5,5-5H275.6c2.762,0,5,2.239,5,5
		S278.361,213.667,275.6,213.667z"/>
	<path style="fill:#333333;" d="M275.6,234.667h-17.589c-2.762,0-5-2.239-5-5s2.238-5,5-5H275.6c2.762,0,5,2.239,5,5
		S278.361,234.667,275.6,234.667z"/>
	<path style="fill:#333333;" d="M244.678,234.667h-51.814c-2.761,0-5-2.239-5-5s2.239-5,5-5h51.814c2.762,0,5,2.239,5,5
		S247.439,234.667,244.678,234.667z"/>
	<path style="fill:#333333;" d="M275.6,249.667h-82.736c-2.761,0-5-2.239-5-5s2.239-5,5-5H275.6c2.762,0,5,2.239,5,5
		S278.361,249.667,275.6,249.667z"/>
	<rect x="200.186" y="19.667" style="fill:#FCBC1D;" width="68.09" height="27"/>
	<path style="fill:#333333;" d="M268.276,51.667h-68.09c-2.761,0-5-2.239-5-5v-27c0-2.761,2.239-5,5-5h68.09c2.762,0,5,2.239,5,5v27
		C273.276,49.428,271.038,51.667,268.276,51.667z M205.187,41.667h58.09v-17h-58.09L205.187,41.667L205.187,41.667z"/>
	<path style="fill:#FFFFFF;" d="M178.678,248h-27.333c-2.761,0-5-2.239-5-5s2.239-5,5-5h27.333c2.761,0,5,2.239,5,5
		S181.439,248,178.678,248z"/>
	<polygon style="fill:#808080;" points="166.728,298.667 131.728,352.667 166.728,352.667 	"/>
	<polygon style="fill:#808080;" points="223.398,298.667 188.398,352.667 223.398,352.667 	"/>
	<polygon style="fill:#808080;" points="280.063,298.667 245.063,352.667 280.063,352.667 	"/>
	<polygon style="fill:#808080;" points="336.063,298.667 301.063,352.667 336.063,352.667 	"/>
	<path style="fill:#333333;" d="M166.728,357.667h-35c-2.761,0-5-2.239-5-5v-54c0-2.761,2.239-5,5-5h35c2.761,0,5,2.239,5,5v35.667
		c0,2.761-2.239,5-5,5s-5-2.239-5-5v-30.667h-25v44h30c2.761,0,5,2.239,5,5S169.489,357.667,166.728,357.667z"/>
	<path style="fill:#333333;" d="M223.398,357.667h-35c-2.761,0-5-2.239-5-5v-54c0-2.761,2.239-5,5-5h35c2.761,0,5,2.239,5,5v54
		C228.398,355.428,226.159,357.667,223.398,357.667z M193.398,347.667h25v-44h-25V347.667z"/>
	<path style="fill:#333333;" d="M336.729,357.667h-35c-2.762,0-5-2.239-5-5v-54c0-2.761,2.238-5,5-5h35c2.762,0,5,2.239,5,5v54
		C341.729,355.428,339.49,357.667,336.729,357.667z M306.729,347.667h25v-44h-25V347.667z"/>
	<path style="fill:#333333;" d="M280.068,357.667h-35c-2.762,0-5-2.239-5-5v-54c0-2.761,2.238-5,5-5h35c2.762,0,5,2.239,5,5v54
		C285.068,355.428,282.829,357.667,280.068,357.667z M250.068,347.667h25v-44h-25V347.667z"/>
	<path style="fill:#FFFFFF;" d="M341.345,455.667c-2.209,0-4-1.791-4-4v-40.5c0-2.209,1.791-4,4-4s4,1.791,4,4v40.5
		C345.345,453.876,343.553,455.667,341.345,455.667z"/>
	<path style="fill:#FFFFFF;" d="M341.345,398.667c-2.209,0-4-1.791-4-4v-12.334c0-2.209,1.791-4,4-4s4,1.791,4,4v12.334
		C345.345,396.876,343.553,398.667,341.345,398.667z"/>
	
		<line style="fill:none;stroke:#FFFFFF;stroke-width:8;stroke-linecap:round;stroke-linejoin:round;stroke-miterlimit:10;" x1="341.345" y1="267.715" x2="341.345" y2="273.048"/>
	<path style="fill:#FFFFFF;" d="M256.747,39.567c-2.209,0-4-1.791-4-4v-5.333c0-2.209,1.791-4,4-4c2.209,0,4,1.791,4,4v5.333
		C260.747,37.776,258.956,39.567,256.747,39.567z"/>
	<path style="fill:#FFFFFF;" d="M246.178,106.167c-2.209,0-4-1.791-4-4V57.333c0-2.209,1.791-4,4-4s4,1.791,4,4v44.833
		C250.178,104.376,248.387,106.167,246.178,106.167z"/>
</g>
<g>
</g>
<g>
</g>
<g>
</g>
<g>
</g>
<g>
</g>
<g>
</g>
<g>
</g>
<g>
</g>
<g>
</g>
<g>
</g>
<g>
</g>
<g>
</g>
<g>
</g>
<g>
</g>
<g>
</g>
</svg>
