<?xml version="1.0" encoding="iso-8859-1"?>
<!-- Generator: Adobe Illustrator 19.0.0, SVG Export Plug-In . SVG Version: 6.00 Build 0)  -->
<svg version="1.1" id="Layer_1" xmlns="http://www.w3.org/2000/svg" xmlns:xlink="http://www.w3.org/1999/xlink" x="0px" y="0px"
	 viewBox="0 0 360.513 360.513" style="enable-background:new 0 0 360.513 360.513;" xml:space="preserve">
<g>
	<path style="fill:#20CE55;" d="M171.874,232.568c-22,62,142.28,18.54,142.14,63.27c25.86-29.91,41.5-68.9,41.5-111.54
		c0-51.07-22.44-96.91-58-128.18h-0.01c0,0-109.63,3.45-109.63,51.45s146,10,134,58S193.874,170.568,171.874,232.568z"/>
	<path style="fill:#20CE55;" d="M99.874,271.568c24-90-70-82-68-115s70,1,77-39s-46.75-51.78-46.75-51.78l-0.01-0.01
		c-29.64,30.69-47.88,72.48-47.88,118.52c0,51.92,23.19,98.42,59.78,129.72C85.934,302.967,95.204,289.068,99.874,271.568z"/>
	<path style="fill:#1AA5E2;" d="M120.344,26.278c-22.11,9.04-41.9,22.59-58.23,39.5l0.01,0.01c0,0,53.75,11.78,46.75,51.78
		s-75,6-77,39s92,25,68,115c-4.67,17.5-13.94,31.4-25.86,42.45c15.76,13.49,34.02,24.16,53.98,31.21v-0.01
		c60.13-42.36,116.72-1.08,116.72-1.08v0.01c27.01-10.11,50.78-26.88,69.3-48.31c0.14-44.73-164.14-1.27-142.14-63.27s138-19,150-67
		s-134-10-134-58s109.63-51.45,109.63-51.45c-13.92-12.25-29.86-22.27-47.25-29.48v0.01c0,0-54.42,38.37-129.9-0.35L120.344,26.278z
		"/>
	<path style="fill:#333333;" d="M314.015,300.838c-0.005,0-0.011,0-0.016,0c-2.761-0.009-4.993-2.254-4.984-5.016
		c0.049-15.702-32.808-17.654-64.584-19.542c-4.114-0.244-8.241-0.49-12.327-0.765c-2.755-0.186-4.838-2.57-4.652-5.325
		s2.56-4.834,5.325-4.653c4.059,0.274,8.159,0.517,12.247,0.76c18.193,1.081,35.378,2.102,48.784,5.544
		c16.762,4.304,25.243,12.383,25.207,24.011C319.005,298.609,316.769,300.838,314.015,300.838z"/>
	<path style="fill:#333333;" d="M217.467,274.299c-0.169,0-0.34-0.009-0.512-0.026c-3.134-0.319-5.982-0.657-8.708-1.035
		c-2.735-0.379-4.645-2.904-4.266-5.639c0.379-2.735,2.9-4.645,5.639-4.266c2.604,0.361,5.335,0.686,8.348,0.992
		c2.747,0.28,4.748,2.733,4.468,5.48C222.173,272.38,220.001,274.299,217.467,274.299z"/>
	<path style="fill:#333333;" d="M189.013,268.93c-0.533,0-1.075-0.086-1.608-0.267c-10.354-3.516-16.99-8.535-20.289-15.344
		c-3.03-6.253-3.015-13.797,0.046-22.423c12.752-35.938,53.339-39.477,89.148-42.599c6.307-0.55,12.265-1.069,18.046-1.75
		c2.741-0.32,5.227,1.639,5.55,4.382s-1.639,5.227-4.382,5.55c-5.931,0.698-11.961,1.223-18.346,1.78
		c-34.41,3-69.991,6.102-80.593,35.981c-2.163,6.095-2.317,10.909-0.471,14.718c2.072,4.276,6.817,7.625,14.506,10.236
		c2.615,0.888,4.015,3.728,3.126,6.342C193.04,267.618,191.096,268.93,189.013,268.93z"/>
	<path style="fill:#333333;" d="M305.464,189.264c-1.875,0-3.673-1.06-4.526-2.869c-1.178-2.498-0.108-5.477,2.39-6.655
		c7.617-3.592,11.969-8.48,13.695-15.385c1.348-5.392-0.036-8.14-1.195-9.738c-6.884-9.497-33.656-11.409-57.275-13.095
		c-17.564-1.254-35.726-2.551-49.645-6.647c-17.275-5.084-26.035-14.271-26.035-27.307c0-52.244,109.798-56.301,114.473-56.448
		l0.157-0.002c2.761,0,5.005,2.239,5.005,5c0,2.726-2.176,4.942-4.888,4.999c-1.213,0.043-27.757,1.057-53.852,7.61
		c-23.218,5.831-50.896,17.302-50.896,38.841c0,19.238,33.751,21.648,66.392,23.979c28.305,2.021,55.04,3.931,64.66,17.201
		c3.605,4.974,4.547,11.041,2.799,18.032c-2.441,9.766-8.878,17.169-19.132,22.004C306.904,189.11,306.178,189.264,305.464,189.264z
		"/>
	<path style="fill:#333333;" d="M74.015,319.018c-1.343,0-2.683-0.538-3.668-1.601c-1.877-2.025-1.757-5.189,0.268-7.066
		c12.109-11.226,20.328-24.708,24.428-40.072c8.433-31.625,3.039-52.9-17.491-68.982c-2.174-1.703-2.556-4.846-0.853-7.02
		c1.703-2.174,4.846-2.555,7.02-0.853c23.798,18.643,30.466,43.883,20.986,79.432c-4.594,17.218-13.777,32.3-27.292,44.828
		C76.451,318.577,75.231,319.018,74.015,319.018z"/>
	<path style="fill:#333333;" d="M63.81,191.476c-0.83,0-1.67-0.207-2.445-0.642c-2.061-1.158-4.104-2.272-6.101-3.362
		c-15.069-8.222-29.303-15.987-28.381-31.206c0.557-9.188,5.369-15.414,14.304-18.506c6.966-2.411,15.528-2.687,24.593-2.98
		c21.904-0.707,35.403-2.276,38.168-18.074c2.508-14.333-3.648-26.337-18.298-35.676C73.979,73.59,61.176,70.7,61.048,70.671
		c-2.694-0.596-4.398-3.263-3.805-5.958c0.593-2.695,3.259-4.4,5.951-3.809c0.584,0.128,14.448,3.229,27.602,11.548
		c18.289,11.566,26.243,27.465,23.003,45.978c-4.366,24.947-28.391,25.722-47.696,26.345c-19.858,0.641-28.625,1.978-29.238,12.096
		c-0.512,8.449,8.478,13.797,23.189,21.823c2.033,1.109,4.112,2.244,6.21,3.422c2.407,1.353,3.263,4.401,1.91,6.808
		C67.256,190.557,65.559,191.476,63.81,191.476z"/>
	<path style="opacity:0.25;enable-background:new    ;" d="M84.294,184.298c0-17.851,2.757-35.056,7.843-51.228
		c4.481,1.373,9.237,2.116,14.168,2.116c26.678,0,48.305-21.627,48.305-48.305c0-11.979-4.37-22.931-11.59-31.373
		c21.561-18.75,47.863-32.188,76.884-38.24c-11.31-2.37-23.02-3.61-35.03-3.61c-27.811,0-54.067,6.658-77.265,18.461
		c-2.365-0.356-4.785-0.543-7.248-0.543c-25.734,0-46.76,20.125-48.217,45.494c-23.703,29.303-37.909,66.605-37.909,107.229
		c0,94.24,76.4,170.64,170.64,170.64c12.01,0,23.72-1.24,35.03-3.61C142.464,335.178,84.294,266.528,84.294,184.298z"/>
	<path style="fill:#333333;" d="M127.999,350.219c-1.571,0-3.118-0.739-4.092-2.121c-1.59-2.258-1.05-5.377,1.208-6.967
		c32.741-23.065,64.488-22.033,85.354-17.106c2.688,0.635,4.352,3.328,3.717,6.015c-0.635,2.688-3.332,4.351-6.015,3.717
		c-27.448-6.481-53.453-1.25-77.298,15.549C129.999,349.922,128.994,350.219,127.999,350.219z"/>
	<path style="fill:#333333;" d="M244.71,349.138c-1.021,0-2.05-0.311-2.938-0.958c-0.142-0.103-7.623-5.459-19.68-10.108
		c-2.577-0.993-3.86-3.887-2.866-6.464c0.993-2.577,3.886-3.86,6.464-2.867c13.429,5.177,21.628,11.106,21.971,11.356
		c2.231,1.627,2.72,4.755,1.093,6.986C247.774,348.427,246.252,349.138,244.71,349.138z"/>
	<path style="fill:#333333;" d="M188.118,48.558c-19.524,0-43.52-4.203-70.046-17.811l4.564-8.897
		c30.089,15.436,60.196,20.261,89.485,14.344c21.899-4.425,35.128-13.546,35.259-13.638l5.754,8.179
		c-0.59,0.416-14.73,10.249-38.516,15.156C207.17,47.427,198.245,48.558,188.118,48.558z"/>
	<path style="fill:#333333;" d="M184.874,359.938c-20.089,0-39.787-3.363-58.546-9.996c-20.373-7.196-39.068-18.005-55.565-32.126
		C31.661,284.368,9.234,235.702,9.234,184.298c0-45.762,17.502-89.086,49.283-121.993c17.101-17.708,37.266-31.386,59.935-40.655
		c21.112-8.621,43.459-12.992,66.422-12.992c23.32,0,45.962,4.496,67.299,13.363c17.757,7.363,34.122,17.572,48.634,30.344
		l-6.606,7.507c-13.687-12.044-29.117-21.672-45.862-28.615c-20.117-8.36-41.469-12.599-63.465-12.599
		c-21.66,0-42.735,4.121-62.64,12.249c-21.375,8.74-40.393,21.641-56.524,38.344c-29.971,31.033-46.477,71.891-46.477,115.047
		c0,48.477,21.151,94.373,58.03,125.92c15.559,13.318,33.187,23.51,52.395,30.295c17.688,6.254,36.264,9.425,55.215,9.425
		c20.006,0,39.549-3.523,58.085-10.472c25.861-9.68,49.123-25.896,67.272-46.897c25.978-30.046,40.283-68.497,40.283-108.271
		c0-47.61-20.521-92.961-56.302-124.425l6.604-7.51c37.939,33.362,59.698,81.451,59.698,131.935
		c0,42.175-15.171,82.949-42.718,114.81c-19.241,22.264-43.906,39.458-71.33,49.722
		C226.807,356.201,206.083,359.938,184.874,359.938z"/>
	<circle style="fill:#FCBC1D;" cx="53.305" cy="53.881" r="48.305"/>
	<path style="opacity:0.25;enable-background:new    ;" d="M5,53.878c0,26.68,21.62,48.31,48.3,48.31c4.14,0,8.17-0.52,12-1.5
		C44.43,95.348,29,76.418,29,53.878s15.43-41.46,36.3-46.8c-3.83-0.98-7.86-1.5-12-1.5C26.62,5.578,5,27.198,5,53.878z"/>
	<path style="opacity:0.47;enable-background:new    ;" d="M47.874,70.068c0,6.06,4.74,11.01,10.71,11.35
		c-1.7-1.98-2.71-4.55-2.71-7.35c0-6.28,5.09-11.37,11.37-11.37c0.22,0,0.44,0.01,0.66,0.02c-2.07-2.46-5.18-4.02-8.66-4.02
		C52.964,58.698,47.874,63.788,47.874,70.068z"/>
	<path style="fill:#333333;" d="M59.242,86.439c-9.025,0-16.368-7.343-16.368-16.368s7.342-16.368,16.368-16.368
		S75.61,61.046,75.61,70.071c0,2.761-2.239,5-5,5s-5-2.239-5-5c0-3.511-2.857-6.368-6.368-6.368s-6.368,2.857-6.368,6.368
		s2.856,6.368,6.368,6.368c2.761,0,5,2.239,5,5S62.003,86.439,59.242,86.439z"/>
	<g>
		<path style="fill:#333333;" d="M51.64,49.566c-0.33,0-0.65-0.03-0.98-0.1c-0.32-0.06-0.63-0.16-0.93-0.28
			c-0.3-0.13-0.59-0.28-0.87-0.46c-0.27-0.18-0.52-0.39-0.76-0.62c-0.93-0.93-1.46-2.22-1.46-3.54c0-0.32,0.03-0.65,0.1-0.97
			c0.06-0.32,0.16-0.64,0.28-0.94c0.13-0.3,0.28-0.59,0.46-0.86c0.18-0.28,0.39-0.53,0.62-0.76c0.24-0.23,0.49-0.44,0.76-0.63
			c0.28-0.18,0.57-0.33,0.87-0.45c0.3-0.13,0.61-0.23,0.93-0.29c1.63-0.33,3.35,0.2,4.52,1.37c0.23,0.23,0.43,0.48,0.62,0.76
			c0.18,0.27,0.33,0.56,0.46,0.86c0.12,0.3,0.22,0.62,0.28,0.94c0.07,0.32,0.1,0.65,0.1,0.97c0,1.32-0.53,2.61-1.46,3.54
			C54.24,49.036,52.96,49.566,51.64,49.566z"/>
	</g>
	<g>
		<path style="fill:#333333;" d="M48.87,28.566c-1.31,0-2.6-0.53-3.53-1.46c-0.23-0.23-0.44-0.49-0.62-0.76s-0.34-0.56-0.46-0.86
			c-0.13-0.31-0.22-0.62-0.29-0.94c-0.06-0.32-0.1-0.65-0.1-0.98c0-0.32,0.04-0.65,0.1-0.97c0.07-0.32,0.16-0.64,0.29-0.94
			c0.12-0.3,0.28-0.59,0.46-0.86c0.18-0.28,0.39-0.53,0.62-0.76s0.48-0.44,0.76-0.62c0.27-0.18,0.56-0.34,0.86-0.46
			c0.3-0.13,0.62-0.22,0.94-0.29c0.64-0.13,1.31-0.13,1.95,0c0.32,0.07,0.63,0.16,0.94,0.29c0.3,0.12,0.59,0.28,0.86,0.46
			s0.53,0.39,0.76,0.62s0.44,0.48,0.62,0.76c0.18,0.27,0.34,0.56,0.46,0.86c0.13,0.3,0.22,0.62,0.29,0.94
			c0.06,0.32,0.09,0.65,0.09,0.97c0,1.32-0.53,2.61-1.46,3.54C51.48,28.036,50.19,28.566,48.87,28.566z"/>
	</g>
	<g>
		<path style="fill:#333333;" d="M30.87,43.566c-1.31,0-2.6-0.53-3.53-1.46s-1.47-2.22-1.47-3.54c0-1.31,0.54-2.6,1.47-3.53
			c0.93-0.93,2.22-1.47,3.53-1.47c1.32,0,2.61,0.54,3.54,1.47s1.46,2.22,1.46,3.53c0,1.32-0.53,2.61-1.46,3.54
			C33.48,43.036,32.19,43.566,30.87,43.566z"/>
	</g>
	<path style="fill:#FFFFFF;" d="M264.61,61.541c-0.907,0-1.824-0.247-2.649-0.763c-5.903-3.698-12.117-6.994-18.472-9.799
		c-2.526-1.115-3.67-4.067-2.555-6.593c1.115-2.526,4.066-3.67,6.593-2.555c6.792,2.998,13.434,6.521,19.742,10.473
		c2.34,1.466,3.049,4.551,1.583,6.892C267.903,60.709,266.275,61.541,264.61,61.541z"/>
	<path style="fill:#FFFFFF;" d="M287.708,299.283c-1.335,0-2.667-0.532-3.652-1.584c-1.886-2.017-1.781-5.181,0.235-7.067
		c29.375-27.482,46.223-66.24,46.223-106.334c0-40.323-16.17-77.856-45.532-105.684c-2.004-1.9-2.089-5.064-0.189-7.069
		s5.065-2.089,7.068-0.19c31.374,29.735,48.653,69.845,48.653,112.942c0,42.852-18.002,84.271-49.391,113.636
		C290.159,298.837,288.932,299.283,287.708,299.283z"/>
	<path style="fill:#FFFFFF;" d="M266.677,315.745c-1.637,0-3.241-0.803-4.199-2.278c-1.503-2.316-0.845-5.413,1.472-6.916
		c2.546-1.653,5.078-3.412,7.524-5.227c2.217-1.645,5.349-1.182,6.995,1.036c1.646,2.218,1.182,5.349-1.036,6.995
		c-2.613,1.939-5.317,3.817-8.039,5.583C268.554,315.484,267.61,315.745,266.677,315.745z"/>
	<path style="fill:#FFFFFF;" d="M77.563,83.138c-1.28,0-2.559-0.488-3.536-1.465c-1.953-1.953-1.953-5.118,0-7.071
		c6.884-6.884,9.886-16.726,8.031-26.329c-0.524-2.711,1.25-5.334,3.961-5.858c2.706-0.527,5.333,1.249,5.857,3.961
		c2.486,12.867-1.543,26.062-10.778,35.297C80.122,82.65,78.842,83.138,77.563,83.138z"/>
	<path style="fill:#FFFFFF;" d="M77.56,34.626c-0.32,0-0.65-0.04-0.97-0.1c-0.32-0.06-0.64-0.16-0.94-0.29
		c-0.3-0.12-0.59-0.28-0.86-0.46c-0.28-0.18-0.53-0.39-0.76-0.62c-0.93-0.93-1.47-2.21-1.47-3.53c0-0.33,0.03-0.66,0.1-0.98
		c0.06-0.32,0.16-0.63,0.29-0.93c0.12-0.31,0.27-0.6,0.46-0.87c0.18-0.27,0.39-0.53,0.62-0.76s0.48-0.44,0.76-0.62
		c0.27-0.18,0.56-0.33,0.86-0.46c0.3-0.12,0.62-0.22,0.94-0.28c0.64-0.13,1.3-0.13,1.95,0c0.32,0.06,0.63,0.16,0.93,0.28
		c0.31,0.13,0.6,0.28,0.87,0.46c0.27,0.18,0.53,0.39,0.76,0.62c0.23,0.23,0.44,0.49,0.62,0.76s0.33,0.56,0.46,0.87
		c0.12,0.3,0.22,0.61,0.28,0.93c0.07,0.32,0.1,0.65,0.1,0.98c0,1.32-0.53,2.6-1.46,3.53c-0.23,0.23-0.49,0.44-0.76,0.62
		c-0.27,0.18-0.56,0.34-0.87,0.46c-0.3,0.13-0.61,0.23-0.93,0.29C78.22,34.586,77.89,34.626,77.56,34.626z"/>
	<path style="fill:#333333;" d="M53.305,107.186C23.913,107.186,0,83.274,0,53.881S23.913,0.576,53.305,0.576
		s53.305,23.913,53.305,53.305S82.698,107.186,53.305,107.186z M53.305,10.576C29.427,10.576,10,30.002,10,53.881
		s19.427,43.305,43.305,43.305S96.61,77.76,96.61,53.881S77.184,10.576,53.305,10.576z"/>
</g>
<g>
</g>
<g>
</g>
<g>
</g>
<g>
</g>
<g>
</g>
<g>
</g>
<g>
</g>
<g>
</g>
<g>
</g>
<g>
</g>
<g>
</g>
<g>
</g>
<g>
</g>
<g>
</g>
<g>
</g>
</svg>
