<?xml version="1.0" encoding="iso-8859-1"?>
<!-- Generator: Adobe Illustrator 19.0.0, SVG Export Plug-In . SVG Version: 6.00 Build 0)  -->
<svg version="1.1" id="Layer_1" xmlns="http://www.w3.org/2000/svg" xmlns:xlink="http://www.w3.org/1999/xlink" x="0px" y="0px"
	 viewBox="0 0 377.13 377.13" style="enable-background:new 0 0 377.13 377.13;" xml:space="preserve">
<g>
	<polygon style="fill:#C11F1F;" points="287.815,343.64 287.815,372.13 35.825,372.13 35.825,343.64 66.575,343.64 165.715,343.64 
		257.065,343.64 	"/>
	<path style="fill:#F73E3E;" d="M190.075,156.22c49.9,49.89,111.55,69.32,138.52,43.89c-31.98,31.49-75.71,43.65-116.27,36.33
		c-16.38-2.94-32.25-9.07-46.61-18.4c-7.34-4.74-14.28-10.33-20.7-16.75c-4.71-4.71-8.98-9.71-12.79-14.93
		c-36.78-50.34-31.97-122.01,13.96-168.65C120.755,44.68,140.185,106.32,190.075,156.22z"/>
	<path style="opacity:0.25;enable-background:new    ;" d="M312.453,213.7c-29.71,21.28-66.04,28.89-100.13,22.74
		c-16.38-2.94-32.25-9.07-46.61-18.4c-7.34-4.74-14.28-10.33-20.7-16.75c-4.71-4.71-8.98-9.71-12.79-14.93
		c-32.76-44.84-32.52-106.59,0.38-152.51c-10.48,42.3-2.59,87.89,23.79,123.99c4.41,6.04,9.35,11.82,14.8,17.27
		c7.43,7.43,15.46,13.9,23.95,19.38c16.61,10.8,34.97,17.89,53.93,21.29C269.983,219.55,291.613,218.851,312.453,213.7z"/>
	<path style="fill:#FCBC1D;" d="M286.225,60.08c50.37,50.37,69.69,112.73,43.14,139.28c-0.26,0.26-0.51,0.51-0.77,0.75
		c-26.97,25.43-88.62,6-138.52-43.89c-49.89-49.9-69.32-111.54-43.89-138.51c0.24-0.26,0.49-0.51,0.75-0.77
		C173.485-9.61,235.845,9.7,286.225,60.08z M262.805,115.54c8.85-8.85,8.85-23.19,0-32.04c-8.85-8.85-23.2-8.85-32.05,0
		s-8.85,23.19,0,32.04S253.955,124.39,262.805,115.54z"/>
	<path style="opacity:0.25;enable-background:new    ;" d="M286.225,60.081c-50.38-50.38-112.74-69.69-139.29-43.14
		c-0.26,0.26-0.51,0.51-0.75,0.77c-7.33,7.77-10.93,18.42-11.15,30.83c30.69-0.56,72.17,19.51,107.7,55.04
		c35.52,35.52,55.6,77,55.04,107.68c12.41-0.23,23.05-3.83,30.82-11.15c0.26-0.24,0.51-0.49,0.77-0.75
		C355.915,172.811,336.595,110.45,286.225,60.081z"/>
	<path style="fill:#4A7984;" d="M257.065,343.64h-91.35v-125.6c14.36,9.33,30.23,15.46,46.61,18.4l18.35,43.97L257.065,343.64z"/>
	<path style="fill:#23464F;" d="M165.715,218.05v125.59h-99.14l65.65-157.28c3.81,5.22,8.08,10.22,12.79,14.93
		c6.42,6.42,13.36,12.01,20.7,16.75V218.05z"/>
	<path style="fill:#F24125;" d="M262.805,83.5c8.85,8.85,8.85,23.19,0,32.04c-8.85,8.85-23.2,8.85-32.05,0s-8.85-23.19,0-32.04
		S253.955,74.65,262.805,83.5z"/>
	<path style="fill:#333333;" d="M296.42,216.314c-31.983,0-73.708-20.393-109.88-56.557
		c-52.281-52.292-71.604-116.193-43.992-145.477c1.895-2.009,5.057-2.103,7.068-0.208c2.009,1.894,2.102,5.059,0.207,7.068
		c-11.008,11.675-12.845,31.462-5.171,55.718c8.016,25.337,25.403,52.266,48.959,75.827c23.56,23.555,50.49,40.942,75.831,48.958
		c24.257,7.675,44.049,5.838,55.724-5.17c2.01-1.894,5.174-1.802,7.067,0.208c1.895,2.009,1.802,5.174-0.208,7.068
		C322.997,212.261,310.675,216.314,296.42,216.314z"/>
	<path style="fill:#333333;" d="M329.365,204.36c-1.279,0-2.56-0.488-3.535-1.464c-1.953-1.953-1.953-5.119,0-7.071
		c11.464-11.464,13.607-31.243,6.034-55.692c-7.912-25.544-25.376-52.718-49.174-76.516c-23.802-23.801-50.979-41.267-76.525-49.178
		c-24.448-7.571-44.227-5.428-55.694,6.038c-1.951,1.952-5.119,1.952-7.07,0c-1.953-1.953-1.953-5.119,0-7.071
		c14.215-14.216,37.557-17.243,65.723-8.519c27.071,8.384,55.709,26.73,80.638,51.659c24.927,24.926,43.271,53.561,51.656,80.629
		c8.724,28.166,5.7,51.506-8.517,65.722C331.925,203.872,330.644,204.36,329.365,204.36z"/>
	<path style="fill:#23464F;" d="M230.675,280.41c-6.16-0.22-12.29-0.87-18.35-1.97c-16.38-2.94-32.25-9.07-46.61-18.4v-42
		c14.36,9.33,30.23,15.46,46.61,18.4L230.675,280.41z"/>
	<path style="fill:#333333;" d="M235.39,243.503c-7.977,0-15.988-0.705-23.953-2.142c-17.424-3.127-33.726-9.563-48.446-19.127
		c-7.685-4.962-14.926-10.822-21.511-17.407c-4.834-4.834-9.307-10.055-13.294-15.519c-18.605-25.465-27.479-57.09-24.982-89.049
		c2.517-32.215,16.496-62.755,39.368-86.005c0.259-0.278,0.527-0.548,0.807-0.828c1.949-1.955,5.125-1.966,7.08-0.016
		c1.954,1.951,1.966,5.107,0.016,7.062c-0.226,0.226-0.426,0.425-0.618,0.633c-0.035,0.038-0.071,0.076-0.108,0.113
		c-21.251,21.579-34.239,49.926-36.574,79.818c-2.311,29.579,5.89,58.834,23.089,82.374c3.685,5.049,7.818,9.875,12.288,14.344
		c6.087,6.087,12.774,11.499,19.877,16.085c13.608,8.842,28.671,14.787,44.781,17.679c40.403,7.292,82.232-5.781,111.879-34.972
		c0.038-0.038,0.077-0.075,0.117-0.111c0.21-0.194,0.411-0.397,0.621-0.608c1.95-1.955,5.117-1.958,7.071-0.007
		s1.957,5.117,0.007,7.071c-0.288,0.289-0.567,0.566-0.854,0.833C305.936,229.412,271.053,243.502,235.39,243.503z"/>
	<path style="fill:#333333;" d="M246.78,127.165c-7.084,0-14.168-2.696-19.561-8.089c-10.783-10.783-10.783-28.328,0-39.111
		c10.785-10.785,28.336-10.785,39.121,0l0,0c10.783,10.783,10.783,28.328,0,39.111C260.948,124.469,253.864,127.165,246.78,127.165z
		 M246.78,81.871c-4.523,0-9.047,1.722-12.49,5.165c-6.883,6.884-6.883,18.085,0,24.969c6.887,6.886,18.092,6.887,24.98,0
		c6.883-6.884,6.883-18.085,0-24.969l0,0C255.827,83.593,251.304,81.871,246.78,81.871z"/>
	<path style="fill:#FFFFFF;" d="M253.612,111.348c-1.28,0-2.56-0.488-3.536-1.465c-1.952-1.953-1.952-5.119,0.001-7.071
		c0.894-0.893,1.365-2.031,1.365-3.291s-0.473-2.399-1.365-3.292c-0.894-0.894-2.033-1.366-3.297-1.366c-2.762,0-5-2.239-5-5
		s2.238-5,5-5c3.916,0,7.599,1.525,10.367,4.294c2.77,2.77,4.295,6.45,4.295,10.363c0,3.914-1.525,7.594-4.295,10.363
		C256.171,110.859,254.891,111.348,253.612,111.348z"/>
	<path style="fill:#333333;" d="M66.573,348.642c-0.643,0-1.295-0.125-1.924-0.387c-2.549-1.064-3.752-3.992-2.688-6.54
		l65.65-157.28c1.063-2.549,3.995-3.751,6.54-2.688c2.549,1.064,3.752,3.992,2.688,6.54l-65.65,157.28
		C70.388,347.485,68.53,348.642,66.573,348.642z"/>
	<path style="fill:#333333;" d="M257.067,348.642c-1.957,0-3.815-1.157-4.616-3.076l-44.74-107.2
		c-1.063-2.548,0.14-5.477,2.688-6.54c2.547-1.063,5.477,0.141,6.54,2.688l44.74,107.2c1.063,2.548-0.14,5.477-2.688,6.54
		C258.362,348.518,257.709,348.642,257.067,348.642z"/>
	<path style="fill:#333333;" d="M165.715,348.641c-2.762,0-5-2.239-5-5v-125.59c0-2.761,2.238-5,5-5s5,2.239,5,5v125.59
		C170.715,346.402,168.476,348.641,165.715,348.641z"/>
	<path style="fill:#333333;" d="M287.815,377.13H35.825c-2.762,0-5-2.239-5-5v-28.49c0-2.761,2.238-5,5-5h251.99
		c2.762,0,5,2.239,5,5v28.49C292.815,374.892,290.577,377.13,287.815,377.13z M40.825,367.13h241.99v-18.49H40.825V367.13z"/>
	<path style="fill:#333333;" d="M191.581,159.718c-1.279,0-2.56-0.488-3.535-1.464c-1.953-1.953-1.953-5.119,0-7.071l39.173-39.173
		c1.951-1.952,5.119-1.952,7.07,0c1.953,1.953,1.953,5.119,0,7.071l-39.173,39.173C194.14,159.229,192.86,159.718,191.581,159.718z"
		/>
	<path style="fill:#333333;" d="M143.651,93.757c-2.624,0-4.826-2.044-4.986-4.699c-0.166-2.756,1.934-5.125,4.689-5.292
		l87.098-5.26c2.745-0.178,5.127,1.933,5.293,4.689c0.166,2.756-1.934,5.125-4.689,5.292l-87.098,5.26
		C143.855,93.754,143.753,93.757,143.651,93.757z"/>
	<path style="fill:#333333;" d="M257.546,207.643c-0.102,0-0.204-0.003-0.307-0.009c-2.756-0.167-4.855-2.536-4.689-5.292
		l5.261-87.098c0.166-2.756,2.546-4.865,5.293-4.689c2.756,0.167,4.855,2.536,4.689,5.292l-5.261,87.098
		C262.372,205.598,260.169,207.643,257.546,207.643z"/>
	<rect x="195.571" y="343.64" style="fill:#F73E3E;" width="92.244" height="28.49"/>
	<g>
		<rect x="195.571" y="343.64" style="fill:#F73E3E;" width="92.244" height="28.49"/>
		<path style="fill:#333333;" d="M287.815,377.13h-92.244c-2.762,0-5-2.239-5-5v-28.49c0-2.761,2.238-5,5-5h92.244
			c2.762,0,5,2.239,5,5v28.49C292.815,374.892,290.577,377.13,287.815,377.13z M200.571,367.13h82.244v-18.49h-82.244V367.13z"/>
	</g>
	<path style="fill:#FFFFFF;" d="M276.204,360.457c-1.319,0-2.609-0.53-3.54-1.46c-0.229-0.23-0.439-0.49-0.619-0.76
		c-0.181-0.27-0.341-0.56-0.46-0.86c-0.131-0.31-0.221-0.62-0.29-0.94c-0.061-0.32-0.091-0.65-0.091-0.98
		c0-0.32,0.03-0.65,0.091-0.97c0.069-0.32,0.159-0.64,0.29-0.94c0.119-0.3,0.279-0.59,0.46-0.86c0.18-0.28,0.39-0.53,0.619-0.76
		c1.16-1.16,2.891-1.7,4.511-1.37c0.319,0.07,0.64,0.16,0.939,0.29c0.3,0.12,0.59,0.28,0.86,0.46c0.28,0.18,0.53,0.39,0.76,0.62
		c0.23,0.23,0.44,0.48,0.63,0.76c0.17,0.27,0.33,0.56,0.46,0.86c0.12,0.3,0.221,0.62,0.28,0.94c0.06,0.32,0.1,0.65,0.1,0.97
		c0,0.33-0.04,0.66-0.1,0.98s-0.16,0.63-0.28,0.94c-0.13,0.3-0.279,0.59-0.46,0.86c-0.189,0.27-0.399,0.53-0.63,0.76
		c-0.229,0.23-0.479,0.44-0.76,0.62c-0.271,0.18-0.561,0.33-0.86,0.46c-0.3,0.12-0.62,0.22-0.939,0.29
		C276.854,360.427,276.524,360.457,276.204,360.457z"/>
	<path style="fill:#FFFFFF;" d="M222.973,304.026c-1.957,0-3.815-1.157-4.616-3.076l-2.823-6.766
		c-1.063-2.548,0.141-5.476,2.688-6.54c2.552-1.063,5.477,0.141,6.54,2.689l2.823,6.766c1.063,2.548-0.141,5.476-2.688,6.54
		C224.267,303.902,223.615,304.026,222.973,304.026z"/>
	<path style="fill:#FFFFFF;" d="M234.595,331.871c-1.957,0-3.815-1.157-4.616-3.076l-5.753-13.785
		c-1.063-2.548,0.14-5.477,2.688-6.54c2.548-1.064,5.478,0.141,6.54,2.688l5.753,13.785c1.063,2.548-0.14,5.477-2.688,6.54
		C235.889,331.747,235.236,331.871,234.595,331.871z"/>
</g>
<g>
</g>
<g>
</g>
<g>
</g>
<g>
</g>
<g>
</g>
<g>
</g>
<g>
</g>
<g>
</g>
<g>
</g>
<g>
</g>
<g>
</g>
<g>
</g>
<g>
</g>
<g>
</g>
<g>
</g>
</svg>
