<?xml version="1.0" encoding="iso-8859-1"?>
<!-- Generator: Adobe Illustrator 19.0.0, SVG Export Plug-In . SVG Version: 6.00 Build 0)  -->
<svg version="1.1" id="Layer_1" xmlns="http://www.w3.org/2000/svg" xmlns:xlink="http://www.w3.org/1999/xlink" x="0px" y="0px"
	 viewBox="0 0 471.859 471.859" style="enable-background:new 0 0 471.859 471.859;" xml:space="preserve">
<g>
	<path style="fill:#53AEF9;" d="M317.661,286.543c4.092,2.78,66.202,46.322,52.793,134.461c0,0-11.875-27.419-57.596-35.647
		C319.04,353.512,320.051,319.978,317.661,286.543z"/>
	<path style="fill:#399EE2;" d="M370.454,421.004l-61.632-17.879c1.534-5.86,2.88-11.775,4.036-17.768
		C358.579,393.585,370.454,421.004,370.454,421.004z"/>
	<path style="fill:#399EE2;" d="M317.661,286.543c2.391,33.435,1.379,66.969-4.803,98.814c-1.156,5.993-2.502,11.908-4.036,17.768
		c-2.124,8.083-4.625,16.034-7.516,23.817h-12.842H183.399h-12.842c-2.891-7.783-5.393-15.733-7.516-23.828
		c-1.534-5.849-2.88-11.775-4.036-17.757c-6.182-31.845-7.194-65.391-4.803-98.825c3.247-45.187,12.731-90.186,24.15-130.514
		c17.879,6.827,37.293,10.563,57.574,10.563s39.695-3.736,57.585-10.563C304.93,196.346,314.414,241.344,317.661,286.543z"/>
	<path style="fill:#53AEF9;" d="M291.141,286.543c1.615,33.435,0.931,66.969-3.245,98.814c-0.781,5.993-1.69,11.908-2.727,17.768
		c-1.435,8.083-3.125,16.034-5.077,23.817h-8.675h-70.971h-8.675c-1.953-7.783-3.643-15.733-5.077-23.828
		c-1.037-5.849-1.945-11.775-2.727-17.757c-4.176-31.845-4.86-65.391-3.245-98.825c2.193-45.187,8.6-90.186,16.314-130.514
		c12.078,6.827,25.192,10.563,38.892,10.563s26.814-3.736,38.899-10.563C282.54,196.346,288.947,241.344,291.141,286.543z"/>
	<polygon style="fill:#E81F1F;" points="288.462,426.942 303.417,466.859 168.445,466.859 183.399,426.942 	"/>
	<polygon style="fill:#F73E3E;" points="269.636,426.942 279.232,466.859 192.63,466.859 202.226,426.942 	"/>
	<path style="fill:#399EE2;" d="M293.51,156.018c-6.171,2.346-12.509,4.336-19.002,5.915c-12.364,3.047-25.284,4.648-38.583,4.648
		c-13.298,0-26.219-1.601-38.572-4.648c-6.505-1.579-12.842-3.558-19.002-5.915c2.468-8.717,5.026-17.223,7.628-25.462
		c4.014,1.601,8.117,3.013,12.309,4.225c11.942,3.458,24.573,5.315,37.638,5.315s25.696-1.857,37.649-5.315
		c4.192-1.212,8.295-2.624,12.309-4.225C288.485,138.794,291.042,147.3,293.51,156.018z"/>
	<path style="fill:#80C8F9;" d="M277.221,159.909c-0.901,0.7-1.801,1.368-2.713,2.024c-12.364,3.047-25.284,4.648-38.583,4.648
		c-13.298,0-26.219-1.601-38.572-4.648c-0.912-0.656-1.812-1.323-2.713-2.024c1.19-8.517,2.413-16.912,3.647-25.129
		c11.942,3.458,24.573,5.315,37.638,5.315s25.696-1.857,37.649-5.315C274.808,142.997,276.031,151.392,277.221,159.909z"/>
	<path style="fill:#E81F1F;" d="M285.883,130.555c-7.238,2.891-14.788,5.17-22.594,6.76c-8.84,1.823-17.99,2.78-27.364,2.78
		c-9.373,0-18.524-0.956-27.364-2.78c-7.794-1.59-15.344-3.869-22.583-6.76C209.106,57.393,235.925,5,235.925,5
		S262.744,57.393,285.883,130.555z"/>
	<path style="fill:#F73E3E;" d="M263.289,137.316c-8.84,1.823-17.99,2.78-27.364,2.78c-9.373,0-18.524-0.956-27.364-2.78
		C221.337,60.05,235.925,5,235.925,5S250.513,60.05,263.289,137.316z"/>
	<path style="fill:#399EE2;" d="M235.925,190.097c25.296,0,45.799,20.503,45.799,45.799s-20.503,45.799-45.799,45.799
		s-45.799-20.503-45.799-45.799S210.63,190.097,235.925,190.097z M266.347,235.896c0-16.801-13.621-30.421-30.421-30.421
		s-30.421,13.621-30.421,30.421s13.621,30.421,30.421,30.421S266.347,252.697,266.347,235.896z"/>
	<path style="fill:#399EE2;" d="M235.925,305.212c25.296,0,45.799,20.503,45.799,45.788c0,25.296-20.503,45.799-45.799,45.799
		S190.126,376.295,190.126,351C190.126,325.715,210.63,305.212,235.925,305.212z M266.347,351c0-16.801-13.621-30.421-30.421-30.421
		s-30.422,13.62-30.422,30.421c0,16.812,13.621,30.433,30.421,30.433S266.347,367.811,266.347,351z"/>
	<path style="fill:#FFFFFF;" d="M214.413,214.385c-11.88,11.88-11.88,31.143,0,43.022c5.944,5.944,13.728,8.916,21.511,8.916
		c7.784,0,15.567-2.972,21.511-8.916c11.88-11.88,11.88-31.143,0-43.022c-5.944-5.944-13.727-8.916-21.511-8.916
		C228.141,205.469,220.357,208.441,214.413,214.385z"/>
	<path style="fill:#FFFFFF;" d="M257.44,329.49c-11.88-11.88-31.143-11.88-43.022,0c-11.888,11.888-11.888,31.15-0.008,43.03
		s31.143,11.88,43.03-0.008C269.319,360.632,269.319,341.37,257.44,329.49z"/>
	<path style="fill:#399EE2;" d="M163.041,403.114l-61.632,17.89c0,0,11.875-27.419,57.596-35.647
		C160.161,391.339,161.506,397.266,163.041,403.114z"/>
	<path style="fill:#53AEF9;" d="M154.201,286.532c-2.391,33.435-1.379,66.981,4.803,98.825
		c-45.721,8.228-57.596,35.647-57.596,35.647C87.977,332.787,150.209,289.234,154.201,286.532z"/>
	<path style="fill:#333333;" d="M301.305,431.942h-12.843c-2.762,0-5-2.239-5-5s2.238-5,5-5h9.339
		c2.317-6.528,4.394-13.27,6.185-20.087c1.505-5.749,2.839-11.62,3.963-17.445c5.672-29.221,7.262-62.026,4.726-97.51
		c-2.865-39.878-10.931-83.456-23.974-129.52c-2.366-8.353-4.918-16.871-7.585-25.319c-17.196-54.371-36.629-97.589-45.19-115.64
		c-8.561,18.051-27.991,61.269-45.179,115.641c-2.663,8.432-5.215,16.95-7.585,25.318c-13.042,46.063-21.108,89.637-23.973,129.51
		c-2.538,35.486-0.948,68.295,4.724,97.514c1.136,5.875,2.469,11.741,3.964,17.441c1.788,6.816,3.864,13.561,6.184,20.097h9.339
		c2.761,0,5,2.239,5,5s-2.239,5-5,5h-12.842c-2.09,0-3.959-1.3-4.687-3.259c-2.916-7.851-5.496-16.026-7.666-24.301
		c-1.55-5.911-2.933-11.993-4.109-18.077c-5.839-30.076-7.481-63.767-4.881-100.13c2.914-40.553,11.098-84.802,24.326-131.52
		c2.397-8.463,4.978-17.079,7.671-25.606C204.2,56.328,231.206,3.249,231.476,2.721C232.33,1.051,234.049,0,235.925,0
		s3.595,1.051,4.451,2.722c0.271,0.528,27.275,53.606,50.274,126.326c2.698,8.545,5.278,17.16,7.671,25.608
		c13.229,46.718,21.413,90.971,24.327,131.529c2.599,36.361,0.956,70.048-4.883,100.125c-1.164,6.033-2.546,12.118-4.107,18.082
		c-2.176,8.279-4.755,16.451-7.666,24.291C305.265,430.642,303.395,431.942,301.305,431.942z"/>
	<path style="fill:#333333;" d="M101.408,426.005c-0.944,0-1.88-0.268-2.692-0.787c-1.213-0.775-2.034-2.037-2.25-3.461
		c-5.714-37.526,1.412-73.064,20.606-102.771c14.603-22.601,31.157-34.449,34.327-36.595c0.09-0.061,0.181-0.119,0.274-0.173
		c2.282-1.525,5.312-0.888,6.856,1.383c1.545,2.271,0.911,5.402-1.347,6.964c0,0-0.096,0.066-0.29,0.184
		c-2.243,1.535-17.838,12.643-31.421,33.665c-17.138,26.524-23.817,56.833-19.885,90.172l56.061-16.273
		c0.036-0.01,0.072-0.021,0.108-0.03l0.167-0.044c2.669-0.707,5.407,0.878,6.118,3.546c0.71,2.668-0.878,5.407-3.546,6.118
		l-0.113,0.03l-61.578,17.875C102.345,425.939,101.876,426.005,101.408,426.005z"/>
	<path style="fill:#333333;" d="M370.453,426.005c-0.467,0-0.936-0.065-1.394-0.198l-61.631-17.879
		c-0.034-0.01-0.068-0.02-0.102-0.031l-0.178-0.056c-2.636-0.825-4.103-3.631-3.277-6.266c0.826-2.637,3.637-4.101,6.266-3.277
		l0.127,0.04l56.011,16.249c3.924-33.313-2.745-63.604-19.856-90.111c-13.605-21.077-29.34-32.271-31.484-33.739
		c-0.182-0.114-0.266-0.171-0.266-0.171c-2.272-1.553-2.883-4.663-1.342-6.943c1.533-2.268,4.583-2.893,6.868-1.391
		c0.066,0.041,0.213,0.133,0.275,0.176c3.182,2.161,19.788,14.085,34.351,36.645c19.165,29.691,26.28,65.206,20.575,102.705
		c-0.217,1.424-1.037,2.685-2.251,3.461C372.334,425.737,371.398,426.005,370.453,426.005z"/>
	<path style="fill:#333333;" d="M235.925,145.095c-17.896,0-35.323-3.33-51.797-9.896c-2.565-1.022-3.816-3.931-2.793-6.496
		c1.022-2.565,3.93-3.815,6.496-2.793c15.292,6.095,31.473,9.185,48.095,9.185c16.629,0,32.815-3.09,48.106-9.185
		c2.57-1.024,5.474,0.229,6.496,2.793c1.022,2.565-0.229,5.474-2.793,6.496C271.26,141.766,253.828,145.095,235.925,145.095z"/>
	<path style="fill:#333333;" d="M274.507,166.946c-2.25,0-4.293-1.528-4.853-3.811c-0.657-2.682,0.984-5.389,3.666-6.046
		c6.227-1.525,12.42-3.458,18.408-5.742c2.576-0.986,5.47,0.309,6.454,2.889s-0.31,5.469-2.89,6.454
		c-6.374,2.432-12.966,4.488-19.592,6.112C275.301,166.899,274.901,166.946,274.507,166.946z"/>
	<path style="fill:#333333;" d="M256.683,170.067c-2.459,0-4.603-1.814-4.947-4.318c-0.377-2.736,1.535-5.259,4.271-5.635
		c1.382-0.19,2.757-0.398,4.126-0.624c2.73-0.452,5.297,1.396,5.747,4.121c0.449,2.725-1.396,5.297-4.12,5.747
		c-1.457,0.24-2.92,0.461-4.39,0.663C257.139,170.052,256.909,170.067,256.683,170.067z"/>
	<path style="fill:#333333;" d="M235.925,171.581c-20.458,0-40.429-3.665-59.358-10.892c-2.58-0.985-3.873-3.875-2.887-6.455
		c0.985-2.58,3.874-3.872,6.455-2.887c17.785,6.791,36.556,10.234,55.791,10.234c2.021,0,4.072-0.039,6.098-0.117
		c2.769-0.105,5.081,2.047,5.187,4.806c0.105,2.759-2.046,5.082-4.806,5.187C240.252,171.539,238.072,171.581,235.925,171.581z"/>
	<path style="fill:#333333;" d="M235.925,401.799c-28.011,0-50.799-22.788-50.799-50.799c0-28.005,22.788-50.788,50.799-50.788
		c8.455,0,16.83,2.121,24.217,6.133c2.427,1.318,3.326,4.354,2.008,6.78c-1.316,2.426-4.353,3.326-6.779,2.008
		c-5.929-3.219-12.652-4.921-19.446-4.921c-22.497,0-40.799,18.297-40.799,40.788c0,22.497,18.302,40.799,40.799,40.799
		s40.799-18.302,40.799-40.799c0-10.894-4.244-21.136-11.949-28.84c-1.953-1.952-1.953-5.118-0.001-7.071
		c1.953-1.953,5.118-1.954,7.071,0c9.595,9.593,14.879,22.347,14.879,35.912C286.725,379.01,263.937,401.799,235.925,401.799z"/>
	<path style="fill:#333333;" d="M235.925,286.695c-28.011,0-50.799-22.788-50.799-50.799s22.788-50.799,50.799-50.799
		c8.011,0,15.992,1.914,23.079,5.534c2.459,1.256,3.435,4.268,2.179,6.727c-1.257,2.46-4.269,3.434-6.728,2.178
		c-5.767-2.945-12.001-4.439-18.53-4.439c-22.497,0-40.799,18.302-40.799,40.799s18.302,40.799,40.799,40.799
		s40.799-18.302,40.799-40.799c0-10.898-4.244-21.145-11.949-28.85c-1.953-1.953-1.953-5.118-0.001-7.071
		c1.953-1.952,5.12-1.952,7.071,0c9.595,9.594,14.879,22.351,14.879,35.921C286.725,263.907,263.937,286.695,235.925,286.695z"/>
	<path style="fill:#333333;" d="M303.417,471.859H168.445c-1.64,0-3.175-0.804-4.109-2.151s-1.148-3.067-0.573-4.603l14.955-39.917
		c0.731-1.952,2.597-3.246,4.682-3.246h105.063c2.085,0,3.951,1.293,4.683,3.246l14.955,39.917c0.575,1.536,0.36,3.255-0.573,4.603
		C306.592,471.055,305.057,471.859,303.417,471.859z M175.657,461.859h120.547l-11.208-29.917h-98.13L175.657,461.859z"/>
	<path style="fill:#C3E7FC;" d="M214.413,214.385c-11.88,11.88-11.88,31.143,0,43.022c5.944,5.944,13.728,8.916,21.511,8.916
		v-60.854C228.141,205.469,220.357,208.441,214.413,214.385z"/>
	<path style="fill:#C3E7FC;" d="M214.684,329.223c-11.88,11.88-11.88,31.142,0,43.022c5.944,5.944,13.728,8.916,21.511,8.916
		v-60.854C228.412,320.307,220.628,323.279,214.684,329.223z"/>
	<path style="fill:#333333;" d="M235.925,271.318c-9.461,0-18.357-3.685-25.047-10.375s-10.375-15.585-10.375-25.047
		s3.685-18.357,10.375-25.047s15.585-10.375,25.047-10.375s18.357,3.685,25.046,10.375c6.69,6.69,10.375,15.585,10.375,25.047
		s-3.685,18.357-10.375,25.047C254.282,267.633,245.387,271.318,235.925,271.318z M235.925,210.487
		c-6.51,0-13.02,2.478-17.976,7.434c-9.912,9.912-9.912,26.04,0,35.951c9.912,9.913,26.04,9.912,35.952,0
		c9.911-9.912,9.911-26.04,0-35.951C248.945,212.965,242.436,210.487,235.925,210.487z"/>
	<path style="fill:#333333;" d="M235.925,386.432c-19.531,0-35.421-15.895-35.421-35.432c0-19.532,15.89-35.422,35.421-35.422
		c19.532,0,35.421,15.89,35.421,35.422C271.347,370.537,255.457,386.432,235.925,386.432z M235.925,325.578
		c-14.018,0-25.421,11.404-25.421,25.422c0,14.023,11.404,25.432,25.421,25.432s25.421-11.409,25.421-25.432
		C261.347,336.982,249.943,325.578,235.925,325.578z"/>
	<path style="fill:#FFFFFF;" d="M281.024,455.029c-2.025,0-3.931-1.239-4.684-3.247l-2.343-6.253
		c-0.969-2.586,0.343-5.468,2.929-6.437c2.584-0.969,5.467,0.343,6.437,2.928l2.343,6.253c0.969,2.586-0.343,5.468-2.929,6.437
		C282.199,454.926,281.606,455.029,281.024,455.029z"/>
	<path style="fill:#FFFFFF;" d="M242.691,62.762c-1.96,0-3.819-1.159-4.619-3.082c-1.228-2.953-2.423-5.785-3.579-8.49
		c-1.085-2.539,0.093-5.478,2.633-6.563c2.537-1.084,5.477,0.093,6.563,2.633c1.168,2.734,2.377,5.596,3.618,8.581
		c1.06,2.55-0.147,5.476-2.697,6.536C243.981,62.638,243.33,62.762,242.691,62.762z"/>
	<path style="fill:#FFFFFF;" d="M264.389,120.053c-2.079,0-4.02-1.306-4.73-3.382c-4.378-12.788-9.137-25.758-14.144-38.548
		c-1.006-2.572,0.262-5.472,2.834-6.479c2.571-1.007,5.472,0.262,6.479,2.833c5.059,12.924,9.867,26.03,14.292,38.954
		c0.895,2.613-0.498,5.456-3.111,6.35C265.472,119.965,264.925,120.053,264.389,120.053z"/>
	<path style="fill:#FFFFFF;" d="M286.525,195.788c-2.259,0-4.307-1.541-4.857-3.833c-1-4.16-2.047-8.363-3.113-12.491
		c-0.69-2.674,0.917-5.401,3.59-6.092c2.675-0.688,5.401,0.917,6.092,3.591c1.081,4.183,2.142,8.441,3.154,12.656
		c0.646,2.685-1.009,5.385-3.693,6.03C287.304,195.743,286.911,195.788,286.525,195.788z"/>
	<path style="fill:#FFFFFF;" d="M293.769,404.171c-0.419,0-0.845-0.053-1.27-0.165c-2.671-0.699-4.27-3.432-3.57-6.103
		c1.418-5.419,2.675-10.951,3.734-16.442c5.415-27.892,6.923-59.331,4.483-93.452c-1.745-24.292-5.525-50.292-11.236-77.276
		c-0.572-2.702,1.155-5.355,3.856-5.927s5.354,1.155,5.927,3.856c5.805,27.429,9.649,53.885,11.428,78.632
		c2.502,34.998,0.94,67.319-4.641,96.066c-1.1,5.699-2.404,11.446-3.878,17.075C298.015,402.683,295.987,404.171,293.769,404.171z"
		/>
</g>
<g>
</g>
<g>
</g>
<g>
</g>
<g>
</g>
<g>
</g>
<g>
</g>
<g>
</g>
<g>
</g>
<g>
</g>
<g>
</g>
<g>
</g>
<g>
</g>
<g>
</g>
<g>
</g>
<g>
</g>
</svg>
