<?xml version="1.0" encoding="iso-8859-1"?>
<!-- Generator: Adobe Illustrator 19.0.0, SVG Export Plug-In . SVG Version: 6.00 Build 0)  -->
<svg version="1.1" id="Layer_1" xmlns="http://www.w3.org/2000/svg" xmlns:xlink="http://www.w3.org/1999/xlink" x="0px" y="0px"
	 viewBox="0 0 464.518 464.518" style="enable-background:new 0 0 464.518 464.518;" xml:space="preserve">
<g>
	
		<rect x="394.088" y="253.216" transform="matrix(0.7071 0.7071 -0.7071 0.7071 324.2587 -213.0432)" style="fill:#FCBC1D;" width="50.415" height="63.355"/>
	<polygon style="fill:#FCBC1D;" points="388.228,209.022 423.87,244.664 379.07,289.464 343.428,253.821 349.228,248.021 	"/>
	<polygon style="fill:#FCBC1D;" points="219.848,40.642 255.49,76.284 216.491,115.284 210.691,121.084 175.048,85.442 	"/>
	
		<rect x="154.426" y="13.545" transform="matrix(0.7071 0.7071 -0.7071 0.7071 84.5893 -113.771)" style="fill:#FCBC1D;" width="50.406" height="63.355"/>
	<path style="fill:#FCBC1D;" d="M278.765,144.826c9.778,1.916,19.109,6.668,26.685,14.244s12.328,16.907,14.237,26.678
		c-11.434,6.107-25.971,4.345-35.616-5.3S272.657,156.259,278.765,144.826z"/>
	
		<rect x="349.284" y="298.013" transform="matrix(0.7071 0.7071 -0.7071 0.7071 342.8164 -168.2397)" style="fill:#FCBC1D;" width="50.415" height="63.365"/>
	<polygon style="fill:#FCBC1D;" points="343.428,253.821 379.07,289.464 334.264,334.27 298.621,298.628 328.383,268.866 	"/>
	<polygon style="fill:#FCBC1D;" points="175.048,85.442 210.691,121.084 195.646,136.129 165.884,165.891 130.242,130.248 	"/>
	
		<rect x="109.622" y="58.343" transform="matrix(0.7071 0.7071 -0.7071 0.7071 103.147 -68.9674)" style="fill:#FCBC1D;" width="50.406" height="63.365"/>
	<path style="fill:#23464F;" d="M305.443,232.576l-73.507-73.507c12.728-12.728,30.409-17.474,46.829-14.244
		c-6.107,11.434-4.338,25.977,5.306,35.622s24.182,11.407,35.616,5.3c0.654,3.324,0.981,6.695,0.981,10.072
		C320.674,209.122,315.595,222.424,305.443,232.576z"/>
	<polygon style="fill:#F9911E;" points="231.936,159.069 305.443,232.576 297.146,240.873 276.302,261.717 253.581,284.438 
		234.759,303.26 161.252,229.753 180.074,210.931 202.795,188.21 223.639,167.366 	"/>
	<path style="opacity:0.25;enable-background:new    ;" d="M231.936,159.069l73.507,73.507l-8.296,8.296l-20.845,20.845
		l-22.72,22.72c0,0,34.808-25.446-18.822,18.822C270.129,223.529,231.936,159.069,231.936,159.069z"/>
	
		<rect x="304.48" y="342.821" transform="matrix(0.7071 0.7071 -0.7071 0.7071 361.3741 -123.4362)" style="fill:#FCBC1D;" width="50.415" height="63.355"/>
	<polygon style="fill:#FCBC1D;" points="298.621,298.628 334.264,334.27 289.464,379.07 253.822,343.428 260.73,336.519 	"/>
	<polygon style="fill:#FCBC1D;" points="130.242,130.248 165.884,165.891 127.993,203.782 121.085,210.69 85.442,175.048 	"/>
	
		<rect x="64.818" y="103.151" transform="matrix(0.7071 0.7071 -0.7071 0.7071 121.705 -24.1638)" style="fill:#FCBC1D;" width="50.406" height="63.355"/>
	<polygon style="fill:#23464F;" points="161.252,229.753 234.759,303.26 219.848,318.171 207.126,305.449 159.07,257.392 
		146.341,244.664 	"/>
	
		<rect x="259.68" y="387.621" transform="matrix(0.7071 0.7071 -0.7071 0.7071 379.9308 -78.6362)" style="fill:#FCBC1D;" width="50.415" height="63.355"/>
	
		<rect x="224.039" y="351.976" transform="matrix(0.7071 0.7071 -0.7071 0.7071 344.2851 -63.8711)" style="fill:#FCBC1D;" width="50.406" height="63.355"/>
	
		<rect x="55.66" y="183.593" transform="matrix(0.7071 0.7071 -0.7071 0.7071 175.9036 5.8731)" style="fill:#FCBC1D;" width="50.406" height="63.355"/>
	
		<rect x="20.018" y="147.951" transform="matrix(0.7071 0.7071 -0.7071 0.7071 140.2614 20.6359)" style="fill:#FCBC1D;" width="50.406" height="63.355"/>
	<g>
		<polygon style="fill:#FCD277;" points="219.848,40.642 255.49,76.284 216.491,115.284 210.691,121.084 		"/>
		<polygon style="fill:#FCD277;" points="184.206,5 219.848,40.642 175.048,85.442 		"/>
		<polygon style="fill:#FCD277;" points="175.048,85.442 210.691,121.084 195.646,136.129 165.884,165.891 		"/>
		<polygon style="fill:#FCD277;" points="139.406,49.8 175.048,85.442 130.242,130.248 		"/>
		<polygon style="fill:#FCD277;" points="130.242,130.248 165.884,165.891 127.993,203.782 121.085,210.69 		"/>
		<polygon style="fill:#FCD277;" points="85.442,175.048 130.242,130.248 94.6,94.606 		"/>
		<polygon style="fill:#FCD277;" points="85.442,175.048 121.085,210.69 76.285,255.49 		"/>
		<polygon style="fill:#FCD277;" points="49.8,139.406 85.442,175.048 40.643,219.848 		"/>
	</g>
	<polygon style="fill:#FCBC1D;" points="207.128,305.449 205.639,306.949 198.008,314.569 188.149,304.709 152.779,340.079 
		162.639,349.939 151.959,360.619 151.548,360.209 103.899,312.569 114.578,301.889 124.439,311.739 159.808,276.369 
		150.358,266.919 149.949,266.509 150.169,266.289 157.578,258.889 159.068,257.389 	"/>
	<polygon style="fill:#23464F;" points="198.009,314.567 210.844,327.402 175.469,362.777 162.634,349.942 152.775,340.084 
		188.151,304.708 	"/>
	<polygon style="fill:#23464F;" points="149.952,266.51 159.81,276.368 124.435,311.743 114.577,301.885 101.742,289.05 
		137.117,253.675 	"/>
	<path style="fill:#333333;" d="M219.849,323.171c-1.279,0-2.559-0.488-3.535-1.464l-12.723-12.722
		c-1.953-1.953-1.953-5.118-0.001-7.071c1.953-1.953,5.118-1.953,7.071,0l9.188,9.187l82.06-82.06
		c8.879-8.879,13.766-20.677,13.76-33.219c0-3.054-0.299-6.117-0.888-9.108c-0.906-4.642-2.504-9.095-4.749-13.242
		c-1.314-2.429-0.411-5.463,2.018-6.777c2.428-1.316,5.463-0.412,6.777,2.017c2.728,5.04,4.668,10.449,5.768,16.079
		c0.712,3.619,1.074,7.333,1.074,11.03c0.007,15.213-5.92,29.523-16.689,40.292l-85.595,85.595
		C222.408,322.682,221.128,323.171,219.849,323.171z"/>
	<path style="fill:#333333;" d="M305.449,164.069c-1.28,0-2.56-0.488-3.536-1.465c-1.729-1.73-3.6-3.333-5.56-4.765
		c-2.23-1.629-2.717-4.757-1.088-6.987c1.628-2.229,4.758-2.717,6.986-1.087c2.375,1.735,4.641,3.676,6.733,5.769
		c1.952,1.953,1.952,5.119-0.001,7.071C308.008,163.581,306.729,164.069,305.449,164.069z"/>
	<path style="fill:#333333;" d="M159.069,262.392c-1.279,0-2.56-0.488-3.535-1.464L142.806,248.2c-1.953-1.953-1.953-5.119,0-7.071
		l85.595-85.595c13.453-13.454,32.646-19.292,51.329-15.614c2.791,0.547,5.562,1.31,8.231,2.267c2.6,0.932,3.951,3.794,3.02,6.394
		c-0.933,2.6-3.796,3.953-6.395,3.019c-2.198-0.788-4.48-1.417-6.783-1.868c-15.417-3.035-31.239,1.78-42.332,12.873l-82.059,82.059
		l9.192,9.193c1.953,1.953,1.953,5.119,0,7.071C161.629,261.904,160.349,262.392,159.069,262.392z"/>
	<path style="fill:#333333;" d="M305.443,236.576c-1.023,0-2.047-0.391-2.828-1.171l-73.508-73.507
		c-1.563-1.562-1.563-4.095,0-5.657c1.561-1.562,4.094-1.562,5.656,0l73.508,73.507c1.563,1.562,1.563,4.095,0,5.657
		C307.491,236.185,306.467,236.576,305.443,236.576z"/>
	<path style="fill:#333333;" d="M180.08,215.931c-0.227,0-0.455-0.015-0.686-0.047l-52.081-7.148
		c-2.736-0.375-4.649-2.898-4.273-5.633c0.376-2.736,2.899-4.649,5.633-4.274l52.081,7.148c2.736,0.375,4.649,2.898,4.273,5.633
		C184.684,214.116,182.54,215.931,180.08,215.931z"/>
	<path style="fill:#D37A22;" d="M155.399,342.699l7.24,7.24l-10.68,10.68l-0.41-0.41
		C153.199,354.239,154.459,348.389,155.399,342.699z"/>
	<path style="opacity:0.25;enable-background:new    ;" d="M205.639,306.949l-7.63,7.62l-9.86-9.86l-31.87,31.87
		c2.64-20.84,0.99-39.44-2.1-54.58c-1.13-5.51-2.44-10.56-3.82-15.08c-0.06-0.21-0.13-0.42-0.19-0.63l7.41-7.4L205.639,306.949z"/>
	<path style="fill:#333333;" d="M223.634,172.366c-2.46,0-4.604-1.815-4.947-4.321l-7.148-52.082
		c-0.376-2.735,1.537-5.258,4.273-5.633c2.743-0.381,5.258,1.539,5.633,4.274l7.148,52.082c0.376,2.735-1.537,5.258-4.273,5.633
		C224.089,172.351,223.859,172.366,223.634,172.366z"/>
	<path style="fill:#333333;" d="M202.789,193.211c-2.46,0-4.604-1.815-4.947-4.321l-7.148-52.082
		c-0.376-2.735,1.537-5.258,4.273-5.633c2.743-0.38,5.258,1.539,5.633,4.274l7.148,52.082c0.376,2.735-1.537,5.258-4.273,5.633
		C203.244,193.196,203.015,193.211,202.789,193.211z"/>
	<path style="fill:#333333;" d="M260.724,341.52c-2.46,0-4.604-1.815-4.947-4.321l-7.148-52.082
		c-0.376-2.735,1.537-5.258,4.273-5.633c2.746-0.38,5.257,1.539,5.633,4.274l7.148,52.082c0.376,2.735-1.537,5.258-4.273,5.633
		C261.179,341.505,260.949,341.52,260.724,341.52z"/>
	<path style="fill:#333333;" d="M349.234,253.022c-0.227,0-0.455-0.015-0.686-0.047l-52.082-7.148
		c-2.736-0.375-4.649-2.898-4.273-5.633c0.375-2.736,2.904-4.65,5.633-4.274l52.082,7.148c2.736,0.375,4.649,2.898,4.273,5.633
		C353.838,251.206,351.694,253.022,349.234,253.022z"/>
	<path style="fill:#333333;" d="M328.39,273.867c-0.227,0-0.455-0.015-0.686-0.047l-52.082-7.148
		c-2.736-0.375-4.649-2.898-4.273-5.633c0.376-2.736,2.899-4.651,5.633-4.274l52.082,7.148c2.736,0.375,4.649,2.898,4.273,5.633
		C332.993,272.051,330.85,273.867,328.39,273.867z"/>
	<g>
		<polygon style="fill:#FCD277;" points="423.87,244.664 459.512,280.306 420.513,319.306 414.712,325.106 		"/>
		<polygon style="fill:#FCD277;" points="388.228,209.022 423.87,244.664 379.07,289.464 		"/>
		<polygon style="fill:#FCD277;" points="379.07,289.464 414.712,325.106 399.668,340.15 369.906,369.912 		"/>
		<polygon style="fill:#FCD277;" points="343.428,253.821 379.07,289.464 334.264,334.27 		"/>
		<polygon style="fill:#FCD277;" points="334.264,334.27 369.906,369.912 332.014,407.804 325.106,414.712 		"/>
		<polygon style="fill:#FCD277;" points="289.464,379.07 334.264,334.27 298.621,298.628 		"/>
		<polygon style="fill:#FCD277;" points="289.464,379.07 325.106,414.712 280.306,459.512 		"/>
		<polygon style="fill:#FCD277;" points="253.822,343.428 289.464,379.07 244.664,423.87 		"/>
	</g>
	<path style="fill:#333333;" d="M76.285,260.49c-1.279,0-2.56-0.488-3.535-1.464l-35.643-35.642l0,0L1.465,187.741
		C0.526,186.803,0,185.532,0,184.205s0.526-2.598,1.465-3.536L180.671,1.464c1.951-1.952,5.119-1.952,7.07,0l71.284,71.285
		c1.953,1.953,1.953,5.119,0,7.071L79.82,259.026C78.845,260.002,77.564,260.49,76.285,260.49z M44.178,216.312l32.107,32.106
		L248.419,76.285l-64.213-64.213L12.071,184.205L44.178,216.312z"/>
	<path style="fill:#333333;" d="M206.388,59.102c-1.279,0-2.56-0.488-3.536-1.464c-1.952-1.953-1.952-5.119,0.001-7.071
		l13.461-13.46c1.951-1.952,5.118-1.952,7.071,0c1.952,1.953,1.952,5.119-0.001,7.071l-13.461,13.46
		C208.947,58.614,207.667,59.102,206.388,59.102z"/>
	<path style="fill:#333333;" d="M40.643,224.848c-1.279,0-2.56-0.488-3.535-1.464c-1.953-1.953-1.953-5.119,0-7.071L191.519,61.901
		c1.951-1.952,5.119-1.952,7.07,0c1.953,1.953,1.953,5.119,0,7.071L44.178,223.384C43.202,224.36,41.922,224.848,40.643,224.848z"/>
	<path style="fill:#333333;" d="M210.69,126.084c-1.279,0-2.56-0.488-3.535-1.464l-71.284-71.285c-1.953-1.953-1.953-5.119,0-7.071
		c1.951-1.952,5.119-1.952,7.07,0l71.284,71.285c1.953,1.953,1.953,5.119,0,7.071C213.25,125.596,211.97,126.084,210.69,126.084z"/>
	<path style="fill:#333333;" d="M165.884,170.891c-1.279,0-2.56-0.488-3.535-1.464l-14.851-14.851c-1.953-1.953-1.953-5.119,0-7.071
		c1.951-1.952,5.119-1.952,7.07,0l14.851,14.851c1.953,1.953,1.953,5.119,0,7.071C168.443,170.402,167.163,170.891,165.884,170.891z
		"/>
	<path style="fill:#333333;" d="M141.033,146.04c-1.279,0-2.56-0.488-3.535-1.464L91.064,98.142c-1.953-1.953-1.953-5.119,0-7.071
		c1.951-1.952,5.119-1.952,7.07,0l46.434,46.434c1.953,1.953,1.953,5.119,0,7.071C143.593,145.552,142.313,146.04,141.033,146.04z"
		/>
	<path style="fill:#333333;" d="M121.085,215.69c-1.279,0-2.56-0.488-3.535-1.464L66.034,162.71c-1.953-1.953-1.953-5.119,0-7.071
		c1.951-1.952,5.119-1.952,7.07,0l51.516,51.516c1.953,1.953,1.953,5.119,0,7.071C123.645,215.202,122.364,215.69,121.085,215.69z"
		/>
	<path style="fill:#333333;" d="M59.901,154.508c-1.279,0-2.56-0.488-3.535-1.464l-10.102-10.102c-1.953-1.953-1.953-5.119,0-7.071
		c1.951-1.952,5.119-1.952,7.07,0l10.102,10.102c1.953,1.953,1.953,5.119,0,7.071C62.461,154.019,61.181,154.508,59.901,154.508z"/>
	<path style="fill:#333333;" d="M280.313,464.518c-1.279,0-2.56-0.488-3.535-1.464l-71.291-71.291c-1.953-1.953-1.953-5.119,0-7.071
		l179.205-179.206c1.951-1.952,5.119-1.952,7.07,0l71.291,71.291c1.953,1.953,1.953,5.119,0,7.071L283.849,463.054
		C282.873,464.03,281.593,464.518,280.313,464.518z M248.199,420.334l32.114,32.114l172.134-172.135l-64.22-64.22L216.094,388.227
		L248.199,420.334z"/>
	<path style="fill:#333333;" d="M361.075,312.458c-1.279,0-2.56-0.488-3.535-1.464c-1.953-1.953-1.953-5.119,0-7.071l62.795-62.794
		c1.951-1.952,5.119-1.952,7.07,0c1.953,1.953,1.953,5.119,0,7.071l-62.795,62.794C363.635,311.97,362.354,312.458,361.075,312.458z
		"/>
	<path style="fill:#333333;" d="M244.664,428.87c-1.279,0-2.56-0.488-3.535-1.464c-1.953-1.953-1.953-5.119,0-7.071l101.079-101.079
		c1.951-1.952,5.119-1.952,7.07,0c1.953,1.953,1.953,5.119,0,7.071L248.199,427.405C247.224,428.381,245.943,428.87,244.664,428.87z
		"/>
	<path style="fill:#333333;" d="M414.719,330.113c-1.279,0-2.56-0.488-3.535-1.464l-19.203-19.204c-1.953-1.953-1.953-5.119,0-7.071
		c1.951-1.952,5.119-1.952,7.07,0l19.203,19.204c1.953,1.953,1.953,5.119,0,7.071C417.278,329.624,415.998,330.113,414.719,330.113z
		"/>
	<path style="fill:#333333;" d="M387.175,302.569c-1.279,0-2.56-0.488-3.536-1.464l-43.746-43.747c-1.953-1.953-1.953-5.119,0-7.071
		c1.951-1.952,5.119-1.952,7.07,0l43.747,43.747c1.953,1.953,1.953,5.119,0,7.071C389.734,302.08,388.454,302.569,387.175,302.569z"
		/>
	<path style="fill:#333333;" d="M369.912,374.919c-1.279,0-2.56-0.488-3.535-1.464l-71.291-71.291c-1.953-1.953-1.953-5.119,0-7.071
		c1.951-1.952,5.119-1.952,7.07,0l71.291,71.291c1.953,1.953,1.953,5.119,0,7.071C372.472,374.431,371.191,374.919,369.912,374.919z
		"/>
	<path style="fill:#333333;" d="M325.113,419.719c-1.279,0-2.56-0.488-3.535-1.464L273.7,370.377c-1.953-1.953-1.953-5.119,0-7.071
		c1.951-1.952,5.119-1.952,7.07,0l47.878,47.877c1.953,1.953,1.953,5.119,0,7.071C327.673,419.23,326.393,419.719,325.113,419.719z"
		/>
	<path style="fill:#333333;" d="M266.897,361.503c-1.279,0-2.56-0.488-3.535-1.464l-13.076-13.076c-1.953-1.953-1.953-5.119,0-7.071
		c1.951-1.952,5.119-1.952,7.07,0l13.076,13.076c1.953,1.953,1.953,5.119,0,7.071C269.457,361.015,268.177,361.503,266.897,361.503z
		"/>
	<path style="fill:#333333;" d="M305.398,194.353c-9.095,0-18.048-3.556-24.862-10.37c-11.056-11.055-13.54-27.738-6.182-41.514
		c1.301-2.436,4.331-3.356,6.766-2.054c2.436,1.301,3.355,4.33,2.055,6.766c-5.187,9.709-3.364,21.935,4.432,29.73
		c7.915,7.916,19.861,9.693,29.725,4.425c2.436-1.302,5.465-0.381,6.766,2.054c1.301,2.436,0.381,5.465-2.055,6.766
		C316.762,192.978,311.052,194.353,305.398,194.353z"/>
	<path style="fill:#333333;" d="M234.759,308.26c-1.279,0-2.56-0.488-3.535-1.464l-23.637-23.638c-1.953-1.953-1.953-5.119,0-7.071
		c1.951-1.952,5.119-1.952,7.07,0l23.637,23.638c1.953,1.953,1.953,5.119,0,7.071C237.318,307.772,236.038,308.26,234.759,308.26z"
		/>
	<path style="fill:#333333;" d="M200.454,273.955c-1.279,0-2.56-0.488-3.535-1.464l-39.202-39.202c-1.953-1.953-1.953-5.119,0-7.071
		c1.951-1.952,5.119-1.952,7.07,0l39.202,39.202c1.953,1.953,1.953,5.119,0,7.071C203.014,273.467,201.733,273.955,200.454,273.955z
		"/>
	<path style="fill:#333333;" d="M151.954,365.621c-1.326,0-2.598-0.527-3.535-1.464L100.362,316.1
		c-0.938-0.938-1.465-2.209-1.465-3.536s0.526-2.598,1.465-3.536l10.68-10.679c1.951-1.952,5.119-1.952,7.07,0
		c1.953,1.953,1.953,5.119,0,7.071l-7.144,7.144l40.985,40.986l7.145-7.144c1.951-1.952,5.119-1.952,7.07,0
		c1.953,1.953,1.953,5.119,0,7.071l-10.68,10.68C154.552,365.095,153.28,365.621,151.954,365.621z"/>
	<path style="fill:#333333;" d="M198.009,319.567c-1.279,0-2.56-0.488-3.535-1.464c-1.953-1.953-1.953-5.118,0-7.071l5.581-5.582
		l-40.985-40.985l-5.582,5.582c-1.951,1.952-5.119,1.952-7.07,0c-1.953-1.953-1.953-5.119,0-7.071l9.117-9.117
		c1.951-1.952,5.119-1.952,7.07,0l48.057,48.057c1.953,1.953,1.953,5.119,0,7.071l-9.117,9.118
		C200.568,319.078,199.288,319.567,198.009,319.567z"/>
	<path style="fill:#333333;" d="M124.436,316.744c-1.326,0-2.598-0.527-3.535-1.464l-22.694-22.694
		c-0.938-0.938-1.465-2.209-1.465-3.536s0.526-2.598,1.465-3.536l35.376-35.375c1.951-1.952,5.119-1.952,7.07,0l22.693,22.693
		c1.953,1.953,1.953,5.119,0,7.071l-35.375,35.375C127.033,316.217,125.762,316.744,124.436,316.744z M108.813,289.05l15.623,15.623
		l28.304-28.304l-15.622-15.623L108.813,289.05z"/>
	<path style="fill:#333333;" d="M175.469,367.777c-1.326,0-2.598-0.527-3.535-1.464l-22.693-22.694
		c-1.953-1.953-1.953-5.119,0-7.071l35.375-35.375c1.951-1.952,5.119-1.952,7.07,0l22.693,22.693c1.953,1.953,1.953,5.119,0,7.071
		l-35.375,35.375C178.066,367.25,176.795,367.777,175.469,367.777z M159.847,340.083l15.622,15.623l28.304-28.304L188.15,311.78
		L159.847,340.083z"/>
	<path style="fill:#FFFFFF;" d="M254.598,165.632c-1.572,0-3.063-0.933-3.7-2.477c-0.842-2.042,0.132-4.381,2.174-5.223
		c4.974-2.05,10.227-3.089,15.613-3.089c2.209,0,4,1.791,4,4s-1.791,4-4,4c-4.336,0-8.563,0.836-12.564,2.486
		C255.621,165.535,255.105,165.632,254.598,165.632z"/>
	<path style="fill:#FFFFFF;" d="M302.873,213.979c-0.51,0-1.028-0.098-1.529-0.306c-2.041-0.846-3.01-3.186-2.164-5.227
		c1.653-3.989,2.49-8.234,2.488-12.618c0-2.152-0.21-4.308-0.624-6.411c-1.252-6.412-4.374-12.258-9.029-16.914
		c-1.563-1.563-1.563-4.095,0-5.657c1.561-1.562,4.096-1.562,5.656,0c5.786,5.786,9.667,13.058,11.224,21.031
		c0.513,2.604,0.773,5.281,0.773,7.949c0.002,5.44-1.04,10.717-3.098,15.682C305.932,213.049,304.442,213.979,302.873,213.979z"/>
	<path style="fill:#FFFFFF;" d="M181.682,234.421c-1.023,0-2.048-0.391-2.828-1.171c-1.563-1.563-1.563-4.095,0-5.657l5.957-5.957
		c1.561-1.562,4.096-1.562,5.656,0c1.563,1.563,1.563,4.095,0,5.657l-5.957,5.957C183.729,234.031,182.705,234.421,181.682,234.421z
		"/>
	<path style="fill:#FFFFFF;" d="M199.389,216.714c-1.023,0-2.047-0.391-2.828-1.171c-1.563-1.562-1.563-4.095,0-5.657l32.262-32.262
		c1.561-1.562,4.094-1.562,5.656,0c1.563,1.562,1.563,4.095,0,5.657l-32.262,32.262
		C201.437,216.324,200.412,216.714,199.389,216.714z"/>
	<path style="fill:#FFFFFF;" d="M115.18,292.895c-1.023,0-2.048-0.391-2.828-1.171c-1.563-1.563-1.563-4.095,0-5.657l22.5-22.5
		c1.561-1.562,4.096-1.562,5.656,0c1.563,1.563,1.563,4.095,0,5.657l-22.5,22.5C117.228,292.504,116.203,292.895,115.18,292.895z"/>
	<path style="fill:#FFFFFF;" d="M165.944,343.66c-1.023,0-2.048-0.391-2.828-1.171c-1.563-1.563-1.563-4.095,0-5.657l22.5-22.5
		c1.561-1.562,4.096-1.562,5.656,0c1.563,1.563,1.563,4.095,0,5.657l-22.5,22.5C167.992,343.269,166.968,343.66,165.944,343.66z"/>
</g>
<g>
</g>
<g>
</g>
<g>
</g>
<g>
</g>
<g>
</g>
<g>
</g>
<g>
</g>
<g>
</g>
<g>
</g>
<g>
</g>
<g>
</g>
<g>
</g>
<g>
</g>
<g>
</g>
<g>
</g>
</svg>
