<?xml version="1.0" encoding="iso-8859-1"?>
<!-- Generator: Adobe Illustrator 19.0.0, SVG Export Plug-In . SVG Version: 6.00 Build 0)  -->
<svg version="1.1" id="Layer_1" xmlns="http://www.w3.org/2000/svg" xmlns:xlink="http://www.w3.org/1999/xlink" x="0px" y="0px"
	 viewBox="0 0 425.782 425.782" style="enable-background:new 0 0 425.782 425.782;" xml:space="preserve">
<g>
	<path style="fill:#F24125;" d="M252.461,107.801c0.07,0,0.14,0.02,0.2,0.03c26.13,4.74,43.88,14.02,43.88,24.69
		c0,2.94-1.35,5.77-3.84,8.43c-7.7,8.2-26.3,14.78-50.11,17.81l9.87-50.95L252.461,107.801L252.461,107.801z"/>
	<path style="fill:#F24125;" d="M172.811,107.891l9.87,50.8c-24.45-3.17-43.33-10.09-50.4-18.66l-0.01-0.01
		c-1.98-2.39-3.03-4.9-3.03-7.5C129.241,121.891,146.851,112.651,172.811,107.891z"/>
	<path style="fill:#F24125;" d="M252.461,107.801v0.01l-9.87,50.95c-9.23,1.18-19.24,1.82-29.7,1.82c-10.65,0-20.84-0.67-30.21-1.89
		l-9.87-50.8c0.06-0.02,0.12-0.03,0.19-0.04c11.86-2.16,25.44-3.39,39.89-3.39C227.211,104.461,240.681,105.671,252.461,107.801z"/>
	<path style="opacity:0.25;enable-background:new    ;" d="M252.461,107.801c0.07,0,0.14,0.02,0.2,0.03
		c26.13,4.74,43.88,14.02,43.88,24.69c0,2.94-1.35,5.77-3.84,8.43c-7.7,8.2-26.3,14.78-50.11,17.81l9.87-50.95L252.461,107.801
		L252.461,107.801z"/>
	<path style="opacity:0.25;enable-background:new    ;" d="M172.811,107.891l9.87,50.8c-24.45-3.17-43.33-10.09-50.4-18.66
		l-0.01-0.01c-1.98-2.39-3.03-4.9-3.03-7.5C129.241,121.891,146.851,112.651,172.811,107.891z"/>
	<path style="opacity:0.25;enable-background:new    ;" d="M252.461,107.801v0.01l-9.87,50.95c-9.23,1.18-19.24,1.82-29.7,1.82
		c-10.65,0-20.84-0.67-30.21-1.89l-9.87-50.8c0.06-0.02,0.12-0.03,0.19-0.04c11.86-2.16,25.44-3.39,39.89-3.39
		C227.211,104.461,240.681,105.671,252.461,107.801z"/>
	<path style="fill:#F24125;" d="M296.541,125.071v7.45c0-10.67-17.75-19.95-43.88-24.69v-0.02v-31.13
		c0-30.26-15.9-56.79-39.83-71.68c0.02,0,0.04,0,0.06,0c23.11,0,44.01,9.43,59.15,24.71c15.15,15.27,24.5,36.38,24.5,59.68V125.071z
		"/>
	<path style="fill:#F24125;" d="M252.661,107.831c-0.06-0.01-0.13-0.03-0.2-0.03c-11.78-2.13-25.25-3.34-39.57-3.34
		c-14.45,0-28.03,1.23-39.89,3.39l-0.01-0.04v-31.13c0-30.26,15.91-56.79,39.84-71.68c23.93,14.89,39.83,41.42,39.83,71.68v31.13
		V107.831z"/>
	<path style="fill:#F24125;" d="M172.991,107.811l0.01,0.04c-0.07,0.01-0.13,0.02-0.19,0.04c-25.96,4.76-43.57,14-43.57,24.63v-7.45
		v-35.68c0-46.59,37.41-84.36,83.59-84.39c-23.93,14.89-39.84,41.42-39.84,71.68V107.811z"/>
	<path style="opacity:0.25;enable-background:new    ;" d="M172.991,107.811l0.01,0.04c-0.07,0.01-0.13,0.02-0.19,0.04
		c-25.96,4.76-43.57,14-43.57,24.63v-7.45v-35.68c0-46.59,37.41-84.36,83.59-84.39c-23.93,14.89-39.84,41.42-39.84,71.68V107.811z"
		/>
	<path style="fill:#61CCF2;" d="M212.891,337.481c10.37,0,18.78,8.41,18.78,18.78c0,10.38-8.41,18.78-18.78,18.78
		s-18.78-8.4-18.78-18.78C194.111,345.891,202.521,337.481,212.891,337.481z"/>
	<path style="fill:#FFFFFF;" d="M212.891,337.481c10.37,0,18.78,8.41,18.78,18.78c0,10.38-8.41,18.78-18.78,18.78"/>
	<path style="fill:#FCBC1D;" d="M247.451,321.781h-69.12h-16.65l-1.08-0.26l1.97-8.08c1.56-6.38,7.27-10.87,13.84-10.87h28.31h5.92
		h4.08h6.34h28.31c6.56,0,12.28,4.49,13.84,10.87l1.97,8.07l-1.09,0.27H247.451z"/>
	<path style="fill:#1AA5E2;" d="M178.331,321.781l-8.84,71.8v0.44h-25.04l-1.1,0.04c-0.06-0.95,0.03-1.9,0.26-2.85l16.99-69.69
		l1.08,0.26H178.331z"/>
	<path style="fill:#1AA5E2;" d="M282.171,391.231c0.23,0.95,0.32,1.91,0.26,2.85l-1.8-0.06h-24.34v-0.44l-8.84-71.8h16.64l1.09-0.27
		L282.171,391.231z"/>
	<path style="fill:#1AA5E2;" d="M256.291,393.581v0.44h-86.8v-0.44l8.84-71.8h69.12L256.291,393.581z M231.671,356.261
		c0-10.37-8.41-18.78-18.78-18.78s-18.78,8.41-18.78,18.78c0,10.38,8.41,18.78,18.78,18.78S231.671,366.641,231.671,356.261z"/>
	<path style="fill:#FCBC1D;" d="M280.631,394.021l1.8,0.06c-0.15,3.17-1.81,6.14-4.58,7.89c-0.02,0.02-0.03,0.03-0.05,0.04
		c-9.69,6.12-20.17,10.81-31.1,13.97c-10.93,3.17-22.31,4.8-33.81,4.8c-22.38,0-44.28-6.18-63.3-17.77
		c-0.47-0.29-1.08-0.68-1.75-1.11c-2.72-1.77-4.34-4.71-4.49-7.84l1.1-0.04h25.04h86.8L280.631,394.021L280.631,394.021z"/>
	<path style="fill:#333333;" d="M212.891,425.782c-23.252,0-46.04-6.397-65.901-18.5c-0.514-0.316-1.15-0.723-1.85-1.173
		c-4.029-2.621-6.556-7.029-6.783-11.809c-0.087-1.354,0.044-2.814,0.394-4.262l18.963-77.78
		c2.115-8.648,9.804-14.686,18.697-14.686h72.96c8.895,0,16.584,6.038,18.697,14.682l1.971,8.072v0.001l16.989,69.721
		c0.353,1.452,0.484,2.914,0.394,4.35c-0.223,4.708-2.736,9.092-6.731,11.693c-0.072,0.051-0.146,0.1-0.22,0.147l0.001,0.001
		c-10.047,6.345-20.942,11.239-32.382,14.545C236.658,424.1,224.814,425.782,212.891,425.782z M176.411,307.572
		c-4.272,0-7.967,2.902-8.983,7.058l-18.959,77.766c-0.112,0.467-0.155,0.912-0.127,1.348c0.079,1.658,0.91,3.111,2.227,3.967
		c0.615,0.395,1.197,0.768,1.646,1.044c18.272,11.135,39.262,17.027,60.677,17.027c10.98,0,21.887-1.548,32.417-4.603
		c10.476-3.028,20.45-7.498,29.653-13.288c0.072-0.051,0.145-0.1,0.219-0.146c1.337-0.845,2.181-2.303,2.257-3.9
		c0.031-0.511-0.012-0.967-0.126-1.435l-18.958-77.783c-1.016-4.154-4.709-7.056-8.982-7.056L176.411,307.572L176.411,307.572z"/>
	<path style="fill:#333333;" d="M199.571,326.782h-37.89c-2.762,0-5-2.239-5-5s2.238-5,5-5h37.89c2.762,0,5,2.239,5,5
		S202.333,326.782,199.571,326.782z"/>
	<path style="fill:#333333;" d="M264.091,326.782h-50.02c-2.762,0-5-2.239-5-5s2.238-5,5-5h50.02c2.762,0,5,2.239,5,5
		S266.853,326.782,264.091,326.782z"/>
	<path style="fill:#333333;" d="M169.497,398.582c-0.203,0-0.409-0.012-0.617-0.038c-2.74-0.337-4.688-2.833-4.352-5.574
		l1.766-14.338c0.338-2.74,2.817-4.692,5.574-4.352c2.74,0.337,4.688,2.833,4.352,5.573l-1.766,14.338
		C174.141,396.725,171.986,398.582,169.497,398.582z"/>
	<path style="fill:#333333;" d="M172.922,370.764c-0.203,0-0.409-0.012-0.617-0.038c-2.74-0.337-4.688-2.833-4.352-5.573
		l5.457-44.311c0.342-2.739,2.827-4.683,5.581-4.341c2.74,0.343,4.684,2.841,4.341,5.582l-0.04,0.32l-5.413,43.972
		C177.566,368.907,175.411,370.764,172.922,370.764z"/>
	<polygon style="fill:#333333;" points="251.328,394.192 242.45,322.081 252.372,320.841 252.412,321.161 261.254,392.971 	"/>
	<path style="fill:#333333;" d="M280.632,399.021h-39.561c-2.762,0-5-2.239-5-5s2.238-5,5-5h39.561c2.762,0,5,2.239,5,5
		S283.393,399.021,280.632,399.021z"/>
	<path style="fill:#333333;" d="M228.071,399.021h-83.62c-2.762,0-5-2.239-5-5s2.238-5,5-5h83.62c2.762,0,5,2.239,5,5
		S230.833,399.021,228.071,399.021z"/>
	<path style="fill:#333333;" d="M212.891,380.041c-13.112,0-23.78-10.667-23.78-23.78s10.668-23.78,23.78-23.78
		s23.779,10.668,23.779,23.78S226.004,380.041,212.891,380.041z M212.891,342.481c-7.599,0-13.78,6.182-13.78,13.78
		s6.182,13.78,13.78,13.78c7.598,0,13.779-6.182,13.779-13.78C226.671,348.663,220.489,342.481,212.891,342.481z"/>
	<path style="fill:#333333;" d="M296.541,138.222c-2.762,0-5-2.239-5-5v-43.83c0-21.233-8.186-41.178-23.05-56.159
		c-14.844-14.982-34.589-23.231-55.6-23.231c-43.394,0.028-78.65,35.643-78.65,79.39v43.83c0,2.761-2.238,5-5,5
		c-2.762,0-5-2.239-5-5v-43.83c0-49.258,39.74-89.358,88.587-89.39c23.763,0,46.03,9.301,62.765,26.191
		c16.732,16.864,25.948,39.31,25.948,63.199v43.83C301.541,135.983,299.302,138.222,296.541,138.222z"/>
	<path style="fill:#FFFFFF;" d="M256.782,40.022c-0.91,0-1.826-0.309-2.576-0.942c-1.382-1.165-2.826-2.283-4.291-3.323
		c-1.801-1.278-2.226-3.775-0.946-5.577c1.277-1.801,3.774-2.227,5.577-0.947c1.645,1.167,3.266,2.423,4.816,3.73
		c1.689,1.424,1.904,3.948,0.479,5.637C259.05,39.538,257.921,40.022,256.782,40.022z"/>
	<path style="fill:#FFFFFF;" d="M281.541,106.781c-2.209,0-4-1.791-4-4v-13.39c0-15.621-5.218-30.148-15.09-42.011
		c-1.413-1.698-1.183-4.22,0.516-5.633c1.695-1.413,4.219-1.183,5.633,0.516c10.925,13.127,16.941,29.865,16.941,47.128v13.39
		C285.541,104.99,283.75,106.781,281.541,106.781z"/>
	<path style="fill:#333333;" d="M183.932,40.078c-0.836,0-1.684-0.21-2.464-0.653c-2.401-1.363-3.243-4.415-1.88-6.816
		c7.357-12.959,17.938-23.974,30.601-31.853c2.346-1.461,5.428-0.74,6.887,1.604c1.459,2.345,0.741,5.428-1.604,6.887
		c-11.25,7-20.651,16.787-27.187,28.299C187.365,39.168,185.674,40.078,183.932,40.078z"/>
	<path style="fill:#333333;" d="M172.991,112.811c-2.762,0-5-2.239-5-5v-31.13c0-8.921,1.31-17.729,3.894-26.18
		c0.807-2.641,3.603-4.128,6.243-3.32c2.641,0.808,4.127,3.603,3.319,6.244c-2.293,7.502-3.456,15.327-3.456,23.256v31.13
		C177.991,110.573,175.753,112.811,172.991,112.811z"/>
	<path style="fill:#333333;" d="M252.661,112.811c-2.762,0-5-2.239-5-5v-14.53c0-2.761,2.238-5,5-5s5,2.239,5,5v14.53
		C257.661,110.573,255.423,112.811,252.661,112.811z"/>
	<path style="fill:#333333;" d="M252.661,81.681c-2.762,0-5-2.239-5-5c0-27.626-14.008-52.835-37.472-67.435
		c-2.345-1.458-3.063-4.542-1.604-6.887c1.459-2.344,4.542-3.063,6.887-1.604c26.417,16.437,42.188,44.82,42.188,75.925
		C257.661,79.443,255.423,81.681,252.661,81.681z"/>
	<path style="fill:#333333;" d="M212.891,165.581c-10.63,0-21.011-0.65-30.855-1.932c-26.084-3.382-45.592-10.801-53.55-20.361
		c-0.021-0.025-0.043-0.051-0.064-0.077c-2.774-3.347-4.181-6.944-4.181-10.69c0-13.197,17.306-23.95,47.487-29.515
		c0.165-0.039,0.313-0.066,0.443-0.086c12.451-2.263,26.53-3.459,40.72-3.459c14.023,0,27.941,1.17,40.265,3.385
		c0.177,0.022,0.326,0.05,0.445,0.075l0,0c30.497,5.554,47.939,16.334,47.939,29.6c0,4.183-1.746,8.168-5.189,11.847
		c-8.537,9.09-27.899,16.142-53.129,19.353C233.567,164.955,223.362,165.581,212.891,165.581z M136.074,136.774
		c0.021,0.025,0.043,0.05,0.063,0.076c6.135,7.436,24.216,13.905,47.187,16.883c9.421,1.227,19.368,1.849,29.567,1.849
		c10.048,0,19.827-0.599,29.066-1.779c22.29-2.837,40.336-9.072,47.099-16.273c1.646-1.759,2.484-3.446,2.484-5.007
		c0-6.235-13.646-15.022-39.722-19.761c-0.083-0.011-0.166-0.023-0.248-0.038c-11.794-2.133-25.169-3.261-38.68-3.261
		c-13.609,0-27.079,1.142-38.956,3.302c-0.073,0.017-0.147,0.032-0.223,0.046c-19.614,3.597-39.472,11.522-39.472,19.712
		C134.241,133.877,134.84,135.269,136.074,136.774z M252.455,112.802c0.002,0,0.004,0,0.006,0
		C252.459,112.802,252.457,112.802,252.455,112.802z M252.451,112.802L252.451,112.802L252.451,112.802z M174.404,112.631
		c-0.084,0.028-0.169,0.054-0.254,0.078C174.236,112.685,174.32,112.66,174.404,112.631z"/>
	<path style="fill:#333333;" d="M204.724,307.573c-1.914,0-3.74-1.105-4.57-2.966l-72.389-162.425
		c-0.906-1.9-0.544-4.247,1.063-5.776c1.999-1.904,5.16-1.833,7.064,0.167c0.394,0.414,0.724,0.901,0.956,1.423l72.44,162.54
		c1.124,2.522-0.01,5.478-2.532,6.602C206.095,307.433,205.404,307.573,204.724,307.573z"/>
	<path style="fill:#333333;" d="M221.058,307.573c-0.681,0-1.371-0.14-2.032-0.435c-2.522-1.124-3.656-4.08-2.531-6.603
		l71.92-161.35c1.124-2.522,4.082-3.655,6.602-2.531c2.522,1.125,3.656,4.08,2.531,6.603l-71.92,161.35
		C224.799,306.468,222.972,307.573,221.058,307.573z"/>
	<path style="fill:#333333;" d="M210.635,307.573c-2.346,0-4.438-1.658-4.902-4.047L167.91,108.879
		c-0.525-2.594,1.06-5.208,3.65-5.872c2.672-0.684,5.389,0.888,6.074,3.563c0.024,0.095,0.066,0.271,0.085,0.367l37.83,194.68
		c0.526,2.71-1.244,5.335-3.954,5.862C211.273,307.542,210.952,307.573,210.635,307.573z"/>
	<path style="fill:#333333;" d="M214.727,307.573c-0.315,0-0.636-0.03-0.957-0.092c-2.711-0.525-4.482-3.149-3.957-5.86
		l37.738-194.76c0.525-2.711,3.148-4.488,5.86-3.958c2.711,0.525,4.482,3.148,3.958,5.859l-37.74,194.761
		C219.167,305.912,217.073,307.573,214.727,307.573z"/>
	<path style="fill:#FFFFFF;" d="M269.524,387.497c-1.802,0-3.438-1.226-3.884-3.054l-8.988-36.888
		c-0.522-2.146,0.793-4.31,2.939-4.833c2.147-0.525,4.31,0.792,4.834,2.939l8.988,36.888c0.522,2.146-0.793,4.31-2.939,4.833
		C270.156,387.46,269.838,387.497,269.524,387.497z"/>
	<path style="fill:#FFFFFF;" d="M251.074,316.78c-0.26,0-0.53-0.02-0.78-0.08c-0.26-0.05-0.51-0.12-0.75-0.23
		c-0.239-0.1-0.479-0.22-0.689-0.36c-0.22-0.15-0.43-0.32-0.61-0.5c-0.189-0.18-0.35-0.39-0.5-0.61c-0.14-0.22-0.27-0.45-0.37-0.69
		c-0.1-0.24-0.17-0.49-0.22-0.75c-0.06-0.26-0.08-0.52-0.08-0.78s0.021-0.52,0.08-0.78c0.05-0.26,0.12-0.51,0.22-0.75
		c0.101-0.24,0.23-0.47,0.37-0.69c0.15-0.22,0.311-0.42,0.5-0.61c0.181-0.18,0.391-0.35,0.61-0.49c0.21-0.15,0.45-0.27,0.689-0.37
		c0.24-0.1,0.49-0.18,0.75-0.23c0.511-0.1,1.04-0.1,1.561,0c0.25,0.05,0.51,0.13,0.75,0.23s0.47,0.22,0.689,0.37
		c0.221,0.14,0.42,0.31,0.601,0.49c0.189,0.19,0.359,0.39,0.5,0.61c0.149,0.22,0.27,0.45,0.37,0.69c0.1,0.24,0.18,0.49,0.229,0.75
		c0.05,0.26,0.08,0.52,0.08,0.78s-0.03,0.52-0.08,0.78s-0.13,0.51-0.229,0.75c-0.101,0.24-0.221,0.48-0.37,0.69
		c-0.141,0.22-0.311,0.43-0.5,0.61C253.154,316.35,252.124,316.78,251.074,316.78z"/>
</g>
<g>
</g>
<g>
</g>
<g>
</g>
<g>
</g>
<g>
</g>
<g>
</g>
<g>
</g>
<g>
</g>
<g>
</g>
<g>
</g>
<g>
</g>
<g>
</g>
<g>
</g>
<g>
</g>
<g>
</g>
</svg>
