<?xml version="1.0" encoding="iso-8859-1"?>
<!-- Generator: Adobe Illustrator 19.0.0, SVG Export Plug-In . SVG Version: 6.00 Build 0)  -->
<svg version="1.1" id="Layer_1" xmlns="http://www.w3.org/2000/svg" xmlns:xlink="http://www.w3.org/1999/xlink" x="0px" y="0px"
	 viewBox="0 0 361.571 361.571" style="enable-background:new 0 0 361.571 361.571;" xml:space="preserve">
<g>
	<rect x="125.315" y="19.631" style="fill:#FCBC1D;" width="110.93" height="23.58"/>
	<rect x="125.315" y="19.631" style="opacity:0.25;enable-background:new    ;" width="18.28" height="23.58"/>
	<path style="fill:#FCBC1D;" d="M355.855,267.271c2.54,10.45-1.83,21.39-10.91,27.15c-0.04,0.02-0.09,0.05-0.13,0.08
		c-24.5,15.47-50.97,27.33-78.58,35.32c-27.62,8-56.38,12.12-85.46,12.12c-56.55,0-111.88-15.6-159.96-44.91
		c-1.18-0.72-2.72-1.71-4.42-2.81c-8.93-5.81-13.2-16.65-10.68-27l1.22-4.99l0.9,0.22h63.27h219.36h61.51l2.55-0.62L355.855,267.271
		z M313.905,285.721c0-5.8-4.7-10.5-10.5-10.5s-10.5,4.7-10.5,10.5c0,5.79,4.7,10.5,10.5,10.5
		C309.205,296.221,313.905,291.511,313.905,285.721z M232.155,300.941c0-5.8-4.7-10.5-10.5-10.5c-5.79,0-10.5,4.7-10.5,10.5
		s4.71,10.5,10.5,10.5C227.455,311.441,232.155,306.741,232.155,300.941z M150.405,300.941c0-5.8-4.7-10.5-10.5-10.5
		c-5.79,0-10.5,4.7-10.5,10.5s4.71,10.5,10.5,10.5C145.705,311.441,150.405,306.741,150.405,300.941z M68.665,285.721
		c0-5.8-4.71-10.5-10.5-10.5c-5.8,0-10.5,4.7-10.5,10.5c0,5.79,4.7,10.5,10.5,10.5C63.955,296.221,68.665,291.511,68.665,285.721z"
		/>
	<path style="opacity:0.25;enable-background:new    ;" d="M85.815,297.031c-1.18-0.72-2.72-1.71-4.42-2.81
		c-8.93-5.81-13.2-16.65-10.68-27l1.17-4.77H7.835l-0.9-0.22l-1.22,4.99c-2.52,10.35,1.75,21.19,10.68,27
		c1.7,1.1,3.24,2.09,4.42,2.81c48.08,29.31,103.41,44.91,159.96,44.91c10.88,0,21.72-0.58,32.48-1.72
		C168.165,335.421,124.625,320.691,85.815,297.031z M354.525,261.831l-2.55,0.62h2.7L354.525,261.831z"/>
	<path style="fill:#20505B;" d="M252.175,212.471c2.15,8.24-4.53,16.47-14.24,17.19c-38.05,2.81-76.25,2.81-114.3,0
		c-9.71-0.71-16.39-8.94-14.24-17.19c5.57-21.75,10.84-43.57,15.8-65.42c1.57-6.8,7.86-11.43,14.8-11.02
		c27.17,1.63,54.41,1.63,81.58,0c6.95-0.41,13.23,4.22,14.8,11.02C241.335,168.901,246.605,190.721,252.175,212.471z
		 M206.985,183.891c0-13.48-11.73-24.41-26.2-24.41s-26.2,10.93-26.2,24.41s11.73,24.41,26.2,24.41S206.985,197.371,206.985,183.891
		z"/>
	<ellipse style="fill:#61CCF2;" cx="180.785" cy="183.891" rx="26.2" ry="24.41"/>
	<path style="fill:#FFFFFF;" d="M180.785,159.481c14.47,0,26.2,10.93,26.2,24.41s-11.73,24.41-26.2,24.41"/>
	<path style="fill:#F24125;" d="M58.165,275.221c5.79,0,10.5,4.7,10.5,10.5c0,5.79-4.71,10.5-10.5,10.5c-5.8,0-10.5-4.71-10.5-10.5
		C47.665,279.921,52.365,275.221,58.165,275.221z"/>
	<path style="fill:#F24125;" d="M139.905,290.441c5.8,0,10.5,4.7,10.5,10.5s-4.7,10.5-10.5,10.5c-5.79,0-10.5-4.7-10.5-10.5
		S134.115,290.441,139.905,290.441z"/>
	<path style="fill:#F24125;" d="M221.655,290.441c5.8,0,10.5,4.7,10.5,10.5s-4.7,10.5-10.5,10.5c-5.79,0-10.5-4.7-10.5-10.5
		S215.865,290.441,221.655,290.441z"/>
	<path style="fill:#F24125;" d="M303.405,275.221c5.8,0,10.5,4.7,10.5,10.5c0,5.79-4.7,10.5-10.5,10.5s-10.5-4.71-10.5-10.5
		C292.905,279.921,297.605,275.221,303.405,275.221z"/>
	<polygon style="fill:#1AA5E2;" points="93.555,103.191 93.555,104.931 71.105,262.451 7.835,262.451 6.935,262.231 45.705,103.191 
			"/>
	<polygon style="opacity:0.25;enable-background:new    ;" points="93.555,103.191 93.555,104.931 71.105,262.451 7.835,262.451 
		6.935,262.231 45.705,103.191 	"/>
	<polygon style="fill:#45BCE5;" points="315.855,103.191 354.525,261.831 351.975,262.451 290.465,262.451 268.015,104.931 
		268.015,103.191 	"/>
	<polygon style="fill:#FCBC1D;" points="310.175,79.901 315.855,103.191 268.015,103.191 93.555,103.191 45.705,103.191 
		51.385,79.901 	"/>
	<path style="fill:#1AA5E2;" d="M307.935,70.691l2.24,9.21H51.385l2.24-9.21c3.93-16.13,18.37-27.48,34.97-27.48h36.72h110.93h36.72
		C289.565,43.211,304.005,54.561,307.935,70.691z"/>
	<path style="opacity:0.25;enable-background:new    ;" d="M143.595,43.211c-16.6,0-31.04,11.35-34.97,27.48l-2.24,9.21h-55
		l2.24-9.21c3.93-16.13,18.37-27.48,34.97-27.48C88.595,43.211,143.595,43.211,143.595,43.211z"/>
	<path style="fill:#1AA5E2;" d="M268.015,104.931l22.45,157.52H71.105l22.45-157.52v-1.74h174.46V104.931z M237.935,229.661
		c9.71-0.72,16.39-8.95,14.24-17.19c-5.57-21.75-10.84-43.57-15.8-65.42c-1.57-6.8-7.85-11.43-14.8-11.02
		c-27.17,1.63-54.41,1.63-81.58,0c-6.94-0.41-13.23,4.22-14.8,11.02c-4.96,21.85-10.23,43.67-15.8,65.42
		c-2.15,8.25,4.53,16.48,14.24,17.19C161.685,232.471,199.885,232.471,237.935,229.661z"/>
	<path style="fill:#333333;" d="M213.168,108.191H45.705c-2.761,0-5-2.239-5-5s2.239-5,5-5h167.463c2.761,0,5,2.239,5,5
		S215.93,108.191,213.168,108.191z"/>
	<path style="fill:#333333;" d="M315.855,108.191h-80.02c-2.761,0-5-2.239-5-5s2.239-5,5-5h80.02c2.761,0,5,2.239,5,5
		S318.616,108.191,315.855,108.191z"/>
	<path style="fill:#333333;" d="M259.835,84.901H51.385c-2.761,0-5-2.239-5-5s2.239-5,5-5h208.45c2.761,0,5,2.239,5,5
		S262.596,84.901,259.835,84.901z"/>
	<path style="fill:#333333;" d="M310.175,84.901h-31.007c-2.761,0-5-2.239-5-5s2.239-5,5-5h31.007c2.761,0,5,2.239,5,5
		S312.936,84.901,310.175,84.901z"/>
	<path style="fill:#333333;" d="M125.315,48.211c-2.761,0-5-2.239-5-5v-23.58c0-2.761,2.239-5,5-5c2.761,0,5,2.239,5,5v23.58
		C130.315,45.973,128.076,48.211,125.315,48.211z"/>
	<path style="fill:#333333;" d="M236.245,48.211c-2.761,0-5-2.239-5-5v-23.58c0-2.761,2.239-5,5-5s5,2.239,5,5v23.58
		C241.245,45.973,239.006,48.211,236.245,48.211z"/>
	<path style="fill:#333333;" d="M180.785,236.762c-19.218,0-38.436-0.705-57.519-2.114c-6.496-0.475-12.275-3.613-15.854-8.609
		c-3.131-4.373-4.172-9.777-2.856-14.828c5.531-21.599,10.836-43.564,15.762-65.266c2.125-9.202,10.528-15.474,19.971-14.904
		c26.872,1.612,54.118,1.612,80.986,0c9.457-0.551,17.852,5.703,19.971,14.887c4.93,21.72,10.235,43.685,15.771,65.304
		c1.31,5.019,0.272,10.417-2.854,14.789c-3.576,5.001-9.356,8.146-15.86,8.628h-0.001
		C219.22,236.057,200.002,236.762,180.785,236.762z M237.935,229.661h0.01H237.935z M139.13,141.005
		c-4.324,0-8.086,2.939-9.063,7.171c-4.942,21.773-10.269,43.828-15.828,65.535c-0.579,2.221-0.113,4.524,1.305,6.505
		c1.844,2.575,4.926,4.2,8.456,4.458c37.681,2.783,75.89,2.783,113.567,0c3.534-0.262,6.619-1.892,8.463-4.472
		c1.415-1.979,1.879-4.276,1.307-6.469c-5.564-21.729-10.891-43.785-15.838-65.576c-1.015-4.396-5.068-7.408-9.629-7.136
		c-27.26,1.636-54.91,1.636-82.174,0C139.506,141.011,139.317,141.005,139.13,141.005z"/>
	<path style="fill:#333333;" d="M71.111,267.452c-0.235,0-0.473-0.017-0.712-0.05c-2.734-0.39-4.634-2.922-4.245-5.656
		l17.505-122.828c0.39-2.734,2.92-4.628,5.656-4.245c2.734,0.39,4.634,2.922,4.245,5.656L76.055,263.157
		C75.699,265.651,73.56,267.452,71.111,267.452z"/>
	<path style="fill:#333333;" d="M90.865,128.85c-0.235,0-0.473-0.017-0.712-0.05c-2.734-0.39-4.634-2.922-4.245-5.656l2.696-18.918
		c0.39-2.734,2.924-4.627,5.656-4.245c2.734,0.39,4.634,2.922,4.245,5.656l-2.696,18.918C95.453,127.05,93.314,128.85,90.865,128.85
		z"/>
	<path style="fill:#333333;" d="M278.728,185.147c-2.449,0-4.588-1.8-4.944-4.295l-10.72-75.215
		c-0.389-2.734,1.511-5.266,4.245-5.656c2.733-0.381,5.266,1.511,5.656,4.245l10.72,75.215c0.389,2.734-1.511,5.266-4.245,5.656
		C279.201,185.13,278.963,185.147,278.728,185.147z"/>
	<path style="fill:#333333;" d="M290.458,267.452c-2.449,0-4.588-1.8-4.944-4.295l-9.495-66.625
		c-0.389-2.734,1.511-5.266,4.245-5.656c2.733-0.385,5.266,1.511,5.656,4.245l9.495,66.625c0.389,2.734-1.511,5.266-4.245,5.656
		C290.931,267.435,290.693,267.452,290.458,267.452z"/>
	<path style="fill:#333333;" d="M180.785,213.301c-17.204,0-31.2-13.193-31.2-29.41c0-16.216,13.997-29.41,31.2-29.41
		s31.2,13.193,31.2,29.41S197.989,213.301,180.785,213.301z M180.785,164.481c-11.69,0-21.2,8.707-21.2,19.41s9.51,19.41,21.2,19.41
		c11.689,0,21.2-8.708,21.2-19.41S192.475,164.481,180.785,164.481z"/>
	<path style="fill:#333333;" d="M351.975,267.451H236.501c-2.761,0-5-2.239-5-5s2.239-5,5-5h115.474c2.761,0,5,2.239,5,5
		S354.736,267.451,351.975,267.451z"/>
	<path style="fill:#333333;" d="M219.168,267.451H7.835c-2.761,0-5-2.239-5-5s2.239-5,5-5h211.333c2.761,0,5,2.239,5,5
		S221.929,267.451,219.168,267.451z"/>
	<path style="fill:#333333;" d="M249.785,24.631h-138.01c-2.761,0-5-2.239-5-5s2.239-5,5-5h138.01c2.761,0,5,2.239,5,5
		S252.546,24.631,249.785,24.631z"/>
	<path style="fill:#333333;" d="M303.405,301.221c-8.547,0-15.5-6.953-15.5-15.5s6.953-15.5,15.5-15.5s15.5,6.953,15.5,15.5
		S311.952,301.221,303.405,301.221z M303.405,280.221c-3.033,0-5.5,2.467-5.5,5.5s2.467,5.5,5.5,5.5s5.5-2.467,5.5-5.5
		S306.437,280.221,303.405,280.221z"/>
	<path style="fill:#333333;" d="M139.905,316.441c-8.547,0-15.5-6.953-15.5-15.5s6.953-15.5,15.5-15.5s15.5,6.953,15.5,15.5
		S148.452,316.441,139.905,316.441z M139.905,295.441c-3.033,0-5.5,2.467-5.5,5.5s2.467,5.5,5.5,5.5s5.5-2.467,5.5-5.5
		S142.937,295.441,139.905,295.441z"/>
	<path style="fill:#333333;" d="M221.655,316.441c-8.547,0-15.5-6.953-15.5-15.5s6.953-15.5,15.5-15.5s15.5,6.953,15.5,15.5
		S230.202,316.441,221.655,316.441z M221.655,295.441c-3.033,0-5.5,2.467-5.5,5.5s2.467,5.5,5.5,5.5s5.5-2.467,5.5-5.5
		S224.687,295.441,221.655,295.441z"/>
	<path style="fill:#333333;" d="M58.165,301.221c-8.547,0-15.5-6.953-15.5-15.5s6.953-15.5,15.5-15.5s15.5,6.953,15.5,15.5
		S66.712,301.221,58.165,301.221z M58.165,280.221c-3.033,0-5.5,2.467-5.5,5.5s2.467,5.5,5.5,5.5s5.5-2.467,5.5-5.5
		S61.198,280.221,58.165,280.221z"/>
	<path style="fill:#FFFFFF;" d="M333.52,244.018c-2.252,0-4.297-1.532-4.854-3.817l-21.482-88.126
		c-0.654-2.683,0.991-5.388,3.674-6.042c2.68-0.651,5.388,0.991,6.042,3.674l21.482,88.126c0.654,2.683-0.991,5.388-3.674,6.042
		C334.31,243.972,333.912,244.018,333.52,244.018z"/>
	<path style="fill:#FFFFFF;" d="M307.963,139.178c-2.252,0-4.297-1.532-4.854-3.817l-3.339-13.698
		c-0.654-2.683,0.991-5.388,3.674-6.042c2.679-0.654,5.388,0.99,6.042,3.674l3.339,13.698c0.654,2.683-0.991,5.388-3.674,6.042
		C308.753,139.132,308.355,139.178,307.963,139.178z"/>
	<path style="fill:#FFFFFF;" d="M285.938,67.687c-1.081,0-2.17-0.349-3.086-1.069c-2.836-2.229-6.255-3.407-9.888-3.407h-67.13
		c-2.761,0-5-2.239-5-5s2.239-5,5-5h67.13c5.811,0,11.517,1.969,16.066,5.544c2.171,1.706,2.548,4.85,0.842,7.021
		C288.887,67.032,287.42,67.687,285.938,67.687z"/>
	<path style="fill:#333333;" d="M180.775,346.941c-57.37,0-113.583-15.782-162.563-45.641c-1.173-0.715-2.66-1.669-4.534-2.881
		c-10.695-6.958-15.844-19.969-12.822-32.38l1.221-4.995L48.767,69.51c4.49-18.429,20.868-31.299,39.828-31.299h184.37
		c18.96,0,35.338,12.87,39.828,31.296l7.919,32.499l40,164.077c3.056,12.573-2.205,25.655-13.089,32.56
		c-0.043,0.027-0.086,0.054-0.131,0.08c-0.002,0.002-0.005,0.003-0.008,0.005c-24.802,15.661-51.67,27.738-79.859,35.896
		C239.408,342.797,210.187,346.941,180.775,346.941z M88.595,48.211c-14.335,0-26.718,9.731-30.112,23.664l-7.92,32.501
		L10.572,268.409c-2.019,8.29,1.417,16.98,8.55,21.621c1.796,1.162,3.221,2.076,4.298,2.733
		c47.41,28.901,101.823,44.178,157.355,44.178c28.471,0,56.755-4.011,84.069-11.923c27.257-7.888,53.236-19.56,77.221-34.694
		c0.1-0.066,0.203-0.131,0.307-0.192c7.192-4.625,10.657-13.321,8.625-21.68l-1.329-5.434L305.317,81.086
		c0-0.001-0.001-0.002-0.001-0.003l-2.24-9.21c-3.394-13.931-15.777-23.662-30.112-23.662H88.595z M347.19,298.889
		c-0.003,0.002-0.006,0.003-0.009,0.005C347.184,298.892,347.187,298.891,347.19,298.889z M347.799,298.513
		c-0.002,0.001-0.003,0.002-0.005,0.004C347.796,298.515,347.797,298.514,347.799,298.513z M344.945,294.421h0.01H344.945z"/>
	<path style="fill:#FFFFFF;" d="M332.339,286.942c-1.771,0-3.486-0.943-4.394-2.607c-1.322-2.424-0.429-5.461,1.996-6.784l5.5-3
		c2.424-1.322,5.461-0.429,6.784,1.996c1.322,2.424,0.429,5.461-1.996,6.784l-5.5,3
		C333.969,286.746,333.148,286.942,332.339,286.942z"/>
	<path style="fill:#FFFFFF;" d="M223.518,35.945c-0.33,0-0.66-0.04-0.98-0.1c-0.32-0.07-0.64-0.16-0.94-0.29
		c-0.3-0.12-0.59-0.28-0.86-0.46s-0.53-0.39-0.76-0.62s-0.44-0.48-0.62-0.76c-0.18-0.27-0.34-0.56-0.46-0.86
		c-0.13-0.3-0.22-0.62-0.29-0.94c-0.06-0.32-0.09-0.65-0.09-0.97c0-0.33,0.03-0.66,0.09-0.98c0.07-0.32,0.16-0.63,0.29-0.94
		c0.12-0.3,0.28-0.59,0.46-0.86s0.39-0.53,0.62-0.76s0.49-0.44,0.76-0.62c0.27-0.18,0.56-0.34,0.86-0.46
		c0.3-0.12,0.62-0.22,0.94-0.29c0.64-0.13,1.31-0.13,1.95,0c0.32,0.07,0.64,0.17,0.94,0.29s0.59,0.28,0.86,0.46
		c0.28,0.18,0.53,0.39,0.76,0.62c0.23,0.23,0.44,0.49,0.62,0.76s0.34,0.56,0.46,0.86c0.13,0.31,0.22,0.62,0.29,0.94
		c0.06,0.32,0.1,0.65,0.1,0.98c0,0.32-0.04,0.65-0.1,0.97c-0.07,0.32-0.16,0.64-0.29,0.94c-0.12,0.3-0.28,0.59-0.46,0.86
		c-0.18,0.28-0.39,0.53-0.62,0.76s-0.48,0.44-0.76,0.62c-0.27,0.18-0.56,0.34-0.86,0.46c-0.3,0.13-0.62,0.22-0.94,0.29
		C224.167,35.905,223.837,35.945,223.518,35.945z"/>
</g>
<g>
</g>
<g>
</g>
<g>
</g>
<g>
</g>
<g>
</g>
<g>
</g>
<g>
</g>
<g>
</g>
<g>
</g>
<g>
</g>
<g>
</g>
<g>
</g>
<g>
</g>
<g>
</g>
<g>
</g>
</svg>
