<?xml version="1.0" encoding="iso-8859-1"?>
<!-- Generator: Adobe Illustrator 19.0.0, SVG Export Plug-In . SVG Version: 6.00 Build 0)  -->
<svg version="1.1" id="Layer_1" xmlns="http://www.w3.org/2000/svg" xmlns:xlink="http://www.w3.org/1999/xlink" x="0px" y="0px"
	 viewBox="0 0 402.041 402.041" style="enable-background:new 0 0 402.041 402.041;" xml:space="preserve">
<g>
	<path style="fill:#333333;" d="M160.005,379.46c-0.346,0-0.696-0.036-1.048-0.111c-2.701-0.576-4.423-3.232-3.847-5.933
		l41.236-193.307c0.577-2.701,3.234-4.42,5.933-3.847c2.701,0.576,4.423,3.232,3.847,5.933L164.89,375.502
		C164.389,377.851,162.314,379.46,160.005,379.46z"/>
	<path style="fill:#333333;" d="M298.956,379.46c-2.309,0-4.384-1.609-4.885-3.958l-41.236-193.307
		c-0.576-2.701,1.146-5.357,3.847-5.933c2.699-0.573,5.356,1.146,5.933,3.847l41.236,193.307c0.576,2.701-1.146,5.357-3.847,5.933
		C299.653,379.424,299.302,379.46,298.956,379.46z"/>
	<path style="fill:#333333;" d="M276.176,272.996h-93.465c-2.761,0-5-2.239-5-5s2.239-5,5-5h93.465c2.761,0,5,2.239,5,5
		S278.937,272.996,276.176,272.996z"/>
	<path style="fill:#61CCF2;" d="M340.607,19.862c20.311-8.445,43.622,1.174,52.067,21.485c8.441,20.301-1.178,43.612-21.489,52.057
		L340.607,19.862z"/>
	<polygon style="fill:#FCBC1D;" points="371.185,93.404 377.365,108.265 319.826,132.19 313.814,117.731 282.9,43.383 
		276.888,28.924 334.427,5 340.607,19.862 	"/>
	<polygon style="fill:#20505B;" points="316.401,374.458 322.1,397.041 278.182,397.041 283.88,374.458 	"/>
	<path style="fill:#20505B;" d="M282.9,43.383l30.914,74.348l-47.674,19.823c-3.926-9.442-11.448-17.378-21.641-21.584
		c-20.401-8.418-43.751,1.291-52.159,21.688c-4.216,10.198-3.894,21.127,0.032,30.569l-84.804,35.261l-6.748-16.229l-17.418-41.89
		l-6.748-16.229L282.9,43.383z"/>
	<path style="fill:#FCBC1D;" d="M266.14,137.554c3.926,9.442,4.252,20.381,0.046,30.575c-8.422,20.391-31.772,30.1-52.159,21.688
		c-10.203-4.202-17.729-12.148-21.655-21.59s-4.248-20.372-0.032-30.569c8.408-20.397,31.758-30.106,52.159-21.688
		C254.692,120.176,262.214,128.112,266.14,137.554z M247.373,145.357c-4.159-10.003-15.648-14.743-25.651-10.584
		s-14.743,15.648-10.584,25.651s15.648,14.743,25.651,10.584S251.533,155.36,247.373,145.357z"/>
	<path style="fill:#20505B;" d="M221.723,134.773c10.003-4.159,21.491,0.581,25.651,10.584c4.159,10.003-0.581,21.491-10.584,25.651
		c-10.003,4.159-21.491-0.581-25.651-10.584C206.979,150.421,211.72,138.932,221.723,134.773z"/>
	<polygon style="fill:#20505B;" points="175.08,374.458 180.779,397.041 136.86,397.041 142.559,374.458 	"/>
	
		<rect x="41.404" y="147.613" transform="matrix(0.3839 0.9234 -0.9234 0.3839 203.8212 50.4724)" style="fill:#FCBC1D;" width="45.368" height="60.718"/>
	<polygon style="fill:#20505B;" points="27.339,168.68 44.757,210.57 48.646,219.924 31.512,227.048 6.315,166.45 23.449,159.326 	
		"/>
	<path style="fill:#333333;" d="M319.828,137.192c-1.959,0-3.819-1.16-4.619-3.082l-6.012-14.458
		c-1.061-2.55,0.147-5.477,2.697-6.537c2.548-1.062,5.477,0.146,6.537,2.697l4.093,9.842l48.305-20.085L331.73,11.536
		l-48.306,20.085l4.092,9.841c1.061,2.55-0.147,5.477-2.697,6.537c-2.55,1.061-5.477-0.147-6.537-2.697l-6.012-14.458
		c-0.509-1.225-0.511-2.601-0.005-3.827c0.506-1.226,1.478-2.201,2.703-2.709l57.54-23.925c1.224-0.509,2.601-0.511,3.827-0.005
		c1.226,0.506,2.201,1.478,2.709,2.703l42.938,103.265c0.509,1.225,0.511,2.601,0.005,3.827c-0.506,1.226-1.478,2.201-2.703,2.709
		l-57.539,23.925C321.118,137.068,320.468,137.192,319.828,137.192z"/>
	<path style="fill:#333333;" d="M107.57,208.489c-1.959,0-3.819-1.16-4.619-3.082l-6.748-16.229
		c-1.061-2.549,0.147-5.476,2.697-6.536c2.548-1.062,5.476,0.147,6.536,2.697l4.829,11.612l80.187-33.341l3.854,9.227
		l-84.819,35.268C108.86,208.366,108.21,208.489,107.57,208.489z"/>
	<path style="fill:#333333;" d="M83.404,150.37c-1.959,0-3.819-1.16-4.619-3.082l-6.748-16.229c-1.06-2.55,0.147-5.476,2.697-6.536
		L280.98,38.767c1.224-0.509,2.601-0.511,3.827-0.005c1.226,0.506,2.201,1.478,2.709,2.703l30.914,74.349
		c0.509,1.224,0.511,2.601,0.005,3.827c-0.506,1.226-1.478,2.201-2.703,2.709l-47.674,19.822c-2.55,1.061-5.489-0.141-6.55-2.689
		c-1.061-2.548,0.13-5.469,2.679-6.53l43.089-17.916L280.203,49.92L83.191,131.837l4.828,11.612c1.06,2.55-0.147,5.476-2.697,6.536
		C84.694,150.246,84.044,150.37,83.404,150.37z"/>
	<path style="fill:#333333;" d="M44.759,215.571c-1.959,0-3.819-1.16-4.619-3.082c-1.061-2.55,0.147-5.476,2.697-6.536
		l51.446-21.392l-13.579-32.657l-51.446,21.392c-2.552,1.062-5.477-0.148-6.537-2.697c-1.061-2.55,0.147-5.477,2.697-6.537
		l56.063-23.312c1.226-0.509,2.602-0.511,3.827-0.005c1.226,0.506,2.201,1.478,2.709,2.703l17.418,41.891
		c1.06,2.55-0.147,5.476-2.697,6.536l-56.063,23.311C46.049,215.448,45.398,215.571,44.759,215.571z"/>
	<path style="fill:#333333;" d="M229.197,197.835c-5.7,0-11.49-1.091-17.077-3.396c-11.098-4.571-19.752-13.198-24.365-24.292l0,0
		c-4.61-11.088-4.623-23.304-0.036-34.399c4.574-11.096,13.199-19.747,24.283-24.356c11.084-4.608,23.302-4.624,34.404-0.043
		c11.094,4.578,19.743,13.203,24.351,24.287c4.611,11.089,4.63,23.307,0.052,34.402
		C263.656,187.354,246.862,197.835,229.197,197.835z M196.989,166.307c3.586,8.625,10.314,15.333,18.943,18.887
		c17.807,7.348,38.278-1.164,45.634-18.973c3.558-8.624,3.543-18.124-0.042-26.747c-3.583-8.617-10.306-15.323-18.932-18.882
		c-8.633-3.563-18.133-3.55-26.75,0.033s-15.322,10.309-18.879,18.938C193.395,148.192,193.405,157.688,196.989,166.307
		L196.989,166.307z"/>
	<path style="fill:#333333;" d="M229.288,177.512c-9.655,0-18.835-5.712-22.767-15.169c-5.212-12.535,0.746-26.974,13.282-32.187
		c12.534-5.214,26.974,0.745,32.187,13.281c2.524,6.071,2.533,12.763,0.024,18.843c-2.509,6.081-7.234,10.819-13.305,13.344
		C235.629,176.905,232.433,177.512,229.288,177.512z M229.253,138.262c-1.901,0-3.802,0.376-5.61,1.127
		c-3.604,1.499-6.41,4.313-7.9,7.924s-1.485,7.585,0.013,11.19c1.499,3.604,4.313,6.41,7.924,7.9
		c3.612,1.49,7.585,1.485,11.19-0.013c3.604-1.499,6.41-4.313,7.9-7.924c1.49-3.611,1.485-7.585-0.014-11.19
		c-1.499-3.604-4.313-6.41-7.924-7.9C233.033,138.633,231.142,138.262,229.253,138.262z"/>
	<path style="fill:#333333;" d="M180.779,402.041H136.86c-1.542,0-2.997-0.711-3.944-1.927s-1.281-2.801-0.904-4.296l5.699-22.583
		c0.561-2.22,2.558-3.776,4.848-3.776h32.521c2.29,0,4.288,1.556,4.848,3.776l5.699,22.583c0.377,1.495,0.043,3.08-0.904,4.296
		S182.32,402.041,180.779,402.041z M143.279,392.041h31.082l-3.175-12.583h-24.731L143.279,392.041z"/>
	<path style="fill:#333333;" d="M322.1,402.041h-43.919c-1.542,0-2.997-0.711-3.944-1.927s-1.281-2.801-0.904-4.296l5.699-22.583
		c0.561-2.22,2.558-3.776,4.848-3.776h32.521c2.29,0,4.288,1.556,4.848,3.776l5.699,22.583c0.377,1.495,0.043,3.08-0.904,4.296
		S323.642,402.041,322.1,402.041z M284.6,392.041h31.082l-3.176-12.583h-24.73L284.6,392.041z"/>
	<path style="fill:#333333;" d="M371.187,98.405c-1.959,0-3.819-1.16-4.619-3.082c-1.061-2.55,0.147-5.477,2.697-6.537
		c17.733-7.374,26.163-27.794,18.792-45.521c-7.374-17.732-27.799-26.161-45.531-18.788c-2.55,1.062-5.477-0.148-6.536-2.697
		c-1.06-2.55,0.147-5.476,2.697-6.536c22.825-9.492,49.114,1.359,58.604,24.182c9.488,22.818-1.362,49.103-24.186,58.593
		C372.477,98.281,371.827,98.405,371.187,98.405z"/>
	<path style="fill:#FFFFFF;" d="M378.022,70.498c-0.62,0-1.25-0.116-1.86-0.361c-2.563-1.028-3.807-3.939-2.779-6.502
		c1.849-4.61,1.82-9.665-0.08-14.235c-1.929-4.64-5.559-8.254-10.22-10.177c-2.553-1.053-3.768-3.977-2.715-6.529
		s3.976-3.769,6.529-2.715c7.13,2.942,12.685,8.477,15.639,15.583c2.912,7.001,2.957,14.743,0.127,21.797
		C381.881,69.311,380.005,70.498,378.022,70.498z"/>
	<path style="fill:#333333;" d="M31.514,232.049c-1.959,0-3.819-1.16-4.619-3.082L1.699,168.369
		c-0.509-1.224-0.511-2.601-0.005-3.827s1.478-2.201,2.703-2.709l17.134-7.124c1.224-0.509,2.601-0.511,3.827-0.005
		s2.201,1.478,2.709,2.703l25.196,60.598c1.06,2.55-0.147,5.476-2.697,6.536l-17.134,7.124
		C32.804,231.926,32.154,232.049,31.514,232.049z M12.852,169.147l21.357,51.364l7.9-3.285l-19.387-46.627l0,0l-1.97-4.737
		L12.852,169.147z"/>
	<path style="fill:#FFFFFF;" d="M351.977,95.513c-1.959,0-3.819-1.16-4.619-3.082l-14.984-36.038
		c-1.061-2.549,0.147-5.476,2.697-6.536c2.548-1.063,5.476,0.147,6.536,2.697l14.984,36.038c1.061,2.55-0.147,5.476-2.697,6.536
		C353.267,95.39,352.616,95.513,351.977,95.513z"/>
	<path style="fill:#FFFFFF;" d="M329.889,42.393c-1.959,0-3.819-1.16-4.619-3.082l-4.086-9.828c-1.06-2.55,0.147-5.476,2.697-6.536
		c2.548-1.062,5.476,0.147,6.536,2.697l4.086,9.828c1.061,2.55-0.147,5.476-2.697,6.536
		C331.179,42.269,330.529,42.393,329.889,42.393z"/>
	<path style="fill:#FFFFFF;" d="M100.127,141.813c-1.959,0-3.819-1.16-4.619-3.082c-1.061-2.55,0.147-5.476,2.697-6.536
		L226.07,79.029c2.549-1.063,5.475,0.147,6.536,2.697c1.061,2.55-0.147,5.476-2.697,6.536l-127.864,53.166
		C101.417,141.69,100.767,141.813,100.127,141.813z"/>
	<path style="fill:#FFFFFF;" d="M245.696,81.286c-1.959,0-3.819-1.16-4.619-3.082c-1.061-2.55,0.147-5.476,2.697-6.536l8.852-3.681
		c2.549-1.062,5.476,0.147,6.536,2.697c1.061,2.55-0.147,5.476-2.697,6.536l-8.852,3.681
		C246.986,81.162,246.336,81.286,245.696,81.286z"/>
</g>
<g>
</g>
<g>
</g>
<g>
</g>
<g>
</g>
<g>
</g>
<g>
</g>
<g>
</g>
<g>
</g>
<g>
</g>
<g>
</g>
<g>
</g>
<g>
</g>
<g>
</g>
<g>
</g>
<g>
</g>
</svg>
