<?xml version="1.0" encoding="iso-8859-1"?>
<!-- Generator: Adobe Illustrator 19.0.0, SVG Export Plug-In . SVG Version: 6.00 Build 0)  -->
<svg version="1.1" id="Layer_1" xmlns="http://www.w3.org/2000/svg" xmlns:xlink="http://www.w3.org/1999/xlink" x="0px" y="0px"
	 viewBox="0 0 426.008 426.008" style="enable-background:new 0 0 426.008 426.008;" xml:space="preserve">
<g>
	<polygon style="fill:#44CC27;" points="349.337,421.007 76.671,421.007 166.671,193.061 259.337,193.061 	"/>
	<polygon style="fill:#FCBC1D;" points="281.376,173.079 288.744,193.152 137.264,192.982 144.676,172.922 	"/>
	<path style="fill:#FCBC1D;" d="M94.83,124.268l236.461,0.27l6.264,0.006c4.678,0.006,8.465,3.8,8.459,8.478
		c-0.006,4.665-3.794,8.453-8.465,8.453c-0.006,0-0.006,0-0.013,0l-6.227-0.006l-236.492-0.27l-6.227-0.006
		c-4.672-0.006-8.459-3.8-8.453-8.472s3.794-8.459,8.459-8.459c0.006,0,0.006,0,0.013,0L94.83,124.268z"/>
	<path style="opacity:0.25;enable-background:new    ;" d="M94.818,141.337l-6.227-0.006c-4.672-0.006-8.459-3.8-8.453-8.472
		s3.794-8.459,8.459-8.459c0.006,0,0.006,0,0.013,0l6.22,0.006l43.173,0.019c-4.396,0.295-7.876,3.957-7.882,8.434
		c-0.006,4.672,3.781,8.465,8.453,8.472l6.227,0.006"/>
	<path style="fill:#F73E3E;" d="M94.818,141.199l236.492,0.27c-3.9,18.097-20.01,31.642-39.273,31.623l-10.66-0.013l-136.701-0.157
		l-10.66-0.013c-11.087-0.013-21.113-4.515-28.362-11.783C100.298,155.759,96.461,148.887,94.818,141.199z"/>
	<path style="fill:#F73E3E;" d="M331.291,124.406v0.132l-236.461-0.27c3.932-18.034,19.991-31.529,39.204-31.529h158.021
		c11.087,0,21.12,4.49,28.381,11.751C325.798,109.852,329.642,116.718,331.291,124.406z"/>
	<g style="opacity:0.25;">
		<polyline points="137.276,192.982 144.688,172.922 171.263,172.954 163.864,192.982 		"/>
		<path d="M171.276,172.922l-10.66-0.013c-11.087-0.013-21.113-4.515-28.362-11.783c-5.349-5.361-9.18-12.222-10.829-19.897
			l-26.594-0.031c1.643,7.688,5.481,14.561,10.836,19.928c7.249,7.268,17.276,11.77,28.362,11.783l10.66,0.013l26.575,0.031"/>
		<path d="M94.843,124.268c3.932-18.034,19.991-31.529,39.204-31.529h26.588c-19.213,0-35.273,13.495-39.204,31.529"/>
	</g>
	<path style="fill:#61CCF2;" d="M293.937,85.892v6.848h-1.881H134.034h-1.881v-6.848C132.153,41.213,168.373,5,213.045,5
		S293.937,41.213,293.937,85.892z"/>
	<path style="fill:#FFFFFF;" d="M278.429,82.74c-2.487,0-4.642-1.854-4.956-4.385c-2.28-18.388-13.187-35.1-29.176-44.705
		c-2.367-1.422-3.133-4.494-1.711-6.861c1.421-2.367,4.494-3.134,6.861-1.711c18.604,11.175,31.295,30.631,33.951,52.046
		c0.34,2.74-1.606,5.237-4.347,5.577C278.842,82.727,278.634,82.74,278.429,82.74z"/>
	<path style="fill:#FFFFFF;" d="M227.604,26.621c-0.366,0-0.737-0.04-1.108-0.125c-1.925-0.436-3.897-0.781-5.864-1.027
		c-2.74-0.342-4.684-2.841-4.341-5.582c0.342-2.74,2.839-4.683,5.582-4.341c2.291,0.286,4.589,0.689,6.832,1.197
		c2.693,0.61,4.382,3.288,3.772,5.98C231.951,25.046,229.888,26.621,227.604,26.621z"/>
	<path style="opacity:0.25;enable-background:new    ;" d="M229.035,6.58c-37.016,7.418-64.901,40.107-64.901,79.311v6.848h-31.98
		v-6.848C132.153,41.213,168.373,5,213.045,5C218.519,5,223.868,5.546,229.035,6.58z"/>
	<path style="fill:#333333;" d="M292.075,178.092c-0.016,0-0.028,0-0.043,0l-10.661-0.013c-2.762-0.003-4.998-2.245-4.994-5.006
		c0.003-2.759,2.241-4.994,5-4.994c0.002,0,0.004,0,0.006,0l10.66,0.013c0.011,0,0.022,0,0.034,0
		c16.447,0,30.889-11.635,34.346-27.676c0.582-2.7,3.241-4.417,5.941-3.834c2.7,0.582,4.417,3.242,3.834,5.941
		C331.754,163.138,313.201,178.092,292.075,178.092z"/>
	<path style="fill:#333333;" d="M144.676,177.922c-0.002,0-0.004,0-0.006,0l-10.66-0.013c-12.059-0.013-23.387-4.72-31.896-13.252
		c-6.157-6.171-10.371-13.922-12.185-22.414c-0.577-2.701,1.145-5.357,3.845-5.935c2.701-0.575,5.357,1.145,5.935,3.845
		c1.411,6.604,4.691,12.636,9.485,17.441c6.624,6.641,15.441,10.304,24.828,10.314l10.661,0.013
		c2.762,0.003,4.998,2.245,4.994,5.006C149.672,175.688,147.435,177.922,144.676,177.922z"/>
	<path style="fill:#333333;" d="M331.286,129.407c-2.307,0-4.38-1.605-4.884-3.952c-1.417-6.603-4.702-12.63-9.501-17.43
		c-6.634-6.633-15.458-10.286-24.846-10.286c-2.761,0-5-2.239-5-5s2.239-5,5-5c12.059,0,23.394,4.693,31.917,13.215
		c6.165,6.166,10.386,13.912,12.208,22.403c0.579,2.7-1.14,5.358-3.84,5.938C331.986,129.371,331.634,129.407,331.286,129.407z"/>
	<path style="fill:#333333;" d="M94.801,129.408c-0.459,0-0.927-0.064-1.39-0.198c-2.578-0.745-4.095-3.384-3.475-5.966
		c0.003-0.014,0.006-0.027,0.009-0.041l0,0c4.48-20.549,23.022-35.464,44.09-35.464c2.761,0,5,2.239,5,5s-2.239,5-5,5
		c-16.4,0-30.833,11.605-34.319,27.594c-0.004,0.018-0.008,0.036-0.012,0.054c-0.03,0.141-0.063,0.277-0.101,0.407
		C98.97,127.983,96.971,129.408,94.801,129.408z"/>
	<path style="fill:#FFFFFF;" d="M308.662,116.406c-1.072,0-2.152-0.343-3.064-1.051c-3.887-3.02-8.57-4.616-13.542-4.616
		c-2.761,0-5-2.239-5-5s2.239-5,5-5c7.214,0,14.019,2.323,19.677,6.718c2.181,1.694,2.575,4.835,0.881,7.016
		C311.628,115.742,310.153,116.406,308.662,116.406z"/>
	<path style="fill:#333333;" d="M337.549,146.475l-248.963-0.282c-3.596-0.005-6.975-1.409-9.515-3.955
		c-2.541-2.546-3.938-5.929-3.933-9.524c0.009-7.417,6.047-13.453,13.459-13.453l220.395,0.25l0,0l28.568,0.032
		c3.6,0.005,6.98,1.41,9.521,3.955c2.542,2.547,3.939,5.932,3.934,9.53C351.004,140.443,344.964,146.475,337.549,146.475z
		 M88.605,129.262c-1.913,0-3.464,1.555-3.467,3.466c-0.001,0.923,0.358,1.792,1.011,2.447c0.654,0.655,1.523,1.017,2.448,1.018
		l248.944,0.282c1.916,0,3.471-1.552,3.473-3.46c0.001-0.926-0.358-1.797-1.012-2.452c-0.655-0.656-1.526-1.018-2.454-1.019
		L88.605,129.262z"/>
	<path style="fill:#333333;" d="M293.937,97.739H132.153c-2.761,0-5-2.239-5-5v-6.848C127.153,38.531,165.684,0,213.045,0
		c12.792,0,25.103,2.746,36.59,8.163c2.498,1.178,3.568,4.157,2.39,6.655c-1.177,2.498-4.157,3.567-6.655,2.39
		C235.227,12.425,224.351,10,213.045,10c-41.847,0-75.892,34.045-75.892,75.892v1.848h151.783v-1.848
		c0-20.997-8.819-41.249-24.195-55.562c-2.021-1.881-2.135-5.045-0.253-7.066c1.881-2.021,5.045-2.135,7.066-0.253
		c17.401,16.198,27.382,39.117,27.382,62.881v6.848C298.937,95.5,296.698,97.739,293.937,97.739z"/>
	<path style="fill:#333333;" d="M288.745,198.151c-0.002,0-0.004,0-0.005,0l-151.481-0.169c-1.635-0.001-3.165-0.802-4.099-2.144
		s-1.153-3.056-0.586-4.589l7.412-20.06c0.726-1.965,2.588-3.228,4.696-3.267l136.701,0.157c2.095,0.002,3.966,1.311,4.688,3.277
		l7.368,20.072c0.563,1.535,0.341,3.248-0.596,4.588C291.907,197.354,290.377,198.151,288.745,198.151z M144.439,187.99
		l119.404,0.124c0.001,0,0.002,0,0.004,0l17.733,0.03l-3.696-10.068l-129.727-0.149L144.439,187.99z"/>
	<path style="fill:#333333;" d="M349.339,426.008c-1.993,0-3.876-1.199-4.652-3.165l-90-227.945
		c-1.014-2.569,0.246-5.473,2.814-6.487c2.571-1.012,5.473,0.246,6.487,2.814l90,227.945c1.014,2.569-0.246,5.473-2.814,6.487
		C350.571,425.896,349.95,426.008,349.339,426.008z"/>
	<path style="fill:#333333;" d="M76.669,426.008c-0.611,0-1.232-0.113-1.835-0.351c-2.568-1.014-3.828-3.918-2.814-6.487l90-227.945
		c1.014-2.568,3.917-3.827,6.487-2.814c2.568,1.014,3.828,3.918,2.814,6.487l-90,227.945
		C80.545,424.809,78.662,426.008,76.669,426.008z"/>
	<path style="fill:#FFFFFF;" d="M249.023,401.232c-2.511,0-4.675-1.888-4.962-4.442l-5.989-53.283
		c-0.309-2.744,1.666-5.219,4.41-5.527c2.746-0.312,5.219,1.666,5.527,4.41l5.989,53.283c0.309,2.744-1.666,5.219-4.41,5.527
		C249.398,401.222,249.209,401.232,249.023,401.232z"/>
	<path style="fill:#FFFFFF;" d="M240.185,322.604c-2.511,0-4.675-1.888-4.962-4.442l-7.148-63.598
		c-0.309-2.744,1.666-5.219,4.41-5.527c2.743-0.309,5.219,1.666,5.527,4.41l7.148,63.598c0.309,2.744-1.666,5.219-4.41,5.527
		C240.56,322.593,240.372,322.604,240.185,322.604z"/>
	<path style="fill:#FFFFFF;" d="M194.082,249.125c-0.187,0-0.375-0.01-0.565-0.032c-2.744-0.309-4.719-2.783-4.41-5.527
		l3.072-27.329c0.309-2.744,2.781-4.72,5.527-4.41c2.744,0.309,4.719,2.783,4.41,5.527l-3.072,27.329
		C198.757,247.237,196.593,249.125,194.082,249.125z"/>
	<path style="fill:#FFFFFF;" d="M177.369,397.82c-0.187,0-0.375-0.01-0.565-0.032c-2.744-0.309-4.719-2.783-4.41-5.527
		l13.938-124.007c0.309-2.744,2.78-4.725,5.527-4.41c2.744,0.309,4.719,2.783,4.41,5.527l-13.938,124.007
		C182.044,395.933,179.88,397.82,177.369,397.82z"/>
	<path style="fill:#FFFFFF;" d="M303.645,402.681c-2.184,0-4.189-1.441-4.811-3.646l-5.772-20.504
		c-0.748-2.658,0.8-5.419,3.458-6.168c2.66-0.75,5.419,0.8,6.168,3.458l5.772,20.504c0.748,2.658-0.8,5.419-3.458,6.168
		C304.549,402.62,304.093,402.681,303.645,402.681z"/>
	<path style="fill:#FFFFFF;" d="M292.557,363.295c-2.184,0-4.189-1.441-4.811-3.646l-22.265-79.086
		c-0.748-2.658,0.8-5.419,3.458-6.168c2.661-0.749,5.419,0.8,6.168,3.458l22.265,79.086c0.748,2.658-0.8,5.419-3.458,6.168
		C293.461,363.234,293.005,363.295,292.557,363.295z"/>
	<path style="fill:#FFFFFF;" d="M263.853,261.338c-2.184,0-4.189-1.441-4.811-3.646l-12.318-43.755
		c-0.748-2.658,0.8-5.419,3.458-6.168c2.659-0.75,5.419,0.8,6.168,3.458l12.318,43.755c0.748,2.658-0.8,5.419-3.458,6.168
		C264.757,261.277,264.301,261.338,263.853,261.338z"/>
	<path style="fill:#FFFFFF;" d="M135.094,357.463c-0.448,0-0.904-0.061-1.357-0.188c-2.658-0.749-4.206-3.51-3.458-6.168
		l31.644-112.401c0.749-2.658,3.506-4.208,6.168-3.458c2.658,0.749,4.206,3.51,3.458,6.168l-31.644,112.401
		C139.284,356.022,137.277,357.463,135.094,357.463z"/>
	<path style="fill:#FFFFFF;" d="M120.354,409.819c-0.448,0-0.904-0.061-1.357-0.188c-2.658-0.749-4.206-3.51-3.458-6.168
		l9.717-34.517c0.748-2.658,3.508-4.206,6.168-3.458c2.658,0.749,4.206,3.51,3.458,6.168l-9.717,34.517
		C124.544,408.377,122.538,409.819,120.354,409.819z"/>
</g>
<g>
</g>
<g>
</g>
<g>
</g>
<g>
</g>
<g>
</g>
<g>
</g>
<g>
</g>
<g>
</g>
<g>
</g>
<g>
</g>
<g>
</g>
<g>
</g>
<g>
</g>
<g>
</g>
<g>
</g>
</svg>
