<?xml version="1.0" encoding="iso-8859-1"?>
<!-- Generator: Adobe Illustrator 19.0.0, SVG Export Plug-In . SVG Version: 6.00 Build 0)  -->
<svg version="1.1" id="Layer_1" xmlns="http://www.w3.org/2000/svg" xmlns:xlink="http://www.w3.org/1999/xlink" x="0px" y="0px"
	 viewBox="0 0 486.503 486.503" style="enable-background:new 0 0 486.503 486.503;" xml:space="preserve">
<g>
	<path style="fill:#333333;" d="M228.995,211.897c-2.175,0-4.176-1.43-4.805-3.625c-0.76-2.655,0.776-5.423,3.431-6.183
		l186.285-53.332c2.652-0.762,5.422,0.775,6.183,3.431c0.76,2.655-0.776,5.423-3.431,6.183l-186.285,53.332
		C229.914,211.835,229.451,211.897,228.995,211.897z"/>
	<path style="fill:#333333;" d="M299.339,327.466c-1.307,0-2.613-0.509-3.593-1.523l-84.271-87.081
		c-1.92-1.984-1.869-5.15,0.116-7.07c1.984-1.92,5.15-1.868,7.07,0.116l84.271,87.081c1.92,1.984,1.869,5.15-0.116,7.07
		C301.845,326.998,300.591,327.466,299.339,327.466z"/>
	<path style="fill:#333333;" d="M347.778,337.218c-2.231,0-4.264-1.504-4.841-3.765c-0.683-2.676,0.933-5.398,3.608-6.081
		l85.387-21.789c2.676-0.683,5.398,0.933,6.081,3.608c0.683,2.676-0.933,5.398-3.608,6.081l-85.387,21.789
		C348.604,337.168,348.188,337.218,347.778,337.218z"/>
	<path style="fill:#333333;" d="M457.967,275.421c-2.521,0-4.689-1.902-4.965-4.466l-9.608-89.304
		c-0.295-2.745,1.691-5.21,4.437-5.506c2.747-0.297,5.21,1.691,5.506,4.437l9.608,89.304c0.295,2.745-1.691,5.21-4.437,5.506
		C458.326,275.411,458.146,275.421,457.967,275.421z"/>
	<path style="fill:#333333;" d="M40.549,267.369c-1.201,0-2.406-0.43-3.364-1.302c-2.042-1.859-2.19-5.021-0.332-7.063
		l36.254-39.829c1.86-2.042,5.021-2.19,7.063-0.332c2.042,1.859,2.19,5.021,0.332,7.063l-36.254,39.829
		C43.262,266.819,41.908,267.369,40.549,267.369z"/>
	<path style="fill:#333333;" d="M166.06,217.654c-0.193,0-0.388-0.011-0.585-0.034l-40.658-4.737
		c-2.743-0.319-4.708-2.802-4.388-5.545c0.319-2.743,2.804-4.708,5.545-4.388l40.658,4.737c2.743,0.319,4.708,2.802,4.388,5.545
		C170.724,215.777,168.563,217.654,166.06,217.654z"/>
	<g>
		<path style="fill:#FCBC1D;" d="M93.5,226.699c-2.761,0-5-2.239-5-5v-35c0-2.761,2.239-5,5-5s5,2.239,5,5v35
			C98.5,224.461,96.261,226.699,93.5,226.699z"/>
		<path style="fill:#FCBC1D;" d="M111,209.199H76c-2.761,0-5-2.239-5-5c0-2.761,2.239-5,5-5h35c2.761,0,5,2.239,5,5
			C116,206.96,113.761,209.199,111,209.199z"/>
	</g>
	<g>
		<path style="fill:#FCBC1D;" d="M22.5,304.699c-2.761,0-5-2.239-5-5v-35c0-2.761,2.239-5,5-5s5,2.239,5,5v35
			C27.5,302.461,25.261,304.699,22.5,304.699z"/>
		<path style="fill:#FCBC1D;" d="M40,287.199H5c-2.761,0-5-2.239-5-5s2.239-5,5-5h35c2.761,0,5,2.239,5,5S42.761,287.199,40,287.199
			z"/>
	</g>
	<g>
		<path style="fill:#FCBC1D;" d="M199.003,239.251c-2.761,0-5-2.239-5-5v-35c0-2.761,2.239-5,5-5s5,2.239,5,5v35
			C204.003,237.012,201.765,239.251,199.003,239.251z"/>
		<path style="fill:#FCBC1D;" d="M216.503,221.751h-35c-2.761,0-5-2.239-5-5c0-2.761,2.239-5,5-5h35c2.761,0,5,2.239,5,5
			C221.503,219.512,219.265,221.751,216.503,221.751z"/>
	</g>
	<g>
		<path style="fill:#FCBC1D;" d="M447.003,168.251c-2.761,0-5-2.239-5-5v-35c0-2.761,2.239-5,5-5s5,2.239,5,5v35
			C452.003,166.012,449.765,168.251,447.003,168.251z"/>
		<path style="fill:#FCBC1D;" d="M464.503,150.751h-35c-2.761,0-5-2.239-5-5c0-2.761,2.239-5,5-5h35c2.761,0,5,2.239,5,5
			C469.503,148.512,467.265,150.751,464.503,150.751z"/>
	</g>
	<g>
		<path style="fill:#FCBC1D;" d="M319.003,363.251c-2.761,0-5-2.239-5-5v-35c0-2.761,2.239-5,5-5s5,2.239,5,5v35
			C324.003,361.012,321.765,363.251,319.003,363.251z"/>
		<path style="fill:#FCBC1D;" d="M336.503,345.751h-35c-2.761,0-5-2.239-5-5s2.239-5,5-5h35c2.761,0,5,2.239,5,5
			S339.265,345.751,336.503,345.751z"/>
	</g>
	<g>
		<path style="fill:#FCBC1D;" d="M464.003,326.251c-2.761,0-5-2.239-5-5v-35c0-2.761,2.239-5,5-5s5,2.239,5,5v35
			C469.003,324.012,466.765,326.251,464.003,326.251z"/>
		<path style="fill:#FCBC1D;" d="M481.503,308.751h-35c-2.761,0-5-2.239-5-5s2.239-5,5-5h35c2.761,0,5,2.239,5,5
			S484.265,308.751,481.503,308.751z"/>
	</g>
</g>
<g>
</g>
<g>
</g>
<g>
</g>
<g>
</g>
<g>
</g>
<g>
</g>
<g>
</g>
<g>
</g>
<g>
</g>
<g>
</g>
<g>
</g>
<g>
</g>
<g>
</g>
<g>
</g>
<g>
</g>
</svg>
