<?xml version="1.0" encoding="iso-8859-1"?>
<!-- Generator: Adobe Illustrator 19.0.0, SVG Export Plug-In . SVG Version: 6.00 Build 0)  -->
<svg version="1.1" id="Layer_1" xmlns="http://www.w3.org/2000/svg" xmlns:xlink="http://www.w3.org/1999/xlink" x="0px" y="0px"
	 viewBox="0 0 351.28 351.28" style="enable-background:new 0 0 351.28 351.28;" xml:space="preserve">
<g>
	<path style="fill:#F9911E;" d="M296.21,54.89c16.02,16,28.89,35.16,37.56,56.48c8.07,19.84,12.51,41.54,12.51,64.27
		c0,12.3-1.3,24.3-3.78,35.86c-7.12,33.32-23.97,63.03-47.44,86.02c-11.33,11.11-24.22,20.66-38.3,28.27
		c-24.13,13.07-51.76,20.49-81.12,20.49c-2.86,0-5.7-0.07-8.52-0.21c-53.27-2.62-100.11-29.67-129.57-70.17
		C17.08,247.75,5,213.1,5,175.64c0-1.87,0.03-3.73,0.09-5.59C6.32,131.77,20.17,96.67,42.6,68.78c28.71-35.7,71.5-59.6,119.93-63.28
		c4.33-0.33,8.7-0.5,13.11-0.5c38.41,0,73.85,12.69,102.37,34.1C284.45,43.93,290.53,49.21,296.21,54.89z"/>
	<g>
		<path style="fill:#FFFFFF;" d="M138.198,113.245H127.83c-2.761,0-5-2.239-5-5s2.239-5,5-5h10.368c2.761,0,5,2.239,5,5
			S140.96,113.245,138.198,113.245z"/>
		<path style="fill:#4D4D4D;" d="M52.947,113.245h-5.185c-2.761,0-5-2.239-5-5s2.239-5,5-5h5.185c2.761,0,5,2.239,5,5
			S55.709,113.245,52.947,113.245z"/>
		<path style="fill:#FFFFFF;" d="M165.272,113.245h-10.368c-2.761,0-5-2.239-5-5s2.239-5,5-5h10.368c2.761,0,5,2.239,5,5
			S168.033,113.245,165.272,113.245z"/>
		<path style="fill:#4D4D4D;" d="M96.725,94.237H69.076c-2.761,0-5-2.239-5-5s2.239-5,5-5h27.649c2.761,0,5,2.239,5,5
			S99.486,94.237,96.725,94.237z"/>
		<path style="fill:#4D4D4D;" d="M169.304,44.699h-27.649c-2.761,0-5-2.239-5-5s2.239-5,5-5h27.649c2.761,0,5,2.239,5,5
			S172.065,44.699,169.304,44.699z"/>
		<path style="fill:#4D4D4D;" d="M124.95,67.74h-14.977c-2.761,0-5-2.239-5-5s2.239-5,5-5h14.977c2.761,0,5,2.239,5,5
			S127.711,67.74,124.95,67.74z"/>
		<path style="fill:#FFFFFF;" d="M181.976,67.74h-5.76c-2.761,0-5-2.239-5-5s2.239-5,5-5h5.76c2.761,0,5,2.239,5,5
			S184.737,67.74,181.976,67.74z"/>
		<path style="fill:#4D4D4D;" d="M199.257,67.74h-5.76c-2.761,0-5-2.239-5-5s2.239-5,5-5h5.76c2.761,0,5,2.239,5,5
			S202.018,67.74,199.257,67.74z"/>
		<path style="fill:#4D4D4D;" d="M262.044,67.74h-14.977c-2.761,0-5-2.239-5-5s2.239-5,5-5h14.977c2.761,0,5,2.239,5,5
			S264.805,67.74,262.044,67.74z"/>
		<path style="fill:#4D4D4D;" d="M89.813,67.741c-0.33,0-0.65-0.03-0.98-0.1c-0.32-0.06-0.63-0.16-0.93-0.28
			c-0.3-0.13-0.6-0.28-0.87-0.46c-0.27-0.19-0.53-0.39-0.76-0.63c-0.23-0.23-0.44-0.48-0.62-0.76c-0.18-0.27-0.33-0.56-0.46-0.86
			c-0.12-0.3-0.22-0.62-0.28-0.93c-0.07-0.33-0.1-0.66-0.1-0.98c0-1.32,0.53-2.61,1.46-3.54c0.23-0.23,0.49-0.44,0.76-0.62
			s0.56-0.33,0.87-0.46c0.3-0.12,0.61-0.22,0.93-0.28c1.63-0.33,3.36,0.2,4.52,1.36c0.23,0.23,0.43,0.49,0.62,0.76
			c0.18,0.27,0.33,0.56,0.46,0.87c0.12,0.3,0.22,0.61,0.28,0.93c0.07,0.32,0.1,0.65,0.1,0.98c0,1.32-0.53,2.61-1.46,3.53
			C92.413,67.211,91.133,67.741,89.813,67.741z"/>
		<path style="fill:#4D4D4D;" d="M119.766,94.237h-5.184c-2.761,0-5-2.239-5-5s2.239-5,5-5h5.184c2.761,0,5,2.239,5,5
			S122.527,94.237,119.766,94.237z"/>
		<path style="fill:#FFFFFF;" d="M215.422,94.237h-11.017c-2.761,0-5-2.239-5-5s2.239-5,5-5h11.017c2.761,0,5,2.239,5,5
			S218.183,94.237,215.422,94.237z"/>
		<path style="fill:#FFFFFF;" d="M165.272,184.672h-10.368c-2.761,0-5-2.239-5-5s2.239-5,5-5h10.368c2.761,0,5,2.239,5,5
			S168.033,184.672,165.272,184.672z"/>
		<path style="fill:#4D4D4D;" d="M29.33,184.672H18.962c-2.761,0-5-2.239-5-5s2.239-5,5-5H29.33c2.761,0,5,2.239,5,5
			S32.091,184.672,29.33,184.672z"/>
		<path style="fill:#4D4D4D;" d="M61.588,207.713H51.219c-2.761,0-5-2.239-5-5s2.239-5,5-5h10.368c2.761,0,5,2.239,5,5
			S64.349,207.713,61.588,207.713z"/>
		<path style="fill:#FFFFFF;" d="M184.857,207.713h-10.369c-2.761,0-5-2.239-5-5s2.239-5,5-5h10.369c2.761,0,5,2.239,5,5
			S187.618,207.713,184.857,207.713z"/>
		<path style="fill:#4D4D4D;" d="M137.047,233.058h-10.368c-2.761,0-5-2.239-5-5s2.239-5,5-5h10.368c2.761,0,5,2.239,5,5
			S139.808,233.058,137.047,233.058z"/>
		<path style="fill:#4D4D4D;" d="M107.67,255.523H97.301c-2.761,0-5-2.239-5-5s2.239-5,5-5h10.369c2.761,0,5,2.239,5,5
			S110.431,255.523,107.67,255.523z"/>
		<path style="fill:#FFFFFF;" d="M195.225,255.523h-10.368c-2.761,0-5-2.239-5-5s2.239-5,5-5h10.368c2.761,0,5,2.239,5,5
			S197.986,255.523,195.225,255.523z"/>
		<path style="fill:#FFFFFF;" d="M184.28,269.924h-20.737c-2.761,0-5-2.239-5-5s2.239-5,5-5h20.737c2.761,0,5,2.239,5,5
			S187.042,269.924,184.28,269.924z"/>
		<path style="fill:#FFFFFF;" d="M151.447,300.453H133.59c-2.761,0-5-2.239-5-5s2.239-5,5-5h17.856c2.761,0,5,2.239,5,5
			S154.208,300.453,151.447,300.453z"/>
		<path style="fill:#4D4D4D;" d="M219.994,284.9h-6.336c-2.761,0-5-2.239-5-5s2.239-5,5-5h6.336c2.761,0,5,2.239,5,5
			S222.755,284.9,219.994,284.9z"/>
		<path style="fill:#FFFFFF;" d="M173.336,316.581h-6.913c-2.761,0-5-2.239-5-5s2.239-5,5-5h6.913c2.761,0,5,2.239,5,5
			S176.097,316.581,173.336,316.581z"/>
		<path style="fill:#4D4D4D;" d="M117.462,316.581h-6.912c-2.761,0-5-2.239-5-5s2.239-5,5-5h6.912c2.761,0,5,2.239,5,5
			S120.223,316.581,117.462,316.581z"/>
		<path style="fill:#4D4D4D;" d="M93.643,272.454H81.547c-2.761,0-5-2.239-5-5s2.239-5,5-5h12.097c2.761,0,5,2.239,5,5
			S96.404,272.454,93.643,272.454z"/>
		<path style="fill:#4D4D4D;" d="M265.5,269.924h-12.097c-2.761,0-5-2.239-5-5s2.239-5,5-5H265.5c2.761,0,5,2.239,5,5
			S268.261,269.924,265.5,269.924z"/>
		<path style="fill:#4D4D4D;" d="M278.31,255.788h-17.856c-2.761,0-5-2.239-5-5s2.239-5,5-5h17.856c2.761,0,5,2.239,5,5
			S281.071,255.788,278.31,255.788z"/>
		<path style="fill:#4D4D4D;" d="M74.26,255.523H54.675c-2.761,0-5-2.239-5-5s2.239-5,5-5H74.26c2.761,0,5,2.239,5,5
			S77.021,255.523,74.26,255.523z"/>
		<path style="fill:#4D4D4D;" d="M300.637,233.058h-10.368c-2.761,0-5-2.239-5-5s2.239-5,5-5h10.368c2.761,0,5,2.239,5,5
			S303.398,233.058,300.637,233.058z"/>
		<path style="fill:#4D4D4D;" d="M276.011,233.058h-10.368c-2.761,0-5-2.239-5-5s2.239-5,5-5h10.368c2.761,0,5,2.239,5,5
			S278.773,233.058,276.011,233.058z"/>
		<path style="fill:#FFFFFF;" d="M212.505,233.058h-10.369c-2.761,0-5-2.239-5-5s2.239-5,5-5h10.369c2.761,0,5,2.239,5,5
			S215.267,233.058,212.505,233.058z"/>
		<path style="fill:#4D4D4D;" d="M123.798,207.713h-16.705c-2.761,0-5-2.239-5-5s2.239-5,5-5h16.705c2.761,0,5,2.239,5,5
			S126.559,207.713,123.798,207.713z"/>
		<path style="fill:#4D4D4D;" d="M90.389,184.672H66.196c-2.761,0-5-2.239-5-5s2.239-5,5-5h24.193c2.761,0,5,2.239,5,5
			S93.15,184.672,90.389,184.672z"/>
		<path style="fill:#4D4D4D;" d="M49.643,184.671c-0.33,0-0.65-0.03-0.98-0.1c-0.32-0.06-0.63-0.16-0.93-0.28
			c-0.3-0.13-0.59-0.28-0.86-0.46c-0.28-0.18-0.53-0.39-0.77-0.62c-0.93-0.93-1.46-2.22-1.46-3.54c0-0.32,0.03-0.65,0.1-0.98
			c0.06-0.31,0.16-0.63,0.28-0.93c0.13-0.3,0.28-0.59,0.46-0.86c0.19-0.28,0.39-0.53,0.62-0.76c0.24-0.23,0.49-0.44,0.77-0.62
			c0.27-0.19,0.56-0.34,0.86-0.46c0.3-0.13,0.61-0.23,0.93-0.29c1.63-0.33,3.36,0.21,4.52,1.37c0.23,0.23,0.44,0.48,0.62,0.76
			c0.18,0.27,0.33,0.56,0.46,0.86c0.12,0.3,0.22,0.62,0.28,0.93c0.07,0.33,0.1,0.66,0.1,0.98c0,1.32-0.53,2.61-1.46,3.54
			c-0.23,0.23-0.49,0.44-0.76,0.62s-0.57,0.33-0.87,0.46c-0.3,0.12-0.61,0.22-0.93,0.28
			C50.293,184.641,49.973,184.671,49.643,184.671z"/>
		<path style="fill:#FFFFFF;" d="M182.313,184.671c-1.32,0-2.61-0.53-3.54-1.46c-0.93-0.93-1.46-2.22-1.46-3.54
			c0-0.33,0.03-0.65,0.1-0.98c0.06-0.31,0.16-0.63,0.28-0.93s0.28-0.59,0.46-0.86c0.18-0.28,0.39-0.53,0.62-0.76
			c1.16-1.16,2.89-1.7,4.51-1.37c0.32,0.06,0.64,0.16,0.94,0.29c0.3,0.12,0.59,0.27,0.86,0.45c0.28,0.19,0.53,0.4,0.76,0.63
			s0.44,0.48,0.62,0.76c0.18,0.27,0.34,0.56,0.46,0.86c0.13,0.3,0.22,0.62,0.29,0.93c0.06,0.33,0.1,0.65,0.1,0.98
			c0,1.32-0.54,2.61-1.47,3.54c-0.23,0.23-0.48,0.44-0.76,0.62c-0.27,0.18-0.56,0.33-0.86,0.46c-0.3,0.12-0.62,0.22-0.94,0.28
			C182.963,184.641,182.633,184.671,182.313,184.671z"/>
		<path style="fill:#4D4D4D;" d="M181.973,44.701c-0.32,0-0.65-0.03-0.97-0.1c-0.32-0.06-0.64-0.16-0.94-0.28
			c-0.3-0.13-0.59-0.28-0.86-0.46c-0.27-0.19-0.53-0.4-0.76-0.63c-0.93-0.93-1.46-2.21-1.46-3.53c0-0.33,0.03-0.66,0.09-0.98
			c0.07-0.32,0.16-0.63,0.29-0.93c0.12-0.31,0.28-0.6,0.46-0.87c0.18-0.27,0.39-0.53,0.62-0.76s0.49-0.44,0.76-0.62
			c0.27-0.18,0.56-0.33,0.86-0.46c0.3-0.12,0.62-0.22,0.94-0.28c0.64-0.13,1.31-0.13,1.95,0c0.32,0.06,0.64,0.16,0.94,0.28
			c0.3,0.13,0.59,0.28,0.86,0.46s0.53,0.39,0.76,0.62s0.44,0.49,0.62,0.76c0.18,0.27,0.34,0.56,0.46,0.87
			c0.13,0.3,0.22,0.61,0.29,0.93c0.06,0.32,0.09,0.65,0.09,0.98c0,1.32-0.53,2.6-1.46,3.53c-0.23,0.23-0.49,0.44-0.76,0.63
			c-0.27,0.18-0.56,0.33-0.86,0.46c-0.3,0.12-0.62,0.22-0.94,0.28C182.633,44.671,182.303,44.701,181.973,44.701z"/>
		<path style="fill:#FFFFFF;" d="M191.769,134.558H181.4c-2.761,0-5-2.239-5-5s2.239-5,5-5h10.369c2.761,0,5,2.239,5,5
			S194.53,134.558,191.769,134.558z"/>
		<path style="fill:#4D4D4D;" d="M313.73,134.558h-18.733c-2.761,0-5-2.239-5-5s2.239-5,5-5h18.733c2.761,0,5,2.239,5,5
			S316.491,134.558,313.73,134.558z"/>
		<path style="fill:#4D4D4D;" d="M111.701,134.558h-10.368c-2.761,0-5-2.239-5-5s2.239-5,5-5h10.368c2.761,0,5,2.239,5,5
			S114.463,134.558,111.701,134.558z"/>
		<path style="fill:#4D4D4D;" d="M253.503,155.291c-1.31,0-2.6-0.53-3.53-1.46c-0.93-0.93-1.47-2.22-1.47-3.53
			c0-1.32,0.54-2.61,1.47-3.54c1.16-1.16,2.89-1.69,4.51-1.37c0.32,0.07,0.63,0.16,0.94,0.29c0.3,0.12,0.59,0.28,0.86,0.46
			c0.27,0.18,0.53,0.39,0.76,0.62c0.93,0.93,1.46,2.22,1.46,3.54c0,1.31-0.53,2.6-1.46,3.53c-0.23,0.23-0.49,0.44-0.76,0.62
			c-0.27,0.18-0.56,0.34-0.86,0.46c-0.31,0.13-0.62,0.22-0.94,0.29C254.163,155.261,253.833,155.291,253.503,155.291z"/>
		<path style="fill:#4D4D4D;" d="M86.313,155.291c-0.33,0-0.66-0.03-0.98-0.09c-0.32-0.07-0.63-0.16-0.94-0.29
			c-0.3-0.12-0.59-0.28-0.86-0.46c-0.27-0.18-0.53-0.39-0.76-0.62s-0.44-0.49-0.62-0.76s-0.34-0.56-0.46-0.86
			c-0.13-0.31-0.22-0.62-0.29-0.94c-0.06-0.32-0.09-0.65-0.09-0.98c0-0.32,0.03-0.65,0.09-0.97c0.07-0.32,0.16-0.64,0.29-0.94
			c0.12-0.3,0.28-0.59,0.46-0.86s0.39-0.53,0.62-0.76s0.49-0.44,0.76-0.62c0.27-0.18,0.56-0.34,0.86-0.46
			c0.31-0.13,0.62-0.22,0.94-0.29c1.63-0.32,3.35,0.21,4.51,1.37c0.23,0.23,0.44,0.49,0.62,0.76s0.34,0.56,0.46,0.86
			c0.13,0.3,0.22,0.62,0.29,0.94c0.06,0.32,0.1,0.65,0.1,0.97c0,0.33-0.04,0.66-0.1,0.98c-0.07,0.32-0.16,0.63-0.29,0.94
			c-0.12,0.3-0.28,0.59-0.46,0.86s-0.39,0.53-0.62,0.76s-0.48,0.44-0.76,0.62c-0.27,0.18-0.56,0.34-0.86,0.46
			c-0.3,0.13-0.62,0.22-0.94,0.29C86.963,155.261,86.633,155.291,86.313,155.291z"/>
		<path style="fill:#4D4D4D;" d="M275.868,155.295H265.5c-2.761,0-5-2.239-5-5s2.239-5,5-5h10.368c2.761,0,5,2.239,5,5
			S278.629,155.295,275.868,155.295z"/>
		<path style="fill:#4D4D4D;" d="M332.318,155.295H321.95c-2.761,0-5-2.239-5-5s2.239-5,5-5h10.368c2.761,0,5,2.239,5,5
			S335.079,155.295,332.318,155.295z"/>
		<path style="fill:#4D4D4D;" d="M61.011,155.295H50.643c-2.761,0-5-2.239-5-5s2.239-5,5-5h10.368c2.761,0,5,2.239,5,5
			S63.773,155.295,61.011,155.295z"/>
		<path style="fill:#4D4D4D;" d="M258.011,113.245h-10.369c-2.761,0-5-2.239-5-5s2.239-5,5-5h10.369c2.761,0,5,2.239,5,5
			S260.773,113.245,258.011,113.245z"/>
	</g>
	<path style="opacity:0.25;enable-background:new    ;" d="M190.248,336.994c-19.96-7.05-38.22-17.72-53.98-31.21
		c-36.59-31.3-59.78-77.8-59.78-129.72c0-46.04,18.24-87.83,47.88-118.52c16.33-16.91,36.12-30.46,58.23-39.5
		c9.22-3.765,18.846-6.738,28.788-8.857c-11.529-2.458-23.483-3.763-35.745-3.763c-22.84,0-44.62,4.49-64.53,12.62
		c-22.11,9.04-41.9,22.59-58.23,39.5c-29.64,30.69-47.88,72.48-47.88,118.52c0,51.92,23.19,98.42,59.78,129.72
		c15.76,13.49,34.02,24.16,53.98,31.21c17.79,6.29,36.94,9.71,56.88,9.71c12.255,0,24.208-1.3,35.734-3.756
		C204.154,341.408,197.099,339.416,190.248,336.994z"/>
	<path style="fill:#333333;" d="M175.64,351.28C78.792,351.28,0,272.488,0,175.64S78.792,0,175.64,0s175.64,78.792,175.64,175.64
		S272.488,351.28,175.64,351.28z M175.64,10C84.306,10,10,84.306,10,175.64s74.306,165.64,165.64,165.64
		s165.64-74.306,165.64-165.64S266.974,10,175.64,10z"/>
	<g>
		<path style="fill:#FFFFFF;" d="M250.338,52.602c-0.907,0-1.824-0.247-2.649-0.763c-5.903-3.698-12.117-6.994-18.472-9.799
			c-2.526-1.115-3.67-4.067-2.555-6.593c1.115-2.526,4.068-3.67,6.593-2.555c6.792,2.998,13.434,6.521,19.742,10.473
			c2.34,1.466,3.049,4.551,1.583,6.892C253.63,51.771,252.003,52.602,250.338,52.602z"/>
		<path style="fill:#FFFFFF;" d="M273.435,290.345c-1.335,0-2.667-0.532-3.652-1.584c-1.886-2.017-1.781-5.181,0.235-7.067
			c29.375-27.482,46.223-66.24,46.223-106.334c0-40.323-16.17-77.856-45.532-105.684c-2.004-1.9-2.089-5.064-0.189-7.069
			c1.899-2.004,5.065-2.089,7.068-0.19c31.374,29.735,48.653,69.845,48.653,112.942c0,42.852-18.002,84.271-49.391,113.636
			C275.886,289.898,274.659,290.345,273.435,290.345z"/>
		<path style="fill:#FFFFFF;" d="M252.404,306.807c-1.637,0-3.241-0.803-4.199-2.278c-1.503-2.316-0.845-5.413,1.472-6.916
			c2.549-1.655,5.081-3.413,7.524-5.226c2.218-1.646,5.349-1.182,6.995,1.035s1.182,5.349-1.036,6.995
			c-2.61,1.937-5.315,3.816-8.039,5.584C254.281,306.546,253.337,306.807,252.404,306.807z"/>
	</g>
</g>
<g>
</g>
<g>
</g>
<g>
</g>
<g>
</g>
<g>
</g>
<g>
</g>
<g>
</g>
<g>
</g>
<g>
</g>
<g>
</g>
<g>
</g>
<g>
</g>
<g>
</g>
<g>
</g>
<g>
</g>
</svg>
