<?xml version="1.0" encoding="utf-8"?>
<!-- Generator: Adobe Illustrator 16.0.0, SVG Export Plug-In . SVG Version: 6.00 Build 0)  -->
<!DOCTYPE svg PUBLIC "-//W3C//DTD SVG 1.1//EN" "http://www.w3.org/Graphics/SVG/1.1/DTD/svg11.dtd">
<svg version="1.1" id="Layer_1" xmlns="http://www.w3.org/2000/svg" xmlns:xlink="http://www.w3.org/1999/xlink" x="0px" y="0px"
	 width="94.516px" height="108.117px" viewBox="0 0 94.516 108.117" enable-background="new 0 0 94.516 108.117"
	 xml:space="preserve">
<g>
	<g>
		<circle fill="none" stroke="#FFF9EC" stroke-width="4" stroke-miterlimit="10" cx="47.258" cy="47.258" r="45.258"/>
		<path fill="none" stroke="#FFF9EC" stroke-width="4" stroke-miterlimit="10" d="M8.871,23.274c0-0.056,32.963,9.066,76.699-0.101"
			/>
		<path fill="none" stroke="#FFF9EC" stroke-width="4" stroke-miterlimit="10" d="M4.637,32.006c0-0.06,37.646,13.363,85.934,0"/>
		<path fill="none" stroke="#FFF9EC" stroke-width="4" stroke-miterlimit="10" d="M3.637,52.006c0-0.06,38.816,13.363,88.602,0"/>
		<path fill="none" stroke="#FFF9EC" stroke-width="4" stroke-miterlimit="10" d="M5.95,66.456
			c4.958,2.904,57.689,11.312,82.291,0.585"/>
		<path fill="none" stroke="#FFF9EC" stroke-width="4" stroke-miterlimit="10" d="M12.871,76.682
			c4.184,2.45,47.498,9.649,68.252,0.601"/>
	</g>
	<path fill="#FFF9EC" d="M4.686,82.414c-3,0-3,4.703,0,4.703S7.686,82.414,4.686,82.414z"/>
	<path fill="#FFF9EC" d="M13.686,2.414c-3,0-3,4.703,0,4.703S16.686,2.414,13.686,2.414z"/>
	<path fill="#FFF9EC" d="M90.686,16.414c-3,0-3,4.703,0,4.703S93.686,16.414,90.686,16.414z"/>
	<path fill="#FFF9EC" d="M67.686,103.414c-3,0-3,4.703,0,4.703S70.686,103.414,67.686,103.414z"/>
	<path fill="#FFF9EC" d="M6.686,7.414c-3,0-3,4.703,0,4.703S9.686,7.414,6.686,7.414z"/>
</g>
</svg>
