<?xml version="1.0" encoding="utf-8"?>
<!-- Generator: Adobe Illustrator 16.0.0, SVG Export Plug-In . SVG Version: 6.00 Build 0)  -->
<!DOCTYPE svg PUBLIC "-//W3C//DTD SVG 1.1//EN" "http://www.w3.org/Graphics/SVG/1.1/DTD/svg11.dtd">
<svg version="1.1" id="Layer_1" xmlns="http://www.w3.org/2000/svg" xmlns:xlink="http://www.w3.org/1999/xlink" x="0px" y="0px"
	 width="171.807px" height="195.768px" viewBox="0 0 171.807 195.768" enable-background="new 0 0 171.807 195.768"
	 xml:space="preserve">
<path fill="#00A8DE" d="M87.555,194.053c-4.5,1.072-9.192-1.498-12.41-4.488c-4.019-3.732-9.278-8.73-10.572-14.244
	c-0.47-2.002,0.331-4.178,0.991-6.041c0.314-0.885,0.627-1.906,1.229-2.654c0.289-0.357,0.784-0.754,1.181-1.164
	c0.446-1.309,0.928-2.76,1.683-3.955c-0.029-0.453-0.032-0.916,0-1.393c0.031-0.49,0.054-1.014,0.087-1.547
	c-0.293-0.213-0.462-0.65-0.378-1.398c0.297-2.635,1.981-4.818,3.575-6.85c2.346-2.994,2.579-6.02,3.512-9.566
	c0.738-2.807,1.445-5.668,2.828-8.242c0.373-0.695,2.009-2.674,1.638-3.488c-0.741-1.629-2.131-2.867-4.014-2.602
	c-1.06,0.15-2.83-0.373-3.699,0.305c-1.126,0.881-1.96,2.016-2.688,3.236c-1.608,2.693-3.057,5.49-4.071,8.465
	c-0.95,2.785-1.669,5.938-3.293,8.434c-0.453,0.695-0.933,1.271-1.443,1.783c-0.715,1.541-1.35,3.369-2.275,4.865
	c0.014,0.061,0.027,0.119,0.035,0.188c0.206,1.797,0.138,2.961-0.597,4.207c0.011,0.074,0.021,0.15,0.021,0.24
	c0.012,1.275,0.149,2.533-0.152,3.779c-0.271,1.121-1.064,2.15-1.483,3.215c-0.821,2.086-2.656,4.357-4.557,5.551
	c-4.729,2.973-10.931,4.586-16.454,3.17c-2.529-0.648-5.481-1.697-7.564-3.311c-1.456-1.127-3.149-2.891-3.642-4.709
	c-0.556-2.047-0.379-4.889,0.876-6.701c0.281-0.404,0.565-0.75,0.854-1.072c0.087-0.371,0.205-0.744,0.364-1.127
	c0.863-2.061,2.229-3.732,3.938-5.162c1.31-1.094,2.981-1.713,4.256-2.814c0.545-0.471,1.636-1.717,2.288-2.963
	c-0.925-2.631-1.273-5.627-1.19-8.01c0.15-4.316-0.281-8.787,0.422-13.061c0.297-1.797,0.526-3.889,1.523-5.469
	c1.174-1.857,2.223-3.811,2.863-5.926c0.611-2.014,0.364-4.158,1.06-6.152c0.698-2,1.799-3.721,2.82-5.564
	c1.618-2.922,2.603-6.092,3.689-9.232c-1.133,0.553-2.369,0.869-3.642,0.812c-2.252-0.098-3.986-1.332-3.525-3.826
	c0.233-1.264,1.011-2.137,1.605-3.225c-1.02-1.33-1.721-1.402-2.102-0.215c-0.141,0.252-0.282,0.504-0.423,0.756
	c-0.243,0.461-0.519,0.898-0.831,1.316c-1.075,1.557-2.973,2.996-4.934,2.354c-5.313-1.748-3.081-10.002-1.469-13.445
	c1.214-2.594,2.643-4.936,4.745-6.926c0.848-0.803,1.987-2.406,3.25-2.964c0.446-1.772,0.956-3.598,2.207-4.955
	c0.714-0.774,1.416-1.364,2.327-1.906c0.991-0.587,2.634-0.755,3.383-1.65c1.857-2.22,3.756-4.585,6.215-6.18
	c2.01-1.303,4.169-2.099,6.318-3.095c0.277-1.18,0.956-2.424,1.181-3.447c0.651-2.968,1.814-5.89,2.833-8.748
	c2.018-5.658,3.518-11.845,6.513-17.096c2.225-3.903,4.592-9.49,10.149-8.461c3.149,0.583,6.314,1.493,9.437,2.239
	c1.246,0.298,3.316,0.468,4.63,1.187c1.639-2.627,3.543-5.226,5.825-7.336c10.338-9.558,24-6.82,35.654-1.231
	c3.26,1.562,6.292,3.53,9.527,5.115c2.819,1.381,6.03,3.27,7.744,6.019c1.351,2.164,3.126,4.914,3.146,7.564
	c0.021,2.736-0.818,5.208-1.794,7.736c-0.963,2.495-2.004,4.894-3.448,7.121c0.744,0.32,4.155,1.507,4.452,1.682
	c2.085,1.227,4.482,2.189,5.778,4.327c2.157,3.561-1.521,9.927-3.081,13.026c-2.722,5.405-5.746,10.514-8.681,15.789
	c-1.413,2.543-3.398,4.762-4.731,7.342c-0.656,1.271-0.974,2.641-1.843,3.803c-0.392,0.521-1.024,1.031-1.385,1.613
	c0.237,0.545,0.469,1.086,0.69,1.613c1.145,2.725,1.998,6.355,1.538,9.334c-0.237,1.533-0.76,2.91-1.302,4.355
	c-0.574,1.531,0.057,3.035,0.022,4.602c-0.076,3.381-1.316,6.014-2.734,9.039c-1.542,3.301-3.176,6.486-4.851,9.732
	c-0.829,1.604-1.771,3.434-3.299,4.414c0.223,1.889-0.409,3.896-0.907,5.664c-0.718,2.555-1.418,5.301-3.034,7.465
	c-1.805,2.418-8.331,7.25-9.282,1.52c-0.328-1.977,0.523-4.078,1.811-5.547c0.959-1.092,1.042-2.33,1.205-3.699
	c-0.07,0.6-1.213,2.01-1.525,2.588c-0.978,1.801-1.672,4.107-4.254,3.809c-1.64-0.189-2.802-0.889-3.213-2.316
	c-1.938,3.055-3.873,6.092-6.479,8.637c-1.84,1.795-4.094,3.051-5.188,5.482c-0.749,1.666-1.578,3.199-2.642,4.689
	c-2.086,2.924-3.649,6.039-6.637,8.162c-0.132,0.094-0.256,0.164-0.375,0.219c-0.294,0.354-0.601,0.691-0.917,1.008
	c2.794,3.424,7.209,9.178,5.438,13.873c0.347,0.27,0.46,0.836-0.002,1.508c-0.649,0.947-0.763,2.455-1.344,3.488
	c-0.687,1.221-1.433,2.268-2.41,3.273C92.571,192.209,89.712,193.539,87.555,194.053 M122.863,128.928
	c-0.262-0.158-0.634-0.449-1.021-0.789c-0.151,0.336-0.3,0.674-0.448,1.02c-0.793,1.854-1.415,3.703-2.515,5.408
	c-0.735,1.137-1.627,2.158-2.467,3.221c0.165,0.113,0.289,0.324,0.332,0.68c0.203,1.688,2.538,1.912,3.128,0.441
	c0.416-1.037,1.126-1.918,1.545-2.957c0.398-0.988,0.907-2.252,1.923-2.76c3.166-1.584,2.587,2.633,2.481,4.34
	c-0.082,1.33-0.689,2.479-1.549,3.473c-0.742,0.857-2.132,4.469,0.715,3.668c1.001-0.283,1.999-0.805,2.658-1.635
	c1.576-1.98,2.453-4.248,3.316-6.598c0.228-0.619,1.455-3.402,1.67-5.111c-0.267,0.07-0.542,0.121-0.839,0.141
	C128.811,131.67,125.402,130.469,122.863,128.928 M129.181,123.129c-0.991-0.412-2.14-0.762-3.003-1.42
	c-0.193-0.148-0.362-0.33-0.518-0.529c-0.466,0.797-0.872,1.629-1.317,2.436c-0.041,0.072-0.069,0.145-0.091,0.215
	c-0.195,0.277-0.383,0.555-0.562,0.836c0.354,0.295,0.691,0.57,0.907,0.789c1.145,1.174,3.146,1.566,4.669,2.061
	c1.712,0.559,3.867,1.277,5.013-0.914c0.355-0.684,0.728-1.354,1.1-2.025C133.201,124.52,131.19,123.957,129.181,123.129
	 M139.188,116.523c-1.63,0.326-3.638,0.008-4.889-0.541c-3.014-1.32-5.08-3.008-6.874-5.547c-0.863,1.896-1.738,4.107-1.487,6.201
	c0.07,0.578,0.236,1.215,0.339,1.85l-0.004,0.051c-0.052,0.494-0.11,0.988-0.17,1.482c0.193,0.238,0.418,0.457,0.749,0.611
	c0.979,0.457,1.987,0.799,3.001,1.164c2.112,0.76,4.193,0.832,6.361,1.254c0.592-1.111,1.013-2.176,1.382-3.387
	C137.951,118.51,138.654,117.586,139.188,116.523 M142.79,99.777c-4.014,0.916-9.051-0.26-11.928-3.223
	c-0.023,1.277-0.146,2.533-0.229,3.605c-0.273,3.523-1.345,6.211-2.779,9.336c1.786,1.758,3.348,3.303,5.839,4.258
	c1.856,0.711,4.638,1.217,6.6,0.389c0.866-1.91,1.601-3.842,1.382-6.023c-0.204-2.057-0.439-3.631,0.33-5.605
	C142.365,101.588,142.624,100.682,142.79,99.777 M72.489,60.449c0.709,0.963-0.425,1.827-1.57,2.458
	c-0.041,0.195-0.125,0.39-0.233,0.564c0.206,0.234,0.39,0.472,0.441,0.663c0.385,1.438,1.218,3.022,2.219,4.153
	c2.043,2.309,4.466,3.51,6.799,5.262c0.479-1.062,0.678-2.191,1.286-3.141c-0.437-1.826-0.999-3.637-1.098-5.504
	c-0.129-2.43-0.403-4.702-1.155-7.029c-0.832-2.57-2.63-4.524-3.298-7.114c-0.349-1.355-1.016-2.42-1.369-3.652
	c-1.098,0.269-2.223,0.458-3.329,0.652c-1.816,0.319-3.197,0.905-4.602,1.695c-0.082,0.178-0.21,0.272-0.548,0.671
	c-1.053,1.237,0.059,3.946,0.437,5.309c0.373,1.344,0.785,3.769,1.759,4.805c0.604,0.641,1.392,0.997,2.095,1.496
	c0.883-0.404,1.612-0.785,1.641-0.973C71.991,60.578,72.305,60.2,72.489,60.449 M114.395,80.742c-0.815,0.6-1.631,1.203-2.461,1.801
	c-1.368,0.984,2.475,3.064,3.592,3.494c2.607,0.996,6.611-2.312,8.742-3.648c2.686-1.682,5.491-3.436,7.977-5.402
	c2.564-2.027,5.966-3.773,4.131-7.613c-0.435-0.908-1.047-0.986-1.726-0.77c-0.2,0.164-0.408,0.322-0.624,0.471
	c-0.617,0.428-1.275,0.662-1.951,0.76c-0.132,0.064-0.265,0.125-0.397,0.188c-3.734,2.635-7.978,4.611-11.859,6.984
	c-1.68,1.027-3.257,2.15-4.823,3.297C114.833,80.508,114.628,80.662,114.395,80.742 M128.617,69.35
	c-0.608-0.223-1.197-0.498-1.749-0.787c-6.564-3.443-13.701-5.756-20.277-9.226c-5.519-2.913-10.877-6.115-15.698-10.044
	c0.321,1.777,0.856,3.451,0.954,5.303c0.059,1.121,0.107,2.221,0.139,3.32c1.588,2.19,5.001,3.867,6.995,5.145
	c2.572,1.647,5.044,3.525,7.668,5.081c2.595,1.537,5.426,2.533,8.093,3.923c1.199,0.623,4.447,2.113,5.938,1.617
	c0.208-0.068,0.357-0.059,0.462,0.002c0.086-0.047,0.171-0.096,0.257-0.143c2.279-1.219,4.678-2.318,7.026-3.496
	C128.448,69.812,128.515,69.57,128.617,69.35 M141.757,58.77c0.24-0.019,0.488-0.017,0.755,0.033
	c0.598,0.11,1.203,0.528,1.701,0.849c1.128,0.726,0.813,0.259,1.396-0.77c1.318-2.326,2.956-4.459,4.303-6.775
	c0.777-1.335,1.651-2.705,2.094-4.197c0.379-1.278-0.759-2.24-1.752-2.965c-0.844,1.511-1.652,3.035-2.614,4.504
	c-0.976,1.487-2.241,2.842-3.131,4.376c-0.739,1.277-1.28,2.702-2.09,3.936C142.2,58.095,141.979,58.432,141.757,58.77
	 M114.646,74.104c-3.227-1.697-6.745-2.883-9.74-5.002c-3.153-2.23-6.446-4.324-9.508-6.679c-0.995-0.766-2.431-1.799-3.382-3
	c0.008,0.649,0.012,1.301,0.006,1.959c-0.018,2.061,0.163,4.503-0.281,6.673c4.447,1.014,8.644,2.497,12.748,4.508
	c2.029,0.992,4.225,1.803,6.151,2.986c1.124,0.693,2.756,1.262,3.824,2.162c1.244-0.844,2.519-1.643,3.812-2.408
	C116.943,75.102,115.542,74.574,114.646,74.104 M84.587,43.576c-0.755-0.247-0.813-1.053-0.525-1.774
	c-2.421-0.381-6.026,0.737-7.114,2.138c-1.042,1.34,0.798,3.799,1.169,5.162c0.475,1.742,1.745,2.912,2.402,4.542
	c1.048,2.599,1.978,5.444,2.093,8.27c0.116,2.856,0.896,5.492,1.476,8.248c1.412-0.416,2.842-0.346,4.355-0.771
	c1.452-0.408,1.005-7.594,1.059-8.805c0.131-3.01-0.177-6.331-1.084-9.187C87.783,49.399,87.025,44.379,84.587,43.576
	 M58.992,74.078c0.577,6.684,8.867,11.338,14.297,13.965c1.282-2.785,2.623-5.545,3.825-8.373c0.648-1.523,1.351-2.99,2.128-4.438
	c-2.723-1.916-5.727-3.482-7.418-6.541c-0.693-1.252-1.285-2.525-1.515-3.951c-0.046-0.293-0.126-0.515-0.212-0.708
	c-0.212,0.096-0.434,0.096-0.627-0.065c-0.083-0.068-0.165-0.127-0.247-0.191c-0.007,0.004-0.017,0.008-0.022,0.012
	C65.137,66.443,61.07,69.559,58.992,74.078 M74.589,90.379c-0.217,0.586-2.128,4.543-1.636,4.957
	c1.354,1.137,2.657,2.354,4.108,3.367c2.977,2.084,6.093,4.289,9.396,5.818c3.668,1.699,7.169,3.566,10.752,5.428
	c1.732,0.9,3.427,1.186,5.286,1.66c2.585,0.66,3.5-1.627,4.582-3.371c2.098-3.385,3.476-6.969,5.343-10.451
	c1.01-1.885,2.125-4.037,2.579-6.146c0.181-0.844,0.396-1.58,0.763-2.301c-0.502-0.012-1.001-0.088-1.488-0.219
	c-0.151,0.57-0.257,1.164-0.446,1.646c-0.498,1.268-1.13,2.457-1.783,3.65c-1.71,3.129-3.622,6.135-5.368,9.242
	c-0.527,0.938-3.325,7-5.012,4.59c-0.304-0.434,0.383-1.574,0.881-1.162c0.562,0.465,6.387-9.578,6.889-10.402
	c1.334-2.193,2.809-4.393,3.696-6.814c0.128-0.348,0.235-0.691,0.351-1.021c-1.09-0.439-2.104-1.143-2.953-2.012
	c-1.775-1.812-2.837-3.918-0.465-5.859c0.373-0.305,0.751-0.602,1.131-0.898c-0.804-0.443-1.567-1.016-2.429-1.529
	c-1.954-1.164-4.04-2.074-6-3.229c-3.702-2.186-7.649-3.807-11.54-5.582c-0.212,0.494-0.473,0.965-0.807,1.393
	c-1.327,1.705-3.738,1.33-5.751,1.66c-0.662,1.23-0.774,2.971-1.419,4.154c-0.912,1.676-1.798,3.359-2.629,5.078
	c-1.397,2.889-2.118,5.939-3.544,8.818c-0.239,0.482-0.952,0.547-0.719-0.123c1.301-3.727,2.232-7.344,4.158-10.822
	c1.06-1.918,2.206-3.717,2.883-5.812c0.143-0.441,0.256-0.787,0.389-1.084c-0.23,0.076-0.455,0.162-0.663,0.279
	c-0.496,0.273-0.895,0.066-1.114-0.309c-0.075,0.322-0.175,0.641-0.33,0.947c-1.014,1.998-1.907,3.973-2.687,6.072
	C77.682,83.521,75.895,86.854,74.589,90.379 M111.318,106.375c2.432,1.143,5.165,2.227,7.698,2.867
	c2.114,0.533,4.277,0.4,6.397,0.652c1.249-2.398,2.661-4.723,3.135-7.428c0.273-1.566,0.671-3.42,0.902-5.279
	c-0.172,0.051-0.354,0.064-0.555,0.016c-0.261-0.064-1.418-0.484-1.511-0.486c-0.464-0.01-1.441,0.24-1.962,0.105
	c-1.442-0.373-2.871-1.002-4.247-1.586c-0.618-0.262-2.614-0.959-3.945-1.873c-0.48,1.262-0.996,2.496-1.566,3.719
	c-0.933,1.996-1.875,3.955-2.77,5.965C112.422,104.107,111.897,105.238,111.318,106.375 M140.01,87.064
	c-0.268,0.047-0.986,0.27-1.099,0.262c-0.58-0.029-1.131-0.135-1.706-0.201c-1.489-0.172-3.04-0.254-4.496-0.635
	c-1.277-0.336-2.752-0.508-3.948-1.078c-0.396-0.189-0.855-0.365-1.176-0.682c-0.277-0.27-0.513-0.668-0.77-1.021
	c-2.581,1.783-5.297,3.58-8.062,4.865c0.068,0.389-0.025,0.871-0.381,1.4c-0.361,0.545-0.557,1.289-0.741,2.018
	c0.669,0.375,1.505,0.775,1.63,0.828c1.124,0.467,2.266,0.877,3.423,1.258c0.861,0.283,1.776,0.725,2.649,0.914
	c0.921,0.199,1.878-0.256,2.737-0.021c0.45,0.125,1.031,0.418,1.544,0.34c0.005-0.119,0.016-0.238,0.018-0.357
	c-0.084-0.143-0.166-0.291-0.241-0.439c-0.05-0.1,0.079-0.373,0.205-0.27c0.014,0.012,0.027,0.02,0.04,0.033
	c-0.014-0.967-0.12-1.895-0.37-2.732c-0.065-0.225,0.313-0.752,0.502-0.455c0.718,1.133,0.999,2.586,1.074,4.09
	c1.896,1.301,3.975,2.164,6.299,2.658c2.103,0.445,3.91,0.201,5.858-0.172c0.017-1.125-0.115-2.27-0.414-3.473
	c-0.428-1.715-1.1-3.33-1.752-4.957c-0.112-0.125-0.184-0.295-0.204-0.516C140.414,88.174,140.206,87.621,140.01,87.064
	 M129.456,81.875c-0.614,0.426-1.242,0.861-1.875,1.303c0.71,0.42,1.557,1.049,1.755,1.098c1.053,0.262,2.12,0.426,3.183,0.635
	c1.254,0.244,2.51,0.404,3.784,0.506c0.939,0.072,2.095,0.336,3.108,0.213c-0.037-0.133-0.073-0.268-0.112-0.402
	c-0.267-0.611-0.535-1.221-0.713-1.883c-0.021-0.074-0.019-0.26-0.007-0.494c-0.647-1.992-1.402-3.938-2.288-5.711
	C134.201,78.971,131.563,80.42,129.456,81.875 M152.523,41.271c-0.571,0.8-1.088,1.623-1.574,2.455
	c6.768,0.432,0.668,10.493-1.147,13.509c-1.393,2.313-2.442,5.627-5.005,6.895c-1.55,0.768-3.502-0.786-4.938-1.148
	c-0.302-0.076-0.501-0.247-0.632-0.461c-0.455,0.641-0.921,1.264-1.395,1.872c-0.145,0.314-0.307,0.62-0.474,0.921
	c0.321,0.133,0.592,0.357,0.794,0.695c1.403,2.353,2.102,5.611,0.676,8.138c-0.459,0.812-1.055,1.549-1.732,2.236
	c1.354,1.51,2.639,3.389,3.712,5.42c0.601,0.93,1.148,1.922,1.657,2.936c0.597-0.842,1.201-1.688,1.6-2.666
	c1.019-2.492,2.968-4.582,4.389-6.84c3.126-4.967,6.119-10.095,8.858-15.291c1.452-2.754,3.072-5.482,3.853-8.523
	c0.042-0.166,0.068-0.319,0.097-0.476c-0.713,0.259-1.453,0.021-2.193-0.448c-1.074,2.017-2.017,4.169-3.06,6.173
	c-1.285,2.469-2.925,4.732-4.189,7.208c-2.336,4.576-4.6,10.193-8.373,13.773c-0.757,0.717-1.216-0.266-0.644-0.896
	c3.985-4.402,5.881-10.342,9.065-15.282c1.528-2.37,2.92-4.788,4.366-7.205c0.779-1.298,1.487-2.794,2.386-4.082
	c-0.111-0.083-0.223-0.168-0.334-0.258c-0.914-0.743-1.326-1.959-2.28-2.639c-0.587-0.418-0.813-0.729-0.662-1.445
	c0.082-0.387,0.718-0.68,0.654-0.105c-0.055,0.51,1.016,0.914,1.307,1.204c0.572,0.573,1.084,1.274,1.794,1.685
	c0.183,0.106,0.361,0.213,0.54,0.312c0.023-0.024,0.045-0.051,0.069-0.075c0.147-0.148,0.275,0.011,0.181,0.171
	c-0.005,0.009-0.011,0.019-0.016,0.026c0.479,0.241,0.957,0.388,1.462,0.24c-0.304-2.491-2.579-3.822-4.916-5.344
	C155.516,43.37,153.099,42.503,152.523,41.271 M103.521,11.01c-1.906,1.938-3.67,4.025-5.032,6.388
	c-1.382,2.397-3.266,4.807-4.37,7.327c-1.155,2.64-2.102,5.383-3.366,7.972c-0.542,1.111-1.255,2.172-1.905,3.26
	c-0.765,2.788-1.527,5.292,1.036,7.411c4.835,3.998,9.965,7.104,15.425,10.181c5.435,3.062,11.301,5.732,17.115,7.991
	c2.639,1.025,5.118,2.264,7.706,3.374c2.06,0.884,3.7,0.801,4.944-1.28c0.481-0.806,1.009-1.54,1.607-2.258
	c0.474-0.794,0.921-1.607,1.505-2.333c0.892-1.109,1.805-2.183,2.456-3.459c1.22-2.394,2.709-4.346,4.178-6.578
	c1.459-2.215,2.349-4.78,3.893-6.934c1.598-2.229,3.271-4.295,4.344-6.852c0.953-2.272,2.259-4.835,2.467-7.32
	c0.236-2.805-1.525-6.101-3.533-8.028c-2.298-2.208-4.995-3.262-7.707-4.799c-2.512-1.423-4.986-2.88-7.597-4.121
	C126.532,6.123,112.64,1.741,103.521,11.01 M88.983,32.005c1.089-2.865,1.934-5.819,3.129-8.644c0.317-0.748,0.751-1.427,1.194-2.1
	c-1.855-0.456-4.369-0.313-5.492,1.096c-1.164,1.462-1.889,3.285-2.593,5.005c-0.682,1.665-1.054,3.435-1.881,5.04
	c-1.077,2.091,2.446,2.974,3.798,3.384c0.063,0.02,0.112,0.047,0.168,0.072c0.37-0.823,0.781-1.637,1.139-2.498
	c0.038-0.089,0.071-0.179,0.108-0.27c0.01-0.128,0.003-0.241-0.029-0.329C88.438,32.524,88.72,32.065,88.983,32.005 M69.743,45.784
	c1.57-0.16,3.023-0.305,4.536-0.297c0.043-2.893,3.33-4.983,5.867-5.437c1.446-0.258,3.979-0.475,5.442,0.435
	c0.119-0.439,0.252-0.87,0.399-1.292c-0.065,0.009-0.131,0.021-0.196,0.02c-2.862-0.049-5.183-2.194-5.43-5.016
	c-0.132-1.506,1.208-3.085,1.653-4.419c0.559-1.669,1.24-3.263,2.031-4.835c1.055-2.099,2.648-5.401,5.321-5.794
	c1.515-0.223,3.427-0.089,4.798,0.767c0.091-0.154,0.179-0.31,0.263-0.469c0.427-0.817,0.818-1.655,1.229-2.482
	c-0.847-0.146-1.817-0.114-2.601-0.26c-1.31-0.244-2.619-0.486-3.932-0.708c-2.27-0.383-4.507-0.928-6.769-1.326
	c-0.708-0.125-2.781-0.219-3.894,0.259c0.757,0.281,1.706,0.83,2.078,1.396c1.569,0.102,3.146,0.023,4.708,0.208
	c1.884,0.224,3.749,0.591,5.633,0.808c0.685,0.079,0.093,1.343-0.506,1.287c-2.078-0.191-4.093-0.711-6.159-0.971
	c-1.169-0.147-2.395-0.148-3.547-0.419c-0.074,0.377-0.253,0.675-0.511,1.034c-0.797,1.105-1.263,2.507-1.84,3.744
	c-1.393,2.983-2.578,6.027-3.764,9.095c-1.013,2.619-2.528,5.033-3.02,7.829c-0.095,0.538-1.002,0.9-0.885,0.141
	c0.636-4.135,2.965-8.381,4.561-12.228c1.071-2.581,2.377-5.045,3.48-7.609c0.588-1.367,0.576-3.019-0.875-3.791
	c-0.433,0.754-0.865,1.496-1.336,2.229c-1.418,2.2-2.737,4.405-3.675,6.861c-1.77,4.629-3.267,9.327-4.885,14.004
	c-0.775,2.241-1.59,4.671-2.052,7.005c-0.117,0.587-0.171,1.201-0.279,1.799C66.844,46.596,68.131,45.948,69.743,45.784
	 M53.556,57.681c-0.301,0.342-0.592,0.717-0.883,1.102c0.387,1.34,0.618,2.765,1.396,4.015c1.104,1.772,4.282,4.955,6.386,5.36
	c0.046,0.01,0.083,0.025,0.124,0.041c0.434-0.46,0.882-0.906,1.358-1.32c1.621-1.4,3.338-2.691,5.201-3.754
	c0.103-0.059,0.357-0.17,0.692-0.313c-0.569-0.403-1.079-0.855-1.478-1.63c-0.842-1.633-1.225-3.743-1.539-5.538
	c-0.27-1.54-0.412-3.02-0.176-4.572c0.034-0.222,0.104-0.397,0.187-0.555c-0.117,0.074-0.23,0.145-0.35,0.221
	c-0.042,0.026-0.085,0.052-0.128,0.078c-0.436,0.786-1.254,1.46-1.879,1.084C59.312,53.586,56.041,54.861,53.556,57.681
	 M45.092,64.695c-0.834,1.567-2.074,5.077-1.429,6.866c0.679,1.883,1.955,3.189,3.475,4.447c0.253,0.209,0.371,0.502,0.396,0.822
	c0.836,0.395,1.666,0.801,2.515,1.176c1.349,0.594,2.626,0.686,4.071,0.77c0.263,0.016,0.457,0.098,0.601,0.223
	c0.231-0.723,0.465-1.445,0.718-2.164c0.838-2.369,2.022-4.695,3.546-6.744c-2.312-0.646-4.586-3.421-5.699-5.286
	c-0.699-1.171-1.097-2.69-1.344-4.023c-0.053-0.285-0.077-0.597-0.093-0.917c-0.562,0.724-1.156,1.411-1.85,1.925
	C48.586,62.834,45.954,63.074,45.092,64.695 M50.229,88.793c0.828-1.959,2.31-3.518,3.064-5.518c0.109-0.287,0.206-0.58,0.308-0.869
	c-0.194,0.123-0.395,0.203-0.594,0.219c-3.002,0.201-5.326-1.588-7.432-3.498c-0.1-0.029-0.198-0.074-0.293-0.145
	c-3.451-2.568-5.126-5.646-4.289-9.777c-0.467,0.561-0.915,1.152-1.245,1.52c-0.978,1.09-1.952,2.209-2.687,3.486
	c-1.138,1.977-2.16,4.305-2.535,6.568c-0.277,1.676-0.337,6.221,2.38,6.27c1.469,0.025,2.682-3.414,3.76-4.299
	c2.282-1.873,5.422-0.916,5.244,2.316c-0.034,0.613-0.253,1.23-0.546,1.768c-0.37,0.68-2.703,3.51,0.173,3.602
	C47.473,90.494,48.798,89.68,50.229,88.793 M53.47,88.975c0.473,0.992,0.786,2.055,1.437,2.979c1.053,1.49,2.183,2.904,3.472,4.201
	c2.572,2.59,5.48,4.848,8.357,7.088c5.328,4.15,11.072,6.943,16.986,10.115c5.907,3.164,12.189,6.953,18.737,8.607
	c5.416,1.367,12.076,4.723,17.702,3.006c0.117-0.035,0.212-0.037,0.287-0.016c0.423-0.775,0.765-1.594,0.985-2.453
	c0.108-0.01,0.214,0,0.312,0.039c0.782-0.799,1.776-1.672,1.663-2.617c-0.314-2.643-0.119-5.279,0.925-7.771
	c0.048-0.113,0.1-0.227,0.149-0.338c-4.758-0.176-9.848-1.621-13.715-4.389c-1.265,2.342-2.765,4.623-4.527,6.271
	c-2.607,2.436-5.983,1.383-9.012,0.365c-1.928-0.648-3.718-1.891-5.48-2.883c-2.061-1.16-4.203-2.09-6.343-3.086
	c-4.418-2.061-8.875-4.891-12.566-8.084c-1.018-0.881-2.514-1.736-2.75-3.119c-0.237-1.396,0.571-2.725,1.071-3.967
	c0.432-1.072,0.889-2.131,1.359-3.184c-4.09-1.418-7.672-4.332-10.537-7.527c-1.716-1.914-3.413-4.166-3.584-6.682
	c-1.3,3.615-1.699,7.656-3.674,10.984C54.243,87.324,53.839,88.146,53.47,88.975 M45.097,114.986
	c0.958,2.799,2.336,5.178,4.328,7.361c2.016,2.209,4.557,4.852,7.393,6.031c2.271,0.943,4.644,0.938,7.041,1.266
	c0.038,0.006,0.07,0.016,0.099,0.027c0.72-0.135,1.417-0.346,2.132-0.49c0.678-0.137,1.377-0.088,2.009-0.391
	c1.06-1.854,2.336-3.52,3.848-4.717c-0.308-0.09-0.622-0.18-0.95-0.264c-1.602-0.406-3.233-0.67-4.723-1.422
	c-3.222-1.627-5.91-3.906-8.56-6.326c-2.536-2.318-4.797-5.01-6.802-7.803c-0.93-1.293-1.954-2.773-2.404-4.33
	c-0.141-0.488-0.164-1.197-0.201-1.889c-0.394,0.746-0.8,1.484-1.236,2.211c-1.332,2.223-1.824,4.105-2.142,6.637
	c-0.071,0.559-0.177,1.115-0.303,1.666C44.69,113.377,44.825,114.191,45.097,114.986 M28.351,166.553
	c0.026-0.111,0.048-0.227,0.079-0.342c0.109-0.396,0.595-1.365,0.394-1.814c-0.053-0.055-0.102-0.113-0.153-0.17
	c-0.027-0.016-0.055-0.031-0.089-0.041c-0.135-0.041-0.184-0.146-0.185-0.264c-0.742-0.881-1.306-1.861-1.589-2.926
	c-0.173,0.641-0.232,1.334-0.126,2.098C26.823,164.117,27.528,165.484,28.351,166.553 M32.35,169.506
	c0.161-0.727,0.408-1.443,0.588-2.17c-1.194-0.594-2.375-1.35-3.389-2.246c-0.054,0.258-0.12,0.516-0.187,0.781
	c-0.13,0.514-0.198,1.037-0.242,1.561c0.154,0.15,0.308,0.283,0.458,0.393C30.414,168.441,31.356,169.002,32.35,169.506
	 M36.432,171.092c0.262-0.766,0.492-1.539,0.712-2.314c-0.793-0.158-1.592-0.375-2.396-0.664c-0.37-0.133-0.746-0.287-1.124-0.453
	c-0.15,0.758-0.318,1.512-0.388,2.279C34.269,170.404,35.348,170.795,36.432,171.092 M40.958,171.74
	c0.081-0.633,0.618-1.396,0.86-1.771c0.15-0.23,0.442-0.592,0.691-0.982c-1.488,0.182-2.995,0.184-4.522-0.043
	c-0.2,0.801-0.486,1.508-0.656,2.402l-0.001,0.002c0.786,0.111,1.683,0.303,2.505,0.357
	C40.194,171.729,40.573,171.738,40.958,171.74 M56.514,160.879c-0.902,1.174-1.752,2.367-2.802,3.385
	c-0.194,0.619-0.406,1.234-0.502,1.885c-0.087,0.598-0.179,1.188-0.302,1.77c0.089-0.088,0.184-0.17,0.268-0.262
	c1.388-1.486,1.764-3.039,2.778-4.668C56.399,162.271,56.488,161.584,56.514,160.879 M48.438,167.352
	c-0.24,1.146-0.512,2.285-0.781,3.426c1.459-0.443,2.835-1.053,3.996-1.842c0.356-0.98,0.533-1.996,0.785-3.014
	c0.067-0.271,0.158-0.535,0.255-0.799c-0.319,0.238-0.651,0.465-1.016,0.664C50.611,166.369,49.53,166.895,48.438,167.352
	 M43.375,168.861c-0.049,0.105-0.1,0.211-0.15,0.309c-0.271,0.525-0.587,1.027-0.86,1.555c-0.168,0.324-0.251,0.664-0.364,0.996
	c1.473-0.061,3.062-0.27,4.607-0.652c0-0.033,0-0.07,0.005-0.111c0.129-1.102,0.617-2.133,0.88-3.205
	c0.002-0.01,0.005-0.018,0.008-0.027C46.145,168.232,44.769,168.625,43.375,168.861 M49.898,156.811
	c-2.613-0.607-5.518-1.555-7.447-3.516c-0.855-0.867-1.442-1.754-1.879-2.686c-0.16-0.059-0.32-0.162-0.478-0.326
	c-0.619-0.637-1.146-1.41-1.597-2.262c-0.337,0.607-0.711,1.158-1.032,1.582c-1.255,1.654-4.215,3.51-6.183,5.535
	c0.021,0.211-0.08,0.529-0.211,0.643c-0.334,0.291-0.677,0.582-1.019,0.881c-1.141,1.826-1.04,3.773,2.059,5.828
	c4.587,3.039,10.706,4.346,15.877,1.777c1.278-0.633,2.972-1.24,4.051-2.17c1.3-1.117,2.253-2.57,3.266-3.934
	c0.535-0.721,1.055-1.211,1.239-1.98C54.486,157.236,52.252,157.359,49.898,156.811 M56.831,142.795
	c-2.878-0.82-6.058-1.389-8.655-2.963c-2.601-1.574-4.831-4.377-6.298-7.023c-0.86-1.549-1.385-3.264-1.959-4.939
	c-0.049,2.529,0.091,5.082-0.006,7.578c-0.095,2.465,0.002,4.85,0.808,7.211c0.608,1.779,1.567,3.475,1.918,5.318
	c0.055,0.287,0.009,0.645-0.106,1.004c0.229,0.328,0.476,0.637,0.757,0.908c1.887,1.83,4.471,3,7.041,3.479
	c1.18,0.221,2.536,0.521,3.739,0.348c1.715-0.25,2.626-1.141,3.344-2.365c-0.352-0.342-0.158-1.381,0.36-1.846
	c0.389-0.348,0.764-0.672,1.125-0.986c0.587-0.932,1.295-1.754,2.188-2.467c0.059-0.049,0.116-0.084,0.172-0.121
	c0.259-0.416,0.494-0.877,0.694-1.408c0.265-0.697,0.501-1.404,0.729-2.113C60.834,143.098,58.677,143.322,56.831,142.795
	 M67.196,130.488c-0.44,0.037-0.885,0.01-1.365,0.086c-0.863,0.135-1.695,0.275-2.571,0.279c-0.636,0.006-1.54,0.004-2.362-0.129
	c-2.066,0.055-4.214,0.047-5.952-0.986c-2.603-1.545-4.959-3.555-6.876-5.908c-1.866-2.291-3.65-4.979-4.171-7.953
	c-0.038-0.211-0.064-0.418-0.094-0.625c-0.187,0.486-0.39,0.965-0.61,1.436c-0.704,1.506-1.971,3.08-2.429,4.654
	c-0.418,1.436-0.639,2.9-0.751,4.381c0.874,1.678,1.408,3.664,2.383,5.248c1.396,2.268,3.62,5.506,5.932,6.852
	c4.166,2.424,10.138,4.336,14.908,2.803c0.168-0.559,0.336-1.117,0.504-1.678C64.626,136.016,65.796,133.205,67.196,130.488
	 M85.188,128.744c1.031,0.75,2,1.594,3.088,2.264c2.609,1.605,5.326,2.518,8.245,3.385c2.487,0.74,4.991,1.539,7.575,1.883
	c2.41,0.322,6.308,1.041,8.503-0.268c0.619-0.369,0.923-0.053,0.945,0.396c0.782-1.074,1.608-2.096,2.467-3.143
	c1.151-1.404,1.63-3.006,2.399-4.611c0.291-0.607,0.571-1.217,0.854-1.828c-2.898,0.693-6.008,0.111-8.812-0.719
	c-3.171-0.941-6.466-1.676-9.597-2.719c-6.333-2.113-12.214-5.383-18.084-8.506c-6.635-3.535-12.854-6.814-18.665-11.658
	c-2.57-2.143-5.294-4.219-7.433-6.818c-1.708-2.074-2.78-3.959-3.7-6.252c-1.042,2.615-1.762,5.301-2.851,7.996
	c-0.419,1.041-0.88,2.057-1.378,3.053c0.002,0.328-0.009,0.709,0.211,1.273c0.671,1.725,1.636,3.412,2.834,4.828
	c2.381,2.812,4.708,5.613,7.513,8.021c4.318,3.707,9.129,6.586,14.742,7.49c1.777-0.752,3.817-0.867,6.159-0.002
	c2.228,0.822,3.631,2.887,3.795,5.141C84.394,128.203,84.795,128.457,85.188,128.744 M81.237,134.521
	c0.83,1.811,1.614,3.559,3.055,5.129c2.153,2.346,4.805,4.25,7.686,5.613c2.53,1.199,5.32,2.273,8.167,2.291
	c2.032,0.014,3.965-0.939,5.902-1.037c2.639-2.557,4.51-5.619,6.52-8.705c0.017-0.027,0.034-0.051,0.051-0.076
	c-2.146,1.211-4.975,0.924-7.351,0.672c-3.625-0.383-6.969-1.48-10.435-2.537c-3.283-1-6.364-2.369-8.989-4.639
	c-0.629-0.545-1.323-1.039-2.007-1.541c-0.307,0.977-0.992,1.91-1.501,2.732C81.917,133.096,81.556,133.799,81.237,134.521
	 M77.983,147.525c0.576,1.73,1.875,3.477,2.824,4.75c1.541,2.068,3.325,4.092,5.596,5.383c2.23,1.268,4.423,1.809,6.994,1.562
	c1.147-0.109,2.696,0.049,3.923-0.309c0.939-1.4,1.762-2.846,2.364-4.248c0.975-2.27,2.142-3.998,3.701-5.633
	c-1.566,0.391-3.111,0.727-4.894,0.482c-2.659-0.367-5.242-1.221-7.614-2.488c-2.828-1.51-5.84-3.455-7.739-6.115
	c-1.215-1.705-1.95-3.186-2.498-4.877c-0.289,0.82-0.533,1.658-0.743,2.502C79.161,141.492,79.007,144.652,77.983,147.525
	 M73.743,163.65c1.808,2.16,4.132,3.109,6.646,4.193c2.351,1.014,5.645,1.092,7.979-0.205c2.009-1.111,3.186-3.254,5.252-4.143
	c0.035-0.018,0.066-0.023,0.101-0.037c0.699-0.748,1.387-1.562,2.05-2.41c-0.892,0.084-1.832,0.07-2.735,0.117
	c-2.755,0.146-5.35-0.229-7.675-1.836c-2.882-1.992-5.007-4.525-6.688-7.594c-0.503-0.92-0.979-1.805-1.313-2.717
	c-1.44,2.879-3.633,5.186-4.973,8.145c-0.138,0.305-0.349,0.586-0.596,0.824C71.998,160.215,72.822,162.549,73.743,163.65
	 M66.815,175.754c0.255-0.643,0.719-1.291,1.09-1.932c-0.021-0.066-0.047-0.129-0.067-0.197c-0.526-1.809-0.776-3.648-0.549-5.475
	c-0.177,0.354-0.334,0.721-0.441,1.125C66.251,171.531,65.843,173.623,66.815,175.754 M69.332,179.523
	c0.151-0.492,0.373-0.961,0.616-1.42c-0.692-1.041-1.285-2.16-1.739-3.381c-0.362,0.742-0.594,1.488-0.229,2.277
	c0.074,0.16,0.019,0.373-0.096,0.551C68.337,178.227,68.827,178.881,69.332,179.523 M80.456,182.783
	c2.182,1.158,4.055,2.551,6.541,3.004c2.535,0.461,4.213-0.57,6.149-2.086c4.612-3.613-0.854-9.348-3.484-12.541
	c-0.103-0.125-0.165-0.268-0.208-0.418c-4.438,2.504-9.974,2.291-14.712-0.938c-2.386-1.627-4.092-3.771-4.775-6.373
	c-1.023,3.486-0.691,7.531,1.182,10.49C73.437,177.539,76.656,180.764,80.456,182.783 M73.142,183.84
	c0.021-0.615,0.076-1.225,0.211-1.809c-1.018-0.943-1.963-1.951-2.791-3.051c-0.164,0.436-0.281,0.885-0.295,1.361
	c-0.002,0.082-0.027,0.168-0.064,0.254C71.139,181.711,72.131,182.787,73.142,183.84 M76.803,187.535
	c0.1-0.303,0.224-0.584,0.329-0.805c0.188-0.393,0.392-0.809,0.624-1.211c-1.253-0.879-2.482-1.803-3.632-2.799
	c-0.023,0.719,0.039,1.455,0.031,2.16c0.663,0.676,1.325,1.348,1.981,2.014C76.343,187.105,76.57,187.318,76.803,187.535
	 M80.874,190.441c0.421-0.549,0.507-1.262,0.795-1.875c0.05-0.105,0.112-0.209,0.173-0.314c-0.077-0.049-0.155-0.088-0.234-0.141
	c-1.032-0.682-2.083-1.373-3.125-2.088c-0.09,0.184-0.175,0.369-0.249,0.549c-0.181,0.445-0.587,1.27-0.304,1.75
	c0.037,0.062,0.053,0.137,0.058,0.219C78.861,189.232,79.842,189.893,80.874,190.441 M84.797,191.797
	c0.022-0.031,0.037-0.064,0.064-0.096c0.556-0.623,1.167-1.223,1.4-2.023c-1.212-0.053-2.443-0.357-3.674-0.994
	c-0.066,0.146-0.127,0.293-0.172,0.447c-0.186,0.631-0.346,1.221-0.691,1.734C82.733,191.326,83.772,191.656,84.797,191.797
	 M94.504,187.113c0.213-0.375,0.375-0.766,0.518-1.16c-2.297,2.021-4.985,3.533-7.806,3.717c-0.189,0.818-0.614,1.555-1.163,2.199
	c0.422-0.016,0.838-0.064,1.244-0.166C89.943,191.051,93.13,189.545,94.504,187.113"/>
</svg>
