<?xml version="1.0" encoding="utf-8"?>
<!-- Generator: Adobe Illustrator 16.0.0, SVG Export Plug-In . SVG Version: 6.00 Build 0)  -->
<!DOCTYPE svg PUBLIC "-//W3C//DTD SVG 1.1//EN" "http://www.w3.org/Graphics/SVG/1.1/DTD/svg11.dtd">
<svg version="1.1" id="Layer_1" xmlns="http://www.w3.org/2000/svg" xmlns:xlink="http://www.w3.org/1999/xlink" x="0px" y="0px"
	 width="109.033px" height="109.035px" viewBox="0 0 109.033 109.035" enable-background="new 0 0 109.033 109.035"
	 xml:space="preserve">
<g>
	<g>
		<path fill="none" stroke="#FFF9EC" stroke-width="4" stroke-miterlimit="10" d="M2,54.517c0-3.023,14.646-4.572,15.211-7.43
			c0.583-2.944-12.347-9.965-11.224-12.674c1.143-2.756,15.26,1.429,16.9-1.021c1.653-2.468-7.6-13.918-5.506-16.011
			c2.093-2.093,13.542,7.159,16.01,5.506c2.45-1.64-1.737-15.758,1.019-16.9c2.709-1.124,9.73,11.806,12.675,11.223
			C49.943,16.646,51.492,2,54.515,2s4.572,14.646,7.43,15.211c2.944,0.583,9.966-12.347,12.675-11.224
			c2.756,1.143-1.429,15.261,1.021,16.901c2.469,1.653,13.917-7.599,16.01-5.506s-7.16,13.542-5.507,16.01
			c1.64,2.45,15.758-1.736,16.9,1.02c1.123,2.709-11.806,9.732-11.223,12.676c0.565,2.857,15.211,4.405,15.211,7.428
			s-14.647,4.572-15.212,7.43c-0.583,2.944,12.347,9.966,11.224,12.675c-1.143,2.756-15.26-1.43-16.9,1.021
			c-1.652,2.468,7.6,13.916,5.507,16.01c-2.093,2.093-13.542-7.159-16.011-5.507c-2.45,1.641,1.736,15.759-1.02,16.901
			c-2.709,1.124-9.732-11.806-12.677-11.223c-2.857,0.565-4.405,15.211-7.429,15.211s-4.571-14.646-7.428-15.211
			c-2.944-0.583-9.966,12.346-12.675,11.223c-2.756-1.143,1.429-15.262-1.021-16.901c-2.469-1.653-13.918,7.599-16.011,5.506
			c-2.093-2.094,7.161-13.541,5.508-16.011c-1.64-2.449-15.758,1.736-16.9-1.02c-1.124-2.709,11.806-9.729,11.224-12.674
			C16.646,59.089,2,57.541,2,54.517z"/>
	</g>
	<circle fill="none" stroke="#FFF9EC" stroke-width="4" stroke-miterlimit="10" cx="54.515" cy="54.517" r="28.248"/>
</g>
</svg>
