<?xml version="1.0" encoding="utf-8"?>
<!-- Generator: Adobe Illustrator 16.0.0, SVG Export Plug-In . SVG Version: 6.00 Build 0)  -->
<!DOCTYPE svg PUBLIC "-//W3C//DTD SVG 1.1//EN" "http://www.w3.org/Graphics/SVG/1.1/DTD/svg11.dtd">
<svg version="1.1" id="Layer_1" xmlns="http://www.w3.org/2000/svg" xmlns:xlink="http://www.w3.org/1999/xlink" x="0px" y="0px"
	 width="1600px" height="800px" viewBox="0 0 1600 800" enable-background="new 0 0 1600 800" xml:space="preserve">
<rect y="87" fill="#112337" width="1600" height="713"/>
<path fill="#B4B4B4" d="M0,791.021c0.804,0.02,1.602,0.06,2.413,0.06c11.56,0,22.648-2.034,32.959-5.736
	c2.118,7.589,5.117,14.8,8.868,21.522h168.447c1.083-1.943,2.106-3.926,3.061-5.948c3.835,0.174,7.763,0.265,11.766,0.265
	c7.47,0,14.68-0.319,21.499-0.906c1.541,2.269,3.176,4.465,4.893,6.59h149.667c1.717-2.126,3.353-4.322,4.892-6.592
	c1.708,2.277,3.515,4.476,5.407,6.592H557.09c5.753-6.435,10.687-13.642,14.615-21.457c13.053,13.257,31.089,21.457,51.011,21.457
	c38.977,0,70.712-31.391,72.062-70.623c16.403,12.982,37.016,20.738,59.425,20.738c53.437,0,96.756-43.977,96.756-98.223
	c0-7.954-0.954-15.677-2.713-23.082c0.836,0.039,1.675,0.064,2.52,0.064c29.814,0,53.982-24.535,53.982-54.803
	c0-30.266-24.168-54.801-53.982-54.801c-26.476,0-48.483,19.354-53.083,44.879c-13.076-6.689-27.837-10.48-43.479-10.48
	c-53.436,0-96.754,43.975-96.754,98.223c0,3.747,0.226,7.439,0.629,11.077c-10.453-5.981-22.509-9.41-35.362-9.41
	c-22.604,0-42.774,10.564-55.998,27.088c-17.242-27.006-47.169-44.888-81.23-44.888c-33.084,0-62.278,16.867-79.725,42.585
	c-17.676-23.571-45.593-38.797-77.024-38.797c-53.438,0-96.756,43.976-96.756,98.223c0,4.138,0.281,8.207,0.771,12.209
	c-1.733-0.035-3.477-0.059-5.24-0.059c-0.79,0-1.57,0.01-2.354,0.018c-0.91-53.448-43.846-96.498-96.712-96.498
	c-10.623,0-20.832,1.763-30.393,4.973c-11.096-43.104-49.706-74.913-95.642-74.913c-0.809,0-1.608,0.023-2.413,0.043V791.021z"/>
<g>
	<circle fill="#E6E6E6" cx="661.856" cy="732.348" r="36.923"/>
	<circle fill="#E6E6E6" cx="721.555" cy="712.045" r="36.923"/>
	<circle fill="#E6E6E6" cx="758.478" cy="739.271" r="36.923"/>
	<circle fill="#E6E6E6" cx="775.649" cy="695.425" r="28.923"/>
	<circle fill="#E6E6E6" cx="831.464" cy="724.348" r="52.423"/>
	<circle fill="#E6E6E6" cx="605.538" cy="754.674" r="52.423"/>
	<circle fill="#E6E6E6" cx="896.706" cy="732.348" r="41.423"/>
	<circle fill="#E6E6E6" cx="944.042" cy="695.425" r="41.423"/>
	<circle fill="#E6E6E6" cx="1002.757" cy="682.925" r="41.423"/>
	<circle fill="#E6E6E6" cx="541.766" cy="769.271" r="32.65"/>
</g>
<circle fill="#FFFFFF" cx="410.334" cy="776.192" r="48.211"/>
<circle fill="#FFFFFF" cx="362.123" cy="782.248" r="24.849"/>
<circle fill="#FFFFFF" cx="331.79" cy="801" r="24.849"/>
<circle fill="#FFFFFF" cx="290.457" cy="807.097" r="24.849"/>
<circle fill="#B4B4B4" cx="227.4" cy="727.981" r="63.056"/>
<circle fill="#B4B4B4" cx="34.434" cy="807.096" r="63.056"/>
<circle fill="#B4B4B4" cx="889.986" cy="639.194" r="63.057"/>
<circle fill="#B4B4B4" cx="646.928" cy="654.002" r="34.39"/>
<circle fill="#B4B4B4" cx="961.334" cy="654.002" r="28.269"/>
<circle fill="#B4B4B4" cx="1002.757" cy="647.881" r="28.269"/>
<path fill="#FFFFFF" d="M424.561,801H1601V88.979c-32.713-1.165-44.84,22.797-44.84,40.974c0,9.747,3.304,18.695,8.809,25.724
	c-18.33,15.364-30.055,38.817-30.055,65.109c0,5.484,0.526,10.838,1.498,16.027c-21.364,0.104-40.764,8.756-55.192,22.808
	c-21.932-20.388-50.945-32.799-82.765-32.799c-68.38,0-123.814,57.292-123.814,127.965c0,16.17,2.91,31.637,8.207,45.88
	c-8.744-3.332-18.193-5.156-28.055-5.156c-44.779,0-81.08,37.518-81.08,83.799c0,12.641,2.725,24.619,7.573,35.365
	c-42.394,5.542-75.178,42.947-75.178,88.268c0,2.371,0.093,4.721,0.269,7.044c-10.414-4.62-21.885-7.184-33.936-7.184
	c-46.183,0-83.868,37.586-85.991,84.773c-1.204-0.156-2.428-0.246-3.673-0.246c-11.223,0-20.964,6.532-25.872,16.115
	c-7.127-7.131-16.831-11.527-27.535-11.527c-17.42,0-32.2,11.631-37.499,27.786c-3.713-1.192-7.662-1.833-11.756-1.833
	c-21.868,0-39.596,18.321-39.596,40.923c0,2.079,0.153,4.122,0.442,6.118c-12.851,3.167-23.267,12.799-27.851,25.392
	c-4.383-8.983-11.872-16.063-21.013-19.741c-1.583-21.102-18.641-37.721-39.465-37.721c-18.338,0-33.758,12.888-38.261,30.375
	c-4.292-2.552-9.264-4.019-14.568-4.019c-15.906,0-28.835,13.116-29.242,29.452c-5.606-3.936-12.315-6.232-19.533-6.232
	c-7.878,0-15.154,2.734-21.046,7.354c-4.26-9.498-13.559-16.089-24.354-16.089c-4.198,0-8.17,0.997-11.708,2.773
	c-5.331-7.441-13.884-12.269-23.53-12.269c-13.525,0-24.9,9.485-28.254,22.367c-4.431-2.791-9.637-4.4-15.206-4.4
	c-4.232,0-8.251,0.937-11.882,2.606c-6.133-14.865-20.4-25.287-37.024-25.287c-8.714,0-16.773,2.873-23.361,7.738
	c-2.56-16.43-14.579-29.588-30.102-33.312V801z"/>
<circle fill="#FFFFFF" cx="670.297" cy="767.352" r="39.369"/>
<circle fill="#FFFFFF" cx="728.63" cy="741.718" r="39.369"/>
<circle fill="#FFFFFF" cx="804.573" cy="754.675" r="39.369"/>
<circle fill="#FFFFFF" cx="768" cy="741.718" r="39.369"/>
</svg>
