<?xml version="1.0" encoding="utf-8"?>
<!-- Generator: Adobe Illustrator 16.0.0, SVG Export Plug-In . SVG Version: 6.00 Build 0)  -->
<!DOCTYPE svg PUBLIC "-//W3C//DTD SVG 1.1//EN" "http://www.w3.org/Graphics/SVG/1.1/DTD/svg11.dtd">
<svg version="1.1" id="Layer_1" xmlns="http://www.w3.org/2000/svg" xmlns:xlink="http://www.w3.org/1999/xlink" x="0px" y="0px"
	 width="1600px" height="800px" viewBox="0 0 1600 800" enable-background="new 0 0 1600 800" xml:space="preserve">
<rect y="87" fill="#112337" width="1600" height="713"/>
<path fill="#B4B4B4" d="M0,791.021c0.804,0.02,1.602,0.06,2.413,0.06c11.56,0,22.648-2.034,32.959-5.736
	c2.118,7.589,5.117,14.8,8.868,21.522h168.447c1.083-1.943,2.106-3.926,3.061-5.948c3.835,0.174,7.763,0.265,11.766,0.265
	c7.47,0,14.68-0.319,21.499-0.906c1.541,2.269,3.176,4.465,4.893,6.59h149.667c1.717-2.126,3.353-4.322,4.892-6.592
	c1.708,2.277,3.515,4.476,5.407,6.592H557.09c5.753-6.435,10.687-13.642,14.615-21.457c13.053,13.257,31.089,21.457,51.011,21.457
	c38.977,0,70.712-31.391,72.062-70.623c16.403,12.982,37.016,20.738,59.425,20.738c53.437,0,96.756-43.977,96.756-98.223
	c0-7.954-0.954-15.677-2.713-23.082c0.836,0.039,1.675,0.064,2.52,0.064c29.814,0,53.982-24.535,53.982-54.803
	c0-30.266-24.168-54.801-53.982-54.801c-26.476,0-48.483,19.354-53.083,44.879c-13.076-6.689-27.837-10.48-43.479-10.48
	c-53.436,0-96.754,43.975-96.754,98.223c0,3.747,0.226,7.439,0.629,11.077c-10.453-5.981-22.509-9.41-35.362-9.41
	c-22.604,0-42.774,10.564-55.998,27.088c-17.242-27.006-47.169-44.888-81.23-44.888c-33.084,0-62.278,16.867-79.725,42.585
	c-17.676-23.571-45.593-38.797-77.024-38.797c-53.438,0-96.756,43.976-96.756,98.223c0,4.138,0.281,8.207,0.771,12.209
	c-1.733-0.035-3.477-0.059-5.24-0.059c-0.79,0-1.57,0.01-2.354,0.018c-0.91-53.448-43.846-96.498-96.712-96.498
	c-10.623,0-20.832,1.763-30.393,4.973c-11.096-43.104-49.706-74.913-95.642-74.913c-0.809,0-1.608,0.023-2.413,0.043V791.021z"/>
<g>
	<circle fill="#E6E6E6" cx="661.856" cy="732.348" r="36.923"/>
	<circle fill="#E6E6E6" cx="721.555" cy="712.045" r="36.923"/>
	<circle fill="#E6E6E6" cx="758.478" cy="739.271" r="36.923"/>
	<circle fill="#E6E6E6" cx="775.649" cy="695.425" r="28.923"/>
	<circle fill="#E6E6E6" cx="831.464" cy="724.348" r="52.423"/>
	<circle fill="#E6E6E6" cx="605.538" cy="754.674" r="52.423"/>
	<circle fill="#E6E6E6" cx="896.706" cy="732.348" r="41.423"/>
	<circle fill="#E6E6E6" cx="944.042" cy="695.425" r="41.423"/>
	<circle fill="#E6E6E6" cx="1002.757" cy="682.925" r="41.423"/>
	<circle fill="#E6E6E6" cx="541.766" cy="769.271" r="32.65"/>
</g>
<circle fill="#FFFFFF" cx="410.334" cy="776.192" r="48.211"/>
<circle fill="#FFFFFF" cx="362.123" cy="782.248" r="24.849"/>
<circle fill="#FFFFFF" cx="331.79" cy="801" r="24.849"/>
<circle fill="#FFFFFF" cx="290.457" cy="807.097" r="24.849"/>
<circle fill="#B4B4B4" cx="227.4" cy="727.981" r="63.056"/>
<circle fill="#B4B4B4" cx="34.434" cy="807.096" r="63.056"/>
<circle fill="#B4B4B4" cx="893.319" cy="632.368" r="63.057"/>
<g>
	<g id="XMLID_194_">
		<rect id="XMLID_201_" x="708.949" y="147.922" fill="#FFFFFF" width="21.29" height="83.573"/>
		<rect id="XMLID_200_" x="708.949" y="234.776" fill="#FFFFFF" width="21.29" height="75.988"/>
		<rect id="XMLID_199_" x="730.239" y="147.922" fill="#B4B4B4" width="21.29" height="83.573"/>
		<rect id="XMLID_198_" x="730.239" y="234.776" fill="#B4B4B4" width="21.29" height="75.988"/>
		<rect id="XMLID_197_" x="730.239" y="314.085" fill="#B4B4B4" width="21.29" height="118.368"/>
		<path id="XMLID_196_" fill="#FFFFFF" d="M730.239,99.523c0,0-20.64,15.035-21.29,45.035h21.29V99.523z"/>
		<path id="XMLID_195_" fill="#B4B4B4" d="M730.239,99.523c0,0,20.669,15.035,21.29,45.035h-21.29V99.523z"/>
		<rect id="XMLID_202_" x="708.949" y="314.085" fill="#FFFFFF" width="21.29" height="118.368"/>
	</g>
	<g id="XMLID_185_">
		<rect id="XMLID_192_" x="859.949" y="147.922" fill="#FFFFFF" width="21.289" height="83.573"/>
		<rect id="XMLID_191_" x="859.949" y="234.776" fill="#FFFFFF" width="21.289" height="75.988"/>
		<rect id="XMLID_190_" x="881.238" y="147.922" fill="#B4B4B4" width="21.291" height="83.573"/>
		<rect id="XMLID_189_" x="881.238" y="234.776" fill="#B4B4B4" width="21.291" height="75.988"/>
		<rect id="XMLID_188_" x="881.238" y="314.085" fill="#B4B4B4" width="21.291" height="118.368"/>
		<rect id="XMLID_193_" x="859.949" y="314.085" fill="#FFFFFF" width="21.289" height="118.368"/>
		<path id="XMLID_187_" fill="#FFFFFF" d="M881.238,99.523c0,0-21.135,15.035-21.801,45.035h21.801V99.523z"/>
		<path id="XMLID_186_" fill="#B4B4B4" d="M881.238,99.523c0,0,20.67,15.035,21.291,45.035h-21.291V99.523z"/>
	</g>
	<g>
		<rect id="XMLID_184_" x="754.49" y="115.449" fill="#F9B03D" width="51.315" height="20.227"/>
		<rect id="XMLID_183_" x="805.805" y="115.449" fill="#F39323" width="51.316" height="20.227"/>
		<rect id="XMLID_182_" x="754.49" y="138.962" fill="#E52629" width="51.315" height="288.241"/>
		<rect id="XMLID_181_" x="805.805" y="138.962" fill="#C1292E" width="51.316" height="288.241"/>
		<path id="XMLID_180_" fill="#E52629" d="M805.803,3.984c0,0-49.389,37.573-50.918,108.573h50.918V3.984z"/>
		<path id="XMLID_179_" fill="#C1292E" d="M805.816,3.984c0,0,49.781,37.573,51.305,108.573h-51.305V3.984z"/>
	</g>
	<g>
		<g>
			<rect id="XMLID_160_" x="702.764" y="485.479" fill="#EB5E51" width="10.99" height="257.079"/>
			<rect id="XMLID_159_" x="713.754" y="485.479" fill="#FECB11" width="10.991" height="257.079"/>
			<rect id="XMLID_158_" x="724.746" y="485.479" fill="#FFFFFF" width="10.99" height="257.079"/>
			<rect id="XMLID_157_" x="735.736" y="485.479" fill="#FECB11" width="10.99" height="257.079"/>
			<rect id="XMLID_156_" x="746.726" y="485.479" fill="#EB5E51" width="10.991" height="257.079"/>
		</g>
		<g>
			<polygon id="XMLID_207_" fill="#FFFFFF" points="730.562,485.479 698.425,485.479 709.272,438.881 730.562,438.881 			"/>
			<polygon id="XMLID_206_" fill="#B4B4B4" points="730.562,485.479 762.698,485.479 751.852,438.881 730.562,438.881 			"/>
			<rect id="XMLID_150_" x="698.425" y="485.479" fill="#C1292E" width="64.272" height="5.302"/>
		</g>
	</g>
	<g>
		<g>
			<rect id="XMLID_155_" x="853.162" y="485.479" fill="#EB5E51" width="10.99" height="257.079"/>
			<rect id="XMLID_154_" x="864.152" y="485.479" fill="#FECB11" width="10.99" height="257.079"/>
			<rect id="XMLID_153_" x="875.143" y="485.479" fill="#FFFFFF" width="10.99" height="257.079"/>
			<rect id="XMLID_152_" x="886.133" y="485.479" fill="#FECB11" width="10.99" height="257.079"/>
			<rect id="XMLID_151_" x="897.123" y="485.479" fill="#EB5E51" width="10.99" height="257.079"/>
		</g>
		<g>
			<polygon id="XMLID_205_" fill="#FFFFFF" points="880.639,485.479 848.502,485.479 859.348,438.881 880.639,438.881 			"/>
			<polygon id="XMLID_204_" fill="#B4B4B4" points="880.639,485.479 912.773,485.479 901.928,438.881 880.639,438.881 			"/>
			<rect id="XMLID_149_" x="848.502" y="485.479" fill="#C1292E" width="64.271" height="5.302"/>
		</g>
	</g>
	<g>
		<path id="XMLID_177_" fill="#FFFFFF" d="M940.174,432.558L857.16,318.984c0,0-2.674-20.995-10.385-67.271
			c-7.713-46.276-40.289-74.729-40.289-74.729s-32.575,28.434-40.288,74.71c-7.713,46.276-10.386,67.293-10.386,67.293
			L672.8,432.558h93.838l-5.785,37h45.633h45.633l-5.783-37H940.174z"/>
		<path id="XMLID_176_" fill="#E6E6E6" d="M766.471,432.185l-0.16,0.373h-93.678l83.014-113.573c0,0,2.673-20.995,10.385-67.271
			c1.062-6.372,2.591-11.917,4.445-17.585L766.471,432.185z"/>
		<path id="XMLID_175_" fill="#CDCCCC" d="M852.119,469.558l-5.783-37h93.838L857.16,318.984c0,0-2.676-20.995-10.387-67.271
			c-7.713-46.276-40.291-74.742-40.291-74.742v292.586H852.119z"/>
		<path id="XMLID_174_" fill="#B4B4B4" d="M846.465,249.934l0.018,182.624h93.691l-82.977-113.573
			C857.197,318.984,854.066,293.558,846.465,249.934z"/>
		<polygon id="XMLID_173_" fill="#343434" points="792.5,225.657 782.939,226.862 789.044,212.401 793.946,221.801 		"/>
		<polygon id="XMLID_172_" fill="#343434" points="789.768,211.437 794.403,220.917 805.4,218.135 805.443,205.894 		"/>
		<polygon id="XMLID_171_" fill="#343434" points="820.307,225.657 829.867,226.862 823.762,212.401 818.861,221.801 		"/>
		<polygon id="XMLID_170_" fill="#343434" points="823.039,211.437 818.404,220.917 807.406,218.135 807.363,205.894 		"/>
		<polygon id="XMLID_162_" fill="#676767" points="809.617,470.374 802.975,470.374 802.975,418.581 806.402,413.386 
			809.617,418.581 		"/>
		<path id="XMLID_161_" fill="#343434" d="M824.107,197.542c-9.283-14-17.602-20.561-17.602-20.561s-8.385,6.577-17.67,20.577
			L824.107,197.542z"/>
	</g>
</g>
<g>
	<path fill="#FECB11" d="M622.973,800h41.752c2.005-1.795,3.784-3.837,5.273-6.09c4.462-1.198,8.53-3.355,11.97-6.24
		c5.723,7.483,14.74,12.315,24.889,12.315c10.242,0,19.335-4.918,25.049-12.52c0.581,4.436,1.861,8.651,3.723,12.534h144.229
		c0-0.764-0.023-1.522-0.064-2.276c2.912-0.922,5.681-2.162,8.276-3.668c0.935,2.125,2.119,4.112,3.499,5.944h88.454
		c0.272-1.624,0.423-3.291,0.423-4.993c0-16.542-13.41-29.952-29.953-29.952c-3.264,0-6.401,0.528-9.342,1.493
		c-5.244-8.686-14.772-14.493-25.658-14.493c-2.397,0-4.726,0.289-6.96,0.821c-2.53-20.585-20.064-36.528-41.334-36.528
		c-23.008,0-41.659,18.651-41.659,41.659c0,0.767,0.024,1.527,0.064,2.284c-4.915,1.557-9.432,4.006-13.369,7.149
		c-5.907-15.822-21.153-27.093-39.036-27.093c-1.358,0-2.7,0.07-4.024,0.197c-0.066-17.24-14.06-31.197-31.316-31.197
		c-16.177,0-29.486,12.266-31.143,28.004c-7.602,0.034-14.561,2.776-19.968,7.312c-5.724-7.484-14.74-12.316-24.89-12.316
		c-10.924,0-20.537,5.597-26.141,14.075c-13.349,3.585-23.178,15.764-23.178,30.244C612.538,785.938,616.57,794.266,622.973,800z"/>
	<path fill="#F9B03D" d="M622.973,800c-6.402-5.734-10.435-14.062-10.435-23.333c0-14.48,9.829-26.659,23.178-30.244
		c5.604-8.479,15.217-14.075,26.141-14.075c10.149,0,19.166,4.832,24.89,12.316c5.407-4.536,12.366-7.278,19.968-7.312
		c1.656-15.738,14.966-28.004,31.143-28.004c17.257,0,31.25,13.957,31.316,31.197c1.324-0.127,2.666-0.197,4.024-0.197
		c17.883,0,33.129,11.271,39.036,27.093c3.938-3.144,8.454-5.593,13.369-7.149c-0.04-0.757-0.064-1.518-0.064-2.284
		c0-23.008,18.651-41.659,41.659-41.659c21.27,0,38.804,15.943,41.334,36.528c2.234-0.532,4.562-0.821,6.96-0.821
		c10.886,0,20.414,5.808,25.658,14.493c2.94-0.965,6.078-1.493,9.342-1.493c16.543,0,29.953,13.41,29.953,29.952
		c0,1.702-0.15,3.369-0.423,4.993h7.076c0.222-1.634,0.347-3.299,0.347-4.993c0-20.375-16.577-36.952-36.953-36.952
		c-2.147,0-4.282,0.186-6.387,0.555c-6.97-8.57-17.333-13.555-28.613-13.555c-0.461,0-0.922,0.009-1.383,0.026
		c-5.708-20.794-24.771-35.733-46.911-35.733c-25.976,0-47.264,20.462-48.594,46.112c-1.206,0.531-2.391,1.112-3.55,1.74
		c-8.277-13.9-23.178-23.02-39.573-23.798c-3.411-17.658-19.009-31.055-37.624-31.055c-17.672,0-32.691,11.897-37.048,28.485
		c-4.586,0.735-9.005,2.299-13.028,4.607c-7.014-6.478-16.162-10.093-25.924-10.093c-12.024,0-23.229,5.592-30.464,15.081
		c-15.348,5.271-25.854,19.814-25.854,36.238c0,8.775,2.973,16.866,7.954,23.333H622.973z"/>
</g>
<circle fill="#B4B4B4" cx="646.928" cy="654.002" r="34.39"/>
<circle fill="#B4B4B4" cx="961.334" cy="654.002" r="28.269"/>
<circle fill="#B4B4B4" cx="1002.757" cy="647.881" r="28.269"/>
<path fill="#FFFFFF" d="M424.561,801H1601V88.979c-32.713-1.165-44.84,22.797-44.84,40.974c0,9.747,3.304,18.695,8.809,25.724
	c-18.33,15.364-30.055,38.817-30.055,65.109c0,5.484,0.526,10.838,1.498,16.027c-21.364,0.104-40.764,8.756-55.192,22.808
	c-21.932-20.388-50.945-32.799-82.765-32.799c-68.38,0-123.814,57.292-123.814,127.965c0,16.17,2.91,31.637,8.207,45.88
	c-8.744-3.332-18.193-5.156-28.055-5.156c-44.779,0-81.08,37.518-81.08,83.799c0,12.641,2.725,24.619,7.573,35.365
	c-42.394,5.542-75.178,42.947-75.178,88.268c0,2.371,0.093,4.721,0.269,7.044c-10.414-4.62-21.885-7.184-33.936-7.184
	c-46.183,0-83.868,37.586-85.991,84.773c-1.204-0.156-2.428-0.246-3.673-0.246c-11.223,0-20.964,6.532-25.872,16.115
	c-7.127-7.131-16.831-11.527-27.535-11.527c-17.42,0-32.2,11.631-37.499,27.786c-3.713-1.192-7.662-1.833-11.756-1.833
	c-21.868,0-39.596,18.321-39.596,40.923c0,2.079,0.153,4.122,0.442,6.118c-12.851,3.167-23.267,12.799-27.851,25.392
	c-4.383-8.983-11.872-16.063-21.013-19.741c-1.583-21.102-18.641-37.721-39.465-37.721c-18.338,0-33.758,12.888-38.261,30.375
	c-4.292-2.552-9.264-4.019-14.568-4.019c-15.906,0-28.835,13.116-29.242,29.452c-5.606-3.936-12.315-6.232-19.533-6.232
	c-7.878,0-15.154,2.734-21.046,7.354c-4.26-9.498-13.559-16.089-24.354-16.089c-4.198,0-8.17,0.997-11.708,2.773
	c-5.331-7.441-13.884-12.269-23.53-12.269c-13.525,0-24.9,9.485-28.254,22.367c-4.431-2.791-9.637-4.4-15.206-4.4
	c-4.232,0-8.251,0.937-11.882,2.606c-6.133-14.865-20.4-25.287-37.024-25.287c-8.714,0-16.773,2.873-23.361,7.738
	c-2.56-16.43-14.579-29.588-30.102-33.312V801z"/>
</svg>
