<?xml version="1.0" encoding="utf-8"?>
<!-- Generator: Adobe Illustrator 16.0.0, SVG Export Plug-In . SVG Version: 6.00 Build 0)  -->
<!DOCTYPE svg PUBLIC "-//W3C//DTD SVG 1.1//EN" "http://www.w3.org/Graphics/SVG/1.1/DTD/svg11.dtd">
<svg version="1.1" id="Layer_1" xmlns="http://www.w3.org/2000/svg" xmlns:xlink="http://www.w3.org/1999/xlink" x="0px" y="0px"
	 width="798.153px" height="457.892px" viewBox="0 0 798.153 457.892" enable-background="new 0 0 798.153 457.892"
	 xml:space="preserve">
<g>
	<path fill="#FFFFFF" d="M212.669,200.018c-2.123,0-3.526-1.068-4.234-3.879c-2.105-8.456-5.635-12.689-10.566-12.689
		c-3.524,0-5.28,2.815-5.28,6.34c0,11.273,16.555,23.966,37.702,38.41c22.896,15.511,40.171,40.878,40.171,66.955
		c0,47.213-28.196,84.92-74.359,84.92c-53.561,0-78.22-38.762-78.22-95.139c0-1.767,1.401-3.526,4.225-3.526l48.63-2.463
		c2.467,0,3.875,1.414,4.228,4.578c1.404,14.092,7.397,29.242,15.86,29.242c4.936,0,8.106-3.168,8.106-11.272
		c0-8.467-19.739-23.964-43.344-42.989c-23.611-19.028-35.241-45.456-35.241-69.419c0-35.946,26.786-75.055,73.998-75.055
		c47.222,0,76.465,37,76.465,78.928c0,2.472-1.406,4.588-4.23,4.588L212.669,200.018z"/>
	<path fill="#FFFFFF" d="M282.795,119.306c0-2.107,2.11-4.576,4.577-4.576h125.096c2.111,0,3.517,1.768,3.517,3.881v63.425
		c0,2.118-1.756,3.524-3.872,3.524h-58.848c-1.41,0-2.463,1.056-2.463,2.472v19.731c0,1.414,1.405,2.456,2.463,2.456h27.847
		c1.406,0,2.464,1.069,2.464,2.478v64.132c0,1.756-1.424,3.17-2.826,3.17h-28.542c-1.405,0-2.474,1.053-2.474,2.809v20.802
		c0,1.408,1.069,2.468,2.122,2.468h60.962c2.463,0,3.872,1.76,3.872,3.52v65.549c0,2.115-1.761,3.869-3.872,3.869H286.664
		c-2.125,0-3.869-2.109-3.869-4.58V119.306z"/>
	<path fill="#FFFFFF" d="M648.061,379.201c-2.474,0-4.578-2.473-4.578-5.293V118.433c0-1.766,1.403-3.53,3.17-3.53h60.259
		c2.471,0,4.219,1.425,4.219,3.53v256.18c0,2.115-1.748,4.588-4.219,4.588H648.061z"/>
	<path fill="#AF0047" d="M446.817,380.63c-2.479,0-4.584-2.461-4.584-5.293l114.744-255.466c0-1.763,1.409-3.535,3.184-3.535h60.241
		c2.473,0,4.239,1.414,4.239,3.535L509.885,376.037c0,2.133-1.758,4.594-4.233,4.594H446.817z"/>
	<path fill="#E50051" d="M529.229,181.653l-91.736,1.646c-2.119,0-4.589-1.761-4.589-4.223v-58.852c0-2.472,2.471-4.585,5.286-4.585
		l184.686,1.3"/>
</g>
<g>
	<g opacity="0.75">
		<g>
			<defs>
				<rect id="SVGID_1_" x="35.226" y="132.449" width="722.188" height="213.748"/>
			</defs>
			<clipPath id="SVGID_2_">
				<use xlink:href="#SVGID_1_"  overflow="visible"/>
			</clipPath>
			<g clip-path="url(#SVGID_2_)">
				<defs>
					<path id="SVGID_3_" d="M709.45,201.977c0,0-23.271,6.754-83.204-14.365c-59.225-20.867-123.959-92.737-205.98-30.043
						c-69.616,53.209-194.175,114.058-385.039,42.485v143.963c0,0,214.292,19,301.596-55.176
						c87.304-74.178,97.322-127.634,147.713-136.117c50.393-8.483,75.935,17.211,218.048,77.624c0,0,7.357,11.456,24.934,15.173
						c17.577,3.718,29.896-3.345,29.896-3.345"/>
				</defs>
				<clipPath id="SVGID_4_">
					<use xlink:href="#SVGID_3_"  overflow="visible"/>
				</clipPath>
				<defs>
					<filter id="Adobe_OpacityMaskFilter" filterUnits="userSpaceOnUse" x="0" y="0" width="792.641" height="457.892">
						<feColorMatrix  type="matrix" values="1 0 0 0 0  0 1 0 0 0  0 0 1 0 0  0 0 0 1 0"/>
					</filter>
				</defs>
				<mask maskUnits="userSpaceOnUse" x="0" y="0" width="792.641" height="457.892" id="SVGID_5_">
					<g filter="url(#Adobe_OpacityMaskFilter)">
						
							<linearGradient id="SVGID_6_" gradientUnits="userSpaceOnUse" x1="72.9907" y1="705.8296" x2="73.9508" y2="705.8296" gradientTransform="matrix(-704.7579 94.2409 94.2409 704.7579 -14218.8477 -504150.9062)">
							<stop  offset="0" style="stop-color:#FFFFFF"/>
							<stop  offset="1" style="stop-color:#000000"/>
						</linearGradient>
						<polygon clip-path="url(#SVGID_4_)" fill="url(#SVGID_6_)" points="792.641,358.308 47.913,457.892 0,99.585 744.727,0 						
							"/>
					</g>
				</mask>
				
					<linearGradient id="SVGID_7_" gradientUnits="userSpaceOnUse" x1="72.9907" y1="705.8296" x2="73.9508" y2="705.8296" gradientTransform="matrix(-704.7579 94.2409 94.2409 704.7579 -14218.8477 -504150.9062)">
					<stop  offset="0" style="stop-color:#7BCAFF"/>
					<stop  offset="1" style="stop-color:#7BCAFF"/>
				</linearGradient>
				<polygon clip-path="url(#SVGID_4_)" mask="url(#SVGID_5_)" fill="url(#SVGID_7_)" points="792.641,358.308 47.913,457.892 
					0,99.585 744.727,0 				"/>
			</g>
		</g>
	</g>
	<path fill="#739099" d="M696.179,218.538c0,0,4.953,19.006,27.319,25.588c25.402,7.475,39.962-4.959,43.575-8.926
		C770.689,231.233,696.179,218.538,696.179,218.538"/>
	<path fill="#CCCCCC" d="M672.98,202.587c4.38-2.823,18.304-5.611,68.895,5.421c42.151,9.191,51.418,17.539,56.278,24.699
		c-0.299,1.049-23.506,14.86-69.133,5.714C688.75,230.348,672.099,205.486,672.98,202.587"/>
	
		<line fill="none" stroke="#CCCCCC" stroke-width="2" stroke-miterlimit="10" x1="727.517" y1="189.609" x2="724.046" y2="178.439"/>
	<line fill="none" stroke="#CCCCCC" stroke-width="2" stroke-miterlimit="10" x1="759.55" y1="198.315" x2="768.712" y2="188.131"/>
	<path fill="#284256" d="M728.492,216.618c13.203,3.83,38.447,3.131,40.532,2.122c2.085-1.009-1.284-26.434-26.761-31.033
		c-25.477-4.599-38.779,13.321-38.698,15.532C703.644,205.448,714.9,212.675,728.492,216.618"/>
	<path fill="#3F617A" d="M712.034,202.37c0.948-6.394,14.396-15.291,28.323-12.76c13.927,2.53,20.373,10.351,23.15,18.399
		c2.777,8.048-16.564,8.664-28.741,5.892C722.588,211.129,711.333,207.081,712.034,202.37"/>
	<path fill="#2180D6" d="M682.878,207.537c0,1.191-0.966,2.157-2.157,2.157c-1.19,0-2.157-0.965-2.157-2.157
		c0-1.191,0.967-2.156,2.157-2.156C681.913,205.38,682.878,206.346,682.878,207.537"/>
	<path fill="#2180D6" d="M693.863,216.057c0,1.191-0.965,2.157-2.156,2.157c-1.19,0-2.156-0.966-2.156-2.157
		c0-1.191,0.966-2.156,2.156-2.156C692.898,213.9,693.863,214.866,693.863,216.057"/>
	<path fill="#2180D6" d="M708.811,223.942c0,1.19-0.964,2.157-2.157,2.157c-1.19,0-2.155-0.966-2.155-2.157s0.965-2.156,2.155-2.156
		C707.847,221.786,708.811,222.751,708.811,223.942"/>
	<path fill="#2180D6" d="M728.36,230.348c0,1.191-0.966,2.157-2.157,2.157c-1.19,0-2.156-0.966-2.156-2.157
		c0-1.19,0.966-2.157,2.156-2.157C727.394,228.191,728.36,229.158,728.36,230.348"/>
	<path fill="#2180D6" d="M750.372,233.956c0,1.19-0.966,2.157-2.157,2.157c-1.189,0-2.156-0.967-2.156-2.157
		s0.967-2.157,2.156-2.157C749.406,231.799,750.372,232.766,750.372,233.956"/>
	<path fill="#2180D6" d="M771.695,234.355c0,1.19-0.965,2.157-2.157,2.157c-1.19,0-2.155-0.966-2.155-2.157s0.965-2.157,2.155-2.157
		C770.73,232.198,771.695,233.165,771.695,234.355"/>
	<path fill="#2180D6" d="M791.439,231.799c0,1.19-0.965,2.157-2.157,2.157c-1.19,0-2.156-0.966-2.156-2.157s0.966-2.156,2.156-2.156
		C790.474,229.643,791.439,230.609,791.439,231.799"/>
	<path fill="#FFFFFF" d="M753.471,195.194c6.715,5.372-0.163,13.636-8.706,8.05C736.223,197.659,745.258,188.624,753.471,195.194"/>
	<path fill="#4FA50C" d="M728.36,178.439c0,2.382-1.931,4.313-4.313,4.313c-2.382,0-4.312-1.931-4.312-4.313
		c0-2.382,1.931-4.313,4.312-4.313C726.429,174.125,728.36,176.057,728.36,178.439"/>
	<path fill="#4FA50C" d="M773.026,188.131c0,2.383-1.931,4.313-4.313,4.313c-2.382,0-4.313-1.931-4.313-4.313
		c0-2.382,1.932-4.313,4.313-4.313C771.095,183.818,773.026,185.749,773.026,188.131"/>
	<path fill="#FFFFFF" d="M798.153,232.708c0,0-0.47,0.312-1.351,0.898c-0.438,0.298-0.979,0.668-1.675,0.994
		c-0.694,0.329-1.451,0.803-2.375,1.157c-3.626,1.598-9.089,3.21-15.775,4.375c-3.342,0.596-6.987,1.079-10.857,1.453
		c-1.938,0.179-3.927,0.346-5.968,0.459l-0.769,0.04l-0.388,0.019c-0.061,0-0.056,0.004-0.078,0.02
		c-0.437,0.272-0.909,0.542-1.374,0.787c-0.936,0.5-1.906,0.943-2.901,1.349c-3.976,1.629-8.339,2.662-12.832,3.007
		c-4.491,0.352-9.102,0.036-13.574-0.899c-4.465-0.94-8.831-2.388-12.87-4.396c-4.011-2.048-7.688-4.657-10.623-7.833
		c-0.737-0.791-1.417-1.624-2.039-2.496c-0.15-0.225-0.308-0.438-0.449-0.675l-0.107-0.174c0,0-0.005-0.015-0.013-0.018
		l-0.223-0.145c-0.435-0.28-0.865-0.557-1.294-0.833c-1.706-1.119-3.41-2.159-4.99-3.295c-1.593-1.114-3.171-2.158-4.619-3.281
		c-1.467-1.093-2.882-2.151-4.181-3.248c-2.663-2.107-4.926-4.26-6.877-6.208c-1.894-2.013-3.458-3.851-4.55-5.511
		c-1.092-1.656-1.771-3.072-2.101-4.08c-0.339-1.01-0.32-1.587-0.32-1.587s0.009,0.577,0.392,1.562
		c0.374,0.985,1.108,2.354,2.266,3.941c1.145,1.598,2.766,3.357,4.703,5.284c2.002,1.866,4.304,3.928,6.998,5.955
		c1.317,1.05,2.75,2.066,4.232,3.119c1.459,1.081,3.049,2.09,4.649,3.17c1.592,1.094,3.308,2.099,5.021,3.185
		c0.432,0.268,0.864,0.539,1.298,0.81l0.428,0.269c0.111,0.058,0.134,0.189,0.211,0.29l0.099,0.154
		c0.126,0.205,0.28,0.409,0.42,0.613c0.595,0.81,1.249,1.599,1.961,2.348c2.848,3.012,6.431,5.489,10.319,7.471
		c3.921,1.938,8.185,3.341,12.544,4.248c4.35,0.925,8.826,1.246,13.186,0.919c4.365-0.289,8.614-1.252,12.479-2.792
		c0.965-0.385,1.909-0.804,2.812-1.269c0.456-0.231,0.887-0.468,1.326-0.732c0.104-0.056,0.193-0.147,0.305-0.169l0.333-0.008
		l0.38-0.012l0.76-0.026c2.024-0.077,4.006-0.203,5.931-0.352c3.852-0.315,7.488-0.691,10.821-1.207
		c6.668-0.996,12.138-2.404,15.798-3.849c0.934-0.317,1.698-0.754,2.403-1.054c0.709-0.295,1.261-0.636,1.709-0.914
		C797.668,232.998,798.153,232.708,798.153,232.708"/>
</g>
</svg>
