<?xml version="1.0" encoding="utf-8"?>
<!-- Generator: Adobe Illustrator 16.0.0, SVG Export Plug-In . SVG Version: 6.00 Build 0)  -->
<!DOCTYPE svg PUBLIC "-//W3C//DTD SVG 1.1//EN" "http://www.w3.org/Graphics/SVG/1.1/DTD/svg11.dtd">
<svg version="1.1" id="Layer_1" xmlns="http://www.w3.org/2000/svg" xmlns:xlink="http://www.w3.org/1999/xlink" x="0px" y="0px"
	 width="841.89px" height="169px" viewBox="0 0 841.89 169" enable-background="new 0 0 841.89 169" xml:space="preserve">
<path fill="#101122" d="M847.833,105.841l-11.502-2.689l-12.995,2.689l-16.582-2.689l-13.892,1.348l-6.272-3.141l-56.016-3.798
	l-8.066-4.269l-26.887-4.479l-7.618,6.722l-8.963,1.792l-9.856-5.376l-7.62-1.345l-7.619,3.583l-11.65-2.688l-69.459-50.189
	l-6.274,7.617v-4.48l-5.377,4.48l-4.482-3.135l-11.647-1.346l-4.482,2.691l-32.268-14.343h-24.198h-8.962l-6.725,2.242l-9.41-6.721
	h-8.515l-7.169,7.616l-6.272-1.344l-3.586,3.584l-6.274-4.03l-19.269,13.89l-5.825-3.584l-4.483,3.136l-18.82-0.896l-9.86,3.584
	l-8.961,1.346l-12.547,11.651h-8.066l-6.274,3.806h-12.995l-9.859-6.496l-11.652,12.549l-8.961,1.341l-6.274-2.688l-7.169-4.705
	l-17.029,4.705l-11.652,8.068l-3.584-3.586l-5.826,0.448l-13.892,12.996l-7.169-9.41c0,0-9.859-12.995-11.65-13.222
	c-1.793-0.224-24.198,10.533-24.198,10.533l-10.757,14.789l-9.411-1.793l-10.306,13.445l-10.307,1.79l-24.198,12.098l-9.41,2.24
	l-5.827,4.034l-5.833,11.625l-7.799-7.506l-9.922-14.47l-14.176,7.089l-8.506,7.381l-9.216-13.757l-5.671-8.509l-18.429,6.382
	l-7.089-10.634l-17.095,17.012v183.592h850.61V105.841z"/>
<polygon fill="#EDEDED" points="847.833,148.855 841.347,139.858 830.965,139.858 823.004,148.855 821.62,143.477 819.194,139.858 
	814.694,139.858 809.503,148.855 803.964,139.858 799.121,139.858 790.812,148.855 790.812,153.011 782.853,155.431 
	777.657,155.431 769.354,147.646 729.55,139.858 724.701,131.897 724.701,126.704 720.203,126.704 718.473,118.05 714.32,118.05 
	702.202,135.012 681.089,146.779 547.135,141.589 503.871,118.05 490.371,124.28 471.336,126.706 460.604,114.936 458.527,92.437 
	454.026,92.437 454.026,96.244 451.26,96.244 451.26,82.055 448.488,82.055 439.49,96.592 439.49,105.591 434.989,101.783 
	434.989,97.632 432.222,97.632 432.222,101.439 423.914,109.398 408.338,109.744 386.879,110.438 382.377,106.631 369.226,106.285 
	364.034,100.054 359.88,100.054 357.802,102.823 346.38,103.516 307.268,106.977 299.38,104.201 290.309,104.552 285.117,109.053 
	273.695,109.398 270.233,102.13 258.812,110.782 183.009,120.474 161.548,110.782 132.819,105.244 106.515,54.712 98.208,49.863 
	81.246,24.25 72.248,24.25 62.556,7.635 55.289,7.635 37.289,27.714 32.097,26.326 19.636,54.712 15.484,54.712 4.752,91.399 
	-2.776,99.706 -2.776,312 847.833,312 "/>
</svg>
