<?xml version="1.0" encoding="utf-8"?>
<!-- Generator: Adobe Illustrator 16.0.0, SVG Export Plug-In . SVG Version: 6.00 Build 0)  -->
<!DOCTYPE svg PUBLIC "-//W3C//DTD SVG 1.1//EN" "http://www.w3.org/Graphics/SVG/1.1/DTD/svg11.dtd">
<svg version="1.1" id="Layer_1" xmlns="http://www.w3.org/2000/svg" xmlns:xlink="http://www.w3.org/1999/xlink" x="0px" y="0px"
	 width="841.891px" height="223px" viewBox="0 0 841.891 223" enable-background="new 0 0 841.891 223" xml:space="preserve">
<rect x="-15" y="-73.667" fill="#FCFBF9" width="856" height="328"/>
<path fill="#452773" d="M858.14,176.935l-11.778-2.754l-13.307,2.754l-16.979-2.754l-14.227,1.381l-6.423-3.217l-57.357-3.888
	l-8.261-4.372l-27.531-4.586l-7.801,6.881l-9.179,1.836l-10.093-5.505l-7.802-1.378l-7.803,3.67l-11.93-2.753l-71.125-51.394
	l-6.425,7.801v-4.589l-5.507,4.589l-4.589-3.212l-11.929-1.377l-4.591,2.756l-33.04-14.687h-24.778h-9.177l-6.886,2.296
	l-9.637-6.882h-8.719l-7.342,7.799l-6.423-1.376l-3.672,3.669l-6.424-4.127l-19.729,14.225l-5.964-3.671l-4.59,3.212l-19.271-0.917
	l-10.098,3.669l-9.176,1.379l-12.848,11.931h-8.261l-6.424,3.897h-13.307l-10.097-6.652l-11.932,12.85l-9.176,1.373l-6.425-2.752
	l-7.342-4.817l-17.437,4.817l-11.931,8.262l-3.67-3.672l-5.966,0.459l-14.225,13.308l-7.341-9.635c0,0-10.096-13.308-11.93-13.539
	c-1.836-0.229-24.778,10.784-24.778,10.784l-11.015,15.145l-9.637-1.838l-10.553,13.77l-10.555,1.832l-24.778,12.39l-9.636,2.294
	l-5.966,4.13l-5.974,11.903l-7.986-7.687l-10.16-14.815l-14.517,7.259l-8.71,7.558l-9.438-14.086l-5.806-8.713l-18.871,6.534
	l-7.259-10.89l-17.504,17.42v187.996H858.14V176.935z"/>
<polygon fill="#E6305E" points="839.833,210.188 833.346,201.19 822.965,201.19 815.004,210.188 813.62,204.81 811.194,201.19 
	806.694,201.19 801.503,210.188 795.964,201.19 791.121,201.19 782.811,210.188 782.811,214.344 774.852,216.765 769.657,216.765 
	761.354,208.979 721.55,201.19 716.701,193.229 716.701,188.037 712.203,188.037 710.472,179.383 706.32,179.383 694.202,196.345 
	673.089,208.112 539.135,202.922 495.871,179.383 482.371,185.613 463.336,188.039 452.603,176.269 450.527,153.771 
	446.026,153.771 446.026,157.577 443.26,157.577 443.26,143.388 440.488,143.388 431.49,157.925 431.49,166.924 426.989,163.116 
	426.989,158.965 424.221,158.965 424.221,162.772 415.914,170.731 400.338,171.077 378.879,171.771 374.377,167.964 
	361.226,167.618 356.034,161.388 351.88,161.388 349.802,164.156 338.38,164.849 299.268,168.31 291.38,165.534 282.308,165.885 
	277.117,170.386 265.695,170.731 262.233,163.463 250.812,172.115 175.009,181.808 153.548,172.115 124.819,166.577 98.514,116.045 
	90.208,111.196 73.246,85.583 64.248,85.583 54.555,68.968 47.288,68.968 29.289,89.047 24.096,87.659 11.636,116.045 
	7.484,116.045 -3.248,152.731 -10.777,161.039 -10.777,373.333 839.833,373.333 "/>
<g>
	<circle fill="#66A3AF" cx="161.369" cy="79.38" r="41.921"/>
	<path fill="#A7C34B" d="M161.902,76.815c-0.102,0.183-0.901,0.019-0.476,1.322C161.895,78.129,162.29,77.162,161.902,76.815z
		 M126.324,95.112C126.531,95.108,126.522,94.86,126.324,95.112C126.239,95.112,126.381,95.042,126.324,95.112z M143.949,105.06
		c-2.961-3.389-11.786-1.974-14.134-6.476c-0.82-0.492-4.424,0.681-5.361,0.683c2.651,4.773,13.023,21.44,17.933,12.205
		C143.087,110.15,143.872,106.448,143.949,105.06z M172.264,117.856C173.224,119.112,173.052,117.676,172.264,117.856
		C172.264,117.856,172.426,117.82,172.264,117.856z M127.568,54.733c1.427-0.321-0.436,2.279-0.428,2.375
		c0.568,0.248,0.495-0.189,0.87-0.248c0.039,0.517-0.203,0.467-0.316,0.879c-0.047-0.032,1.027-0.185,0.715,0.232
		c-1.344,0.069-0.611-0.389-0.897-0.657c-1.953,0.131,1.063,4.974,1.474,4.125c0.507,0.271,1.353,6.129,4.446,4.041
		c-0.213,0.144,4.227-10.469,4.186-9.617c1.807-0.689,3.002-1.501,4.6-3.285c-0.066-0.503-2.306,0.201-2.393,0.182
		c0.219-0.037,0.302-0.137-0.107-0.21c0.36-0.642,1.222-0.971,0.23-1.435c0.645,0.457,1.219,1.149,2.173,1.063
		c0.096-0.298,0.089-1.612-0.146-1.909c-0.332,0.053-0.126,0.759-0.507,0.382c0.726-1.346-0.993-0.765-1.56-1.273
		c0.626-0.083,0.539-0.194,1.702,0.003c-0.006,0.011-0.686-1.583-0.755-0.979c0.236-0.044,0.582,0.238,0.421-0.445
		c-0.479-1.014-1.117,0.841-1.017,0.762c-0.676-0.092-0.113-0.214-0.962,0.15c-0.11-0.231,2.481-1.915,2.422-2.949
		c0.061-0.156,0.73-0.288,0.828-0.506c-0.198-0.361-0.965-0.455-0.957-0.571c0.068-0.057,0.415-0.269,0.463-0.184
		c-0.145-0.481-0.835-0.317-1.003-1.093c0.196,0.042,1.021,0.524,1.072,0.324c-0.104-0.636-0.643-1.125-0.374-1.568
		C136.282,45.219,130.703,49.898,127.568,54.733z M139.206,52.667C138.347,52.622,139.286,52.672,139.206,52.667
		C139.067,52.659,139.349,52.676,139.206,52.667z M139.256,50.807c0.558,0.102-0.175,0.608,0.014,1.059
		c0.048-0.019,0.091-0.001,0.12,0.056C139.042,52.938,138.76,49.917,139.256,50.807C139.402,50.833,139.457,51.162,139.256,50.807z
		 M140.731,45.98c0.625-0.372-0.002-0.379,0.616-0.494C141.259,46.366,141.192,45.708,140.731,45.98z M139.804,47.014
		c-0.107-0.409,0.697-0.084,1.135,0.469C140.569,47.332,139.638,46.963,139.804,47.014z M127.255,55.021
		c-0.215,0.301-0.427,0.604-0.635,0.913C127.053,56.001,127.661,55.315,127.255,55.021z M158.649,37.966
		c0.142,0.911,0.698-0.011,0.646-0.458C159.057,37.46,157.8,37.8,158.649,37.966C158.676,38.15,158.517,37.94,158.649,37.966z
		 M203.255,81.223c0.532-12.346-4.547-24.565-13.696-32.867c0.042-0.164-0.662,2.986-0.21,2.906
		c-0.472-1.452-1.803-0.303-2.479-1.129c2.581-1.871,2.698-3.661-1.641-5.22c0.218,1.413,0.486,1.852,1.324,2.923
		c-0.116,0.005-0.153,0.099-0.11,0.283c-0.569-1.754-2.638-1.461-3.979-1.769c-0.121,0.533-0.244,1.865-0.109,2.25
		c0.76-0.072-3.82,0.37-3.224,0.916c0.16-0.285,0.746-1.134,0.607-1.456c-2.145,0.606-2.645,2.668-3.796,3.104
		c-0.498,0.188,0.888-1.87-1.642-1.808c0.109,2.979,0.544,2.966-0.726,5.335c-0.561-0.232-1.329-0.398-1.883-0.428
		c0.196,1.022,0.457,0.672,0.825,1.422c-0.565,0.391-3.378-2.642-3.519-2.934c0.166-0.055,0.262-0.171,0.288-0.35
		c2.309,1.604,4.965,0.668,3.62-2.035c-0.711-1.422-4.837-1.328-5.711-1.691c-0.238-1.113,0.663-0.912-0.978-0.943
		c0.91-1.769-1.262,0.237-0.635,0.288c0.028,0.196-0.041-0.839-0.021-0.868c-1.266-0.187-0.838,1.067-1.767,1.067
		c-0.296-0.27,0.362-0.857-0.555-0.177c0.021,0.134,0.042,0.27,0.062,0.406c-0.099,0.003,0.492-0.181,0.463-0.184
		c-1.49,1.375-0.457,0.729-1.614,0.817c0.028,0.015-3.17,7.936-3.664,9.325c-0.631,1.774-2.422,1.863-1.411,4.211
		c0.601,1.397,1.361,1.761,2.933,0c-0.078,2.938,2.094,3.707,3.305,1.078c1.176-2.551-0.653-3.556,0.189-6.122
		c2.367-7.208,0.891,0.889,1.388,1.886c0.81,1.618,2.606,1.558,3.988,1.065c-1.149,0.702-2.464,3.208-2.205,3.104
		c-0.973-0.391-7.522,7.239-6.559,0.41c1.132-0.129-5.062,10.004-6.186,8.677c1.044,2.352,1.385,1.386,1.032,3.246
		c-0.091,0.47-2.134,0.252-2.356,1.651c-0.16,1.004,0.451,1.951,0.417,2.699c-0.028,0.65,1.153-0.274,1.227,0.341
		c0.141,1.199-0.668,1.512-0.991,2.896c-0.917,3.961-2.797,4.387-1.961,8.345c0.983,4.649,3.327,5.359,8.222,5.195
		c4.528-0.149,4.815-0.932,6.77,3.418c1.315,2.92,1.32,5.111,2.424,8.065c2.141,5.727,6.387,10.878,10.092,1.652
		c1.125-2.802,1.889-5.613,2.465-8.517c0.296-1.488-0.951-2.722-0.454-4.66c-0.328,1.279,5.197-8.001,3.616-7.675
		c-3.63,2.994-8.579-3.213-9.656-6.905c1.518,1.21,5.157,5.292,5.159,5.294c1.127,2.955,2.729,1.273,4.908-0.382
		c4.112-3.124,0.831-2.955,1.252-5.605c-2.728-0.037-1.656,2.617-4.419-1.171c0.455-0.492,9.902,2.112,11.246,2.006
		c-0.202,0.083-0.403,0.166-0.605,0.246c1.047,1.402,1.04,0.52,1.799,0.136c0.11,1.523,2.242,6.469,3.693,6.507
		C200.369,87.601,199.229,82.824,203.255,81.223C203.371,78.511,203.204,81.243,203.255,81.223z M163.828,48.933
		C163.815,48.191,163.777,49.336,163.828,48.933C163.827,48.843,163.812,49.058,163.828,48.933z M177.125,73.967
		c-0.503,1.126-6.245,0.531-7.301,2.946c0.761,2.221,3.969,0.061,5.233,0.552c-0.571,4.618-7.523,4.453-10.38,3.839
		c-2.568-0.552-0.678-1.964-3.345-2.056c-2.34-0.08-4.025,1.769-6.343,1.815c1.993,0.74,3.044-4.992,3.954-5.512
		c3.217-1.838,3.917,1.333,6.217,2.765c-0.553-0.01,1.334-1.961,1.1-1.721c-0.021,0.275-3.765-2.989-3.566-2.967
		c1.747-0.552,4.618,3.492,5.803,4.965c0.138-0.063,0.866-1.04,0.958-1.131c0.019-0.569-1.106-0.75-1.116-1.343
		c-0.018,1.083,2.794-2.946,2.207-2.118c1.167-1.646,0.22-2.562,2.282-2.625c-0.97,1.176,0.97,0.812,1.736,0.714
		c-0.039-0.767-0.937-0.435-0.965-0.871c0,0,1.974-1.083,1.917-1.052c-0.221,0.437-0.978,1.173-0.997,1.629
		C174.32,71.593,178.235,73.605,177.125,73.967C177.082,74.065,177.294,73.912,177.125,73.967z M168.132,77.479
		c0.053-0.096,0.28-0.058,0.403-0.102C168.547,77.609,168.28,77.433,168.132,77.479z M173.379,80.625
		C173.371,80.514,173.39,80.77,173.379,80.625L173.379,80.625z M173.445,80.667C173.448,80.667,173.443,80.667,173.445,80.667
		L173.445,80.667z M142.315,42.196C142.583,42.113,142.024,42.329,142.315,42.196C142.386,42.174,142.215,42.24,142.315,42.196z
		 M142.215,44.255C143.991,45.905,141.63,41.409,142.215,44.255C142.269,44.302,142.204,44.192,142.215,44.255z M122.145,64.92
		c-0.078,0.188,1.035-0.419,0.384-1.328C122.108,64.02,121.976,64.461,122.145,64.92C122.05,65.15,122.168,64.826,122.145,64.92z
		 M122.018,65.812C123.021,65.044,121.683,66.066,122.018,65.812L122.018,65.812z M177.66,42.477
		c0.123,0.264,0.015,3.366,0.865,2.894c-0.459,0.728,0.044-0.602-0.16-0.542c0.212-0.007,1.31,1.549,2.355,0.543
		c0.174,0.807-2.106-3.989-1.15-3.265C178.788,41.513,177.346,42.252,177.66,42.477C177.719,42.604,177.598,42.431,177.66,42.477z
		 M124.112,98.622C124.843,100.031,124.545,98.2,124.112,98.622C124.214,98.816,124.339,98.401,124.112,98.622z M126.545,78.921
		c-0.328-0.441-2.163-0.923-2.555-1.346c0.845-1.668-0.647-0.823-1.817-0.021c0.005-1.326,5.073-3.494,5.817-3.476
		c-0.503,0.714-1.041,2.58-0.871,3.163c1.514,0.227,1.545-0.052,2.516-0.352c0.216,0.294,0.031,0.74,0.64,0.698
		c-0.027-0.208-1.525-3.821-2.027-2.336c-0.9-1.854-0.761-2.209-1.961-3.745c-0.114-0.143-3.839-4.083-3.489-4.57
		c-0.837,0.9-1.681,1.656-2.03,1.971c-1.518,5.868-1.736,12.121-0.623,18.079c-0.034-0.679,0.207-1.244-0.152-1.982
		c-0.321,1.096,2.524-3.555,2.66-2.871c0.296-1.129,0.583-2.036,2.183-2.763c-0.406,0.122-1.042,1.203-0.296,1.258
		C124.717,80.422,126.274,78.812,126.545,78.921C126.41,78.742,126.759,79.009,126.545,78.921z M126.374,72.44
		C126.281,72.611,125.532,72.999,126.374,72.44C126.374,72.44,126.208,72.548,126.374,72.44z M181.373,46.405
		c0.209,0.646,0.826,0.405,0.855-0.094C181.486,45.306,181.2,45.337,181.373,46.405C181.396,46.479,181.115,46.195,181.373,46.405z
		 M176.552,48.514c0.025,0.754,0.805,0.175,0.851-0.277C177.547,46.849,175.843,48.583,176.552,48.514
		C176.559,48.669,176.472,48.521,176.552,48.514z M161.134,51.088C163.227,51.042,159.68,49.392,161.134,51.088
		C161.322,51.085,161.021,50.957,161.134,51.088z M128.138,55.742C128.135,55.42,127.668,55.497,128.138,55.742
		C128.137,55.552,128.138,55.742,128.138,55.742z M141.833,58.883c0.438-0.014,1.316-0.215,1.398,0.238
		c0.011-0.003-1.052,0.054-1.032,0.423c0.549,0.878,0.595-0.032,0.63,0.888c8.073,2.516,0.897-7.479,0.736-1.854
		c-0.044-0.065-0.822-1.64-1.228-0.833C142.539,58.402,141.72,58.19,141.833,58.883z M165.833,62.129
		C165.675,62.155,165.84,61.71,165.833,62.129C165.992,62.104,165.831,62.215,165.833,62.129z M153.588,71.52
		c5.765-1.531,0.666-4.458-0.56-6.311c0.248-0.324,0.358-0.679,0.325-1.072c-1.844,0.962-0.333,5.901,0.74,6.245
		C153.82,70.934,153.6,71.46,153.588,71.52C153.754,71.476,153.569,71.606,153.588,71.52z M165.502,62.673
		C165.693,63.343,165.263,62,165.502,62.673C165.53,62.78,165.413,62.423,165.502,62.673z M151.631,65.465
		C152.742,64.06,150.977,65.507,151.631,65.465C151.708,65.37,151.492,65.474,151.631,65.465z M163.934,64.051
		C163.766,62.112,164.518,64.273,163.934,64.051C163.947,64.2,163.854,64.021,163.934,64.051z M161.217,65.305
		c-0.926,0.516-0.678,0.268-0.178,1.048C161.275,66.292,161.909,65.38,161.217,65.305C161.089,65.375,161.484,65.334,161.217,65.305
		z M152.782,69.487c2.379-4.578-4.721,1.6-2.121,0.971C150.908,71.242,152.709,70.023,152.782,69.487
		C152.807,69.438,152.769,69.585,152.782,69.487z M125.03,75.978C124.138,75.687,126.616,77.596,125.03,75.978
		C124.921,75.943,125.03,75.978,125.03,75.978z M126.437,77.99C126.088,79.796,126.571,77.587,126.437,77.99
		C126.396,78.208,126.462,77.921,126.437,77.99z M161.479,76.542C162.53,75.489,161.635,76.337,161.479,76.542
		C161.6,76.421,161.389,76.66,161.479,76.542z M164.966,79.029c1.025-1.419-1.604-0.678-1.553-0.519
		C163.895,78.832,164.414,79.002,164.966,79.029C165.113,78.828,164.841,79.05,164.966,79.029z M164.503,79.44
		C164.999,79.696,164.707,79.297,164.503,79.44C164.503,79.44,164.658,79.331,164.503,79.44z M173.847,78.71
		C174.902,78.524,173.839,78.722,173.847,78.71C174.101,78.666,173.739,78.815,173.847,78.71z M169.266,78.927
		c-0.13-0.02,0.663,0.321,1.31,0.14C170.511,79.092,169.438,78.523,169.266,78.927z M126.089,87.467
		C125.32,87.412,126.62,87.896,126.089,87.467C125.956,87.458,126.113,87.487,126.089,87.467z M183.286,81.98
		C183.442,82.471,183.362,82.006,183.286,81.98C183.286,81.98,183.356,82.004,183.286,81.98z M122.313,94.635
		C122.578,95.33,122.788,94.677,122.313,94.635C122.354,94.737,122.481,94.649,122.313,94.635z M124.766,95.543
		c0.691,0-1.005-0.776-2.051,0.083c0.007,0.002,0.078,0.174,0.073,0.181C122.928,95.766,124.775,95.401,124.766,95.543
		C124.885,95.543,124.762,95.628,124.766,95.543z M128.152,95.169c-0.063,0.096,0.01,0.253,0.082,0.292
		C128.502,95.466,128.411,95.049,128.152,95.169z M128.662,95.544C129.72,96.222,128.388,94.493,128.662,95.544
		C128.796,95.629,128.619,95.378,128.662,95.544z M129.257,96.438c0.018-0.083,0.075-0.141,0.034-0.27
		C129.092,96.044,128.99,96.486,129.257,96.438z M147.858,93.898C148.249,93.833,147.826,93.717,147.858,93.898
		C147.858,93.898,147.833,93.749,147.858,93.898z M129.495,97.006C129.094,97.102,129.455,97.176,129.495,97.006
		C129.495,97.006,129.477,97.088,129.495,97.006z M129.59,97.371C129.205,97.223,129.417,97.527,129.59,97.371
		C129.59,97.371,129.51,97.443,129.59,97.371z M129.213,98.108C129.034,97.991,129.553,98.069,129.213,98.108
		C129.318,98.18,129.119,98.12,129.213,98.108z M130.347,98.84C130.367,98.695,129.623,98.746,130.347,98.84
		C130.381,98.57,130.347,98.84,130.347,98.84z M199.968,89.273c-0.824-1.629-1.257-0.043-0.872,0.97
		C199.39,90.964,200.556,89.238,199.968,89.273z M195.812,91.772C196.276,91.695,195.551,92.097,195.812,91.772
		C195.706,91.789,195.925,91.634,195.812,91.772z M164.639,96.938C163.397,96.982,165.341,97.626,164.639,96.938
		C164.453,96.943,164.783,97.081,164.639,96.938z M164.002,98.438c-0.089-0.117-0.251-0.012-0.25,0.113
		C163.812,98.734,164.167,98.587,164.002,98.438z M188.205,96.883C187.746,97.153,188.429,97.203,188.205,96.883
		C188.154,96.914,188.247,96.945,188.205,96.883z M182.929,101.674C182.974,102.052,182.337,101.458,182.929,101.674
		C182.919,101.61,183.039,101.714,182.929,101.674z M185.789,107.438c0.375-1.367,0.474-3.335,0.757-4.389
		c0.228,0.718-0.703-2.763-1.16-1.642C184.064,103.191,182.047,110.388,185.789,107.438z M130.054,97.185
		c0.033,0.174,0.214,0.24,0.361,0.133C130.548,97,130.143,96.976,130.054,97.185z M189.583,105.298
		C189.66,105.432,189.414,105.177,189.583,105.298C189.553,105.25,189.667,105.357,189.583,105.298z M190.222,104.782
		C189.638,105.139,191.19,104.449,190.222,104.782C190.021,104.907,190.338,104.743,190.222,104.782z"/>
	<path opacity="0.5" fill="#66A3AF" enable-background="new    " d="M202.67,72.199c-3.42-19.674-20.04-33.73-39.179-34.685
		c0.414,0.355,0.82,0.72,1.208,1.108c15.384,17.506,15.913,43.499,6.897,64.186c-3.008,7.072-7.491,13.312-13.011,18.4
		c3.263,0.215,6.602,0.06,9.964-0.526C191.361,116.719,206.638,95.009,202.67,72.199z"/>
</g>
<g>
	<g>
		<circle id="XMLID_2_" fill="#CCCBCB" cx="272.815" cy="86.358" r="10.106"/>
	</g>
	<g>
		<defs>
			<circle id="SVGID_1_" cx="272.815" cy="86.358" r="10.106"/>
		</defs>
		<clipPath id="SVGID_2_">
			<use xlink:href="#SVGID_1_"  overflow="visible"/>
		</clipPath>
		<g clip-path="url(#SVGID_2_)">
			<path opacity="0.5" fill="#DF7A7C" enable-background="new    " d="M281.395,93.998c-1.103,1.315-2.665,2.379-4.209,3.114
				c-1.766,0.837-3.4,0.334-6.403,0.498c1.211-0.788,2.778-1.574,3.68-2.723c0.174-0.228,0.329-0.483,0.459-0.752
				c-0.479-0.146-0.858-0.549-0.958-1.076c-0.135-0.754,0.363-1.473,1.115-1.61c0.228-0.041,0.455-0.024,0.66,0.044
				c0.029-0.136,0.061-0.267,0.089-0.395c0.247-1.047,0.448-2.111,0.581-3.185c-0.254-0.188-0.438-0.467-0.496-0.801
				c-0.106-0.568,0.184-1.119,0.674-1.368c0.043-1.144,0.002-2.285-0.143-3.412c-0.02,0.005-0.041,0.012-0.063,0.015
				c-0.488,0.092-0.955-0.235-1.047-0.726c-0.087-0.486,0.239-0.955,0.728-1.045c0.021-0.004,0.041-0.002,0.061-0.004
				c-0.046-0.196-0.097-0.393-0.152-0.586c-0.1,0.049-0.203,0.082-0.317,0.102c-0.694,0.126-1.361-0.334-1.487-1.03
				c-0.111-0.631,0.254-1.233,0.841-1.437c-0.15-0.223-0.372-0.529-0.628-0.875c-0.104,0.097-0.235,0.17-0.384,0.195
				c-0.414,0.076-0.812-0.2-0.885-0.611c-0.061-0.328,0.102-0.641,0.375-0.798c-0.636-0.876-1.185-1.697-1.071-1.886
				c0.8-1.361,6.396,2.841,7.114,3.578c2.234,2.307,3.709,4.74,4.29,7.888C284.413,88.388,283.55,91.42,281.395,93.998z"/>
			<path opacity="0.5" fill="#DF7A7C" enable-background="new    " d="M275.906,88.774c0.13,0.481-0.15,0.975-0.634,1.107
				c-0.479,0.129-0.97-0.157-1.103-0.636c-0.128-0.48,0.155-0.975,0.634-1.104C275.284,88.016,275.778,88.296,275.906,88.774z"/>
			<path opacity="0.5" fill="#DF7A7C" enable-background="new    " d="M273.756,91.805c-0.404,0.108-0.825-0.128-0.931-0.537
				c-0.111-0.403,0.128-0.824,0.537-0.931c0.406-0.111,0.822,0.131,0.931,0.534C274.404,91.277,274.162,91.696,273.756,91.805z"/>
			<path opacity="0.5" fill="#DF7A7C" enable-background="new    " d="M273.836,80.669c0.089,0.334-0.111,0.678-0.44,0.768
				c-0.333,0.089-0.674-0.107-0.764-0.441c-0.089-0.33,0.106-0.674,0.438-0.762C273.403,80.142,273.744,80.341,273.836,80.669z"/>
		</g>
	</g>
</g>
<g>
	<g>
		<g>
			<path fill="#E94F8C" d="M659.475,111.43c16.878-1.096,21.393-11.662,36.841-19.107c12.88-5.246,25.98-7.117,37.872-11.956
				c11.89-4.844,19.378-14.822,31.67-18.67c-7.34,1.832-14.275,4.658-20.222,7.076c2.941-6.97,10.059-12.184,15.378-18.969
				c-8.914,3.629-15.228,10.822-24.145,14.452c1.506-13.317,22.093-25.167,30.975-34.562c-19.631,5.688-32.402,28.213-54.02,34.703
				c-20.624,6.089-44.116,4.833-63.129,14.882c5.211,7.123,15.166,3.496,16.631,15.605c1.834,7.339-6.369,13.418-12.313,15.839"/>
		</g>
		<g>
			<path fill="#317CB4" d="M666.374,107.2c14.997-6.105,22.098-14.376,32.089-19.193c8.328-3.39,16.805-4.599,24.491-7.731
				c7.69-3.133,13.84-6.653,21.789-9.145c-4.748,1.188-10.537,0.083-14.386,1.649c1.899-4.511,4.95-2.52,8.392-6.91
				c-5.767,2.346-8.295,1.643-14.062,3.99c4.381-8.32,6.677-8.693,12.421-14.767c-12.405,5.628-13.344,10.657-27.323,14.857
				c-13.336,3.935-35.979,2.618-48.271,9.118c3.369,4.605,12.419,5.021,13.367,12.854c1.187,4.747-4.253,12.506-8.097,14.072"/>
			<g>
				<path fill="#E94F8C" d="M666.664,107.549c11.711-4.929,20.852-13.569,32.089-19.193c7.08-3.544,15.469-4.232,22.832-7.088
					c7.851-3.045,15.249-7.099,23.269-9.725c0.83-0.271,0.63-0.991-0.221-0.824c-4.318,0.849-8.717,0.417-13.035,1.219
					c-0.71,0.132,3.86-2.799,4.312-3.063c1.404-0.822,2.32-1.65,3.404-2.843c0.527-0.582-0.513-0.64-0.855-0.51
					c-4.593,1.732-9.467,2.256-14.062,3.99c0.313,0.133,0.628,0.265,0.94,0.397c3.234-5.957,7.713-9.865,12.336-14.654
					c0.531-0.551-0.508-0.673-0.854-0.51c-5.271,2.476-9.838,5.743-14.623,9.014c-6.702,4.58-14.453,6.611-22.388,7.734
					c-12.757,1.805-26.801,1.337-38.583,7.228c-0.203,0.102-0.563,0.374-0.345,0.637c2.955,3.53,7.692,4.649,10.996,7.794
					c5.727,5.451,0.483,15.568-5.381,18.495c-0.849,0.424-0.078,1.025,0.58,0.697c6.843-3.416,12.484-14.766,5.207-20.578
					c-1.979-1.581-4.204-2.707-6.401-3.947c-1.15-0.649-2.154-1.393-3.119-2.306c-0.81-0.767,4.659-2.363,4.531-2.322
					c6.681-2.179,13.892-2.779,20.844-3.511c11.865-1.249,23.608-2.315,33.979-8.764c2.274-1.414,4.4-3.07,6.604-4.594
					c1.064-0.736,2.165-1.413,3.271-2.085c1.256-0.74,2.54-1.428,3.852-2.064c-0.544-0.397-0.979-0.132-1.303,0.797
					c-4.147,4.131-7.671,7.626-10.503,12.842c-0.312,0.573,0.678,0.496,0.939,0.397c4.054-1.53,8.39-1.851,12.423-3.372
					c-3,1.132-6.174,3.011-7.692,5.895c-0.245,0.465,0.473,0.553,0.761,0.461c4.047-1.288,8.4-0.823,12.582-1.297
					c0.394-0.044-0.547-0.501-1.901,0.014c-2.088,0.791-4.143,1.639-6.187,2.531c-9.167,4.005-18.016,7.48-27.673,10.17
					c-15.48,4.312-26.54,16.069-41.205,22.241C665.206,107.222,665.996,107.83,666.664,107.549L666.664,107.549z"/>
			</g>
		</g>
	</g>
	<path fill="#97D3E2" d="M677.205,94.104c0,9.792-7.94,17.73-17.729,17.73c-9.792,0-17.729-7.938-17.729-17.73
		s7.938-17.73,17.729-17.73C669.264,76.374,677.205,84.312,677.205,94.104z"/>
</g>
</svg>
