<?xml version="1.0" encoding="utf-8"?>
<!-- Generator: Adobe Illustrator 16.0.0, SVG Export Plug-In . SVG Version: 6.00 Build 0)  -->
<!DOCTYPE svg PUBLIC "-//W3C//DTD SVG 1.1//EN" "http://www.w3.org/Graphics/SVG/1.1/DTD/svg11.dtd">
<svg version="1.1" id="Layer_1" xmlns="http://www.w3.org/2000/svg" xmlns:xlink="http://www.w3.org/1999/xlink" x="0px" y="0px"
	 width="841.89px" height="310px" viewBox="0 0 841.89 310" enable-background="new 0 0 841.89 310" xml:space="preserve">
<rect x="-15" fill="#FDFCFA" width="856" height="328"/>
<path fill="#452773" d="M858.141,250.602l-11.779-2.754l-13.306,2.754l-16.979-2.754l-14.226,1.38l-6.423-3.216l-57.358-3.888
	l-8.26-4.372l-27.532-4.586l-7.801,6.881l-9.178,1.836l-10.093-5.505L667.403,235l-7.802,3.67l-11.93-2.753l-71.125-51.394
	l-6.425,7.801v-4.588l-5.507,4.588l-4.589-3.211l-11.928-1.377l-4.591,2.755l-33.04-14.687h-24.779h-9.176l-6.886,2.296
	l-9.637-6.882h-8.719l-7.341,7.799l-6.423-1.376l-3.672,3.669l-6.424-4.127l-19.732,14.225l-5.964-3.67l-4.59,3.211l-19.271-0.917
	l-10.097,3.669l-9.176,1.379l-12.848,11.931h-8.26l-6.424,3.897h-13.307l-10.096-6.652l-11.932,12.85l-9.176,1.373l-6.425-2.753
	l-7.342-4.817l-17.437,4.817l-11.931,8.262l-3.67-3.672l-5.966,0.46l-14.225,13.307l-7.341-9.635c0,0-10.096-13.308-11.93-13.539
	c-1.836-0.23-24.778,10.785-24.778,10.785l-11.015,15.144L154.842,235l-10.553,13.769l-10.555,1.833l-24.778,12.389l-9.636,2.294
	l-5.966,4.13l-5.974,11.904l-7.986-7.687l-10.16-14.815l-14.517,7.258l-8.71,7.558l-9.438-14.086l-5.806-8.713l-18.871,6.534
	l-7.259-10.889l-17.504,17.42v187.995h871.011V250.602z"/>
<polygon fill="#E7315E" points="839.833,283.855 833.347,274.858 822.965,274.858 815.004,283.855 813.62,278.477 811.194,274.858 
	806.694,274.858 801.503,283.855 795.964,274.858 791.121,274.858 782.812,283.855 782.812,288.011 774.853,290.431 
	769.657,290.431 761.354,282.646 721.55,274.858 716.701,266.897 716.701,261.704 712.203,261.704 710.473,253.05 706.32,253.05 
	694.202,270.012 673.089,281.779 539.135,276.589 495.871,253.05 482.371,259.28 463.336,261.706 452.604,249.936 450.527,227.437 
	446.026,227.437 446.026,231.244 443.26,231.244 443.26,217.055 440.488,217.055 431.49,231.592 431.49,240.591 426.989,236.783 
	426.989,232.632 424.222,232.632 424.222,236.439 415.914,244.398 400.338,244.744 378.879,245.438 374.377,241.631 
	361.226,241.285 356.034,235.054 351.88,235.054 349.802,237.823 338.38,238.516 299.268,241.977 291.38,239.201 282.309,239.552 
	277.117,244.053 265.695,244.398 262.233,237.13 250.812,245.782 175.009,255.474 153.548,245.782 124.819,240.244 98.515,189.712 
	90.208,184.863 73.246,159.25 64.248,159.25 54.556,142.635 47.289,142.635 29.289,162.714 24.097,161.326 11.636,189.712 
	7.484,189.712 -3.248,226.399 -10.776,234.706 -10.776,447 839.833,447 "/>
<g>
	<path fill="#66A4B0" d="M265.641,80.34c6.523,37.499-18.592,73.186-56.093,79.705c-37.497,6.521-73.184-18.593-79.702-56.095
		c-6.523-37.497,18.593-73.181,56.095-79.704C223.437,17.726,259.122,42.841,265.641,80.34z"/>
	<path fill="#A9C44C" d="M198.619,87.928c-0.167,0.3-1.482,0.031-0.783,2.173C198.608,90.089,199.258,88.497,198.619,87.928z
		 M140.132,118.008C140.472,118.001,140.457,117.594,140.132,118.008C139.991,118.008,140.224,117.892,140.132,118.008z
		 M169.106,134.36c-4.868-5.571-19.376-3.245-23.236-10.646c-1.349-0.809-7.274,1.119-8.814,1.122
		c4.358,7.847,21.41,35.249,29.48,20.063C167.689,142.729,168.979,136.644,169.106,134.36z M215.655,155.396
		C217.233,157.462,216.95,155.101,215.655,155.396C215.655,155.396,215.92,155.338,215.655,155.396z M142.176,51.627
		c2.346-0.528-0.716,3.745-0.704,3.905c0.935,0.407,0.814-0.312,1.431-0.408c0.063,0.85-0.334,0.769-0.52,1.446
		c-0.078-0.053,1.689-0.304,1.175,0.381c-2.209,0.113-1.005-0.639-1.476-1.079c-3.21,0.215,1.749,8.176,2.423,6.781
		c0.833,0.444,2.225,10.075,7.309,6.643c-0.351,0.236,6.949-17.209,6.881-15.81c2.971-1.133,4.936-2.468,7.562-5.401
		c-0.108-0.827-3.791,0.332-3.935,0.3c0.36-0.061,0.496-0.226-0.176-0.346c0.591-1.056,2.009-1.596,0.378-2.36
		c1.06,0.75,2.004,1.89,3.572,1.749c0.158-0.49,0.147-2.651-0.239-3.138c-0.545,0.087-0.208,1.248-0.833,0.629
		c1.194-2.213-1.632-1.258-2.563-2.093c1.03-0.138,0.886-0.319,2.798,0.005c-0.009,0.017-1.127-2.602-1.241-1.61
		c0.388-0.073,0.957,0.392,0.691-0.733c-0.788-1.667-1.836,1.383-1.672,1.252c-1.111-0.15-0.186-0.352-1.582,0.247
		c-0.181-0.379,4.079-3.147,3.982-4.848c0.1-0.257,1.2-0.474,1.361-0.832c-0.326-0.592-1.586-0.747-1.574-0.938
		c0.112-0.094,0.682-0.442,0.762-0.303c-0.237-0.792-1.373-0.522-1.649-1.797c0.322,0.069,1.678,0.862,1.762,0.534
		c-0.17-1.046-1.057-1.849-0.614-2.578C156.501,35.986,147.331,43.679,142.176,51.627z M161.309,48.229
		C159.896,48.154,161.44,48.239,161.309,48.229C161.08,48.217,161.544,48.244,161.309,48.229z M161.391,45.17
		c0.918,0.168-0.288,1,0.023,1.74c0.079-0.031,0.149-0.001,0.198,0.093C161.039,48.675,160.576,43.708,161.391,45.17
		C161.632,45.214,161.721,45.754,161.391,45.17z M163.815,37.236c1.028-0.611-0.003-0.623,1.013-0.812
		C164.684,37.871,164.574,36.787,163.815,37.236z M162.291,38.935c-0.176-0.672,1.146-0.139,1.866,0.77
		C163.55,39.457,162.018,38.853,162.291,38.935z M141.661,52.1c-0.354,0.495-0.702,0.995-1.043,1.501
		C141.33,53.71,142.329,52.584,141.661,52.1z M193.271,24.063c0.233,1.497,1.148-0.018,1.062-0.753
		C193.942,23.229,191.877,23.789,193.271,24.063C193.317,24.365,193.055,24.02,193.271,24.063z M266.602,95.173
		c0.875-20.297-7.475-40.384-22.516-54.032c0.068-0.27-1.088,4.907-0.345,4.777c-0.777-2.387-2.964-0.498-4.076-1.856
		c4.243-3.076,4.435-6.019-2.698-8.581c0.358,2.321,0.8,3.044,2.177,4.805c-0.191,0.008-0.251,0.162-0.181,0.465
		c-0.935-2.884-4.336-2.402-6.542-2.908c-0.199,0.876-0.401,3.066-0.179,3.698c1.25-0.119-6.28,0.608-5.3,1.505
		c0.263-0.468,1.227-1.865,0.999-2.394c-3.526,0.997-4.349,4.387-6.241,5.103c-0.818,0.31,1.459-3.074-2.7-2.973
		c0.179,4.898,0.895,4.877-1.192,8.771c-0.922-0.382-2.185-0.654-3.097-0.703c0.323,1.681,0.75,1.105,1.356,2.338
		c-0.929,0.643-5.553-4.344-5.785-4.824c0.273-0.09,0.431-0.281,0.474-0.575c3.795,2.636,8.163,1.099,5.952-3.345
		c-1.169-2.337-7.953-2.184-9.389-2.781c-0.391-1.83,1.089-1.498-1.607-1.55c1.496-2.909-2.075,0.391-1.045,0.473
		c0.046,0.321-0.067-1.38-0.035-1.426c-2.081-0.308-1.377,1.754-2.904,1.754c-0.487-0.444,0.595-1.411-0.913-0.292
		c0.034,0.221,0.069,0.444,0.103,0.667c-0.163,0.004,0.808-0.297,0.762-0.303c-2.45,2.261-0.751,1.201-2.654,1.344
		c0.046,0.025-5.211,13.046-6.023,15.332c-1.038,2.916-3.982,3.062-2.32,6.922c0.988,2.297,2.237,2.895,4.822,0
		c-0.129,4.83,3.443,6.094,5.434,1.772c1.934-4.194-1.074-5.845,0.311-10.063c3.891-11.851,1.465,1.46,2.281,3.1
		c1.332,2.66,4.285,2.562,6.556,1.751c-1.89,1.154-4.05,5.272-3.624,5.103c-1.6-0.641-12.366,11.901-10.783,0.675
		c1.862-0.213-8.32,16.446-10.168,14.264c1.716,3.866,2.277,2.279,1.696,5.335c-0.15,0.772-3.509,0.414-3.874,2.714
		c-0.262,1.65,0.742,3.207,0.685,4.436c-0.046,1.069,1.896-0.451,2.017,0.561c0.231,1.972-1.099,2.485-1.629,4.759
		c-1.508,6.512-4.599,7.212-3.224,13.72c1.615,7.644,5.469,8.811,13.517,8.541c7.444-0.245,7.916-1.532,11.129,5.619
		c2.162,4.801,2.169,8.403,3.985,13.259c3.52,9.415,10.5,17.883,16.592,2.716c1.85-4.606,3.104-9.228,4.052-14.001
		c0.487-2.447-1.563-4.476-0.747-7.66c-0.539,2.103,8.543-13.155,5.944-12.617c-5.967,4.922-14.104-5.283-15.875-11.351
		c2.496,1.989,8.478,8.699,8.481,8.704c1.853,4.857,4.485,2.093,8.069-0.628c6.759-5.135,1.365-4.857,2.058-9.214
		c-4.485-0.061-2.723,4.303-7.265-1.926c0.748-0.809,16.278,3.472,18.487,3.298c-0.332,0.138-0.663,0.272-0.995,0.404
		c1.721,2.305,1.71,0.855,2.957,0.224c0.181,2.504,3.686,10.635,6.071,10.697C261.857,105.659,259.983,97.807,266.602,95.173
		C266.793,90.717,266.519,95.207,266.602,95.173z M201.786,42.09C201.765,40.872,201.702,42.753,201.786,42.09
		C201.785,41.943,201.76,42.294,201.786,42.09z M223.646,83.246c-0.827,1.851-10.266,0.874-12.002,4.843
		c1.252,3.652,6.524,0.1,8.603,0.907c-0.938,7.591-12.367,7.32-17.064,6.312c-4.222-0.907-1.114-3.23-5.5-3.38
		c-3.846-0.13-6.617,2.908-10.427,2.985c3.276,1.217,5.004-8.207,6.5-9.062c5.288-3.022,6.44,2.191,10.221,4.545
		c-0.909-0.017,2.194-3.224,1.808-2.829c-0.035,0.454-6.189-4.914-5.863-4.877c2.872-0.909,7.593,5.741,9.54,8.163
		c0.227-0.104,1.424-1.71,1.575-1.86c0.031-0.935-1.819-1.232-1.834-2.207c-0.029,1.779,4.594-4.844,3.628-3.481
		c1.918-2.706,0.362-4.212,3.751-4.315c-1.595,1.932,1.595,1.333,2.854,1.174c-0.063-1.261-1.54-0.716-1.586-1.433
		c0,0,3.245-1.781,3.15-1.729c-0.363,0.718-1.607,1.927-1.638,2.678C219.034,79.343,225.471,82.651,223.646,83.246
		C223.574,83.406,223.924,83.153,223.646,83.246z M208.862,89.018c0.087-0.158,0.46-0.096,0.662-0.167
		C209.543,89.234,209.104,88.942,208.862,89.018z M217.486,94.189C217.474,94.008,217.505,94.428,217.486,94.189L217.486,94.189z
		 M217.597,94.258C217.601,94.26,217.594,94.258,217.597,94.258L217.597,94.258z M166.419,31.017
		C166.86,30.88,165.941,31.233,166.419,31.017C166.537,30.98,166.256,31.088,166.419,31.017z M166.256,34.401
		C169.175,37.114,165.292,29.723,166.256,34.401C166.344,34.478,166.238,34.296,166.256,34.401z M133.261,68.373
		c-0.127,0.309,1.702-0.688,0.631-2.183C133.2,66.892,132.984,67.619,133.261,68.373C133.105,68.752,133.298,68.219,133.261,68.373z
		 M133.053,69.837C134.702,68.576,132.501,70.257,133.053,69.837L133.053,69.837z M224.526,31.476
		c0.202,0.434,0.024,5.535,1.422,4.758c-0.754,1.197,0.074-0.99-0.262-0.892c0.348-0.011,2.153,2.547,3.873,0.893
		c0.286,1.327-3.463-6.558-1.891-5.367C226.38,29.89,224.009,31.108,224.526,31.476C224.623,31.686,224.423,31.401,224.526,31.476z
		 M136.496,123.776C137.697,126.095,137.207,123.084,136.496,123.776C136.661,124.097,136.868,123.414,136.496,123.776z
		 M140.494,91.391c-0.54-0.726-3.555-1.517-4.2-2.212c1.388-2.743-1.065-1.353-2.988-0.034c0.009-2.179,8.339-5.745,9.563-5.714
		c-0.828,1.172-1.711,4.24-1.431,5.199c2.488,0.374,2.541-0.085,4.136-0.578c0.355,0.483,0.051,1.217,1.053,1.148
		c-0.044-0.34-2.507-6.283-3.333-3.84c-1.48-3.049-1.252-3.633-3.224-6.157c-0.187-0.234-6.312-6.713-5.736-7.513
		c-1.376,1.479-2.763,2.723-3.337,3.241c-2.496,9.646-2.854,19.926-1.023,29.721c-0.057-1.115,0.34-2.044-0.25-3.258
		c-0.529,1.802,4.149-5.844,4.373-4.719c0.487-1.856,0.959-3.347,3.589-4.542c-0.667,0.199-1.712,1.977-0.487,2.069
		C137.49,93.858,140.049,91.21,140.494,91.391C140.273,91.096,140.846,91.535,140.494,91.391z M140.213,80.735
		C140.06,81.018,138.83,81.653,140.213,80.735C140.213,80.735,139.94,80.913,140.213,80.735z M230.629,37.935
		c0.343,1.064,1.358,0.667,1.405-0.154C230.816,36.127,230.346,36.18,230.629,37.935C230.667,38.054,230.205,37.591,230.629,37.935z
		 M222.704,41.4c0.041,1.24,1.324,0.288,1.399-0.455C224.339,38.664,221.539,41.516,222.704,41.4
		C222.714,41.658,222.572,41.414,222.704,41.4z M197.358,45.635C200.798,45.557,194.967,42.844,197.358,45.635
		C197.666,45.628,197.171,45.417,197.358,45.635z M143.114,53.286C143.108,52.755,142.34,52.88,143.114,53.286
		C143.112,52.973,143.114,53.286,143.114,53.286z M165.626,58.45c0.72-0.023,2.164-0.354,2.299,0.391
		c0.018-0.006-1.729,0.088-1.696,0.697c0.902,1.443,0.978-0.054,1.036,1.458c13.271,4.138,1.476-12.294,1.21-3.047
		c-0.072-0.106-1.352-2.697-2.018-1.369C166.788,57.659,165.441,57.31,165.626,58.45z M205.082,63.786
		C204.823,63.828,205.095,63.096,205.082,63.786C205.344,63.742,205.079,63.925,205.082,63.786z M184.952,79.222
		c9.478-2.516,1.094-7.328-0.921-10.374c0.408-0.532,0.588-1.117,0.535-1.761c-3.031,1.582-0.548,9.7,1.217,10.265
		C185.334,78.259,184.972,79.125,184.952,79.222C185.224,79.148,184.921,79.364,184.952,79.222z M204.538,64.68
		C204.851,65.78,204.145,63.573,204.538,64.68C204.584,64.856,204.391,64.269,204.538,64.68z M181.734,69.269
		C183.561,66.958,180.66,69.337,181.734,69.269C181.861,69.111,181.506,69.282,181.734,69.269z M201.961,66.945
		C201.684,63.757,202.92,67.31,201.961,66.945C201.982,67.19,201.829,66.896,201.961,66.945z M197.494,69.005
		c-1.523,0.848-1.114,0.44-0.292,1.724C197.589,70.628,198.631,69.129,197.494,69.005C197.284,69.121,197.933,69.052,197.494,69.005
		z M183.627,75.88c3.912-7.526-7.761,2.63-3.486,1.596C180.547,78.765,183.506,76.762,183.627,75.88
		C183.668,75.801,183.605,76.042,183.627,75.88z M138.003,86.551C136.537,86.073,140.611,89.211,138.003,86.551
		C137.824,86.494,138.003,86.551,138.003,86.551z M140.317,89.86C139.743,92.829,140.537,89.197,140.317,89.86
		C140.249,90.216,140.357,89.746,140.317,89.86z M197.925,87.476C199.652,85.749,198.181,87.142,197.925,87.476
		C198.124,87.28,197.776,87.674,197.925,87.476z M203.657,91.567c1.686-2.333-2.637-1.114-2.553-0.854
		C201.896,91.241,202.749,91.524,203.657,91.567C203.898,91.236,203.452,91.601,203.657,91.567z M202.896,92.243
		C203.711,92.665,203.231,92.007,202.896,92.243C202.896,92.243,203.15,92.062,202.896,92.243z M218.257,91.043
		C219.992,90.738,218.243,91.06,218.257,91.043C218.674,90.97,218.079,91.217,218.257,91.043z M210.726,91.4
		c-0.214-0.034,1.09,0.527,2.153,0.23C212.773,91.672,211.008,90.735,210.726,91.4z M139.746,105.439
		C138.481,105.348,140.618,106.143,139.746,105.439C139.525,105.424,139.784,105.472,139.746,105.439z M233.773,96.419
		C234.031,97.225,233.899,96.462,233.773,96.419C233.773,96.419,233.888,96.458,233.773,96.419z M133.537,117.223
		C133.974,118.363,134.318,117.292,133.537,117.223C133.604,117.392,133.812,117.247,133.537,117.223z M137.57,118.716
		c1.137,0-1.652-1.275-3.371,0.138c0.012,0.003,0.127,0.285,0.12,0.297C134.548,119.08,137.583,118.482,137.57,118.716
		C137.766,118.716,137.564,118.856,137.57,118.716z M143.135,118.101c-0.104,0.158,0.017,0.416,0.135,0.48
		C143.711,118.59,143.562,117.903,143.135,118.101z M143.975,118.719C145.714,119.831,143.524,116.99,143.975,118.719
		C144.194,118.858,143.904,118.444,143.975,118.719z M144.953,120.185c0.029-0.136,0.123-0.23,0.055-0.442
		C144.682,119.54,144.514,120.267,144.953,120.185z M175.532,116.013C176.175,115.905,175.479,115.714,175.532,116.013
		C175.532,116.013,175.49,115.765,175.532,116.013z M145.345,121.121C144.685,121.276,145.279,121.4,145.345,121.121
		C145.345,121.121,145.314,121.256,145.345,121.121z M145.501,121.719C144.867,121.476,145.215,121.978,145.501,121.719
		C145.501,121.719,145.37,121.84,145.501,121.719z M144.881,122.934C144.586,122.741,145.44,122.868,144.881,122.934
		C145.054,123.049,144.726,122.951,144.881,122.934z M146.746,124.137C146.778,123.897,145.555,123.979,146.746,124.137
		C146.801,123.692,146.746,124.137,146.746,124.137z M261.198,108.409c-1.354-2.679-2.066-0.07-1.434,1.594
		C260.249,111.188,262.166,108.351,261.198,108.409z M254.366,112.516C255.129,112.39,253.938,113.049,254.366,112.516
		C254.191,112.543,254.552,112.289,254.366,112.516z M203.119,121.008C201.077,121.081,204.273,122.141,203.119,121.008
		C202.813,121.019,203.355,121.242,203.119,121.008z M202.071,123.475c-0.147-0.192-0.412-0.02-0.411,0.186
		C201.76,123.962,202.342,123.72,202.071,123.475z M241.861,120.919C241.105,121.363,242.229,121.443,241.861,120.919
		C241.776,120.968,241.93,121.021,241.861,120.919z M233.188,128.795C233.262,129.417,232.213,128.438,233.188,128.795
		C233.171,128.69,233.367,128.861,233.188,128.795z M237.889,138.271c0.616-2.247,0.778-5.483,1.244-7.215
		c0.374,1.18-1.155-4.542-1.906-2.699C235.053,131.29,231.737,143.119,237.889,138.271z M146.263,121.414
		c0.054,0.286,0.353,0.394,0.593,0.219C147.075,121.109,146.41,121.07,146.263,121.414z M244.126,134.753
		C244.253,134.972,243.848,134.554,244.126,134.753C244.076,134.672,244.264,134.851,244.126,134.753z M245.177,133.905
		C244.216,134.489,246.768,133.356,245.177,133.905C244.846,134.109,245.367,133.84,245.177,133.905z"/>
	<path opacity="0.5" fill="#66A4B0" d="M265.641,80.34c-5.622-32.343-32.944-55.452-64.409-57.02
		c0.681,0.583,1.349,1.183,1.987,1.822c25.291,28.778,26.16,71.509,11.338,105.519c-4.945,11.626-12.314,21.885-21.39,30.25
		c5.363,0.354,10.854,0.097,16.38-0.866C247.049,153.526,272.164,117.839,265.641,80.34z"/>
</g>
<g>
	<defs>
		<circle id="XMLID_2_" cx="314" cy="148" r="10.106"/>
	</defs>
	<use xlink:href="#XMLID_2_"  overflow="visible" fill="#CDCCCC"/>
	<clipPath id="XMLID_3_">
		<use xlink:href="#XMLID_2_"  overflow="visible"/>
	</clipPath>
	<g clip-path="url(#XMLID_3_)">
		<path opacity="0.5" fill="#E07A7C" d="M322.579,155.64c-1.103,1.315-2.665,2.379-4.209,3.114c-1.766,0.837-3.4,0.334-6.403,0.498
			c1.211-0.788,2.778-1.574,3.68-2.723c0.174-0.228,0.329-0.483,0.459-0.752c-0.479-0.147-0.858-0.549-0.958-1.076
			c-0.135-0.754,0.363-1.473,1.115-1.61c0.228-0.041,0.455-0.024,0.66,0.044c0.029-0.136,0.061-0.267,0.089-0.395
			c0.247-1.047,0.448-2.111,0.581-3.185c-0.254-0.188-0.438-0.467-0.496-0.801c-0.106-0.568,0.184-1.119,0.674-1.368
			c0.043-1.144,0.002-2.285-0.143-3.412c-0.02,0.005-0.041,0.012-0.063,0.015c-0.488,0.092-0.955-0.235-1.047-0.726
			c-0.087-0.486,0.239-0.955,0.728-1.044c0.021-0.005,0.041-0.002,0.061-0.005c-0.046-0.196-0.097-0.392-0.152-0.585
			c-0.1,0.048-0.203,0.083-0.317,0.102c-0.694,0.126-1.361-0.333-1.487-1.03c-0.111-0.631,0.254-1.233,0.841-1.436
			c-0.15-0.223-0.372-0.53-0.628-0.875c-0.104,0.097-0.235,0.169-0.384,0.196c-0.414,0.075-0.812-0.201-0.885-0.612
			c-0.061-0.329,0.102-0.641,0.375-0.798c-0.636-0.875-1.185-1.697-1.071-1.886c0.8-1.361,6.396,2.841,7.114,3.579
			c2.234,2.307,3.709,4.739,4.29,7.887C325.597,150.029,324.734,153.062,322.579,155.64z"/>
		<path opacity="0.5" fill="#E07A7C" d="M317.09,150.416c0.13,0.481-0.15,0.975-0.634,1.107c-0.479,0.129-0.97-0.157-1.103-0.636
			c-0.128-0.48,0.155-0.975,0.634-1.104C316.469,149.657,316.962,149.938,317.09,150.416z"/>
		<path opacity="0.5" fill="#E07A7C" d="M314.94,153.446c-0.404,0.108-0.825-0.128-0.931-0.537
			c-0.111-0.403,0.128-0.824,0.537-0.931c0.406-0.111,0.822,0.131,0.931,0.534C315.588,152.919,315.347,153.338,314.94,153.446z"/>
		<path opacity="0.5" fill="#E07A7C" d="M315.021,142.311c0.089,0.333-0.111,0.677-0.44,0.767c-0.333,0.089-0.674-0.106-0.764-0.44
			c-0.089-0.331,0.106-0.674,0.438-0.762C314.587,141.784,314.928,141.982,315.021,142.311z"/>
	</g>
</g>
<g>
	<g>
		<g>
			<path fill="#EA508E" d="M669.476,144.097c16.878-1.096,21.392-11.662,36.84-19.107c12.88-5.246,25.981-7.117,37.873-11.956
				c11.889-4.844,19.377-14.822,31.669-18.67c-7.339,1.833-14.275,4.658-20.221,7.076c2.941-6.969,10.058-12.183,15.378-18.969
				c-8.914,3.629-15.229,10.823-24.146,14.453c1.506-13.318,22.093-25.167,30.975-34.561c-19.631,5.688-32.403,28.212-54.02,34.703
				c-20.624,6.088-44.116,4.833-63.129,14.881c5.211,7.123,15.166,3.496,16.631,15.605c1.834,7.339-6.369,13.418-12.313,15.839"/>
		</g>
		<g>
			<path fill="#307CB4" d="M676.374,139.867c14.997-6.105,22.098-14.376,32.089-19.193c8.328-3.39,16.805-4.599,24.491-7.731
				c7.69-3.133,13.84-6.653,21.789-9.145c-4.748,1.188-10.537,0.083-14.386,1.649c1.9-4.51,4.951-2.518,8.392-6.91
				c-5.767,2.347-8.295,1.644-14.062,3.99c4.381-8.32,6.677-8.692,12.421-14.766c-12.405,5.627-13.343,10.658-27.323,14.857
				c-13.336,3.934-35.979,2.619-48.27,9.118c3.369,4.605,12.418,5.021,13.367,12.854c1.186,4.747-4.253,12.506-8.097,14.072"/>
			<g>
				<path fill="#EA508E" d="M676.664,140.216c11.711-4.929,20.852-13.569,32.089-19.193c7.08-3.544,15.469-4.232,22.832-7.088
					c7.851-3.045,15.249-7.099,23.269-9.724c0.83-0.272,0.629-0.992-0.221-0.825c-4.318,0.849-8.717,0.417-13.035,1.219
					c-0.71,0.132,3.86-2.799,4.312-3.063c1.404-0.823,2.321-1.651,3.404-2.843c0.528-0.582-0.512-0.639-0.855-0.51
					c-4.593,1.733-9.467,2.256-14.062,3.99c0.313,0.132,0.627,0.265,0.94,0.397c3.234-5.957,7.713-9.865,12.336-14.654
					c0.531-0.55-0.508-0.673-0.855-0.51c-5.27,2.476-9.838,5.743-14.623,9.014c-6.702,4.58-14.453,6.611-22.387,7.734
					c-12.757,1.805-26.801,1.338-38.583,7.228c-0.203,0.102-0.564,0.375-0.345,0.636c2.955,3.53,7.692,4.65,10.996,7.795
					c5.727,5.45,0.483,15.568-5.381,18.495c-0.849,0.424-0.078,1.026,0.58,0.697c6.843-3.416,12.484-14.765,5.207-20.579
					c-1.979-1.581-4.204-2.707-6.401-3.947c-1.15-0.649-2.154-1.393-3.119-2.306c-0.81-0.766,4.659-2.363,4.531-2.321
					c6.681-2.179,13.892-2.779,20.844-3.511c11.865-1.25,23.608-2.315,33.979-8.763c2.275-1.415,4.401-3.071,6.604-4.594
					c1.064-0.736,2.165-1.413,3.271-2.085c1.256-0.74,2.54-1.428,3.852-2.064c-0.544-0.397-0.979-0.132-1.303,0.797
					c-4.146,4.131-7.671,7.625-10.503,12.841c-0.312,0.574,0.678,0.497,0.94,0.397c4.053-1.529,8.39-1.85,12.422-3.372
					c-3,1.132-6.172,3.011-7.692,5.894c-0.245,0.464,0.473,0.553,0.761,0.461c4.047-1.289,8.4-0.824,12.582-1.297
					c0.393-0.044-0.547-0.501-1.902,0.013c-2.087,0.792-4.142,1.639-6.186,2.532c-9.167,4.004-18.016,7.48-27.673,10.169
					c-15.48,4.312-26.54,16.07-41.205,22.241C675.206,139.889,675.996,140.497,676.664,140.216L676.664,140.216z"/>
			</g>
		</g>
	</g>
	<path fill="#98D4E3" d="M687.205,126.771c0,9.792-7.94,17.73-17.729,17.73c-9.792,0-17.73-7.938-17.73-17.73
		s7.938-17.73,17.73-17.73C679.265,109.041,687.205,116.979,687.205,126.771z"/>
</g>
</svg>
