<?xml version="1.0" encoding="utf-8"?>
<!-- Generator: Adobe Illustrator 16.0.0, SVG Export Plug-In . SVG Version: 6.00 Build 0)  -->
<!DOCTYPE svg PUBLIC "-//W3C//DTD SVG 1.1//EN" "http://www.w3.org/Graphics/SVG/1.1/DTD/svg11.dtd">
<svg version="1.1" id="Layer_1" xmlns="http://www.w3.org/2000/svg" xmlns:xlink="http://www.w3.org/1999/xlink" x="0px" y="0px"
	 width="841.891px" height="223px" viewBox="0 -54 841.891 223" enable-background="new 0 -54 841.891 223" xml:space="preserve">
<rect x="-15" y="-137" fill="#FCFBF9" width="856" height="328"/>
<path fill="#452773" d="M858.14,113.602l-11.779-2.754l-13.306,2.754l-16.979-2.754l-14.226,1.38l-6.423-3.216l-57.358-3.888
	l-8.26-4.372l-27.532-4.586l-7.801,6.881l-9.178,1.836l-10.093-5.505L667.403,98l-7.802,3.67l-11.93-2.753l-71.125-51.394
	l-6.425,7.801v-4.588l-5.507,4.588l-4.589-3.211l-11.928-1.377l-4.591,2.755l-33.04-14.687h-24.779h-9.176l-6.886,2.296
	l-9.637-6.882h-8.719l-7.341,7.799l-6.423-1.376l-3.672,3.669l-6.424-4.127L407.68,54.408l-5.964-3.67l-4.59,3.211l-19.271-0.917
	l-10.097,3.669l-9.176,1.379l-12.848,11.931h-8.26l-6.424,3.897h-13.307l-10.096-6.652l-11.932,12.85l-9.176,1.373l-6.425-2.753
	l-7.342-4.817l-17.437,4.817l-11.931,8.262l-3.67-3.672l-5.966,0.46l-14.225,13.307l-7.341-9.635c0,0-10.096-13.308-11.93-13.539
	c-1.836-0.23-24.778,10.785-24.778,10.785l-11.015,15.144L154.842,98l-10.553,13.769l-10.555,1.833l-24.778,12.389l-9.636,2.294
	l-5.966,4.13l-5.974,11.904l-7.986-7.687l-10.16-14.815l-14.517,7.258l-8.71,7.558l-9.438-14.086l-5.806-8.713l-18.871,6.534
	l-7.259-10.889l-17.504,17.42v187.995H858.14V113.602z"/>
<polygon fill="#E6305E" points="839.833,146.855 833.346,137.858 822.965,137.858 815.004,146.855 813.62,141.477 811.194,137.858 
	806.694,137.858 801.503,146.855 795.964,137.858 791.121,137.858 782.811,146.855 782.811,151.011 774.852,153.431 
	769.657,153.431 761.353,145.646 721.55,137.858 716.701,129.897 716.701,124.704 712.203,124.704 710.472,116.05 706.32,116.05 
	694.202,133.012 673.089,144.779 539.135,139.589 495.871,116.05 482.371,122.28 463.336,124.706 452.603,112.936 450.527,90.437 
	446.026,90.437 446.026,94.244 443.26,94.244 443.26,80.055 440.488,80.055 431.49,94.592 431.49,103.591 426.989,99.783 
	426.989,95.632 424.221,95.632 424.221,99.439 415.914,107.398 400.338,107.744 378.879,108.438 374.377,104.631 361.226,104.285 
	356.034,98.054 351.88,98.054 349.802,100.823 338.38,101.516 299.268,104.977 291.38,102.201 282.308,102.552 277.117,107.053 
	265.695,107.398 262.233,100.13 250.812,108.782 175.009,118.474 153.548,108.782 124.819,103.244 98.514,52.712 90.208,47.863 
	73.246,22.25 64.248,22.25 54.555,5.635 47.288,5.635 29.289,25.714 24.096,24.326 11.636,52.712 7.484,52.712 -3.248,89.399 
	-10.777,97.706 -10.777,310 839.833,310 "/>
<g>
	<circle fill="#66A3AF" cx="153.311" cy="3.94" r="41.921"/>
	<path fill="#A7C34B" d="M153.844,1.375c-0.102,0.183-0.901,0.019-0.476,1.322C153.837,2.689,154.232,1.721,153.844,1.375z
		 M118.266,19.672C118.473,19.668,118.464,19.42,118.266,19.672C118.181,19.672,118.323,19.602,118.266,19.672z M135.891,29.619
		c-2.961-3.389-11.786-1.974-14.134-6.476c-0.82-0.492-4.424,0.681-5.361,0.683c2.651,4.773,13.023,21.441,17.933,12.205
		C135.029,34.71,135.814,31.008,135.891,29.619z M164.206,42.416C165.166,43.672,164.994,42.235,164.206,42.416
		C164.206,42.416,164.368,42.38,164.206,42.416z M119.51-20.707c1.427-0.321-0.436,2.279-0.428,2.375
		c0.568,0.248,0.495-0.189,0.87-0.248c0.039,0.517-0.203,0.467-0.316,0.879c-0.047-0.032,1.027-0.185,0.715,0.232
		c-1.344,0.069-0.611-0.389-0.897-0.657c-1.953,0.131,1.063,4.974,1.474,4.125c0.507,0.271,1.353,6.129,4.446,4.041
		c-0.213,0.144,4.227-10.469,4.186-9.617c1.807-0.689,3.002-1.501,4.6-3.285c-0.066-0.503-2.306,0.201-2.393,0.182
		c0.219-0.037,0.302-0.137-0.107-0.21c0.36-0.642,1.222-0.971,0.23-1.435c0.645,0.457,1.219,1.149,2.173,1.063
		c0.096-0.298,0.089-1.612-0.146-1.909c-0.332,0.053-0.126,0.759-0.507,0.382c0.726-1.346-0.993-0.765-1.56-1.273
		c0.626-0.083,0.539-0.194,1.702,0.003c-0.006,0.011-0.686-1.583-0.755-0.979c0.236-0.044,0.582,0.238,0.421-0.445
		c-0.479-1.014-1.117,0.841-1.017,0.762c-0.676-0.092-0.113-0.214-0.962,0.15c-0.11-0.231,2.481-1.915,2.422-2.949
		c0.061-0.156,0.73-0.288,0.828-0.506c-0.198-0.361-0.965-0.455-0.957-0.571c0.068-0.057,0.415-0.269,0.463-0.184
		c-0.145-0.481-0.835-0.317-1.003-1.093c0.196,0.042,1.021,0.524,1.072,0.324c-0.104-0.636-0.643-1.125-0.374-1.568
		C128.224-30.221,122.645-25.542,119.51-20.707z M131.148-22.774C130.289-22.819,131.228-22.768,131.148-22.774
		C131.009-22.781,131.291-22.764,131.148-22.774z M131.198-24.634c0.558,0.102-0.175,0.608,0.014,1.059
		c0.048-0.019,0.091-0.001,0.12,0.056C130.984-22.502,130.702-25.523,131.198-24.634C131.344-24.607,131.399-24.279,131.198-24.634z
		 M132.673-29.46c0.625-0.372-0.002-0.379,0.616-0.494C133.201-29.074,133.134-29.733,132.673-29.46z M131.746-28.427
		c-0.107-0.409,0.697-0.084,1.135,0.469C132.511-28.109,131.58-28.477,131.746-28.427z M119.197-20.419
		c-0.215,0.301-0.427,0.604-0.635,0.913C118.995-19.439,119.603-20.125,119.197-20.419z M150.591-37.474
		c0.142,0.911,0.698-0.011,0.646-0.458C150.999-37.98,149.742-37.64,150.591-37.474C150.618-37.29,150.459-37.5,150.591-37.474z
		 M195.197,5.782c0.532-12.346-4.547-24.565-13.696-32.867c0.042-0.164-0.662,2.986-0.21,2.906
		c-0.472-1.452-1.803-0.303-2.479-1.129c2.581-1.871,2.698-3.661-1.641-5.22c0.218,1.413,0.486,1.852,1.324,2.923
		c-0.116,0.005-0.153,0.099-0.11,0.283c-0.569-1.754-2.638-1.461-3.979-1.769c-0.121,0.533-0.244,1.865-0.109,2.25
		c0.76-0.072-3.82,0.37-3.224,0.916c0.16-0.285,0.746-1.134,0.607-1.456c-2.145,0.606-2.645,2.668-3.796,3.104
		c-0.498,0.188,0.888-1.87-1.642-1.808c0.109,2.979,0.544,2.966-0.726,5.335c-0.561-0.232-1.329-0.398-1.883-0.428
		c0.196,1.023,0.457,0.672,0.825,1.422c-0.565,0.391-3.378-2.642-3.519-2.934c0.166-0.055,0.262-0.171,0.288-0.35
		c2.309,1.604,4.965,0.668,3.62-2.035c-0.711-1.422-4.837-1.328-5.711-1.691c-0.238-1.113,0.663-0.912-0.978-0.943
		c0.91-1.769-1.262,0.237-0.635,0.288c0.028,0.196-0.041-0.839-0.021-0.868c-1.266-0.187-0.838,1.067-1.767,1.067
		c-0.296-0.27,0.362-0.857-0.555-0.177c0.021,0.134,0.042,0.27,0.062,0.406c-0.099,0.003,0.492-0.181,0.463-0.184
		c-1.49,1.375-0.457,0.73-1.614,0.817c0.028,0.015-3.17,7.936-3.664,9.325c-0.631,1.774-2.422,1.863-1.411,4.211
		c0.601,1.397,1.361,1.761,2.933,0c-0.078,2.938,2.094,3.707,3.305,1.078c1.176-2.551-0.653-3.556,0.189-6.122
		c2.367-7.208,0.891,0.889,1.388,1.886c0.81,1.618,2.606,1.558,3.988,1.065c-1.149,0.702-2.464,3.208-2.205,3.104
		c-0.973-0.391-7.522,7.239-6.559,0.41c1.132-0.129-5.062,10.004-6.186,8.677c1.044,2.352,1.385,1.386,1.032,3.246
		c-0.091,0.47-2.134,0.252-2.356,1.651c-0.16,1.004,0.451,1.951,0.417,2.699c-0.028,0.65,1.153-0.274,1.227,0.341
		c0.141,1.199-0.668,1.512-0.991,2.896c-0.917,3.961-2.797,4.387-1.961,8.345c0.983,4.649,3.327,5.359,8.222,5.195
		c4.528-0.149,4.815-0.932,6.77,3.418c1.315,2.92,1.32,5.111,2.424,8.065c2.141,5.727,6.387,10.878,10.092,1.652
		c1.125-2.802,1.889-5.613,2.465-8.517c0.296-1.488-0.951-2.722-0.454-4.66c-0.328,1.279,5.197-8.001,3.616-7.675
		c-3.63,2.994-8.579-3.213-9.656-6.905c1.518,1.21,5.157,5.292,5.159,5.294c1.127,2.955,2.729,1.273,4.908-0.382
		c4.112-3.124,0.831-2.955,1.252-5.605c-2.728-0.037-1.656,2.617-4.419-1.171c0.455-0.492,9.902,2.112,11.246,2.006
		c-0.202,0.083-0.403,0.166-0.605,0.246c1.047,1.402,1.04,0.52,1.799,0.136c0.11,1.523,2.242,6.469,3.693,6.507
		C192.311,12.16,191.171,7.384,195.197,5.782C195.313,3.071,195.146,5.803,195.197,5.782z M155.77-26.508
		C155.757-27.249,155.719-26.104,155.77-26.508C155.769-26.597,155.754-26.383,155.77-26.508z M169.067-1.473
		c-0.503,1.126-6.245,0.531-7.301,2.946c0.761,2.221,3.969,0.061,5.233,0.552c-0.571,4.618-7.523,4.453-10.38,3.839
		c-2.568-0.552-0.678-1.964-3.345-2.056c-2.34-0.08-4.025,1.769-6.343,1.815c1.993,0.74,3.044-4.992,3.954-5.512
		c3.217-1.838,3.917,1.333,6.217,2.765c-0.553-0.01,1.334-1.961,1.1-1.721c-0.021,0.275-3.765-2.989-3.566-2.967
		c1.747-0.552,4.618,3.492,5.803,4.965c0.138-0.063,0.866-1.04,0.958-1.131c0.019-0.569-1.106-0.75-1.116-1.343
		c-0.018,1.083,2.794-2.946,2.207-2.118c1.167-1.646,0.22-2.562,2.282-2.625c-0.97,1.176,0.97,0.812,1.736,0.714
		c-0.039-0.767-0.937-0.435-0.965-0.871c0,0,1.974-1.083,1.917-1.052c-0.221,0.437-0.978,1.173-0.997,1.629
		C166.262-3.847,170.177-1.835,169.067-1.473C169.024-1.375,169.236-1.529,169.067-1.473z M160.074,2.038
		c0.053-0.096,0.28-0.058,0.403-0.102C160.489,2.169,160.222,1.992,160.074,2.038z M165.321,5.184
		C165.313,5.073,165.332,5.329,165.321,5.184L165.321,5.184z M165.387,5.226C165.39,5.227,165.385,5.226,165.387,5.226
		L165.387,5.226z M134.257-33.244C134.525-33.327,133.966-33.112,134.257-33.244C134.328-33.266,134.157-33.2,134.257-33.244z
		 M134.157-31.185C135.933-29.535,133.572-34.031,134.157-31.185C134.211-31.138,134.146-31.248,134.157-31.185z M114.087-10.52
		c-0.078,0.188,1.035-0.419,0.384-1.328C114.05-11.421,113.918-10.979,114.087-10.52C113.992-10.29,114.11-10.614,114.087-10.52z
		 M113.96-9.629C114.963-10.396,113.625-9.374,113.96-9.629L113.96-9.629z M169.602-32.964c0.123,0.264,0.015,3.366,0.865,2.894
		c-0.459,0.728,0.044-0.602-0.16-0.542c0.212-0.007,1.31,1.549,2.355,0.543c0.174,0.807-2.106-3.989-1.15-3.265
		C170.73-33.928,169.288-33.188,169.602-32.964C169.661-32.836,169.54-33.01,169.602-32.964z M116.054,23.181
		C116.785,24.591,116.487,22.76,116.054,23.181C116.156,23.376,116.281,22.961,116.054,23.181z M118.487,3.481
		c-0.328-0.441-2.163-0.923-2.555-1.346c0.845-1.668-0.647-0.823-1.817-0.021c0.005-1.326,5.073-3.494,5.817-3.476
		c-0.503,0.714-1.041,2.58-0.871,3.163c1.514,0.227,1.545-0.052,2.516-0.352c0.216,0.294,0.031,0.74,0.64,0.698
		c-0.027-0.208-1.525-3.821-2.027-2.336c-0.9-1.854-0.761-2.209-1.961-3.745c-0.114-0.143-3.839-4.083-3.489-4.57
		c-0.837,0.9-1.681,1.656-2.03,1.971c-1.518,5.868-1.736,12.121-0.623,18.079c-0.034-0.679,0.207-1.244-0.152-1.982
		c-0.321,1.096,2.524-3.555,2.66-2.871c0.296-1.129,0.583-2.036,2.183-2.763c-0.406,0.122-1.042,1.203-0.296,1.258
		C116.659,4.982,118.216,3.372,118.487,3.481C118.352,3.302,118.701,3.569,118.487,3.481z M118.316-3
		C118.223-2.829,117.474-2.442,118.316-3C118.316-3,118.15-2.892,118.316-3z M173.315-29.035c0.209,0.646,0.826,0.405,0.855-0.094
		C173.428-30.135,173.142-30.103,173.315-29.035C173.338-28.962,173.057-29.245,173.315-29.035z M168.494-26.927
		c0.025,0.754,0.805,0.175,0.851-0.277C169.489-28.592,167.785-26.857,168.494-26.927C168.501-26.771,168.414-26.919,168.494-26.927
		z M153.076-24.352C155.169-24.399,151.622-26.049,153.076-24.352C153.264-24.355,152.963-24.484,153.076-24.352z M120.08-19.698
		C120.077-20.02,119.61-19.944,120.08-19.698C120.079-19.888,120.08-19.698,120.08-19.698z M133.775-16.557
		c0.438-0.014,1.316-0.215,1.398,0.238c0.011-0.003-1.052,0.054-1.032,0.423c0.549,0.878,0.595-0.032,0.63,0.888
		c8.073,2.516,0.897-7.479,0.736-1.854c-0.044-0.065-0.822-1.64-1.228-0.833C134.481-17.038,133.662-17.25,133.775-16.557z
		 M157.775-13.311C157.617-13.285,157.782-13.73,157.775-13.311C157.934-13.337,157.773-13.225,157.775-13.311z M145.53-3.921
		c5.765-1.531,0.666-4.458-0.56-6.311c0.248-0.324,0.358-0.679,0.325-1.072c-1.844,0.962-0.333,5.901,0.74,6.245
		C145.762-4.507,145.542-3.98,145.53-3.921C145.696-3.965,145.511-3.834,145.53-3.921z M157.444-12.767
		C157.635-12.097,157.205-13.44,157.444-12.767C157.472-12.66,157.355-13.017,157.444-12.767z M143.573-9.975
		C144.684-11.381,142.919-9.933,143.573-9.975C143.65-10.071,143.434-9.967,143.573-9.975z M155.876-11.389
		C155.708-13.328,156.46-11.167,155.876-11.389C155.889-11.24,155.796-11.419,155.876-11.389z M153.159-10.136
		c-0.926,0.516-0.678,0.268-0.178,1.048C153.217-9.148,153.851-10.06,153.159-10.136C153.031-10.065,153.426-10.106,153.159-10.136z
		 M144.724-5.953c2.379-4.578-4.721,1.6-2.121,0.971C142.85-4.198,144.651-5.417,144.724-5.953
		C144.749-6.002,144.711-5.855,144.724-5.953z M116.972,0.537C116.08,0.246,118.558,2.155,116.972,0.537
		C116.863,0.503,116.972,0.537,116.972,0.537z M118.379,2.55C118.03,4.356,118.513,2.147,118.379,2.55
		C118.338,2.767,118.404,2.481,118.379,2.55z M153.421,1.101C154.472,0.049,153.577,0.897,153.421,1.101
		C153.542,0.981,153.331,1.22,153.421,1.101z M156.908,3.589c1.025-1.419-1.604-0.678-1.553-0.519
		C155.837,3.391,156.356,3.562,156.908,3.589C157.055,3.387,156.783,3.61,156.908,3.589z M156.445,4
		C156.941,4.256,156.649,3.857,156.445,4C156.445,4,156.6,3.89,156.445,4z M165.789,3.27C166.844,3.084,165.781,3.281,165.789,3.27
		C166.043,3.225,165.681,3.375,165.789,3.27z M161.208,3.487c-0.13-0.02,0.663,0.321,1.31,0.14
		C162.453,3.652,161.38,3.083,161.208,3.487z M118.031,12.027C117.262,11.971,118.562,12.455,118.031,12.027
		C117.898,12.018,118.055,12.047,118.031,12.027z M175.228,6.54C175.384,7.03,175.304,6.566,175.228,6.54
		C175.228,6.54,175.298,6.564,175.228,6.54z M114.255,19.195C114.52,19.889,114.73,19.237,114.255,19.195
		C114.296,19.297,114.423,19.209,114.255,19.195z M116.708,20.103c0.691,0-1.005-0.776-2.051,0.083
		c0.007,0.002,0.078,0.174,0.073,0.181C114.87,20.325,116.717,19.961,116.708,20.103C116.827,20.103,116.704,20.188,116.708,20.103z
		 M120.094,19.729c-0.063,0.096,0.01,0.253,0.082,0.292C120.444,20.026,120.353,19.609,120.094,19.729z M120.604,20.104
		C121.662,20.781,120.33,19.053,120.604,20.104C120.738,20.189,120.561,19.938,120.604,20.104z M121.199,20.997
		c0.018-0.083,0.075-0.141,0.034-0.27C121.034,20.604,120.932,21.046,121.199,20.997z M139.8,18.458
		C140.191,18.393,139.768,18.277,139.8,18.458C139.8,18.458,139.775,18.308,139.8,18.458z M121.437,21.566
		C121.036,21.661,121.397,21.736,121.437,21.566C121.437,21.566,121.419,21.648,121.437,21.566z M121.532,21.93
		C121.147,21.782,121.359,22.087,121.532,21.93C121.532,21.93,121.452,22.003,121.532,21.93z M121.155,22.668
		C120.976,22.551,121.495,22.629,121.155,22.668C121.26,22.739,121.061,22.679,121.155,22.668z M122.289,23.4
		C122.309,23.255,121.565,23.305,122.289,23.4C122.323,23.13,122.289,23.4,122.289,23.4z M191.91,13.833
		c-0.824-1.629-1.257-0.043-0.872,0.97C191.332,15.524,192.498,13.798,191.91,13.833z M187.754,16.332
		C188.218,16.255,187.493,16.656,187.754,16.332C187.648,16.348,187.867,16.194,187.754,16.332z M156.581,21.497
		C155.339,21.542,157.283,22.186,156.581,21.497C156.395,21.503,156.725,21.64,156.581,21.497z M155.944,22.998
		c-0.089-0.117-0.251-0.012-0.25,0.113C155.754,23.294,156.109,23.147,155.944,22.998z M180.147,21.443
		C179.688,21.713,180.371,21.762,180.147,21.443C180.096,21.473,180.189,21.505,180.147,21.443z M174.871,26.234
		C174.916,26.612,174.279,26.017,174.871,26.234C174.861,26.17,174.981,26.274,174.871,26.234z M177.731,31.998
		c0.375-1.367,0.474-3.335,0.757-4.389c0.228,0.718-0.703-2.763-1.16-1.642C176.006,27.751,173.989,34.947,177.731,31.998z
		 M121.996,21.744c0.033,0.174,0.214,0.24,0.361,0.133C122.49,21.559,122.085,21.535,121.996,21.744z M181.525,29.858
		C181.602,29.991,181.356,29.737,181.525,29.858C181.495,29.809,181.609,29.917,181.525,29.858z M182.164,29.342
		C181.58,29.698,183.132,29.009,182.164,29.342C181.963,29.467,182.28,29.303,182.164,29.342z"/>
	<path opacity="0.5" fill="#66A3AF" d="M194.612-3.241c-3.42-19.674-20.04-33.73-39.179-34.685c0.414,0.355,0.82,0.72,1.208,1.108
		c15.384,17.506,15.913,43.499,6.897,64.186c-3.008,7.072-7.491,13.312-13.011,18.401c3.263,0.215,6.602,0.059,9.964-0.527
		C183.303,41.278,198.58,19.569,194.612-3.241z"/>
</g>
<g>
	<defs>
		<circle id="XMLID_2_" cx="272.815" cy="23.025" r="10.106"/>
	</defs>
	<use xlink:href="#XMLID_2_"  overflow="visible" fill="#CCCBCB"/>
	<clipPath id="XMLID_3_">
		<use xlink:href="#XMLID_2_"  overflow="visible"/>
	</clipPath>
	<g clip-path="url(#XMLID_3_)">
		<path opacity="0.5" fill="#DF7A7C" d="M281.395,30.665c-1.103,1.315-2.665,2.379-4.209,3.114c-1.766,0.837-3.4,0.334-6.403,0.498
			c1.211-0.788,2.778-1.574,3.68-2.723c0.174-0.228,0.329-0.483,0.459-0.752c-0.479-0.147-0.858-0.549-0.958-1.076
			c-0.135-0.754,0.363-1.473,1.115-1.61c0.228-0.041,0.455-0.024,0.66,0.044c0.029-0.136,0.061-0.267,0.089-0.395
			c0.247-1.047,0.448-2.111,0.581-3.185c-0.254-0.188-0.438-0.467-0.496-0.801c-0.106-0.568,0.184-1.119,0.674-1.368
			c0.043-1.144,0.002-2.285-0.143-3.412c-0.02,0.005-0.041,0.012-0.063,0.015c-0.488,0.092-0.955-0.235-1.047-0.726
			c-0.087-0.486,0.239-0.955,0.728-1.045c0.021-0.004,0.041-0.002,0.061-0.004c-0.046-0.196-0.097-0.393-0.152-0.586
			c-0.1,0.049-0.203,0.082-0.317,0.102c-0.694,0.126-1.361-0.334-1.487-1.03c-0.111-0.631,0.254-1.233,0.841-1.437
			c-0.15-0.223-0.372-0.529-0.628-0.875c-0.104,0.097-0.235,0.17-0.384,0.195c-0.414,0.076-0.812-0.2-0.885-0.611
			c-0.061-0.328,0.102-0.641,0.375-0.798c-0.636-0.876-1.185-1.697-1.071-1.886c0.8-1.361,6.396,2.841,7.114,3.578
			c2.234,2.307,3.709,4.74,4.29,7.888C284.413,25.055,283.55,28.087,281.395,30.665z"/>
		<path opacity="0.5" fill="#DF7A7C" d="M275.906,25.441c0.13,0.481-0.15,0.975-0.634,1.107c-0.479,0.129-0.97-0.157-1.103-0.636
			c-0.128-0.48,0.155-0.975,0.634-1.104C275.284,24.683,275.778,24.963,275.906,25.441z"/>
		<path opacity="0.5" fill="#DF7A7C" d="M273.756,28.472c-0.404,0.108-0.825-0.128-0.931-0.537
			c-0.111-0.403,0.128-0.824,0.537-0.931c0.406-0.111,0.822,0.131,0.931,0.534C274.404,27.944,274.162,28.363,273.756,28.472z"/>
		<path opacity="0.5" fill="#DF7A7C" d="M273.836,17.336c0.089,0.334-0.111,0.678-0.44,0.768c-0.333,0.089-0.674-0.107-0.764-0.441
			c-0.089-0.33,0.106-0.674,0.438-0.762C273.403,16.809,273.744,17.008,273.836,17.336z"/>
	</g>
</g>
<g>
	<g>
		<g>
			<path fill="#E94F8C" d="M659.475,48.097c16.878-1.096,21.392-11.662,36.84-19.107c12.88-5.246,25.981-7.117,37.873-11.956
				c11.889-4.844,19.377-14.822,31.669-18.67c-7.339,1.832-14.275,4.658-20.221,7.076c2.941-6.97,10.058-12.184,15.378-18.969
				C752.1-9.9,745.786-2.707,736.869,0.923c1.506-13.317,22.093-25.167,30.975-34.562c-19.631,5.688-32.403,28.213-54.02,34.703
				c-20.624,6.089-44.116,4.833-63.129,14.882c5.211,7.123,15.166,3.496,16.631,15.605c1.834,7.339-6.369,13.418-12.313,15.839"/>
		</g>
		<g>
			<path fill="#317CB4" d="M666.374,43.867c14.997-6.105,22.098-14.376,32.089-19.193c8.328-3.39,16.805-4.599,24.491-7.731
				c7.69-3.133,13.84-6.653,21.789-9.145c-4.748,1.188-10.537,0.083-14.386,1.649c1.9-4.511,4.951-2.519,8.392-6.91
				c-5.767,2.346-8.295,1.643-14.062,3.99c4.381-8.32,6.677-8.693,12.421-14.767c-12.405,5.628-13.343,10.657-27.323,14.857
				c-13.336,3.935-35.979,2.618-48.27,9.118c3.369,4.605,12.418,5.021,13.367,12.854c1.186,4.747-4.253,12.506-8.097,14.072"/>
			<g>
				<path fill="#E94F8C" d="M666.664,44.216c11.711-4.929,20.852-13.569,32.089-19.193c7.08-3.544,15.469-4.232,22.832-7.088
					c7.851-3.045,15.249-7.099,23.269-9.725c0.83-0.271,0.629-0.991-0.221-0.824c-4.318,0.849-8.717,0.417-13.035,1.219
					c-0.71,0.132,3.86-2.799,4.312-3.063c1.404-0.822,2.321-1.65,3.404-2.843c0.528-0.582-0.512-0.64-0.855-0.51
					c-4.593,1.732-9.467,2.256-14.062,3.99c0.313,0.133,0.627,0.265,0.94,0.397c3.234-5.957,7.713-9.865,12.336-14.654
					c0.531-0.551-0.508-0.673-0.855-0.51c-5.27,2.476-9.838,5.743-14.623,9.014c-6.702,4.58-14.453,6.611-22.387,7.734
					c-12.757,1.805-26.801,1.337-38.583,7.228c-0.203,0.102-0.564,0.374-0.345,0.637c2.955,3.53,7.692,4.649,10.996,7.794
					c5.727,5.451,0.483,15.568-5.381,18.495c-0.849,0.424-0.078,1.025,0.58,0.697c6.843-3.416,12.485-14.766,5.207-20.578
					c-1.979-1.581-4.204-2.707-6.401-3.947c-1.15-0.649-2.154-1.393-3.119-2.306c-0.81-0.767,4.659-2.363,4.531-2.322
					c6.681-2.179,13.892-2.779,20.844-3.511c11.865-1.249,23.608-2.315,33.979-8.764c2.275-1.414,4.401-3.07,6.604-4.594
					c1.064-0.736,2.165-1.413,3.271-2.085c1.256-0.74,2.54-1.428,3.852-2.064c-0.544-0.397-0.979-0.132-1.303,0.797
					c-4.147,4.131-7.671,7.626-10.503,12.842c-0.312,0.573,0.678,0.496,0.94,0.397c4.053-1.53,8.389-1.851,12.422-3.372
					c-3,1.132-6.173,3.011-7.692,5.895c-0.245,0.465,0.473,0.553,0.761,0.461c4.047-1.288,8.4-0.823,12.582-1.297
					c0.393-0.044-0.547-0.501-1.902,0.014c-2.087,0.791-4.142,1.639-6.186,2.531c-9.167,4.005-18.016,7.48-27.673,10.17
					c-15.48,4.312-26.54,16.069-41.205,22.241C665.206,43.889,665.996,44.497,666.664,44.216L666.664,44.216z"/>
			</g>
		</g>
	</g>
	<path fill="#97D3E2" d="M677.205,30.771c0,9.792-7.94,17.73-17.729,17.73c-9.792,0-17.73-7.938-17.73-17.73
		s7.938-17.73,17.73-17.73C669.264,13.041,677.205,20.979,677.205,30.771z"/>
</g>
</svg>
