<?xml version="1.0" encoding="utf-8"?>
<!-- Generator: Adobe Illustrator 16.0.0, SVG Export Plug-In . SVG Version: 6.00 Build 0)  -->
<!DOCTYPE svg PUBLIC "-//W3C//DTD SVG 1.1//EN" "http://www.w3.org/Graphics/SVG/1.1/DTD/svg11.dtd">
<svg version="1.1" id="Layer_1" xmlns="http://www.w3.org/2000/svg" xmlns:xlink="http://www.w3.org/1999/xlink" x="0px" y="0px"
	 width="841.891px" height="368px" viewBox="0 0 841.891 368" enable-background="new 0 0 841.891 368" xml:space="preserve">
<rect x="-1" y="-2" fill="#E7315E" width="849.001" height="374"/>
<polygon fill="#AA1F47" points="850.609,221.855 844.123,212.858 833.742,212.858 825.781,221.855 824.396,216.477 821.971,212.858 
	817.471,212.858 812.279,221.855 806.74,212.858 801.896,212.858 793.588,221.855 793.588,226.011 785.629,228.431 780.434,228.431 
	772.129,220.646 732.326,212.858 727.477,204.897 727.477,199.704 722.979,199.704 721.248,191.051 717.096,191.051 
	704.979,208.012 683.865,219.779 549.91,214.59 506.646,191.051 493.146,197.28 474.113,199.706 463.379,187.936 461.303,165.438 
	456.803,165.438 456.803,169.244 454.035,169.244 454.035,155.055 451.264,155.055 442.266,169.592 442.266,178.591 
	437.766,174.783 437.766,170.632 434.998,170.632 434.998,174.439 426.689,182.398 411.115,182.744 389.655,183.438 
	385.153,179.631 372.002,179.285 366.81,173.055 362.656,173.055 360.578,175.823 349.156,176.516 310.044,179.977 302.156,177.201 
	293.085,177.552 287.893,182.053 276.471,182.398 273.009,175.13 261.588,183.782 185.785,193.474 164.324,183.782 135.595,178.244 
	109.291,127.712 100.984,122.863 84.022,97.25 75.024,97.25 65.332,80.635 58.065,80.635 40.065,100.714 34.873,99.326 
	22.412,127.712 18.26,127.712 7.528,164.398 0,172.706 0,385 850.609,385 "/>
<path fill="#7A1537" d="M871.012,252.602l-11.778-2.754l-13.307,2.754l-16.979-2.754l-14.227,1.381l-6.423-3.217l-57.357-3.889
	l-8.261-4.372l-27.531-4.586l-7.802,6.881l-9.178,1.836l-10.094-5.505L680.274,237l-7.803,3.67l-11.931-2.753l-71.125-51.394
	l-6.425,7.801v-4.588l-5.507,4.588l-4.59-3.211l-11.928-1.377l-4.591,2.755l-33.04-14.687H498.56h-9.176l-6.887,2.296l-9.637-6.882
	h-8.72l-7.341,7.799l-6.423-1.376l-3.673,3.669l-6.424-4.127l-19.731,14.225l-5.964-3.67l-4.591,3.211l-19.271-0.917l-10.098,3.669
	l-9.176,1.379l-12.848,11.932h-8.26l-6.425,3.896h-13.307l-10.096-6.652l-11.933,12.852l-9.176,1.373l-6.425-2.754l-7.342-4.816
	l-17.438,4.816l-11.931,8.262l-3.67-3.672l-5.966,0.461l-14.226,13.307l-7.341-9.635c0,0-10.096-13.309-11.93-13.539
	c-1.836-0.229-24.778,10.785-24.778,10.785l-11.015,15.144L167.713,237l-10.553,13.77l-10.555,1.834l-24.778,12.389l-9.636,2.294
	l-5.966,4.13l-5.975,11.904l-7.985-7.688l-10.16-14.813l-14.518,7.258l-8.71,7.558l-9.438-14.086l-5.807-8.713l-18.87,6.534
	l-7.26-10.889L0,265.898v187.994h871.012V252.602L871.012,252.602z"/>
<g>
	<path fill="#745948" d="M-23.29,309.453l13.129,46.293H3.756c0,0,8.855,12.945,8.855,15.886c0,2.944,12.683,4.707,12.683,4.707
		l9.856,3.325l12.367,2.345l10.854-5.67h13.706c0,0,12.651,21.772,13.073,23.539c0.422,1.769,7.592,24.125,8.855,24.717
		c1.267,0.588,36.037-23.539,36.037-23.539l33.552,14.235l17.713,16.361l6.325,14.711l12.113,14.713l18.113-8.219
		c0,0,28.214,8.809,30.323,8.219c2.108-0.588,31.896-19.776,31.896-19.776l43.318-36.813l44.499,4.396
		c0,0,28.496-29.988,31.449-30.97c2.952-0.979,35.426,3.332,38.377,0c2.953-3.334,16.448-41.584,16.448-41.584l23.616-14.123
		l23.03-22.389L-23.29,309.453z"/>
	<path fill="#8B6B55" d="M217.862,452.857c0,0-7.416-54.361-7.812-52.822s-18.126-14.01-18.483-12.752
		c-0.357,1.256-24.3,6.672-24.3,6.672s-12.826,18.772-11.543,17.582c1.282-1.19,15.817,36,15.817,36l32.491,16.507L217.862,452.857z
		"/>
	<polygon fill="#8B6B55" points="238.767,363.527 239.498,381.391 244.175,418.033 244.175,444.33 247.506,459.55 258.463,438.35 
		262.264,414.623 257.75,367.177 	"/>
	<path fill="#745948" d="M329.603,309.453l13.128,46.293h13.917c0,0,8.856,12.945,8.856,15.886c0,2.944,12.683,4.707,12.683,4.707
		l9.857,3.325l12.367,2.345l10.854-5.67h13.706c0,0,12.65,21.772,13.073,23.539c0.422,1.769,7.592,24.125,8.854,24.717
		c1.269,0.588,36.035-23.539,36.035-23.539l33.553,14.235l17.713,16.361l6.326,14.711l12.112,14.713l18.112-8.219
		c0,0,31.462,19.358,33.567,18.771c2.108-0.589,24.824-40.281,24.824-40.281l17.33-23.428l74.313,0.959
		c0,0,28.496-29.99,31.447-30.972c2.951-0.979,35.428,3.334,38.381,0c2.949-3.334,16.444-41.582,16.444-41.582l23.618-14.123
		l23.03-22.391L329.603,309.453z"/>
	<path fill="#8B6B55" d="M720.794,408.88c0,0-4.896-39.748-6.347-39.563c-1.448,0.182-38.969,2.354-39.691,2.719
		c-0.727,0.361-10.149,31.175-10.149,31.175l8.699,14.502c0,0,12.508,4.696,13.052,4.887c0.543,0.188,18.85-5.433,18.85-5.433
		L720.794,408.88z"/>
	<polygon fill="#8B6B55" points="604.322,471.632 591.658,387.283 545.422,387.283 526.257,401.537 540.509,461.105 
		569.649,475.145 	"/>
	<polygon fill="#8B6B55" points="-5.771,315.619 23.082,364.525 34.418,370.104 40.429,405.878 94.009,424.594 106.458,376.568 
		100.842,333.846 	"/>
	<polygon fill="#8B6B55" points="418.514,381.145 415.569,440.771 447.946,459.68 475.908,456.77 493.535,443.88 552.642,461.076 
		550.965,396.416 	"/>
	<path fill="#B38A6D" d="M-84.169,289.643l25.064,58.783h26.569c0,0,16.909,16.438,16.909,20.176c0,3.731,24.211,5.976,24.211,5.976
		l18.819,4.222l23.61,2.978l20.72-7.195H97.9c0,0,24.155,27.646,24.96,29.89c0.806,2.239,14.494,30.638,16.909,31.383
		c2.416,0.748,68.799-29.887,68.799-29.887l64.053,18.075l33.817,20.775l12.077,18.682l23.126,18.687l34.584-10.438
		c0,0,53.864,11.187,57.89,10.438c4.024-0.747,60.897-25.116,60.897-25.116l82.701-46.748l84.956,5.584
		c0,0,54.402-38.084,60.04-39.328c5.635-1.246,67.634,4.231,73.271,0c5.637-4.233,31.401-52.803,31.401-52.803l45.089-17.938
		l43.969-28.43L-84.169,289.643z"/>
	<polygon fill="#A68165" points="795.983,376.568 790.484,341.824 795.983,331.232 793.233,293.781 816.919,293.781 
		822.312,314.125 830.779,314.125 827.387,323.766 	"/>
	<polygon fill="#A68165" points="-32.99,296.062 -32.534,348.427 -16.21,374.576 8.586,374.576 -4.772,358.447 -3.142,324.65 
		-4.487,298.396 	"/>
	<polygon fill="#AA8468" points="323.388,308.992 326.519,399.238 340.636,424.613 352.449,478.919 350.073,385.402 
		358.957,376.568 346.962,308.992 	"/>
	<path fill="#A68165" d="M238.767,288.564l8.792,57.438l15.387,9.807v18.214l9.444,50.594c0,0,1.384-85.617,0-87.719
		c-1.386-2.103-12.375-9.104-13.108-11.207c-0.731-2.103-3.396-40.628-3.396-40.628L238.767,288.564z"/>
	<polygon fill="#A68165" points="596.318,289.99 584.597,366.07 584.597,379.809 577.719,410.314 596.318,411.537 596.318,350.764 
		605.601,289.99 	"/>
	<polygon fill="#A68165" points="662.676,415.896 656.054,296.293 726.007,293.781 730.4,330.617 714.812,338.322 722.716,376.568 	
		"/>
	<polygon fill="#A68165" points="138.746,438.262 120.462,401.128 97.903,374.576 87.344,296.062 108.348,308.992 208.571,299.662 
		206.465,327.729 202.863,379.809 208.571,405.962 	"/>
	<path fill="#9A765E" d="M127.396,306.878l2.932,47.961l10.989,6.603v25.217l-1.546,49.19l13.465-75.108
		c0,0-7.522-14.01-7.522-16.11c0-2.1,1.466-42.729,1.466-42.729L127.396,306.878z"/>
	<polygon fill="#9A765E" points="669.59,293.781 684.598,401.537 690.11,398.395 685.133,364.781 690.11,357.003 685.781,314.125 
		683.246,295.316 	"/>
	<polygon fill="#A68165" points="383.351,308.992 389.212,368.873 398.981,424.613 376.229,471.74 434.119,482.18 449.78,431.348 
		460.526,368.873 472.251,301.898 	"/>
	<polygon fill="#A68165" points="51.017,381.771 46.896,360.527 51.017,346.744 43.019,307.031 62.125,307.031 62.125,347.658 
		54.511,350.764 55.599,363.646 	"/>
	<polygon fill="#AA8468" points="540.509,296.639 540.509,347.658 547.474,368.873 540.509,431.348 561.403,419.535 555.289,330.4 
		561.403,299.662 	"/>
	<path fill="#AA8468" d="M452.148,475.145c0,0,20.103-61.856,20.103-63.606c0-1.752,0-36.961,0-36.961l12.493-70.916l34.502-4.244
		l-41.135,125.197l-5.861,19.729l-12.095,27.479L452.148,475.145z"/>
	<polygon fill="#AA8468" points="630.207,413.764 629.146,300.58 643.396,301.898 644.503,414.703 	"/>
	<polygon fill="#AA8468" points="756.315,296.639 756.315,335.177 769.218,357.643 768.22,378.007 788.119,378.007 777.673,338.177 
		784.77,314.125 782.36,296.639 	"/>
	<path fill="#CFA07E" d="M-7.852,273.904l76.77-6.926l190.824-8.968l113.528,4.483c0,0,88.826-4.483,92.595-4.483
		c3.771,0,119.388-5.081,119.388-5.081L705.001,261c0,0,131.776,6.229,134.604,5.354c2.825-0.873,76.839,11.047,76.839,11.047
		l-97.987,20.111l-215.764,3.497c0,0-58.416-5.245-62.186-4.37c-3.771,0.873-100.815,12.24-109.295,13.988
		c-8.479,1.747-65.956,3.497-72.551,3.497c-6.596,0-50.879-1.75-50.879-1.75s-69.723-11.365-75.375-10.49
		c-5.653,0.873-97.046,5.245-107.409,6.995c-10.364,1.747-138.503-4.374-144.155-4.374c-5.654,0-65.013-14.862-65.013-14.862
		L-7.852,273.904z"/>
	<path fill="#DCAB85" d="M916.442,277.402c0,0-22.782-3.67-43.553-6.789c-27.406,3.537-64.464,7.562-86.104,6.789
		c-37.42-1.34-56.797-11.062-131.636-6.293c-74.838,4.768-137.575-11.297-162.168-8.619c-208.168,22.67-157.042,1.104-196.468-0.303
		c-34.747-1.24-137.837,7.875-193.967,10.354c-33.626,1.488-85.95,2.938-122.507,3.861l-33.96,7.002
		c29.91,3.084,77.363,7.769,101.007,8.998c36.083,1.879,56.798-6.219,88.203-8.877c31.404-2.662,64.008-1.836,106.773,4.363
		c42.766,6.201,111.602,10.246,185.105,8.146c73.502-2.1,211.273-19.773,235.503-18.635c24.229,1.141,68.65,1.34,112.085,3.82
		c32.646,1.863,103.803-1.232,137.129-2.889L916.442,277.402z"/>
	<polygon fill="#C29477" points="656.054,265.604 694.369,163.598 725.731,153.945 777.703,160.78 783.757,207.275 822.312,269.805 
		756.384,277.402 691.617,273.824 	"/>
	<path fill="#CFA07E" d="M656.054,265.604l35.562,8.222l19.694,1.088l4.933-11.998c0,0,2.485-13.076,2.798-13.967
		c0.312-0.892-0.62-15.453,1.52-16.938c2.142-1.484,11.538-16.332,11.538-16.332l18.11-16.062l-4.123-13.078l-19.443-32.472
		l-0.909-0.12l-31.363,9.655L656.054,265.604z"/>
	<polygon fill="#C29477" points="678.992,270.904 714.812,161.904 696.901,225.244 699.905,230.787 689.969,274.07 	"/>
	<polygon fill="#CFA07E" points="760.164,158.472 767.542,217.986 773.891,222.342 775.549,235.012 781.062,274.557 
		790.484,273.471 777.703,208.354 772.233,197.27 767.542,190.672 	"/>
	<path opacity="0.4" fill="#B38A6D" enable-background="new    " d="M177.915,420.143l-4.89-51.271c0,0,5.678-5.731,4.896-8.684
		c-0.781-2.952-9.011-53.158-9.011-53.158l12.34-2.021c0,0,5.149,65.756,4.637,69.563c-0.515,3.812,7.069,38.606,7.069,38.606
		L177.915,420.143z"/>
	<polygon fill="#CFA07E" points="91.161,267.922 123.895,237.309 159.359,228.805 179.246,202.441 217.923,187.984 234.23,203.291 
		270.571,227.953 308.36,239.859 317.257,267.922 230.524,277.402 168.256,277.402 	"/>
	<polygon fill="#C29477" points="195.351,240.709 173.444,264.521 173.444,277.402 230.524,277.402 317.257,267.922 308.36,239.859 
		270.571,227.953 234.23,203.291 217.923,187.984 211.456,215.443 	"/>
	<g>
		<path fill="#C29477" d="M293.963,271.871l6.662-19.973l7.221-8.711l15.988-10.143l23.694,3.57l10.177,10.92l0.782,21.779
			c0,0-31.358,4.578-31.502,4.611C326.841,273.961,293.963,271.871,293.963,271.871z"/>
		<path fill="#CFA07E" d="M300.625,251.898l-6.662,19.973c0,0,32.881,2.092,33.023,2.059c0.039-0.01,2.334-0.348,5.67-0.836
			l-3.186-11.18l0.749-5.361l-0.749-10.078l0.651-6.9l-6.289-6.527l-15.989,10.145L300.625,251.898z"/>
		<polygon fill="#C29477" points="313.31,273.096 318.484,265.23 321.313,253.488 326.226,237.416 316.157,261.549 313.31,263.51 
			308.529,272.793 		"/>
	</g>
	<g>
		<path fill="#C29477" d="M-18.392,282.279l2.449-8.248l2.651-3.596l5.876-4.189l8.707,1.475l3.738,4.512l0.288,8.992
			c0,0-11.521,1.891-11.574,1.902C-6.31,283.143-18.392,282.279-18.392,282.279z"/>
		<path fill="#CFA07E" d="M-15.942,274.031l-2.449,8.248c0,0,12.082,0.863,12.136,0.85c0.014-0.004,0.856-0.145,2.083-0.346
			l-1.171-4.615l0.274-2.217l-0.274-4.16l0.24-2.85l-2.312-2.695l-5.876,4.189L-15.942,274.031z"/>
	</g>
	<g>
		<path fill="#C29477" d="M808.923,271.338l1.958-15.547l2.117-6.779l4.697-7.896l6.963,2.779l2.986,8.5l0.229,16.953
			c0,0-9.211,3.562-9.254,3.59C818.58,272.966,808.923,271.338,808.923,271.338z"/>
		<path fill="#CFA07E" d="M810.881,255.791l-1.958,15.547c0,0,9.657,1.628,9.7,1.604c0.012-0.008,0.687-0.271,1.666-0.65
			l-0.938-8.703l0.222-4.174l-0.222-7.846l0.19-5.371l-1.849-5.082l-4.696,7.896L810.881,255.791z"/>
	</g>
	<g>
		<path fill="#C29477" d="M74.244,273.75l3.965-11.895l4.295-5.189l9.516-6.041l14.1,2.125l6.055,6.507l0.467,12.976
			c0,0-18.659,2.727-18.745,2.748C93.809,274.998,74.244,273.75,74.244,273.75z"/>
		<path fill="#CFA07E" d="M78.209,261.855l-3.965,11.895c0,0,19.564,1.248,19.649,1.229c0.022-0.006,1.391-0.207,3.374-0.5
			l-1.896-6.658l0.444-3.192l-0.444-6.004l0.388-4.11l-3.741-3.888l-9.516,6.041L78.209,261.855z"/>
	</g>
	<g>
		<path fill="#C29477" d="M590.091,258.441l4.709-9.812l5.103-4.275l11.301-4.98l16.744,1.754l7.19,5.363l0.554,10.697
			c0,0-22.159,2.248-22.262,2.264C613.326,259.469,590.091,258.441,590.091,258.441z"/>
		<path fill="#CFA07E" d="M594.8,248.633l-4.709,9.811c0,0,23.235,1.027,23.339,1.01c0.025-0.004,1.648-0.168,4.005-0.41
			l-2.25-5.486l0.529-2.637l-0.529-4.947l0.462-3.393l-4.443-3.203l-11.301,4.98L594.8,248.633z"/>
	</g>
	<g>
		<path fill="#C29477" d="M643.758,273.82l4-13.113l4.334-5.719l9.602-6.658l14.228,2.344l6.108,7.172l0.474,14.299
			c0,0-18.828,3.006-18.916,3.025C663.498,275.193,643.758,273.82,643.758,273.82z"/>
		<path fill="#CFA07E" d="M647.758,260.705l-4,13.113c0,0,19.741,1.373,19.827,1.35c0.022-0.004,1.4-0.227,3.402-0.547l-1.911-7.338
			l0.449-3.521l-0.449-6.615l0.392-4.531l-3.774-4.285l-9.602,6.658L647.758,260.705z"/>
	</g>
	<g>
		<path fill="#C29477" d="M572.027,258.719l2.737-6.791l2.966-2.963l6.571-3.445l9.735,1.213l4.182,3.713l0.322,7.404
			c0,0-12.887,1.558-12.945,1.567C585.539,259.43,572.027,258.719,572.027,258.719z"/>
		<path fill="#CFA07E" d="M574.767,251.93l-2.737,6.791c0,0,13.511,0.709,13.568,0.698c0.018-0.004,0.961-0.118,2.331-0.282
			l-1.311-3.804l0.309-1.821l-0.309-3.427l0.269-2.349l-2.583-2.219l-6.57,3.446L574.767,251.93z"/>
	</g>
	<polygon fill="#C29477" points="126.811,272.307 136.819,255.555 171.597,244.852 174.842,229.262 202.144,193.883 
		167.341,233.678 166.932,240.473 119.332,255.57 110.753,270.332 	"/>
	<polygon fill="#CFA07E" points="230.524,277.402 236.483,253.609 226.518,240.716 221.004,193.883 231.606,241.934 
		249.844,253.852 248.146,275.26 	"/>
	<ellipse fill="#B0866B" cx="-35.873" cy="294.776" rx="5.095" ry="1.358"/>
	<ellipse fill="#B0866B" cx="134.199" cy="292.87" rx="3.889" ry="0.712"/>
	<ellipse fill="#B0866B" cx="147.941" cy="286.679" rx="6.231" ry="1.386"/>
	<ellipse fill="#B0866B" cx="184.539" cy="283.568" rx="8.49" ry="1.018"/>
	<ellipse fill="#B0866B" cx="581.189" cy="271.001" rx="10.527" ry="2.718"/>
	<ellipse fill="#B0866B" cx="438.574" cy="272.699" rx="6.452" ry="1.697"/>
	<ellipse fill="#B0866B" cx="493.594" cy="275.078" rx="6.453" ry="1.357"/>
	<ellipse fill="#B0866B" cx="540.801" cy="274.398" rx="0" ry="4.075"/>
	<ellipse fill="#B0866B" cx="708.232" cy="288.661" rx="9.17" ry="2.038"/>
	<ellipse fill="#B0866B" cx="340.023" cy="304.451" rx="9.17" ry="2.037"/>
	<ellipse fill="#B0866B" cx="568.164" cy="285.782" rx="6.334" ry="1.409"/>
	<ellipse fill="#B0866B" cx="415.128" cy="265.105" rx="5.271" ry="1.172"/>
	<ellipse fill="#B0866B" cx="59.899" cy="278.474" rx="6.792" ry="2.037"/>
	<ellipse fill="#B0866B" cx="160.767" cy="298.512" rx="5.772" ry="1.697"/>
	<ellipse fill="#B0866B" cx="651.062" cy="286.825" rx="5.794" ry="1.933"/>
	<ellipse fill="#B0866B" cx="820.042" cy="281.533" rx="4.731" ry="1.578"/>
</g>
<g>
	<path fill="#FBFDFF" d="M656.892,219.434c0,0-15.432,11.948-16.527,18.535c-1.095,6.586,7.479,12.991,8.266,14.239
		c0.785,1.246-5.938,14.419-13.346,14.419c-7.407,0-20.045-9.792-22.894-20.824c-2.85-11.035,1.652-23.054,14.283-31.703
		C639.302,205.454,656.718,215.143,656.892,219.434"/>
	<path fill="#A3B7C9" d="M625.562,235.122c0,0,12.814-0.711,16.284,1.067c0,0,0.638,3.951-1.238,5.271
		c0,0-10.419,4.381-12.021,3.381C626.984,243.844,625.562,235.122,625.562,235.122"/>
	<path fill="#BCCCD9" d="M616.662,231.917c5.874-1.158,15.13,0.535,15.843,8.365c0.711,7.833-8.901,10.147-12.104,10.858
		c-3.202,0.713-9.434-0.354-11.033-7.3C607.762,236.9,613.771,232.488,616.662,231.917"/>
	<path fill="#BCCCD9" d="M626.991,263.859c0,0,12.684-1.227,17.641-15.784c0,0,17.381,17.755,21.475,22.202
		c4.094,4.451-15.88,6.14-18.552,5.25C644.88,274.637,628.879,265.064,626.991,263.859"/>
	<path fill="#BCCCD9" d="M654.396,268.613c-10.324,1.039-19.741,8.337-20.641,10.828c-0.897,2.492,2.187,5.873,6.605,6.94
		c4.421,1.067,29.359-5.312,30.419-8.885c1.059-3.573-3.117-6.628-5.351-8.696C663.197,266.732,654.396,268.613,654.396,268.613"/>
	<path fill="#586E7D" d="M642.934,272.445c0,0,0.287-0.188,0.775-0.518c0.496-0.318,1.23-0.753,2.161-1.174
		c0.46-0.219,0.969-0.438,1.521-0.638c0.548-0.212,1.134-0.404,1.749-0.584c0.618-0.157,1.258-0.335,1.919-0.462
		c0.659-0.141,1.34-0.223,2.015-0.326c0.683-0.051,1.364-0.122,2.037-0.139c0.672-0.041,1.334-0.002,1.975,0.021
		c0.64,0.044,1.255,0.082,1.836,0.181c0.581,0.077,1.128,0.168,1.623,0.291c1,0.206,1.812,0.475,2.366,0.68
		c0.553,0.218,0.869,0.345,0.869,0.345s-0.34-0.013-0.93-0.031c-0.59-0.03-1.425-0.062-2.414-0.084
		c-0.5-0.006-1.034-0.012-1.596-0.019c-0.565,0.007-1.161,0.02-1.771,0.027c-0.612,0.032-1.243,0.066-1.886,0.103
		c-0.644,0.024-1.291,0.104-1.938,0.167c-0.646,0.08-1.296,0.144-1.931,0.258c-0.638,0.072-1.259,0.199-1.86,0.304
		c-0.597,0.144-1.19,0.22-1.737,0.361c-0.548,0.131-1.075,0.235-1.554,0.368C644.259,272.091,642.934,272.445,642.934,272.445"/>
	<path fill="#FBFDFF" d="M607.406,180.653c0,0-0.356,12.461-15.664,16.199c-15.309,3.738-6.586,19.209-5.163,19.932
		c1.425,0.716,17.622,9.438,34.71-9.25C638.378,188.844,612.061,177.759,607.406,180.653"/>
	<path fill="#8396A5" d="M608.133,187.271c0,0,2.359,9.549,10.609,19.976c0,0-14.254-9.165-16.069-18.833
		C600.854,178.743,606.911,183.599,608.133,187.271"/>
	<path fill="#BCCCD9" d="M585.69,219.434c0,0,8.076-3.715,9.2-12.613c1.122-8.898-1.902-12.282-2.973-12.461
		c-1.066-0.176-10.146,0.358-11.747-0.889c0,0,0.712-4.984-1.603-9.257c-2.312-4.272-7.831-4.831-9.97-4.018
		c-2.136,0.812,0.18,3.709,2.67,6.087c2.492,2.38,1.957,6.297,1.957,6.297s-6.051-9.971-12.991-8.19
		c-6.942,1.78-0.714,5.875,1.423,6.766c2.136,0.89,4.272,4.449,4.272,4.449s-6.056-2.491-9.79-1.067
		c-3.739,1.426-3.383,4.147-2.136,5.276c1.244,1.133,6.94,0.598,8.007,1.311c1.068,0.711,4.066,7.697,5.638,8.721
		c2.73,1.78,6.487,0,6.487,0S578.392,217.456,585.69,219.434"/>
	<path fill="#586E7D" d="M575.365,193.646c0,0-1.533,0.432-3.712,1.207c-0.547,0.194-1.119,0.438-1.702,0.705
		c-0.575,0.26-1.164,0.633-1.523,1.019c-0.123,0.169-0.259,0.394-0.271,0.647c-0.024,0.239-0.005,0.49,0.109,0.754
		c0.197,0.531,0.648,1.067,1.182,1.5c0.252,0.217,0.556,0.43,0.797,0.547c0.135,0.082,0.493,0.119,0.846,0.139
		c0.369,0.016,0.688,0.02,1.121,0.01c0.733-0.018,1.446-0.062,2.176-0.131c0.779-0.062,1.581-0.163,2.005-0.141
		c-0.894,0.662-1.779,1.271-2.29,1.707c-0.271,0.24-0.535,0.473-0.696,0.688l-0.184,0.235l-0.115,0.175
		c-0.152,0.226-0.271,0.457-0.341,0.688c-0.312,0.927,0.188,1.815,0.633,2.297c0.19,0.279,0.418,0.435,0.539,0.572
		c0.135,0.129,0.204,0.195,0.204,0.195s-0.086-0.044-0.251-0.129c-0.156-0.096-0.43-0.186-0.709-0.402
		c-0.295-0.201-0.634-0.49-0.934-0.938c-0.301-0.442-0.479-1.1-0.379-1.787c0.037-0.346,0.149-0.689,0.306-1.012l0.12-0.245
		c0.021-0.044,0.047-0.078,0.068-0.118l0.023-0.047l0.049-0.104c0.014-0.039,0.024-0.072,0.04-0.113
		c0.042-0.033-0.13,0.027-0.158,0.031c-0.061,0.018-0.094,0.036-0.117,0.047c-0.321,0.025-0.77,0.043-1.169,0.027
		c-0.412-0.029-0.854-0.008-1.431-0.26c-0.462-0.221-0.801-0.467-1.146-0.749c-0.662-0.574-1.268-1.265-1.599-2.188
		c-0.322-0.947-0.147-2.088,0.592-2.824c0.688-0.651,1.415-0.904,2.078-1.146c0.666-0.232,1.306-0.376,1.895-0.488
		c1.179-0.229,2.168-0.309,2.859-0.345C574.969,193.636,575.365,193.646,575.365,193.646"/>
	<path fill="#DBDBDB" d="M684.303,144.341c0,0,11.033-8.903,21.001-1.961c9.97,6.945,11.393,22.289,2.604,29.372
		c-9.809,7.907-23.583,5.979-40.678,17.416c-17.094,11.441,0.693-0.682,0.693-0.682l-5.056-4.085c0,0,4.948-2.857,11.941-5.438
		c6.995-2.584,23.421-6.403,28.852-10.063c6.271-4.231,4.847-16.687-1.562-22.058c-5.968-5.001-19.938,5.371-19.938,5.371
		L684.303,144.341z"/>
	<path fill="#FFFFFF" d="M632.54,106.962c0,0,4.788-3.561,6.382-3.561c1.592,0,12.938,10.909,13.317,13.107
		c0.377,2.2-1.25,9.678-1.25,9.678s41.144,56.417,42.212,59.001c0,0-2.188,2.979-4.521,5.037
		c-2.333,2.055-44.403-48.729-44.507-50.154C644.072,138.645,632.54,106.962,632.54,106.962"/>
	<path fill="#92A2B0" d="M584.621,157.285c0,0-8.62-8.899-9.256-11.244c0,0,53.477-38.368,57.175-39.079
		c0,0,12.828,10.906,13.782,13.284c0.955,2.381-2.146,8.424-2.146,8.424s44.613,59.732,44.505,61.557
		c-0.106,1.819-44.505,29.008-44.505,29.008L584.621,157.285z"/>
	<path fill="#BCCCD9" d="M715.271,209.139c0,0,8.367-0.35,11.393,0c3.026,0.35,7.478,2.485,9.435,0.705
		c1.959-1.777,2.137-8.365-6.406-13.172c-8.543-4.806-21.182-6.763-22.783-6.406c-1.604,0.354-3.537,3.252-3.205,5.875
		C704.037,198.764,715.271,209.139,715.271,209.139"/>
	<path fill="#BCCCD9" d="M697.296,197.505c0,0,15.703,6.453,13.104,19.274c0,0,6.652-6.213,7.544-7.643
		c0.892-1.429,1.663-9.793-4.952-14.421c-6.617-4.63-10.178-1.426-12.312,0C698.542,196.141,697.296,197.505,697.296,197.505"/>
	<path fill="#FBFDFF" d="M657.779,219.434c0,0,18.869,8.565,35.956,6.256c17.089-2.315,19.579-14.051,19.225-16.551
		c-0.357-2.498-8.011-12.109-13.173-11.752c-5.163,0.354-5.875,3.023-16.555-2.314c-10.681-5.338-13.127-7.049-15.308-6.586
		C665.745,188.947,649.946,209.979,657.779,219.434"/>
	<path fill="#A3B7C9" d="M696.585,214.115c0,0,0.328-9.703-5.801-16.065c0,0,1.525-1.364,3.84,0.229c0,0,6.245,4.279,7.478,14.414
		L696.585,214.115z"/>
	<path fill="#BCCCD9" d="M697.828,210.626c-5.004,0.451-11.391,8.118-8.363,13.815c3.023,5.695,11.568,2.929,13.35,1.642
		c1.778-1.286,6.053-5.216,5.519-9.304C707.797,212.691,702.99,210.16,697.828,210.626"/>
	<path fill="#586E7D" d="M706.923,194.09c0,0,0.291,0.074,0.784,0.197c0.497,0.135,1.205,0.37,2.003,0.768
		c0.403,0.187,0.83,0.411,1.267,0.686c0.439,0.261,0.885,0.57,1.333,0.91c0.43,0.355,0.889,0.715,1.31,1.127
		c0.433,0.402,0.821,0.859,1.228,1.302c0.361,0.479,0.743,0.942,1.062,1.438c0.349,0.478,0.607,0.998,0.88,1.488
		c0.244,0.508,0.488,0.988,0.653,1.477c0.188,0.479,0.343,0.938,0.441,1.373c0.244,0.855,0.337,1.599,0.377,2.115
		c0.024,0.514,0.039,0.812,0.039,0.812s-0.126-0.269-0.349-0.729c-0.21-0.462-0.522-1.109-0.92-1.863
		c-0.192-0.379-0.424-0.773-0.66-1.194c-0.232-0.423-0.523-0.841-0.785-1.29c-0.301-0.434-0.596-0.882-0.922-1.321
		c-0.305-0.452-0.667-0.878-1.011-1.312c-0.361-0.418-0.709-0.854-1.099-1.239c-0.357-0.414-0.756-0.784-1.125-1.151
		c-0.398-0.339-0.744-0.717-1.123-1.017c-0.373-0.308-0.716-0.615-1.06-0.867c-0.667-0.526-1.253-0.946-1.671-1.235
		C707.167,194.264,706.923,194.09,706.923,194.09"/>
	<path fill="#FBFDFF" d="M626.675,215.564c0,0,5.295,6.205,18.823,7.809c13.527,1.604,26.345-9.609,28.479-12.639
		c2.137-3.024,2.319-15.842-4.27-22.782C663.119,181.008,626.675,215.564,626.675,215.564"/>
	<path fill="#8396A5" d="M624.729,215.279c0,0,18.586,4.804,25.462,9.875c0,0,3.806-0.152,3.339-2.213
		C653.062,220.88,635.507,210.379,624.729,215.279"/>
	<path fill="#8396A5" d="M671.979,189.413c0,0-14.519,18.126-9.106,32.006c0,0-10.854,1.558-6.908-15.233
		C658.402,195.799,670.24,188.582,671.979,189.413"/>
	<path fill="#FBFDFF" d="M608.133,182.434c0,0,3.989,26.035,18.542,33.132c14.552,7.095,43.39-18.896,43.029-26.371
		c-0.354-7.475-18.332-32.76-27.856-33.646C632.325,154.665,609.217,167.483,608.133,182.434"/>
	<path fill="#A3B7C9" d="M624.324,214.195c0,0,22.188,1.337,44.285-29.008c0,0,3.548,1.195,3.367,4.226
		c-0.179,3.024-10.46,13.845-20.604,21.321c-10.146,7.479-23.66,7.3-24.381,6.943C626.273,217.32,624.865,216.23,624.324,214.195"/>
	<path fill="#CADDEA" d="M637.664,209.844c0,0,3.41,7.105,6.512,6.938c3.103-0.174,12.895-6.116,12.713-8.182
		c-0.179-2.062-3.736-6.901-4.983-7.102C650.659,201.303,638.003,208.277,637.664,209.844"/>
	<path fill="#A3B7C9" d="M616.662,189.91c0,0,17.104-12.813,22.26-14.597c0,0,13.696,17.442,15.477,20.292
		c0,0-20.291,13.881-23.496,14.238C630.9,209.844,618.086,193.469,616.662,189.91"/>
	<path fill="#FBFDFF" d="M618.227,190.131c0,0,15.688-11.751,20.413-13.385c0,0,12.559,15.994,14.192,18.607
		c0,0-18.607,12.73-21.548,13.059C631.285,208.412,619.533,193.395,618.227,190.131"/>
	<path fill="#38546D" d="M622.356,190.286c0,0,4.628-3.106,5.52-3.257c0,0,10.521,13.591,11.046,14.468c0,0-4.398,2.373-5.317,3.046
		C632.682,205.219,622.356,190.286,622.356,190.286"/>
	<path fill="#38546D" d="M637.664,183.68c0,1.313-1.065,2.38-2.381,2.38c-1.316,0-2.384-1.066-2.384-2.38
		c0-1.318,1.066-2.384,2.384-2.384C636.598,181.297,637.664,182.362,637.664,183.68"/>
	<path fill="#38546D" d="M641.304,189.413c0,1.313-1.066,2.381-2.383,2.381c-1.315,0-2.384-1.065-2.384-2.381
		s1.066-2.384,2.384-2.384C640.236,187.027,641.304,188.096,641.304,189.413"/>
	<path fill="#38546D" d="M646.068,195.799c0,1.312-1.065,2.381-2.384,2.381c-1.317,0-2.382-1.065-2.382-2.381
		c0-1.316,1.063-2.384,2.382-2.384S646.068,194.48,646.068,195.799"/>
	<path fill="#FBFDFF" d="M641.952,152.212c0,0,14.227-11.271,26.687-13.842c12.459-2.575,18.123,4.547,20.722,9.174
		c2.597,4.629-1.142,15.563-2.39,17.125c-1.244,1.567-18.688,6.551-18.688,6.551s-4.646,5.363-6.764,5.519
		c-2.121,0.152-10.322-1.615-14.24-7.839C643.361,162.675,641.952,152.212,641.952,152.212"/>
	<path fill="#8396A5" d="M644.176,150.552c0,0-2.062,10.255,14.494,20.135c0,0-5.218,2.854-12.484-3.782
		C638.911,160.272,639.562,148.84,644.176,150.552"/>
	<path fill="#BCCCD9" d="M660.271,162.677c0,0,1.779-11.216,7.297-14.954c5.52-3.737,15.842-0.81,19.758,4.488
		c3.915,5.302,1.425,13.135-1.245,15.804c-2.671,2.672-9.226,5.66-15.203,5.944C664.898,174.244,660.271,162.677,660.271,162.677"/>
	<path fill="#CADDEA" d="M669.71,174.068c0,0,7.827-0.535,9.253-2.492c1.423-1.961-0.355-18.689-2.315-21.005
		c-1.954-2.315-4.981-0.966-4.981,0.938c0,1.908-0.146,6.716-0.786,8.674c0,0-4.021-8.443-7.936-8.674
		c-3.919-0.227-3.919,3.688-2.852,4.935c1.068,1.248,3.737,5.162,4.097,6.052c0,0-5.95-3.316-9.789-2.669
		c-3.842,0.647-1.719,4.729,0,5.518c1.715,0.792,7.652,3.383,8.188,4.271c0.532,0.892-0.356,5.519-1.068,5.698
		c-0.711,0.177-3.383,1.958-2.493,3.647C659.917,180.653,665.797,181.008,669.71,174.068"/>
	<path fill="#586E7D" d="M669.558,172.039c0,0-0.085-0.079-0.216-0.24c-0.129-0.159-0.286-0.42-0.377-0.764
		c-0.054-0.171-0.097-0.365-0.104-0.569c-0.019-0.207-0.019-0.425,0.013-0.648c0.044-0.221,0.08-0.453,0.157-0.68
		c0.075-0.223,0.188-0.436,0.295-0.652c0.142-0.2,0.271-0.401,0.432-0.579c0.145-0.188,0.341-0.33,0.517-0.47
		c0.184-0.131,0.366-0.252,0.562-0.326c0.188-0.084,0.372-0.151,0.555-0.178c0.348-0.084,0.654-0.063,0.857-0.023
		c0.201,0.054,0.314,0.084,0.314,0.084s-0.083,0.081-0.23,0.224c-0.143,0.129-0.325,0.316-0.521,0.525l-0.295,0.335
		c-0.101,0.118-0.188,0.257-0.297,0.371l-0.285,0.406c-0.107,0.127-0.188,0.281-0.276,0.42c-0.085,0.146-0.185,0.287-0.246,0.439
		c-0.096,0.145-0.158,0.299-0.229,0.445c-0.048,0.151-0.146,0.294-0.188,0.44c-0.048,0.146-0.119,0.286-0.153,0.421
		C669.658,171.562,669.558,172.039,669.558,172.039"/>
	<path fill="#FBFDFF" d="M605.804,182.434c-3.129,0.562-8.443-3.281-10.671-4.927c-7.02-5.191-12.026-12.683-11.044-21.768
		c1.442-13.312,14.48-25.388,27.546-26.893c9.028-1.037,17.923,2.648,23.538,9.798c8.812,11.214,3.737,21.627,3.737,21.627
		S619.152,180.031,605.804,182.434"/>
	<path fill="#294256" d="M606.163,180.084c-4.3,1.088-10.846-6.051-13.105-9.129c-3.897-5.307-4.836-12.808-2.299-18.886
		c4.979-11.938,22.701-16.433,32.467-7.7c3.373,3.013,5.701,7.036,7.449,11.209c2.79,6.656,1.09,9.044-3.609,13.423
		C621.193,174.47,613.914,178.117,606.163,180.084"/>
	<path fill="#A3B7C9" d="M609.677,186.163c-1.284,0.294-4.14,2.228-5.341,0.183c-0.763-1.293-2.035-4.174-1.561-4.85
		c0.793-1.13,3.112-1.828,6.319-3.496c5.131-2.668,20.285-14.986,25.165-20.665c4.881-5.679,7.586-6.772,9.188-5.123
		s1.608,10.78-11.395,20.688C621.46,180.971,614.814,184.973,609.677,186.163"/>
	<path fill="#BCCCD9" d="M631.299,132.565c-5.079-0.528-6.326,10.688-1.964,15.709c4.363,5.016,8.882,4.553,11.344,2.397
		C644.17,147.618,639.498,133.42,631.299,132.565"/>
	<path fill="#41627B" d="M593.665,169.393c-4.482-4.666-3.097-15.749,3.67-20.044c6.763-4.296,17.213-6.116,20.889,1.203
		C621.898,157.869,605.303,181.499,593.665,169.393"/>
	<path fill="#FFFFFF" d="M592.312,155.581c-3.868,6.302,4.058,9.765,7.261,5.849C602.779,157.513,595.251,150.797,592.312,155.581"
		/>
</g>
<g>
	<g>
		<g>
			<g>
				<path fill="#F8BD11" d="M245.832,122.398c-5.851-0.188-10.571,5.308-14.151,9.938c1.244-0.468,2.632-0.553,3.924-0.237
					c-4.768,3.13-8.859,7.285-11.915,12.096c1.146-1.382,2.63-2.49,4.284-3.2c-3.269,4.537-4.298,7.399-6.196,10.952
					c-0.952,1.785-0.982,3.001-0.758,3.41c5.411-4.66,9.522-2.998,13.929-8.618c-0.417,0.83-0.203,1.497-1.665,3.498
					c3.858-2.346,9.582-7.559,11.396-11.938c-0.307,0.999-0.339,2.078-0.101,3.092c1.934-1.428,3.344-3.447,4.507-5.547
					c1.087-1.969,2.015-4.149,1.847-6.396c-0.206-2.768-0.715-5.431-3.333-6.349C247.149,122.939,246.308,122.413,245.832,122.398z"
					/>
			</g>
			<g id="XMLID_1_">
				<g>
					<path fill="#E07A7C" d="M240.232,129.762c1.927-2.09,4.94-4.024,6.57-2.513c1.009,0.94,0.646,3.576-2.17,6.393
						c-1.948,1.959-5.254,3.321-5.254,3.321s-25.851,21.685-41.885,43.438c-27.361,37.14-46.785,107.048-46.785,107.048
						l-0.901-0.729c0,0,18.634-69.462,45.451-106.601c16.726-23.181,42.3-45.136,42.3-45.136S238.262,131.875,240.232,129.762z"/>
				</g>
			</g>
			<path fill="#66A4B0" d="M329.774,69.456c8.467-16.016,5.934-23.769,3.059-28.121c-3.449-5.212-12.341-6.13-22.242-2.58
				c-9.898,3.553-33.135,22.666-44.113,38.124c-10.003,14.084-20.773,35.348-21.972,45.601c1.188,0.67,2.322,1.482,3.366,2.456
				c1.248,1.16,2.286,2.456,3.123,3.847c7.749-0.424,19.491-6.052,35.956-16.12C307.093,100.344,321.306,85.471,329.774,69.456z"/>
			<g>
				<path fill="#A9C44C" d="M353.542,16l-21.549,21.7c-0.12-0.026-0.241-0.05-0.365-0.057c-1.279-0.063-2.368,0.917-2.438,2.194
					c-0.065,1.281,0.922,2.368,2.198,2.435c1.277,0.066,2.367-0.916,2.436-2.195c0.012-0.263-0.027-0.509-0.097-0.748L353.542,16z"
					/>
				<g>
					<g>
						<path fill="#A9C44C" d="M339.797,38.082c-0.354,0-0.772-0.064-1.281-0.229c-1.018-0.336-2.161-1.004-3.226-1.885
							c-2.119-1.755-3.7-4.222-2.613-5.533c1.091-1.313,3.807-0.226,5.926,1.53c2.121,1.759,3.7,4.222,2.612,5.536
							C341.007,37.752,340.584,38.082,339.797,38.082z M334.073,31.219c-0.172,0-0.286,0.032-0.336,0.092
							c-0.225,0.276,0.348,1.872,2.432,3.6c0.92,0.763,1.93,1.356,2.774,1.634c0.758,0.251,1.146,0.162,1.212,0.081
							c0.228-0.272-0.345-1.873-2.429-3.6C336.089,31.672,334.705,31.219,334.073,31.219z"/>
					</g>
					<g>
						<path fill="#A9C44C" d="M341.665,35.274c-1.153,0-2.668-0.809-3.896-1.821c-1.783-1.477-3.239-3.618-2.227-4.841
							c0.27-0.323,0.942-0.804,2.401-0.323c0.871,0.282,1.854,0.856,2.765,1.608c1.781,1.477,3.236,3.618,2.225,4.841l0,0
							C342.624,35.113,342.181,35.274,341.665,35.274z M336.806,29.451c-0.102,0-0.17,0.019-0.21,0.044
							c-0.117,0.251,0.425,1.553,2.047,2.897c1.617,1.337,2.988,1.629,3.23,1.468c0.116-0.275-0.43-1.566-2.042-2.901
							C338.482,29.839,337.297,29.451,336.806,29.451z"/>
					</g>
					<g>
						<path fill="#A9C44C" d="M343.144,32.548c-1.015,0-2.326-0.693-3.39-1.572c-1.553-1.289-2.812-3.173-1.91-4.267
							c0.245-0.299,0.857-0.736,2.157-0.311c0.751,0.247,1.604,0.742,2.389,1.392c0.786,0.65,1.429,1.392,1.812,2.088
							c0.662,1.199,0.344,1.879,0.098,2.179C344.016,32.4,343.612,32.548,343.144,32.548z M338.919,27.599
							c0,0.296,0.449,1.269,1.712,2.318c1.265,1.045,2.304,1.303,2.597,1.248c0-0.294-0.45-1.269-1.713-2.312
							C340.248,27.803,339.211,27.541,338.919,27.599z"/>
					</g>
				</g>
			</g>
			<g>
				<g>
					<path fill="#A9C44C" d="M279.534,110.651c2.104,1.667,2.558,6.521,2.37,8.899c-0.35,4.442-1.166,6.615-1.887,9.55
						c-0.861,3.496-2.816,7.67-5.803,9.879c-1.568,1.154-3.285,2.125-4.812,3.371c-1.038,0.841-2.15,2.285-3.532,2.503
						c0.272-3.747,1.083-6.731,0.229-10.516c-0.683-3.008-1.671-6.125-3.576-8.603c-0.413-0.536-1.686-1.495-1.671-2.082
						c0.027-1.248,4.101-3.474,4.994-4.046C268.919,117.64,279.012,110.328,279.534,110.651z"/>
					<path fill="#A9C44C" d="M276.683,133.065c3.276-1.508,5.379-0.428,3.433,2.763c-2.106,3.457-5.32,6.246-8.376,8.878
						c-2.466,2.119-5.938,4.941-9.182,5.669c-2.296,0.512-1.573-1.477-0.688-2.932c1.169-1.914,2.862-3.62,4.312-5.337
						c1.979-2.354,3.928-4.022,6.236-6.064C273.74,134.872,275.545,133.585,276.683,133.065z"/>
					<path opacity="0.35" fill="#808081" enable-background="new    " d="M276.683,133.065c3.276-1.508,5.379-0.428,3.433,2.763
						c-2.106,3.457-5.32,6.246-8.376,8.878c-2.466,2.119-5.938,4.941-9.182,5.669c-2.296,0.512-1.573-1.477-0.688-2.932
						c1.169-1.914,2.862-3.62,4.312-5.337c1.979-2.354,3.928-4.022,6.236-6.064C273.74,134.872,275.545,133.585,276.683,133.065z"/>
				</g>
				<g>
					<path fill="#A9C44C" d="M262.317,94.989c-1.857-1.938-6.73-1.935-9.082-1.524c-4.391,0.77-6.476,1.785-9.328,2.781
						c-3.402,1.188-7.374,3.526-9.29,6.705c-1.003,1.671-1.807,3.474-2.901,5.11c-0.742,1.113-2.07,2.354-2.165,3.753
						c3.705-0.625,6.606-1.713,10.451-1.217c3.057,0.394,6.254,1.083,8.902,2.75c0.57,0.359,1.643,1.535,2.228,1.468
						c1.237-0.146,3.072-4.411,3.558-5.357C256.36,106.212,262.691,95.477,262.317,94.989z"/>
					<path opacity="0.35" fill="#808081" enable-background="new    " d="M243.908,96.246c-3.402,1.188-7.374,3.526-9.29,6.705
						c-1.003,1.671-1.807,3.474-2.901,5.11c-0.742,1.113-2.07,2.354-2.164,3.753c2.001-0.336,3.768-0.811,5.574-1.094
						c3.136-4.925,6.055-9.637,9.276-14.648C244.241,96.13,244.076,96.189,243.908,96.246z"/>
					<path fill="#A9C44C" d="M240.274,99.935c1.19-3.403-0.081-5.395-3.078-3.156c-3.244,2.422-5.714,5.883-8.048,9.177
						c-1.876,2.654-4.361,6.377-4.775,9.674c-0.293,2.333,1.614,1.425,2.979,0.406c1.796-1.341,3.334-3.188,4.911-4.791
						c2.156-2.192,3.631-4.289,5.45-6.786C238.75,103.04,239.861,101.115,240.274,99.935z"/>
				</g>
			</g>
			<path fill="#808081" d="M259.672,126.802c-1.356-2.8-3.241-5.393-5.657-7.634c-2.25-2.089-4.773-3.696-7.448-4.836
				c-1.075,3.117-1.798,5.896-2.061,8.146c1.188,0.67,2.322,1.482,3.366,2.456c1.248,1.16,2.286,2.456,3.123,3.847
				C253.472,128.644,256.357,127.973,259.672,126.802z"/>
			<path fill="#BAD071" d="M332.833,41.335c-3.449-5.212-12.341-6.13-22.242-2.58c-1.479,0.531-3.255,1.411-5.24,2.571
				c5.92,3.098,11.149,7.037,16.063,11.821c3.203,3.123,6.119,6.596,8.687,10.253c0.505,0.718,1.028,1.494,1.531,2.305
				C337.827,52.202,335.474,45.331,332.833,41.335z"/>
		</g>
		<g>
			<g>
				<path fill="#C3D682" d="M298.169,61.171c3.396-3.729,9.171-4,12.9-0.603c3.73,3.396,3.998,9.171,0.603,12.897
					c-3.395,3.731-9.168,4-12.897,0.607C295.044,70.679,294.771,64.902,298.169,61.171z"/>
				<g>
					<g>
						<circle fill="#A9C44C" cx="306.703" cy="59.531" r="0.677"/>
					</g>
					<g>
						<path fill="#A9C44C" d="M301.953,59.929c-0.113-0.359,0.081-0.737,0.438-0.851c0.358-0.114,0.737,0.083,0.852,0.439
							c0.112,0.357-0.085,0.738-0.438,0.85C302.445,60.483,302.064,60.284,301.953,59.929z"/>
					</g>
					<g>
						<path fill="#A9C44C" d="M298.679,62.445c-0.274-0.251-0.296-0.679-0.045-0.954c0.25-0.277,0.678-0.297,0.955-0.048
							c0.277,0.255,0.294,0.682,0.045,0.959C299.381,62.677,298.956,62.696,298.679,62.445z"/>
					</g>
					<g>
						<circle fill="#A9C44C" cx="297.245" cy="65.599" r="0.676"/>
					</g>
					<g>
						<path fill="#A9C44C" d="M297.645,70.351c-0.356,0.113-0.738-0.083-0.853-0.439c-0.112-0.352,0.083-0.733,0.442-0.85
							c0.354-0.111,0.732,0.085,0.849,0.438C298.195,69.857,297.999,70.238,297.645,70.351z"/>
					</g>
					<g>
						<path fill="#A9C44C" d="M300.16,73.626c-0.251,0.277-0.68,0.295-0.955,0.046c-0.277-0.254-0.299-0.68-0.046-0.957
							c0.251-0.277,0.679-0.295,0.955-0.048C300.39,72.922,300.41,73.349,300.16,73.626z"/>
					</g>
					<g>
						<path fill="#A9C44C" d="M303.973,75.201c-0.078,0.367-0.439,0.596-0.804,0.516c-0.364-0.078-0.599-0.437-0.518-0.802
							c0.081-0.367,0.44-0.596,0.809-0.517C303.822,74.476,304.052,74.836,303.973,75.201z"/>
					</g>
					<g>
						<path fill="#A9C44C" d="M308.067,74.659c0.114,0.359-0.085,0.736-0.441,0.85c-0.354,0.114-0.733-0.082-0.848-0.437
							c-0.114-0.358,0.083-0.739,0.437-0.85C307.569,74.106,307.954,74.306,308.067,74.659z"/>
					</g>
					<g>
						<path fill="#A9C44C" d="M311.337,72.145c0.278,0.251,0.297,0.677,0.049,0.952c-0.254,0.276-0.68,0.3-0.955,0.048
							c-0.277-0.253-0.299-0.683-0.045-0.957C310.637,71.911,311.064,71.892,311.337,72.145z"/>
					</g>
					<g>
						<path fill="#A9C44C" d="M312.917,68.331c0.365,0.079,0.596,0.439,0.517,0.805c-0.079,0.366-0.441,0.596-0.81,0.517
							c-0.36-0.081-0.592-0.441-0.514-0.806C312.192,68.481,312.553,68.25,312.917,68.331z"/>
					</g>
					<g>
						<path fill="#A9C44C" d="M312.375,64.239c0.354-0.116,0.734,0.081,0.848,0.439c0.113,0.352-0.082,0.731-0.438,0.847
							c-0.354,0.112-0.735-0.085-0.851-0.439C311.82,64.732,312.02,64.35,312.375,64.239z"/>
					</g>
					<g>
						<path fill="#A9C44C" d="M309.858,60.964c0.251-0.276,0.678-0.297,0.955-0.043c0.277,0.249,0.295,0.678,0.046,0.954
							c-0.253,0.275-0.679,0.295-0.957,0.046C309.63,61.667,309.608,61.239,309.858,60.964z"/>
					</g>
				</g>
			</g>
			<circle fill="#202A4F" cx="304.922" cy="67.321" r="6.749"/>
		</g>
		<g>
			<g>
				<path fill="#C3D682" d="M287.825,77.418c2.103-2.309,5.678-2.478,7.987-0.374c2.311,2.103,2.479,5.677,0.375,7.987
					c-2.104,2.311-5.68,2.475-7.989,0.371C285.891,83.304,285.723,79.726,287.825,77.418z"/>
				<g>
					<g>
						<circle fill="#A9C44C" cx="293.111" cy="76.402" r="0.419"/>
					</g>
					<g>
						<path fill="#A9C44C" d="M290.164,76.647c-0.066-0.218,0.056-0.454,0.273-0.526c0.224-0.067,0.459,0.052,0.526,0.272
							c0.072,0.221-0.052,0.457-0.271,0.526C290.473,76.99,290.237,76.866,290.164,76.647z"/>
					</g>
					<g>
						<path fill="#A9C44C" d="M288.138,78.205c-0.168-0.152-0.183-0.422-0.027-0.594c0.157-0.166,0.421-0.179,0.592-0.024
							c0.173,0.158,0.185,0.42,0.029,0.591C288.577,78.349,288.31,78.362,288.138,78.205z"/>
					</g>
					<g>
						<path fill="#A9C44C" d="M287.163,80.569c-0.226-0.05-0.369-0.273-0.318-0.5c0.05-0.225,0.271-0.367,0.494-0.319
							c0.229,0.05,0.37,0.273,0.323,0.5C287.612,80.475,287.39,80.617,287.163,80.569z"/>
					</g>
					<g>
						<path fill="#A9C44C" d="M287.5,83.103c-0.224,0.069-0.457-0.052-0.528-0.272c-0.067-0.221,0.052-0.455,0.273-0.524
							c0.221-0.072,0.457,0.053,0.524,0.269C287.842,82.797,287.72,83.033,287.5,83.103z"/>
					</g>
					<g>
						<path fill="#A9C44C" d="M289.057,85.128c-0.157,0.176-0.419,0.185-0.593,0.031c-0.17-0.157-0.184-0.421-0.028-0.594
							c0.155-0.17,0.419-0.185,0.593-0.028C289.199,84.693,289.212,84.96,289.057,85.128z"/>
					</g>
					<g>
						<path fill="#A9C44C" d="M291.421,86.104c-0.052,0.227-0.272,0.369-0.5,0.32c-0.225-0.05-0.37-0.271-0.32-0.497
							c0.05-0.227,0.272-0.37,0.5-0.321C291.326,85.657,291.469,85.879,291.421,86.104z"/>
					</g>
					<g>
						<path fill="#A9C44C" d="M293.952,85.77c0.073,0.219-0.049,0.455-0.271,0.528c-0.221,0.068-0.458-0.052-0.526-0.274
							c-0.072-0.221,0.052-0.455,0.271-0.529C293.646,85.428,293.88,85.55,293.952,85.77z"/>
					</g>
					<g>
						<path fill="#A9C44C" d="M295.982,84.215c0.168,0.153,0.182,0.417,0.026,0.591c-0.157,0.168-0.422,0.181-0.592,0.025
							c-0.173-0.154-0.184-0.422-0.028-0.592C295.545,84.07,295.81,84.055,295.982,84.215z"/>
					</g>
					<g>
						<path fill="#A9C44C" d="M296.957,81.849c0.229,0.05,0.369,0.271,0.319,0.498c-0.05,0.228-0.271,0.369-0.499,0.318
							c-0.225-0.048-0.369-0.271-0.321-0.498C296.506,81.945,296.732,81.802,296.957,81.849z"/>
					</g>
					<g>
						<path fill="#A9C44C" d="M296.62,79.315c0.22-0.068,0.456,0.05,0.529,0.274c0.066,0.217-0.054,0.452-0.274,0.524
							c-0.223,0.072-0.457-0.052-0.525-0.271C296.279,79.621,296.399,79.387,296.62,79.315z"/>
					</g>
					<g>
						<path fill="#A9C44C" d="M295.062,77.29c0.156-0.173,0.419-0.184,0.593-0.027c0.17,0.154,0.184,0.421,0.028,0.592
							c-0.155,0.17-0.419,0.181-0.59,0.027C294.92,77.722,294.907,77.458,295.062,77.29z"/>
					</g>
				</g>
			</g>
			<path fill="#202A4F" d="M288.915,78.41c1.556-1.704,4.196-1.831,5.905-0.274c1.707,1.554,1.829,4.198,0.278,5.907
				c-1.557,1.704-4.199,1.828-5.906,0.272C287.484,82.76,287.359,80.119,288.915,78.41z"/>
		</g>
		<g>
			<g>
				<circle fill="#C3D682" cx="281.034" cy="93.036" r="5.656"/>
				<g>
					<g>
						<path fill="#A9C44C" d="M281.73,88.121c0.05-0.223,0.271-0.37,0.496-0.316c0.228,0.05,0.369,0.272,0.322,0.5
							c-0.05,0.225-0.274,0.368-0.5,0.318C281.821,88.573,281.677,88.348,281.73,88.121z"/>
					</g>
					<g>
						<path fill="#A9C44C" d="M279.196,88.459c-0.07-0.223,0.05-0.457,0.271-0.523c0.22-0.073,0.458,0.05,0.526,0.269
							c0.067,0.224-0.052,0.457-0.272,0.526C279.501,88.8,279.266,88.68,279.196,88.459z"/>
					</g>
					<g>
						<path fill="#A9C44C" d="M277.166,90.02c-0.17-0.16-0.182-0.421-0.025-0.594c0.156-0.171,0.419-0.185,0.592-0.028
							c0.172,0.155,0.182,0.421,0.029,0.592C277.603,90.162,277.338,90.172,277.166,90.02z"/>
					</g>
					<g>
						<path fill="#A9C44C" d="M276.191,92.376c-0.226-0.045-0.369-0.269-0.319-0.496c0.05-0.225,0.271-0.368,0.496-0.318
							c0.228,0.046,0.37,0.271,0.323,0.498C276.642,92.285,276.417,92.429,276.191,92.376z"/>
					</g>
					<g>
						<path fill="#A9C44C" d="M276.528,94.913c-0.223,0.072-0.457-0.052-0.528-0.269c-0.066-0.224,0.053-0.459,0.275-0.529
							c0.219-0.068,0.455,0.05,0.521,0.273C276.868,94.607,276.749,94.844,276.528,94.913z"/>
					</g>
					<g>
						<circle fill="#A9C44C" cx="277.776" cy="96.658" r="0.419"/>
					</g>
					<g>
						<circle fill="#A9C44C" cx="280.038" cy="97.827" r="0.419"/>
					</g>
					<g>
						<path fill="#A9C44C" d="M282.981,97.583c0.069,0.218-0.052,0.457-0.273,0.524c-0.22,0.07-0.457-0.05-0.523-0.271
							c-0.073-0.221,0.05-0.457,0.271-0.526C282.677,97.241,282.91,97.362,282.981,97.583z"/>
					</g>
					<g>
						<path fill="#A9C44C" d="M285.009,96.023c0.171,0.159,0.185,0.421,0.028,0.592c-0.157,0.173-0.422,0.184-0.592,0.029
							c-0.172-0.156-0.182-0.42-0.029-0.596C284.569,95.881,284.836,95.87,285.009,96.023z"/>
					</g>
					<g>
						<path fill="#A9C44C" d="M285.986,93.659c0.225,0.052,0.369,0.275,0.319,0.5c-0.051,0.228-0.271,0.371-0.499,0.321
							c-0.226-0.05-0.369-0.272-0.321-0.5C285.533,93.755,285.76,93.613,285.986,93.659z"/>
					</g>
					<g>
						<path fill="#A9C44C" d="M285.646,91.127c0.224-0.072,0.459,0.051,0.526,0.271c0.072,0.221-0.048,0.457-0.271,0.529
							c-0.22,0.067-0.454-0.051-0.524-0.273C285.308,91.433,285.429,91.199,285.646,91.127z"/>
					</g>
					<g>
						<path fill="#A9C44C" d="M284.091,89.1c0.155-0.168,0.42-0.184,0.593-0.026c0.17,0.155,0.184,0.419,0.028,0.59
							c-0.154,0.17-0.42,0.187-0.592,0.026C283.95,89.537,283.934,89.272,284.091,89.1z"/>
					</g>
				</g>
			</g>
			<circle fill="#202A4F" cx="281.034" cy="93.036" r="4.179"/>
		</g>
	</g>
	<path opacity="0.35" fill="#808081" enable-background="new    " d="M332.833,41.335c-1.85-2.796-5.271-4.355-9.569-4.652
		c7.017,10.373-1.333,27.598-9.318,36.343c-12.419,14.001-24.841,24.049-39.792,34.767c-2.932,1.675-6.403,1.369-8.328-0.52
		c-3.096-3.039-4.345-7.729-3.506-11.983l-0.039,0.022c0.05-0.168,0.07-0.284,0.039-0.321c-1.479-1.546-4.882-1.852-7.391-1.708
		c0.779,7.25-3.256,13.639-8.607,18.794c0.9,0.347,1.771,0.758,2.587,1.271c0.57,0.359,1.644,1.533,2.229,1.468
		c0.357-0.043,0.77-0.43,1.18-0.985c0.546,0.441,0.959,1.092,1.15,1.774c0.33,1.16,0.188,2.388,0.04,3.581
		c-0.189,1.547-0.516,3.288-1.454,4.433c-1.197,0.638-2.396,1.268-3.609,1.883c0.994,1.01,1.848,2.11,2.554,3.281
		c0.281-0.018,0.572-0.042,0.862-0.072c0.087-0.009,0.175-0.018,0.26-0.03c0.22-0.022,0.439-0.051,0.662-0.083
		c0.094-0.012,0.186-0.024,0.275-0.039c0.258-0.039,0.518-0.083,0.781-0.134c0.051-0.009,0.104-0.018,0.155-0.028
		c0.336-0.063,0.675-0.137,1.022-0.214c0.009-0.002,0.02-0.002,0.029-0.01c0.33-0.073,0.666-0.157,1.007-0.247
		c0.058-0.016,0.113-0.029,0.174-0.046c0.318-0.085,0.637-0.175,0.965-0.271c0.042-0.014,0.081-0.024,0.121-0.038
		c1.613-0.479,3.347-1.104,5.191-1.857c0.007,0.008,0.012,0.014,0.021,0.022c1.16,1.51,1.979,3.26,2.6,5.079
		c5.499-2.377,11.048-4.694,16.304-7.51c0.196-1.08,0.364-2.294,0.479-3.755c0.076-0.972,0.044-2.354-0.164-3.764
		c1.682-0.992,3.415-2.027,5.21-3.126c20.143-12.317,34.355-27.189,42.823-43.206C338.241,53.44,335.708,45.687,332.833,41.335z"/>
</g>
<g>
	<g>
		<g>
			<g>
				<circle fill="#E8486C" cx="102.811" cy="117.048" r="26.258"/>
			</g>
			<g>
				<g>
					<g>
						<path fill="#EE6C89" d="M99.067,111.562c-1.542-4.18-10.288-4.802-19.538-1.39c-0.799,0.295-1.575,0.611-2.328,0.946
							c-1.119,4.818-0.894,10.004,0.946,14.994c0.121,0.329,0.255,0.652,0.389,0.974c2.098-0.358,4.321-0.95,6.575-1.781
							C94.361,121.893,100.608,115.741,99.067,111.562z"/>
					</g>
					<g>
						<path fill="#EE6C89" d="M93.061,97.572c1.566,4.248,10.501,4.863,19.956,1.375c2.111-0.779,4.067-1.696,5.82-2.699
							c-6.723-5.185-15.811-6.995-24.394-4.115C93.019,94.064,92.466,95.961,93.061,97.572z"/>
					</g>
					<g>
						<path fill="#EE6C89" d="M123.285,126.021c-0.631-1.711-12.75,1.18-27.068,6.462c-3.877,1.43-7.512,2.888-10.749,4.289
							c1.971,1.722,4.184,3.132,6.551,4.197c2.086-0.698,4.258-1.462,6.486-2.284C112.822,133.404,123.917,127.733,123.285,126.021z
							"/>
					</g>
					<g opacity="0.4">
						<path fill="#EE6C89" d="M102.926,110.562c0.455,1.233,8.155-0.471,17.196-3.807c2.038-0.751,3.963-1.521,5.727-2.275
							c-0.744-1.376-1.604-2.663-2.56-3.855c-1.534,0.493-3.151,1.05-4.814,1.664C109.434,105.624,102.471,109.328,102.926,110.562z
							"/>
					</g>
					<g>
						<path fill="#EE6C89" d="M119.65,114.258c-10.619,3.917-18.713,8.48-18.082,10.19c0.632,1.714,9.75-0.071,20.37-3.989
							c2.538-0.937,4.931-1.91,7.096-2.872c0.042-2.05-0.151-4.125-0.607-6.191C125.748,112.145,122.764,113.11,119.65,114.258z"/>
					</g>
					<g>
						<path opacity="0.4" fill="#EE6C89" d="M87.981,98.317c-0.266-0.72-1.005-1.205-2.039-1.443
							c-2.726,2.277-4.93,5.063-6.517,8.159c0.835-0.152,1.71-0.385,2.596-0.712C85.996,102.855,88.664,100.167,87.981,98.317z"/>
					</g>
					<g>
						<path opacity="0.4" fill="#EE6C89" d="M108.983,140.739c-0.454-1.232-3.211-1.353-6.157-0.266
							c-1.774,0.654-3.208,1.6-3.972,2.514c3.043,0.463,6.194,0.396,9.323-0.267C108.871,142.018,109.193,141.309,108.983,140.739z"
							/>
					</g>
				</g>
				
					<ellipse transform="matrix(0.9382 -0.3461 0.3461 0.9382 -38.4331 40.2598)" fill="#EE6C89" cx="93.517" cy="127.749" rx="3.074" ry="1.091"/>
			</g>
		</g>
	</g>
	<path fill="#108FCF" d="M122.738,99.841c0.295,0.332,0.579,0.674,0.857,1.023c0.005,0.006,0.01,0.012,0.018,0.017
		c0.021,0.029,0.041,0.059,0.063,0.085c0.267,0.337,0.524,0.683,0.777,1.032c0.002,0.007,0.009,0.012,0.014,0.018
		c3.212-0.602,5.302-0.383,5.742,0.812c1.19,3.227-10.029,12.326-25.058,20.326c-15.026,7.998-28.174,11.866-29.363,8.641
		c-0.398-1.079,0.592-2.813,2.643-4.939c-0.055-0.142-0.112-0.278-0.165-0.42c-0.138-0.375-0.263-0.747-0.383-1.123
		c-0.116-0.366-0.221-0.729-0.319-1.097l0,0c-6.533,5.116-10.226,9.446-9.416,11.643c1.525,4.133,18.364-0.823,37.609-11.066
		c19.246-10.245,33.615-21.897,32.09-26.031C136.98,96.411,131.147,97.006,122.738,99.841z"/>
	<path opacity="0.4" fill="#FFFFFF" d="M120.801,97.865c0.321,0.292,0.633,0.597,0.938,0.905c11.526-4.324,19.771-5.554,20.88-2.546
		c1.731,4.696-14.6,17.946-36.482,29.593c-21.881,11.647-41.023,17.279-42.756,12.583c-1.045-2.833,4.483-8.777,13.837-15.605l0,0
		c-0.093-0.427-0.172-0.854-0.244-1.282c-12.003,8.381-19.319,15.852-18.061,19.265c1.929,5.228,23.229-1.042,47.576-14.002
		c24.348-12.959,42.524-27.702,40.597-32.929C145.755,90.241,135.203,92.108,120.801,97.865z"/>
	<path fill="#3EBEED" d="M117.333,95.187c0.121,0.079,0.237,0.164,0.357,0.243c0.156,0.107,0.317,0.214,0.473,0.324
		c0.188,0.128,0.366,0.263,0.55,0.397c0.143,0.106,0.285,0.21,0.421,0.319c0.087,0.067,0.178,0.131,0.264,0.198
		c0.019,0.019,0.038,0.037,0.056,0.055c0.17,0.134,0.342,0.27,0.508,0.409c16.896-7.025,29.485-9.474,31.006-5.353
		c2.098,5.687-17.677,21.73-44.171,35.83c-26.491,14.102-49.67,20.922-51.768,15.236c-1.443-3.912,7.469-12.725,21.794-22.437l0,0
		c-0.091-0.75-0.146-1.501-0.17-2.25c-0.003-0.12-0.008-0.241-0.011-0.361c-0.003-0.217-0.006-0.435-0.007-0.65v-0.001
		c-21.272,13.57-35.105,26.44-33.119,31.824c2.602,7.053,31.344-1.404,64.192-18.891c32.852-17.484,57.373-37.375,54.771-44.427
		C160.398,80.011,141.589,84.297,117.333,95.187z"/>
</g>
<g>
	<circle id="XMLID_5_" fill="#CFCE12" cx="528.791" cy="46.921" r="26.986"/>
	<g>
		<path fill="none" d="M555.477,30.603c-0.498-0.827-2.355-0.763-5.168,0.031c1.058,1.39,1.982,2.893,2.758,4.49
			C555.061,33.026,555.973,31.427,555.477,30.603z"/>
		<path fill="none" d="M502.443,62.554c0.457,0.757,2.048,0.769,4.465,0.158c-0.947-1.312-1.783-2.718-2.49-4.208
			C502.729,60.37,501.986,61.793,502.443,62.554z"/>
		<path fill="#DB772E" d="M568.902,23.261c-1.734-2.953-13.785,2.474-19.357,6.409c0.261,0.315,0.518,0.635,0.764,0.963
			c2.812-0.794,4.67-0.858,5.168-0.031c0.496,0.824-0.416,2.423-2.41,4.521c-3.865,4.068-11.805,10.016-21.465,15.836
			c-10.066,6.063-19.377,10.411-24.693,11.752c-2.417,0.61-4.008,0.599-4.465-0.158c-0.457-0.761,0.285-2.184,1.975-4.05
			c-0.183-0.381-0.354-0.768-0.519-1.16c-4.717,3.264-15.798,13.027-13.949,15.821c1.483,2.244,6.426,1.096,14.005-1.489
			c8.284-2.822,19.275-8.213,30.781-15.395c11.121-6.938,20.588-14.217,26.881-20.353C567.795,29.904,570.313,25.668,568.902,23.261
			z"/>
	</g>
	<g>
		<path opacity="0.5" fill="#CFCE12" d="M524.55,20.27c-2.586,0.412-5.021,1.184-7.276,2.246c2.207,0.356,4.379,0.865,6.204,1.825
			c0.685,0.363,1.332,0.816,1.949,1.33c-1.006,0.881-1.497,2.278-1.155,3.667c0.49,1.982,2.492,3.192,4.476,2.703
			c0.597-0.147,1.126-0.436,1.558-0.816c0.219,0.289,0.436,0.575,0.648,0.853c0.664,0.871,1.312,1.76,1.947,2.659
			c-0.393-0.16-0.83-0.225-1.277-0.154c-1.311,0.208-2.204,1.44-1.995,2.751c0.208,1.311,1.44,2.203,2.75,1.995
			c1.196-0.19,2.032-1.232,2.017-2.407c0.497,0.753,0.984,1.514,1.455,2.286c-0.41,0.732-0.557,1.614-0.342,2.493
			c0.372,1.5,1.682,2.521,3.148,2.595c1.355,2.737,2.502,5.567,3.377,8.474c-0.059,0.01-0.113,0.01-0.168,0.024
			c-1.29,0.318-2.076,1.62-1.758,2.909c0.318,1.287,1.62,2.074,2.907,1.757c0.056-0.014,0.106-0.039,0.16-0.057
			c0.1,0.53,0.188,1.062,0.266,1.596c-0.288-0.004-0.583,0.023-0.878,0.097c-1.833,0.452-2.953,2.305-2.502,4.139
			c0.41,1.66,1.968,2.729,3.619,2.583c-0.117,0.699-0.328,1.691-0.576,2.812c-0.357-0.123-0.756-0.154-1.152-0.056
			c-1.09,0.271-1.757,1.372-1.486,2.462c0.016,0.065,0.041,0.127,0.064,0.191c10.452-5.044,16.831-16.493,14.912-28.544
			C553.102,27.961,539.27,17.927,524.55,20.27z"/>
		<circle opacity="0.5" fill="#CFCE12" cx="525.455" cy="34.627" r="2.033"/>
		<circle opacity="0.5" fill="#CFCE12" cx="535.844" cy="59.925" r="1.663"/>
	</g>
</g>
<rect x="782.048" y="124.381" transform="matrix(0.707 -0.7072 0.7072 0.707 138.8353 595.1198)" fill="#45B8B4" width="11.236" height="11.238"/>
<rect x="363.385" y="127.112" transform="matrix(0.707 -0.7072 0.7072 0.707 15.3028 297.282)" fill="#F7B93A" width="6.12" height="6.12"/>
<rect x="165.385" y="53.439" transform="matrix(0.707 -0.7072 0.7072 0.707 9.3942 135.6751)" fill="#F7B93A" width="6.12" height="6.12"/>
<circle fill="#FFFFFF" cx="471" cy="78.654" r="1.013"/>
<circle fill="#FFFFFF" cx="554" cy="134.654" r="1.013"/>
<circle fill="#FFFFFF" cx="734" cy="94.654" r="1.013"/>
<circle fill="#FFFFFF" cx="198.432" cy="150.5" r="1.013"/>
<circle fill="#FFFFFF" cx="27.432" cy="47.5" r="1.013"/>
<circle fill="#FFFFFF" cx="110.458" cy="44.5" r="1.013"/>
<circle fill="#FFFFFF" cx="352.458" cy="94.5" r="1.013"/>
<line fill="none" stroke="#1D1D1B" stroke-width="2" stroke-miterlimit="10" x1="340.023" y1="304.822" x2="330.445" y2="151.167"/>
<circle cx="330.195" cy="149.375" r="4.25"/>
<rect x="403.926" y="158.139" transform="matrix(0.9986 -0.0531 0.0531 0.9986 -9.125 22.2991)" fill="#C2C2C4" width="21.685" height="49.209"/>
<polyline fill="#444444" points="405.195,207.876 404.737,199.771 415.571,199.236 "/>
<rect x="332.738" y="152.229" transform="matrix(0.9986 -0.0531 0.0531 0.9986 -8.8647 20.0883)" fill="#FFFFFF" width="81.583" height="49.209"/>
<g>
	<defs>
		<polyline id="SVGID_1_" points="337.645,198.303 416.267,195.753 414.672,154.125 333.187,157.98 		"/>
	</defs>
	<clipPath id="SVGID_2_">
		<use xlink:href="#SVGID_1_"  overflow="visible"/>
	</clipPath>
	<g clip-path="url(#SVGID_2_)">
		<defs>
			<polyline id="SVGID_3_" points="286.299,120.591 454.661,111.452 467.587,349.563 299.224,358.703 			"/>
		</defs>
		<clipPath id="SVGID_4_">
			<use xlink:href="#SVGID_3_"  overflow="visible"/>
		</clipPath>
		<g clip-path="url(#SVGID_4_)">
			<path fill="#2E294E" d="M348.899,174.1c-0.228,0.012-0.386-0.094-0.479-0.392c-0.274-0.897-0.678-1.331-1.208-1.302
				c-0.379,0.021-0.551,0.333-0.531,0.711c0.066,1.211,1.917,2.478,4.274,3.907c2.551,1.533,4.555,4.157,4.707,6.959
				c0.275,5.073-2.535,9.288-7.494,9.557c-5.755,0.312-8.63-3.708-8.959-9.766c-0.01-0.189,0.131-0.386,0.434-0.403l5.21-0.548
				c0.265-0.015,0.425,0.129,0.481,0.467c0.233,1.505,0.965,3.098,1.874,3.048c0.531-0.028,0.853-0.387,0.806-1.258
				c-0.049-0.909-2.261-2.46-4.908-4.365c-2.647-1.907-4.052-4.679-4.192-7.253c-0.209-3.862,2.441-8.22,7.514-8.496
				c5.073-0.275,8.431,3.529,8.675,8.034c0.014,0.266-0.124,0.502-0.428,0.519L348.899,174.1z"/>
			<path fill="#2E294E" d="M355.962,165.019c-0.012-0.226,0.2-0.503,0.465-0.518l13.441-0.729c0.227-0.012,0.387,0.169,0.399,0.396
				l0.37,6.814c0.012,0.228-0.168,0.389-0.395,0.401l-6.322,0.343c-0.152,0.008-0.259,0.128-0.251,0.28l0.115,2.12
				c0.008,0.151,0.166,0.255,0.279,0.249l2.992-0.163c0.15-0.008,0.27,0.101,0.278,0.252l0.374,6.891
				c0.01,0.188-0.134,0.348-0.284,0.356l-3.066,0.167c-0.151,0.008-0.26,0.127-0.25,0.316l0.121,2.235
				c0.008,0.151,0.129,0.258,0.242,0.252l6.549-0.355c0.265-0.015,0.427,0.167,0.437,0.355l0.382,7.042
				c0.012,0.228-0.167,0.427-0.394,0.439l-13.553,0.735c-0.229,0.013-0.428-0.205-0.442-0.469L355.962,165.019z"/>
			<path fill="#2E294E" d="M396.721,190.812c-0.266,0.014-0.506-0.239-0.522-0.542l-1.49-27.448c-0.01-0.189,0.13-0.387,0.318-0.397
				l6.475-0.352c0.267-0.014,0.463,0.128,0.475,0.354l1.494,27.524c0.012,0.227-0.162,0.502-0.428,0.517L396.721,190.812z"/>
			<path fill="#E6305E" d="M375.108,192.139c-0.266,0.015-0.507-0.237-0.523-0.541l10.838-28.118
				c-0.01-0.188,0.131-0.387,0.321-0.398l6.473-0.351c0.265-0.015,0.463,0.128,0.476,0.354l-10.835,28.192
				c0.013,0.229-0.163,0.504-0.429,0.519L375.108,192.139z"/>
			<path fill="#C12E52" d="M382.802,170.281l-9.846,0.711c-0.228,0.012-0.504-0.163-0.518-0.427l-0.343-6.323
				c-0.015-0.265,0.239-0.507,0.542-0.523l19.849-0.938"/>
			<g opacity="0.75">
				<g>
					<defs>
						<polyline id="SVGID_5_" points="413.118,198.442 410.408,148.527 324.002,153.217 326.711,203.133 						"/>
					</defs>
					<clipPath id="SVGID_6_">
						<use xlink:href="#SVGID_5_"  overflow="visible"/>
					</clipPath>
					<g clip-path="url(#SVGID_6_)">
						<defs>
							<path id="SVGID_7_" d="M370.748,167.907c-7.274,6.213-20.492,13.583-41.721,6.91l0.852,15.693c0,0,23.472,0.805,32.55-7.798
								c9.079-8.604,9.855-14.49,15.297-15.713c5.444-1.223,8.38,1.427,24.229,7.171c0,0,0.871,1.206,2.808,1.507
								c1.938,0.301,3.241-0.542,3.241-0.542l-5.468-4.097c0,0-2.497,0.872-9.153-1.075c-4.663-1.363-9.777-5.5-15.409-5.195
								C375.653,164.895,373.247,165.772,370.748,167.907"/>
						</defs>
						<clipPath id="SVGID_8_">
							<use xlink:href="#SVGID_7_"  overflow="visible"/>
						</clipPath>
						<defs>
							
								<filter id="Adobe_OpacityMaskFilter" filterUnits="userSpaceOnUse" x="317.492" y="137.258" width="102.136" height="77.145">
								<feColorMatrix  type="matrix" values="1 0 0 0 0  0 1 0 0 0  0 0 1 0 0  0 0 0 1 0"/>
							</filter>
						</defs>
						<mask maskUnits="userSpaceOnUse" x="317.492" y="137.258" width="102.136" height="77.145" id="SVGID_9_">
							<g filter="url(#Adobe_OpacityMaskFilter)">
								
									<rect x="325.293" y="150.835" transform="matrix(-0.9985 0.0542 -0.0542 -0.9985 746.1089 331.4267)" clip-path="url(#SVGID_8_)" width="86.534" height="49.99"/>
								<g enable-background="new    ">
									<g>
										<defs>
											
												<rect id="SVGID_10_" x="327.547" y="156.096" transform="matrix(0.9825 -0.1861 0.1861 0.9825 -26.2824 71.657)" width="82.028" height="39.467"/>
										</defs>
										<clipPath id="SVGID_11_" clip-path="url(#SVGID_8_)">
											<use xlink:href="#SVGID_10_"  overflow="visible"/>
										</clipPath>
										
											<linearGradient id="SVGID_12_" gradientUnits="userSpaceOnUse" x1="124.2832" y1="603.3359" x2="124.5664" y2="603.3359" gradientTransform="matrix(-258.5579 48.9652 -48.9652 -258.5579 62095.3477 150077.8125)">
											<stop  offset="0" style="stop-color:#FFFFFF"/>
											<stop  offset="1" style="stop-color:#1D1D1B"/>
										</linearGradient>
										<polygon clip-path="url(#SVGID_11_)" fill="url(#SVGID_12_)" points="408.274,137.258 317.492,154.45 328.846,214.402 
											419.628,197.21 										"/>
									</g>
								</g>
							</g>
						</mask>
						<g clip-path="url(#SVGID_8_)" mask="url(#SVGID_9_)">
							<g>
								<defs>
									
										<rect id="SVGID_13_" x="325.293" y="150.835" transform="matrix(-0.9985 0.0542 -0.0542 -0.9985 746.1084 331.424)" width="86.534" height="49.989"/>
								</defs>
								<clipPath id="SVGID_14_">
									<use xlink:href="#SVGID_13_"  overflow="visible"/>
								</clipPath>
								<g clip-path="url(#SVGID_14_)">
									<defs>
										
											<rect id="SVGID_15_" x="327.546" y="156.097" transform="matrix(0.9825 -0.1861 0.1861 0.9825 -26.2813 71.6527)" width="82.027" height="39.465"/>
									</defs>
									<clipPath id="SVGID_16_">
										<use xlink:href="#SVGID_15_"  overflow="visible"/>
									</clipPath>
									
										<linearGradient id="SVGID_17_" gradientUnits="userSpaceOnUse" x1="124.2837" y1="603.334" x2="124.5669" y2="603.334" gradientTransform="matrix(-258.5579 48.9652 -48.9652 -258.5579 62095.3477 150077.3125)">
										<stop  offset="0" style="stop-color:#79BBE2"/>
										<stop  offset="1" style="stop-color:#79BBE2"/>
									</linearGradient>
									<polygon clip-path="url(#SVGID_16_)" fill="url(#SVGID_17_)" points="408.273,137.258 317.492,154.45 328.846,214.402 
										419.628,197.21 									"/>
								</g>
							</g>
						</g>
					</g>
				</g>
			</g>
			<path fill="#6B8D97" d="M401.187,172.921c0,0,0.652,2.043,3.129,2.627c2.814,0.666,4.327-0.776,4.696-1.23
				C409.383,173.864,401.187,172.921,401.187,172.921"/>
			<path fill="#CECACA" d="M398.563,171.319c0.461-0.333,1.961-0.72,7.543,0.184c4.648,0.753,5.708,1.608,6.281,2.359
				c-0.027,0.116-2.476,1.759-7.503,1.032C400.446,174.252,398.485,171.64,398.563,171.319"/>
			
				<line fill="none" stroke="#CECACA" stroke-width="0.5665" stroke-miterlimit="10" x1="404.431" y1="169.583" x2="403.987" y2="168.385"/>
			
				<line fill="none" stroke="#CECACA" stroke-width="0.5665" stroke-miterlimit="10" x1="407.975" y1="170.342" x2="408.913" y2="169.176"/>
			<path fill="#373F54" d="M404.698,172.52c1.462,0.34,4.208,0.114,4.43-0.008c0.221-0.123-0.296-2.875-3.101-3.225
				c-2.805-0.351-4.149,1.681-4.126,1.921C401.923,171.45,403.192,172.171,404.698,172.52"/>
			<path fill="#445D77" d="M402.818,171.064c0.066-0.703,1.479-1.752,3.012-1.558c1.534,0.192,2.282,1.007,2.632,1.868
				c0.352,0.861-1.754,1.042-3.099,0.812C404.021,171.957,402.77,171.583,402.818,171.064"/>
			<path fill="#2874B3" d="M399.672,171.8c0.007,0.129-0.093,0.24-0.223,0.247c-0.13,0.007-0.24-0.092-0.248-0.222
				c-0.007-0.13,0.092-0.241,0.222-0.248C399.554,171.571,399.665,171.67,399.672,171.8"/>
			<path fill="#2874B3" d="M400.919,172.664c0.007,0.129-0.092,0.241-0.222,0.248c-0.131,0.007-0.242-0.093-0.249-0.223
				c-0.007-0.13,0.092-0.241,0.223-0.248C400.801,172.435,400.912,172.534,400.919,172.664"/>
			<path fill="#2874B3" d="M402.595,173.435c0.007,0.13-0.092,0.241-0.221,0.248c-0.131,0.007-0.241-0.093-0.249-0.223
				c-0.007-0.13,0.092-0.24,0.223-0.247C402.478,173.206,402.588,173.305,402.595,173.435"/>
			<path fill="#2874B3" d="M404.765,174.018c0.007,0.13-0.093,0.241-0.223,0.248c-0.13,0.007-0.241-0.092-0.248-0.222
				c-0.007-0.129,0.092-0.241,0.223-0.248C404.646,173.788,404.758,173.888,404.765,174.018"/>
			<path fill="#2874B3" d="M407.185,174.281c0.007,0.13-0.092,0.241-0.223,0.248c-0.13,0.007-0.24-0.093-0.247-0.223
				c-0.007-0.13,0.092-0.241,0.221-0.248C407.067,174.051,407.178,174.151,407.185,174.281"/>
			<path fill="#2874B3" d="M409.513,174.198c0.007,0.129-0.094,0.242-0.224,0.249s-0.24-0.094-0.247-0.223
				c-0.007-0.131,0.092-0.241,0.221-0.248C409.393,173.969,409.505,174.068,409.513,174.198"/>
			<path fill="#2874B3" d="M411.65,173.803c0.007,0.13-0.092,0.241-0.223,0.248c-0.129,0.007-0.24-0.093-0.247-0.223
				c-0.007-0.129,0.092-0.24,0.222-0.247C411.532,173.574,411.643,173.673,411.65,173.803"/>
			<path fill="#FFFFFF" d="M407.293,170.037c0.765,0.546,0.063,1.488-0.901,0.929C405.427,170.407,406.359,169.369,407.293,170.037"
				/>
			<path fill="#489B3B" d="M404.458,168.359c0.014,0.259-0.186,0.481-0.445,0.495s-0.481-0.185-0.496-0.444
				c-0.014-0.26,0.185-0.481,0.444-0.496C404.221,167.901,404.443,168.1,404.458,168.359"/>
			<path fill="#489B3B" d="M409.383,169.151c0.014,0.26-0.184,0.481-0.444,0.496s-0.482-0.185-0.497-0.445s0.186-0.481,0.445-0.495
				C409.148,168.693,409.369,168.891,409.383,169.151"/>
			<path fill="#FFFFFF" d="M412.388,173.862c0,0-0.051,0.038-0.142,0.108c-0.088,0.077-0.234,0.163-0.425,0.267
				c-0.385,0.203-0.97,0.419-1.691,0.593c-0.362,0.088-0.756,0.167-1.176,0.233c-0.127,0.019-0.256,0.037-0.388,0.057
				c-0.124,0.015-0.25,0.031-0.381,0.047l-0.004,0.003l-0.025,0.017l-0.057,0.038c-0.036,0.025-0.076,0.046-0.115,0.071
				c-0.081,0.045-0.165,0.09-0.25,0.13c-0.428,0.205-0.901,0.347-1.395,0.413c-0.493,0.067-1.003,0.06-1.5-0.015
				c-0.497-0.078-0.988-0.212-1.445-0.409c-0.455-0.202-0.875-0.471-1.217-0.806c-0.062-0.058-0.118-0.12-0.171-0.181
				c-0.026-0.033-0.054-0.062-0.077-0.095l-0.037-0.048l-0.016-0.023l-0.001-0.003c-0.124-0.072-0.244-0.142-0.361-0.208
				c-0.125-0.072-0.246-0.144-0.362-0.219c-0.363-0.223-0.699-0.445-0.995-0.669c-0.303-0.218-0.56-0.443-0.782-0.647
				c-0.217-0.212-0.396-0.406-0.523-0.584c-0.127-0.177-0.206-0.329-0.247-0.438c-0.042-0.109-0.041-0.172-0.041-0.172
				s0.004,0.063,0.055,0.167c0.047,0.104,0.139,0.247,0.276,0.41c0.137,0.165,0.327,0.343,0.549,0.539
				c0.232,0.188,0.497,0.394,0.803,0.596c0.305,0.206,0.645,0.413,1.009,0.623c0.118,0.069,0.24,0.137,0.367,0.204
				c0.134,0.073,0.272,0.148,0.413,0.225l0.045,0.064l0.032,0.041c0.021,0.028,0.048,0.056,0.071,0.083
				c0.05,0.055,0.104,0.111,0.16,0.164c0.324,0.304,0.726,0.548,1.156,0.739c0.432,0.185,0.902,0.311,1.377,0.383
				c0.475,0.075,0.959,0.084,1.427,0.024c0.469-0.055,0.922-0.182,1.329-0.368c0.082-0.037,0.16-0.077,0.236-0.118
				c0.037-0.021,0.076-0.041,0.11-0.063l0.051-0.032l0.074-0.05c0.081-0.007,0.16-0.013,0.236-0.02
				c0.069-0.007,0.136-0.014,0.201-0.02c0.131-0.013,0.259-0.028,0.384-0.043c0.419-0.055,0.811-0.114,1.172-0.185
				c0.722-0.141,1.309-0.319,1.702-0.491c0.194-0.089,0.347-0.164,0.439-0.231C412.334,173.896,412.388,173.862,412.388,173.862"/>
		</g>
	</g>
	<g clip-path="url(#SVGID_2_)">
		<defs>
			<polyline id="SVGID_18_" points="286.299,120.591 454.661,111.452 467.587,349.563 299.224,358.703 			"/>
		</defs>
		<clipPath id="SVGID_19_">
			<use xlink:href="#SVGID_18_"  overflow="visible"/>
		</clipPath>
	</g>
	<g clip-path="url(#SVGID_2_)">
		<defs>
			<polyline id="SVGID_20_" points="286.299,120.591 454.661,111.452 467.587,349.563 299.224,358.703 			"/>
		</defs>
		<clipPath id="SVGID_21_">
			<use xlink:href="#SVGID_20_"  overflow="visible"/>
		</clipPath>
	</g>
	<g clip-path="url(#SVGID_2_)">
		<defs>
			<polyline id="SVGID_22_" points="286.299,120.591 454.661,111.452 467.587,349.563 299.224,358.703 			"/>
		</defs>
		<clipPath id="SVGID_23_">
			<use xlink:href="#SVGID_22_"  overflow="visible"/>
		</clipPath>
	</g>
</g>
</svg>
