<?xml version="1.0" encoding="utf-8"?>
<!-- Generator: Adobe Illustrator 16.0.0, SVG Export Plug-In . SVG Version: 6.00 Build 0)  -->
<!DOCTYPE svg PUBLIC "-//W3C//DTD SVG 1.1//EN" "http://www.w3.org/Graphics/SVG/1.1/DTD/svg11.dtd">
<svg version="1.1" id="Layer_1" xmlns="http://www.w3.org/2000/svg" xmlns:xlink="http://www.w3.org/1999/xlink" x="0px" y="0px"
	 width="1400px" height="1400px" viewBox="0 0 1400 1400" enable-background="new 0 0 1400 1400" xml:space="preserve">
<g>
	<g>
		<g>
			<path fill="#441F52" d="M1369.324,1215.593c0-2.894-2.354-5.247-5.248-5.247h-7.062c-1,0-1.814-0.814-1.814-1.815
				s0.814-1.815,1.814-1.815h22.954c2.893,0,5.247-2.354,5.247-5.247s-2.354-5.247-5.247-5.247h-42.375
				c-1.001,0-1.816-0.813-1.816-1.815c0-1.001,0.815-1.815,1.816-1.815h8.828c2.894,0,5.247-2.354,5.247-5.247
				s-2.354-5.246-5.247-5.246h-54.735c-10.682-0.001-19.371,8.688-19.371,19.37c0,10.683,8.689,19.373,19.371,19.373h72.391
				C1366.97,1220.84,1369.324,1218.485,1369.324,1215.593z M1275.745,1201.467c0-8.789,7.151-15.94,15.94-15.94h54.734
				c1.002,0,1.816,0.815,1.816,1.815c0,1.002-0.814,1.816-1.816,1.816h-8.827c-2.894,0-5.247,2.354-5.247,5.246
				c0,2.894,2.354,5.247,5.247,5.247h42.374c1.002,0,1.816,0.814,1.816,1.815s-0.814,1.816-1.816,1.816h-22.953
				c-2.893,0-5.246,2.354-5.246,5.246s2.354,5.247,5.246,5.247h7.062c1.003,0,1.816,0.814,1.816,1.815
				c0,1.002-0.814,1.816-1.816,1.816h-72.391C1282.896,1217.408,1275.745,1210.258,1275.745,1201.467z"/>
			<path fill="#441F52" d="M1291.686,1189.158c-6.787,0-12.309,5.521-12.309,12.31c0,6.787,5.521,12.31,12.309,12.31
				s12.31-5.522,12.31-12.31C1303.995,1194.68,1298.473,1189.158,1291.686,1189.158z M1291.686,1210.346
				c-4.895,0-8.878-3.982-8.878-8.878s3.983-8.879,8.878-8.879c4.896,0,8.879,3.983,8.879,8.879
				S1296.581,1210.346,1291.686,1210.346z"/>
			<rect x="1304.046" y="1189.157" fill="#441F52" width="10.595" height="3.432"/>
			<rect x="1307.577" y="1199.752" fill="#441F52" width="21.188" height="3.431"/>
			<rect x="1302.279" y="1210.347" fill="#441F52" width="7.063" height="3.432"/>
			<rect x="1312.872" y="1210.347" fill="#441F52" width="26.485" height="3.432"/>
			<rect x="1318.17" y="1189.157" fill="#441F52" width="8.827" height="3.432"/>
			<rect x="1293.451" y="1175.033" fill="#441F52" width="7.062" height="3.431"/>
			<rect x="1304.046" y="1171.501" fill="#441F52" width="67.094" height="3.432"/>
			<rect x="1311.106" y="1226.236" fill="#441F52" width="15.89" height="3.432"/>
			<rect x="1330.531" y="1229.769" fill="#441F52" width="45.906" height="3.431"/>
			<rect x="1332.296" y="1162.673" fill="#441F52" width="51.204" height="3.431"/>
			<rect x="1365.842" y="1180.331" fill="#441F52" width="5.298" height="3.431"/>
			<rect x="1378.202" y="1185.626" fill="#441F52" width="7.062" height="3.431"/>
			<rect x="1376.438" y="1152.08" fill="#441F52" width="8.827" height="3.431"/>
			<rect x="1364.078" y="1155.612" fill="#441F52" width="5.297" height="3.431"/>
			<rect x="1339.357" y="1240.361" fill="#441F52" width="3.53" height="3.431"/>
			<rect x="1351.718" y="1240.361" fill="#441F52" width="33.548" height="3.431"/>
			<rect x="1374.67" y="1219.174" fill="#441F52" width="7.063" height="3.431"/>
			<rect x="1376.438" y="1256.253" fill="#441F52" width="8.827" height="3.431"/>
			<rect x="1365.842" y="1250.956" fill="#441F52" width="7.062" height="3.431"/>
		</g>
	</g>
</g>
<g>
	<g>
		<g>
			
				<rect x="60.713" y="1062.381" transform="matrix(-0.342 -0.9397 0.9397 -0.342 -906.9494 1493.049)" fill="#441F52" width="17.105" height="3.36"/>
			
				<rect x="47.339" y="1070.102" transform="matrix(-0.6428 -0.766 0.766 -0.6428 -729.1907 1803.5537)" fill="#441F52" width="17.105" height="3.361"/>
			
				<rect x="54.206" y="1131.376" transform="matrix(0.766 0.6428 -0.6428 0.766 745.8336 230.7899)" fill="#441F52" width="3.36" height="17.104"/>
			
				<rect x="67.581" y="1139.093" transform="matrix(0.9398 0.3417 -0.3417 0.9398 396.3153 45.41)" fill="#441F52" width="3.361" height="17.107"/>
			<rect x="82.796" y="1141.774" fill="#441F52" width="3.36" height="17.105"/>
			
				<rect x="91.138" y="1145.967" transform="matrix(0.342 0.9397 -0.9397 0.342 1144.0327 661.4559)" fill="#441F52" width="17.105" height="3.361"/>
			
				<rect x="104.506" y="1138.248" transform="matrix(0.6428 0.766 -0.766 0.6428 913.5631 320.5317)" fill="#441F52" width="17.104" height="3.36"/>
			
				<rect x="114.444" y="1126.415" transform="matrix(0.866 0.5 -0.5 0.866 580.5352 89.6418)" fill="#441F52" width="17.105" height="3.361"/>
			
				<rect x="119.722" y="1111.904" transform="matrix(0.9848 0.1736 -0.1736 0.9848 195.2175 -5.363)" fill="#441F52" width="17.105" height="3.361"/>
			
				<rect x="119.727" y="1096.449" transform="matrix(0.9848 -0.1736 0.1736 0.9848 -188.7116 38.9503)" fill="#441F52" width="17.105" height="3.361"/>
			
				<rect x="114.445" y="1081.937" transform="matrix(0.866 -0.5 0.5 0.866 -525.3501 206.6907)" fill="#441F52" width="17.105" height="3.36"/>
			
				<rect x="111.38" y="1063.23" transform="matrix(-0.766 -0.6428 0.6428 -0.766 -489.286 1965.4717)" fill="#441F52" width="3.36" height="17.105"/>
			
				<rect x="98.01" y="1055.506" transform="matrix(-0.9397 -0.342 0.342 -0.9397 -170.5902 2098.0361)" fill="#441F52" width="3.36" height="17.106"/>
			<rect x="82.796" y="1052.828" fill="#441F52" width="3.36" height="17.105"/>
			<path fill="#441F52" d="M46.04,1097.271c2.813,0,5.102-2.288,5.102-5.102c0-2.812-2.289-5.102-5.102-5.102
				s-5.102,2.289-5.102,5.102C40.938,1094.983,43.227,1097.271,46.04,1097.271z M46.04,1090.43c0.96,0,1.741,0.78,1.741,1.741
				c0,0.959-0.781,1.74-1.741,1.74s-1.741-0.781-1.741-1.74C44.298,1091.21,45.08,1090.43,46.04,1090.43z"/>
			<rect x="51.17" y="1097.331" fill="#441F52" width="3.421" height="3.361"/>
			<path fill="#441F52" d="M51.201,1115.263c0,3.284,2.672,5.956,5.957,5.956c3.284,0,5.957-2.672,5.957-5.956
				s-2.672-5.957-5.957-5.957C53.874,1109.306,51.201,1111.978,51.201,1115.263z M59.754,1115.263c0,1.432-1.165,2.596-2.596,2.596
				c-1.432,0-2.596-1.165-2.596-2.596c0-1.432,1.165-2.597,2.596-2.597S59.754,1113.831,59.754,1115.263z"/>
			<rect x="63.145" y="1107.595" fill="#441F52" width="3.421" height="3.361"/>
			<rect x="44.328" y="1111.016" fill="#441F52" width="3.421" height="3.361"/>
			<path fill="#441F52" d="M60.585,1127.839c6.142,6.671,14.813,10.485,23.891,10.485c17.904,0,32.47-14.565,32.47-32.47
				s-14.566-32.47-32.47-32.47c-9.078,0-17.749,3.815-23.891,10.485c-2.891-1.243-6.073-1.933-9.415-1.933
				c-13.188,0-23.917,10.729-23.917,23.917c0,13.188,10.729,23.917,23.917,23.917C54.512,1129.771,57.694,1129.082,60.585,1127.839z
				 M84.477,1076.745c16.051,0,29.109,13.059,29.109,29.109c0,16.052-13.058,29.108-29.109,29.108
				c-7.833,0-15.329-3.167-20.79-8.735c6.835-4.216,11.401-11.771,11.401-20.373c0-8.604-4.566-16.158-11.401-20.373
				C69.147,1079.913,76.644,1076.745,84.477,1076.745z M32.325,1110.986c0-1.903,1.548-3.452,3.451-3.452
				c1.903,0,3.451,1.549,3.451,3.452s-1.548,3.45-3.451,3.45C33.874,1114.437,32.325,1112.89,32.325,1110.986z M34.341,1117.645
				c0.463,0.1,0.943,0.153,1.435,0.153c3.756,0,6.812-3.056,6.812-6.812c0-3.757-3.056-6.812-6.812-6.812
				c-2.055,0-3.899,0.916-5.149,2.359c-0.007-0.226-0.013-0.453-0.013-0.68c0-11.335,9.222-20.557,20.557-20.557
				c11.334,0,20.557,9.222,20.557,20.557s-9.222,20.557-20.557,20.557C44.219,1126.411,38.064,1122.941,34.341,1117.645z"/>
			<rect x="40.908" y="1117.858" fill="#441F52" width="3.421" height="3.36"/>
			<rect x="47.75" y="1121.279" fill="#441F52" width="3.421" height="3.36"/>
			<rect x="54.591" y="1092.201" fill="#441F52" width="3.421" height="3.36"/>
			<rect x="63.145" y="1095.622" fill="#441F52" width="3.421" height="3.36"/>
			<rect x="34.066" y="1097.331" fill="#441F52" width="3.421" height="3.361"/>
			<rect x="40.908" y="1100.753" fill="#441F52" width="3.421" height="3.36"/>
		</g>
	</g>
</g>
<g>
	<g>
		<g>
			<path fill="#441F52" d="M1348.531,523.306c0-3.221-2.62-5.841-5.841-5.841s-5.841,2.62-5.841,5.841
				c0,3.22,2.62,5.841,5.841,5.841C1345.912,529.147,1348.531,526.526,1348.531,523.306z M1342.69,526.328
				c-1.666,0-3.021-1.356-3.021-3.021c0-1.667,1.355-3.022,3.021-3.022c1.667,0,3.021,1.355,3.021,3.022
				C1345.712,524.972,1344.357,526.328,1342.69,526.328z"/>
			<path fill="#441F52" d="M1326.374,558.758c0-2.407-1.957-4.365-4.364-4.365c-2.406,0-4.362,1.958-4.362,4.365
				c0,2.406,1.956,4.364,4.362,4.364C1324.417,563.122,1326.374,561.164,1326.374,558.758z M1320.466,558.758
				c0-0.853,0.693-1.545,1.544-1.545c0.852,0,1.545,0.692,1.545,1.545c0,0.852-0.693,1.544-1.545,1.544
				C1321.159,560.302,1320.466,559.609,1320.466,558.758z"/>
			<path fill="#441F52" d="M1326.441,586.891c-3.221,0-5.84,2.62-5.84,5.842c0,3.221,2.619,5.841,5.84,5.841
				c3.222,0,5.842-2.62,5.842-5.841C1332.283,589.511,1329.662,586.891,1326.441,586.891z M1326.441,595.754
				c-1.666,0-3.021-1.355-3.021-3.021c0-1.667,1.355-3.022,3.021-3.022c1.667,0,3.022,1.355,3.022,3.022
				C1329.464,594.398,1328.108,595.754,1326.441,595.754z"/>
			<path fill="#441F52" d="M1357.463,572.119c-4.851,0-8.796,3.946-8.796,8.795s3.945,8.796,8.796,8.796
				c4.849,0,8.795-3.946,8.795-8.796S1362.312,572.119,1357.463,572.119z M1357.463,586.891c-3.296,0-5.977-2.681-5.977-5.976
				c0-3.295,2.681-5.976,5.977-5.976c3.295,0,5.976,2.681,5.976,5.976C1363.438,584.21,1360.758,586.891,1357.463,586.891z"/>
			<path fill="#441F52" d="M1347.189,543.986c0,2.406,1.958,4.364,4.364,4.364s4.363-1.958,4.363-4.364
				c0-2.407-1.957-4.365-4.363-4.365S1347.189,541.58,1347.189,543.986z M1351.554,542.441c0.852,0,1.544,0.693,1.544,1.544
				c0,0.853-0.692,1.545-1.544,1.545c-0.853,0-1.545-0.693-1.545-1.545C1350.009,543.134,1350.701,542.441,1351.554,542.441z"/>
			<path fill="#441F52" d="M1370.205,525.333c-8.928-8.928-20.797-13.845-33.424-13.845c-12.626,0-24.496,4.917-33.424,13.845
				s-13.845,20.798-13.845,33.424c0,12.625,4.917,24.496,13.845,33.424s20.798,13.845,33.424,13.845
				c8.291,0,16.447-2.178,23.588-6.296c6.926-3.996,12.771-9.728,16.906-16.575c4.433-7.341,6.775-15.777,6.775-24.398
				C1384.051,546.131,1379.134,534.261,1370.205,525.333z M1375.256,539.554c0,3.295-2.681,5.976-5.977,5.976
				c-3.295,0-5.977-2.681-5.977-5.976s2.682-5.976,5.977-5.976C1372.575,533.578,1375.256,536.259,1375.256,539.554z
				 M1304.284,536.532c4.925,0,8.932,4.007,8.932,8.931c0,4.924-4.007,8.93-8.932,8.93c-4.923,0-8.93-4.006-8.93-8.93
				C1295.354,540.539,1299.36,536.532,1304.284,536.532z M1299.785,580.915c0-0.852,0.692-1.545,1.545-1.545
				c0.852,0,1.545,0.693,1.545,1.545c0,0.852-0.693,1.544-1.545,1.544C1300.478,582.459,1299.785,581.767,1299.785,580.915z
				 M1374.746,581.629c-3.876,6.421-9.358,11.795-15.854,15.542c-6.691,3.86-14.338,5.901-22.111,5.901
				c-11.836,0-22.964-4.609-31.335-12.979c-1.518-1.518-2.91-3.128-4.176-4.816c0.02,0,0.04,0.001,0.06,0.001
				c2.406,0,4.364-1.958,4.364-4.364s-1.958-4.364-4.364-4.364c-1.748,0-3.257,1.033-3.954,2.52
				c-3.207-6.205-4.909-13.128-4.909-20.314c0-3.043,0.308-6.039,0.902-8.954c1.73,4.336,5.969,7.409,10.915,7.409
				c6.479,0,11.751-5.271,11.751-11.75c0-6.479-5.271-11.75-11.751-11.75c-1.688,0-3.291,0.361-4.743,1.004
				c1.688-2.603,3.66-5.049,5.905-7.295c8.371-8.369,19.499-12.979,31.335-12.979c11.838,0,22.967,4.61,31.336,12.979
				c1.144,1.144,2.214,2.34,3.215,3.581c-0.658-0.158-1.346-0.244-2.053-0.244c-4.85,0-8.795,3.945-8.795,8.795
				c0,4.85,3.945,8.795,8.795,8.795c4.057,0,7.479-2.761,8.49-6.501c2.182,5.292,3.327,11.012,3.327,16.909
				C1381.097,566.84,1378.9,574.748,1374.746,581.629z"/>
			<rect x="1295.421" y="560.303" fill="#441F52" width="2.955" height="2.819"/>
			<rect x="1324.965" y="538.077" fill="#441F52" width="2.954" height="2.954"/>
			<rect x="1355.985" y="526.327" fill="#441F52" width="2.953" height="2.819"/>
			<rect x="1336.782" y="551.372" fill="#441F52" width="2.955" height="2.954"/>
			<rect x="1355.985" y="558.825" fill="#441F52" width="2.953" height="2.819"/>
			<rect x="1372.235" y="552.917" fill="#441F52" width="2.954" height="2.819"/>
			<rect x="1372.235" y="570.643" fill="#441F52" width="2.954" height="2.819"/>
			<rect x="1338.258" y="566.142" fill="#441F52" width="2.955" height="2.955"/>
			<rect x="1320.533" y="572.051" fill="#441F52" width="2.955" height="2.954"/>
			<rect x="1335.304" y="585.346" fill="#441F52" width="2.956" height="2.954"/>
			<rect x="1345.645" y="594.277" fill="#441F52" width="2.953" height="2.818"/>
			<rect x="1308.717" y="580.915" fill="#441F52" width="2.954" height="2.955"/>
			<rect x="1313.148" y="527.737" fill="#441F52" width="2.954" height="2.954"/>
			<rect x="1327.918" y="518.875" fill="#441F52" width="2.955" height="2.954"/>
		</g>
	</g>
</g>
<g>
	<g>
		<path fill="#441F52" d="M1375.87,802.083c0-8.883-17.266-14.203-34.063-16.33c-6.483-11.513-18.822-19.308-32.95-19.308
			c-17.048,0-31.492,11.349-36.183,26.887c-4.488,2.589-6.763,5.529-6.763,8.751c0,2.926,1.894,5.632,5.618,8.049
			c2.841,18.045,18.497,31.891,37.327,31.891c15.937,0,29.6-9.917,35.145-23.903c3.975-0.564,7.712-1.274,11.129-2.113
			c1.549,2.215,4.117,3.667,7.02,3.667c4.721,0,8.562-3.841,8.562-8.562c0-0.414-0.031-0.822-0.088-1.222
			C1374.105,807.533,1375.87,804.911,1375.87,802.083z M1271.068,804.233c0,0.435,0.011,0.866,0.024,1.296
			c-1.035-1.009-1.809-2.186-1.809-3.446c0-1.243,0.787-2.559,2.264-3.856C1271.233,800.184,1271.068,802.189,1271.068,804.233z
			 M1308.856,769.818c4.637,0,9.062,0.924,13.103,2.594c-2.647,1.453-7.287,2.629-13.103,2.629c-5.814,0-10.455-1.176-13.103-2.629
			C1299.794,770.742,1304.22,769.818,1308.856,769.818z M1292.257,774.096c3.178,2.639,9.443,4.318,16.6,4.318
			s13.422-1.682,16.599-4.319c2.759,1.525,5.286,3.418,7.517,5.612c-3.766,3.357-12.722,5.648-22.396,5.648
			c-6.678,0-12.932-1.029-17.607-2.9c-3.277-1.31-5.488-2.955-6.224-4.57C1288.45,776.451,1290.295,775.181,1292.257,774.096z
			 M1284.205,780.245c1.348,2.065,3.901,3.899,7.511,5.342c5.063,2.026,11.762,3.142,18.859,3.142
			c10.759,0,20.21-2.539,24.682-6.546c1.697,2.027,3.164,4.252,4.362,6.634l-0.008,0.071c0.015,0.001,0.03,0.003,0.045,0.005
			c1.733,3.466,2.899,7.264,3.374,11.27c-5.139,5.489-18.923,9.263-34.174,9.263c-15.25,0-29.035-3.773-34.173-9.263
			C1275.595,792.461,1279.06,785.531,1284.205,780.245z M1308.856,838.649c-7.248,0-13.978-2.254-19.529-6.096
			c5.822,1.453,12.582,2.248,19.529,2.248s13.707-0.795,19.529-2.248C1322.834,836.396,1316.104,838.649,1308.856,838.649z
			 M1334.712,826.921c-6.62,2.867-16.01,4.508-25.855,4.508s-19.236-1.641-25.855-4.508c-3.637-4.139-6.297-9.155-7.619-14.687
			c9.997,4.637,26.862,7.439,45.509,7.439c6.655,0,13.104-0.359,19.229-1.06C1338.719,821.646,1336.89,824.441,1334.712,826.921z
			 M1341.53,815.045c-6.525,0.83-13.457,1.256-20.641,1.256c-19.391,0-37.291-3.204-46.232-8.218
			c-0.134-1.202-0.207-2.422-0.214-3.658c6.825,5.108,19.866,8.372,34.413,8.372c14.546,0,27.588-3.264,34.412-8.372
			C1343.249,808.132,1342.64,811.7,1341.53,815.045z M1362.149,816.301c-2.862,0-5.19-2.329-5.19-5.19c0-2.862,2.328-5.19,5.19-5.19
			c2.861,0,5.189,2.328,5.189,5.19C1367.339,813.972,1365.011,816.301,1362.149,816.301z M1369.425,806.602
			c-1.512-2.431-4.207-4.055-7.275-4.055c-4.722,0-8.563,3.842-8.563,8.563c0,0.602,0.063,1.188,0.182,1.755
			c-2.663,0.637-5.527,1.192-8.548,1.663c0.928-3.274,1.425-6.728,1.425-10.295c0-5.264-1.083-10.279-3.037-14.837
			c18.985,2.701,28.89,8.28,28.89,12.688C1372.496,803.822,1371.023,805.4,1369.425,806.602z"/>
	</g>
</g>
<g>
	<g>
		<g>
			
				<rect x="51.752" y="483.269" transform="matrix(-0.7071 -0.7071 0.7071 -0.7071 -251.6695 865.8352)" fill="#441F52" width="3.467" height="3.542"/>
			
				<rect x="54.888" y="492.212" transform="matrix(0.7072 0.707 -0.707 0.7072 371.4785 106.9491)" fill="#441F52" width="3.468" height="19.48"/>
			
				<rect x="83.694" y="520.582" transform="matrix(0.7072 0.707 -0.707 0.7072 394.9211 92.7847)" fill="#441F52" width="3.469" height="5.313"/>
			<path fill="#441F52" d="M94.787,468.789c-7.611-7.611-17.603-11.974-28.294-12.401v-28.409h-3.468v28.41
				c-10.692,0.426-20.684,4.79-28.294,12.4c-8.022,8.021-12.439,18.685-12.439,30.028c0,11.343,4.417,22.007,12.439,30.028
				c8.279,8.279,19.153,12.418,30.028,12.418c10.875,0,21.75-4.14,30.028-12.418c8.021-8.021,12.438-18.685,12.438-30.028
				C107.225,487.475,102.808,476.81,94.787,468.789z M91.03,520.08l11.5-11.5c-1.715,6.681-5.189,12.808-10.195,17.813
				c-7.604,7.604-17.588,11.405-27.576,11.404c-4.729,0-9.457-0.854-13.933-2.559l43.961-43.961l-2.453-2.452l-44.922,44.922
				c-3.694-1.832-7.157-4.281-10.229-7.354c-3.959-3.959-6.96-8.62-8.892-13.702l22.667-22.667l-2.452-2.452l-21.412,21.411
				c-0.878-3.275-1.334-6.686-1.334-10.167c0-10.417,4.057-20.21,11.422-27.577c5.005-5.004,11.132-8.48,17.813-10.194
				L40.992,475.05l2.452,2.452l17.5-17.5c1.26-0.122,2.532-0.184,3.814-0.184c8.637,0,16.843,2.791,23.595,7.942L64.784,491.33
				l2.453,2.453l23.789-23.79c0.444,0.406,0.881,0.821,1.309,1.249c7.366,7.366,11.422,17.159,11.422,27.577
				c0,1.282-0.062,2.554-0.183,3.813l-14.996,14.996L91.03,520.08z"/>
			<path fill="#441F52" d="M82.505,445.688c0,2.91,2.366,5.276,5.276,5.276h14.803l-2.349-7.047l2.349-7.046H87.781
				c-0.998,0-1.808-0.811-1.808-1.808c0-2.909-2.367-5.276-5.276-5.276H68.3v3.468h12.396c0.997,0,1.808,0.811,1.808,1.808v5.67
				c-0.564-0.207-1.174-0.32-1.808-0.32H68.3v3.468h12.396C81.694,443.88,82.505,444.69,82.505,445.688z M85.973,440.019
				c0.564,0.206,1.173,0.319,1.808,0.319h9.991l-1.193,3.579l1.193,3.579h-9.991c-0.998,0-1.808-0.812-1.808-1.808V440.019z"/>
		</g>
	</g>
</g>
<g>
	<g>
		<g>
			<path fill="#441F52" d="M46.618,766.508c-3.176,0-5.76,2.584-5.76,5.76s2.584,5.76,5.76,5.76c3.177,0,5.76-2.584,5.76-5.76
				S49.794,766.508,46.618,766.508z M46.618,775.588c-1.831,0-3.32-1.489-3.32-3.32s1.49-3.32,3.32-3.32
				c1.831,0,3.321,1.489,3.321,3.32S48.449,775.588,46.618,775.588z"/>
			<path fill="#441F52" d="M80.033,762.438v-11.221h-2.44v11.221c-1.313,0.117-2.572,0.423-3.751,0.888v-4.679h-2.439v5.938
				c-3.724,2.431-6.191,6.631-6.191,11.398c0,7.5,6.102,13.603,13.602,13.603c7.501,0,13.604-6.103,13.604-13.603
				C92.416,768.893,86.964,763.057,80.033,762.438z M78.813,787.146c-6.155,0-11.163-5.008-11.163-11.163
				c0-3.312,1.453-6.292,3.752-8.337v2.146h2.439v-3.799c1.153-0.576,2.417-0.959,3.752-1.104v8.618h2.44v-8.618
				c5.583,0.609,9.943,5.352,9.943,11.095C89.976,782.138,84.968,787.146,78.813,787.146z"/>
			<path fill="#441F52" d="M108.532,749.997c-2.039,0-3.697,1.657-3.697,3.697c0,2.038,1.658,3.696,3.697,3.696
				c2.038,0,3.696-1.658,3.696-3.696C112.229,751.654,110.57,749.997,108.532,749.997z M108.532,754.95
				c-0.693,0-1.257-0.564-1.257-1.257c0-0.693,0.564-1.257,1.257-1.257s1.256,0.563,1.256,1.257
				C109.789,754.386,109.225,754.95,108.532,754.95z"/>
			<path fill="#441F52" d="M112.866,720.897c-1.697,0-3.077,1.381-3.077,3.077v6.811c0,0.352-0.286,0.638-0.637,0.638
				c-0.352,0-0.638-0.286-0.638-0.638v-0.618c0-2.039-1.658-3.698-3.696-3.698s-3.696,1.658-3.696,3.698v23.526
				c0,4.086,3.325,7.411,7.411,7.411c4.087,0,7.412-3.325,7.412-7.411v-29.719C115.943,722.278,114.563,720.897,112.866,720.897z
				 M113.503,753.693c0,2.741-2.23,4.972-4.971,4.972c-2.742,0-4.972-2.23-4.972-4.972v-23.526c0-0.693,0.564-1.258,1.257-1.258
				s1.257,0.564,1.257,1.258v0.618c0,1.697,1.38,3.078,3.077,3.078c1.696,0,3.077-1.381,3.077-3.078v-6.811
				c0-0.352,0.287-0.637,0.638-0.637c0.351,0,0.637,0.285,0.637,0.637V753.693z"/>
			<path fill="#441F52" d="M51.571,730.185c-2.721,0-4.934,2.214-4.934,4.935v11.145c0,0.693-0.564,1.257-1.257,1.257
				c-0.693,0-1.257-0.563-1.257-1.257v-2.477c0-2.038-1.658-3.696-3.696-3.696c-2.038,0-3.696,1.658-3.696,3.696v28.48
				c0,5.452,4.436,9.889,9.888,9.889c5.453,0,9.888-4.437,9.888-9.889v-37.148C56.506,732.398,54.292,730.185,51.571,730.185z
				 M54.066,772.268c0,4.106-3.341,7.448-7.448,7.448s-7.448-3.341-7.448-7.448v-28.48c0-0.692,0.563-1.257,1.256-1.257
				c0.693,0,1.257,0.564,1.257,1.257v2.477c0,2.038,1.658,3.696,3.696,3.696s3.697-1.657,3.697-3.696v-11.145
				c0-1.376,1.119-2.494,2.495-2.494c1.376,0,2.495,1.118,2.495,2.494V772.268L54.066,772.268z"/>
			<rect x="40.445" y="752.455" fill="#441F52" width="2.439" height="11.145"/>
			<rect x="45.398" y="758.646" fill="#441F52" width="2.44" height="6.19"/>
			<rect x="50.351" y="748.741" fill="#441F52" width="2.44" height="12.383"/>
			<path fill="#441F52" d="M92.434,722.755c-2.721,0-4.935,2.214-4.935,4.935v6.191c0,1.376-1.119,2.495-2.495,2.495h-2.477
				c-2.721,0-4.935,2.213-4.935,4.935v3.715c0,1.375-1.12,2.494-2.495,2.494c-1.376,0-2.495-1.119-2.495-2.494v-23.527
				c0-3.403-2.769-6.173-6.173-6.173s-6.173,2.77-6.173,6.173v54.484c0,10.231,8.324,18.556,18.556,18.556
				c10.232,0,18.556-8.324,18.556-18.556v-48.293C97.369,724.969,95.155,722.755,92.434,722.755z M94.93,775.982L94.93,775.982
				c0,8.887-7.23,16.116-16.117,16.116c-8.886,0-16.116-7.229-16.116-16.116v-54.484c0-2.059,1.675-3.733,3.733-3.733
				s3.733,1.676,3.733,3.733v23.527c0,2.722,2.214,4.935,4.935,4.935c2.721,0,4.935-2.213,4.935-4.935v-3.715
				c0-1.375,1.119-2.495,2.495-2.495h2.477c2.721,0,4.935-2.214,4.935-4.935v-6.191c0-1.375,1.119-2.494,2.495-2.494
				s2.495,1.119,2.495,2.494L94.93,775.982L94.93,775.982z"/>
			<rect x="85.022" y="743.786" fill="#441F52" width="2.44" height="16.099"/>
			<rect x="89.976" y="761.122" fill="#441F52" width="2.439" height="4.953"/>
			<rect x="65.211" y="742.549" fill="#441F52" width="2.44" height="23.528"/>
			<rect x="81.307" y="775.982" fill="#441F52" width="2.44" height="3.715"/>
			<rect x="104.835" y="738.834" fill="#441F52" width="2.439" height="9.906"/>
			<rect x="109.788" y="735.119" fill="#441F52" width="2.44" height="13.621"/>
		</g>
	</g>
</g>
<g>
	<g>
		<g>
			<rect x="96.395" y="52.477" fill="#412664" width="2.841" height="2.84"/>
			<rect x="93.556" y="56.738" fill="#412664" width="2.84" height="2.84"/>
			<path fill="#412664" d="M99.236,43.956c-6.265,0-11.362,5.097-11.362,11.362c0,6.265,5.097,11.362,11.362,11.362
				s11.361-5.097,11.361-11.362S105.501,43.956,99.236,43.956z M101.132,59.578h-3.316v2.84h1.816
				c-0.309,0.46-0.651,0.925-1.034,1.394c-4.401-0.328-7.883-4.011-7.883-8.495c0-0.996,0.173-1.951,0.488-2.84h3.772v-2.841h-2.083
				c1.436-1.602,3.468-2.657,5.743-2.816C99.909,48.298,103.576,53.304,101.132,59.578z M102.514,63.182
				c2.917-4.854,2.549-9.258,1.572-12.304c-0.42-1.309-0.977-2.458-1.536-3.412c3.057,1.295,5.208,4.327,5.208,7.851
				C107.757,58.855,105.59,61.895,102.514,63.182z"/>
			<rect x="69.412" y="87.983" fill="#412664" width="8.521" height="2.84"/>
			<rect x="36.746" y="102.185" fill="#412664" width="8.521" height="2.84"/>
			<rect x="31.066" y="102.185" fill="#412664" width="2.84" height="2.84"/>
			<rect x="55.21" y="116.387" fill="#412664" width="12.781" height="2.84"/>
			<rect x="39.587" y="80.881" fill="#412664" width="9.941" height="2.84"/>
			<rect x="48.108" y="73.781" fill="#412664" width="5.681" height="2.841"/>
			<path fill="#412664" d="M55.209,62.418c-19.578,0-35.505,15.928-35.505,35.505c0,11.591,5.584,21.902,14.202,28.387v0.018h0.024
				c5.934,4.457,13.303,7.101,21.279,7.101c11.591,0,21.902-5.584,28.386-14.202h0.018v-0.024
				c4.458-5.934,7.102-13.304,7.102-21.279C90.715,78.346,74.787,62.418,55.209,62.418z M87.596,102.185H48.108v2.84h38.987
				c-0.92,4.135-2.626,7.978-4.954,11.362h-9.89v2.84h7.7c-5.995,6.953-14.864,11.362-24.743,11.362
				c-5.856,0-11.357-1.551-16.115-4.261h13.275v-2.84h-17.47c-3.409-2.714-6.266-6.094-8.371-9.941h25.84v-2.841H25.15
				c-1.677-3.928-2.605-8.248-2.605-12.782c0-2.438,0.271-4.814,0.779-7.101h43.247v-2.841H24.093
				c1.353-4.224,3.542-8.077,6.375-11.361h11.96V73.78H33.23c5.807-5.291,13.522-8.521,21.979-8.521c3.315,0,6.516,0.498,9.533,1.42
				h-6.692v2.84h13.275c2.113,1.204,4.079,2.634,5.864,4.261H62.311v2.841h17.64c4.935,5.723,7.924,13.17,7.924,21.303
				C87.875,99.368,87.779,100.79,87.596,102.185z"/>
			<rect x="80.772" y="87.983" fill="#412664" width="2.841" height="2.84"/>
		</g>
	</g>
</g>
<g>
	<g>
		<g>
			
				<rect x="1302.917" y="74.061" transform="matrix(0.7072 -0.707 0.707 0.7072 328.4279 944.6747)" fill="#432664" width="3.555" height="3.548"/>
			
				<rect x="1307.935" y="79.086" transform="matrix(0.7071 -0.7071 0.7071 0.7071 326.4292 949.7894)" fill="#432664" width="3.553" height="3.549"/>
			
				<rect x="1312.955" y="84.105" transform="matrix(0.7071 -0.7071 0.7071 0.7071 324.3504 954.8093)" fill="#432664" width="3.553" height="3.549"/>
			<path fill="#432664" d="M1269.554,98.427l22.59,22.59l35.138-35.138l-22.59-22.59L1269.554,98.427z M1292.144,115.991
				l-17.564-17.564l20.074-20.074l17.563,17.564L1292.144,115.991z M1322.256,85.879l-7.525,7.525l-17.564-17.564l7.525-7.525
				L1322.256,85.879z"/>
			<path fill="#432664" d="M1265.79,102.193l4.19,4.191c-0.554-0.058-1.113-0.089-1.678-0.089c-4.268,0-8.278,1.661-11.296,4.679
				c-5.831,5.831-7.833,26.379-8.042,28.703l-0.19,2.12l2.119-0.191c2.324-0.208,22.873-2.211,28.704-8.042
				c3.017-3.017,4.679-7.028,4.679-11.295c0-0.565-0.031-1.125-0.089-1.679l4.189,4.19l2.514-2.514l-22.587-22.586L1265.79,102.193z
				 M1272.069,113.486c0.669-0.67,1.56-1.039,2.507-1.039s1.838,0.369,2.508,1.039c0.67,0.67,1.038,1.561,1.038,2.508
				c0,0.947-0.368,1.838-1.038,2.508l0,0c-0.671,0.67-1.561,1.04-2.508,1.04c-0.948,0-1.838-0.37-2.507-1.04
				c-0.671-0.67-1.04-1.561-1.04-2.508C1271.029,115.047,1271.398,114.157,1272.069,113.486z M1269.555,121.015
				c1.342,1.341,3.125,2.081,5.021,2.081s3.68-0.739,5.021-2.08c0.34-0.34,0.641-0.708,0.9-1.101
				c0.146,0.768,0.224,1.555,0.224,2.354c0,3.317-1.292,6.436-3.638,8.781c-3.739,3.74-17.291,5.981-24.349,6.792
				c0.251-2.146,0.714-5.655,1.43-9.396c1.468-7.662,3.37-12.975,5.355-14.96c2.346-2.346,5.465-3.638,8.782-3.638
				c0.799,0,1.586,0.077,2.353,0.224c-0.391,0.261-0.761,0.561-1.101,0.901c-1.341,1.341-2.079,3.125-2.079,5.021
				C1267.476,117.891,1268.215,119.674,1269.555,121.015z"/>
			<path fill="#432664" d="M1308.454,64.545l2.513,2.513l16.312-16.311l12.544,12.544l-16.311,16.311l2.514,2.513l26.353-26.353
				l-17.571-17.57L1308.454,64.545z M1347.352,55.764l-5.016,5.015l-12.544-12.544l5.016-5.016L1347.352,55.764z"/>
			<polygon fill="#432664" points="1362.411,25.646 1352.813,35.244 1341.52,36.499 1338.57,39.449 1341.083,41.962 
				1343.151,39.894 1351.618,38.952 1350.677,47.419 1348.608,49.487 1351.122,52 1354.072,49.05 1355.327,37.757 1364.924,28.159 
							"/>
			
				<rect x="1344.32" y="42.693" transform="matrix(-0.707 0.7072 -0.7072 -0.707 2329.1958 -876.1155)" fill="#432664" width="3.554" height="3.549"/>
			
				<rect x="1336.795" y="50.219" transform="matrix(-0.7072 -0.707 0.707 -0.7072 2248.4092 1035.1866)" fill="#432664" width="3.549" height="3.555"/>
		</g>
	</g>
</g>
<g>
	<g>
		<g>
			<path fill="#34245D" d="M54.4,267.847h-2.46c0,1.978-1.962,3.587-4.374,3.587v2.017c2.412,0,4.374,1.608,4.374,3.588h2.46
				c0-1.979,1.962-3.588,4.375-3.588v-2.017C56.363,271.434,54.4,269.825,54.4,267.847z M53.17,273.834
				c-0.462-0.542-1.036-1.013-1.697-1.391c0.661-0.379,1.235-0.851,1.697-1.392c0.462,0.542,1.036,1.013,1.697,1.392
				C54.207,272.821,53.633,273.292,53.17,273.834z"/>
			<path fill="#34245D" d="M57.53,289.303c-5.502,0-9.979-3.67-9.979-8.182H45.09c0,4.512-4.477,8.182-9.978,8.182v2.018
				c5.501,0,9.978,3.67,9.978,8.182h2.461c0-4.512,4.477-8.182,9.979-8.182V289.303z M46.321,295.082
				c-1.225-2.078-3.283-3.766-5.818-4.77c2.535-1.004,4.592-2.691,5.818-4.77c1.224,2.079,3.282,3.766,5.817,4.77
				C49.604,291.316,47.545,293.004,46.321,295.082z"/>
			<path fill="#34245D" d="M109.822,267.847h-2.461c0,2.259-2.241,4.097-4.997,4.097v2.017c2.756,0,4.997,1.838,4.997,4.098h2.461
				c0-2.259,2.242-4.098,4.996-4.098v-2.017C112.063,271.944,109.822,270.106,109.822,267.847z M108.592,274.698
				c-0.559-0.692-1.283-1.287-2.128-1.745c0.845-0.458,1.569-1.052,2.128-1.745c0.558,0.693,1.282,1.287,2.128,1.745
				C109.874,273.411,109.149,274.006,108.592,274.698z"/>
			<path fill="#34245D" d="M72.474,277.05v2.016c2.755,0,4.998,1.838,4.998,4.098h2.459c0-2.259,2.242-4.098,4.998-4.098v-2.016
				c-2.756,0-4.998-1.838-4.998-4.097h-2.459C77.472,275.212,75.229,277.05,72.474,277.05z M78.702,276.313
				c0.558,0.693,1.283,1.287,2.128,1.746c-0.845,0.457-1.57,1.052-2.128,1.744c-0.558-0.692-1.284-1.288-2.128-1.744
				C77.418,277.601,78.144,277.007,78.702,276.313z"/>
			<path fill="#34245D" d="M40.11,257.629h2.459c0-2.259,2.242-4.097,4.997-4.097v-2.018c-2.755,0-4.997-1.837-4.997-4.097H40.11
				c0,2.259-2.242,4.097-4.998,4.097v2.018C37.868,253.532,40.11,255.37,40.11,257.629z M41.339,250.778
				c0.558,0.692,1.283,1.287,2.128,1.745c-0.845,0.458-1.571,1.053-2.128,1.746c-0.558-0.692-1.283-1.287-2.128-1.746
				C40.056,252.065,40.782,251.471,41.339,250.778z"/>
			<path fill="#34245D" d="M89.926,256.615h2.459c0-2.26,2.241-4.098,4.997-4.098v-2.017c-2.756,0-4.997-1.838-4.997-4.098h-2.459
				c0,2.259-2.242,4.098-4.998,4.098v2.017C87.683,252.518,89.926,254.355,89.926,256.615z M91.156,249.764
				c0.559,0.693,1.283,1.287,2.128,1.745c-0.845,0.458-1.569,1.053-2.128,1.746c-0.559-0.693-1.283-1.287-2.129-1.746
				C89.873,251.051,90.597,250.457,91.156,249.764z"/>
			<path fill="#34245D" d="M63.742,301.545h-2.46c0,2.258-2.242,4.096-4.997,4.096v2.017c2.755,0,4.997,1.838,4.997,4.098h2.46
				c0-2.259,2.242-4.098,4.996-4.098v-2.017C65.983,305.642,63.742,303.804,63.742,301.545z M62.511,308.396
				c-0.558-0.693-1.282-1.288-2.128-1.745c0.846-0.458,1.57-1.053,2.128-1.746c0.559,0.693,1.284,1.288,2.129,1.746
				C63.795,307.107,63.069,307.702,62.511,308.396z"/>
			<path fill="#34245D" d="M91.14,283.164h-2.459c0,7.327-7.271,13.287-16.207,13.287v2.018c8.936,0,16.207,5.96,16.207,13.287
				h2.459c0-7.327,7.27-13.287,16.206-13.287v-2.018C98.41,296.451,91.14,290.491,91.14,283.164z M89.91,306.291
				c-1.894-4.05-5.831-7.277-10.77-8.831c4.939-1.554,8.876-4.781,10.77-8.831c1.895,4.049,5.831,7.277,10.771,8.831
				C95.741,299.013,91.806,302.24,89.91,306.291z"/>
			<path fill="#34245D" d="M61.281,269.89h2.46c0-5.638,5.594-10.224,12.469-10.224v-2.018c-6.875,0-12.469-4.586-12.469-10.224
				h-2.46c0,5.638-5.594,10.224-12.469,10.224v2.018C55.687,259.666,61.281,264.252,61.281,269.89z M62.511,252.289
				c1.508,2.845,4.297,5.132,7.767,6.368c-3.469,1.236-6.258,3.522-7.767,6.367c-1.508-2.844-4.297-5.13-7.765-6.367
				C58.213,257.421,61.002,255.134,62.511,252.289z"/>
		</g>
	</g>
</g>
<g>
	<g>
		<g>
			<path fill="#34245D" d="M1244.83,1016.852h-3.287c0,2.643-2.622,4.793-5.846,4.793v2.695c3.224,0,5.846,2.149,5.846,4.795h3.287
				c0-2.646,2.622-4.795,5.848-4.795v-2.695C1247.452,1021.645,1244.83,1019.494,1244.83,1016.852z M1243.187,1024.852
				c-0.617-0.724-1.385-1.354-2.268-1.859c0.883-0.506,1.65-1.136,2.268-1.859c0.617,0.724,1.385,1.354,2.269,1.859
				C1244.571,1023.498,1243.804,1024.128,1243.187,1024.852z"/>
			<path fill="#34245D" d="M1249.013,1045.525c-7.354,0-13.336-4.904-13.336-10.936h-3.289c0,6.031-5.982,10.936-13.335,10.936
				v2.696c7.353,0,13.335,4.905,13.335,10.935h3.289c0-6.029,5.982-10.935,13.336-10.935V1045.525z M1234.032,1053.249
				c-1.636-2.776-4.387-5.033-7.774-6.375c3.388-1.342,6.138-3.597,7.774-6.374c1.637,2.777,4.387,5.032,7.775,6.374
				C1238.419,1048.216,1235.669,1050.473,1234.032,1053.249z"/>
			<path fill="#34245D" d="M1318.897,1016.852h-3.288c0,3.02-2.995,5.475-6.679,5.475v2.696c3.684,0,6.679,2.456,6.679,5.476h3.288
				c0-3.02,2.996-5.476,6.678-5.476v-2.696C1321.894,1022.326,1318.897,1019.871,1318.897,1016.852z M1317.255,1026.006
				c-0.747-0.924-1.715-1.72-2.844-2.331c1.129-0.611,2.097-1.405,2.844-2.331c0.744,0.926,1.713,1.72,2.844,2.331
				C1318.968,1024.286,1317.999,1025.082,1317.255,1026.006z"/>
			<path fill="#34245D" d="M1268.985,1029.15v2.695c3.682,0,6.678,2.456,6.678,5.476h3.288c0-3.02,2.995-5.476,6.679-5.476v-2.695
				c-3.684,0-6.679-2.457-6.679-5.476h-3.288C1275.663,1026.693,1272.667,1029.15,1268.985,1029.15z M1277.308,1028.166
				c0.745,0.926,1.715,1.721,2.844,2.332c-1.129,0.611-2.099,1.406-2.844,2.332c-0.746-0.926-1.715-1.721-2.844-2.332
				C1275.593,1029.887,1276.562,1029.092,1277.308,1028.166z"/>
			<path fill="#34245D" d="M1225.731,1003.195h3.287c0-3.02,2.996-5.476,6.679-5.476v-2.696c-3.683,0-6.679-2.455-6.679-5.475
				h-3.287c0,3.02-2.996,5.475-6.679,5.475v2.696C1222.735,997.72,1225.731,1000.176,1225.731,1003.195z M1227.375,994.039
				c0.745,0.926,1.715,1.721,2.845,2.332c-1.13,0.612-2.1,1.407-2.845,2.332c-0.745-0.925-1.715-1.72-2.844-2.332
				C1225.66,995.76,1226.63,994.965,1227.375,994.039z"/>
			<path fill="#34245D" d="M1292.309,1001.84h3.287c0-3.02,2.995-5.477,6.679-5.477v-2.695c-3.684,0-6.679-2.456-6.679-5.476h-3.287
				c0,3.02-2.996,5.476-6.679,5.476v2.695C1289.312,996.363,1292.309,998.82,1292.309,1001.84z M1293.952,992.684
				c0.746,0.926,1.715,1.721,2.844,2.332c-1.129,0.611-2.098,1.406-2.844,2.332c-0.747-0.926-1.715-1.721-2.846-2.332
				C1292.237,994.404,1293.205,993.609,1293.952,992.684z"/>
			<path fill="#34245D" d="M1257.314,1061.887h-3.288c0,3.018-2.996,5.475-6.678,5.475v2.695c3.682,0,6.678,2.457,6.678,5.477h3.288
				c0-3.02,2.995-5.477,6.677-5.477v-2.695C1260.31,1067.361,1257.314,1064.904,1257.314,1061.887z M1255.669,1071.041
				c-0.744-0.926-1.713-1.721-2.844-2.331c1.131-0.612,2.1-1.407,2.844-2.333c0.747,0.926,1.717,1.721,2.846,2.333
				C1257.386,1069.32,1256.416,1070.115,1255.669,1071.041z"/>
			<path fill="#34245D" d="M1293.931,1037.321h-3.287c0,9.792-9.716,17.757-21.658,17.757v2.697
				c11.942,0,21.658,7.965,21.658,17.758h3.287c0-9.793,9.717-17.758,21.659-17.758v-2.697
				C1303.647,1055.078,1293.931,1047.113,1293.931,1037.321z M1292.288,1068.229c-2.532-5.412-7.793-9.726-14.395-11.801
				c6.602-2.077,11.862-6.391,14.395-11.803c2.531,5.412,7.792,9.726,14.394,11.803
				C1300.08,1058.503,1294.821,1062.816,1292.288,1068.229z"/>
			<path fill="#34245D" d="M1254.026,1019.58h3.288c0-7.534,7.476-13.663,16.664-13.663v-2.696c-9.188,0-16.664-6.129-16.664-13.664
				h-3.288c0,7.535-7.477,13.664-16.664,13.664v2.696C1246.55,1005.917,1254.026,1012.046,1254.026,1019.58z M1255.669,996.059
				c2.016,3.803,5.744,6.857,10.38,8.511c-4.636,1.652-8.364,4.707-10.38,8.509c-2.016-3.802-5.742-6.856-10.377-8.509
				C1249.927,1002.916,1253.653,999.861,1255.669,996.059z"/>
		</g>
	</g>
</g>
<g>
	<rect x="44.721" y="832.994" fill="#441F52" width="3.398" height="3.338"/>
	<rect x="54.445" y="832.994" fill="#441F52" width="3.398" height="3.338"/>
	<rect x="65.467" y="832.994" fill="#441F52" width="3.397" height="3.338"/>
</g>
<g>
	<rect x="1308.977" y="349.785" fill="#441F52" width="5.418" height="5.323"/>
	<rect x="1324.483" y="349.785" fill="#441F52" width="5.419" height="5.323"/>
	<rect x="1342.061" y="349.785" fill="#441F52" width="5.418" height="5.323"/>
</g>
<g>
	<rect x="1255.67" y="1299.903" fill="#441F52" width="5.323" height="5.418"/>
	<rect x="1255.67" y="1315.409" fill="#441F52" width="5.323" height="5.419"/>
	<rect x="1255.67" y="1332.987" fill="#441F52" width="5.323" height="5.418"/>
</g>
<g>
	<rect x="130.918" y="87.472" fill="#441F52" width="3.931" height="3.862"/>
	<rect x="142.167" y="87.472" fill="#441F52" width="3.931" height="3.862"/>
	<rect x="154.918" y="87.472" fill="#441F52" width="3.931" height="3.862"/>
</g>
<g>
	<rect x="26.328" y="1255.276" fill="#441F52" width="3.338" height="3.397"/>
	<rect x="26.328" y="1264.999" fill="#441F52" width="3.338" height="3.398"/>
	<rect x="26.328" y="1276.022" fill="#441F52" width="3.338" height="3.396"/>
</g>
<path fill="#FFED00" d="M89.91,306.291c-1.894-4.05-5.831-7.277-10.77-8.831c4.939-1.554,8.876-4.781,10.77-8.831
	c1.895,4.049,5.831,7.277,10.771,8.831C95.741,299.013,91.805,302.24,89.91,306.291z"/>
<circle fill="#FFED00" cx="46.618" cy="772.268" r="3.375"/>
<circle fill="#FFED00" cx="57.409" cy="1115.262" r="2.818"/>
<circle fill="#FFED00" cx="1291.686" cy="1201.467" r="9.724"/>
<circle fill="#FFED00" cx="1362.034" cy="811.165" r="5.691"/>
<circle fill="#FFED00" cx="1357.461" cy="580.915" r="5.897"/>
<circle fill="#FFED00" cx="1322.011" cy="558.757" r="1.71"/>
<circle fill="#FFED00" cx="1274.404" cy="115.996" r="3.813"/>
<path fill="#FFED00" d="M102.474,63.175c2.917-4.854,2.549-9.258,1.572-12.304c-0.42-1.309-0.977-2.458-1.536-3.412
	c3.057,1.295,5.208,4.327,5.208,7.851C107.717,58.848,105.55,61.888,102.474,63.175z"/>
<path fill="#FFDE00" d="M86.004,440.058c0.564,0.206,1.173,0.319,1.808,0.319h9.991l-1.193,3.579l1.193,3.579h-9.991
	c-0.998,0-1.808-0.812-1.808-1.808V440.058z"/>
</svg>
