<?xml version="1.0" encoding="utf-8"?>
<!-- Generator: Adobe Illustrator 16.0.0, SVG Export Plug-In . SVG Version: 6.00 Build 0)  -->
<!DOCTYPE svg PUBLIC "-//W3C//DTD SVG 1.1//EN" "http://www.w3.org/Graphics/SVG/1.1/DTD/svg11.dtd">
<svg version="1.1" id="Layer_1" xmlns="http://www.w3.org/2000/svg" xmlns:xlink="http://www.w3.org/1999/xlink" x="0px" y="0px"
	 width="841.89px" height="169px" viewBox="0 0 841.89 169" enable-background="new 0 0 841.89 169" xml:space="preserve">
<ellipse fill="#EDEDED" cx="440.5" cy="-66" rx="570.5" ry="189"/>
<g>
	<g>
		<g>
			<g>
				<circle fill="#E9486C" cx="437.124" cy="116.478" r="34.557"/>
			</g>
			<g>
				<g>
					<g>
						<path fill="#EE7588" d="M435,108c0-5.865-10.518-10.616-23.491-10.616c-1.122,0-2.226,0.038-3.307,0.108
							c-3.573,5.44-5.659,11.945-5.659,18.941c0,0.462,0.017,0.924,0.035,1.383c2.753,0.511,5.769,0.795,8.931,0.795
							C424.482,118.611,435,113.862,435,108z"/>
					</g>
					<g>
						<path fill="#EE7588" d="M433.957,87.988c0,5.959,10.748,10.789,24.009,10.789c2.964,0,5.798-0.242,8.416-0.684
							c-5.938-9.463-16.335-15.836-28.24-16.189C435.5,83.639,433.957,85.729,433.957,87.988z"/>
					</g>
					<g>
						<path fill="#EE7588" d="M458.316,136.881c0-2.398-16.283-4.348-36.364-4.348c-5.438,0-10.591,0.143-15.226,0.4
							c1.648,3.021,3.738,5.771,6.177,8.164c2.893,0.088,5.923,0.135,9.049,0.135C442.033,141.232,458.316,139.283,458.316,136.881z
							"/>
					</g>
					<g opacity="0.4">
						<path fill="#EE7588" d="M440.219,108.521c0,1.729,10.283,3.133,22.967,3.133c2.857,0,5.587-0.073,8.106-0.202
							c-0.293-2.036-0.769-4.018-1.403-5.926c-2.121-0.091-4.371-0.138-6.703-0.138C450.502,105.388,440.219,106.79,440.219,108.521
							z"/>
					</g>
					<g>
						<path fill="#EE7588" d="M459.188,120.7c-14.897,0-26.97,1.949-26.97,4.349c0,2.402,12.072,4.352,26.97,4.352
							c3.56,0,6.955-0.111,10.07-0.312c0.984-2.514,1.689-5.161,2.068-7.92C467.677,120.87,463.554,120.7,459.188,120.7z"/>
					</g>
					<g>
						<path opacity="0.4" fill="#EE7588" d="M427.347,86.596c0-1.01-0.696-1.944-1.862-2.71c-4.402,1.57-8.393,4.006-11.764,7.106
							c1.101,0.193,2.287,0.305,3.53,0.305C422.825,91.297,427.347,89.192,427.347,86.596z"/>
					</g>
					<g>
						<path opacity="0.4" fill="#EE7588" d="M433.957,148.541c0-1.729-3.35-3.133-7.481-3.133c-2.49,0-4.691,0.512-6.052,1.295
							c3.547,1.958,7.466,3.308,11.633,3.916C433.231,150.069,433.957,149.339,433.957,148.541z"/>
					</g>
				</g>
				<path fill="#EE7588" d="M424.821,125.458c0-0.795-1.812-1.438-4.046-1.438s-4.046,0.643-4.046,1.438
					c0,0.789,1.812,1.432,4.046,1.432S424.821,126.247,424.821,125.458z"/>
			</g>
		</g>
	</g>
	<path fill="#1490D0" d="M469.564,104.307c0.213,0.543,0.406,1.099,0.594,1.654c0.002,0.012,0.006,0.02,0.012,0.029
		c0.018,0.046,0.025,0.093,0.04,0.134c0.176,0.538,0.339,1.081,0.491,1.631c0,0.009,0.006,0.018,0.006,0.026
		c4.243,0.719,6.722,1.94,6.722,3.617c0,4.527-17.996,10.652-40.193,13.686c-22.197,3.03-40.193,1.817-40.193-2.706
		c0-1.514,2.014-3.203,5.513-4.895c-0.002-0.202-0.012-0.395-0.012-0.594c0-0.525,0.016-1.043,0.04-1.561
		c0.021-0.505,0.059-1.002,0.104-1.502l0,0c-10.397,3.343-16.929,7.008-16.929,10.088c0,5.798,23.05,7.35,51.478,3.466
		c28.428-3.881,51.476-11.725,51.476-17.525C488.711,106.56,481.239,104.637,469.564,104.307z"/>
	<path opacity="0.4" fill="#FFFFFF" d="M468.071,100.986c0.263,0.506,0.512,1.023,0.748,1.543
		c16.201-0.087,26.938,2.148,26.938,6.365c0,6.587-26.198,15.512-58.521,19.924c-32.323,4.413-58.523,2.65-58.523-3.939
		c0-3.974,9.534-8.793,24.192-12.963l0,0c0.082-0.569,0.177-1.134,0.285-1.695c-18.639,4.881-31.076,10.772-31.076,15.562
		c0,7.332,29.159,9.29,65.122,4.381c35.965-4.913,65.12-14.837,65.12-22.169C502.355,102.938,488.478,100.438,468.071,100.986z"/>
	<path fill="#40C0EE" d="M465.012,96.101c0.111,0.152,0.219,0.31,0.33,0.462c0.144,0.204,0.292,0.409,0.436,0.613
		c0.172,0.246,0.333,0.494,0.5,0.742c0.125,0.196,0.251,0.389,0.374,0.585c0.075,0.123,0.157,0.245,0.233,0.365
		c0.015,0.032,0.029,0.062,0.044,0.094c0.149,0.242,0.298,0.487,0.441,0.736c24.062-0.979,40.722,1.732,40.722,7.513
		c0,7.979-31.722,18.779-70.856,24.121c-39.134,5.348-70.859,3.208-70.859-4.767c0-5.485,15.018-12.309,37.128-17.776l0,0
		c0.23-0.967,0.504-1.92,0.814-2.854c0.052-0.149,0.1-0.302,0.152-0.453c0.095-0.269,0.189-0.538,0.289-0.804v-0.003
		c-32.447,7.066-55.387,16.657-55.387,24.211c0,9.892,39.338,12.542,87.863,5.912c48.524-6.625,87.861-20.018,87.861-29.907
		C525.097,96.978,499.918,93.701,465.012,96.101z"/>
</g>
<g>
	<defs>
		<circle id="XMLID_2_" cx="309.693" cy="140.674" r="10.585"/>
	</defs>
	<use xlink:href="#XMLID_2_"  overflow="visible" fill="#CDCCCC"/>
	<clipPath id="XMLID_3_">
		<use xlink:href="#XMLID_2_"  overflow="visible"/>
	</clipPath>
	<g clip-path="url(#XMLID_3_)">
		<path opacity="0.5" fill="#E07A7C" d="M318.677,148.673c-1.153,1.379-2.789,2.495-4.407,3.262
			c-1.849,0.878-3.56,0.353-6.706,0.524c1.268-0.825,2.91-1.649,3.854-2.854c0.183-0.238,0.346-0.505,0.48-0.786
			c-0.501-0.156-0.898-0.577-1.002-1.127c-0.143-0.79,0.381-1.543,1.167-1.686c0.237-0.044,0.477-0.026,0.692,0.043
			c0.03-0.141,0.062-0.277,0.092-0.412c0.26-1.095,0.468-2.212,0.608-3.336c-0.267-0.196-0.456-0.488-0.519-0.837
			c-0.112-0.596,0.192-1.173,0.707-1.433c0.045-1.198,0.002-2.394-0.15-3.576c-0.021,0.007-0.044,0.013-0.064,0.018
			c-0.514,0.094-1.002-0.245-1.099-0.759c-0.091-0.511,0.25-1.002,0.764-1.094c0.021-0.007,0.043-0.003,0.063-0.007
			c-0.049-0.205-0.103-0.408-0.158-0.614c-0.104,0.051-0.214,0.087-0.335,0.107c-0.726,0.133-1.425-0.352-1.556-1.081
			c-0.118-0.659,0.266-1.29,0.881-1.504c-0.158-0.231-0.39-0.553-0.659-0.914c-0.108,0.102-0.246,0.177-0.401,0.204
			c-0.434,0.078-0.853-0.209-0.929-0.641c-0.062-0.344,0.107-0.67,0.395-0.835c-0.669-0.919-1.242-1.778-1.122-1.977
			c0.837-1.425,6.696,2.975,7.449,3.748c2.341,2.418,3.887,4.965,4.493,8.261C321.839,142.799,320.936,145.976,318.677,148.673z"/>
		<path opacity="0.5" fill="#E07A7C" d="M312.93,143.205c0.137,0.504-0.156,1.021-0.664,1.157c-0.501,0.136-1.016-0.163-1.155-0.663
			c-0.133-0.504,0.163-1.021,0.664-1.156C312.278,142.408,312.795,142.704,312.93,143.205z"/>
		<path opacity="0.5" fill="#E07A7C" d="M310.678,146.378c-0.422,0.114-0.863-0.136-0.975-0.562
			c-0.117-0.423,0.135-0.864,0.562-0.975c0.427-0.117,0.86,0.136,0.975,0.56C311.356,145.826,311.104,146.264,310.678,146.378z"/>
		<path opacity="0.5" fill="#E07A7C" d="M310.762,134.716c0.094,0.351-0.117,0.707-0.461,0.803
			c-0.349,0.092-0.707-0.111-0.801-0.462c-0.094-0.346,0.111-0.705,0.46-0.799C310.309,134.165,310.665,134.369,310.762,134.716z"/>
	</g>
</g>
</svg>
