<?xml version="1.0" encoding="utf-8"?>
<!-- Generator: Adobe Illustrator 16.0.0, SVG Export Plug-In . SVG Version: 6.00 Build 0)  -->
<!DOCTYPE svg PUBLIC "-//W3C//DTD SVG 1.1//EN" "http://www.w3.org/Graphics/SVG/1.1/DTD/svg11.dtd">
<svg version="1.1" id="Layer_1" xmlns="http://www.w3.org/2000/svg" xmlns:xlink="http://www.w3.org/1999/xlink" x="0px" y="0px"
	 width="100.852px" height="95.66px" viewBox="0 0 100.852 95.66" enable-background="new 0 0 100.852 95.66" xml:space="preserve">
<g>
	<circle fill="#FFF9EC" cx="73.532" cy="83.285" r="8.854"/>
	<circle fill="#FFF9EC" cx="13.531" cy="39.286" r="3.375"/>
	<circle fill="#FFF9EC" cx="11.531" cy="92.285" r="3.375"/>
	<circle fill="#FFF9EC" cx="57.532" cy="5.286" r="5.285"/>
	<path fill="none" stroke="#FFF9EC" stroke-width="4" stroke-miterlimit="10" d="M98.852,38.243
		c0,29.716-24.09,53.806-53.806,53.806C21.272,92.049,2,72.777,2,49.004c0-19.018,15.418-34.436,34.437-34.436
		c15.214,0,27.548,12.334,27.548,27.549c0,12.172-9.867,22.039-22.039,22.039c-9.737,0-17.632-7.895-17.632-17.631
		c0-7.79,6.315-14.105,14.105-14.105c6.232,0,11.284,5.052,11.284,11.284c0,4.986-4.042,9.028-9.027,9.028
		c-3.988,0-7.222-3.233-7.222-7.222"/>
</g>
</svg>
