<?xml version="1.0" encoding="utf-8"?>
<!-- Generator: Adobe Illustrator 16.0.0, SVG Export Plug-In . SVG Version: 6.00 Build 0)  -->
<!DOCTYPE svg PUBLIC "-//W3C//DTD SVG 1.1//EN" "http://www.w3.org/Graphics/SVG/1.1/DTD/svg11.dtd">
<svg version="1.1" id="Layer_1" xmlns="http://www.w3.org/2000/svg" xmlns:xlink="http://www.w3.org/1999/xlink" x="0px" y="0px"
	 width="437.65px" height="800px" viewBox="0 0 437.65 800" enable-background="new 0 0 437.65 800" xml:space="preserve">
<g>
	<g id="XMLID_194_">
		<rect id="XMLID_201_" x="115.949" y="149.922" fill="#FFFFFF" width="21.29" height="83.573"/>
		<rect id="XMLID_200_" x="115.949" y="236.776" fill="#FFFFFF" width="21.29" height="75.988"/>
		<rect id="XMLID_199_" x="137.239" y="149.922" fill="#B4B4B4" width="21.29" height="83.573"/>
		<rect id="XMLID_198_" x="137.239" y="236.776" fill="#B4B4B4" width="21.29" height="75.988"/>
		<rect id="XMLID_197_" x="137.239" y="316.085" fill="#B4B4B4" width="21.29" height="118.368"/>
		<path id="XMLID_196_" fill="#FFFFFF" d="M137.239,101.523c0,0-20.64,15.035-21.29,45.035h21.29V101.523z"/>
		<path id="XMLID_195_" fill="#B4B4B4" d="M137.239,101.523c0,0,20.669,15.035,21.29,45.035h-21.29L137.239,101.523L137.239,101.523
			z"/>
		<rect id="XMLID_202_" x="115.949" y="316.085" fill="#FFFFFF" width="21.29" height="118.368"/>
	</g>
	<g id="XMLID_185_">
		<rect id="XMLID_192_" x="266.949" y="149.922" fill="#FFFFFF" width="21.29" height="83.573"/>
		<rect id="XMLID_191_" x="266.949" y="236.776" fill="#FFFFFF" width="21.29" height="75.988"/>
		<rect id="XMLID_190_" x="288.239" y="149.922" fill="#B4B4B4" width="21.29" height="83.573"/>
		<rect id="XMLID_189_" x="288.239" y="236.776" fill="#B4B4B4" width="21.29" height="75.988"/>
		<rect id="XMLID_188_" x="288.239" y="316.085" fill="#B4B4B4" width="21.29" height="118.368"/>
		<rect id="XMLID_193_" x="266.949" y="316.085" fill="#FFFFFF" width="21.29" height="118.368"/>
		<path id="XMLID_187_" fill="#FFFFFF" d="M288.239,101.523c0,0-21.137,15.035-21.803,45.035h21.803V101.523z"/>
		<path id="XMLID_186_" fill="#B4B4B4" d="M288.239,101.523c0,0,20.669,15.035,21.29,45.035h-21.29V101.523z"/>
	</g>
	<g>
		<rect id="XMLID_184_" x="161.49" y="117.449" fill="#F9B03D" width="51.315" height="20.227"/>
		<rect id="XMLID_183_" x="212.805" y="117.449" fill="#F39323" width="51.316" height="20.227"/>
		<rect id="XMLID_182_" x="161.49" y="140.962" fill="#E52629" width="51.315" height="288.241"/>
		<rect id="XMLID_181_" x="212.805" y="140.962" fill="#C1292E" width="51.316" height="288.241"/>
		<path id="XMLID_180_" fill="#E52629" d="M212.802,5.984c0,0-49.389,37.573-50.918,108.573h50.918V5.984z"/>
		<path id="XMLID_179_" fill="#C1292E" d="M212.816,5.984c0,0,49.783,37.573,51.306,108.573h-51.306V5.984L212.816,5.984z"/>
	</g>
	<g>
		<g>
			<rect id="XMLID_160_" x="109.764" y="487.479" fill="#EB5E51" width="10.99" height="257.079"/>
			<rect id="XMLID_159_" x="120.754" y="487.479" fill="#FECB11" width="10.991" height="257.079"/>
			<rect id="XMLID_158_" x="131.746" y="487.479" fill="#FFFFFF" width="10.99" height="257.079"/>
			<rect id="XMLID_157_" x="142.736" y="487.479" fill="#FECB11" width="10.99" height="257.079"/>
			<rect id="XMLID_156_" x="153.726" y="487.479" fill="#EB5E51" width="10.991" height="257.079"/>
		</g>
		<g>
			<polygon id="XMLID_207_" fill="#FFFFFF" points="137.562,487.479 105.425,487.479 116.272,440.881 137.562,440.881 			"/>
			<polygon id="XMLID_206_" fill="#B4B4B4" points="137.562,487.479 169.698,487.479 158.852,440.881 137.562,440.881 			"/>
			<rect id="XMLID_150_" x="105.425" y="487.479" fill="#C1292E" width="64.272" height="5.303"/>
		</g>
	</g>
	<g>
		<g>
			<rect id="XMLID_155_" x="260.162" y="487.479" fill="#EB5E51" width="10.989" height="257.079"/>
			<rect id="XMLID_154_" x="271.151" y="487.479" fill="#FECB11" width="10.99" height="257.079"/>
			<rect id="XMLID_153_" x="282.142" y="487.479" fill="#FFFFFF" width="10.991" height="257.079"/>
			<rect id="XMLID_152_" x="293.133" y="487.479" fill="#FECB11" width="10.99" height="257.079"/>
			<rect id="XMLID_151_" x="304.124" y="487.479" fill="#EB5E51" width="10.99" height="257.079"/>
		</g>
		<g>
			<polygon id="XMLID_205_" fill="#FFFFFF" points="287.638,487.479 255.501,487.479 266.347,440.881 287.638,440.881 			"/>
			<polygon id="XMLID_204_" fill="#B4B4B4" points="287.638,487.479 319.774,487.479 308.928,440.881 287.638,440.881 			"/>
			<rect id="XMLID_149_" x="255.501" y="487.479" fill="#C1292E" width="64.272" height="5.303"/>
		</g>
	</g>
	<g>
		<path id="XMLID_177_" fill="#FFFFFF" d="M347.173,434.558L264.16,320.984c0,0-2.673-20.995-10.386-67.271
			c-7.713-46.276-40.288-74.729-40.288-74.729s-32.575,28.434-40.288,74.71c-7.713,46.276-10.386,67.293-10.386,67.293L79.8,434.558
			h93.838l-5.785,37h45.634h45.633l-5.784-37H347.173z"/>
		<path id="XMLID_176_" fill="#E6E6E6" d="M173.471,434.185l-0.16,0.373H79.633l83.014-113.573c0,0,2.673-20.995,10.385-67.271
			c1.062-6.372,2.591-11.917,4.445-17.585L173.471,434.185z"/>
		<path id="XMLID_175_" fill="#CDCCCC" d="M259.12,471.558l-5.784-37h93.838L264.16,320.984c0,0-2.675-20.995-10.388-67.271
			c-7.713-46.276-40.29-74.742-40.29-74.742v292.585L259.12,471.558L259.12,471.558z"/>
		<path id="XMLID_174_" fill="#B4B4B4" d="M253.465,251.934l0.019,182.624h93.689l-82.977-113.573
			C264.196,320.984,261.065,295.558,253.465,251.934z"/>
		<polygon id="XMLID_173_" fill="#343434" points="199.5,227.657 189.939,228.862 196.044,214.401 200.946,223.801 		"/>
		<polygon id="XMLID_172_" fill="#343434" points="196.768,213.437 201.403,222.917 212.401,220.135 212.444,207.894 		"/>
		<polygon id="XMLID_171_" fill="#343434" points="227.308,227.657 236.868,228.862 230.761,214.401 225.86,223.801 		"/>
		<polygon id="XMLID_170_" fill="#343434" points="230.039,213.437 225.403,222.917 214.406,220.135 214.363,207.894 		"/>
		<polygon id="XMLID_162_" fill="#676767" points="216.617,472.374 209.975,472.374 209.975,420.581 213.403,415.386 
			216.617,420.581 		"/>
		<path id="XMLID_161_" fill="#343434" d="M231.108,199.542c-9.284-14-17.603-20.561-17.603-20.561s-8.386,6.577-17.671,20.577
			L231.108,199.542z"/>
	</g>
</g>
<g>
	<path fill="#FECB11" d="M43.098,789.884H84.85c2.005-1.795,3.784-3.837,5.273-6.09c4.462-1.198,8.53-3.354,11.97-6.24
		c5.723,7.483,14.74,12.315,24.889,12.315c10.242,0,19.335-4.918,25.049-12.521c0.581,4.437,1.861,8.651,3.723,12.534h144.229
		c0-0.764-0.023-1.521-0.064-2.275c2.912-0.923,5.682-2.162,8.275-3.669c0.936,2.125,2.119,4.112,3.5,5.944h88.454
		c0.271-1.624,0.423-3.291,0.423-4.993c0-16.542-13.41-29.952-29.953-29.952c-3.265,0-6.401,0.528-9.342,1.493
		c-5.244-8.686-14.772-14.493-25.658-14.493c-2.397,0-4.727,0.289-6.96,0.821c-2.53-20.585-20.063-36.528-41.334-36.528
		c-23.009,0-41.659,18.651-41.659,41.659c0,0.768,0.023,1.527,0.064,2.284c-4.916,1.557-9.433,4.006-13.369,7.149
		c-5.907-15.822-21.153-27.094-39.036-27.094c-1.358,0-2.7,0.07-4.024,0.197c-0.066-17.24-14.06-31.197-31.316-31.197
		c-16.177,0-29.486,12.267-31.143,28.004c-7.602,0.034-14.561,2.776-19.968,7.312c-5.724-7.484-14.74-12.316-24.89-12.316
		c-10.924,0-20.537,5.598-26.141,14.075c-13.349,3.585-23.178,15.764-23.178,30.244C32.663,775.822,36.695,784.149,43.098,789.884z"
		/>
	<path fill="#F9B03D" d="M43.098,789.884c-6.402-5.733-10.435-14.062-10.435-23.333c0-14.479,9.829-26.659,23.178-30.244
		c5.604-8.479,15.217-14.074,26.141-14.074c10.149,0,19.166,4.831,24.89,12.315c5.407-4.536,12.366-7.278,19.968-7.312
		c1.656-15.738,14.966-28.005,31.143-28.005c17.257,0,31.25,13.957,31.316,31.197c1.324-0.127,2.666-0.197,4.024-0.197
		c17.883,0,33.129,11.271,39.035,27.094c3.938-3.145,8.455-5.594,13.369-7.149c-0.039-0.757-0.063-1.518-0.063-2.284
		c0-23.008,18.651-41.659,41.659-41.659c21.27,0,38.804,15.943,41.334,36.528c2.233-0.532,4.562-0.821,6.96-0.821
		c10.886,0,20.414,5.809,25.658,14.493c2.939-0.965,6.077-1.493,9.342-1.493c16.543,0,29.953,13.41,29.953,29.952
		c0,1.702-0.15,3.369-0.424,4.993h7.076c0.223-1.634,0.348-3.299,0.348-4.993c0-20.375-16.577-36.952-36.953-36.952
		c-2.147,0-4.282,0.187-6.387,0.556c-6.971-8.57-17.334-13.556-28.613-13.556c-0.461,0-0.922,0.01-1.383,0.026
		c-5.708-20.794-24.771-35.733-46.911-35.733c-25.977,0-47.264,20.463-48.594,46.112c-1.207,0.531-2.392,1.112-3.551,1.74
		c-8.277-13.9-23.178-23.021-39.573-23.798c-3.411-17.658-19.009-31.055-37.624-31.055c-17.672,0-32.691,11.896-37.048,28.484
		c-4.586,0.735-9.005,2.299-13.028,4.607c-7.014-6.479-16.162-10.094-25.924-10.094c-12.024,0-23.229,5.593-30.464,15.081
		c-15.348,5.271-25.854,19.814-25.854,36.238c0,8.775,2.973,16.866,7.954,23.333L43.098,789.884L43.098,789.884z"/>
</g>
<circle fill="#FFFFFF" cx="58.424" cy="809.238" r="51.341"/>
<circle fill="#FFFFFF" cx="371.115" cy="805.543" r="51.341"/>
<circle fill="#FFFFFF" cx="115.259" cy="779.543" r="36.493"/>
<circle fill="#FFFFFF" cx="315.114" cy="789.883" r="36.493"/>
<circle fill="#FFFFFF" cx="260.162" cy="800" r="36.493"/>
<circle fill="#FFFFFF" cx="153.726" cy="787.891" r="29.993"/>
<circle fill="#FFFFFF" cx="196.768" cy="800" r="36.493"/>
<circle fill="#FFFFFF" cx="233.261" cy="779.543" r="24.563"/>
</svg>
