<?xml version="1.0" encoding="utf-8"?>
<!-- Generator: Adobe Illustrator 16.0.0, SVG Export Plug-In . SVG Version: 6.00 Build 0)  -->
<!DOCTYPE svg PUBLIC "-//W3C//DTD SVG 1.1//EN" "http://www.w3.org/Graphics/SVG/1.1/DTD/svg11.dtd">
<svg version="1.1" id="Layer_1" xmlns="http://www.w3.org/2000/svg" xmlns:xlink="http://www.w3.org/1999/xlink" x="0px" y="0px"
	 width="171.807px" height="195.768px" viewBox="0 0 171.807 195.768" enable-background="new 0 0 171.807 195.768"
	 xml:space="preserve">
<path fill="#00A8DE" d="M168.56,89.986c-2.167,1.84-5.269,2.656-7.856,3.688c-2.95,1.175-5.857,2.465-8.831,3.577
	c-5.875,2.197-11.786,4.439-17.727,6.45c-6.396,2.164-12.803,4.285-19.194,6.462c-2.475,0.843-4.993,1.734-7.534,2.567
	c-0.115,0.745-0.562,1.32-1.428,0.676c-0.064-0.047-0.123-0.104-0.185-0.156c-2.638,0.832-5.295,1.581-7.957,2.116
	c0.483,2.06,0.871,4.392-0.822,5.989c-0.055,0.053-0.116,0.093-0.172,0.143c1.182,0.965,2.521,1.693,3.298,3.132
	c0.729,1.348,1.766,3.192,1.863,4.76c0.231,3.735-4.937,5.384-7.729,6.654c-1.785,0.811-7.322,3.354-8.686,0.41
	c-0.696-1.501-0.047-3.356,0.107-4.93c0.185-1.896,0.635-3.87,0.821-5.797c-1.397,0.104-2.8-0.072-3.923-0.656
	c-1.53-0.796-2.316-2.46-3.027-4.071c-1.45,1.037-3.447,1.713-4.858,2.373c-3.106,1.454-6.289,2.69-9.574,3.676
	c-6.296,1.884-12.409,4.406-18.705,6.343c-6.604,2.031-13.161,4.419-19.19,7.802c-2.716,1.526-5.693,2.371-8.418,3.821
	c-1.107,0.59-2.035,1.071-2.997,0.968c-2.837,0.965-4.861-3.165-5.485-5.537c-0.546-2.075-1.721-3.961-2.409-6.005
	c-0.67-1.99-1.182-4.028-1.874-6.011c-1.579-4.521-3.839-9.009-4.716-13.746c-0.279-1.512-0.097-3.027,0.839-3.85
	c0.061-0.183,0.154-0.348,0.296-0.47c1.867-1.604,4.494-2.355,6.749-3.258c2.752-1.104,5.515-2.152,8.289-3.196
	c5.515-2.08,10.845-4.591,16.324-6.763c5.974-2.365,11.864-4.974,17.895-7.19c2.9-1.065,5.834-2.036,8.736-3.095
	c1.263-0.46,2.807-1.281,4.246-1.548c-0.434-1.877-0.694-3.79-0.588-5.73c0.123-2.254,0.551-4.561,2.024-6.232
	c0.8-1.162,1.93-2.07,3.514-2.778c1.459-0.651,3.357-2.417,5.022-2.529c1.352-0.09,2.372,0.228,3.601,0.824
	c1.058,0.515,2.121,0.931,3.084,1.61c0.764,0.539,1.479,2.117,1.969,2.844c0.974,1.444,1.318,2.99,1.99,4.57
	c0.029,0.07,0.059,0.141,0.088,0.211c0.618-0.455,1.502-1.098,1.573-1.131c1.301-0.631,2.64-1.166,3.998-1.663
	c2.804-1.027,5.66-1.995,8.379-3.235c5.591-2.552,11.393-4.42,17.015-6.882c5.62-2.462,11.323-4.753,17.011-7.052
	c2.949-1.191,5.968-2.191,8.937-3.328c1.291-0.495,2.615-1.201,3.952-1.543c0.208-0.053,0.482-0.098,0.762-0.162
	c0.064-0.057,0.125-0.113,0.193-0.166c0.712-0.546,1.59-1.113,2.36-1.599c1.518-0.955,3.851-2.208,5.692-1.762
	c3.312,0.802,4.835,6.793,5.768,9.46c0.926,2.65,1.267,5.434,2.126,8.098c0.84,2.604,1.801,5.201,2.551,7.83
	c0.751,2.639,1.605,5.212,2.51,7.803c0.607,1.74,1.376,3.635,1.35,5.505C169.596,89.021,169.398,89.908,168.56,89.986
	 M133.54,61.327c1.37,1.863,1.995,4.311,2.732,6.458c1.114,3.246,2.181,6.496,3.157,9.787c1.566,5.283,3.511,10.396,5.358,15.561
	c2.413-0.914,4.818-1.852,7.219-2.802c-0.748-1.989-1.838-3.955-2.556-5.845c-1.013-2.666-2.007-5.35-2.89-8.062
	c-1-3.062-1.86-6.163-2.692-9.273c-0.707-2.646-1.137-6.321-2.795-8.619c-1.733,0.617-3.47,1.227-5.187,1.885
	C135.104,60.717,134.322,61.025,133.54,61.327 M125.417,64.53c2.854,5.138,4.323,10.856,6.014,16.455
	c0.969,3.212,2.184,6.319,3.286,9.485c0.108,0.308,1.115,3.4,1.943,5.633c2.275-0.799,4.541-1.626,6.801-2.473
	c-1.683-4.602-3.282-9.243-4.604-13.965c-0.845-3.018-1.649-6.053-2.64-9.026c-0.963-2.889-1.607-6.534-3.482-9
	C130.292,62.589,127.85,63.548,125.417,64.53 M116.782,68.106c0.3,0.565,0.557,1.161,0.827,1.688c0.854,1.67,1.566,3.41,2.219,5.168
	c1.225,3.301,2.28,6.656,3.431,9.982c1.288,3.724,2.65,7.439,4.25,11.042c0.392,0.885,0.854,1.781,1.293,2.695
	c1.497-0.451,2.992-0.911,4.475-1.411c0.701-0.235,1.399-0.479,2.099-0.72c-0.21-0.881-0.398-1.763-0.725-2.519
	c-1.268-2.926-2.279-6.059-3.229-9.1c-2.109-6.749-3.49-13.774-6.628-20.149c-2.283,0.925-4.562,1.863-6.821,2.829
	C117.577,67.783,117.178,67.943,116.782,68.106 M109.907,70.695c0.464,0.719,1.101,1.458,1.379,2.129
	c0.534,1.293,1.038,2.604,1.534,3.912c1.163,3.069,2.17,6.188,3.134,9.325c1.014,3.302,2.031,6.601,3.172,9.862
	c0.602,1.719,1.289,3.427,1.814,5.17c0.008,0.025,0.014,0.049,0.021,0.073c0.03-0.011,0.062-0.021,0.093-0.033
	c2.154-0.767,4.343-1.428,6.532-2.086c-0.722-1.642-1.554-3.255-2.174-4.854c-1.148-2.961-2.226-5.951-3.182-8.98
	c-1.04-3.299-1.974-6.638-3.111-9.904c-0.756-2.173-1.525-4.854-2.685-7.059C114.278,69.129,112.105,69.933,109.907,70.695
	 M101.571,74.031c3.078,5.595,4.118,12.297,6.665,18.113c1.19,2.722,2.594,5.334,3.448,8.191c0.393,1.317,0.879,2.561,1.376,3.818
	c2.098-1.031,4.428-1.796,6.578-2.529c-0.17-0.674-0.332-1.335-0.534-1.933c-1.191-3.508-2.361-7.017-3.395-10.574
	c-1.075-3.704-2.092-7.437-3.4-11.066c-0.644-1.789-1.167-3.791-2.022-5.481c-0.292-0.577-0.722-1.09-1.055-1.643
	c-0.284,0.098-0.565,0.197-0.85,0.294C106.035,72.016,103.827,73.055,101.571,74.031 M93.97,80.525
	c-1.273,0.635-2.689,0.815-3.998,1.372c-0.905,0.385-1.721,0.713-2.647,0.773c0.067,0.165,0.138,0.329,0.204,0.495
	c1.397,3.517,2.573,7.112,3.956,10.632c2.188,5.567,3.763,11.119,5.202,16.838c0.471-0.315,0.886-0.729,1.394-0.991
	c0.605-0.312,1.285-0.455,1.921-0.685c1.09-0.394,2.037-0.774,2.971-1.334c-0.159-0.519-0.308-1.013-0.453-1.446
	c-1.095-3.285-2.158-6.57-3.318-9.836c-1.211-3.41-2.438-6.816-3.566-10.256c-0.588-1.795-1.19-3.596-1.635-5.432
	C93.989,80.613,93.98,80.568,93.97,80.525 M86.122,79.742c0.293,0.699,0.578,1.402,0.864,2.104c1.124-0.525,2.013-1.445,3.102-2.043
	c1.062-0.583,2.196-1.095,3.382-1.359c0.016-0.006,0.03-0.008,0.046-0.012c-0.105-0.401-0.23-0.796-0.399-1.164
	c-0.492,0.16-0.985,0.324-1.479,0.473c-1.374,0.411-2.752,0.805-4.077,1.359C87.072,79.303,86.607,79.582,86.122,79.742
	 M58.624,90.031c0.245,0.134,0.48,0.292,0.696,0.474c0.218,0.184,0.41,0.398,0.586,0.629c0.941-0.362,1.748-0.96,2.565-1.558
	c0.803-0.587,1.866-1.491,2.933-1.178c0.074,0.023,0.144,0.063,0.211,0.113c-0.213-0.684-0.418-1.37-0.604-2.063
	c-0.727,0.521-1.362,1.219-2.169,1.628c-1.144,0.58-2.301,1.149-3.482,1.649C59.114,89.829,58.868,89.929,58.624,90.031
	 M25.57,103.903c0.66,2.117,2.264,4.293,3.127,6.28c1.124,2.584,2.131,5.213,3.165,7.834c1.123,2.846,2.356,5.652,3.398,8.528
	c0.51,1.409,0.903,2.896,1.419,4.319c1.934-0.894,3.89-1.762,5.881-2.514c-2.925-7.699-9.924-26.47-10.934-27.065
	C29.603,102.15,27.589,103.033,25.57,103.903 M10.829,109.664c0.737,1.068,0.976,2.711,1.328,3.816
	c1.029,3.239,2.158,6.455,3.333,9.645c1.2,3.258,2.543,6.458,3.825,9.684c0.547,1.378,1.044,2.881,1.605,4.346
	c0.129-0.148,0.339-0.077,0.441,0.073c0.115,0.17,0.299,0.247,0.485,0.325c0.011,0.004,0.02,0.014,0.03,0.02
	c1.617-0.819,3.216-1.667,4.912-2.358c0.539-0.218,1.075-0.438,1.611-0.661c-0.546-1.597-1.062-3.205-1.737-4.756
	c-1.279-2.933-2.44-5.897-3.544-8.899c-1.111-3.019-2.166-6.107-3.564-9.008c-0.637-1.321-2.057-3.097-2.193-4.659
	C15.197,108.037,13.005,108.826,10.829,109.664 M21.164,140.729c-0.309-0.569-0.57-1.178-0.808-1.801
	c-0.229,0.108-0.457,0.217-0.689,0.319c-0.053,0.292-0.283,0.499-0.528,0.159c-0.572-0.794-0.913-1.722-1.486-2.515
	c-0.236-0.325,0.024-1.002,0.375-0.55c0.575,0.742,0.935,1.62,1.499,2.367c0.214-0.097,0.428-0.193,0.64-0.294
	c-0.387-1.071-0.721-2.166-1.104-3.166c-1.127-2.936-2.315-5.852-3.399-8.803c-1.017-2.767-1.961-5.558-2.891-8.354
	c-0.487-1.465-0.95-2.932-1.388-4.411c-0.245-0.828-0.545-3.001-1.304-3.724c-2.2,0.86-4.372,1.776-6.454,2.825
	c-0.158,0.079-0.307,0.11-0.446,0.105c-0.707,2.384,1.129,5.836,1.975,7.931c1.067,2.645,2.212,5.267,3.128,7.971
	c1.004,2.965,2.037,5.78,3.333,8.625c0.496,1.089,1.496,6.026,3.558,5.143c0.329-0.141,0.639-0.048,0.901,0.181
	C17.798,142.386,19.575,141.384,21.164,140.729 M29.179,136.715c-0.201-0.514-0.388-1.031-0.569-1.55
	c-0.85,0.339-1.699,0.677-2.545,1.028c-1.369,0.567-2.678,1.244-3.994,1.906c-0.02,0.094-0.069,0.168-0.168,0.192
	c-0.085,0.019-0.166,0.021-0.243,0.013c-0.075,0.038-0.151,0.077-0.227,0.114c0.27,0.633,0.555,1.253,0.874,1.837
	C24.677,139.238,26.9,137.925,29.179,136.715 M29.478,134.101c1.424-0.599,2.841-1.213,4.246-1.864
	c0.623-0.286,1.247-0.578,1.873-0.869c-0.496-1.438-0.813-2.977-1.305-4.348c-1.12-3.126-2.389-6.194-3.516-9.316
	c-1.072-2.967-2.142-5.929-3.396-8.822c-0.62-1.432-1.802-3.208-2.157-4.827c-2.289,0.983-4.586,1.946-6.918,2.827
	c-0.138,0.052-0.279,0.104-0.418,0.154c0.799,2.365,2.55,4.626,3.542,6.93c1.152,2.676,2.154,5.411,3.207,8.126
	C26.2,126.13,27.932,130.069,29.478,134.101 M36.542,133.459c-0.265-0.432-0.483-0.895-0.677-1.371
	c-0.928,0.399-1.855,0.801-2.781,1.217c-1.113,0.5-2.24,0.963-3.37,1.416c0.18,0.479,0.36,0.957,0.534,1.438
	C32.242,135.146,34.367,134.26,36.542,133.459 M43.636,131.142c-0.164-0.406-0.421-1.071-0.75-1.934
	c-1.986,0.773-3.958,1.573-5.92,2.406c0.202,0.496,0.423,0.981,0.678,1.45C39.631,132.363,41.645,131.732,43.636,131.142
	 M50.182,129.201c-0.767-1.124-1.08-2.961-1.388-4.035c-0.943-3.285-2.163-6.528-3.479-9.683
	c-2.343-5.611-3.348-11.971-6.662-17.133c-1.346,0.57-2.693,1.137-4.046,1.688c-0.769,0.314-1.536,0.634-2.3,0.958
	c0.365,0.424,0.471,0.871,0.769,1.539c0.64,1.442,1.325,2.864,1.963,4.309c1.18,2.667,2.285,5.366,3.43,8.048
	c1.848,4.333,3.618,8.638,5.265,13.026c1.125-0.394,2.262-0.741,3.417-1.026c0.295-0.073,0.45,0.539,0.167,0.642
	c-1.098,0.4-2.187,0.81-3.273,1.225c0.252,0.681,0.51,1.354,0.755,2.041c0.605-0.176,1.209-0.35,1.805-0.52
	C47.803,129.94,48.994,129.575,50.182,129.201 M57.927,126.653c-1.037-1.521-1.254-3.508-1.809-5.245
	c-1.119-3.507-2.453-6.945-3.722-10.4c-1.201-3.271-2.491-6.508-3.639-9.797c-0.679-1.946-1.85-4.129-2.183-6.254
	c-2.407,1.024-4.808,2.064-7.214,3.091c3.175,4.389,4,10.14,6.111,15.021c1.259,2.913,2.449,5.845,3.559,8.816
	c0.527,1.413,0.899,2.883,1.493,4.27c0.222,0.521,0.479,1.921,0.877,2.307c0.068,0.066,0.129,0.172,0.18,0.295
	C53.702,128.069,55.812,127.353,57.927,126.653 M64.407,124.628c-0.586-2.504-1.927-4.839-2.783-7.253
	c-1-2.819-2.197-5.561-3.159-8.395c-1.09-3.211-2.129-6.448-3.105-9.696c-0.717-2.388-1.162-4.791-2.433-6.952
	c-0.471,0.188-0.942,0.374-1.412,0.564c-1.396,0.565-2.788,1.148-4.176,1.737c0.401,2.576,2.019,5.557,2.927,7.897
	c1.121,2.885,2.277,5.76,3.371,8.656c1.023,2.71,2.13,5.391,3.084,8.125c0.773,2.217,1.175,4.806,2.415,6.816
	c0.02,0.032,0.038,0.072,0.053,0.114C60.921,125.679,62.657,125.128,64.407,124.628 M69.917,122.908
	c-0.024-0.044-0.046-0.09-0.065-0.137c-2.151-5.295-3.111-11.157-5.058-16.562c-1.175-3.264-2.574-6.424-3.949-9.605
	c-0.527-1.219-0.956-2.564-1.628-3.713c-0.657-1.123-2.567-2.606-3.787-1.284c-0.185,0.2-0.346,0.091-0.439-0.1
	c-0.548,0.218-1.094,0.438-1.642,0.656c1.293,1.621,1.726,3.795,2.317,5.749c1.083,3.577,2.347,7.148,3.654,10.65
	c1.231,3.296,2.491,6.698,3.97,9.89c0.793,1.712,2.124,3.834,2.321,5.814C67.058,123.839,68.492,123.39,69.917,122.908
	 M71.032,119.162c0.404-0.24,0.817-0.589,1.175-0.717c0.719-0.256,1.442-0.504,2.165-0.748c1.038-0.352,1.95-0.812,2.906-1.291
	c-1.182-2.468-2.179-5.034-3.38-7.49c-1.619-3.309-3.339-6.589-4.775-9.982c-1.237-2.926-2.138-5.987-3.075-9.023
	c-0.083,0.179-0.244,0.3-0.513,0.297c-1.57-0.014-3.352,1.893-5.005,1.924c0.298,0.571,0.546,1.173,0.794,1.715
	c0.817,1.78,1.672,3.54,2.493,5.318c1.669,3.613,3.154,7.301,4.45,11.066C69.269,113.144,70.021,116.228,71.032,119.162
	 M79.118,119.975c-0.169-0.366-0.342-0.721-0.528-1.046c-0.094-0.165-0.181-0.335-0.273-0.501c-0.841,0.877-2.301,1.016-3.442,1.194
	c-1.109,0.176-2.332,0.491-3.498,0.501c0.066,0.179,0.128,0.359,0.197,0.535c0.313,0.4,0.535,0.955,0.559,1.478
	c0.406-0.146,0.812-0.288,1.217-0.438c1.366-0.507,2.83-1.196,4.259-1.49C78.114,120.104,78.623,120.062,79.118,119.975
	 M85.48,122.569c-0.451-0.733-0.824-1.604-1.118-2.381c-0.317-0.838-0.734-1.896-0.366-2.783c0.397-0.958,1.684-0.655,2.333-0.184
	c0.608,0.441,1.201,0.983,1.655,1.589c0.582,0.776,0.94,1.687,1.526,2.459c0.081,0.104,0.127,0.23,0.146,0.36
	c1.102-0.437,2.183-0.956,3.234-1.387c0.288-0.119,0.622-0.254,0.96-0.408c-0.447-0.738-0.662-1.546-0.925-2.383
	c-0.191-0.61-0.34-1.752-0.871-2.162c-0.559-0.433-1.512-0.038-1.577,0.676c-0.042,0.446,0.036,0.85,0.089,1.29
	c0.122,1.012,0.148,1.988,0,2.998c-0.062,0.423-0.498,0.154-0.5-0.157c-0.006-1.09-0.131-2.143-0.312-3.216
	c-0.073-0.429-0.16-0.885-0.094-1.319c0.139-0.901,0.679-1.711,1.69-1.727c2.255-0.033,2.476,4.097,3.36,5.458
	c0.014,0.021,0.025,0.046,0.038,0.069c0.456-0.283,0.861-0.621,1.095-1.043c0.695-1.253-0.235-3.491-0.499-4.804
	c-0.577-2.878-1.255-5.721-1.998-8.56c-1.588-6.071-4.175-12.015-6.477-17.854c-1.136-2.884-2.432-5.704-3.558-8.589
	c-0.777-1.993-1.96-5.125-4.105-6.053c-1.147-0.497-2.513-1.5-3.827-1.309c0.037,0.292-0.042,0.561-0.322,0.592
	c-0.52,0.061-1.048,0.152-1.574,0.264c-0.725,0.414-1.438,0.85-2.215,1.174c-1.244,0.519-2.17,1.313-3.279,2.043
	c-0.902,0.592-1.219,1.994-1.54,2.984c-0.102,0.314-0.254,0.471-0.424,0.521c-0.341,2.022-0.081,4.231,0.379,6.085
	c1.464,5.887,3.54,11.698,6.206,17.14c2.556,5.216,4.888,10.617,7.666,15.706c0.625,1.146,1.048,2.567,1.832,3.61
	C83.039,122.509,84.172,122.652,85.48,122.569 M88.709,121.974c-0.759-1.146-1.224-2.406-2.307-3.335
	c-0.525-0.451-1.904-1.157-1.715,0.11c0.129,0.872,0.486,1.725,0.795,2.544c0.138,0.363,0.366,0.822,0.415,1.244
	c0.208-0.02,0.419-0.041,0.634-0.062C87.263,122.399,87.99,122.212,88.709,121.974 M94.985,122.742
	c-1.087,0.552-2.259,0.953-3.396,1.422c0.756,1.186,1.082,2.532,1.249,3.942c0.084,0.712-0.704,0.487-0.757-0.102
	c-0.115-1.285-0.352-2.503-1.023-3.603c-0.213,0.095-0.428,0.183-0.636,0.287c-0.294,0.146-0.617,0.275-0.948,0.396
	c0.216,1.297,0.367,2.604,0.203,3.919c-0.078,0.617-0.641,0.089-0.629-0.312c0.035-1.15-0.041-2.278-0.162-3.41
	c-0.467,0.14-0.954,0.255-1.452,0.335c0.253,2.168-0.127,4.537-0.216,6.654c-0.039,0.929-0.053,1.87-0.146,2.798
	c0.027-0.258,1.274-0.113,1.42-0.11c1.594,0.032,2.621-0.403,4.028-1.108c2.045-1.023,8.218-2.938,6.979-5.996
	C98.493,125.375,96.621,124.526,94.985,122.742 M104.443,111.476c-0.266-0.496-0.497-1.032-0.707-1.579
	c-0.808,0.467-1.771,0.688-2.69,0.896c-0.905,0.207-1.957,0.264-2.816,0.623c-0.454,0.189-0.806,0.418-1.217,0.515
	c0.2,0.812,0.399,1.627,0.597,2.446C99.892,113.39,102.165,112.424,104.443,111.476 M112.782,108.143
	c-0.355-0.726-0.58-1.588-0.786-2.402c-0.699,0.378-1.361,0.795-1.966,1.265c-0.315,0.244-0.596-0.495-0.336-0.716
	c0.63-0.534,1.329-1.007,2.069-1.439c-0.075-0.271-0.153-0.531-0.241-0.761c-1.22-3.215-2.129-6.452-3.541-9.61
	c-0.829-1.854-6.883-18.847-7.115-20.146c-0.268,0.113-0.536,0.228-0.806,0.336c-1.891,0.773-3.814,1.525-5.756,2.201
	c0.936,1.889,1.295,4.225,1.971,6.12c1.27,3.562,2.671,7.08,4.034,10.607c2.18,5.64,4.353,11.265,6.588,16.868
	C108.845,109.67,110.806,108.898,112.782,108.143 M120.944,105.115c-0.462-0.703-0.763-1.539-1.012-2.4
	c-2.12,0.71-4.427,1.396-6.521,2.331c0.017,0.044,0.035,0.087,0.053,0.132c0.232,0.594,0.202,1.578,0.528,2.218
	c0.112-0.003,0.223,0.057,0.324,0.157C116.524,106.728,118.733,105.917,120.944,105.115 M128.769,102.324
	c-0.191-0.748-0.45-1.486-0.741-2.219c-2.245,0.658-4.49,1.32-6.689,2.122c-0.025,0.009-0.055,0.019-0.08,0.027
	c0.158,0.593,0.332,1.179,0.616,1.718c0.194,0.106,0.361,0.372,0.455,0.638C124.471,103.836,126.623,103.083,128.769,102.324
	 M136.548,99.555c-0.407-0.543-0.669-1.191-0.877-1.876c-0.699,0.243-1.399,0.486-2.1,0.722c-1.42,0.479-2.853,0.91-4.289,1.335
	c0.303,0.701,0.573,1.412,0.761,2.137c0.804-0.283,1.604-0.574,2.41-0.856C133.82,100.539,135.185,100.049,136.548,99.555
	 M144.544,96.567c-0.23-0.616-0.458-1.233-0.687-1.852c-2.252,0.851-4.512,1.678-6.78,2.475c0.296,0.732,0.531,1.221,0.635,1.221
	c0.28,0,0.453,0.236,0.53,0.521C140.347,98.156,142.448,97.365,144.544,96.567 M152.811,93.354c-0.01-0.034-0.021-0.065-0.028-0.102
	c-0.055-0.282-0.104-0.556-0.147-0.829c-0.072-0.346-0.164-0.69-0.268-1.036c-2.388,0.966-4.785,1.913-7.193,2.832
	c0.116,0.33,0.233,0.659,0.35,0.99c0.052,0.081,0.098,0.172,0.13,0.278c0.062,0.194,0.121,0.39,0.182,0.584
	c1.44-0.55,2.881-1.1,4.317-1.652C151.043,94.077,151.928,93.718,152.811,93.354 M159.134,90.709
	c-0.156-0.396-0.248-0.842-0.324-1.117c-0.163-0.585-0.504-1.197-0.551-1.806c-1.659-5.614-3.298-11.187-4.758-16.867
	c-0.8-3.11-1.62-6.225-2.656-9.266c-0.638-1.872-1.548-3.879-1.976-5.879c-1.195,0.65-2.893,0.941-3.92,1.336
	c-1.021,0.395-2.049,0.768-3.078,1.137c1.182,1.719,1.623,3.854,2.211,5.853c1.092,3.705,2.068,7.45,3.318,11.106
	c1.267,3.709,2.637,7.402,4.186,11.003c0.521,1.211,1.139,2.407,1.646,3.637c1.123-0.447,2.247-0.896,3.368-1.349
	c0.442-0.179,0.729,0.853,0.271,1.044c-1.079,0.449-2.163,0.895-3.248,1.338c0.215,0.629,0.392,1.27,0.492,1.931
	c1.616-0.68,3.229-1.371,4.852-2.035C159.023,90.752,159.08,90.73,159.134,90.709 M166.8,86.801
	c-0.45-3.462-2.322-6.992-3.249-10.285c-1.172-4.16-2.787-8.163-3.686-12.406c-0.517-2.447-1.223-4.833-2.222-7.13
	c-0.727-1.671-1.492-4.569-3.804-3.789c-1.239,0.417-2.527,0.815-3.747,1.314c-0.03,0.122-0.069,0.237-0.133,0.337
	c-0.097,0.152-0.22,0.289-0.356,0.417c0.521,2.714,1.957,5.386,2.802,7.983c0.897,2.751,1.692,5.528,2.443,8.321
	c0.814,3.026,1.57,6.076,2.494,9.072c0.761,2.473,1.772,4.877,2.427,7.382v0.001c0.021,0.08,0.043,0.16,0.064,0.24
	c0.144,0.529-0.021,0.892-0.281,1.034c0.096,0.261,0.169,0.537,0.301,0.782c0.054,0.102,0.131,0.184,0.211,0.267
	c2.223-0.86,4.562-1.673,6.552-2.956C166.646,87.171,166.706,86.971,166.8,86.801"/>
</svg>
