<?xml version="1.0" encoding="utf-8"?>
<!-- Generator: Adobe Illustrator 16.0.0, SVG Export Plug-In . SVG Version: 6.00 Build 0)  -->
<!DOCTYPE svg PUBLIC "-//W3C//DTD SVG 1.1//EN" "http://www.w3.org/Graphics/SVG/1.1/DTD/svg11.dtd">
<svg version="1.1" id="Layer_1" xmlns="http://www.w3.org/2000/svg" xmlns:xlink="http://www.w3.org/1999/xlink" x="0px" y="0px"
	 width="1000.612px" height="363.87px" viewBox="0 0 1000.612 363.87" enable-background="new 0 0 1000.612 363.87"
	 xml:space="preserve">
<g>
	<path fill="#735847" d="M60.879,191.108L74.008,237.4h13.917c0,0,8.856,12.945,8.856,15.886c0,2.944,12.682,4.707,12.682,4.707
		l9.857,3.326l12.367,2.343l10.853-5.669h13.706c0,0,12.652,21.773,13.074,23.539c0.422,1.766,7.591,24.124,8.856,24.715
		c1.266,0.588,36.037-23.539,36.037-23.539l33.551,14.237l17.713,16.362l6.326,14.71l12.113,14.714l18.114-8.22
		c0,0,28.214,8.81,30.323,8.22c2.109-0.588,31.897-19.778,31.897-19.778l43.318-36.815l44.499,4.396c0,0,28.496-29.99,31.449-30.97
		c2.952-0.98,35.426,3.333,38.377,0c2.953-3.334,16.448-41.583,16.448-41.583l23.618-14.123l23.03-22.39L60.879,191.108z"/>
	<path fill="#8A6A54" d="M302.032,334.511c0,0-7.416-54.36-7.812-52.821c-0.396,1.538-18.126-14.011-18.484-12.753
		c-0.358,1.256-24.3,6.673-24.3,6.673s-12.826,18.773-11.543,17.582c1.283-1.193,15.818,36,15.818,36l32.492,16.506L302.032,334.511
		z"/>
	<polygon fill="#8A6A54" points="322.936,245.181 323.668,263.044 328.344,299.688 328.344,325.985 331.675,341.203 
		342.632,320.003 346.433,296.278 341.919,248.83 	"/>
	<path fill="#735847" d="M413.772,191.108l13.128,46.292h13.917c0,0,8.857,12.945,8.857,15.886c0,2.944,12.682,4.707,12.682,4.707
		l9.858,3.326l12.367,2.343l10.854-5.669h13.706c0,0,12.652,21.773,13.073,23.539c0.422,1.766,7.592,24.124,8.856,24.715
		c1.267,0.588,36.036-23.539,36.036-23.539l33.552,14.237l17.713,16.362l6.326,14.71l12.113,14.714l18.113-8.22
		c0,0,31.461,19.361,33.568,18.773c2.109-0.588,24.825-40.282,24.825-40.282l17.33-23.428l74.315,0.959
		c0,0,28.496-29.99,31.447-30.97c2.952-0.98,35.427,3.333,38.38,0c2.951-3.334,16.446-41.583,16.446-41.583l23.618-14.123
		l23.03-22.39L413.772,191.108z"/>
	<path fill="#8A6A54" d="M804.963,290.534c0,0-4.895-39.748-6.346-39.566c-1.449,0.182-38.969,2.356-39.693,2.72
		c-0.725,0.36-10.15,31.173-10.15,31.173l8.7,14.503c0,0,12.507,4.696,13.051,4.886c0.543,0.189,18.85-5.431,18.85-5.431
		L804.963,290.534z"/>
	<polygon fill="#8A6A54" points="688.492,353.285 675.828,268.937 629.59,268.937 610.425,283.191 624.677,342.76 653.819,356.799 	
		"/>
	<polygon fill="#8A6A54" points="78.399,197.273 107.251,246.18 118.587,251.758 124.598,287.532 178.178,306.247 190.627,258.223 
		185.011,215.499 	"/>
	<polygon fill="#8A6A54" points="502.683,262.798 499.739,322.426 532.116,341.333 560.077,338.424 577.704,325.533 
		636.811,342.731 635.133,278.07 	"/>
	<path fill="#B38A6D" d="M0,171.297l25.065,58.782h26.57c0,0,16.909,16.438,16.909,20.176c0,3.734,24.211,5.976,24.211,5.976
		l18.82,4.221l23.61,2.976l20.72-7.196h26.167c0,0,24.155,27.647,24.96,29.889c0.805,2.241,14.494,30.637,16.909,31.382
		c2.416,0.748,68.799-29.886,68.799-29.886l64.053,18.076l33.817,20.776l12.077,18.681l23.126,18.686l34.584-10.439
		c0,0,53.864,11.185,57.89,10.439c4.025-0.748,60.898-25.118,60.898-25.118l82.701-46.747l84.956,5.583
		c0,0,54.403-38.084,60.04-39.328c5.635-1.245,67.634,4.233,73.27,0c5.637-4.234,31.402-52.803,31.402-52.803l45.089-17.934
		l43.968-28.431L0,171.297z"/>
	<polygon fill="#A68065" points="880.153,258.223 874.654,223.478 880.153,212.887 877.403,175.435 901.088,175.435 906.482,195.78 
		914.949,195.78 911.556,205.42 	"/>
	<polygon fill="#A68065" points="51.179,177.716 51.635,230.079 67.959,256.23 92.755,256.23 79.397,240.102 81.028,206.305 
		79.682,180.05 	"/>
	<polygon fill="#AB8468" points="407.557,190.647 410.688,280.893 424.805,306.268 436.619,360.572 434.243,267.056 
		443.126,258.223 431.131,190.647 	"/>
	<path fill="#A68065" d="M322.936,170.218l8.792,57.439l15.387,9.806v18.212l9.444,50.594c0,0,1.384-85.617,0-87.719
		c-1.385-2.101-12.375-9.105-13.108-11.207c-0.732-2.101-3.396-40.626-3.396-40.626L322.936,170.218z"/>
	<polygon fill="#A68065" points="680.488,171.644 668.766,247.725 668.766,261.463 661.888,291.968 680.488,293.192 
		680.488,232.417 689.77,171.644 	"/>
	<polygon fill="#A68065" points="746.844,297.551 740.223,177.948 810.175,175.435 814.57,212.271 798.982,219.976 806.884,258.223 
			"/>
	<polygon fill="#A68065" points="222.915,319.916 204.631,282.782 182.073,256.23 171.513,177.716 192.517,190.647 292.741,181.317 
		290.634,209.383 287.033,261.463 292.741,287.615 	"/>
	<path fill="#99765D" d="M211.566,188.531l2.931,47.962l10.99,6.6v25.217l-1.546,49.191l13.465-75.109c0,0-7.523-14.01-7.523-16.11
		s1.465-42.729,1.465-42.729L211.566,188.531z"/>
	<polygon fill="#99765D" points="753.758,175.435 768.767,283.191 774.28,280.049 769.301,246.435 774.28,238.657 769.951,195.78 
		767.415,176.971 	"/>
	<polygon fill="#A68065" points="467.52,190.647 473.381,250.527 483.151,306.268 460.398,353.394 518.288,363.833 533.95,313.002 
		544.696,250.527 556.419,183.552 	"/>
	<polygon fill="#A68065" points="135.186,263.426 131.065,242.182 135.186,228.399 127.188,188.685 146.294,188.685 
		146.294,229.313 138.68,232.417 139.768,245.301 	"/>
	<polygon fill="#AB8468" points="624.677,178.293 624.677,229.313 631.643,250.527 624.677,313.002 645.573,301.19 639.458,212.055 
		645.573,181.317 	"/>
	<path fill="#AB8468" d="M536.318,356.799c0,0,20.101-61.857,20.101-63.607c0-1.752,0-36.962,0-36.962l12.495-70.916l34.502-4.243
		l-41.135,125.197l-5.862,19.727l-12.094,27.479L536.318,356.799z"/>
	<polygon fill="#AB8468" points="714.376,295.417 713.317,182.235 727.565,183.552 728.672,296.358 	"/>
	<polygon fill="#AB8468" points="840.485,178.293 840.485,216.829 853.386,239.296 852.389,259.66 872.288,259.66 861.841,219.829 
		868.939,195.78 866.53,178.293 	"/>
	<path fill="#CFA07E" d="M76.318,155.559l76.769-6.927l190.825-8.966l113.528,4.484c0,0,88.826-4.484,92.595-4.484
		c3.769,0,119.386-5.082,119.386-5.082l119.748,8.071c0,0,131.778,6.228,134.604,5.353c2.826-0.874,76.839,11.047,76.839,11.047
		l-97.988,20.111l-215.763,3.498c0,0-58.416-5.247-62.185-4.372c-3.77,0.874-100.816,12.241-109.295,13.989
		c-8.479,1.749-65.955,3.498-72.55,3.498s-50.878-1.749-50.878-1.749s-69.723-11.366-75.375-10.491
		c-5.654,0.873-97.046,5.244-107.41,6.994c-10.365,1.748-138.503-4.373-144.156-4.373C59.358,186.161,0,171.297,0,171.297
		L76.318,155.559z"/>
	<path fill="#DBAA85" d="M1000.612,159.056c0,0-22.783-3.669-43.552-6.788c-27.407,3.536-64.464,7.563-86.104,6.788
		c-37.419-1.339-56.796-11.062-131.635-6.292c-74.838,4.768-137.576-11.298-162.168-8.62
		c-208.168,22.671-157.042,1.104-196.468-0.303c-34.747-1.239-137.837,7.875-193.966,10.355
		c-33.626,1.487-85.951,2.936-122.507,3.86l-33.96,7.003c29.911,3.084,77.364,7.768,101.007,8.998
		c36.083,1.879,56.797-6.219,88.203-8.878c31.405-2.661,64.008-1.836,106.774,4.365c42.765,6.202,111.602,10.246,185.105,8.147
		c73.502-2.1,211.275-19.774,235.503-18.635c24.228,1.141,68.652,1.341,112.085,3.821c32.648,1.865,103.803-1.233,137.129-2.886
		L1000.612,159.056z"/>
	<polygon fill="#C29476" points="740.223,147.257 778.538,45.252 809.901,35.599 861.873,42.434 867.925,88.93 906.482,151.458 
		840.552,159.056 775.786,155.478 	"/>
	<path fill="#CFA07E" d="M740.223,147.257l35.563,8.221l19.696,1.089l4.932-11.998c0,0,2.485-13.076,2.797-13.968
		c0.312-0.891-0.621-15.453,1.519-16.939c2.14-1.485,11.538-16.333,11.538-16.333l18.11-16.06l-4.122-13.077l-19.444-32.473
		l-0.91-0.12l-31.363,9.655L740.223,147.257z"/>
	<polygon fill="#C29476" points="763.161,152.559 798.982,43.558 781.071,106.898 784.075,112.441 774.137,155.725 	"/>
	<polygon fill="#CFA07E" points="844.333,40.126 851.71,99.641 858.06,103.996 859.717,116.665 865.233,156.211 874.654,155.125 
		861.873,90.008 856.403,78.923 851.71,72.326 	"/>
	<path opacity="0.4" fill="#B38A6D" d="M262.084,301.796l-4.889-51.27c0,0,5.677-5.733,4.896-8.684
		c-0.781-2.952-9.011-53.158-9.011-53.158l12.34-2.021c0,0,5.15,65.757,4.636,69.566s7.07,38.607,7.07,38.607L262.084,301.796z"/>
	<polygon fill="#CFA07E" points="175.33,149.577 208.064,118.963 243.529,110.458 263.415,84.095 302.092,69.638 318.4,84.946 
		354.741,109.608 392.53,121.514 401.426,149.577 314.694,159.056 252.425,159.056 	"/>
	<polygon fill="#C29476" points="279.52,122.363 257.614,146.175 257.614,159.056 314.694,159.056 401.426,149.577 392.53,121.514 
		354.741,109.608 318.4,84.946 302.092,69.638 295.625,97.098 	"/>
	<g>
		<path fill="#C29476" d="M378.132,153.526l6.663-19.973l7.219-8.711l15.99-10.141l23.694,3.57l10.176,10.921l0.783,21.779
			c0,0-31.358,4.577-31.502,4.612S378.132,153.526,378.132,153.526z"/>
		<path fill="#CFA07E" d="M384.795,133.553l-6.663,19.973c0,0,32.88,2.091,33.024,2.057c0.039-0.009,2.334-0.347,5.67-0.836
			l-3.186-11.178l0.749-5.363l-0.749-10.079l0.652-6.901l-6.289-6.526l-15.99,10.141L384.795,133.553z"/>
		<polygon fill="#C29476" points="397.479,154.75 402.654,146.884 405.483,135.143 410.395,119.071 400.327,143.203 
			397.479,145.164 392.699,154.448 		"/>
	</g>
	<g>
		<path fill="#C29476" d="M65.778,163.934l2.449-8.248l2.652-3.597l5.876-4.188l8.707,1.473l3.739,4.511l0.288,8.993
			c0,0-11.522,1.89-11.575,1.904C77.86,164.796,65.778,163.934,65.778,163.934z"/>
		<path fill="#CFA07E" d="M68.227,155.686l-2.449,8.248c0,0,12.082,0.863,12.135,0.849c0.014-0.004,0.857-0.144,2.083-0.346
			l-1.17-4.615l0.274-2.216l-0.274-4.16l0.24-2.851l-2.311-2.694l-5.876,4.188L68.227,155.686z"/>
	</g>
	<g>
		<path fill="#C29476" d="M893.091,152.992l1.958-15.547l2.119-6.781l4.697-7.895l6.962,2.779l2.988,8.501l0.23,16.953
			c0,0-9.212,3.563-9.254,3.59C902.75,154.62,893.091,152.992,893.091,152.992z"/>
		<path fill="#CFA07E" d="M895.049,137.445l-1.958,15.547c0,0,9.659,1.628,9.701,1.601c0.011-0.006,0.686-0.27,1.666-0.65
			l-0.937-8.702l0.221-4.175l-0.221-7.846l0.191-5.371l-1.848-5.081l-4.697,7.895L895.049,137.445z"/>
	</g>
	<g>
		<path fill="#C29476" d="M158.413,155.405l3.965-11.896l4.295-5.189l9.515-6.041l14.099,2.126l6.055,6.506l0.466,12.973
			c0,0-18.659,2.728-18.745,2.748C177.978,156.653,158.413,155.405,158.413,155.405z"/>
		<path fill="#CFA07E" d="M162.378,143.509l-3.965,11.896c0,0,19.565,1.248,19.65,1.227c0.023-0.005,1.39-0.207,3.374-0.499
			l-1.896-6.658l0.445-3.194l-0.445-6.004l0.388-4.111l-3.742-3.887l-9.515,6.041L162.378,143.509z"/>
	</g>
	<g>
		<path fill="#C29476" d="M674.259,140.095l4.709-9.809l5.102-4.278l11.301-4.98l16.744,1.754l7.191,5.362l0.553,10.697
			c0,0-22.159,2.248-22.261,2.264C697.495,141.123,674.259,140.095,674.259,140.095z"/>
		<path fill="#CFA07E" d="M678.968,130.287l-4.709,9.809c0,0,23.236,1.027,23.339,1.01c0.026-0.004,1.649-0.169,4.005-0.41
			l-2.25-5.489l0.529-2.634l-0.529-4.95l0.461-3.39l-4.443-3.204l-11.301,4.98L678.968,130.287z"/>
	</g>
	<g>
		<path fill="#C29476" d="M727.926,155.474l4-13.113l4.334-5.719l9.601-6.658l14.227,2.344l6.109,7.171l0.472,14.298
			c0,0-18.828,3.005-18.915,3.028C747.667,156.847,727.926,155.474,727.926,155.474z"/>
		<path fill="#CFA07E" d="M731.926,142.36l-4,13.113c0,0,19.741,1.373,19.827,1.35c0.024-0.005,1.402-0.227,3.404-0.547
			l-1.912-7.339l0.45-3.522l-0.45-6.617l0.391-4.53l-3.775-4.285l-9.601,6.658L731.926,142.36z"/>
	</g>
	<g>
		<path fill="#C29476" d="M656.197,140.373l2.738-6.791l2.966-2.962l6.571-3.447l9.737,1.214l4.18,3.713l0.323,7.403
			c0,0-12.886,1.558-12.946,1.569C669.708,141.083,656.197,140.373,656.197,140.373z"/>
		<path fill="#CFA07E" d="M658.936,133.583l-2.738,6.791c0,0,13.511,0.71,13.569,0.7c0.017-0.004,0.961-0.119,2.331-0.284
			l-1.309-3.801l0.307-1.823l-0.307-3.426l0.267-2.347l-2.583-2.219l-6.571,3.447L658.936,133.583z"/>
	</g>
	<polygon fill="#C29476" points="210.98,153.96 220.989,137.209 255.766,126.505 259.011,110.916 286.313,75.537 251.51,115.332 
		251.101,122.127 203.501,137.225 194.922,151.986 	"/>
	<polygon fill="#CFA07E" points="314.694,159.056 320.653,135.263 310.687,122.37 305.173,75.537 315.776,123.587 334.013,135.506 
		332.316,156.914 	"/>
	<ellipse fill="#B0866B" cx="48.296" cy="176.43" rx="5.094" ry="1.358"/>
	<ellipse fill="#B0866B" cx="218.369" cy="174.525" rx="3.888" ry="0.712"/>
	<ellipse fill="#B0866B" cx="232.111" cy="168.333" rx="6.232" ry="1.385"/>
	<ellipse fill="#B0866B" cx="268.708" cy="165.222" rx="8.491" ry="1.018"/>
	<ellipse fill="#B0866B" cx="665.359" cy="152.655" rx="10.528" ry="2.718"/>
	<ellipse fill="#B0866B" cx="522.744" cy="154.354" rx="6.452" ry="1.697"/>
	<ellipse fill="#B0866B" cx="577.762" cy="156.732" rx="6.453" ry="1.358"/>
	<ellipse fill="#B0866B" cx="624.969" cy="156.052" rx="4.076" ry="0"/>
	<ellipse fill="#B0866B" cx="792.402" cy="170.316" rx="9.17" ry="2.038"/>
	<ellipse fill="#B0866B" cx="424.193" cy="186.105" rx="9.17" ry="2.037"/>
	<ellipse fill="#B0866B" cx="652.333" cy="167.436" rx="6.335" ry="1.409"/>
	<ellipse fill="#B0866B" cx="499.296" cy="146.76" rx="5.273" ry="1.172"/>
	<ellipse fill="#B0866B" cx="144.069" cy="160.128" rx="6.792" ry="2.037"/>
	<ellipse fill="#B0866B" cx="244.936" cy="180.166" rx="5.773" ry="1.697"/>
	<ellipse fill="#B0866B" cx="735.231" cy="168.479" rx="5.794" ry="1.933"/>
	<ellipse fill="#B0866B" cx="904.211" cy="163.188" rx="4.732" ry="1.578"/>
</g>
<path fill="#FAFCFF" d="M710.462,111.888c0,0-16.595,8.412-18.807,14.381c-2.211,5.968,4.664,13.509,5.177,14.817
	c0.511,1.308-8.152,12.431-15.087,11.099c-6.935-1.333-17.007-12.771-17.689-23.615c-0.683-10.845,5.695-21.283,19.073-27.11
	C696.508,95.635,711.07,107.838,710.462,111.888"/>
<path fill="#A3B6C9" d="M678.309,120.939c0,0,12.126,1.638,15.057,3.93c0,0-0.116,3.814-2.109,4.709c0,0-10.543,2.229-11.863,1.007
	C678.072,129.362,678.309,120.939,678.309,120.939"/>
<path fill="#BCCCD8" d="M670.551,116.34c5.71-0.029,14.071,3.222,13.328,10.682c-0.741,7.461-10.155,7.898-13.284,7.989
	c-3.128,0.091-8.768-2.029-9.02-8.817C661.323,119.406,667.742,116.354,670.551,116.34"/>
<path fill="#BCCCD8" d="M674.48,148.104c0,0,12.092,1.133,19.352-11.605c0,0,13.08,19.747,16.11,24.647
	c3.033,4.903-15.967,2.891-18.31,1.578C689.29,161.41,676.028,149.571,674.48,148.104"/>
<path fill="#BCCCD8" d="M699.283,157.48c-9.854-0.882-19.983,4.256-21.271,6.428c-1.289,2.172,0.99,5.893,4.939,7.687
	c3.945,1.795,28.442,0.307,30.074-2.848c1.634-3.157-1.729-6.766-3.446-9.105C707.861,157.304,699.283,157.48,699.283,157.48"/>
<path fill="#576D7C" d="M687.862,159.01c0,0,0.301-0.127,0.815-0.344c0.526-0.211,1.292-0.484,2.236-0.711
	c0.472-0.122,0.985-0.236,1.537-0.324c0.551-0.1,1.136-0.175,1.743-0.232c0.609-0.035,1.238-0.089,1.881-0.089
	c0.641-0.01,1.291,0.034,1.943,0.06c0.647,0.073,1.299,0.129,1.931,0.237c0.638,0.081,1.252,0.238,1.846,0.374
	c0.591,0.155,1.161,0.303,1.688,0.498c0.528,0.176,1.024,0.36,1.468,0.564c0.897,0.373,1.609,0.77,2.092,1.063
	c0.478,0.304,0.752,0.478,0.752,0.478s-0.315-0.072-0.864-0.196c-0.547-0.134-1.322-0.315-2.247-0.514
	c-0.465-0.095-0.964-0.196-1.489-0.303c-0.531-0.093-1.09-0.191-1.662-0.292c-0.58-0.079-1.177-0.162-1.785-0.244
	c-0.604-0.091-1.226-0.133-1.844-0.192c-0.62-0.042-1.238-0.1-1.853-0.106c-0.61-0.046-1.215-0.04-1.8-0.049
	c-0.583,0.024-1.152-0.01-1.689,0.024c-0.538,0.025-1.05,0.029-1.521,0.066C689.163,158.915,687.862,159.01,687.862,159.01"/>
<path fill="#FAFCFF" d="M671.104,66.68c0,0-2.573,11.603-17.579,12.35c-15.003,0.747-9.619,16.799-8.415,17.73
	c1.203,0.929,14.8,12.008,34.16-2.417C698.629,79.917,675.984,64.809,671.104,66.68"/>
<path fill="#8396A5" d="M670.594,73.008c0,0,0.494,9.364,6.343,20.61c0,0-11.697-11.145-11.66-20.524
	C665.315,63.715,670.113,69.349,670.594,73.008"/>
<path fill="#BCCCD8" d="M643.8,99.085c0,0,8.23-2.028,10.884-10.157c2.651-8.13,0.427-11.841-0.542-12.2
	c-0.969-0.358-9.563-1.491-10.839-2.946c0,0,1.562-4.538,0.164-8.954c-1.396-4.415-6.463-5.93-8.609-5.554
	c-2.145,0.377-0.499,3.504,1.407,6.18c1.902,2.676,0.699,6.247,0.699,6.247s-3.874-10.421-10.691-10.003
	c-6.821,0.419-1.725,5.372,0.116,6.589c1.839,1.218,3.197,4.935,3.197,4.935s-5.218-3.421-8.973-2.761
	c-3.756,0.661-3.912,3.277-2.949,4.559c0.965,1.281,6.393,1.806,7.264,2.664c0.873,0.859,2.421,7.938,3.709,9.179
	c2.237,2.158,6.073,1.166,6.073,1.166S637.323,95.919,643.8,99.085"/>
<path fill="#576D7C" d="M638.771,73.085c0,0-1.514,0.127-3.693,0.461c-0.546,0.082-1.126,0.208-1.719,0.353
	c-0.587,0.14-1.205,0.383-1.611,0.68c-0.146,0.137-0.312,0.318-0.372,0.557c-0.065,0.222-0.093,0.459-0.031,0.727
	c0.09,0.532,0.414,1.118,0.834,1.615c0.2,0.251,0.443,0.503,0.65,0.658c0.108,0.101,0.44,0.201,0.766,0.28
	c0.343,0.08,0.64,0.139,1.047,0.212c0.69,0.113,1.366,0.201,2.061,0.267c0.74,0.082,1.51,0.132,1.902,0.229
	c-0.955,0.459-1.895,0.868-2.45,1.186c-0.299,0.176-0.589,0.347-0.777,0.522l-0.213,0.187l-0.14,0.14
	c-0.183,0.184-0.338,0.379-0.443,0.583c-0.457,0.812-0.152,1.737,0.178,2.267c0.131,0.294,0.314,0.48,0.403,0.632
	c0.102,0.145,0.158,0.223,0.158,0.223s-0.075-0.058-0.214-0.168c-0.13-0.119-0.369-0.251-0.592-0.507
	c-0.239-0.241-0.505-0.573-0.704-1.043c-0.201-0.468-0.251-1.113-0.033-1.741c0.096-0.317,0.265-0.619,0.468-0.894l0.156-0.208
	c0.027-0.035,0.057-0.064,0.086-0.096l0.031-0.041l0.064-0.091c0.02-0.031,0.037-0.062,0.057-0.095c0.046-0.025-0.127,0.002-0.156,0
	c-0.057,0.005-0.093,0.016-0.116,0.023c-0.306-0.036-0.727-0.099-1.099-0.183c-0.382-0.102-0.798-0.16-1.293-0.502
	c-0.392-0.288-0.665-0.581-0.939-0.907c-0.516-0.657-0.957-1.41-1.102-2.337c-0.13-0.944,0.238-1.983,1.061-2.54
	c0.762-0.484,1.486-0.592,2.151-0.697c0.668-0.1,1.292-0.119,1.863-0.118c1.144-0.003,2.084,0.101,2.738,0.192
	C638.402,73.003,638.771,73.085,638.771,73.085"/>
<path fill="#DBDBDB" d="M749.628,46.512c0,0,11.933-6.354,20.016,1.941c8.085,8.295,6.657,22.918-2.842,27.969
	c-10.605,5.638-23.156,1.355-41.216,8.99c-18.061,7.636,0.771-0.516,0.771-0.516l-3.997-4.733c0,0,5.147-1.786,12.159-2.943
	c7.012-1.16,23.077-1.784,28.818-4.235c6.631-2.832,7.537-14.75,2.503-20.93c-4.688-5.756-19.629,1.443-19.629,1.443L749.628,46.512
	z"/>
<path fill="#FFFFFF" d="M707.889,2.208c0,0,5.122-2.471,6.612-2.185c1.492,0.286,10.155,12.538,10.113,14.665
	c-0.041,2.129-2.911,8.835-2.911,8.835s28.376,60.219,28.911,62.83c0,0-2.585,2.397-5.138,3.904
	c-2.555,1.506-32.808-53.608-32.647-54.96C712.988,33.946,707.889,2.208,707.889,2.208"/>
<path fill="#91A1AF" d="M653.976,40.706c0,0-6.468-9.884-6.643-12.192c0,0,56.964-26.305,60.556-26.306
	c0,0,10.049,12.518,10.514,14.916c0.466,2.399-3.523,7.5-3.523,7.5s31.025,63.948,30.598,65.634
	c-0.43,1.687-46.884,19.156-46.884,19.156L653.976,40.706z"/>
<path fill="#BCCCD8" d="M766.972,112.748c0,0,7.895,1.176,10.666,2.047c2.77,0.873,6.551,3.673,8.704,2.358
	c2.151-1.313,3.505-7.448-3.632-13.484c-7.133-6.037-18.614-10.142-20.177-10.097c-1.564,0.045-3.897,2.407-4.057,4.923
	C758.319,101.012,766.972,112.748,766.972,112.748"/>
<path fill="#BCCCD8" d="M752.231,98.624c0,0,13.544,8.862,8.802,20.401c0,0,7.347-4.618,8.437-5.797
	c1.092-1.179,3.319-8.872-2.042-14.394c-5.362-5.523-9.271-3.164-11.527-2.214C753.645,97.568,752.231,98.624,752.231,98.624"/>
<path fill="#FAFCFF" d="M711.292,112.048c0,0,16.125,11.412,32.539,12.32c16.415,0.906,20.859-9.634,20.975-12.037
	c0.114-2.403-5.322-12.778-10.22-13.373c-4.896-0.595-6.044,1.776-15.082-5.144c-9.038-6.92-11.021-8.959-13.146-8.918
	C724.232,84.935,705.661,101.787,711.292,112.048"/>
<path fill="#A3B6C9" d="M748.578,114.047c0,0,2.055-9.029-2.539-16.085c0,0,1.675-1.005,3.555,0.906c0,0,5.078,5.129,4.407,14.838
	L748.578,114.047z"/>
<path fill="#BCCCD8" d="M750.372,111.002c-4.767-0.478-12.125,5.552-10.316,11.429c1.809,5.878,10.306,4.823,12.204,3.938
	c1.896-0.883,6.603-3.794,6.839-7.717C759.334,114.729,755.29,111.493,750.372,111.002"/>
<path fill="#576D7C" d="M761.859,97.156c0,0,0.261,0.121,0.699,0.326c0.441,0.216,1.062,0.562,1.738,1.076
	c0.345,0.248,0.703,0.538,1.061,0.871c0.366,0.324,0.726,0.694,1.085,1.09c0.339,0.413,0.702,0.831,1.023,1.292
	c0.331,0.454,0.614,0.952,0.912,1.439c0.256,0.513,0.527,1.016,0.738,1.539c0.238,0.51,0.39,1.045,0.556,1.553
	c0.138,0.517,0.28,1.014,0.345,1.5c0.09,0.481,0.153,0.937,0.17,1.364c0.073,0.848,0.027,1.557-0.027,2.046
	c-0.07,0.487-0.11,0.767-0.11,0.767s-0.069-0.272-0.192-0.746c-0.116-0.471-0.291-1.134-0.527-1.909
	c-0.114-0.39-0.257-0.804-0.405-1.239c-0.142-0.437-0.341-0.882-0.503-1.349c-0.202-0.458-0.398-0.932-0.623-1.402
	c-0.204-0.481-0.469-0.942-0.712-1.41c-0.263-0.458-0.51-0.929-0.804-1.36c-0.262-0.454-0.565-0.868-0.847-1.281
	c-0.312-0.387-0.566-0.805-0.868-1.152c-0.294-0.354-0.56-0.706-0.835-1.002c-0.529-0.616-1.003-1.114-1.343-1.458
	C762.055,97.362,761.859,97.156,761.859,97.156"/>
<path fill="#FAFCFF" d="M682.865,102.831c0,0,3.843,6.763,16.22,10.696c12.379,3.932,26.394-4.262,28.937-6.711
	c2.545-2.448,5.022-14.414,0.102-22.099C723.203,77.032,682.865,102.831,682.865,102.831"/>
<path fill="#8396A5" d="M681.097,102.214c0,0,16.538,7.836,22.062,13.822c0,0,3.589,0.542,3.523-1.471
	C706.615,112.553,692.066,99.563,681.097,102.214"/>
<path fill="#8396A5" d="M729.985,86.493c0,0-16.852,14.36-14.283,28.329c0,0-10.442-0.494-3.728-15.506
	C716.125,90.029,728.508,85.403,729.985,86.493"/>
<path fill="#FAFCFF" d="M671.466,68.479c0,0-0.948,25.092,11.399,34.352c12.35,9.261,44.02-9.886,45.029-16.949
	c1.013-7.063-11.273-33.969-20.028-36.51C699.109,46.831,675.168,54.675,671.466,68.479"/>
<path fill="#A3B6C9" d="M680.913,101.125c0,0,20.531,5.242,46.677-19.193c0,0,3.107,1.759,2.396,4.561
	c-0.711,2.801-12.284,11.082-23.128,16.258c-10.843,5.174-23.464,2.577-24.073,2.115
	C682.175,104.403,681.053,103.128,680.913,101.125"/>
<path fill="#CADDEA" d="M694.185,99.452c0,0,1.916,7.266,4.85,7.663c2.935,0.397,13.17-3.406,13.374-5.373
	c0.202-1.964-2.26-7.134-3.39-7.544C707.887,93.79,694.782,98.046,694.185,99.452"/>
<path fill="#A3B6C9" d="M678.106,77.01c0,0,18.318-8.921,23.465-9.663c0,0,9.686,18.795,10.84,21.781c0,0-21.494,9.35-24.559,9.107
	C687.853,98.236,678.799,80.599,678.106,77.01"/>
<path fill="#FAFCFF" d="M679.532,77.5c0,0,16.799-8.182,21.518-8.86c0,0,8.882,17.233,9.941,19.972c0,0-19.71,8.574-22.521,8.352
	C688.471,96.964,680.169,80.792,679.532,77.5"/>
<path fill="#37536D" d="M683.37,78.388c0,0,4.893-2.08,5.753-2.056c0,0,7.406,14.614,7.738,15.528c0,0-4.545,1.43-5.526,1.896
	C690.353,94.223,683.37,78.388,683.37,78.388"/>
<path fill="#37536D" d="M698.891,74.956c-0.238,1.232-1.428,2.038-2.659,1.802c-1.231-0.238-2.038-1.427-1.802-2.659
	c0.236-1.233,1.428-2.039,2.659-1.802S699.127,73.723,698.891,74.956"/>
<path fill="#37536D" d="M701.265,80.977c-0.236,1.231-1.426,2.038-2.657,1.803c-1.231-0.237-2.04-1.428-1.805-2.659
	c0.237-1.232,1.428-2.04,2.662-1.803C700.696,78.554,701.502,79.744,701.265,80.977"/>
<path fill="#37536D" d="M704.579,87.811c-0.238,1.232-1.428,2.039-2.658,1.802c-1.232-0.236-2.039-1.428-1.803-2.66
	c0.234-1.231,1.428-2.038,2.659-1.801C704.009,85.388,704.816,86.58,704.579,87.811"/>
<path fill="#FAFCFF" d="M708.563,46.266c0,0,15.345-7.994,27.471-8.162c12.13-0.168,16.151,7.517,17.752,12.316
	c1.599,4.802-3.868,14.364-5.316,15.604c-1.447,1.241-18.674,2.771-18.674,2.771s-5.312,4.187-7.325,3.95
	c-2.013-0.239-9.375-3.369-11.923-9.9C708.001,56.314,708.563,46.266,708.563,46.266"/>
<path fill="#8396A5" d="M710.944,45.11c0,0-3.774,9.231,9.948,21.458c0,0-5.397,1.735-11.012-5.785
	C704.265,53.266,706.931,42.679,710.944,45.11"/>
<path fill="#BCCCD8" d="M723.832,59.356c0,0,3.684-10.179,9.521-12.687c5.84-2.507,14.979,2.09,17.691,7.756
	c2.714,5.667-1.028,12.552-4.007,14.571c-2.981,2.02-9.656,3.642-15.305,2.832C726.084,71.02,723.832,59.356,723.832,59.356"/>
<path fill="#CADDEA" d="M730.621,71.719c0,0,7.423,0.907,9.11-0.668c1.684-1.579,3.025-17.563,1.609-20.082
	c-1.416-2.519-4.492-1.802-4.835-0.016c-0.345,1.786-1.344,6.258-2.295,7.978c0,0-2.246-8.628-5.871-9.546
	c-3.625-0.919-4.329,2.748-3.555,4.106c0.776,1.359,2.571,5.505,2.746,6.403c0,0-4.974-4.177-8.686-4.26
	c-3.713-0.083-2.459,4.116-0.992,5.166c1.465,1.049,6.557,4.543,6.897,5.472c0.339,0.929-1.326,5.102-2.025,5.141
	c-0.697,0.039-3.517,1.225-2.988,2.968C720.267,76.124,725.707,77.514,730.621,71.719"/>
<path fill="#576D7C" d="M730.843,69.793c0,0-0.067-0.09-0.158-0.265c-0.093-0.172-0.192-0.445-0.216-0.783
	c-0.021-0.171-0.025-0.358,0.003-0.551c0.021-0.197,0.059-0.402,0.129-0.606c0.08-0.199,0.159-0.409,0.27-0.607
	c0.11-0.197,0.257-0.375,0.395-0.559c0.167-0.162,0.323-0.329,0.506-0.463c0.17-0.152,0.378-0.249,0.566-0.349
	c0.196-0.089,0.389-0.169,0.587-0.204c0.192-0.046,0.375-0.074,0.551-0.067c0.34-0.017,0.623,0.06,0.808,0.134
	c0.179,0.086,0.28,0.135,0.28,0.135s-0.093,0.062-0.257,0.167c-0.156,0.095-0.361,0.238-0.581,0.399l-0.336,0.263
	c-0.115,0.089-0.224,0.204-0.345,0.293l-0.342,0.326c-0.122,0.1-0.224,0.229-0.334,0.344c-0.105,0.122-0.224,0.238-0.311,0.37
	c-0.113,0.117-0.201,0.248-0.296,0.373c-0.071,0.134-0.19,0.249-0.255,0.377c-0.071,0.129-0.163,0.247-0.221,0.367
	C731.022,69.364,730.843,69.793,730.843,69.793"/>
<path fill="#FAFCFF" d="M669.286,68.059c-3.03-0.036-7.317-4.59-9.106-6.531c-5.636-6.123-8.978-14.037-6.424-22.364
	c3.743-12.205,18.123-21.167,30.626-20.224c8.637,0.651,16.301,5.703,20.275,13.405c6.231,12.083-0.393,20.921-0.393,20.921
	S682.215,68.211,669.286,68.059"/>
<path fill="#284256" d="M670.045,65.924c-4.222,0.248-9.067-7.614-10.629-10.904c-2.696-5.668-2.226-12.861,1.242-18.093
	c6.811-10.282,24.208-11.302,31.782-1.373c2.615,3.43,4.071,7.614,4.959,11.836c1.415,6.732-0.607,8.663-5.794,11.917
	C685.125,63.371,677.655,65.476,670.045,65.924"/>
<path fill="#A3B6C9" d="M672.239,72.246c-1.254,0.046-4.275,1.341-5.034-0.788c-0.479-1.35-1.155-4.272-0.586-4.822
	c0.945-0.914,3.244-1.15,6.546-2.135c5.283-1.576,21.686-10.383,27.276-14.823c5.589-4.439,8.32-4.977,9.524-3.144
	c1.203,1.834-0.434,10.383-14.388,17.318C684.206,69.504,677.264,72.057,672.239,72.246"/>
<path fill="#BCCCD8" d="M702.12,25.956c-4.659-1.41-7.846,8.87-4.661,14.353c3.183,5.481,7.495,5.861,10.189,4.288
	C711.464,42.364,709.644,28.23,702.12,25.956"/>
<path fill="#3F617A" d="M660.266,53.667c-3.358-5.173-0.067-15.301,7.038-18.105c7.105-2.806,17.215-2.63,19.342,4.882
	C688.769,47.957,668.984,67.095,660.266,53.667"/>
<path fill="#FFFFFF" d="M661.482,40.494c-4.755,5.204,2.043,9.871,5.745,6.78C670.935,44.184,665.094,36.542,661.482,40.494"/>
</svg>
